<svg xmlns="http://www.w3.org/2000/svg" width="70.359" height="74.698" viewBox="0 0 70.359 74.698">
    <defs>
        <style>
            .cls-1{fill:#00306b}
        </style>
    </defs>
    <path id="Caminho_1" d="M384.036 157.562v-12.974a.111.111 0 0 0-.1-.1h-20.721a.1.1 0 0 0-.086.052l-13.078 18.515a.115.115 0 0 1-.172 0l-3.717-5.317a.147.147 0 0 1 0-.12l19.737-28.5a.017.017 0 0 1 .017-.017c.533-1.084-.551-1.084-.551-1.084h-13.18a2.4 2.4 0 0 0-1.635.551l-.017.017-17.38 24.985a.105.105 0 0 1-.189-.052V129.1a1.079 1.079 0 0 0-1.1-1.1h-17.036c-1.1 0-1.1.551-1.1.551s-.034 12.08 0 13.181c.017.344.086.964.482 1.084a.645.645 0 0 0 .189.017h3.614a.111.111 0 0 1 .1.1V172.4a.111.111 0 0 1-.1.1h-3.734a.539.539 0 0 0-.551.551v14.179a.111.111 0 0 0 .1.1h18.928a.1.1 0 0 1 .086.155l-10.755 15.057a.1.1 0 0 0 .086.155h14.577a.1.1 0 0 0 .086-.052l12.527-17.965a.115.115 0 0 1 .172 0l2.082 2.6a.131.131 0 0 0 .086.034h14.127a.111.111 0 0 1 .1.1v15.177a.111.111 0 0 0 .1.1h17.93a.111.111 0 0 0 .1-.1v-13.505a.111.111 0 0 0-.1-.1h-3.648a.111.111 0 0 1-.1-.1v-31.117a.111.111 0 0 1 .1-.1h3.648c.04-.003.076-.055.076-.107zm-51.089 28.909V162.38a.1.1 0 0 1 .189-.052l8.569 12.3a.147.147 0 0 1 0 .12l-8.569 11.77a.105.105 0 0 1-.189-.047zm32.78-1.6l-8.019-11.219c-.034-.034-.017-.086 0-.12l8.019-10.686c.052-.086.189-.034.189.069V184.8c.001.105-.137.157-.189.071z" class="cls-1" data-name="Caminho 1" transform="translate(-313.711 -128)"/>
</svg>
