<?xml version="1.0" encoding="utf-8"?>
<!-- Generator: Adobe Illustrator 19.0.0, SVG Export Plug-In . SVG Version: 6.00 Build 0)  -->
<svg version="1.1" id="Layer_1" xmlns="http://www.w3.org/2000/svg" xmlns:xlink="http://www.w3.org/1999/xlink" x="0px" y="0px"
	 viewBox="0 0 259 255" style="enable-background:new 0 0 259 255;" xml:space="preserve">
<style type="text/css">
	.st0{opacity:0.1;enable-background:new    ;}
	.st1{fill:#1F3568;}
	.st2{fill:#FFFFFF;}
	.st3{fill:#689CD3;}
	.st4{fill:#CEE5F7;}
	.st5{fill:#F3F3F3;}
	.st6{clip-path:url(#XMLID_214_);}
	.st7{fill:#B1D4F0;}
	.st8{fill:#D33B3A;}
	.st9{fill:#E2C849;}
	.st10{fill:#5DBA47;}
	.st11{fill:#F1DD3F;}
	.st12{fill:#EDCF1D;}
	.st13{fill:#4593CF;}
	.st14{fill:#D7D6D6;}
	.st15{opacity:0.1;fill:#1F3568;enable-background:new    ;}
	.st16{clip-path:url(#XMLID_215_);}
</style>
<g id="XMLID_2_">
	<g id="XMLID_52_">
		<g id="XMLID_209_" class="st0">
			<path id="XMLID_213_" class="st1" d="M17.9,241c-5.2,0-9.4-4.3-9.4-9.5v-13.1c0-5.2,4.2-9.5,9.4-9.5h70c2,0,3.9,0.7,5.2,2.3
				l5.4,6.3h61.2l5.4-6.3c1.4-1.5,3.1-2.3,5.2-2.3h70c5.2,0,9.4,4.3,9.4,9.5v13.1c0,5.2-4.2,9.5-9.4,9.5H17.9z"/>
			<path id="XMLID_210_" class="st2" d="M240.1,213.1c2.8,0,5.1,2.3,5.1,5.1v13.1c0,2.8-2.3,5.1-5.1,5.1H17.9
				c-2.8,0-5.1-2.3-5.1-5.1v-13.1c0-2.8,2.3-5.1,5.1-5.1h70c0.7,0,1.5,0.3,1.9,0.8l6.6,7.8h65.2l6.6-7.8c0.5-0.6,1.2-0.8,1.9-0.8
				H240.1 M240.1,204.4h-70c-3.1,0-6.2,1.4-8.4,3.8c0,0.1-0.1,0.1-0.1,0.2l-4.1,4.7h-57.4l-4.1-4.7c0-0.1-0.1-0.1-0.1-0.2
				c-2.2-2.4-5.1-3.8-8.4-3.8h-70c-7.6,0-13.7,6.2-13.7,13.9v13.1c0,7.7,6.2,13.9,13.7,13.9h222.3c7.6,0,13.7-6.2,13.7-13.9v-13.1
				C253.9,210.7,247.8,204.4,240.1,204.4L240.1,204.4z"/>
		</g>
		<g id="XMLID_204_">
			<path id="XMLID_208_" class="st3" d="M28,215.8c-2.4,0-4.3-2-4.3-4.4V81.6c0-7.3,5.9-13.3,13.2-13.3H221
				c7.3,0,13.2,5.9,13.2,13.3v129.8c0,2.4-1.9,4.4-4.3,4.4L28,215.8L28,215.8z"/>
			<path id="XMLID_205_" class="st2" d="M221,72.7c4.9,0,8.8,4,8.8,8.9v129.8H28V81.6c0-4.9,4-8.9,8.8-8.9H221 M221,64H37
				c-9.7,0-17.5,8-17.5,17.7v129.8c0,4.8,3.9,8.7,8.7,8.7H230c4.8,0,8.7-3.9,8.7-8.7V81.6C238.6,72,230.7,64,221,64L221,64z"/>
		</g>
		<g id="XMLID_199_">
			<path id="XMLID_203_" class="st4" d="M17.9,227c-5.2,0-9.4-4.3-9.4-9.5v-13.1c0-5.2,4.2-9.5,9.4-9.5h70c2,0,3.9,0.7,5.2,2.3
				l5.4,6.3h61.2l5.4-6.3c1.4-1.5,3.1-2.3,5.2-2.3h70c5.2,0,9.4,4.3,9.4,9.5v13.1c0,5.2-4.2,9.5-9.4,9.5H17.9z"/>
			<path id="XMLID_200_" class="st2" d="M240.1,199.1c2.8,0,5.1,2.3,5.1,5.1v13.1c0,2.8-2.3,5.1-5.1,5.1H17.9
				c-2.8,0-5.1-2.3-5.1-5.1v-13.1c0-2.8,2.3-5.1,5.1-5.1h70c0.7,0,1.5,0.3,1.9,0.8l6.6,7.8h65.2l6.6-7.8c0.5-0.6,1.2-0.8,1.9-0.8
				H240.1 M240.1,190.3h-70c-3.1,0-6.2,1.4-8.4,3.8c0,0.1-0.1,0.1-0.1,0.2l-4.1,4.7h-57.4l-4.1-4.7c0-0.1-0.1-0.1-0.1-0.2
				c-2.2-2.4-5.1-3.8-8.4-3.8h-70c-7.6,0-13.7,6.2-13.7,13.9v13.1c0,7.7,6.2,13.9,13.7,13.9h222.3c7.6,0,13.7-6.2,13.7-13.9v-13.1
				C253.9,196.6,247.8,190.3,240.1,190.3L240.1,190.3z"/>
		</g>
		<g id="XMLID_183_">
			<g id="XMLID_194_">
				<path id="XMLID_198_" class="st1" d="M229.8,190.2c-3.9,0-6.9-3.1-6.9-7V81.6c0-1-0.8-2-1.9-2H91.1c-3.9,0-6.9-3.1-6.9-7
					s3-7,6.9-7H221c8.7,0,15.7,7.1,15.7,16v101.6C236.8,187.1,233.6,190.2,229.8,190.2z"/>
				<path id="XMLID_195_" class="st2" d="M221,70.1c6.3,0,11.4,5.1,11.4,11.5v101.6c0,1.5-1.2,2.6-2.6,2.6s-2.6-1.2-2.6-2.6V81.6
					c0-3.5-2.8-6.3-6.3-6.3H91c-1.5,0-2.6-1.2-2.6-2.6s1.2-2.6,2.6-2.6H221 M221,61.4H91.1c-6.2,0-11.2,5-11.2,11.3
					c0,6.2,5,11.3,11.2,11.3h127.5v99.2c0,6.2,5,11.3,11.2,11.3c6.3,0,11.2-5,11.2-11.3V81.6C241.2,70.5,232,61.4,221,61.4L221,61.4
					z"/>
			</g>
			<g id="XMLID_184_">
				<path id="XMLID_191_" class="st1" d="M17.9,229.6c-6.6,0-12.1-5.5-12.1-12.2v-13.1c0-6.7,5.4-12.2,12.1-12.2h3.4V81.7
					c0-8.7,7-16,15.7-16h38.3c3.9,0,6.9,3.1,6.9,7s-3,7-6.9,7H37.1c-1,0-1.9,0.8-1.9,2v110.5H88c2.8,0,5.4,1.3,7.2,3.3l4.5,5.2h58.9
					l4.6-5.4c1.8-2.1,4.4-3.3,7.2-3.3h70c6.6,0,12.1,5.5,12.1,12.2v13.1c0,6.7-5.4,12.2-12.1,12.2H17.9V229.6L17.9,229.6z
					 M238.5,215.6v-9.5h-66.2l-5.4,6.3c-1.4,1.5-3.1,2.3-5.2,2.3H96.5c-2,0-4-0.8-5.2-2.4l-5.2-6.2H19.8v9.5H238.5z"/>
				<path id="XMLID_185_" class="st2" d="M75.4,70.2c1.5,0,2.6,1.2,2.6,2.6c0,1.5-1.2,2.6-2.6,2.6H37.1c-3.5,0-6.3,2.8-6.3,6.3
					v114.9H88c1.6,0,2.9,0.6,4,1.9l5.9,6.8h62.9l5.9-6.8c0.9-1.2,2.4-1.9,4-1.9h70c4.2,0,7.7,3.5,7.7,7.8v13.1
					c0,4.3-3.5,7.8-7.7,7.8H18.3c-4.2,0-7.7-3.5-7.7-7.8v-13.1c0-4.3,3.5-7.8,7.7-7.8H26V81.7c0-6.3,5.1-11.5,11.4-11.5H75.4
					 M96.4,210.3c-0.7,0-1.6-0.3-1.9-0.8l-6.6-7.8h-70c-1.5,0-2.6,1.2-2.6,2.6v13.1c0,1.5,1.2,2.6,2.6,2.6h222.3
					c1.5,0,2.6-1.2,2.6-2.6h0.1v-13.1c0-1.5-1.2-2.6-2.6-2.6h-69.9l-6.6,7.8c-0.5,0.6-1.2,0.8-1.9,0.8H96.4 M75.4,61.5H37.1
					c-11,0-20.1,9.1-20.1,20.4v106.1c-8.6,0.5-15.4,7.8-15.4,16.5v13.1c0,9.1,7.3,16.5,16.4,16.5h222.3c9,0,16.4-7.3,16.4-16.5
					v-13.1c0-9.1-7.3-16.5-16.4-16.5h-70c-4.1,0-7.8,1.8-10.5,4.8l-3.3,3.8h-55l-3.3-3.8c-2.6-3-6.4-4.8-10.5-4.8H39.2V84.1h36
					c6.2,0,11.2-5,11.2-11.3C86.5,66.5,81.5,61.5,75.4,61.5L75.4,61.5z M174.1,210.5H234v0.7h-60.5L174.1,210.5L174.1,210.5z
					 M24,210.5h59.9l0.6,0.7H23.9v-0.7H24z"/>
			</g>
		</g>
		<g id="XMLID_178_">
			<path id="XMLID_182_" class="st5" d="M42.6,191.1c-3.9,0-6.9-3.1-6.9-7V88.2c0-3.9,3-7,6.9-7h172.7c3.9,0,6.9,3.1,6.9,7V184
				c0,3.9-3,7-6.9,7H42.6L42.6,191.1z"/>
			<path id="XMLID_179_" class="st2" d="M215.4,85.6c1.5,0,2.6,1.2,2.6,2.6V184c0,1.5-1.2,2.6-2.6,2.6H42.6c-1.5,0-2.6-1.2-2.6-2.6
				V88.2c0-1.5,1.2-2.6,2.6-2.6H215.4 M215.4,76.9H42.6c-6.2,0-11.2,5-11.2,11.3V184c0,6.2,5,11.3,11.2,11.3h172.7
				c6.2,0,11.2-5,11.2-11.3V88.2C226.6,82,221.5,76.9,215.4,76.9L215.4,76.9z"/>
		</g>
		<g id="XMLID_148_">
			<g id="XMLID_149_">
				<g id="XMLID_150_">
					<g id="XMLID_151_">
						<g id="XMLID_152_">
							<g id="XMLID_153_">
								<g id="XMLID_154_">
									<g id="XMLID_155_">
										<defs>
											<path id="XMLID_177_" d="M215.4,186.6H42.6c-1.5,0-2.6-1.2-2.6-2.6V88.2c0-1.5,1.2-2.6,2.6-2.6h172.7
												c1.5,0,2.6,1.2,2.6,2.6V184C218,185.5,216.8,186.6,215.4,186.6z"/>
										</defs>
										<clipPath id="XMLID_214_">
											<use xlink:href="#XMLID_177_"  style="overflow:visible;"/>
										</clipPath>
										<g id="XMLID_156_" class="st6">
											<g id="XMLID_172_">
												<path id="XMLID_176_" class="st7" d="M39.7,104.7c-2.4,0-4.3-2-4.3-4.4v-13c0-4.4,4.6-7.1,12.2-7.1h164
													c7.6,0,12.2,2.7,12.2,7.1v13c0,2.4-1.9,4.4-4.3,4.4H39.7z"/>
												<path id="XMLID_173_" class="st2" d="M211.7,84.4c4.3,0,7.8,1.3,7.8,2.7v13H39.7v-13c0-1.6,3.5-2.7,7.8-2.7H211.7
													 M211.7,75.7H47.6c-12.2,0-16.5,6.2-16.5,11.4v13c0,4.8,3.9,8.7,8.7,8.7h179.8c4.8,0,8.7-3.9,8.7-8.7v-13
													C228.2,81.9,223.8,75.7,211.7,75.7L211.7,75.7z"/>
											</g>
											<g id="XMLID_167_">
												<path id="XMLID_171_" class="st8" d="M49.8,99c-3.4,0-6.2-2.8-6.2-6.2s2.8-6.2,6.2-6.2c3.4,0,6.2,2.8,6.2,6.2
													C55.9,96.2,53.1,99,49.8,99z"/>
												<path id="XMLID_168_" class="st2" d="M49.8,90.9c0.9,0,1.8,0.7,1.8,1.9c0,0.9-0.7,1.9-1.8,1.9c-0.9,0-1.8-0.7-1.8-1.9
													C47.9,91.8,48.7,90.9,49.8,90.9 M49.8,82.2c-5.8,0-10.5,4.7-10.5,10.6s4.7,10.6,10.5,10.6s10.5-4.7,10.5-10.6
													S55.5,82.2,49.8,82.2L49.8,82.2z"/>
											</g>
											<g id="XMLID_162_">
												<path id="XMLID_166_" class="st9" d="M55.5,99c-3.4,0-6.2-2.8-6.2-6.2s2.8-6.2,6.2-6.2s6.2,2.8,6.2,6.2
													C61.6,96.2,58.9,99,55.5,99z"/>
												<path id="XMLID_163_" class="st2" d="M55.5,90.9c0.9,0,1.8,0.7,1.8,1.9c0,0.9-0.7,1.9-1.8,1.9c-0.9,0-1.8-0.7-1.8-1.9
													C53.7,91.8,54.5,90.9,55.5,90.9 M55.5,82.2C49.8,82.2,45,87,45,92.8s4.7,10.6,10.5,10.6S66,98.7,66,92.8
													C65.9,87,61.3,82.2,55.5,82.2L55.5,82.2z"/>
											</g>
											<g id="XMLID_157_">
												<path id="XMLID_161_" class="st10" d="M61.2,99c-3.4,0-6.2-2.8-6.2-6.2s2.8-6.2,6.2-6.2c3.4,0,6.2,2.8,6.2,6.2
													C67.3,96.2,64.6,99,61.2,99z"/>
												<path id="XMLID_158_" class="st2" d="M61.2,90.9c0.9,0,1.8,0.7,1.8,1.9c0,0.9-0.7,1.9-1.8,1.9c-1,0-1.8-0.7-1.8-1.9
													C59.3,91.8,60.3,90.9,61.2,90.9 M61.2,82.2c-5.8,0-10.5,4.7-10.5,10.6s4.7,10.6,10.5,10.6s10.5-4.7,10.5-10.6
													S67,82.2,61.2,82.2L61.2,82.2z"/>
											</g>
										</g>
									</g>
								</g>
							</g>
						</g>
					</g>
				</g>
			</g>
		</g>
		<g id="XMLID_133_" class="st0">
			<path id="XMLID_142_" class="st1" d="M112.7,178c-4.4,0-8.1-3.6-8.1-8.2V164c-3.4-1-6.6-2.4-9.9-4.1l-4.1,4.2
				c-1.6,1.6-3.6,2.3-5.7,2.3c-2.1,0-4.1-0.8-5.7-2.3l-11.5-11.6c-3.1-3.3-3.1-8.4,0-11.4l4.1-4.2c-1.7-3.3-3-6.5-4.1-9.9h-5.9
				c-4.4,0-8-3.6-8-8.1v-16.6c0-4.5,3.6-8.1,8-8.1h6c1-3.4,2.4-6.7,4.1-9.9l-4.1-4.2c-3.1-3.3-3.1-8.4,0-11.4l8.6-8.6
				c-1.8-3.9-2.8-8.2-2.8-12.5c0-3.8,0.7-7.6,2.2-11.1c0.9-2.3,3.3-3.9,5.8-3.9c2.3,0,4.4,1.3,5.5,3.3l7.1,13.6l14.4-7.6l-7.5-14.1
				c-1-2-0.9-4.3,0.2-6.2c1.2-1.9,3.1-3,5.2-3c0.4,0,0.6,0,1,0.1c12.6,2.2,22,12.3,23.8,24.7c3.3,0.9,5.7,4.1,5.7,7.8v5.8
				c3.4,1,6.6,2.4,9.9,4.1l4.1-4.2c1.6-1.6,3.6-2.3,5.7-2.3s4.1,0.8,5.7,2.3L174,68.5c3.1,3.3,3.1,8.4,0,11.4l-4.1,4.2
				c1.7,3.3,3,6.5,4.1,9.9h5.9c2.2,0,4.3,0.8,5.8,2.5c1.5,1.6,2.2,3.6,2.1,5.8v16.6c0,4.5-3.6,8.1-8.1,8.1h-5.9
				c-1,3.4-2.4,6.7-4.1,9.9l4.1,4.2c3.1,3.3,3.1,8.4,0,11.4l-11.5,11.6c-1.6,1.6-3.6,2.3-5.7,2.3c-2.1,0-4.1-0.8-5.7-2.3l-4.1-4.2
				c-3.1,1.7-6.4,3.1-9.9,4.1v5.9c0,4.5-3.6,8.2-8,8.2L112.7,178L112.7,178z M117.1,143.6c0.8,0.1,1.8,0.2,2.7,0.2
				c0.6-5.4,1.8-10.3,3.1-14.4c-1.5-1.6-2.4-3.6-2.4-5.9c0-3.9,2.7-7.2,6.3-8.1V77.8c0-0.1,0-0.2,0-0.4c-1.9-0.4-3.9-0.5-5.8-0.5
				c-1.4,0-2.7,0.1-4,0.2V143.6L117.1,143.6z M148.1,129.7c0.3-0.4,0.6-0.8,0.8-1.4c-0.3,0.4-0.6,0.7-0.9,1.2
				C148.1,129.6,148.1,129.6,148.1,129.7z M144.1,115.5c3.6,0.9,6.3,4.2,6.3,8.1c0,1.6-0.4,3-1.2,4.3c3.1-5.2,4.9-11.2,4.9-17.4
				c0-9.1-3.8-17.7-10-24L144.1,115.5L144.1,115.5z M88.4,104.3c-0.4,2-0.6,4-0.6,6.1c0,2,0.2,4.1,0.6,6.1V104.3z"/>
			<path id="XMLID_134_" class="st2" d="M106.8,22.6c0.1,0,0.2,0,0.3,0c11.5,2,20.4,12.2,20.5,24.3h1.8c2,0,3.7,1.7,3.7,3.7v9.2
				c5.2,1.3,10.3,3.4,14.9,6.2l6.4-6.5c0.6-0.6,1.7-1,2.6-1s1.9,0.4,2.6,1l11.5,11.6c1.5,1.5,1.5,3.9,0,5.4l-6.4,6.5
				c2.8,4.6,4.9,9.7,6.2,15.1h9.1c2,0,3.7,1.7,3.6,3.7v16.6c0,2-1.7,3.7-3.7,3.7h-9.1c-1.3,5.4-3.4,10.4-6.2,15.1l6.4,6.5
				c1.5,1.5,1.5,3.9,0,5.4l-11.5,11.6c-0.6,0.6-1.7,1-2.6,1s-1.9-0.4-2.6-1l-6.4-6.5c-4.5,2.8-9.5,4.9-14.9,6.2v9.2
				c0,2-1.7,3.7-3.7,3.7h-16.6c-2,0-3.7-1.7-3.7-3.7v-9.2c-5.2-1.3-10.3-3.4-14.9-6.2l-6.4,6.5c-0.6,0.6-1.7,1-2.6,1
				c-0.9,0-1.9-0.4-2.6-1l-11.5-11.6c-1.5-1.5-1.5-3.9,0-5.4l6.4-6.5c-2.8-4.6-4.9-9.7-6.2-15.1h-9.1c-2,0-3.7-1.7-3.7-3.7v-16.6
				c0-2,1.7-3.7,3.7-3.7h9.3c1.3-5.4,3.4-10.4,6.2-15.1l-6.4-6.5c-1.5-1.5-1.5-3.9,0-5.4l10.8-10.9c-2.4-3.9-3.8-8.4-3.8-13.2
				c0-3.3,0.6-6.5,1.8-9.4c0.3-0.7,1-1.2,1.8-1.2c0.7,0,1.4,0.3,1.8,1l7.3,14c0.6,1.3,2,2,3.4,2c0.6,0,1.2-0.1,1.8-0.5l15.2-8.1
				c1.8-0.9,2.6-3.3,1.7-5.1l-7.6-14.6C104.4,24.2,105.4,22.6,106.8,22.6 M121,148.2c0.9,0,1.8-0.1,2.7-0.1
				c0.5-8.5,2.3-15.6,4.7-20.5c-2-0.3-3.6-2-3.6-4c0-2.2,1.8-4,4-4h2.3V77.9c0-1.3,0.3-2.5,0.6-3.6c-3.5-1-7.1-1.7-10.9-1.7
				c-2.8,0-5.6,0.3-8.3,0.9v0.1v73.5C115.4,147.9,118.2,148.2,121,148.2 M139.8,119.6h2.3c2.2,0,4,1.8,4,4c0,2-1.6,3.8-3.6,4
				c1.6,2.8,2.7,6.6,3.6,10.9c7.6-7,12.4-17,12.4-28.1c0-14-7.6-26.1-18.7-32.7v0.1V119.6 M92.8,135.1V85.5
				c-5.8,6.6-9.2,15.3-9.2,24.9S87,128.5,92.8,135.1 M106.8,13.9c-3.7,0-7.1,2-9,5.1c-1.9,3.3-2.1,7.1-0.4,10.5c0,0,0,0,0,0.1
				l5.4,10.2L96,43.3l-5-9.8c0,0,0,0,0-0.1c-1.8-3.5-5.4-5.7-9.3-5.7c-4.3,0-8.1,2.6-9.8,6.6c-1.7,4.1-2.5,8.4-2.5,12.8
				c0,3.9,0.6,7.8,2,11.4L65,65.1c-4.8,4.8-4.8,12.8,0,17.7l1.9,2c-0.6,1.6-1.4,3.1-1.9,4.6H62c-6.8,0-12.3,5.7-12.3,12.5v16.6
				c0,6.9,5.6,12.5,12.3,12.5h2.8c0.6,1.6,1.3,3.1,1.9,4.6l-1.9,2c-4.8,4.8-4.8,12.8,0,17.7L76.4,167c2.3,2.3,5.5,3.7,8.7,3.7
				c3.3,0,6.4-1.3,8.7-3.7l1.9-2c1.6,0.6,3,1.4,4.6,2v2.8c0,6.9,5.6,12.5,12.3,12.5h16.5c6.8,0,12.3-5.7,12.3-12.5V167
				c1.6-0.6,3-1.3,4.6-2l1.9,2c2.3,2.3,5.5,3.7,8.7,3.7s6.4-1.3,8.7-3.7l11.5-11.6c4.8-4.8,4.8-12.8,0-17.7l-1.9-2
				c0.6-1.6,1.4-3.1,1.9-4.6h2.8c6.8,0,12.3-5.7,12.3-12.5v-16.4c0.1-3.3-1.2-6.4-3.4-8.7c-2.3-2.4-5.6-3.9-8.9-3.9h-2.8
				c-0.6-1.6-1.3-3.1-1.9-4.6l1.9-2c2.3-2.3,3.7-5.6,3.7-8.8s-1.3-6.5-3.7-8.8l-11.5-11.6c-2.3-2.3-5.5-3.7-8.7-3.7
				s-6.4,1.3-8.7,3.7l-1.9,2c-1.6-0.6-3-1.4-4.6-2v-2.8c0-4.6-2.5-8.6-6.2-10.8c-2.9-13.1-13.3-23.6-27-25.9c0,0,0,0-0.1,0
				C107.9,14,107.3,13.9,106.8,13.9L106.8,13.9z M121.4,113.4V81.3c0.4,0,0.7,0,1,0v31.3C122.1,112.8,121.8,113.1,121.4,113.4
				L121.4,113.4z M148.4,112.7v-11c0.8,2.8,1.4,5.8,1.4,8.7c0,0.9-0.1,2-0.2,3C149.4,113.1,148.8,112.9,148.4,112.7L148.4,112.7z"/>
		</g>
		<g id="XMLID_128_" class="st0">
			<path id="XMLID_132_" class="st1" d="M127.8,145.6c-23,0-41.8-19-41.8-42.2s18.8-42.2,41.8-42.2s41.8,19,41.8,42.2
				S150.9,145.6,127.8,145.6z"/>
			<path id="XMLID_129_" class="st2" d="M127.8,65.5c20.7,0,37.5,16.9,37.5,37.8s-16.8,37.8-37.5,37.8s-37.5-16.9-37.5-37.8
				S107.2,65.5,127.8,65.5 M127.8,56.8c-25.4,0-46.1,20.9-46.1,46.6s20.7,46.6,46.1,46.6s46.1-20.9,46.1-46.6S153.2,56.8,127.8,56.8
				L127.8,56.8z"/>
		</g>
		<g id="XMLID_119_">
			<path id="XMLID_125_" class="st11" d="M119.7,171.1c-4.4,0-8-3.6-8-8.2v-5.9c-3.4-1-6.6-2.4-9.9-4.1l-4.1,4.2
				c-1.6,1.6-3.6,2.3-5.7,2.3c-2.1,0-4.1-0.8-5.7-2.3l-11.5-11.6c-1.6-1.6-2.3-3.6-2.3-5.8c0-2.2,0.8-4.2,2.3-5.8l4.1-4.2
				c-1.7-3.3-3-6.5-4.1-9.9H69c-4.4,0-8.1-3.6-8.1-8.1V95.2c0-4.5,3.6-8.2,8.1-8.2h5.9c1-3.4,2.4-6.7,4.1-9.9L74.9,73
				c-1.6-1.6-2.3-3.6-2.3-5.8c0-2.1,0.8-4.2,2.3-5.8l11.5-11.6c1.6-1.6,3.6-2.3,5.7-2.3c2.1,0,4.1,0.8,5.7,2.3l4.1,4.2
				c3.1-1.7,6.4-3.1,9.9-4.1V44c0-4.5,3.6-8.1,8-8.1h16.5c4.4,0,8,3.6,8,8.1v5.9c3.4,1,6.6,2.4,9.9,4.1l4.1-4.2
				c1.6-1.6,3.6-2.3,5.7-2.3s4.1,0.8,5.7,2.3l11.5,11.6c1.6,1.6,2.3,3.6,2.3,5.8c0,2.1-0.8,4.2-2.3,5.8l-4.1,4.2
				c1.7,3.3,3,6.5,4.1,9.9h5.9c2.2,0,4.2,0.8,5.8,2.4c1.5,1.6,2.3,3.6,2.2,5.8v16.5c0,4.5-3.6,8.1-8,8.1h-5.9
				c-1,3.4-2.4,6.7-4.1,9.9l4.1,4.2c3.1,3.3,3.1,8.4,0,11.4L169.4,157c-1.6,1.6-3.6,2.3-5.7,2.3s-4.1-0.8-5.7-2.3l-4.1-4.2
				c-3.1,1.7-6.4,3.1-9.9,4.1v5.9c0,4.5-3.6,8.2-8,8.2L119.7,171.1L119.7,171.1z M127.8,70c-18.3,0-33.1,15-33.1,33.5
				s14.8,33.5,33.1,33.5s33.1-15,33.1-33.5S146.1,70,127.8,70z"/>
			<path id="XMLID_120_" class="st2" d="M136.1,40.3c2,0,3.7,1.7,3.7,3.7v9.2c5.2,1.3,10.3,3.4,14.9,6.2l6.4-6.5
				c0.6-0.6,1.7-1,2.6-1s1.9,0.4,2.6,1l11.5,11.6c1.5,1.5,1.5,3.9,0,5.4l-6.4,6.5c2.8,4.6,4.9,9.7,6.2,15.1h9.1c2,0,3.7,1.7,3.7,3.7
				v16.6c0,2-1.7,3.7-3.7,3.7h-9.1c-1.3,5.4-3.4,10.4-6.2,15.1l6.4,6.5c1.5,1.5,1.5,3.9,0,5.4L166.4,154c-0.6,0.6-1.7,1-2.6,1
				s-1.9-0.4-2.6-1l-6.4-6.5c-4.5,2.8-9.5,4.9-14.9,6.2v9.2c0,2-1.7,3.7-3.7,3.7h-16.5c-2,0-3.7-1.7-3.7-3.7v-9.2
				c-5.2-1.3-10.3-3.4-14.9-6.2l-6.4,6.5c-0.6,0.6-1.7,1-2.6,1s-1.9-0.4-2.6-1l-11.5-11.6c-1.5-1.5-1.5-3.9,0-5.4l6.4-6.5
				c-2.8-4.6-4.9-9.7-6.2-15.1H69c-2,0-3.7-1.7-3.7-3.7V95.1c0-2,1.7-3.7,3.7-3.7h9.1c1.3-5.4,3.4-10.4,6.2-15.1l-6.4-6.5
				c-1.5-1.5-1.5-3.9,0-5.4l11.5-11.6c0.6-0.6,1.7-1,2.6-1s1.9,0.4,2.6,1l6.4,6.5c4.5-2.8,9.5-4.9,14.9-6.2v-9.2
				c0-2,1.7-3.7,3.7-3.7L136.1,40.3 M127.8,141.3c20.7,0,37.5-16.9,37.5-37.8s-16.8-37.8-37.5-37.8s-37.5,16.9-37.5,37.8
				S107.2,141.3,127.8,141.3 M136.1,31.4h-16.5c-6.8,0-12.3,5.7-12.3,12.5v2.8c-1.6,0.6-3,1.3-4.6,2l-1.9-2
				c-2.3-2.3-5.5-3.7-8.7-3.7s-6.4,1.3-8.7,3.7L71.9,58.4c-4.8,4.8-4.8,12.8,0,17.7l1.9,2c-0.6,1.6-1.4,3.1-1.9,4.6h-2.8
				c-6.8,0-12.3,5.7-12.3,12.5v16.6c0,6.9,5.6,12.5,12.3,12.5h2.8c0.6,1.6,1.3,3.1,1.9,4.6l-1.9,2c-4.8,4.8-4.8,12.8,0,17.7
				l11.5,11.6c2.3,2.3,5.5,3.7,8.7,3.7c3.3,0,6.4-1.3,8.7-3.7l1.9-2c1.6,0.6,3,1.4,4.6,2v2.8c0,6.9,5.6,12.5,12.3,12.5h16.5
				c6.8,0,12.3-5.7,12.3-12.5v-2.8c1.6-0.6,3-1.3,4.6-2l1.9,2c2.3,2.3,5.5,3.7,8.7,3.7c3.3,0,6.4-1.3,8.7-3.7l11.5-11.6
				c4.8-4.8,4.8-12.8,0-17.7l-1.9-2c0.6-1.6,1.4-3.1,1.9-4.6h2.8c6.8,0,12.3-5.7,12.3-12.5V95.4c0-3.3-1.2-6.4-3.5-8.8
				c-2.3-2.4-5.5-3.8-8.8-3.8h-2.8c-0.6-1.6-1.3-3.1-1.9-4.6l1.9-2c4.8-4.8,4.8-12.8,0-17.7l-11.5-11.6c-2.3-2.3-5.5-3.7-8.7-3.7
				c-3.3,0-6.4,1.3-8.7,3.7l-1.9,2c-1.6-0.6-3-1.4-4.6-2v-2.8C148.4,37.1,142.9,31.4,136.1,31.4L136.1,31.4z M127.8,132.5
				c-15.8,0-28.8-13-28.8-29.1s12.9-29.1,28.8-29.1s28.8,13,28.8,29.1S143.8,132.5,127.8,132.5L127.8,132.5z"/>
		</g>
		<g id="XMLID_114_">
			<path id="XMLID_118_" class="st12" d="M99.6,83.1c-0.5,0-1-0.1-1.6-0.3c-1.8-0.6-2.8-2.2-2.8-4.1v-5c0-0.5-0.2-0.8-0.6-1
				c-5.7-3.4-10.1-8.7-12.4-15.1c-0.6-1.6-0.2-3.4,0.9-4.6l3-3.1c1.6-1.6,3.6-2.3,5.7-2.3s4.1,0.8,5.7,2.3l4.1,4.2
				c3.1-1.7,6.4-3.1,9.9-4.1v-5.9c0-4.5,3.6-8.2,8-8.2h13.6c1.9,0,3.6,1.3,4.1,3.1c0.8,2.9,1.3,5.9,1.3,9c-0.2,7.9-3.6,15.5-9.4,21
				c-0.7,0.6-1.8,1-2.8,1.2c-9,0.4-17.7,4.6-23.7,11.4C102,82.5,100.9,83.1,99.6,83.1z"/>
			<path id="XMLID_115_" class="st2" d="M133.4,40.2c0.6,2.4,1,4.9,1,7.7c-0.2,7-3.3,13.3-8,17.7c-10.7,0.5-20.3,5.5-26.8,13v-5
				c0-2-1-3.8-2.7-4.8c-4.8-2.9-8.6-7.5-10.6-12.9l3-3.1c0.6-0.6,1.7-1,2.6-1s1.9,0.4,2.6,1l6.4,6.5c4.5-2.8,9.5-4.9,14.9-6.2v-9.2
				c0-2,1.7-3.7,3.7-3.7L133.4,40.2 M133.4,31.3h-13.6c-6.8,0-12.3,5.7-12.3,12.5v2.8c-1.6,0.6-3,1.3-4.6,2l-1.9-2
				c-2.3-2.3-5.5-3.7-8.7-3.7s-6.4,1.3-8.7,3.7l-3,3.1c-2.4,2.4-3.1,6-2,9.2c2.4,6.7,6.9,12.5,12.7,16.4v3.3c0,3.6,2.2,6.9,5.6,8.2
				c0.9,0.4,2,0.6,3,0.6c2.4,0,4.8-1,6.5-3c5.2-6.1,12.6-9.7,20.6-10c2-0.1,4.1-0.8,5.5-2.3c6.6-6.2,10.6-15,10.8-24
				c0.1-3.6-0.4-7.1-1.5-10.4C140.4,34,137.1,31.3,133.4,31.3L133.4,31.3z"/>
		</g>
		<g id="XMLID_109_">
			<path id="XMLID_113_" class="st3" d="M130.5,145.6c-1.2,0-2.2-0.5-3-1.3c-0.8-0.8-1.4-2.1-1.3-3.4c1.4-22.8,9.5-30.9,16.1-30.9
				c6.9,0.1,12.3,7.6,14.8,20.6c0.3,1.6-0.2,3.1-1.4,4.1c-2.1,2-4.5,3.7-6.9,5c-3.1,1.9-6.4,3.3-9.8,4.2c-2.9,0.7-5.6,1.3-8.3,1.5
				C130.7,145.6,130.6,145.6,130.5,145.6z"/>
			<path id="XMLID_110_" class="st2" d="M142.3,114.6c4.6,0.1,8.7,7,10.6,17.1c-1.9,1.8-4.1,3.3-6.3,4.6c-2.7,1.6-5.6,2.8-8.7,3.7
				c-2.4,0.6-4.9,1.2-7.6,1.3C131.4,126,136.3,114.6,142.3,114.6 M142.3,105.8c-3.8,0-10.8,1.7-15.6,12.8
				c-2.6,5.9-4.2,13.5-4.7,21.9c-0.2,2.5,0.7,4.9,2.5,6.7c1.7,1.7,3.9,2.5,6.2,2.5c0.2,0,0.4,0,0.5,0c2.9-0.2,6.1-0.6,9.2-1.6
				c3.7-0.9,7.2-2.5,10.8-4.6c2.7-1.6,5.2-3.5,7.7-5.7c2.3-2,3.4-5.1,2.7-8.2C158.5,114.7,151.6,106,142.3,105.8L142.3,105.8
				L142.3,105.8z"/>
		</g>
		<g id="XMLID_104_">
			<path id="XMLID_108_" class="st13" d="M135.7,129.8c-1.2,0-2.3-0.2-3.5-0.5s-2.1-1.2-2.7-2.2c-0.6-1-0.6-2.3-0.3-3.4
				c3.8-11.1,9.1-13.4,12.9-13.4c3.1,0,8.9,1.8,13,13.4c0.4,1.2,0.3,2.4-0.3,3.4c-0.6,1-1.6,1.9-2.7,2.2s-2.2,0.5-3.5,0.5H135.7z"/>
			<path id="XMLID_105_" class="st2" d="M142.3,114.6c3.5,0,6.7,4,8.9,10.4c-0.6,0.2-1.5,0.3-2.3,0.3h-13.2c-0.7,0-1.6-0.1-2.3-0.3
				C135.7,118.5,138.8,114.6,142.3,114.6 M142.3,105.8c-9.9,0-14.9,10.2-17,16.4c-0.7,2.2-0.6,4.7,0.5,6.9c1,2.1,2.9,3.7,5.2,4.4
				c1.5,0.4,3,0.6,4.6,0.6h13.2c1.7,0,3.1-0.2,4.6-0.6c2.3-0.6,4.2-2.2,5.2-4.4c1-2.2,1.3-4.6,0.5-6.9
				C154.5,107.9,146.5,105.8,142.3,105.8L142.3,105.8z"/>
		</g>
		<g id="XMLID_99_">
			<path id="XMLID_103_" class="st7" d="M138,144.3c-0.9,0-1.8-0.3-2.6-0.8c-1-0.8-1.8-2.1-1.8-3.5v-10.1c0-3.5,2.8-6.3,6.3-6.3h4.9
				c3.5,0,6.3,2.8,6.3,6.3v6.4c0,1.6-0.8,3-2.2,3.8c-3,1.8-6.4,3.1-9.7,4.1C138.8,144.3,138.3,144.3,138,144.3z"/>
			<path id="XMLID_100_" class="st2" d="M144.7,127.9c1,0,1.9,0.8,1.9,2v6.4c-2.7,1.6-5.6,2.8-8.7,3.7v-10.1c0-1,0.8-2,1.9-2H144.7
				 M144.7,119.2h-4.9c-2.8,0-5.4,1-7.5,3c-2,2-3.1,4.7-3.1,7.6v10.1c0,2.7,1.3,5.4,3.5,7c1.6,1.2,3.4,1.8,5.2,1.8
				c0.7,0,1.6-0.1,2.4-0.3c3.7-1,7.2-2.5,10.6-4.5c2.7-1.6,4.4-4.5,4.4-7.6v-6.4C155.3,123.9,150.6,119.2,144.7,119.2L144.7,119.2z"
				/>
		</g>
		<g id="XMLID_94_">
			<path id="XMLID_98_" class="st5" d="M119.5,144.7c-0.3,0-0.6,0-0.9-0.1c-8.7-2-16.4-6.6-22.4-13.4c-0.6-0.7-1-1.9-1-2.9V66.6
				c0-0.5-0.3-0.8-0.6-1.2c-8.7-5.2-14.1-15-14.1-25.2c0-3.8,0.7-7.6,2.2-11.1c0.9-2.3,3.3-3.9,5.8-3.9c2.3,0,4.4,1.3,5.5,3.3
				l7.1,13.6l14.4-7.6l-7.5-14.1c-1-2-0.9-4.3,0.2-6.2c1.2-2,3.1-3,5.2-3c0.4,0,0.6,0,1,0.1c14.1,2.4,24.5,15.1,24.1,29.6
				c-0.2,10.1-5.5,19.2-14.2,24.5c-0.4,0.2-0.6,0.6-0.6,1v73.8c0,1.4-0.6,2.6-1.7,3.4C121.5,144.4,120.6,144.7,119.5,144.7z"/>
			<path id="XMLID_95_" class="st2" d="M113.5,15.6c0.1,0,0.2,0,0.3,0c11.9,2,20.8,12.6,20.5,25.2c-0.2,8.8-5,16.6-12.1,20.9
				c-1.7,1-2.7,2.8-2.7,4.8v73.8c-7.9-1.8-14.8-6.1-19.9-12.1V66.6c0-2-1-3.8-2.7-4.8c-7.2-4.4-12.1-12.4-12.1-21.5
				c0-3.3,0.6-6.5,1.8-9.4c0.3-0.7,1-1.2,1.8-1.2c0.6,0,1.4,0.3,1.8,1l7.3,14c0.6,1.3,2,2,3.4,2c0.6,0,1.2-0.1,1.8-0.5l15.2-8.1
				c1.8-0.9,2.6-3.3,1.7-5.1l-7.6-14.6C111.2,17.2,112.1,15.6,113.5,15.6 M113.5,6.9c-3.7,0-7.1,2-9,5.1c-1.9,3.3-2.1,7.1-0.4,10.5
				c0,0,0,0,0,0.1l5.4,10.2l-6.6,3.5l-5-9.8c0,0,0,0,0-0.1c-1.8-3.5-5.4-5.7-9.3-5.7c-4.3,0-8.1,2.6-9.8,6.6
				c-1.7,4.1-2.5,8.4-2.5,12.8c0,11.1,5.6,21.7,14.7,28v60.1c0,2.1,0.7,4.2,2.1,5.8c6.5,7.6,15,12.7,24.7,14.9
				c0.6,0.1,1.3,0.2,1.9,0.2c1.9,0,3.9-0.6,5.4-2c2-1.7,3.3-4.2,3.3-6.8v-72c9-6.1,14.5-16.3,14.7-27.2c0.2-8.2-2.6-16.2-7.7-22.4
				c-5.1-6.1-12.2-10.3-20-11.6c0,0,0,0-0.1,0C114.6,7,114,6.9,113.5,6.9L113.5,6.9z"/>
		</g>
		<g id="XMLID_89_">
			<path id="XMLID_93_" class="st5" d="M138,121.7c-2.4,0-4.3-2-4.3-4.4V70.8c0-2.1,0.5-4.4,1.6-6.3l2.1-4.1c0.9-2,2.9-3.1,5-3.1
				c2.1,0,4.1,1.2,5,3.1l2.1,4.1c0.9,2,1.6,4.1,1.6,6.3l0.1,46.5c0,1.2-0.5,2.2-1.3,3.1c-0.7,0.7-1.9,1.3-3,1.3H138z"/>
			<path id="XMLID_90_" class="st2" d="M142.3,61.8c0.5,0,0.9,0.3,1.2,0.7l2.1,4.1c0.6,1.3,1,2.7,1,4.3l0.1,46.5H138V70.9
				c0-1.6,0.4-2.9,1-4.3l2.1-4.1C141.4,62.1,141.8,61.8,142.3,61.8 M142.3,53.1c-3.8,0-7.1,2-8.8,5.5l-2.1,4.1c-1.4,2.6-2,5.5-2,8.4
				v46.5c0,4.8,3.9,8.7,8.7,8.7h8.7c2.3,0,4.5-0.8,6.2-2.5c1.7-1.7,2.5-3.9,2.5-6.2L155.4,71c0-2.9-0.6-5.8-2-8.3l-2.1-4.1
				C149.5,55.2,146,53.1,142.3,53.1L142.3,53.1z"/>
		</g>
		<g id="XMLID_84_">
			<path id="XMLID_88_" class="st5" d="M135.7,125c-4.6,0-8.3-3.8-8.3-8.4s3.8-8.4,8.3-8.4h13.2c4.6,0,8.3,3.8,8.3,8.4
				c0,4.6-3.8,8.4-8.3,8.4H135.7z"/>
			<path id="XMLID_85_" class="st2" d="M148.9,112.8c2.2,0,4,1.8,4,4c0,2.2-1.8,4-4,4h-13.2c-2.2,0-4-1.8-4-4s1.8-4,4-4L148.9,112.8
				 M148.9,104h-13.2c-6.9,0-12.6,5.8-12.6,12.7s5.7,12.7,12.6,12.7h13.2c6.9,0,12.6-5.8,12.6-12.7S155.9,104,148.9,104L148.9,104z"
				/>
		</g>
		<g id="XMLID_79_">
			<path id="XMLID_83_" class="st14" d="M110.2,128.7c-3.5,0-6.3-2.7-6.3-6.3V81.5c0-3.5,2.8-6.3,6.3-6.3s6.3,2.8,6.3,6.3v40.9
				C116.3,125.9,113.6,128.7,110.2,128.7z"/>
			<path id="XMLID_80_" class="st2" d="M110.2,79.6c1,0,1.9,0.8,1.9,2v40.9c0,1-0.8,2-1.9,2s-1.9-0.8-1.9-2V81.6
				C108.2,80.5,109.1,79.6,110.2,79.6 M110.2,70.8c-5.9,0-10.6,4.7-10.6,10.7v40.9c0,5.9,4.7,10.7,10.6,10.7s10.6-4.7,10.6-10.7
				V81.5C120.6,75.6,116,70.8,110.2,70.8L110.2,70.8z"/>
		</g>
		<g id="XMLID_53_">
			<path id="XMLID_70_" class="st1" d="M119.6,173.1c-5.5,0-9.9-4.5-9.9-10v-4.5c-2.6-0.8-5.1-2-7.6-3.3l-3,3.1c-1.8,1.9-4.3,3-7,3
				c-2.7,0-5.1-1-7-2.9L73.5,147c-1.9-2-2.9-4.5-2.9-7.1s1-5.2,2.9-7.1l3-3.1c-1.3-2.4-2.3-5-3.1-7.7H69c-5.5,0-9.9-4.5-9.9-10V95.4
				c0-5.6,4.4-10,9.9-10h4.4c0.8-2.6,1.9-5.1,3.1-7.7l-3-3.1c-1.9-2-2.9-4.5-2.9-7.1c0-2.6,1-5.2,2.9-7.1l7.6-7.7
				c-1.6-3.8-2.3-7.9-2.3-12.1c0-4.1,0.7-8.2,2.3-11.9c1.2-2.9,4-4.9,7.1-5c0.2,0,0.3,0,0.5,0c2.9,0,5.7,1.7,7.1,4.4l6.2,11.9
				l11-5.9l-6.4-12.4c-1.5-2.8-1.2-6.1,0.6-8.6c1.6-2.1,4-3.3,6.5-3.3c0.5,0,0.9,0,1.5,0.1c7.2,1.3,13.9,5.1,18.5,10.8
				c3.4,4.2,5.7,9.2,6.6,14.4c3.5,1.6,6,5.1,6,9.1v4.5c2.6,0.8,5.1,2,7.6,3.3l3-3.1c1.9-2,4.4-2.9,7-2.9c2.7,0,5.2,1,7,2.9l1.9,2
				c1.2,1.2,1.8,2.7,1.8,4.5c0,0.6-0.1,1-0.2,1.7c0.5-0.1,1-0.2,1.6-0.2c1.7,0,3.3,0.6,4.4,1.9l2,2c3.9,3.9,3.9,10.3,0,14.3l-3,3.1
				c1.3,2.4,2.3,5,3.1,7.7h4.4c2.7,0,5.2,1,7.1,3c1.8,2,2.8,4.4,2.7,7.1v16.5c0,5.6-4.4,10-9.9,10h-4.4c-0.8,2.6-1.9,5.1-3.1,7.7
				l3,3.1c3.9,3.9,3.9,10.3,0,14.3l-11.5,11.6c-1.8,1.9-4.3,3-7,3c-2.7,0-5.1-1-7-2.9l-3-3.1c-2.4,1.3-5,2.3-7.6,3.3v4.5
				c0,5.6-4.4,10-9.9,10h-16.6v-0.7L119.6,173.1L119.6,173.1z M133.5,160.4v-6.7c0-2.9,1.9-5.5,4.8-6.1c4.6-1,9-2.9,13.1-5.5
				c1-0.6,2.1-0.9,3.3-0.9c1.7,0,3.3,0.6,4.4,1.9l4.7,4.7l8-8.1l-4.8-4.8c-1.9-2.1-2.2-5.1-0.7-7.6c2.5-4.2,4.3-8.6,5.4-13.2
				c0.6-2.9,3.1-4.8,6.1-4.8h6.6V97.9h-6.6c-2.9,0-5.4-2-6.1-4.8c-1-4.6-2.9-9.1-5.4-13.2c-1.6-2.5-1.2-5.8,0.8-7.8l4.7-4.7
				l-0.3-0.3c-1.2-1.2-1.8-2.7-1.8-4.5c0-0.6,0.1-1,0.2-1.7c-0.5,0.1-1,0.2-1.6,0.2c-1.7,0-3.3-0.6-4.4-1.9l-0.2-0.2l-4.7,4.7
				c-1.2,1.2-2.8,1.9-4.4,1.9c-1,0-2.1-0.3-2.9-0.6c0.3,0.6,0.5,1.4,0.6,2c12.1,8.2,19.1,21.6,19.1,36.5c0,24.3-19.6,44.1-43.7,44.1
				s-43.7-19.8-43.7-44.1c0-9.9,3.3-19.3,9.2-27v-9.3c-1.9-1.2-3.8-2.5-5.2-4.1L84,67.2l4.8,4.8c1.9,2.1,2.2,5.1,0.7,7.6
				c-2.5,4.2-4.3,8.6-5.4,13.2c-0.6,2.9-3.1,4.8-6.1,4.8h-6.6v11.4h6.6c2.9,0,5.4,2,6.1,4.8c1,4.6,2.9,9.1,5.4,13.2
				c1.6,2.5,1.2,5.8-0.8,7.8l-4.7,4.7l8,8.1l4.6-4.7l0.1-0.1c1.2-1,2.7-1.8,4.3-1.8c1.2,0,2.2,0.3,3.3,0.8c4.1,2.5,8.6,4.4,13.1,5.5
				c2.9,0.6,4.8,3.3,4.8,6.1v6.7L133.5,160.4L133.5,160.4z M121.9,134.4c0.9,0.2,2,0.4,2.9,0.5c0.6-4.4,1.6-8.5,2.7-12
				c-0.7-1-1.5-2.3-1.8-3.6v9.2C125.9,131.1,124.2,133.4,121.9,134.4z M139.4,127c-0.6,1.9-1.3,4-1.7,6.3c2.9-0.9,5.7-2.4,8.2-4.2
				c-0.2-0.7-0.4-1.5-0.6-2.1H139.4z M105.8,125.8c2.5,2.5,5.2,4.6,8.4,6c-0.6-0.9-0.8-2-0.8-3.3V66.6c0-4.3,2.1-8.1,5.8-10.2
				c5.5-3.4,8.8-9.2,9-15.6c0.1-4.4-1.3-8.5-3.9-11.9l0.6,1.2c2.6,4.8,0.7,11-4.1,13.7L105.5,52c-1.5,0.7-3,1.2-4.7,1.2
				c-2.6,0-5-0.9-6.8-2.7c1.6,2.4,3.7,4.6,6.2,6c3.6,2.2,5.8,6.1,5.8,10.2L105.8,125.8L105.8,125.8z M125.9,114.1
				c0.7-3.1,2.9-5.7,5.9-6.9v-35c-1.3-0.2-2.6-0.3-3.9-0.3c-0.6,0-1.4,0-2,0.1L125.9,114.1L125.9,114.1z M153,107.2
				c2.1,0.8,4,2.5,5,4.6c0.7-2.7,1.2-5.6,1.2-8.5c0-7-2.2-13.5-6.2-18.9L153,107.2L153,107.2z M133.9,59.8c0.5,0.1,0.9,0.1,1.5,0.2
				l0.2-0.4c0.2-0.4,0.5-0.7,0.7-1.2c-0.3-0.2-0.6-0.5-0.9-0.7C135,58.4,134.6,59,133.9,59.8z"/>
			<path id="XMLID_54_" class="st2" d="M113.5,13.7c0.2,0,0.5,0,0.6,0.1c6.3,1,12,4.4,16,9.3c3.5,4.3,5.7,9.7,6.1,15.1
				c3,0.1,5.5,2.6,5.5,5.7v7.8c4.5,1.2,8.7,2.9,12.7,5.4l5.4-5.5c1-1,2.5-1.7,4-1.7c1.5,0,2.9,0.6,4,1.7l1.9,2c0.6,0.6,0.6,2,0,2.7
				c-0.4,0.4-0.8,0.6-1.4,0.6s-0.9-0.2-1.4-0.6l-1.9-2c-0.4-0.4-0.8-0.6-1.3-0.6c-0.4,0-0.9,0.2-1.3,0.6l-6.4,6.5
				c-0.4,0.4-0.8,0.6-1.4,0.6c-0.3,0-0.6-0.1-0.9-0.3c-4.5-2.7-9.3-4.7-14.4-5.9c-0.8-0.2-1.5-0.9-1.5-1.9v-9.2
				c0-0.9-0.6-1.8-1.7-1.9c-0.6,8.7-5.2,16.7-12.9,21.4c-0.3,0.2-0.6,0.4-0.8,0.6c1.8-0.3,3.6-0.4,5.4-0.4c3.3,0,6.6,0.4,9.9,1.3
				l1.8-3.3c0.6-1,1.8-1.8,2.9-1.8c1.3,0,2.3,0.6,2.9,1.8l2.1,4.1c0.6,1.2,1,2.5,1.2,3.9c11.8,7.2,18.8,19.9,18.8,33.8
				c0,21.9-17.6,39.8-39.4,39.8s-39.4-17.7-39.4-39.8c0-9.3,3.3-18.4,9.2-25.6V66.8c0-1.3-0.6-2.5-1.8-3.3c-3-1.9-5.6-4.2-7.6-6.9
				l-9.1,9.2c-0.3,0.4-0.5,0.8-0.5,1.3s0.2,0.9,0.5,1.3l6.4,6.5c0.6,0.6,0.6,1.7,0.3,2.4c-2.7,4.6-4.7,9.4-5.9,14.5
				c-0.2,0.8-0.9,1.5-1.8,1.5h-9.1c-0.9,0-1.8,0.8-1.8,1.9v16.6c0,0.9,0.8,1.9,1.8,1.9h9.1c0.8,0,1.7,0.6,1.8,1.5
				c1.2,5.1,3.1,10,5.9,14.5c0.5,0.7,0.4,1.8-0.3,2.4l-6.4,6.5c-0.6,0.6-0.6,1.9,0,2.6l11.5,11.6c0.4,0.3,0.8,0.5,1.3,0.5
				s0.9-0.2,1.3-0.5l6.4-6.5c0.4-0.4,0.8-0.6,1.4-0.6c0.4,0,0.6,0.1,1,0.3c4.5,2.7,9.3,4.7,14.4,5.9c0.8,0.2,1.5,0.9,1.5,1.9v9.2
				c0,0.9,0.8,1.9,1.8,1.9h16.5c0.9,0,1.8-0.8,1.8-1.9v-9.2c0-0.8,0.6-1.7,1.5-1.9c5.1-1.2,9.9-3.3,14.4-5.9c0.3-0.2,0.6-0.3,1-0.3
				c0.5,0,0.9,0.2,1.4,0.6l6.4,6.5c0.4,0.3,0.8,0.5,1.3,0.5c0.5,0,0.9-0.2,1.3-0.5l11.5-11.6c0.6-0.6,0.6-1.9,0-2.6l-6.4-6.5
				c-0.6-0.6-0.6-1.7-0.3-2.4c2.7-4.6,4.7-9.4,5.9-14.5c0.2-0.8,0.9-1.5,1.8-1.5h9.1c0.9,0,1.8-0.8,1.8-1.9V95.1
				c0-0.9-0.8-1.9-1.8-1.9h-9.1c-0.8,0-1.7-0.6-1.8-1.5c-1.2-5.1-3.1-10-5.9-14.5c-0.5-0.7-0.4-1.8,0.3-2.4l6.4-6.5
				c0.3-0.4,0.5-0.8,0.5-1.3c0-0.5-0.2-0.9-0.5-1.3l-2-2c-0.6-0.6-0.6-2,0-2.7c0.4-0.4,0.8-0.6,1.4-0.6c0.5,0,0.9,0.2,1.4,0.6l2,2
				c2.2,2.2,2.2,5.9,0,8.1l-5.4,5.5c2.3,4.1,4.1,8.4,5.2,12.8h7.7c3,0,5.6,2.5,5.5,5.7v16.6c0,3.1-2.5,5.7-5.6,5.7h-7.7
				c-1.2,4.6-2.9,8.7-5.2,12.8l5.4,5.5c2.2,2.2,2.2,5.9,0,8.1l-11.5,11.6c-1,1-2.5,1.7-4,1.7c-1.6,0-2.9-0.6-4-1.7l-5.4-5.5
				c-4.1,2.3-8.3,4.1-12.7,5.4v7.7c0,3.1-2.5,5.7-5.6,5.7h-16.6c-3,0-5.6-2.5-5.6-5.7v-7.8c-4.5-1.2-8.7-2.9-12.7-5.4l-5.4,5.5
				c-1,1-2.5,1.7-4,1.7c-1.6,0-2.9-0.6-4-1.7l-11.5-11.6c-2.2-2.2-2.2-5.9,0-8.1l5.4-5.5c-2.3-4.1-4.1-8.4-5.2-12.8h-7.7
				c-3,0-5.6-2.5-5.6-5.7V95c0-3.1,2.5-5.7,5.6-5.7h7.7c1.2-4.6,2.9-8.7,5.2-12.8l-5.4-5.5c-2.2-2.2-2.2-5.9,0-8.1l9.9-9.9
				c-2.1-3.9-3.3-8.4-3.3-12.9c0-3.5,0.6-7,2-10.2c0.6-1.4,1.8-2.3,3.4-2.4c0.1,0,0.2,0,0.3,0c1.4,0,2.6,0.7,3.3,2l7.3,14
				c0.3,0.5,0.6,0.7,1.2,0.9c0.2,0.1,0.4,0.1,0.6,0.1c0.3,0,0.6-0.1,0.8-0.3l15.2-8.1c0.5-0.3,0.7-0.6,0.9-1.2
				c0.2-0.5,0.1-0.9-0.2-1.5l-7.6-14.6c-0.6-1.3-0.6-2.8,0.3-4.1C111.2,14.3,112.3,13.7,113.5,13.7 M100.8,48.7
				c-2,0-4.1-1.2-5.1-3.1l-7.3-14c-1.2,2.8-1.8,5.8-1.7,8.7c0,8.2,4.1,15.5,11,19.8c2.3,1.4,3.7,3.9,3.7,6.5v60.9
				c6.4,7.2,15.8,11.9,26.3,11.9c0.3,0,0.6,0,0.8,0c0.6-6.8,1.9-12.9,4-17.6c-1.8-1-2.8-2.9-2.8-5c0-3.3,2.6-5.9,5.9-5.9h0.4v-40
				c0-0.7,0.1-1.6,0.3-2.3c-2.7-0.6-5.6-1-8.5-1c-2.1,0-4.2,0.2-6.4,0.6v60.4c0,1-0.8,2-1.9,2c-1,0-1.9-0.8-1.9-2V66.6
				c0-2.6,1.4-5,3.7-6.5c6.8-4.2,11-11.3,11-19.2c0.1-5.6-1.8-11-5.2-15.2c-3.5-4.3-8.4-7.1-13.6-8l7.6,14.6
				c1.6,2.8,0.4,6.3-2.4,7.8l-15.2,8.1C102.6,48.4,101.7,48.7,100.8,48.7 M139.8,110.8h4.9v-40c0-1.2-0.3-2.3-0.8-3.4l-1.7-3.1
				l-1.7,3.1c-0.5,1-0.8,2.1-0.8,3.4L139.8,110.8 M148.6,110.8h0.4c3.3,0,5.9,2.6,5.9,5.9c0,2.1-1.2,4-2.8,5c0.7,1.9,1.5,3.8,2,6
				c5.8-6.4,9.4-15,9.4-24.3c0-11.8-5.5-22.5-14.8-29.2L148.6,110.8 M97.6,122.4v-38c-3.5,5.7-5.4,12.3-5.4,19
				C92.3,110.5,94.3,117,97.6,122.4 M135.7,118.8h13.2c1.2,0,2-0.9,2-2s-0.9-2-2-2h-13.2c-1.2,0-2,0.9-2,2S134.6,118.8,135.7,118.8
				 M132.6,139c6.9-0.8,13.2-3.9,18.2-8.2c-0.6-3.1-1.7-5.9-2.6-8.2h-11.8C134.6,126.8,133.2,132.6,132.6,139 M113.5,5L113.5,5
				c-4,0-7.7,2-10,5.1c-2.9,3.9-3.3,8.9-1,13.3c0,0,0,0,0,0.1l4.4,8.5l-3.3,1.8l-4.1-8v-0.1c-2.2-4.1-6.4-6.6-10.9-6.6
				c-0.2,0-0.5,0-0.6,0c-4.8,0.2-9,3.3-10.9,7.8c-1.8,4.3-2.7,8.8-2.7,13.5c0,3.7,0.6,7.3,1.7,10.9l-5.7,5.8
				c-2.7,2.7-4.2,6.3-4.2,10.2s1.5,7.5,4.2,10.2l0.9,0.9c-0.4,0.7-0.6,1.6-0.9,2.3H69c-7.9,0-14.3,6.5-14.3,14.4v16.6
				c0,8,6.4,14.4,14.3,14.4h1.5c0.3,0.7,0.6,1.6,0.9,2.3l-0.9,0.9c-2.7,2.7-4.2,6.3-4.2,10.2c0,3.9,1.5,7.5,4.2,10.2L82,161.4
				c2.7,2.7,6.3,4.2,10.1,4.2c3.9,0,7.6-1.6,10.1-4.3l0.9-0.9c0.7,0.4,1.6,0.6,2.3,0.9v1.4c0,8,6.4,14.4,14.3,14.4h16.5
				c7.9,0,14.3-6.5,14.3-14.4v-1.4c0.7-0.3,1.6-0.6,2.3-0.9l0.9,0.9c2.7,2.7,6.3,4.2,10.1,4.2s7.6-1.6,10.1-4.3l11.5-11.6
				c2.7-2.7,4.2-6.3,4.2-10.2c0-3.9-1.5-7.5-4.2-10.2l-0.9-0.9c0.4-0.7,0.6-1.6,0.9-2.3h1.4c7.9,0,14.3-6.5,14.3-14.4V95.1
				c0.1-3.8-1.4-7.3-4-10.1c-2.7-2.8-6.4-4.4-10.2-4.4h-1.5c-0.3-0.7-0.6-1.6-0.9-2.3l0.9-0.9c2.7-2.7,4.2-6.3,4.2-10.2
				s-1.5-7.5-4.2-10.2l-2-2c-1.4-1.4-2.9-2.3-4.8-2.8c-0.5-1.9-1.4-3.5-2.8-4.9l-1.9-2c-2.7-2.7-6.3-4.3-10.1-4.3
				c-3.9,0-7.5,1.5-10.1,4.3l-0.9,0.9c-0.7-0.4-1.6-0.6-2.3-0.9v-1.4c0-4.9-2.6-9.4-6.4-12.1c-1.3-5.1-3.7-10.1-7.1-14.3
				c0,0,0,0,0-0.1C131.5,11,124,6.6,115.7,5.1C114.9,5.1,114.2,5,113.5,5L113.5,5L113.5,5z M107.5,55.8l13.9-7.3
				c-1.2,1.7-2.7,3.1-4.5,4.3c-3.7,2.2-6.2,5.7-7.2,9.7c-0.6-2.2-1.8-4.3-3.1-6C106.8,56.1,107.2,56,107.5,55.8L107.5,55.8z
				 M160.8,68.1c0.5-0.4,0.9-0.7,1.4-1.2l2.2-2.2c0.5,0.2,0.8,0.3,1.4,0.5c0.1,0.5,0.3,1,0.5,1.6L164,69c-0.4,0.4-0.7,0.8-1.2,1.4
				C162.3,69.4,161.5,68.7,160.8,68.1L160.8,68.1z M75.8,102.1h2.3c0.6,0,1.3-0.1,1.8-0.2c0,0.5,0,0.9,0,1.5c0,0.5,0,1,0,1.6
				c-0.6-0.1-1.2-0.2-1.8-0.2h-2.3V102.1L75.8,102.1z M175.9,104.9c0-0.5,0-1,0-1.6c0-0.5,0-0.9,0-1.5c0.6,0.1,1.2,0.2,1.8,0.2h2.3
				v2.7h-2.3C177.1,104.9,176.4,104.9,175.9,104.9L175.9,104.9z M90.1,139.7l1.7-1.7c0.5-0.5,0.8-0.9,1.3-1.5
				c0.6,0.7,1.4,1.5,2.1,2.1c-0.4,0.3-0.8,0.6-1.3,0.9c-0.1,0.1-0.2,0.2-0.3,0.3l-1.7,1.7L90.1,139.7L90.1,139.7z M160.7,138.8
				c0.7-0.6,1.5-1.4,2.1-2.1c0.3,0.4,0.6,0.8,0.9,1.3c0.1,0.1,0.2,0.2,0.2,0.3l1.7,1.7l-1.9,1.9l-1.7-1.7
				C161.7,139.5,161.2,139.1,160.7,138.8L160.7,138.8z M126.5,156.1v-2.3c0-0.6-0.1-1.3-0.2-1.9c0.5,0,1,0,1.6,0s0.9,0,1.5,0
				c-0.1,0.6-0.2,1.3-0.2,1.9v2.3H126.5L126.5,156.1z"/>
		</g>
	</g>
	<g id="XMLID_3_">
		<path id="XMLID_51_" class="st15" d="M245.3,218.3v13.1c0,2.8-2.3,5.1-5.1,5.1H17.9c-2.8,0-5.1-2.3-5.1-5.1v-13.1
			c0-2.8,2.3-5.1,5.1-5.1h70c0.7,0,1.5,0.3,1.9,0.8l6.6,7.8h65.2l6.6-7.8c0.5-0.6,1.2-0.8,1.9-0.8h70
			C243,213.1,245.3,215.4,245.3,218.3z"/>
		<path id="XMLID_50_" class="st3" d="M229.8,211.4H28V81.6c0-4.9,4-8.9,8.8-8.9h184.1c4.9,0,8.8,4,8.8,8.9L229.8,211.4L229.8,211.4
			z"/>
		<path id="XMLID_49_" class="st4" d="M245.3,204.3v13.1c0,2.8-2.3,5.1-5.1,5.1H17.9c-2.8,0-5.1-2.3-5.1-5.1v-13.1
			c0-2.8,2.3-5.1,5.1-5.1h70c0.7,0,1.5,0.3,1.9,0.8l6.6,7.8h65.2l6.6-7.8c0.5-0.6,1.2-0.8,1.9-0.8h70
			C243,199.1,245.3,201.4,245.3,204.3z"/>
		<g id="XMLID_44_">
			<path id="XMLID_48_" class="st1" d="M91.1,75.3H221c3.5,0,6.3,2.8,6.3,6.3v101.6c0,1.5,1.2,2.6,2.6,2.6c1.5,0,2.6-1.2,2.6-2.6
				V81.6c0-6.3-5.1-11.5-11.4-11.5H91.2c-1.5,0-2.6,1.2-2.6,2.6S89.6,75.3,91.1,75.3L91.1,75.3z"/>
			<path id="XMLID_45_" class="st1" d="M240.1,196.5h-70c-1.6,0-2.9,0.6-4,1.9l-5.9,6.8H97.4l-5.9-6.8c-0.9-1.2-2.4-1.9-4-1.9H30.4
				V81.7c0-3.5,2.8-6.3,6.3-6.3H75c1.5,0,2.6-1.2,2.6-2.6c0-1.5-1.2-2.6-2.6-2.6H36.7c-6.3,0-11.4,5.1-11.4,11.5v114.9h-7.7
				c-4.2,0-7.7,3.5-7.7,7.8v13.1c0,4.3,3.5,7.8,7.7,7.8h222.3c4.2,0,7.7-3.5,7.7-7.8v-13.1C247.9,200,244.4,196.5,240.1,196.5
				L240.1,196.5z M242.6,217.4c0,1.5-1.2,2.6-2.6,2.6H17.8c-1.5,0-2.6-1.2-2.6-2.6v-13.1c0-1.5,1.2-2.6,2.6-2.6h70l6.6,7.8
				c0.5,0.6,1.2,0.8,1.9,0.8h65.2c0.7,0,1.5-0.3,1.9-0.8l6.6-7.8h70c1.5,0,2.6,1.2,2.6,2.6L242.6,217.4L242.6,217.4z"/>
		</g>
		<path id="XMLID_43_" class="st5" d="M215.4,186.6H42.6c-1.5,0-2.6-1.2-2.6-2.6V88.2c0-1.5,1.2-2.6,2.6-2.6h172.7
			c1.5,0,2.6,1.2,2.6,2.6V184C218,185.5,216.8,186.6,215.4,186.6z"/>
		<g id="XMLID_29_">
			<g id="XMLID_30_">
				<g id="XMLID_31_">
					<g id="XMLID_32_">
						<g id="XMLID_33_">
							<g id="XMLID_34_">
								<g id="XMLID_35_">
									<g id="XMLID_36_">
										<defs>
											<path id="XMLID_42_" d="M215.4,186.6H42.6c-1.5,0-2.6-1.2-2.6-2.6V88.2c0-1.5,1.2-2.6,2.6-2.6h172.7
												c1.5,0,2.6,1.2,2.6,2.6V184C218,185.5,216.8,186.6,215.4,186.6z"/>
										</defs>
										<clipPath id="XMLID_215_">
											<use xlink:href="#XMLID_42_"  style="overflow:visible;"/>
										</clipPath>
										<g id="XMLID_37_" class="st16">
											<path id="XMLID_41_" class="st7" d="M219.5,100.3v-13c0-1.6-3.5-2.7-7.8-2.7H47.6c-4.3,0-7.8,1.3-7.8,2.7v13H219.5z"/>
											<ellipse id="XMLID_40_" class="st8" cx="49.8" cy="92.8" rx="1.8" ry="1.9"/>
											<ellipse id="XMLID_39_" class="st9" cx="55.5" cy="92.8" rx="1.8" ry="1.9"/>
											<ellipse id="XMLID_38_" class="st10" cx="61.2" cy="92.8" rx="1.8" ry="1.9"/>
										</g>
									</g>
								</g>
							</g>
						</g>
					</g>
				</g>
			</g>
		</g>
		<path id="XMLID_24_" class="st15" d="M180,98.3h-9.1c-1.3-5.5-3.4-10.4-6.2-15.1l6.4-6.5c1.5-1.5,1.5-3.9,0-5.4l-11.5-11.6
			c-1.5-1.5-3.9-1.5-5.2,0l-6.4,6.5c-4.5-2.8-9.5-4.9-14.9-6.2v-9.2c0-2-1.7-3.7-3.7-3.7h-1.8c-0.1-12.3-8.9-22.4-20.5-24.3
			c-1.6-0.3-2.7,1.4-2,2.8l7.6,14.6c0.9,1.9,0.3,4.2-1.7,5.1l-15.2,8.1c-1.8,0.9-4.1,0.3-5.1-1.7l-7.3-14c-0.7-1.5-2.8-1.4-3.5,0.2
			C78.6,40.9,78,44,78,47.4c0,4.8,1.4,9.4,3.8,13.2L71,71.5c-1.5,1.5-1.5,3.9,0,5.4l6.4,6.5c-2.8,4.6-4.9,9.7-6.2,15.1h-9.3
			c-2,0-3.7,1.7-3.7,3.7v16.6c0,2,1.7,3.7,3.7,3.7H71c1.3,5.5,3.4,10.4,6.2,15.1l-6.4,6.5c-1.5,1.5-1.5,3.9,0,5.4L82.3,161
			c1.5,1.5,3.9,1.5,5.2,0l6.4-6.5c4.5,2.8,9.5,4.9,14.9,6.2v9.2c0,2,1.7,3.7,3.7,3.7H129c2,0,3.7-1.7,3.7-3.7v-9.2
			c5.4-1.3,10.3-3.4,14.9-6.2l6.4,6.5c1.5,1.5,3.9,1.5,5.2,0l11.5-11.6c1.5-1.5,1.5-3.9,0-5.4l-6.4-6.5c2.8-4.6,4.9-9.7,6.2-15.1
			h9.1c2,0,3.7-1.7,3.7-3.7v-16.7C183.7,100,182.1,98.3,180,98.3L180,98.3z M83.6,110.4c0-9.5,3.5-18.2,9.2-24.9v49.6
			C87,128.5,83.6,119.9,83.6,110.4L83.6,110.4z M112.7,147.2V73.4v-0.1c2.7-0.6,5.5-0.9,8.3-0.9c3.8,0,7.5,0.6,10.9,1.7
			c-0.5,1.2-0.6,2.4-0.6,3.6v41.8H129c-2.2,0-4,1.8-4,4c0,2,1.6,3.7,3.6,4c-2.5,4.8-4.2,12.2-4.7,20.5c-0.8,0.1-1.8,0.1-2.7,0.1
			C118.2,148.2,115.4,147.9,112.7,147.2L112.7,147.2z M146.1,138.6c-0.8-4.3-2-8.1-3.6-10.9c2-0.2,3.6-2,3.6-4c0-2.2-1.8-4-4-4h-2.3
			V77.9c0-0.1,0-0.1,0-0.1c11.1,6.5,18.7,18.8,18.7,32.7C158.5,121.6,153.7,131.6,146.1,138.6z"/>
		<ellipse id="XMLID_23_" class="st15" cx="127.8" cy="103.5" rx="37.5" ry="37.8"/>
		<path id="XMLID_20_" class="st11" d="M186.8,91.5h-9.1c-1.3-5.5-3.4-10.4-6.2-15.1l6.4-6.5c1.5-1.5,1.5-3.9,0-5.4l-11.5-11.6
			c-1.5-1.5-3.9-1.5-5.2,0l-6.4,6.5c-4.5-2.8-9.5-4.9-14.9-6.2v-9.2c0-2-1.7-3.7-3.7-3.7h-16.5c-2,0-3.7,1.7-3.7,3.7v9.2
			c-5.4,1.3-10.3,3.4-14.9,6.2l-6.4-6.5c-1.5-1.5-3.9-1.5-5.2,0L77.9,64.5c-1.5,1.5-1.5,3.9,0,5.4l6.4,6.5
			c-2.8,4.6-4.9,9.7-6.2,15.1H69c-2,0-3.7,1.7-3.7,3.7v16.6c0,2,1.7,3.7,3.7,3.7h9.1c1.3,5.5,3.4,10.4,6.2,15.1l-6.4,6.5
			c-1.5,1.5-1.5,3.9,0,5.4L89.4,154c1.5,1.5,3.9,1.5,5.2,0l6.4-6.5c4.5,2.8,9.5,4.9,14.9,6.2v9.2c0,2,1.7,3.7,3.7,3.7h16.5
			c2,0,3.7-1.7,3.7-3.7v-9.2c5.4-1.3,10.3-3.4,14.9-6.2l6.4,6.5c1.5,1.5,3.9,1.5,5.2,0l11.5-11.6c1.5-1.5,1.5-3.9,0-5.4l-6.4-6.5
			c2.8-4.6,4.9-9.7,6.2-15.1h9.1c2,0,3.7-1.7,3.7-3.7V95.1C190.5,93,188.9,91.5,186.8,91.5L186.8,91.5z M127.8,141.3
			c-20.7,0-37.5-16.9-37.5-37.8s16.8-37.8,37.5-37.8s37.5,16.9,37.5,37.8S148.5,141.3,127.8,141.3z"/>
		<path id="XMLID_19_" class="st12" d="M133.4,40.2h-13.6c-2,0-3.7,1.7-3.7,3.7v9.2c-5.4,1.3-10.3,3.4-14.9,6.2l-6.4-6.5
			c-1.5-1.5-3.9-1.5-5.2,0l-3,3.1c1.9,5.5,5.7,10,10.6,12.9c1.8,1,2.7,2.8,2.7,4.8v5c6.5-7.6,16.1-12.5,26.8-13
			c4.8-4.5,7.9-10.8,8-17.7C134.5,45.2,134,42.6,133.4,40.2L133.4,40.2z"/>
		<path id="XMLID_18_" class="st3" d="M152.9,131.6c-1.9,1.8-4.1,3.3-6.3,4.6c-2.7,1.6-5.6,2.8-8.7,3.7c-2.4,0.6-4.9,1.2-7.6,1.3
			c0.9-15.1,5.9-26.7,11.8-26.7C146.9,114.6,150.9,121.5,152.9,131.6L152.9,131.6z"/>
		<path id="XMLID_17_" class="st13" d="M151.1,125c-0.6,0.2-1.5,0.3-2.3,0.3h-13.1c-0.7,0-1.6-0.1-2.3-0.3
			c2.2-6.4,5.4-10.4,8.8-10.4C145.7,114.7,148.9,118.5,151.1,125L151.1,125z"/>
		<path id="XMLID_16_" class="st7" d="M138,129.9V140c3-0.8,6-2.1,8.7-3.7v-6.4c0-1-0.8-2-1.9-2h-4.9
			C138.9,127.9,138,128.6,138,129.9z"/>
		<path id="XMLID_15_" class="st5" d="M99.6,66.7v61.6c5.1,5.9,12.2,10.3,19.9,12.1V66.6c0-2,1-3.8,2.7-4.8
			c7-4.3,11.9-12.1,12.1-20.9c0.3-12.5-8.7-23.1-20.5-25.2c-1.6-0.3-2.7,1.4-2,2.8l7.6,14.6c0.9,1.9,0.3,4.2-1.7,5.1l-15.2,8.1
			c-1.8,0.9-4.1,0.3-5.1-1.7l-7.3-14c-0.7-1.5-2.8-1.4-3.5,0.2c-1.2,2.9-1.8,6.1-1.8,9.4c0,9.1,4.8,17.1,12.1,21.5
			C98.6,62.9,99.6,64.7,99.6,66.7z"/>
		<path id="XMLID_14_" class="st5" d="M146.6,117.3h-8.7V70.8c0-1.6,0.4-2.9,1-4.3l2.1-4.1c0.5-0.9,1.8-0.9,2.4,0l2.1,4.1
			c0.6,1.3,1,2.7,1,4.3V117.3L146.6,117.3z"/>
		<path id="XMLID_13_" class="st5" d="M148.9,120.6h-13.2c-2.2,0-4-1.8-4-4c0-2.2,1.8-4,4-4h13.2c2.2,0,4,1.8,4,4
			C152.9,118.9,151.1,120.6,148.9,120.6L148.9,120.6z"/>
		<path id="XMLID_12_" class="st14" d="M108.2,122.4V81.5c0-1,0.8-2,1.9-2c1,0,1.9,0.8,1.9,2v40.9c0,1-0.8,2-1.9,2
			C109.1,124.4,108.2,123.6,108.2,122.4z"/>
		<path id="XMLID_4_" class="st1" d="M186.8,89.5h-7.7c-1.2-4.5-2.9-8.7-5.2-12.8l5.4-5.5c2.2-2.2,2.2-5.9,0-8.1l-2-2
			c-0.6-0.6-1.9-0.6-2.7,0c-0.6,0.6-0.6,2,0,2.7l2,2c0.4,0.4,0.5,0.8,0.5,1.3c0,0.5-0.2,0.9-0.5,1.3l-6.4,6.5
			c-0.6,0.6-0.6,1.7-0.3,2.4c2.7,4.5,4.7,9.3,5.9,14.5c0.2,0.8,0.9,1.5,1.8,1.5h9.1c0.9,0,1.8,0.8,1.8,1.9v16.6
			c0,0.9-0.8,1.9-1.8,1.9h-9.1c-0.8,0-1.7,0.6-1.8,1.5c-1.2,5-3.1,10-5.9,14.5c-0.5,0.7-0.4,1.8,0.3,2.4l6.4,6.5
			c0.6,0.6,0.6,1.9,0,2.6L165,152.8c-0.4,0.4-0.8,0.5-1.3,0.5c-0.4,0-0.9-0.2-1.3-0.5l-6.4-6.5c-0.6-0.6-1.7-0.6-2.4-0.3
			c-4.4,2.7-9.2,4.7-14.4,5.9c-0.8,0.2-1.5,0.9-1.5,1.9v9.2c0,0.9-0.8,1.9-1.8,1.9h-16.5c-0.9,0-1.8-0.8-1.8-1.9v-9.2
			c0-0.8-0.6-1.7-1.5-1.9c-5-1.2-9.9-3.3-14.4-5.9c-0.7-0.5-1.8-0.4-2.4,0.3l-6.4,6.5c-0.4,0.4-0.8,0.5-1.3,0.5
			c-0.4,0-0.9-0.2-1.3-0.5L79,141.1c-0.6-0.6-0.6-1.9,0-2.6l6.4-6.5c0.6-0.6,0.6-1.7,0.3-2.4c-2.7-4.5-4.7-9.3-5.9-14.5
			c-0.2-0.8-0.9-1.5-1.8-1.5H69c-0.9,0-1.8-0.8-1.8-1.9V95.1c0-0.9,0.8-1.9,1.8-1.9h9.1c0.8,0,1.7-0.6,1.8-1.5
			c1.2-5,3.1-10,5.9-14.5c0.5-0.7,0.4-1.8-0.3-2.4L79,68.4c-0.4-0.4-0.5-0.8-0.5-1.3s0.2-0.9,0.5-1.3l9.1-9.2c2,2.7,4.6,5,7.6,6.9
			c1.2,0.6,1.8,1.9,1.8,3.3V78c-5.9,7.1-9.2,16.3-9.2,25.6c0,21.9,17.6,39.8,39.4,39.8s39.4-17.7,39.4-39.8c0-13.9-7-26.5-18.8-33.8
			c-0.2-1.4-0.6-2.7-1.2-3.9l-2.1-4.1c-0.6-1-1.7-1.8-2.9-1.8l0,0c-1.2,0-2.3,0.6-2.9,1.8l-1.8,3.3c-3.1-0.8-6.5-1.3-9.9-1.3
			c-1.8,0-3.6,0.1-5.4,0.4c0.3-0.3,0.5-0.5,0.8-0.6c7.6-4.6,12.3-12.5,12.9-21.4c0.9,0.1,1.7,0.8,1.7,1.9v9.2c0,0.8,0.6,1.7,1.5,1.9
			c5,1.2,9.9,3.3,14.4,5.9c0.3,0.2,0.6,0.3,0.9,0.3c0.5,0,0.9-0.2,1.4-0.6l6.4-6.5c0.6-0.6,1.8-0.6,2.6,0l1.9,2
			c0.6,0.6,1.9,0.6,2.7,0c0.6-0.6,0.6-2,0-2.7l-1.9-2c-2.2-2.2-5.8-2.2-8,0l-5.4,5.5c-4.1-2.3-8.3-4.1-12.7-5.4v-7.8
			c0-3.1-2.5-5.7-5.5-5.7c-0.4-5.6-2.6-10.8-6.1-15.1c-4.1-4.9-9.8-8.2-16-9.3c-1.5-0.3-2.9,0.3-3.8,1.6c-0.8,1.2-0.9,2.7-0.3,4.1
			l7.6,14.6c0.3,0.5,0.3,0.9,0.2,1.5c-0.2,0.5-0.5,0.8-0.9,1.2l-15.2,8.1c-0.5,0.3-0.9,0.3-1.5,0.2c-0.5-0.2-0.8-0.5-1.2-0.9
			l-7.3-14c-0.6-1.4-2-2.1-3.6-2c-1.6,0.1-2.8,0.9-3.4,2.4c-1.4,3.3-2,6.7-2,10.2c0,4.6,1.2,9,3.3,12.9l-9.9,9.9
			c-2.2,2.2-2.2,5.9,0,8.1l5.4,5.5c-2.3,4.1-4.1,8.4-5.2,12.8h-7.7c-3,0-5.6,2.5-5.6,5.7V112c0,3.1,2.5,5.7,5.6,5.7H76
			c1.2,4.5,2.9,8.7,5.2,12.8l-5.4,5.5c-2.2,2.2-2.2,5.9,0,8.1l11.5,11.6c1,1,2.5,1.7,4,1.7c1.6,0,2.9-0.6,4-1.7l5.4-5.5
			c4.1,2.3,8.3,4.1,12.7,5.4v7.8c0,3.1,2.5,5.7,5.6,5.7h16.5c3,0,5.6-2.5,5.6-5.7v-7.8c4.4-1.2,8.7-2.9,12.7-5.4l5.4,5.5
			c1,1,2.5,1.7,4,1.7s2.9-0.6,4-1.7l11.5-11.6c2.2-2.2,2.2-5.9,0-8.1l-5.4-5.5c2.3-4.1,4.1-8.4,5.2-12.8h7.7c3,0,5.6-2.5,5.6-5.7
			V95.5C192.5,92.1,190,89.5,186.8,89.5L186.8,89.5z M97.6,84.4v38c-3.4-5.6-5.4-12.1-5.4-19C92.4,96.7,94.2,90.2,97.6,84.4z
			 M148.9,114.7c1.2,0,2,0.9,2,2c0,1.2-0.9,2-2,2h-13.2c-1.2,0-2-0.9-2-2c0-1.2,0.9-2,2-2H148.9z M136.5,122.6h11.8
			c1,2.3,1.9,5,2.6,8.2c-5,4.3-11.3,7.2-18.2,8.2C133.2,132.6,134.6,126.8,136.5,122.6L136.5,122.6z M163.5,103.5
			c0,9.3-3.6,17.8-9.4,24.3c-0.6-2.2-1.3-4.2-2-6c1.8-1,2.8-2.9,2.8-5c0-3.3-2.6-5.9-5.9-5.9h-0.4V74.5
			C157.9,81.1,163.5,91.8,163.5,103.5L163.5,103.5z M140.6,67.5l1.7-3.1l1.7,3.1c0.5,1,0.8,2.1,0.8,3.4v40h-4.9v-40
			C139.9,69.6,140.2,68.5,140.6,67.5L140.6,67.5z M88.4,31.5l7.3,14c1.6,2.8,4.9,3.9,7.7,2.4l15.2-8.1c2.8-1.6,3.9-4.9,2.4-7.8
			l-7.6-14.6c5.4,0.9,10.2,3.7,13.6,8c3.6,4.3,5.4,9.8,5.2,15.2c-0.2,8-4.3,15.1-11,19.2c-2.3,1.4-3.7,3.9-3.7,6.5v61.9
			c0,1,0.8,2,1.9,2s1.9-0.8,1.9-2V67.9c2.1-0.4,4.2-0.6,6.4-0.6c2.9,0,5.7,0.4,8.5,1c-0.2,0.6-0.3,1.6-0.3,2.3v40h-0.4
			c-3.3,0-5.9,2.6-5.9,5.9c0,2.1,1.2,4,2.8,5c-2,4.6-3.4,10.8-4,17.6c-0.3,0-0.6,0-0.8,0c-10.5,0-19.8-4.6-26.3-11.9V66.4
			c0-2.6-1.4-5-3.7-6.5c-6.9-4.2-11-11.6-11-19.8C86.7,37.3,87.2,34.4,88.4,31.5L88.4,31.5z"/>
	</g>
</g>
</svg>
