<?xml version="1.0" encoding="utf-8"?>
<!-- Generator: Adobe Illustrator 19.0.0, SVG Export Plug-In . SVG Version: 6.00 Build 0)  -->
<svg version="1.1" id="Layer_1" xmlns="http://www.w3.org/2000/svg" xmlns:xlink="http://www.w3.org/1999/xlink" x="0px" y="0px"
	 viewBox="0 0 190 219" style="enable-background:new 0 0 190 219;" xml:space="preserve">
<style type="text/css">
	.st0{opacity:0.1;fill:#1F3568;enable-background:new    ;}
	.st1{fill:#CEE5F7;}
	.st2{fill:#689CD3;}
	.st3{fill:#5495D0;}
	.st4{fill:#AAD4F2;}
	.st5{fill:#4E83C3;}
	.st6{fill:#3076BC;}
	.st7{fill:#FEC136;}
	.st8{fill:#FFE784;}
	.st9{fill:#FFFFFF;}
	.st10{fill:#A785BD;}
	.st11{fill:#D84B4B;}
	.st12{fill:#1F3568;}
	.st13{opacity:0.1;enable-background:new    ;}
</style>
<g id="XMLID_2_">
	<g id="XMLID_233_">
		<path id="XMLID_280_" class="st0" d="M177.9,106.2c0-9.4-7.9-17.1-17.8-17.1c-4.6,0-8.8,1.7-12,4.5
			c-12.3-14.4-30.7-23.9-51.4-24.8L147.4,49c1.7-0.7,1.7-3.1,0-3.7L94.1,24.5c-0.5-0.2-1.1-0.2-1.6,0L39.3,45.3
			c-1.7,0.7-1.7,3.1,0,3.7L90,68.9c-26,1.2-48.3,15.8-59.6,36.8c-1.1-0.2-2.3-0.3-3.4-0.3c-9.8,0-17.8,7.6-17.8,17.1
			c0,8,5.7,14.7,13.4,16.6c1.3,36.4,32.4,65.5,70.7,65.5c17.4,0,33.2-6,45.5-16c1.9,0.7,4,1.1,6.2,1.1c9.8,0,17.8-7.6,17.8-17.1
			c0-4-1.5-7.7-3.8-10.6c3.2-7.8,5-16.3,5-25.2c0-4.6-0.5-9.1-1.4-13.4C171.3,121.9,177.9,114.9,177.9,106.2L177.9,106.2z"/>
		<ellipse id="XMLID_279_" class="st1" cx="93.4" cy="125.7" rx="70.7" ry="67.8"/>
		<path id="XMLID_278_" class="st2" d="M164.1,125.7c0,29.2-19.3,54.2-46.2,63.7l-4.1-5.3l4.4-3.3l-1.8-3.6l-21.7,3.6l-14.9-3.2
			l-8.6-11.8l3.5-13.9l8.7-6.3V141l6.4-4.8l7-0.4l13.8-4.6l5.2-0.9v6.5l13.9,1.9l0.2-4.6h6.8l9.2-3.3v-9.9l-7.4,3.2l-3.7-6.3
			l-3.1,1.9l4.2,6.2l-3.5,2l-3.7-3.3l-1.9-5.9l-8.7-5.7l-2.2,2.3l9.2,7.8l-2.8,3.8l-4.2-4.6l-6-5.1l-6.4,4.4l-3.9,2.6l-3.5,7.8
			l-7.7,2.3l-1.6-0.9l-3-1.6l0.9-5.8l-0.9-3.3l1.5-3.3l8.9,1.1v-5.6l-2.7-2.6v-4.7h5.7l7.5-7.2v-4.2l-7.2-6.9l3.4-3.3v-6.5l5-4.8h10
			l4,3.8v-8.2l-4.4-5.1h-4l-8.4-6.6C138.6,64.2,164.1,92.1,164.1,125.7L164.1,125.7z"/>
		<ellipse id="XMLID_277_" class="st3" cx="98.5" cy="159" rx="17.8" ry="17.1"/>
		<path id="XMLID_276_" class="st4" d="M44.9,119.5c0,9.4-7.9,17.1-17.8,17.1c-1.2,0-2.4-0.2-3.6-0.4c-0.6-3.4-0.8-7-0.8-10.6
			c0-8.2,1.5-16,4.3-23.2h0.2C37,102.3,44.9,110,44.9,119.5z"/>
		<path id="XMLID_275_" class="st4" d="M131,68.2v11.1c0,0.8-0.5,1.6-1.3,1.9L94.2,95.1c-0.5,0.2-1.1,0.2-1.6,0L57.1,81.2
			c-0.8-0.3-1.3-1.1-1.3-1.9V68.2c10.9-6.6,23.8-10.4,37.6-10.4C107.1,57.8,120.1,61.6,131,68.2z"/>
		<g id="XMLID_271_">
			<path id="XMLID_274_" class="st3" d="M160.6,146.7c-3.8,11.1-10.4,21-19.2,28.8c-4.4-3.1-7.2-8.1-7.2-13.8
				c0-9.4,7.9-17.1,17.8-17.1C155.1,144.6,158.1,145.3,160.6,146.7L160.6,146.7z"/>
			<path id="XMLID_273_" class="st3" d="M163.8,120.1c-1.2,0.2-2.4,0.4-3.7,0.4c-9.8,0-17.8-7.6-17.8-17.1c0-6.7,4-12.5,9.9-15.3
				C158.6,97.3,162.8,108.2,163.8,120.1L163.8,120.1z"/>
			<path id="XMLID_272_" class="st3" d="M131,68.2v11.1c0,0.8-0.5,1.6-1.3,1.9l-27.1,10.6l-3.2-3l3.4-3.3V79l5-4.8h10l4,3.8v-7.5
				l-4.4-5.1h-4l-8.4-6.6C114.6,60.2,123.3,63.5,131,68.2z"/>
		</g>
		<path id="XMLID_270_" class="st2" d="M91.3,66.4l-5,5.1L83.9,78h-9.5l-13.6,9.3L58,83l9.9-11.1l-3.3-0.2l-4.3,3.7l-6.6,2.5l-4,5.1
			l2.4,4.3l-7.4,14.1l-4.4-4v-4.6l-10,8.6l-3,0.6c8-20.7,26.1-36.5,48.7-42.1l1.2,1.5l11.3,1.7L91.3,66.4z"/>
		<path id="XMLID_269_" class="st3" d="M88.2,63.1l3.1,3.3l-5,5.1L83.9,78h-9.5L65,84.5l-6.2-2.4l8.9-10l-3.3-0.2l-4.3,3.7l-4.5,1.7
			v-8.9c6.2-3.7,12.9-6.5,20.1-8.3l1.2,1.5L88.2,63.1z"/>
		<path id="XMLID_268_" class="st3" d="M105.2,121.2l-3.9,2.6l-3.5,7.8l-7.7,2.3l-1.5-0.9l1.9-9.1l-4.9-1.6l1.5-3.3l8.9,1.1
			L105.2,121.2z"/>
		<path id="XMLID_267_" class="st5" d="M131,39.9v31.3c0,0.8-0.5,1.6-1.3,1.9L94.2,87c-0.5,0.2-1.1,0.2-1.6,0L57.1,73.1
			c-0.8-0.3-1.3-1.1-1.3-1.9V39.9H131z"/>
		<path id="XMLID_266_" class="st6" d="M131,39.9v11L96.5,64.4c-1,0.4-2.1,0.6-3.2,0.6s-2.2-0.2-3.2-0.6L55.6,50.9v-11H131z"/>
		<path id="XMLID_265_" class="st5" d="M92.6,13.4L39.3,34.2c-1.7,0.7-1.7,3.1,0,3.7l53.3,20.8c0.5,0.2,1.1,0.2,1.6,0l53.3-20.8
			c1.7-0.7,1.7-3.1,0-3.7L94.2,13.4C93.6,13.2,93.1,13.2,92.6,13.4z"/>
		<path id="XMLID_264_" class="st7" d="M124.4,122.6h-10.6c-1.2,0-2.1-0.9-2.1-2v-11.7c0-4,3.3-7.1,7.4-7.1s7.4,3.2,7.4,7.1v11.7
			C126.5,121.7,125.5,122.6,124.4,122.6L124.4,122.6z"/>
		<ellipse id="XMLID_263_" class="st8" cx="119.1" cy="97.3" rx="8.1" ry="7.8"/>
		<ellipse id="XMLID_262_" class="st7" cx="27.1" cy="111.4" rx="17.8" ry="17.1"/>
		<path id="XMLID_259_" class="st9" d="M34.1,109.1c0-3.7-3.2-6.7-7-6.7c-3.9,0-7,3-7,6.7c0,1.8,0.7,3.5,2,4.7c-1.2,1.2-2,2.9-2,4.7
			c0,1.2,0.9,2,2.1,2s2.1-0.9,2.1-2c0-1.5,1.3-2.6,2.8-2.6s2.8,1.2,2.8,2.6c0,1.2,0.9,2,2.1,2s2.1-0.9,2.1-2c0-1.8-0.7-3.5-2-4.7
			C33.4,112.6,34.1,110.9,34.1,109.1z M27.2,106.4c1.5,0,2.8,1.2,2.8,2.6s-1.3,2.6-2.8,2.6s-2.8-1.2-2.8-2.6S25.5,106.4,27.2,106.4z
			"/>
		<g id="XMLID_254_">
			<ellipse id="XMLID_258_" class="st10" cx="152" cy="153.6" rx="17.8" ry="17.1"/>
			<path id="XMLID_255_" class="st9" d="M159,151.3c0-3.7-3.2-6.7-7-6.7s-7,3-7,6.7c0,1.8,0.7,3.5,2,4.7c-1.2,1.2-2,2.9-2,4.7
				c0,1.2,0.9,2,2.1,2s2.1-0.9,2.1-2c0-1.5,1.3-2.6,2.8-2.6s2.8,1.2,2.8,2.6c0,1.2,0.9,2,2.1,2s2.1-0.9,2.1-2c0-1.8-0.7-3.5-2-4.7
				C158.3,154.8,159,153.2,159,151.3z M152,148.7c1.5,0,2.8,1.2,2.8,2.6c0,1.4-1.3,2.6-2.8,2.6s-2.8-1.2-2.8-2.6
				C149.2,149.9,150.5,148.7,152,148.7z"/>
		</g>
		<ellipse id="XMLID_253_" class="st11" cx="98.5" cy="151" rx="17.8" ry="17.1"/>
		<path id="XMLID_250_" class="st9" d="M105.4,148.7c0-3.7-3.2-6.7-7-6.7s-7,3-7,6.7c0,1.8,0.7,3.5,2,4.7c-1.2,1.2-2,2.9-2,4.7
			c0,1.2,0.9,2,2.1,2s2.1-0.9,2.1-2c0-1.5,1.3-2.6,2.8-2.6s2.8,1.2,2.8,2.6c0,1.2,0.9,2,2.1,2s2.1-0.9,2.1-2c0-1.8-0.7-3.5-2-4.7
			C104.7,152.2,105.4,150.4,105.4,148.7z M98.5,145.9c1.5,0,2.8,1.2,2.8,2.6c0,1.5-1.3,2.6-2.8,2.6s-2.8-1.2-2.8-2.6
			C95.6,147.2,96.9,145.9,98.5,145.9z"/>
		<ellipse id="XMLID_249_" class="st7" cx="160.1" cy="95.3" rx="17.8" ry="17.1"/>
		<path id="XMLID_246_" class="st12" d="M98.5,131.9c-11,0-19.9,8.5-19.9,19.1s8.9,19.1,19.9,19.1s19.9-8.5,19.9-19.1
			S109.5,131.9,98.5,131.9z M98.5,166.1c-8.7,0-15.7-6.8-15.7-15.1c0-8.3,7-15.1,15.7-15.1s15.7,6.8,15.7,15.1
			C114.2,159.3,107.1,166.1,98.5,166.1z"/>
		<path id="XMLID_237_" class="st12" d="M180,95.3c0-10.6-8.9-19.1-19.9-19.1c-4.4,0-8.5,1.4-11.7,3.7c-1.6-1.8-3.4-3.6-5.3-5.3
			c-0.8-0.8-2.2-0.7-3,0.1s-0.7,2.1,0.1,2.9c1.8,1.6,3.5,3.3,5,5.1c-3.2,3.4-5,7.8-5,12.7c0,10.6,8.9,19.1,19.9,19.1
			c0.3,0,0.6,0,0.8-0.1c0.6,3.7,1,7.5,1,11.3c0,3.7-0.3,7.4-1,11c-2.7-1.3-5.7-2.1-9-2.1c-11,0-19.9,8.5-19.9,19.1
			c0,7.5,4.5,14.1,11.1,17.2c-13,13.1-30.9,20.7-49.9,20.7c-17.8,0-34.7-6.5-47.5-18.3C33.4,162,26,146.9,24.8,130.6
			c0.7,0.1,1.4,0.2,2.1,0.2c11,0,19.9-8.5,19.9-19.1c0-8.4-5.6-15.5-13.4-18.1c4.9-8.5,11.8-15.8,20.1-21.4c0.2,1.3,1.2,2.5,2.6,3
			l35.5,13.9c0.5,0.2,1.1,0.3,1.6,0.3c0.6,0,1.1-0.1,1.6-0.3l22-8.6v7.4c-4.6,0.9-8.1,4.9-8.1,9.6c0,2.4,0.9,4.6,2.4,6.4
			c-1.1,1.6-1.7,3.3-1.7,5.2v11.7c0,2.3,1.9,4,4.2,4h10.6c2.3,0,4.2-1.8,4.2-4v-11.7c0-1.9-0.6-3.7-1.7-5.2c1.5-1.7,2.4-4,2.4-6.4
			c0-4.7-3.5-8.6-8.1-9.6v-9.1l9.3-3.7c1.6-0.6,2.6-2.1,2.6-3.7V45.8l15.1-5.9c1.6-0.6,2.6-2.1,2.6-3.7s-1-3.1-2.6-3.7L94.9,11.7
			c-1-0.4-2.2-0.4-3.2,0L38.5,32.5c-1.6,0.6-2.6,2.1-2.6,3.7s1,3.1,2.6,3.7l53.3,20.8c0.5,0.2,1.1,0.3,1.6,0.3
			c0.6,0,1.1-0.1,1.6-0.3l22-8.6v23.8l-23.6,9.2L57.9,71.2V56.5c0-1.2-0.9-2-2.1-2s-2.1,0.9-2.1,2v10.6
			c-10.1,6.4-18.5,15.1-24.3,25.3c-0.7-0.1-1.5-0.2-2.3-0.2c-11,0-19.9,8.5-19.9,19.1c0,8.4,5.7,15.5,13.5,18.1
			c1,17.7,8.9,34.1,22.2,46.5c13.6,12.6,31.5,19.5,50.4,19.5c20.7,0,40.4-8.5,54.2-23.2c1.5,0.3,2.9,0.5,4.5,0.5
			c11,0,19.9-8.5,19.9-19.1c0-5.9-2.8-11.1-7.1-14.6c0.9-4.4,1.4-8.9,1.4-13.4c0-4-0.3-8-1.1-11.9C173.7,111.7,180,104.1,180,95.3
			L180,95.3z M124.4,120.6h-2.5v-6.1c0-1.2-0.9-2-2.1-2s-2.1,0.9-2.1,2v6.1h-3.9v-11.7c0-0.9,0.3-1.9,0.8-2.7c1.4,0.6,2.8,1,4.5,1
			s3.2-0.4,4.5-1c0.6,0.8,0.8,1.7,0.8,2.7V120.6L124.4,120.6z M125.1,97.3c0,3.2-2.7,5.8-6,5.8s-6-2.6-6-5.8s2.7-5.8,6-5.8
			S125.1,94.1,125.1,97.3z M93.4,57L40.1,36.1l53.3-20.8l53.3,20.8l-28.3,11.1L88.7,34.7c-1.1-0.5-2.3,0-2.8,1.1
			c-0.5,1,0,2.3,1.1,2.6l26,11L93.4,57z M121.2,50.4l7.7-3v23.8l-7.7,3V50.4L121.2,50.4z M11.4,111.4c0-8.3,7-15.1,15.7-15.1
			s15.7,6.8,15.7,15.1s-7,15.1-15.7,15.1S11.4,119.7,11.4,111.4z M167.8,153.7c0,8.3-7,15.1-15.7,15.1s-15.7-6.8-15.7-15.1
			c0-8.3,7-15.1,15.7-15.1C160.7,138.6,167.8,145.3,167.8,153.7z M160.1,110.3c-8.7,0-15.7-6.8-15.7-15.1s7-15.1,15.7-15.1
			s15.7,6.8,15.7,15.1S168.7,110.3,160.1,110.3z"/>
		<path id="XMLID_234_" class="st9" d="M167.1,92.9c0-3.7-3.2-6.7-7-6.7s-7,3-7,6.7c0,1.8,0.7,3.5,2,4.7c-1.2,1.2-2,2.9-2,4.7
			c0,1.2,0.9,2,2.1,2s2.1-0.9,2.1-2c0-1.5,1.3-2.6,2.8-2.6s2.8,1.2,2.8,2.6c0,1.2,0.9,2,2.1,2s2.1-0.9,2.1-2c0-1.8-0.7-3.5-2-4.7
			C166.3,96.4,167.1,94.7,167.1,92.9z M160.1,90.3c1.5,0,2.8,1.2,2.8,2.6c0,1.5-1.3,2.6-2.8,2.6s-2.8-1.2-2.8-2.6
			S158.5,90.3,160.1,90.3z"/>
	</g>
	<g id="XMLID_51_">
		<g id="XMLID_228_" class="st13">
			<path id="XMLID_232_" class="st12" d="M93.4,207.2c-19.2,0-37.4-7.1-51.2-19.9c-13.3-12.4-21.1-28.7-22.3-46.3
				c-8.1-2.9-13.5-10.3-13.5-18.7c0-11,9.3-19.8,20.6-19.8c0.6,0,1.2,0,1.8,0.1c10.5-18.3,29-31.2,50-35.3L38.2,51.4
				c-1.9-0.8-3.1-2.5-3.1-4.4s1.2-3.7,3.1-4.4l53.2-20.8c0.6-0.2,1.2-0.4,1.9-0.4c0.6,0,1.3,0.2,1.9,0.4l53.2,20.8
				c1.9,0.8,3.1,2.5,3.1,4.4s-1.2,3.7-3.1,4.4l-40.7,15.9c15.6,3,30,10.9,40.6,22.5c3.4-2.3,7.4-3.4,11.7-3.4
				c11.4,0,20.6,8.9,20.6,19.8c0,8.9-6.2,16.6-14.7,19c0.6,3.7,1,7.5,1,11.3c0,8.5-1.5,16.9-4.7,24.8c2.3,3.3,3.5,7,3.5,11
				c0,11-9.3,19.8-20.6,19.8c-1.9,0-3.7-0.2-5.5-0.7C126.5,201.7,110.2,207.2,93.4,207.2z"/>
			<path id="XMLID_229_" class="st9" d="M93.4,24.2c0.2,0,0.6,0.1,0.8,0.2l53.3,20.8c1.7,0.7,1.7,3.1,0,3.7L96.8,68.8
				c20.7,0.9,39.1,10.4,51.4,24.8c3.2-2.8,7.4-4.5,12-4.5c9.9,0,17.8,7.7,17.8,17.1c0,8.6-6.6,15.8-15.2,16.9
				c0.9,4.4,1.4,8.9,1.4,13.4c0,8.9-1.8,17.4-5,25.2c2.4,2.9,3.8,6.6,3.8,10.6c0,9.5-8,17.1-17.8,17.1c-2.2,0-4.2-0.4-6.2-1.1
				c-12.3,10-28.2,16-45.5,16c-38.2,0-69.4-29.1-70.7-65.5c-7.7-1.9-13.4-8.5-13.4-16.6c0-9.5,8-17.1,17.8-17.1
				c1.1,0,2.3,0.2,3.4,0.3c11.3-21,33.5-35.7,59.6-36.8L39.5,48.7c-1.7-0.7-1.7-3.1,0-3.7l53.2-20.8C92.8,24.2,93.1,24.2,93.4,24.2
				 M93.4,18.7c-1.1,0-2,0.2-2.9,0.5L37.3,40c-2.9,1.2-4.9,3.9-4.9,6.9s1.9,5.8,4.8,6.9L70,66.6c-17.7,5.5-33.1,17.2-42.7,33
				c-0.1,0-0.2,0-0.2,0c-13,0-23.5,10.1-23.5,22.5c0,8.9,5.4,16.9,13.7,20.5c1.5,17.6,9.6,34,23,46.4c14.3,13.3,33.2,20.6,53.1,20.6
				c17,0,33.5-5.4,46.8-15.4c1.5,0.3,3.2,0.5,4.9,0.5c13,0,23.5-10.1,23.5-22.5c0-4-1.1-7.9-3.2-11.3c2.9-7.9,4.4-16.1,4.4-24.5
				c0-3.3-0.2-6.5-0.6-9.6c8.5-3.4,14.5-11.7,14.5-20.8c0-12.4-10.5-22.5-23.5-22.5c-3.9,0-7.7,0.9-11.1,2.7
				c-8.9-9.1-20-15.8-32.2-19.5l32.8-12.8c2.9-1.2,4.9-3.9,4.9-6.9s-1.9-5.8-4.8-6.9L96.5,19.3C95.4,19,94.4,18.7,93.4,18.7
				L93.4,18.7z"/>
		</g>
		<g id="XMLID_223_">
			<ellipse id="XMLID_227_" class="st1" cx="93.4" cy="125.6" rx="73.5" ry="70.6"/>
			<path id="XMLID_224_" class="st9" d="M93.4,57.8c39,0,70.7,30.4,70.7,67.8s-31.7,67.8-70.7,67.8S22.7,163,22.7,125.6
				S54.4,57.8,93.4,57.8 M93.4,52.4c-42.1,0-76.3,32.9-76.3,73.3S51.3,199,93.4,199s76.3-32.9,76.3-73.3S135.5,52.4,93.4,52.4
				L93.4,52.4z"/>
		</g>
		<g id="XMLID_214_">
			<path id="XMLID_220_" class="st2" d="M117.8,192c-0.9,0-1.7-0.4-2.3-1.1l-4.1-5.3c-0.9-1.2-0.7-2.9,0.5-3.7l2.2-1.7l-19,3.1
				c-0.2,0-0.3,0-0.5,0s-0.4,0-0.6-0.1L79.1,180c-0.7-0.2-1.3-0.5-1.7-1.1l-8.6-11.8c-0.5-0.6-0.6-1.5-0.4-2.2l3.5-13.9
				c0.2-0.6,0.6-1.2,1.1-1.6l7.6-5.5v-3.3c0-0.9,0.4-1.6,1.1-2.1l4.9-3.7l-2.3-1.2c-1.1-0.5-1.5-1.6-1.4-2.7l0.8-5.2L83,123
				c-0.2-0.6-0.1-1.2,0.2-1.8l1.5-3.3c0.5-1,1.5-1.6,2.6-1.6c0.1,0,0.2,0,0.3,0l5.7,0.7v-1.4l-1.9-1.8c-0.6-0.5-0.8-1.2-0.8-1.9
				v-4.7c0-1.5,1.3-2.7,2.8-2.7h4.5l5.8-5.7v-1.9l-6.3-6.1c-1.1-1.1-1.1-2.8,0-3.8l2.6-2.5V79c0-0.7,0.3-1.4,0.8-1.9l5-4.8
				c0.6-0.5,1.2-0.8,2-0.8h10c0.4,0,0.8,0.1,1.1,0.2v-0.2l-2.9-3.3h-2.7c-0.6,0-1.3-0.2-1.8-0.6l-8.4-6.6c-1-0.8-1.3-2.1-0.8-3.3
				c0.5-1,1.5-1.6,2.6-1.6c0.2,0,0.3,0,0.5,0.1c35.5,5.8,61.3,35.1,61.3,69.6c0,29.5-19.3,56-48.1,66.2
				C118.5,192,118.2,192,117.8,192z M126.9,135.5l0.1-1.6c0.1-1.5,1.3-2.6,2.8-2.6h6.2l6.9-2.5V125l-3.5,1.5
				c-0.3,0.2-0.7,0.2-1.1,0.2c-0.2,0.6-0.6,1.1-1.2,1.4l-3.5,2c-0.5,0.2-1,0.4-1.5,0.4c-0.7,0-1.4-0.2-1.9-0.8l-3.7-3.3
				c-0.2-0.2-0.3-0.4-0.5-0.6l-1.9,2.5c-0.5,0.7-1.3,1.1-2.2,1.1c-0.1,0-0.1,0-0.2,0c-0.8,0-1.6-0.3-2.1-0.9l-4-4.5l-4.2-3.6
				l-4.5,3.1l-3.2,2.2l-2.6,5.7l8.5-2.8c0.2-0.1,0.3-0.1,0.5-0.1l5.2-0.9c0.2,0,0.3-0.1,0.5-0.1c0.6,0,1.3,0.2,1.9,0.6
				c0.6,0.5,1,1.2,1,2.1v4.1L126.9,135.5z"/>
			<path id="XMLID_215_" class="st9" d="M105.1,58.7c33.4,5.5,58.9,33.4,58.9,67c0,29.2-19.3,54.2-46.2,63.7l-4.1-5.3l4.4-3.3
				l-1.8-3.6l-21.7,3.6l-14.9-3.2l-8.6-11.8l3.5-13.9l8.7-6.3V141l6.4-4.8l7-0.4l13.8-4.6l5.2-0.9v6.5l13.9,1.9l0.2-4.6h6.8l9.2-3.3
				v-9.9l-7.4,3.2l-3.7-6.3l-3.1,1.9l4.2,6.2l-3.5,2l-3.7-3.3l-1.9-5.9L118,113l-2.2,2.3l9.2,7.8l-2.8,3.8l-4.2-4.6l-6-5.1l-6.4,4.4
				l-3.9,2.6l-3.5,7.8l-7.7,2.3l-1.6-0.9l-3-1.6l0.9-5.8l-0.9-3.3l1.5-3.3l8.9,1.1v-5.6l-2.7-2.6v-4.7h5.7l7.5-7.2v-4.2l-7.2-6.9
				L103,86v-6.5l5-4.8h10l4,3.8v-8.2l-4.4-5.1h-4L105.1,58.7 M105.1,53.2c-2.2,0-4.2,1.2-5.2,3.2c-1.1,2.3-0.4,4.9,1.5,6.5l7.4,5.8
				h-1c-1.5,0-2.9,0.5-4,1.6l-5,4.8c-1.1,1-1.7,2.4-1.7,3.8v4.3l-1.8,1.7c-1.1,1-1.7,2.4-1.7,3.8c0,1.5,0.6,2.8,1.7,3.8l5.3,5.1
				l-4,3.9h-3.4c-3.2,0-5.7,2.4-5.7,5.4v4.7c0,0.6,0.1,1.2,0.3,1.8h-0.2c-0.2,0-0.5-0.1-0.7-0.1c-2.3,0-4.3,1.2-5.2,3.3l-1.5,3.3
				c-0.5,1.1-0.6,2.3-0.3,3.5l0.6,2.2l-0.7,4.7c-0.2,1.7,0.4,3.5,1.6,4.7l-1.8,1.4c-1.4,1-2.1,2.6-2.1,4.3v1.9l-6.5,4.7
				c-1.1,0.8-1.8,1.9-2.1,3.1l-3.5,13.9c-0.4,1.5-0.1,3.1,0.9,4.4l8.6,11.8c0.8,1.1,2,1.9,3.4,2.2l14.9,3.2c0.4,0.1,0.8,0.2,1.2,0.2
				c0.3,0,0.6,0,1-0.1l12.5-2c0,1.2,0.3,2.3,1.1,3.3l4.1,5.3c1.1,1.4,2.8,2.2,4.5,2.2c0.6,0,1.3-0.1,1.9-0.3
				c14.5-5.1,26.9-14.3,35.9-26.4c9.2-12.4,14.1-27.1,14.1-42.4c0-17.4-6.5-34.3-18.2-47.6C139.6,65,123.5,56.2,106,53.3
				C105.8,53.2,105.4,53.2,105.1,53.2L105.1,53.2z M107.7,126.3l0.9-0.6l2.8-1.9l1.5,1.3l-3.2,0.5c-0.3,0.1-0.6,0.2-0.9,0.2
				L107.7,126.3L107.7,126.3z M122,132.1c0.1,0,0.1,0,0.2,0c1-0.1,1.9-0.3,2.8-0.9c-0.2,0.4-0.4,0.8-0.6,1.2L122,132.1L122,132.1z"
				/>
		</g>
		<g id="XMLID_209_">
			<path id="XMLID_213_" class="st3" d="M98.5,178.9c-11.4,0-20.6-8.9-20.6-19.8c0-10.9,9.3-19.8,20.6-19.8s20.6,8.9,20.6,19.8
				C119.1,170,109.8,178.9,98.5,178.9z"/>
			<path id="XMLID_210_" class="st9" d="M98.5,141.9c9.9,0,17.8,7.7,17.8,17.1c0,9.5-8,17.1-17.8,17.1c-9.9,0-17.8-7.7-17.8-17.1
				C80.6,149.6,88.6,141.9,98.5,141.9 M98.5,136.5c-13,0-23.5,10.1-23.5,22.5s10.5,22.5,23.5,22.5S122,171.4,122,159
				S111.4,136.5,98.5,136.5L98.5,136.5z"/>
		</g>
		<g id="XMLID_204_">
			<path id="XMLID_208_" class="st4" d="M27.1,139.3c-1.5,0-2.8-0.2-4.1-0.5c-1.1-0.2-2-1.2-2.2-2.3c-0.6-3.7-0.9-7.3-0.9-11
				c0-8.3,1.5-16.4,4.5-24.2c0.4-1.1,1.5-1.8,2.7-1.8h0.2c11.4,0,20.6,8.9,20.6,19.8C47.7,130.4,38.5,139.3,27.1,139.3z"/>
			<path id="XMLID_205_" class="st9" d="M27.2,102.4c9.8,0,17.7,7.6,17.7,17.1c0,9.4-7.9,17.1-17.8,17.1c-1.2,0-2.4-0.2-3.6-0.4
				c-0.6-3.4-0.8-7-0.8-10.6c0-8.2,1.5-16,4.3-23.2L27.2,102.4C27.1,102.4,27.2,102.4,27.2,102.4 M27.2,97L27.2,97L27.2,97H27
				c-2.3,0-4.5,1.4-5.3,3.6c-3.1,8.1-4.6,16.6-4.6,25.1c0,3.8,0.3,7.6,0.9,11.3c0.3,2.3,2.1,4,4.4,4.5c1.5,0.3,3.2,0.5,4.8,0.5
				c13,0,23.5-10.1,23.5-22.5C50.6,107.1,40.1,97,27.2,97L27.2,97z"/>
		</g>
		<g id="XMLID_199_">
			<path id="XMLID_203_" class="st4" d="M93.4,98c-0.6,0-1.3-0.2-1.9-0.4L56,83.7c-1.9-0.8-3.1-2.5-3.1-4.4V68.2
				c0-0.9,0.5-1.8,1.3-2.3C65.9,58.8,79.5,55,93.4,55c13.8,0,27.4,3.7,39.2,10.9c0.8,0.5,1.3,1.4,1.3,2.3v11.1
				c0,1.9-1.2,3.7-3.1,4.4L95.3,97.6C94.7,97.9,94,98,93.4,98z"/>
			<path id="XMLID_200_" class="st9" d="M93.4,57.8c13.8,0,26.8,3.8,37.7,10.4v11.1c0,0.8-0.5,1.6-1.3,1.9L94.3,95.1
				c-0.2,0.1-0.6,0.2-0.8,0.2s-0.6-0.1-0.8-0.2L57.2,81.2c-0.8-0.3-1.3-1.1-1.3-1.9V68.2C66.6,61.6,79.5,57.8,93.4,57.8 M93.4,52.4
				C79,52.4,65,56.3,52.8,63.7c-1.6,1-2.7,2.7-2.7,4.6v11.1c0,3,1.9,5.7,4.8,6.8c0,0,0,0,0.1,0l35.5,13.9c1,0.4,1.9,0.5,2.9,0.5
				c1.1,0,2-0.2,3-0.5l35.5-13.9c2.9-1.1,4.9-3.9,4.9-6.9V68.2c0-1.9-1-3.6-2.7-4.6C121.9,56.3,107.8,52.4,93.4,52.4L93.4,52.4z"/>
		</g>
		<g id="XMLID_183_">
			<g id="XMLID_194_">
				<path id="XMLID_198_" class="st3" d="M141.4,178.1c-0.6,0-1.2-0.2-1.7-0.5c-5.3-3.7-8.3-9.6-8.3-15.9c0-11,9.3-19.8,20.6-19.8
					c3.6,0.1,7,0.9,9.9,2.4c1.2,0.6,1.8,2,1.3,3.3c-3.9,11.3-10.8,21.7-19.9,29.8C142.8,177.9,142.1,178.1,141.4,178.1z"/>
				<path id="XMLID_195_" class="st9" d="M152.1,144.5c3.1,0.1,6,0.8,8.5,2.1c-3.8,11.1-10.4,21-19.2,28.8
					c-4.4-3.1-7.2-8.1-7.2-13.8C134.3,152.2,142.2,144.5,152.1,144.5 M152.1,139.1c-13,0-23.5,10.1-23.5,22.5
					c0,7.2,3.5,13.8,9.5,18.1c1,0.7,2.2,1.1,3.4,1.1c1.4,0,2.8-0.5,3.9-1.5c9.6-8.5,16.7-19.2,20.7-31c0.8-2.5-0.2-5.2-2.7-6.5
					C160,140.2,156.1,139.2,152.1,139.1C152.2,139.1,152.1,139.1,152.1,139.1L152.1,139.1z"/>
			</g>
			<g id="XMLID_189_">
				<path id="XMLID_193_" class="st3" d="M160.1,123.2c-11.4,0-20.6-8.9-20.6-19.8c0-7.5,4.4-14.4,11.5-17.8
					c0.4-0.2,0.8-0.3,1.3-0.3c0.9,0,1.9,0.5,2.3,1.2c6.9,10,11.1,21.5,12.1,33.3c0.1,1.4-0.8,2.6-2.3,2.9
					C163,123,161.5,123.2,160.1,123.2z"/>
				<path id="XMLID_190_" class="st9" d="M152.2,88c6.5,9.3,10.6,20.3,11.7,32.1c-1.2,0.2-2.4,0.4-3.7,0.4
					c-9.8,0-17.8-7.6-17.8-17.1C142.3,96.6,146.3,90.8,152.2,88 M152.2,82.5c-0.9,0-1.7,0.2-2.5,0.5c-8,3.9-13,11.7-13,20.2
					c0,12.4,10.5,22.5,23.5,22.5c1.6,0,3.2-0.2,4.9-0.5c2.8-0.5,4.7-3,4.5-5.8c-1.1-12.3-5.4-24.2-12.5-34.7
					C155.9,83.4,154,82.5,152.2,82.5L152.2,82.5z"/>
			</g>
			<g id="XMLID_184_">
				<path id="XMLID_188_" class="st3" d="M102.6,94.5c-0.7,0-1.5-0.3-2-0.8l-3.2-3c-1.1-1.1-1.1-2.8,0-3.9l2.6-2.5v-5.4
					c0-0.7,0.3-1.4,0.8-1.9l5-4.8c0.6-0.5,1.2-0.8,2-0.8h10c0.4,0,0.8,0.1,1.1,0.2v-0.2l-2.9-3.3h-2.7c-0.6,0-1.3-0.2-1.8-0.6
					l-8.4-6.6c-1-0.8-1.3-2.1-0.8-3.3c0.5-1,1.5-1.6,2.6-1.6c0.2,0,0.3,0,0.5,0.1c9.6,1.6,18.7,4.9,26.9,9.9
					c0.8,0.5,1.3,1.4,1.3,2.3v11.1c0,1.9-1.2,3.7-3.1,4.4l-27,10.6C103.3,94.5,103,94.5,102.6,94.5z"/>
				<path id="XMLID_185_" class="st9" d="M105.2,58.7c9.4,1.6,18.1,4.8,25.8,9.5v11.1c0,0.8-0.5,1.6-1.3,1.9l-27.1,10.6l-3.2-3
					l3.4-3.3V79l5-4.8h10l4,3.8v-7.5l-4.4-5.1h-4L105.2,58.7 M105.2,53.3c-2.2,0-4.2,1.2-5.2,3.2c-1.1,2.3-0.4,4.9,1.5,6.5l7.4,5.8
					h-1c-1.5,0-2.9,0.5-4,1.6l-5,4.8c-1.1,1-1.7,2.4-1.7,3.8v4.3L95.4,85c-2.2,2.1-2.2,5.6,0,7.7l3.2,3c1.1,1,2.5,1.6,4,1.6
					c0.7,0,1.5-0.2,2.1-0.4l27-10.6c2.9-1.1,4.9-3.9,4.9-6.9V68.3c0-1.9-1-3.6-2.7-4.6c-8.5-5.2-17.9-8.6-27.9-10.3
					C105.8,53.3,105.5,53.3,105.2,53.3L105.2,53.3z"/>
			</g>
		</g>
		<g id="XMLID_178_">
			<path id="XMLID_182_" class="st2" d="M27.1,104.7c-0.8,0-1.6-0.3-2.1-0.9c-0.6-0.8-0.9-1.8-0.5-2.7c8.4-21.7,27.4-38,50.7-43.8
				c0.2-0.1,0.5-0.1,0.7-0.1c0.8,0,1.7,0.4,2.2,1l0.6,0.6l10.2,1.6c0.6,0.1,1.2,0.4,1.7,0.9l3.1,3.3c1,1.1,1,2.6-0.1,3.7L89,73
				l-2.2,5.9c-0.4,1.1-1.5,1.8-2.7,1.8h-8.5l-12.9,8.8c-0.5,0.3-1.1,0.5-1.6,0.5c-0.2,0-0.3,0-0.6-0.1c-0.7-0.2-1.5-0.5-1.9-1.2
				l-2.8-4.3c-0.6-1-0.6-2.3,0.2-3.3l1.7-1.9L55.6,80l-2.3,3l1.5,2.7c0.4,0.8,0.5,1.7,0,2.6l-7.4,14.1c-0.4,0.8-1.1,1.3-2,1.5
				c-0.2,0-0.3,0.1-0.5,0.1c-0.7,0-1.5-0.2-1.9-0.8l-4.4-4c-0.2-0.2-0.4-0.5-0.6-0.8l-5.7,4.8c-0.3,0.3-0.8,0.5-1.3,0.6l-3,0.6
				C27.5,104.7,27.2,104.7,27.1,104.7z"/>
			<path id="XMLID_179_" class="st9" d="M75.7,59.9l1.2,1.5l11.3,1.7l3.1,3.3l-5,5.1L83.9,78h-9.5l-13.6,9.3L58,83l9.9-11.1
				l-3.3-0.2l-4.3,3.7l-6.6,2.5l-4,5.1l2.4,4.3l-7.4,14.1l-4.4-4v-4.6l-10,8.6l-3,0.6C35,81.4,53.2,65.4,75.7,59.9 M75.7,54.5
				c-0.5,0-1,0.1-1.4,0.2c-24.2,6-43.9,22.9-52.6,45.5c-0.7,1.9-0.3,4,1.1,5.4c1.1,1.2,2.7,1.9,4.3,1.9c0.4,0,0.8-0.1,1.2-0.2l3-0.6
				c1-0.2,1.8-0.6,2.5-1.2l3.6-3l3.2,3c1.1,0.9,2.4,1.5,3.9,1.5c0.3,0,0.6,0,1-0.1c1.8-0.3,3.3-1.4,4.1-2.9l6.9-13
				c0.8,0.9,2,1.6,3.2,1.9C60,93,60.4,93,60.8,93c1.1,0,2.3-0.3,3.3-1l12.1-8.3h7.6c2.4,0,4.5-1.5,5.3-3.7l2-5.4l4.2-4.2
				c2-2,2.1-5.2,0.2-7.4l-3.1-3.3c-0.9-0.9-2-1.6-3.3-1.8L80,56.5C78.9,55.1,77.4,54.5,75.7,54.5L75.7,54.5z"/>
		</g>
		<g id="XMLID_173_">
			<path id="XMLID_177_" class="st3" d="M65.1,87.1c-0.3,0-0.7-0.1-1.1-0.2l-6.2-2.4c-0.8-0.3-1.5-1-1.7-1.9s0-1.7,0.6-2.4l0.7-0.8
				l-0.7,0.2c-0.3,0.2-0.6,0.2-1.1,0.2c-0.6,0-1.1-0.2-1.6-0.5c-0.8-0.5-1.2-1.3-1.2-2.3v-8.9c0-0.9,0.5-1.8,1.3-2.3
				c6.5-4,13.5-6.8,21-8.6c0.2-0.1,0.5-0.1,0.7-0.1c0.8,0,1.7,0.4,2.2,1l0.6,0.6l10.1,1.5c0.6,0.1,1.3,0.4,1.7,0.9l3.1,3.3
				c1,1.1,1,2.6-0.1,3.7l-4.6,4.7l-2.2,5.9c-0.4,1.1-1.5,1.8-2.7,1.8h-8.5l-8.6,5.9C66.2,87,65.6,87.1,65.1,87.1z"/>
			<path id="XMLID_174_" class="st9" d="M75.7,60l1.2,1.5l11.3,1.6l3.1,3.3l-5,5.1L83.9,78h-9.5L65,84.5l-6.2-2.4l8.9-10l-3.3-0.2
				l-4.3,3.7l-4.5,1.7v-8.9C61.8,64.6,68.5,61.8,75.7,60 M75.7,54.5c-0.5,0-0.9,0.1-1.4,0.2c-7.7,1.9-15.1,4.9-21.8,9
				c-1.6,1-2.6,2.7-2.6,4.6v8.9c0,1.8,0.9,3.5,2.4,4.5c0.2,0.2,0.5,0.3,0.7,0.4c0,0.4,0.1,0.8,0.2,1.2c0.4,1.7,1.7,3.1,3.4,3.7
				l6.2,2.4c0.6,0.2,1.4,0.4,2.1,0.4c1.1,0,2.3-0.3,3.3-1l7.9-5.4h7.6c2.4,0,4.5-1.5,5.3-3.7l2-5.4l4.2-4.2c2-2,2.1-5.2,0.2-7.4
				l-3.1-3.3c-0.9-0.9-2.1-1.6-3.4-1.8l-9.1-1.3C78.9,55.2,77.4,54.5,75.7,54.5L75.7,54.5z"/>
		</g>
		<g id="XMLID_168_">
			<path id="XMLID_172_" class="st3" d="M90.2,136.7c-0.5,0-1-0.2-1.4-0.4l-1.5-0.9c-1.1-0.6-1.6-1.8-1.4-3l1.5-6.7l-2.6-0.9
				c-0.7-0.2-1.4-0.8-1.7-1.5s-0.3-1.5,0-2.2l1.5-3.3c0.5-1,1.5-1.6,2.6-1.6c0.1,0,0.2,0,0.3,0l8.9,1.1l9.1,1.2
				c1.1,0.2,2.1,0.9,2.3,2s-0.2,2.3-1.1,2.9l-3.2,2.2l-3.2,7.1c-0.3,0.7-1,1.2-1.8,1.6l-7.7,2.3C90.8,136.6,90.5,136.7,90.2,136.7z"
				/>
			<path id="XMLID_169_" class="st9" d="M87.1,119l8.9,1.1l9.1,1.2l-3.9,2.6l-3.5,7.8L90,134l-1.5-0.9l1.9-9.1l-4.9-1.6L87.1,119
				 M87.1,113.5c-2.3,0-4.3,1.2-5.2,3.3l-1.5,3.3c-0.6,1.4-0.6,3,0,4.4s1.9,2.5,3.3,3l0.2,0.1l-1,4.4c-0.5,2.3,0.6,4.7,2.8,5.8
				l1.5,0.9c0.9,0.5,1.9,0.7,2.8,0.7c0.6,0,1.1-0.1,1.7-0.2l7.7-2.3c1.5-0.5,2.8-1.6,3.5-3l2.8-6.4l2.6-1.8c1.9-1.3,2.8-3.6,2.3-5.8
				c-0.6-2.2-2.4-3.8-4.8-4.1l-9.1-1.2h-0.1l-8.9-1.1C87.6,113.6,87.4,113.5,87.1,113.5L87.1,113.5z"/>
		</g>
		<g id="XMLID_163_">
			<path id="XMLID_167_" class="st5" d="M93.4,89.9c-0.6,0-1.3-0.2-1.9-0.4L56,75.6c-1.9-0.8-3.1-2.5-3.1-4.4V39.9
				c0-1.5,1.3-2.7,2.8-2.7h75.4c1.5,0,2.8,1.2,2.8,2.7v31.3c0,1.9-1.2,3.7-3.1,4.4L95.3,89.5C94.7,89.8,94,89.9,93.4,89.9z"/>
			<path id="XMLID_164_" class="st9" d="M131,39.9v31.3c0,0.8-0.5,1.6-1.3,1.9L94.2,87c-0.2,0.1-0.6,0.2-0.8,0.2s-0.6-0.1-0.8-0.2
				L57.1,73.1c-0.8-0.3-1.3-1.1-1.3-1.9V39.9H131 M131,34.5H55.6c-3.2,0-5.7,2.4-5.7,5.4v31.3c0,3,1.9,5.7,4.8,6.8c0,0,0,0,0.1,0
				l35.6,14c1,0.4,1.9,0.5,2.9,0.5c1.1,0,2-0.2,3-0.5l35.5-13.9c2.9-1.1,4.9-3.9,4.9-6.9V39.9C136.7,37,134.2,34.5,131,34.5
				L131,34.5z"/>
		</g>
		<g id="XMLID_158_">
			<path id="XMLID_162_" class="st6" d="M93.4,67.8c-1.5,0-2.8-0.2-4.3-0.8L54.6,53.5c-1.1-0.4-1.8-1.4-1.8-2.5V39.9
				c0-1.5,1.3-2.7,2.8-2.7H131c1.5,0,2.8,1.2,2.8,2.7v11c0,1.1-0.7,2.1-1.8,2.5L97.5,66.9C96.3,67.5,94.8,67.8,93.4,67.8z"/>
			<path id="XMLID_159_" class="st9" d="M131,39.9v11L96.5,64.4c-1,0.4-2.1,0.6-3.2,0.6s-2.2-0.2-3.2-0.6L55.6,50.9v-11H131
				 M131,34.5H55.6c-3.2,0-5.7,2.4-5.7,5.4v11c0,2.2,1.4,4.2,3.6,5.1L88,69.5l0,0c1.7,0.7,3.5,1,5.3,1c1.9,0,3.6-0.3,5.3-1L133,56
				c2.1-0.9,3.6-2.8,3.6-5.1v-11C136.7,37,134.2,34.5,131,34.5L131,34.5z"/>
		</g>
		<g id="XMLID_153_">
			<path id="XMLID_157_" class="st5" d="M93.4,61.8c-0.6,0-1.3-0.2-1.9-0.4L38.3,40.6c-1.9-0.8-3.1-2.5-3.1-4.4s1.2-3.7,3.1-4.4
				L91.6,11c0.6-0.2,1.2-0.4,1.9-0.4c0.6,0,1.3,0.2,1.9,0.4l53.3,20.8c1.9,0.8,3.1,2.5,3.1,4.4s-1.2,3.7-3.1,4.4L95.4,61.4
				C94.7,61.6,94,61.8,93.4,61.8z"/>
			<path id="XMLID_154_" class="st9" d="M93.4,13.3c0.2,0,0.6,0.1,0.8,0.2l53.3,20.8c1.7,0.7,1.7,3.1,0,3.7L94.2,58.8
				C94,58.9,93.6,59,93.4,59s-0.6-0.1-0.8-0.2L39.3,38c-1.7-0.7-1.7-3.1,0-3.7l53.3-20.8C92.8,13.4,93.1,13.3,93.4,13.3 M93.4,7.8
				c-1,0-2,0.2-2.9,0.5L37.2,29.1c-2.9,1.2-4.9,3.9-4.9,6.9s1.9,5.8,4.8,6.9l53.3,20.8c1,0.4,1.9,0.5,2.9,0.5c1.1,0,2-0.2,2.9-0.5
				l53.3-20.8c2.9-1.2,4.9-3.9,4.9-6.9s-1.9-5.8-4.8-6.9L96.3,8.3C95.4,8,94.4,7.8,93.4,7.8L93.4,7.8z"/>
		</g>
		<g id="XMLID_148_">
			<path id="XMLID_152_" class="st7" d="M113.8,125.3c-2.8,0-4.9-2.1-4.9-4.7v-11.7c0-5.4,4.6-9.9,10.3-9.9s10.3,4.4,10.3,9.9v11.8
				c-0.1,2.6-2.3,4.7-5,4.7L113.8,125.3L113.8,125.3z"/>
			<path id="XMLID_149_" class="st9" d="M119.1,101.7c4.1,0,7.4,3.2,7.4,7.1v11.7c-0.1,1.2-1,2-2.2,2h-10.6c-1.2,0-2.1-0.9-2.1-2
				v-11.7C111.7,104.9,115,101.7,119.1,101.7 M119.1,96.3c-7.2,0-13.1,5.7-13.1,12.6v11.7c0,4.1,3.5,7.5,7.8,7.5h10.6
				c4.2,0,7.7-3.2,7.9-7.3c0-0.1,0-0.2,0-0.2v-11.7C132.2,102,126.3,96.3,119.1,96.3L119.1,96.3z"/>
		</g>
		<g id="XMLID_143_">
			<path id="XMLID_147_" class="st8" d="M119.1,107.9c-6.1,0-10.9-4.7-10.9-10.5s4.9-10.5,10.9-10.5c6.1,0,10.9,4.7,10.9,10.5
				S125.1,107.9,119.1,107.9z"/>
			<path id="XMLID_144_" class="st9" d="M119.1,89.5c4.5,0,8.1,3.5,8.1,7.8c0,4.4-3.6,7.8-8.1,7.8s-8.1-3.5-8.1-7.8
				C110.9,93,114.6,89.5,119.1,89.5 M119.1,84.1c-7.6,0-13.8,5.9-13.8,13.2s6.2,13.2,13.8,13.2s13.8-5.9,13.8-13.2
				S126.7,84.1,119.1,84.1L119.1,84.1z"/>
		</g>
		<g id="XMLID_138_">
			<path id="XMLID_142_" class="st7" d="M27.2,131.2c-0.3,0-0.6,0-1,0c-11.4-0.5-20.2-9.8-19.7-20.7c0.5-10.6,9.6-19,20.6-19
				c0.3,0,0.6,0,1,0c11.4,0.5,20.2,9.8,19.7,20.7C47.2,122.9,38.2,131.2,27.2,131.2z"/>
			<path id="XMLID_139_" class="st9" d="M27.1,94.3c0.2,0,0.6,0,0.8,0c9.9,0.5,17.5,8.4,17,17.9c-0.4,9.2-8.3,16.3-17.8,16.3
				c-0.2,0-0.6,0-0.8,0c-9.9-0.5-17.5-8.4-17-17.9C9.8,101.5,17.6,94.3,27.1,94.3 M27.1,88.8L27.1,88.8c-12.5,0-22.9,9.5-23.5,21.5
				c-0.6,12.4,9.5,23,22.4,23.5c0.3,0,0.7,0,1.1,0c12.5,0,22.9-9.5,23.5-21.5c0.3-6-1.9-11.8-6.2-16.2c-4.2-4.4-10-7.1-16.3-7.3
				C27.8,88.9,27.5,88.8,27.1,88.8L27.1,88.8z"/>
		</g>
		<g id="XMLID_130_">
			<path id="XMLID_135_" class="st9" d="M32,123.2c-2.5,0-4.5-1.8-4.9-4c-0.3,2.3-2.4,4-4.9,4c-2.8,0-4.9-2.1-4.9-4.7
				c0-1.6,0.5-3.3,1.3-4.7c-0.9-1.4-1.3-3-1.3-4.7c0-5.2,4.4-9.4,9.8-9.4s9.8,4.2,9.8,9.4c0,1.7-0.5,3.3-1.3,4.7
				c0.9,1.4,1.3,3,1.3,4.7C37,121.1,34.8,123.2,32,123.2z M27.1,109L27.1,109L27.1,109L27.1,109L27.1,109z"/>
			<path id="XMLID_131_" class="st9" d="M27.2,102.3c3.8,0,7,3,7,6.7c0,1.8-0.7,3.5-2,4.7c1.3,1.2,2,2.9,2,4.7c0,1.2-0.9,2-2.1,2
				s-2.1-0.9-2.1-2c0-1.5-1.3-2.6-2.8-2.6s-2.8,1.2-2.8,2.6c0,1.2-0.9,2-2.1,2s-2.1-0.9-2.1-2c0-1.8,0.8-3.5,2-4.7
				c-1.3-1.2-2-2.9-2-4.7C20.1,105.4,23.3,102.3,27.2,102.3 M27.2,111.7c1.5,0,2.8-1.2,2.8-2.6c0-1.5-1.3-2.6-2.8-2.6
				s-2.8,1.2-2.8,2.6C24.3,110.6,25.6,111.7,27.2,111.7 M27.2,96.9c-7,0-12.6,5.4-12.6,12.1c0,1.6,0.3,3.3,1,4.7c-0.6,1.5-1,3-1,4.7
				c0,4.1,3.5,7.5,7.8,7.5c1.9,0,3.6-0.6,4.9-1.6c1.4,1,3.1,1.6,4.9,1.6c4.3,0,7.8-3.3,7.8-7.5c0-1.6-0.3-3.3-1-4.7
				c0.6-1.5,1-3,1-4.7C39.8,102.4,34.1,96.9,27.2,96.9L27.2,96.9z"/>
		</g>
		<g id="XMLID_116_">
			<g id="XMLID_125_">
				<path id="XMLID_129_" class="st10" d="M152.1,173.5c-1.1,0-2.3-0.1-3.3-0.2c-5.4-0.9-10.2-3.7-13.4-8c-3.2-4.3-4.5-9.6-3.6-14.8
					c1.6-9.6,10.2-16.6,20.4-16.6c1.1,0,2.3,0.1,3.3,0.2c5.4,0.9,10.2,3.7,13.4,8c3.2,4.3,4.5,9.6,3.6,14.8
					C170.8,166.5,162.2,173.5,152.1,173.5z"/>
				<path id="XMLID_126_" class="st9" d="M152,136.5c1,0,1.9,0.1,2.9,0.2c9.7,1.5,16.4,10.3,14.7,19.7c-1.5,8.4-9,14.4-17.6,14.4
					c-1,0-1.9-0.1-2.9-0.2c-9.7-1.5-16.4-10.3-14.7-19.7C135.9,142.5,143.4,136.5,152,136.5 M152,131.1L152,131.1
					c-11.6,0-21.3,8-23.2,19c-2.1,12.3,6.6,23.9,19.4,25.9c1.2,0.2,2.5,0.3,3.8,0.3c11.6,0,21.3-8,23.2-19
					c2.1-12.3-6.6-23.9-19.4-25.9C154.6,131.2,153.3,131.1,152,131.1L152,131.1z"/>
			</g>
			<g id="XMLID_117_">
				<path id="XMLID_122_" class="st9" d="M156.9,165.4c-2.5,0-4.5-1.8-4.9-4c-0.3,2.3-2.4,4-4.9,4c-2.8,0-4.9-2.1-4.9-4.7
					c0-1.6,0.5-3.3,1.3-4.7c-0.9-1.4-1.3-3-1.3-4.7c0-5.2,4.4-9.4,9.8-9.4s9.8,4.2,9.8,9.4c0,1.7-0.5,3.3-1.3,4.7
					c0.9,1.4,1.3,3,1.3,4.7C161.9,163.3,159.7,165.4,156.9,165.4z M152,151.3L152,151.3L152,151.3L152,151.3L152,151.3z"/>
				<path id="XMLID_118_" class="st9" d="M152,144.6c3.8,0,7,3,7,6.7c0,1.8-0.7,3.5-2,4.7c1.3,1.2,2,2.9,2,4.7c0,1.2-0.9,2-2.1,2
					s-2.1-0.9-2.1-2c0-1.5-1.3-2.6-2.8-2.6s-2.8,1.2-2.8,2.6c0,1.2-0.9,2-2.1,2s-2.1-0.9-2.1-2c0-1.8,0.8-3.5,2-4.7
					c-1.3-1.2-2-2.9-2-4.7C145,147.6,148.2,144.6,152,144.6 M152,154c1.5,0,2.8-1.2,2.8-2.6c0-1.4-1.3-2.6-2.8-2.6s-2.8,1.2-2.8,2.6
					C149.2,152.8,150.5,154,152,154 M152,139.2c-7,0-12.6,5.4-12.6,12.1c0,1.6,0.3,3.3,1,4.7c-0.6,1.5-1,3-1,4.7
					c0,4.1,3.5,7.5,7.8,7.5c1.9,0,3.6-0.6,4.9-1.6c1.4,1,3.1,1.6,4.9,1.6c4.3,0,7.8-3.3,7.8-7.5c0-1.6-0.3-3.3-1-4.7
					c0.6-1.5,1-3,1-4.7C164.7,144.6,159,139.2,152,139.2L152,139.2z"/>
			</g>
		</g>
		<g id="XMLID_111_">
			<path id="XMLID_115_" class="st11" d="M98.5,170.9c-11.4,0-20.6-8.9-20.6-19.8c0-10.9,9.3-19.8,20.6-19.8s20.6,8.9,20.6,19.8
				C119.1,161.9,109.8,170.9,98.5,170.9z"/>
			<path id="XMLID_112_" class="st9" d="M98.5,133.9c9.9,0,17.8,7.7,17.8,17.1c0,9.4-8,17.1-17.8,17.1c-9.9,0-17.8-7.7-17.8-17.1
				C80.7,141.6,88.6,133.9,98.5,133.9 M98.5,128.5c-13,0-23.5,10.1-23.5,22.5s10.5,22.5,23.5,22.5S122,163.4,122,151
				S111.4,128.5,98.5,128.5L98.5,128.5z"/>
		</g>
		<g id="XMLID_103_">
			<path id="XMLID_108_" class="st9" d="M103.3,162.8c-2.5,0-4.5-1.8-4.9-4c-0.3,2.3-2.4,4-4.9,4c-2.8,0-4.9-2.1-4.9-4.7
				c0-1.6,0.5-3.3,1.3-4.7c-0.9-1.4-1.3-3-1.3-4.7c0-5.2,4.4-9.4,9.8-9.4s9.8,4.2,9.8,9.4c0,1.7-0.5,3.3-1.3,4.7
				c0.9,1.4,1.3,3,1.3,4.7C108.3,160.7,106.1,162.8,103.3,162.8z M98.4,148.6L98.4,148.6L98.4,148.6l0.2,0.1v-0.1H98.4z"/>
			<path id="XMLID_104_" class="st9" d="M98.5,142c3.8,0,7,3,7,6.7c0,1.8-0.7,3.5-2,4.7c1.3,1.2,2,2.9,2,4.7c0,1.2-0.9,2-2.1,2
				s-2.1-0.9-2.1-2c0-1.5-1.3-2.6-2.8-2.6s-2.8,1.2-2.8,2.6c0,1.2-0.9,2-2.1,2s-2.1-0.9-2.1-2c0-1.8,0.8-3.5,2-4.7
				c-1.3-1.2-2-2.9-2-4.7C91.4,145,94.6,142,98.5,142 M98.5,151.3c1.5,0,2.8-1.2,2.8-2.6c0-1.5-1.3-2.6-2.8-2.6s-2.8,1.2-2.8,2.6
				C95.6,150.1,96.9,151.3,98.5,151.3 M98.5,136.5c-7,0-12.6,5.4-12.6,12.1c0,1.6,0.3,3.3,1,4.7c-0.6,1.5-1,3-1,4.7
				c0,4.1,3.5,7.5,7.8,7.5c1.9,0,3.6-0.6,4.9-1.6c1.4,1,3.1,1.6,4.9,1.6c4.3,0,7.8-3.3,7.8-7.5c0-1.6-0.3-3.3-1-4.7
				c0.6-1.5,1-3,1-4.7C111.1,142,105.4,136.5,98.5,136.5L98.5,136.5z"/>
		</g>
		<g id="XMLID_98_">
			<path id="XMLID_102_" class="st7" d="M160.1,115.2c-11.4,0-20.6-8.9-20.6-19.8s9.3-19.8,20.6-19.8s20.6,8.9,20.6,19.8
				C180.7,106.2,171.5,115.2,160.1,115.2z"/>
			<path id="XMLID_99_" class="st9" d="M160.1,78.2c9.9,0,17.8,7.7,17.8,17.1s-8,17.1-17.8,17.1c-9.9,0-17.8-7.7-17.8-17.1
				S150.2,78.2,160.1,78.2 M160.1,72.7c-13,0-23.5,10.1-23.5,22.5s10.5,22.5,23.5,22.5s23.5-10.1,23.5-22.5S173,72.7,160.1,72.7
				L160.1,72.7z"/>
		</g>
		<g id="XMLID_89_">
			<path id="XMLID_95_" class="st12" d="M98.5,172.9c-12.5,0-22.7-9.8-22.7-21.8s10.2-21.8,22.7-21.8s22.7,9.8,22.7,21.8
				S111,172.9,98.5,172.9z M98.5,138.6c-7.1,0-12.9,5.5-12.9,12.4s5.7,12.4,12.9,12.4s12.9-5.5,12.9-12.4S105.5,138.6,98.5,138.6z"
				/>
			<path id="XMLID_90_" class="st9" d="M98.5,131.9c11,0,19.9,8.5,19.9,19.1s-8.9,19.1-19.9,19.1s-19.9-8.5-19.9-19.1
				C78.5,140.4,87.5,131.9,98.5,131.9 M98.5,166.1c8.7,0,15.7-6.8,15.7-15.1c0-8.3-7-15.1-15.7-15.1s-15.7,6.8-15.7,15.1
				C82.7,159.3,89.8,166.1,98.5,166.1 M98.5,126.4c-14.1,0-25.6,11-25.6,24.6s11.5,24.6,25.6,24.6s25.6-11,25.6-24.6
				S112.6,126.4,98.5,126.4L98.5,126.4z M98.5,160.6c-5.5,0-10-4.4-10-9.6s4.5-9.6,10-9.6s10,4.4,10,9.6S104,160.6,98.5,160.6
				L98.5,160.6z"/>
		</g>
		<g id="XMLID_60_">
			<path id="XMLID_79_" class="st12" d="M93.4,198.3c-19.7,0-38.2-7.2-52.4-20.3c-13.4-12.4-21.5-28.9-23-46.6
				c-8.3-3.4-13.7-11.3-13.7-20c0-12,10.2-21.8,22.7-21.8c0.2,0,0.4,0,0.6,0c5.7-9.6,13.6-17.8,23.1-23.9v-9.1
				c0-2.6,2.2-4.7,4.9-4.7s4.9,2.1,4.9,4.7v12.8l32.7,12.8l20.8-8.1v-18l-18.1,7.1c-0.8,0.3-1.7,0.5-2.7,0.5s-1.9-0.2-2.7-0.5
				L37.3,42.4c-2.7-1.1-4.4-3.6-4.4-6.3c0-2.8,1.7-5.3,4.4-6.3L90.5,9c0.9-0.3,1.8-0.5,2.7-0.5s1.9,0.2,2.7,0.5l53,20.8
				c2.7,1.1,4.4,3.6,4.4,6.3c0,2.8-1.7,5.3-4.4,6.3l-13.3,5.2v23.5c0,2.8-1.7,5.3-4.4,6.3l-7.5,3v5.2c4.9,1.9,8.1,6.5,8.1,11.6
				c0,2.3-0.6,4.6-1.9,6.5c0.7,1.6,1.1,3.3,1.1,5.1v11.7c0,3.7-3.2,6.8-7,6.8h-10.6c-3.9,0-7-3-7-6.8v-11.7c0-1.8,0.4-3.5,1.2-5.1
				c-1.2-2-1.9-4.2-1.9-6.5c0-5.1,3.3-9.7,8.1-11.6v-1.5l-18.1,7.1c-0.8,0.3-1.7,0.5-2.7,0.5s-1.9-0.2-2.7-0.5L54.8,77.3
				c-0.9-0.4-1.7-0.9-2.3-1.6c-5.9,4.5-11.1,9.9-15.1,16.1c7.4,3.7,12.2,11.1,12.2,19.4c0,11.7-9.6,21.3-21.8,21.8
				c1.8,14.5,8.7,27.7,19.7,37.8c12.3,11.3,28.4,17.6,45.6,17.6c16.8,0,33.1-6.3,45.3-17.4c-5.9-4-9.4-10.6-9.4-17.7
				c0-12,10.2-21.8,22.7-21.8c2.3,0,4.5,0.3,6.7,0.9c0.3-2.4,0.4-4.8,0.4-7.1c0-2.9-0.2-5.8-0.6-8.5C146.4,116,137,106.5,137,95
				c0-4.5,1.5-8.9,4.2-12.6c-1.1-1.1-2.2-2.2-3.2-3.1c-2-1.9-2.1-4.8-0.2-6.8c1-0.9,2.3-1.5,3.6-1.5s2.5,0.5,3.4,1.3
				c1.3,1.2,2.6,2.4,3.8,3.7c3.4-1.9,7.3-2.9,11.3-2.9c12.5,0,22.7,9.8,22.7,21.8c0,9.1-5.9,17.2-14.6,20.4c0.5,3.3,0.7,6.6,0.7,9.9
				c0,4.1-0.4,8.3-1.1,12.4c4.4,4.1,6.9,9.7,6.9,15.6c0,12-10.2,21.8-22.7,21.8c-1.1,0-2.3-0.1-3.5-0.2
				C134.3,189.9,114.3,198.3,93.4,198.3z M152,141.3c-7.1,0-12.9,5.5-12.9,12.4s5.7,12.4,12.9,12.4s12.9-5.5,12.9-12.4
				S159.1,141.3,152,141.3z M27.2,99.1c-7.1,0-12.9,5.5-12.9,12.4c0,6.8,5.7,12.4,12.9,12.4s12.9-5.5,12.9-12.4
				C40,104.6,34.2,99.1,27.2,99.1z M116.6,110.9c0.6-0.5,1.4-0.9,2.2-1c-0.7,0-1.5-0.1-2.2-0.2V110.9z M120.4,109.8
				c0.4,0.1,0.7,0.2,1.1,0.2v-0.4C121.1,109.7,120.7,109.8,120.4,109.8z M160.1,82.9c-7.1,0-12.9,5.5-12.9,12.4s5.7,12.4,12.9,12.4
				s12.9-5.5,12.9-12.4S167.2,82.9,160.1,82.9z M119,94.3c-1.8,0-3.2,1.4-3.2,3s1.5,3,3.2,3s3.2-1.4,3.2-3S120.8,94.3,119,94.3z
				 M124.1,70.2l2-0.8v-18l-2,0.8V70.2z M93.4,54.1l12.2-4.7L85.8,41c-1.2-0.5-2.1-1.4-2.6-2.6s-0.5-2.5,0.1-3.7
				c0.7-1.7,2.5-2.9,4.5-2.9c0.7,0,1.4,0.2,2,0.4l28.6,12l20.8-8.2L93.5,18.1L47.8,36L93.4,54.1z"/>
			<path id="XMLID_61_" class="st9" d="M93.4,11.3c0.6,0,1.1,0.1,1.6,0.3l53.1,20.8c1.6,0.6,2.6,2.1,2.6,3.7s-1,3.2-2.6,3.7
				L133,45.7V71c0,1.6-1,3.2-2.6,3.7l-9.3,3.7v9.1c4.6,0.9,8.1,4.8,8.1,9.6c0,2.4-0.9,4.7-2.4,6.4c1.1,1.6,1.7,3.3,1.7,5.2v11.7
				c0,2.3-1.9,4-4.2,4h-10.6c-2.3,0-4.2-1.8-4.2-4v-11.7c0-1.9,0.6-3.7,1.7-5.2c-1.5-1.7-2.4-4-2.4-6.4c0-4.7,3.5-8.6,8.1-9.6v-7.4
				l-22,8.6c-0.5,0.2-1.1,0.3-1.6,0.3c-0.6,0-1.1-0.1-1.6-0.3L56.2,74.8c-1.4-0.5-2.3-1.7-2.6-3c-8.3,5.6-15.1,13-20.1,21.4
				c7.9,2.6,13.4,9.7,13.4,18.1c0,10.6-8.9,19.1-19.9,19.1c-0.7,0-1.4-0.1-2.1-0.2c1.2,16.2,8.6,31.3,20.9,42.7
				c12.8,11.9,29.7,18.3,47.5,18.3c18.9,0,36.9-7.5,49.9-20.7c-6.6-3.1-11.1-9.6-11.1-17.2c0-10.6,8.9-19.1,19.9-19.1
				c3.2,0,6.3,0.8,9,2.1c0.6-3.6,1-7.3,1-11c0-3.7-0.3-7.5-1-11.3c-0.3,0.1-0.6,0.1-0.8,0.1c-11,0-19.9-8.5-19.9-19.1
				c0-4.8,1.9-9.3,5-12.7c-1.5-1.7-3.2-3.4-5-5.1c-0.8-0.8-0.9-2.1-0.1-2.9c0.4-0.4,1-0.6,1.5-0.6s1.1,0.2,1.5,0.5
				c1.9,1.6,3.6,3.4,5.3,5.3c3.3-2.3,7.4-3.7,11.7-3.7c11,0,19.9,8.5,19.9,19.1c0,8.9-6.3,16.3-14.9,18.5c0.7,3.9,1.1,7.9,1.1,11.9
				c0,4.5-0.5,9-1.4,13.4c4.4,3.5,7.1,8.8,7.1,14.6c0,10.6-8.9,19.1-19.9,19.1c-1.5,0-3-0.2-4.5-0.5c-13.8,14.8-33.4,23.2-54.2,23.2
				c-18.9,0-36.8-6.9-50.4-19.5c-13.4-12.4-21.2-28.8-22.2-46.5c-7.9-2.6-13.5-9.7-13.5-18.1c0-10.6,8.9-19.1,19.9-19.1
				c0.7,0,1.5,0.1,2.3,0.2c5.7-10.3,14.1-19,24.3-25.3V56.2c0-1.2,0.9-2,2.1-2s2.1,0.9,2.1,2v14.7l35.5,13.9l23.6-9.2V51.8l-22,8.6
				c-0.5,0.2-1.1,0.3-1.6,0.3s-1.1-0.1-1.6-0.3L38.6,39.6C37,39,36,37.5,36,35.9s1-3.2,2.6-3.7l53.2-20.8
				C92.2,11.3,92.8,11.3,93.4,11.3 M93.4,57l19.5-7.6l-26-11c-1.1-0.5-1.5-1.6-1.1-2.6c0.3-0.8,1.1-1.2,1.9-1.2
				c0.3,0,0.6,0.1,0.8,0.2l29.7,12.5l28.3-11.1L93.2,15.4L40,36.2L93.4,57 M121.2,74.2l7.7-3V47.4l-7.7,3V74.2 M160.1,110.3
				c8.7,0,15.7-6.8,15.7-15.1s-7-15.1-15.7-15.1s-15.7,6.8-15.7,15.1C144.4,103.7,151.4,110.3,160.1,110.3 M119,103.1
				c3.3,0,6-2.6,6-5.8s-2.7-5.8-6-5.8s-6,2.6-6,5.8C113.1,100.5,115.7,103.1,119,103.1 M27.2,126.5c8.7,0,15.7-6.8,15.7-15.1
				s-7-15.1-15.7-15.1s-15.7,6.8-15.7,15.1C11.4,119.7,18.4,126.5,27.2,126.5 M119,107.2c-1.6,0-3.2-0.4-4.5-1
				c-0.5,0.8-0.8,1.7-0.8,2.7v11.7h3.9v-6.1c0-1.2,0.9-2,2.1-2s2.1,0.9,2.1,2v6.1h2.5l-0.1-11.7c0-0.9-0.2-1.9-0.8-2.7
				C122.2,106.8,120.7,107.2,119,107.2 M152,168.8c8.7,0,15.7-6.8,15.7-15.1c0-8.3-7-15.1-15.7-15.1s-15.7,6.8-15.7,15.1
				C136.3,162,143.3,168.8,152,168.8 M93.4,5.8c-1.3,0-2.5,0.2-3.7,0.7L36.5,27.3c-3.7,1.4-6.2,4.9-6.2,8.8c0,3.8,2.3,7.3,6.1,8.8
				c0,0,0,0,0.1,0l14.6,5.7c-1.9,1.4-3,3.5-3,5.9v7.7c-8.8,6-16.3,13.8-21.9,22.7C12.5,87.4,1.6,98.2,1.6,111.5
				c0,9.2,5.4,17.6,13.8,21.8C17.3,151,25.6,167.5,39,180c14.7,13.6,34,21.1,54.3,21.1c21.2,0,41.5-8.3,56.3-22.8
				c0.8,0.1,1.5,0.1,2.3,0.1c14.1,0,25.6-11,25.6-24.6c0-6.1-2.4-12-6.7-16.6c0.6-3.8,0.9-7.7,0.9-11.5c0-2.8-0.2-5.6-0.5-8.3
				c8.7-4,14.3-12.5,14.3-22.1c0-13.5-11.5-24.6-25.6-24.6c-3.7,0-7.4,0.8-10.7,2.3c-0.8-0.8-1.6-1.6-2.5-2.3c-1.5-1.3-3.3-2-5.3-2
				c-1.1,0-2,0.2-3,0.5V49.5l11.5-4.5c3.7-1.4,6.2-4.9,6.2-8.8c0-3.8-2.3-7.3-6.1-8.8c0,0,0,0-0.1,0l-53-20.8
				C95.9,6.1,94.7,5.8,93.4,5.8L93.4,5.8z M55.2,36.1l38.2-15l38.2,15l-13.3,5.2L90.9,29.7c-1-0.4-2-0.6-3.2-0.6
				c-3.1,0-5.9,1.8-7.1,4.5c-0.8,1.8-0.9,3.9-0.1,5.8c0.7,1.9,2.3,3.3,4.1,4.1l13.7,5.8l-4.9,1.9L55.2,36.1L55.2,36.1z M63.5,67.6
				v-11c0-0.3,0-0.7-0.1-1l26.1,10.3c1.1,0.5,2.4,0.7,3.7,0.7c1.4,0,2.6-0.2,3.7-0.7l14.2-5.5v12l-18,7L63.5,67.6L63.5,67.6z
				 M132.5,80c0.7-0.2,1.4-0.6,1.9-1c0.4,0.9,1,1.8,1.8,2.5c0,0,0,0,0.1,0.1c0.6,0.5,1.1,0.9,1.6,1.5c-2,3.3-3.2,7.1-3.4,11
				c-1-4.2-3.8-7.8-7.8-10v-1.7L132.5,80L132.5,80z M41.6,91.1c3.2-4.4,7-8.4,11.2-11.8c0.4,0.2,0.7,0.4,1.1,0.5H54l35.5,13.9
				c1.1,0.5,2.4,0.7,3.7,0.7s2.6-0.2,3.7-0.7l7.4-3c-0.9,1.9-1.5,4-1.5,6.3s0.6,4.6,1.6,6.7c-0.6,1.6-0.9,3.2-0.9,4.9v11.7
				c0,5.2,4.5,9.5,9.9,9.5H124c5.4,0,9.9-4.3,9.9-9.5v-11.7c0-1.7-0.3-3.3-0.9-4.9c0.7-1.6,1.3-3.2,1.5-4.9
				c1.7,10.5,10.3,18.7,21.1,20.4c0.2,2,0.3,4,0.3,6.1c0,1.2-0.1,2.5-0.2,3.8c-1.4-0.2-2.8-0.3-4.1-0.3c-14.1,0-25.6,11-25.6,24.6
				c0,6.8,2.9,13.2,7.9,17.8c-11.3,9.3-26,14.6-41,14.6c-16.4,0-31.8-6-43.6-16.9c-9.8-9-16.2-20.7-18.5-33.5
				c12.1-1.9,21.4-12,21.4-24.2C52.6,103.2,48.4,95.7,41.6,91.1L41.6,91.1z M160.1,104.9c-5.5,0-10-4.4-10-9.6s4.5-9.6,10-9.6
				s10,4.4,10,9.6S165.6,104.9,160.1,104.9L160.1,104.9z M119,97.7c-0.2,0-0.3-0.2-0.3-0.3s0.2-0.3,0.3-0.3s0.3,0.2,0.3,0.3
				S119.3,97.7,119,97.7L119,97.7z M27.2,121.1c-5.5,0-10-4.4-10-9.6c0-5.3,4.5-9.6,10-9.6s10,4.4,10,9.6
				C37.2,116.7,32.7,121.1,27.2,121.1L27.2,121.1z M152,163.3c-5.5,0-10-4.4-10-9.6c0-5.3,4.5-9.6,10-9.6s10,4.4,10,9.6
				C162.1,159,157.6,163.3,152,163.3L152,163.3z"/>
		</g>
		<g id="XMLID_52_">
			<path id="XMLID_57_" class="st9" d="M165,107.1c-2.5,0-4.5-1.8-4.9-4c-0.3,2.3-2.4,4-4.9,4c-2.8,0-4.9-2.1-4.9-4.7
				c0-1.6,0.5-3.3,1.3-4.7c-0.9-1.4-1.3-3-1.3-4.7c0-5.2,4.4-9.4,9.8-9.4s9.8,4.2,9.8,9.4c0,1.6-0.5,3.3-1.3,4.7
				c0.9,1.4,1.3,3,1.3,4.7C170,105,167.7,107.1,165,107.1z M160,92.9L160,92.9L160,92.9c0.1,0.1,0.1,0.1,0.2,0.1v-0.1H160z"/>
			<path id="XMLID_53_" class="st9" d="M160.1,86.3c3.8,0,7,3,7,6.7c0,1.8-0.8,3.5-2,4.7c1.3,1.2,2,2.9,2,4.7c0,1.2-0.9,2-2.1,2
				s-2.1-0.9-2.1-2c0-1.5-1.3-2.6-2.8-2.6s-2.8,1.2-2.8,2.6c0,1.2-0.9,2-2.1,2s-2.1-0.9-2.1-2c0-1.8,0.8-3.5,2-4.7
				c-1.3-1.2-2-2.9-2-4.7C153.1,89.3,156.3,86.3,160.1,86.3 M160.1,95.6c1.5,0,2.8-1.2,2.8-2.6c0-1.5-1.3-2.6-2.8-2.6
				s-2.8,1.2-2.8,2.6S158.5,95.6,160.1,95.6 M160.1,80.8c-7,0-12.6,5.4-12.6,12.1c0,1.6,0.3,3.3,1,4.7c-0.6,1.5-1,3-1,4.7
				c0,4.1,3.5,7.5,7.8,7.5c1.9,0,3.6-0.6,4.9-1.6c1.4,1,3.1,1.6,4.9,1.6c4.3,0,7.8-3.3,7.8-7.5c0-1.6-0.3-3.3-1-4.7
				c0.6-1.5,1-3,1-4.7C172.8,86.3,167.1,80.8,160.1,80.8L160.1,80.8z"/>
		</g>
	</g>
	<g id="XMLID_3_">
		<path id="XMLID_50_" class="st0" d="M177.9,106.2c0-9.4-7.9-17.1-17.8-17.1c-4.6,0-8.8,1.7-12,4.5c-12.3-14.4-30.7-23.9-51.4-24.8
			L147.4,49c1.7-0.7,1.7-3.1,0-3.7L94.1,24.5c-0.5-0.2-1.1-0.2-1.6,0L39.3,45.3c-1.7,0.7-1.7,3.1,0,3.7L90,68.9
			c-26,1.2-48.3,15.8-59.6,36.8c-1.1-0.2-2.3-0.3-3.4-0.3c-9.8,0-17.8,7.6-17.8,17.1c0,8,5.7,14.7,13.4,16.6
			c1.3,36.4,32.4,65.5,70.7,65.5c17.4,0,33.2-6,45.5-16c1.9,0.7,4,1.1,6.2,1.1c9.8,0,17.8-7.6,17.8-17.1c0-4-1.5-7.7-3.8-10.6
			c3.2-7.8,5-16.3,5-25.2c0-4.6-0.5-9.1-1.4-13.4C171.3,121.9,177.9,114.9,177.9,106.2L177.9,106.2z"/>
		<ellipse id="XMLID_49_" class="st1" cx="93.4" cy="125.7" rx="70.7" ry="67.8"/>
		<path id="XMLID_48_" class="st2" d="M164.1,125.7c0,29.2-19.3,54.2-46.2,63.7l-4.1-5.3l4.4-3.3l-1.8-3.6l-21.7,3.6l-14.9-3.2
			l-8.6-11.8l3.5-13.9l8.7-6.3V141l6.4-4.8l7-0.4l13.8-4.6l5.2-0.9v6.5l13.9,1.9l0.2-4.6h6.8l9.2-3.3v-9.9l-7.4,3.2l-3.7-6.3
			l-3.1,1.9l4.2,6.2l-3.5,2l-3.7-3.3l-1.9-5.9l-8.7-5.7l-2.2,2.3l9.2,7.8l-2.8,3.8l-4.2-4.6l-6-5.1l-6.4,4.4l-3.9,2.6l-3.5,7.8
			l-7.7,2.3l-1.6-0.9l-3-1.6l0.9-5.8l-0.9-3.3l1.5-3.3l8.9,1.1v-5.6l-2.7-2.6v-4.7h5.7l7.5-7.2v-4.2l-7.2-6.9l3.4-3.3v-6.5l5-4.8h10
			l4,3.8v-8.2l-4.4-5.1h-4l-8.4-6.6C138.6,64.2,164.1,92.1,164.1,125.7L164.1,125.7z"/>
		<ellipse id="XMLID_47_" class="st3" cx="98.5" cy="159" rx="17.8" ry="17.1"/>
		<path id="XMLID_46_" class="st4" d="M44.9,119.5c0,9.4-7.9,17.1-17.8,17.1c-1.2,0-2.4-0.2-3.6-0.4c-0.6-3.4-0.8-7-0.8-10.6
			c0-8.2,1.5-16,4.3-23.2h0.2C37,102.3,44.9,110,44.9,119.5z"/>
		<path id="XMLID_45_" class="st4" d="M131,68.2v11.1c0,0.8-0.5,1.6-1.3,1.9L94.2,95.1c-0.5,0.2-1.1,0.2-1.6,0L57.1,81.2
			c-0.8-0.3-1.3-1.1-1.3-1.9V68.2c10.9-6.6,23.8-10.4,37.6-10.4C107.1,57.8,120.1,61.6,131,68.2z"/>
		<g id="XMLID_41_">
			<path id="XMLID_44_" class="st3" d="M160.6,146.7c-3.8,11.1-10.4,21-19.2,28.8c-4.4-3.1-7.2-8.1-7.2-13.8
				c0-9.4,7.9-17.1,17.8-17.1C155.1,144.6,158.1,145.3,160.6,146.7L160.6,146.7z"/>
			<path id="XMLID_43_" class="st3" d="M163.8,120.1c-1.2,0.2-2.4,0.4-3.7,0.4c-9.8,0-17.8-7.6-17.8-17.1c0-6.7,4-12.5,9.9-15.3
				C158.6,97.3,162.8,108.2,163.8,120.1L163.8,120.1z"/>
			<path id="XMLID_42_" class="st3" d="M131,68.2v11.1c0,0.8-0.5,1.6-1.3,1.9l-27.1,10.6l-3.2-3l3.4-3.3V79l5-4.8h10l4,3.8v-7.5
				l-4.4-5.1h-4l-8.4-6.6C114.6,60.2,123.3,63.5,131,68.2z"/>
		</g>
		<path id="XMLID_40_" class="st2" d="M91.3,66.4l-5,5.1L83.9,78h-9.5l-13.6,9.3L58,83l9.9-11.1l-3.3-0.2l-4.3,3.7l-6.6,2.5l-4,5.1
			l2.4,4.3l-7.4,14.1l-4.4-4v-4.6l-10,8.6l-3,0.6c8-20.7,26.1-36.5,48.7-42.1l1.2,1.5l11.3,1.7L91.3,66.4z"/>
		<path id="XMLID_39_" class="st3" d="M88.2,63.1l3.1,3.3l-5,5.1L83.9,78h-9.5L65,84.5l-6.2-2.4l8.9-10l-3.3-0.2l-4.3,3.7l-4.5,1.7
			v-8.9c6.2-3.7,12.9-6.5,20.1-8.3l1.2,1.5L88.2,63.1z"/>
		<path id="XMLID_38_" class="st3" d="M105.2,121.2l-3.9,2.6l-3.5,7.8l-7.7,2.3l-1.5-0.9l1.9-9.1l-4.9-1.6l1.5-3.3l8.9,1.1
			L105.2,121.2z"/>
		<path id="XMLID_37_" class="st5" d="M131,39.9v31.3c0,0.8-0.5,1.6-1.3,1.9L94.2,87c-0.5,0.2-1.1,0.2-1.6,0L57.1,73.1
			c-0.8-0.3-1.3-1.1-1.3-1.9V39.9H131z"/>
		<path id="XMLID_36_" class="st6" d="M131,39.9v11L96.5,64.4c-1,0.4-2.1,0.6-3.2,0.6s-2.2-0.2-3.2-0.6L55.6,50.9v-11H131z"/>
		<path id="XMLID_35_" class="st5" d="M92.6,13.4L39.3,34.2c-1.7,0.7-1.7,3.1,0,3.7l53.3,20.8c0.5,0.2,1.1,0.2,1.6,0l53.3-20.8
			c1.7-0.7,1.7-3.1,0-3.7L94.2,13.4C93.6,13.2,93.1,13.2,92.6,13.4z"/>
		<path id="XMLID_34_" class="st7" d="M124.4,122.6h-10.6c-1.2,0-2.1-0.9-2.1-2v-11.7c0-4,3.3-7.1,7.4-7.1s7.4,3.2,7.4,7.1v11.7
			C126.5,121.7,125.5,122.6,124.4,122.6L124.4,122.6z"/>
		<ellipse id="XMLID_33_" class="st8" cx="119.1" cy="97.3" rx="8.1" ry="7.8"/>
		<ellipse id="XMLID_32_" class="st7" cx="27.1" cy="111.4" rx="17.8" ry="17.1"/>
		<path id="XMLID_29_" class="st9" d="M34.1,109.1c0-3.7-3.2-6.7-7-6.7c-3.9,0-7,3-7,6.7c0,1.8,0.7,3.5,2,4.7c-1.2,1.2-2,2.9-2,4.7
			c0,1.2,0.9,2,2.1,2s2.1-0.9,2.1-2c0-1.5,1.3-2.6,2.8-2.6s2.8,1.2,2.8,2.6c0,1.2,0.9,2,2.1,2s2.1-0.9,2.1-2c0-1.8-0.7-3.5-2-4.7
			C33.4,112.6,34.1,110.9,34.1,109.1z M27.2,106.4c1.5,0,2.8,1.2,2.8,2.6s-1.3,2.6-2.8,2.6s-2.8-1.2-2.8-2.6S25.5,106.4,27.2,106.4z
			"/>
		<g id="XMLID_24_">
			<ellipse id="XMLID_28_" class="st10" cx="152" cy="153.6" rx="17.8" ry="17.1"/>
			<path id="XMLID_25_" class="st9" d="M159,151.3c0-3.7-3.2-6.7-7-6.7s-7,3-7,6.7c0,1.8,0.7,3.5,2,4.7c-1.2,1.2-2,2.9-2,4.7
				c0,1.2,0.9,2,2.1,2s2.1-0.9,2.1-2c0-1.5,1.3-2.6,2.8-2.6s2.8,1.2,2.8,2.6c0,1.2,0.9,2,2.1,2s2.1-0.9,2.1-2c0-1.8-0.7-3.5-2-4.7
				C158.3,154.8,159,153.2,159,151.3z M152,148.7c1.5,0,2.8,1.2,2.8,2.6c0,1.4-1.3,2.6-2.8,2.6s-2.8-1.2-2.8-2.6
				C149.2,149.9,150.5,148.7,152,148.7z"/>
		</g>
		<ellipse id="XMLID_23_" class="st11" cx="98.5" cy="151" rx="17.8" ry="17.1"/>
		<path id="XMLID_20_" class="st9" d="M105.4,148.7c0-3.7-3.2-6.7-7-6.7s-7,3-7,6.7c0,1.8,0.7,3.5,2,4.7c-1.2,1.2-2,2.9-2,4.7
			c0,1.2,0.9,2,2.1,2s2.1-0.9,2.1-2c0-1.5,1.3-2.6,2.8-2.6s2.8,1.2,2.8,2.6c0,1.2,0.9,2,2.1,2s2.1-0.9,2.1-2c0-1.8-0.7-3.5-2-4.7
			C104.7,152.2,105.4,150.4,105.4,148.7z M98.5,145.9c1.5,0,2.8,1.2,2.8,2.6c0,1.5-1.3,2.6-2.8,2.6s-2.8-1.2-2.8-2.6
			C95.6,147.2,96.9,145.9,98.5,145.9z"/>
		<ellipse id="XMLID_19_" class="st7" cx="160.1" cy="95.3" rx="17.8" ry="17.1"/>
		<path id="XMLID_16_" class="st12" d="M98.5,131.9c-11,0-19.9,8.5-19.9,19.1s8.9,19.1,19.9,19.1s19.9-8.5,19.9-19.1
			S109.5,131.9,98.5,131.9z M98.5,166.1c-8.7,0-15.7-6.8-15.7-15.1c0-8.3,7-15.1,15.7-15.1s15.7,6.8,15.7,15.1
			C114.2,159.3,107.1,166.1,98.5,166.1z"/>
		<path id="XMLID_7_" class="st12" d="M180,95.3c0-10.6-8.9-19.1-19.9-19.1c-4.4,0-8.5,1.4-11.7,3.7c-1.6-1.8-3.4-3.6-5.3-5.3
			c-0.8-0.8-2.2-0.7-3,0.1s-0.7,2.1,0.1,2.9c1.8,1.6,3.5,3.3,5,5.1c-3.2,3.4-5,7.8-5,12.7c0,10.6,8.9,19.1,19.9,19.1
			c0.3,0,0.6,0,0.8-0.1c0.6,3.7,1,7.5,1,11.3c0,3.7-0.3,7.4-1,11c-2.7-1.3-5.7-2.1-9-2.1c-11,0-19.9,8.5-19.9,19.1
			c0,7.5,4.5,14.1,11.1,17.2c-13,13.1-30.9,20.7-49.9,20.7c-17.8,0-34.7-6.5-47.5-18.3C33.4,162,26,146.9,24.8,130.6
			c0.7,0.1,1.4,0.2,2.1,0.2c11,0,19.9-8.5,19.9-19.1c0-8.4-5.6-15.5-13.4-18.1c4.9-8.5,11.8-15.8,20.1-21.4c0.2,1.3,1.2,2.5,2.6,3
			l35.5,13.9c0.5,0.2,1.1,0.3,1.6,0.3c0.6,0,1.1-0.1,1.6-0.3l22-8.6v7.4c-4.6,0.9-8.1,4.9-8.1,9.6c0,2.4,0.9,4.6,2.4,6.4
			c-1.1,1.6-1.7,3.3-1.7,5.2v11.7c0,2.3,1.9,4,4.2,4h10.6c2.3,0,4.2-1.8,4.2-4v-11.7c0-1.9-0.6-3.7-1.7-5.2c1.5-1.7,2.4-4,2.4-6.4
			c0-4.7-3.5-8.6-8.1-9.6v-9.1l9.3-3.7c1.6-0.6,2.6-2.1,2.6-3.7V45.8l15.1-5.9c1.6-0.6,2.6-2.1,2.6-3.7s-1-3.1-2.6-3.7L94.9,11.7
			c-1-0.4-2.2-0.4-3.2,0L38.5,32.5c-1.6,0.6-2.6,2.1-2.6,3.7s1,3.1,2.6,3.7l53.3,20.8c0.5,0.2,1.1,0.3,1.6,0.3
			c0.6,0,1.1-0.1,1.6-0.3l22-8.6v23.8l-23.6,9.2L57.9,71.2V56.5c0-1.2-0.9-2-2.1-2s-2.1,0.9-2.1,2v10.6
			c-10.1,6.4-18.5,15.1-24.3,25.3c-0.7-0.1-1.5-0.2-2.3-0.2c-11,0-19.9,8.5-19.9,19.1c0,8.4,5.7,15.5,13.5,18.1
			c1,17.7,8.9,34.1,22.2,46.5c13.6,12.6,31.5,19.5,50.4,19.5c20.7,0,40.4-8.5,54.2-23.2c1.5,0.3,2.9,0.5,4.5,0.5
			c11,0,19.9-8.5,19.9-19.1c0-5.9-2.8-11.1-7.1-14.6c0.9-4.4,1.4-8.9,1.4-13.4c0-4-0.3-8-1.1-11.9C173.7,111.7,180,104.1,180,95.3
			L180,95.3z M124.4,120.6h-2.5v-6.1c0-1.2-0.9-2-2.1-2s-2.1,0.9-2.1,2v6.1h-3.9v-11.7c0-0.9,0.3-1.9,0.8-2.7c1.4,0.6,2.8,1,4.5,1
			s3.2-0.4,4.5-1c0.6,0.8,0.8,1.7,0.8,2.7V120.6L124.4,120.6z M125.1,97.3c0,3.2-2.7,5.8-6,5.8s-6-2.6-6-5.8s2.7-5.8,6-5.8
			S125.1,94.1,125.1,97.3z M93.4,57L40.1,36.1l53.3-20.8l53.3,20.8l-28.3,11.1L88.7,34.7c-1.1-0.5-2.3,0-2.8,1.1
			c-0.5,1,0,2.3,1.1,2.6l26,11L93.4,57z M121.2,50.4l7.7-3v23.8l-7.7,3V50.4L121.2,50.4z M11.4,111.4c0-8.3,7-15.1,15.7-15.1
			s15.7,6.8,15.7,15.1s-7,15.1-15.7,15.1S11.4,119.7,11.4,111.4z M167.8,153.7c0,8.3-7,15.1-15.7,15.1s-15.7-6.8-15.7-15.1
			c0-8.3,7-15.1,15.7-15.1C160.7,138.6,167.8,145.3,167.8,153.7z M160.1,110.3c-8.7,0-15.7-6.8-15.7-15.1s7-15.1,15.7-15.1
			s15.7,6.8,15.7,15.1S168.7,110.3,160.1,110.3z"/>
		<path id="XMLID_4_" class="st9" d="M167.1,92.9c0-3.7-3.2-6.7-7-6.7s-7,3-7,6.7c0,1.8,0.7,3.5,2,4.7c-1.2,1.2-2,2.9-2,4.7
			c0,1.2,0.9,2,2.1,2s2.1-0.9,2.1-2c0-1.5,1.3-2.6,2.8-2.6s2.8,1.2,2.8,2.6c0,1.2,0.9,2,2.1,2s2.1-0.9,2.1-2c0-1.8-0.7-3.5-2-4.7
			C166.3,96.4,167.1,94.7,167.1,92.9z M160.1,90.3c1.5,0,2.8,1.2,2.8,2.6c0,1.5-1.3,2.6-2.8,2.6s-2.8-1.2-2.8-2.6
			S158.5,90.3,160.1,90.3z"/>
	</g>
</g>
</svg>
