<?xml version="1.0" encoding="utf-8"?>
<!-- Generator: Adobe Illustrator 19.0.0, SVG Export Plug-In . SVG Version: 6.00 Build 0)  -->
<svg version="1.1" id="Layer_1" xmlns="http://www.w3.org/2000/svg" xmlns:xlink="http://www.w3.org/1999/xlink" x="0px" y="0px"
	 viewBox="0 0 218 236" style="enable-background:new 0 0 218 236;" xml:space="preserve">
<style type="text/css">
	.st0{opacity:0.1;enable-background:new    ;}
	.st1{fill:#1F3568;}
	.st2{fill:#FFFFFF;}
	.st3{fill:#B1D4F0;}
	.st4{fill:#689CD3;}
	.st5{fill:#3378BD;}
	.st6{fill:#11579C;}
	.st7{fill:#4E83C3;}
	.st8{fill:#1864A4;}
	.st9{opacity:0.1;fill:#1F3568;enable-background:new    ;}
</style>
<g id="XMLID_2_">
	<g id="XMLID_60_">
		<g id="XMLID_279_" class="st0">
			<path id="XMLID_283_" class="st1" d="M125.8,228.6c-4.2,0-7.5-3.3-7.5-7.5v-3.5H89.5v3.5c0,4.2-3.4,7.5-7.5,7.5h-7.2
				c-4.2,0-7.5-3.3-7.5-7.5v-3.5h-4.8c-2.7,0-5-1.3-6.5-3.6s-1.5-5.1-0.3-7.4l6.1-11.6h-8.5c-3.4,0-6.5-1.3-8.7-3.7
				c-2.3-2.3-3.5-5.5-3.4-8.8c0-0.1,0-0.1,0-0.2h-28c-2.2,0-4.2-0.9-5.6-2.5s-2.1-3.7-1.9-5.7C8,151,25.3,131.6,48,126.2
				c4.9-22.1,12.3-43,22.2-62.2H45c-4,0-7.2-3.2-7.2-7.2V25.1c0-4,3.3-7.2,7.2-7.2h39.3c4,0,7.2,3.2,7.2,7.2v5.5
				c1-1.2,1.9-2.4,2.9-3.5c2.3-2.7,5.7-4.4,9.4-4.4c3.6,0,7,1.6,9.4,4.4c9.8,11.7,23.7,31.6,35,60.6c0.6-0.2,1.3-0.2,1.9-0.2h36.1
				c4.2,0,7.5,3.3,7.5,7.5v35.8c0,4.2-3.4,7.5-7.5,7.5h-2.8c0.6,0.5,1.1,1,1.6,1.4c9.6,9.1,15.8,21.2,17.1,34.3
				c0.3,2.1-0.5,4.2-1.9,5.7c-1.4,1.6-3.4,2.4-5.4,2.4h-28.1v0.1c0.1,3.3-1.2,6.5-3.4,8.8c-2.3,2.3-5.4,3.7-8.7,3.7h-8.5l6.1,11.6
				c1.3,2.3,1.2,5.2-0.3,7.4c-1.4,2.2-3.8,3.7-6.5,3.7h-4.8v3.5c0,4.2-3.4,7.5-7.5,7.5h-7.2L125.8,228.6L125.8,228.6z"/>
			<path id="XMLID_280_" class="st2" d="M84.2,21c2.3,0,4.3,1.9,4.3,4.2v14.2c2.9-4.1,5.6-7.6,8-10.4c1.8-2.2,4.5-3.3,7.1-3.3
				s5.3,1.1,7.1,3.3c9.5,11.2,24.1,32.1,35.7,63c0.9-1,2.1-1.6,3.4-1.6h36.1c2.5,0,4.6,2.1,4.6,4.6v35.8c0,2.5-2.1,4.6-4.6,4.6
				h-11.7c3,1.9,6,4.1,8.6,6.5c8.9,8.3,14.8,19.7,16.2,32.5c0.3,2.7-1.8,5-4.4,5h-0.1h-31c0.1,1.1,0.1,2.1,0.1,3.2
				c0.2,5.2-4,9.5-9.3,9.5H141l2.9,5.5l5.4,10.3c1.6,3.1-0.7,6.7-4.1,6.7h-7.7v6.4c0,2.5-2.1,4.6-4.6,4.6h-7.2
				c-2.5,0-4.6-2.1-4.6-4.6v-6.4H86.4v6.4c0,2.5-2.1,4.6-4.6,4.6h-7.2c-2.5,0-4.6-2.1-4.6-4.6v-6.4h-7.7c-3.4,0-5.7-3.7-4.1-6.7
				l5.4-10.3l2.9-5.5H53.2c-5.2,0-9.4-4.2-9.3-9.5c0-1.1,0.1-2.1,0.1-3.2H13c-2.8,0-4.9-2.3-4.6-5c2.3-22.9,19.5-41.3,41.9-45.7
				c6-28,15.3-50.4,24.6-67.5h-30c-2.3,0-4.3-1.9-4.3-4.2V25.3c0-2.3,1.9-4.2,4.3-4.2L84.2,21 M84.2,15.1H44.9
				c-5.6,0-10.1,4.5-10.1,10.1v31.7c0,5.6,4.5,10.1,10.1,10.1h20.4c-8.7,17.6-15.3,36.7-20,56.9c-10.7,2.8-20.3,8.6-27.8,16.8
				c-8.6,9.2-13.7,20.7-14.9,33.1c-0.3,2.9,0.7,5.8,2.6,8c2,2.2,4.9,3.4,7.8,3.4h25.2c0.5,3,1.9,5.8,4.1,8.1
				c2.9,2.9,6.7,4.6,10.8,4.6h3.6l-3.9,7.3c-1.8,3.2-1.6,7.2,0.3,10.3c1.9,3.2,5.3,5,9,5h1.8v0.6c0,5.7,4.7,10.4,10.5,10.4h7.2
				c5.8,0,10.5-4.7,10.5-10.4v-0.6h23v0.6c0,5.7,4.7,10.4,10.5,10.4h7.2c5.8,0,10.5-4.7,10.5-10.4v-0.6h1.8c3.7,0,7-1.9,9-5.1
				c1.9-3.2,2-7,0.3-10.2l-3.9-7.3h3.6c4.1,0,8-1.6,10.8-4.6c2.2-2.2,3.6-5.1,4.1-8.1h25.2h0.1c2.9,0,5.7-1.2,7.6-3.4
				c2-2.2,2.9-5.1,2.6-8c-1.3-12.4-6.6-24.1-15.1-33.2c3.9-1.5,6.7-5.3,6.7-9.7V95.1c0-5.7-4.7-10.4-10.5-10.4h-36.1l0,0
				c-11.2-28.2-24.9-47.7-34.6-59.4c-2.9-3.4-7.1-5.4-11.7-5.4c-3.5,0-6.9,1.2-9.6,3.3C93.3,18.6,89.2,15.1,84.2,15.1L84.2,15.1z"/>
		</g>
		<g id="XMLID_274_">
			<path id="XMLID_278_" class="st3" d="M83,220.3c-4.2,0-7.5-3.3-7.5-7.5v-14.2c0-1.6,1.3-2.9,2.9-2.9h16.4c1.6,0,2.9,1.3,2.9,2.9
				v14.2c0,4.2-3.4,7.5-7.5,7.5H83z"/>
			<path id="XMLID_275_" class="st2" d="M94.8,198.5v14.2c0,2.5-2.1,4.6-4.6,4.6H83c-2.5,0-4.6-2.1-4.6-4.6v-14.2L94.8,198.5
				 M94.8,192.7H78.4c-3.3,0-5.9,2.6-5.9,5.8v14.2c0,5.7,4.7,10.4,10.5,10.4h7.2c5.8,0,10.5-4.7,10.5-10.4v-14.2
				C100.6,195.4,98,192.7,94.8,192.7L94.8,192.7z"/>
		</g>
		<g id="XMLID_269_">
			<path id="XMLID_273_" class="st4" d="M78.3,214.2c-1.6,0-2.9-1.3-2.9-2.9v-12.7c0-1.6,1.3-2.9,2.9-2.9h16.4
				c1.6,0,2.9,1.3,2.9,2.9v12.7c0,1.6-1.3,2.9-2.9,2.9H78.3L78.3,214.2z"/>
			<path id="XMLID_270_" class="st2" d="M94.8,198.5v12.7H78.4v-12.7H94.8 M94.8,192.7H78.4c-3.3,0-5.9,2.6-5.9,5.8v12.7
				c0,3.2,2.6,5.8,5.9,5.8h16.4c3.3,0,5.9-2.6,5.9-5.8v-12.7C100.6,195.4,98,192.7,94.8,192.7L94.8,192.7z"/>
		</g>
		<g id="XMLID_264_">
			<path id="XMLID_268_" class="st3" d="M134.1,220.3c-4.2,0-7.5-3.3-7.5-7.5v-14.2c0-1.6,1.3-2.9,2.9-2.9h16.4
				c1.6,0,2.9,1.3,2.9,2.9v14.2c0,4.2-3.4,7.5-7.5,7.5H134.1z"/>
			<path id="XMLID_265_" class="st2" d="M145.9,198.5v14.2c0,2.5-2.1,4.6-4.6,4.6h-7.2c-2.5,0-4.6-2.1-4.6-4.6v-14.2L145.9,198.5
				 M145.9,192.7h-16.4c-3.3,0-5.9,2.6-5.9,5.8v14.2c0,5.7,4.7,10.4,10.5,10.4h7.2c5.8,0,10.5-4.7,10.5-10.4v-14.2
				C151.8,195.4,149.2,192.7,145.9,192.7L145.9,192.7z"/>
		</g>
		<g id="XMLID_259_">
			<path id="XMLID_263_" class="st4" d="M129.5,214.2c-1.6,0-2.9-1.3-2.9-2.9v-12.7c0-1.6,1.3-2.9,2.9-2.9h16.4
				c1.6,0,2.9,1.3,2.9,2.9v12.7c0,1.6-1.3,2.9-2.9,2.9H129.5L129.5,214.2z"/>
			<path id="XMLID_260_" class="st2" d="M145.9,198.5v12.7h-16.4v-12.7H145.9 M145.9,192.7h-16.4c-3.3,0-5.9,2.6-5.9,5.8v12.7
				c0,3.2,2.6,5.8,5.9,5.8h16.4c3.3,0,5.9-2.6,5.9-5.8v-12.7C151.8,195.4,149.2,192.7,145.9,192.7L145.9,192.7z"/>
		</g>
		<g id="XMLID_254_">
			<path id="XMLID_258_" class="st3" d="M70.5,209.3c-2.7,0-5-1.3-6.5-3.6s-1.5-5.1-0.3-7.4l5.4-10.3l4.8-9.1c0.5-1,1.5-1.6,2.6-1.6
				h70.7c1.1,0,2.1,0.6,2.6,1.6l4.8,9.1l5.4,10.3c1.3,2.2,1.3,5.1-0.1,7.3c-1.3,2.3-3.8,3.7-6.5,3.7H70.5z"/>
			<path id="XMLID_255_" class="st2" d="M147.4,180.2l4.8,9.1l5.4,10.3c1.7,3.1-0.6,6.7-4,6.7H70.5c-3.4,0-5.7-3.7-4.1-6.7l5.4-10.3
				l4.8-9.1H147.4 M147.4,174.4H76.7c-2.2,0-4.2,1.2-5.2,3.1l-4.8,9.1l-5.4,10.3c-1.8,3.2-1.6,7.2,0.3,10.3s5.3,5,9,5h83.1
				c3.8,0,7.1-1.9,9.1-5.1c1.8-3.2,1.9-7,0.2-10.2l-5.4-10.3l-4.8-9.1C151.6,175.5,149.6,174.4,147.4,174.4L147.4,174.4z"/>
		</g>
		<g id="XMLID_249_">
			<path id="XMLID_253_" class="st4" d="M72,192.3c-1,0-2-0.5-2.5-1.4s-0.6-2-0.1-2.8l4.8-9.1c0.5-1,1.5-1.6,2.6-1.6h70.7
				c1.1,0,2.1,0.6,2.6,1.6l4.9,9.1c0.5,0.9,0.4,2-0.1,2.8c-0.5,0.9-1.5,1.4-2.5,1.4H72z"/>
			<path id="XMLID_250_" class="st2" d="M147.4,180.2l4.9,9.1H72l4.8-9.1H147.4 M147.4,174.4H76.7c-2.2,0-4.2,1.2-5.2,3.1l-4.8,9.1
				c-0.9,1.8-0.9,4,0.2,5.7s2.9,2.8,5,2.8h80.3c2.1,0,3.9-1.1,5-2.8s1.1-3.9,0.2-5.7l-4.9-9.1C151.5,175.6,149.6,174.4,147.4,174.4
				L147.4,174.4z"/>
		</g>
		<g id="XMLID_244_">
			<path id="XMLID_248_" class="st5" d="M155.4,174.1c-1.6,0-2.9-1.3-2.9-2.9v-51.7c0-1.6,1.3-2.9,2.9-2.9c14.2,0,27.7,5.3,37.9,15
				c9.6,9.1,15.8,21.2,17.1,34.3c0.2,2.2-0.5,4.2-2,5.7c-1.4,1.6-3.4,2.4-5.6,2.4L155.4,174.1L155.4,174.1z"/>
			<path id="XMLID_245_" class="st2" d="M155.4,119.5c13.9,0,26.6,5.4,35.9,14.2c8.9,8.3,14.8,19.7,16.2,32.5c0.3,2.7-1.9,5-4.6,5
				h-47.5L155.4,119.5 M155.4,113.7c-3.3,0-5.9,2.6-5.9,5.8v51.7c0,3.2,2.6,5.8,5.9,5.8h47.5c2.9,0,5.8-1.2,7.7-3.4
				c2-2.2,3-5.1,2.8-8l0,0c-1.4-13.7-7.8-26.6-17.9-36.1C184.6,119.4,170.3,113.7,155.4,113.7L155.4,113.7z"/>
		</g>
		<g id="XMLID_239_">
			<path id="XMLID_243_" class="st6" d="M158.4,136.7c-1.8,0-3.4-0.6-4.9-1.7c-0.7-0.6-1.1-1.4-1.1-2.2v-13.2c0-1.6,1.3-2.9,2.9-2.9
				c14.1,0,27.6,5.3,37.9,15c0.8,0.8,1.2,2.1,0.8,3.2c-0.4,1.1-1.5,1.8-2.8,1.8L158.4,136.7L158.4,136.7z"/>
			<path id="XMLID_240_" class="st2" d="M155.4,119.5c13.9,0,26.5,5.4,35.9,14.2h-33c-1.1,0-2.2-0.4-2.9-1.1V119.5 M155.4,113.7
				c-3.3,0-5.9,2.6-5.9,5.8v13.1c0,1.7,0.8,3.4,2.2,4.5c1.8,1.5,4.3,2.4,6.7,2.4h33c2.4,0,4.5-1.5,5.4-3.7s0.3-4.7-1.4-6.4
				C184.5,119.4,170.3,113.7,155.4,113.7L155.4,113.7z"/>
		</g>
		<g id="XMLID_234_">
			<path id="XMLID_238_" class="st5" d="M21.4,174.1c-2.2,0-4.3-1-5.7-2.6s-2.1-3.7-1.8-5.7c2.9-28.1,26.5-49.3,55-49.3
				c1.6,0,2.9,1.3,2.9,2.9v51.7c0,1.6-1.3,2.9-2.9,2.9L21.4,174.1L21.4,174.1z"/>
			<path id="XMLID_235_" class="st2" d="M68.8,119.5v51.7H21.3c-2.8-0.1-4.9-2.4-4.6-5.1C19.4,140,41.7,119.5,68.8,119.5
				 M68.8,113.7c-14.5,0-28.4,5.3-39.2,15c-10.6,9.6-17.4,22.7-18.8,36.9c-0.3,2.8,0.7,5.7,2.6,7.9c2,2.2,4.8,3.5,7.8,3.6h0.1h47.5
				c3.3,0,5.9-2.6,5.9-5.8v-51.7C74.7,116.4,72.1,113.7,68.8,113.7L68.8,113.7z"/>
		</g>
		<g id="XMLID_229_">
			<path id="XMLID_233_" class="st2" d="M61.6,186.7c-3.4,0-6.5-1.3-8.7-3.7c-2.3-2.3-3.5-5.5-3.4-8.8c1-36.7,8.1-70.8,21.1-101.6
				C81.4,47,94.1,29.2,102.8,18.8c2.3-2.7,5.8-4.3,9.4-4.3s7,1.6,9.4,4.3c8.7,10.4,21.3,28.1,32.2,53.8
				c13,30.7,20.1,64.9,21.1,101.6c0.1,3.3-1.2,6.5-3.4,8.8c-2.3,2.3-5.4,3.7-8.7,3.7H61.6z"/>
			<path id="XMLID_230_" class="st2" d="M112.1,17.5c2.7,0,5.3,1.1,7.2,3.3c16.8,20.1,50.2,70.3,52.7,153.6c0.2,5.2-4,9.5-9.3,9.5
				h-101c-5.2,0-9.4-4.2-9.3-9.5c2.3-83.3,35.9-133.5,52.7-153.6C106.9,18.6,109.5,17.5,112.1,17.5 M112.1,11.6
				c-4.5,0-8.8,2-11.7,5.4c-8.8,10.6-21.6,28.6-32.6,54.5c-13.2,31-20.3,65.6-21.4,102.6c-0.1,4.1,1.4,8,4.3,10.9s6.7,4.6,10.8,4.6
				h101c4.1,0,8-1.6,10.8-4.6c2.9-2.9,4.4-6.8,4.3-10.9c-1.1-37-8.3-71.6-21.4-102.6c-11-26-23.8-44-32.6-54.5l0,0
				C120.9,13.6,116.6,11.6,112.1,11.6L112.1,11.6z"/>
		</g>
		<g id="XMLID_224_">
			<path id="XMLID_228_" class="st3" d="M112.1,41.9c-6.8,0-13.2-2.3-18.4-6.7c-1.2-1-1.3-2.7-0.5-3.8c3.8-5.4,7.1-9.7,9.4-12.4
				c2.3-2.8,5.8-4.4,9.4-4.4s7,1.6,9.4,4.3c3.3,3.8,6.5,8.1,9.6,12.4c0.8,1.2,0.7,2.9-0.5,3.8C125.4,39.5,118.8,41.9,112.1,41.9z"/>
			<path id="XMLID_225_" class="st2" d="M112.1,17.5c2.6,0,5.3,1.1,7.1,3.3c2.8,3.2,6,7.3,9.4,12.2c-4.4,3.7-10.1,6.1-16.4,6.1
				s-12-2.3-16.4-6.1c3.4-4.9,6.5-8.9,9.3-12.2C106.8,18.6,109.5,17.5,112.1,17.5 M112.1,11.6c-4.5,0-8.7,2-11.7,5.4c0,0,0,0,0,0.1
				c-2.3,2.7-5.8,7.1-9.6,12.6c-1.7,2.5-1.3,5.8,1,7.7c5.7,4.8,12.9,7.5,20.3,7.5c7.5,0,14.7-2.7,20.3-7.5c2.3-1.9,2.7-5.2,1-7.7
				c-3.1-4.4-6.4-8.7-9.7-12.7C120.9,13.6,116.6,11.6,112.1,11.6L112.1,11.6z"/>
		</g>
		<g id="XMLID_219_">
			<path id="XMLID_223_" class="st7" d="M158.4,136.7c-4.2,0-7.5-3.3-7.5-7.5V93.4c0-3.2,2-6,5-7.1c0.3-0.1,0.7-0.2,1-0.2
				c0.4,0,0.8,0.1,1.3,0.2c0.7,0.3,1.3,0.9,1.5,1.7c5,14.6,8.8,29.7,11.4,45.2c0.2,0.8-0.1,1.7-0.7,2.3s-1.3,1-2.3,1L158.4,136.7
				L158.4,136.7z"/>
			<path id="XMLID_220_" class="st2" d="M156.8,89c4.5,13.2,8.6,28.1,11.2,44.8h-9.6c-2.5,0-4.6-2.1-4.6-4.6V93.4
				C153.7,91.3,155,89.6,156.8,89 M156.8,83.1c-0.7,0-1.3,0.1-2,0.3c-4.2,1.5-7,5.4-7,9.8V129c0,5.7,4.7,10.4,10.5,10.4h9.6
				c1.8,0,3.4-0.7,4.4-2.1c1.1-1.3,1.6-3,1.3-4.7c-2.6-15.6-6.5-31-11.5-45.7c-0.5-1.5-1.6-2.7-3-3.3
				C158.6,83.3,157.7,83.1,156.8,83.1L156.8,83.1z"/>
		</g>
		<g id="XMLID_214_">
			<path id="XMLID_218_" class="st7" d="M79.9,62.4c-1,0-1.9-0.5-2.5-1.4c-0.5-0.8-0.6-1.9-0.2-2.8c5.3-10.5,11.1-20.1,17.3-28.7
				c0.6-0.7,1.4-1.2,2.3-1.2c0.3,0,0.6,0.1,0.9,0.2c1.2,0.4,2,1.5,2,2.7v24c0,4-3.3,7.2-7.2,7.2L79.9,62.4L79.9,62.4L79.9,62.4z"/>
			<path id="XMLID_215_" class="st2" d="M97,31.2v24c0,2.4-1.9,4.2-4.3,4.2H80C85.7,47.9,91.6,38.5,97,31.2 M97,25.4
				c-1.8,0-3.6,0.9-4.8,2.4C85.9,36.5,80,46.3,74.7,56.9c-0.9,1.8-0.8,3.9,0.3,5.7c1.1,1.7,2.9,2.7,5,2.7h12.7
				c5.6,0,10.1-4.5,10.1-10.1v-24c0-2.5-1.7-4.7-4.1-5.6C98.1,25.5,97.5,25.4,97,25.4L97,25.4z"/>
		</g>
		<g id="XMLID_209_">
			<path id="XMLID_213_" class="st5" d="M99,186.5c-1.6,0-2.9-1.3-2.9-2.9v-43.9c0-2.9,2.3-5.2,5.3-5.2H123c2.9,0,5.3,2.3,5.3,5.2
				v43.9c0,1.6-1.3,2.9-2.9,2.9H99z"/>
			<path id="XMLID_210_" class="st2" d="M123,137.5c1.3,0,2.3,1,2.3,2.3v43.9H99.1v-43.9c0-1.2,1-2.3,2.3-2.3L123,137.5 M123,131.7
				h-21.6c-4.5,0-8.2,3.7-8.2,8.2v43.9c0,3.2,2.6,5.8,5.9,5.8h26.2c3.3,0,5.9-2.6,5.9-5.8v-43.9C131.2,135.3,127.5,131.7,123,131.7
				L123,131.7z"/>
		</g>
		<g id="XMLID_204_">
			<path id="XMLID_208_" class="st4" d="M158.4,130.2c-4.2,0-7.5-3.3-7.5-7.5V86.9c0-4.2,3.4-7.5,7.5-7.5h36.1
				c4.2,0,7.5,3.3,7.5,7.5v35.8c0,4.2-3.4,7.5-7.5,7.5H158.4z"/>
			<path id="XMLID_205_" class="st2" d="M194.5,82.2c2.5,0,4.6,2.1,4.6,4.6v35.8c0,2.5-2.1,4.6-4.6,4.6h-36.1
				c-2.5,0-4.6-2.1-4.6-4.6V86.8c0-2.5,2.1-4.6,4.6-4.6L194.5,82.2 M194.5,76.4h-36.1c-5.8,0-10.5,4.7-10.5,10.4v35.8
				c0,5.7,4.7,10.4,10.5,10.4h36.1c5.8,0,10.5-4.7,10.5-10.4V86.8C205,81.1,200.3,76.4,194.5,76.4L194.5,76.4z"/>
		</g>
		<g id="XMLID_199_">
			<path id="XMLID_203_" class="st5" d="M186.8,130.1c-1.6,0-2.9-1.3-2.9-2.9s1.3-2.9,2.9-2.9c0.9,0,1.7-0.7,1.7-1.7V86.8
				c0-0.9-0.8-1.7-1.7-1.7c-1.6,0-2.9-1.3-2.9-2.9s1.3-2.9,2.9-2.9h7.7c4.2,0,7.5,3.3,7.5,7.5v35.8c0,4.2-3.4,7.5-7.5,7.5
				L186.8,130.1L186.8,130.1z"/>
			<path id="XMLID_200_" class="st2" d="M194.5,82.2c2.5,0,4.6,2.1,4.6,4.6v35.8c0,2.5-2.1,4.6-4.6,4.6h-7.7c2.5,0,4.6-2.1,4.6-4.6
				V86.8c0-2.5-2.1-4.6-4.6-4.6L194.5,82.2 M194.5,76.3h-7.7c-3.3,0-5.9,2.6-5.9,5.8c0,2.8,2,5.2,4.6,5.7v33.6
				c-2.7,0.6-4.6,2.9-4.6,5.7c0,3.2,2.6,5.8,5.9,5.8h7.7c5.8,0,10.5-4.7,10.5-10.4V86.7C205,81,200.3,76.3,194.5,76.3L194.5,76.3z"
				/>
		</g>
		<g id="XMLID_194_">
			<path id="XMLID_198_" class="st3" d="M53.3,55.8c-4,0-7.2-3.2-7.2-7.2V16.9c0-4,3.3-7.2,7.2-7.2h39.3c4,0,7.2,3.2,7.2,7.2v31.7
				c0,4-3.3,7.2-7.2,7.2H53.3z"/>
			<path id="XMLID_195_" class="st2" d="M92.7,12.6c2.3,0,4.3,1.9,4.3,4.2v31.8c0,2.4-1.9,4.2-4.3,4.2H53.4c-2.4,0-4.3-1.9-4.3-4.2
				V16.9c0-2.4,1.9-4.2,4.3-4.2L92.7,12.6 M92.7,6.8H53.4c-5.6,0-10.1,4.5-10.1,10.1v31.7c0,5.6,4.5,10.1,10.1,10.1h39.3
				c5.6,0,10.1-4.5,10.1-10.1V16.9C102.8,11.4,98.2,6.8,92.7,6.8L92.7,6.8z"/>
		</g>
		<g id="XMLID_189_">
			<path id="XMLID_193_" class="st2" d="M60.3,29c-2.9,0-5.3-2.3-5.3-5.2c0-2.9,2.3-5.2,5.3-5.2H68c2.9,0,5.3,2.3,5.3,5.2
				S71,29,68,29H60.3z"/>
			<path id="XMLID_190_" class="st2" d="M68,21.6c1.3,0,2.3,1,2.3,2.3s-1,2.3-2.3,2.3h-7.7c-1.3,0-2.3-1-2.3-2.3
				c0-1.3,1-2.3,2.3-2.3L68,21.6 M68,15.7h-7.7c-4.5,0-8.2,3.7-8.2,8.2s3.7,8.2,8.2,8.2H68c4.5,0,8.2-3.7,8.2-8.2S72.6,15.7,68,15.7
				L68,15.7z"/>
		</g>
		<g id="XMLID_184_">
			<path id="XMLID_188_" class="st4" d="M85.1,55.8c-1.6,0-2.9-1.3-2.9-2.9s1.3-2.9,2.9-2.9c0.8,0,1.3-0.7,1.3-1.3V17
				c0-0.7-0.6-1.3-1.3-1.3c-1.6,0-2.9-1.3-2.9-2.9s1.3-2.9,2.9-2.9h7.6c4,0,7.2,3.2,7.2,7.2v31.7c0,4-3.3,7.2-7.2,7.2h-7.6V55.8z"/>
			<path id="XMLID_185_" class="st2" d="M92.7,12.6c2.3,0,4.3,1.9,4.3,4.2v31.8c0,2.4-1.9,4.2-4.3,4.2h-7.6c2.3,0,4.3-1.9,4.3-4.2
				V16.9c0-2.4-1.9-4.2-4.3-4.2L92.7,12.6 M92.7,6.8h-7.6c-3.3,0-5.9,2.6-5.9,5.8c0,2.7,1.8,4.9,4.3,5.6v29.1
				c-2.5,0.7-4.3,2.9-4.3,5.6c0,3.2,2.6,5.8,5.9,5.8h7.6c5.6,0,10.1-4.5,10.1-10.1V16.9C102.8,11.4,98.2,6.8,92.7,6.8L92.7,6.8z"/>
		</g>
		<g id="XMLID_179_">
			<path id="XMLID_183_" class="st5" d="M53.3,55.9c-4,0-7.2-3.2-7.2-7.2v-7.2c0-1.6,1.3-2.9,2.9-2.9h8.1c0.5,0,0.9-0.2,1.2-0.5
				l6.1-6.1c1.4-1.4,3.4-2.2,5.4-2.2h17.7c0.3,0,0.4-0.1,0.7-0.2c0.2-0.1,0.3-0.2,0.6-0.4l6-6.1c0.6-0.6,1.3-0.8,2.1-0.8
				c0.3,0,0.8,0.1,1.1,0.2c1.1,0.4,1.8,1.5,1.8,2.7v23.5c0,4-3.3,7.2-7.2,7.2C92.6,55.9,53.3,55.9,53.3,55.9z"/>
			<path id="XMLID_180_" class="st2" d="M97,25.3v23.5c0,2.4-1.9,4.2-4.3,4.2H53.4c-2.4,0-4.3-1.9-4.3-4.2v-7.2h8.1
				c1.2,0,2.4-0.5,3.3-1.3l6.1-6.1c0.9-0.8,2-1.3,3.3-1.3h17.7c0.7,0,1.3-0.2,1.8-0.3c0.6-0.2,1-0.6,1.5-1L97,25.3 M97,19.5
				c-1.5,0-3,0.6-4.2,1.7l-5.7,5.7H69.9c-2.9,0-5.4,1.1-7.5,3.1l-5.8,5.7H49c-3.3,0-5.9,2.6-5.9,5.8v7.2c0,5.6,4.5,10.1,10.1,10.1
				h39.3c5.6,0,10.1-4.5,10.1-10.1V25.2c0-2.3-1.4-4.5-3.6-5.4C98.5,19.6,97.7,19.5,97,19.5L97,19.5z"/>
		</g>
		<g id="XMLID_174_">
			<path id="XMLID_178_" class="st8" d="M85.1,55.9c-1.6,0-2.9-1.3-2.9-2.9s1.3-2.9,2.9-2.9c0.8,0,1.3-0.7,1.3-1.3V32.4
				c0-1.2,0.7-2.2,1.8-2.7c0.2-0.1,0.3-0.2,0.6-0.4l6-6.1c0.6-0.6,1.3-0.8,2.1-0.8c0.3,0,0.8,0.1,1.1,0.2c1.1,0.4,1.8,1.5,1.8,2.7
				v23.5c0,4-3.3,7.2-7.2,7.2L85.1,55.9L85.1,55.9L85.1,55.9z"/>
			<path id="XMLID_175_" class="st2" d="M97,25.3v23.5c0,2.4-1.9,4.2-4.3,4.2h-7.6c2.3,0,4.3-1.9,4.3-4.2V32.4c0.6-0.2,1-0.6,1.5-1
				L97,25.3 M97,19.5c-1.5,0-3,0.6-4.2,1.7l-5.9,5.9c-2.1,0.9-3.4,3-3.4,5.3v15.1c-2.5,0.7-4.3,2.9-4.3,5.7c0,3.2,2.6,5.8,5.9,5.8
				h7.6c5.6,0,10.1-4.5,10.1-10.1V25.4c0-2.3-1.4-4.5-3.6-5.4C98.5,19.6,97.7,19.5,97,19.5L97,19.5z"/>
		</g>
		<g id="XMLID_153_">
			<g id="XMLID_169_">
				<path id="XMLID_173_" class="st3" d="M125.3,178.9c-2.9,0-5.3-2.3-5.3-5.2v-30c0-2.9,2.3-5.2,5.3-5.2c2.9,0,5.3,2.3,5.3,5.2v30
					C130.5,176.5,128.1,178.9,125.3,178.9z"/>
				<path id="XMLID_170_" class="st2" d="M125.3,141.3c1.3,0,2.3,1,2.3,2.3v30c0,1.2-1,2.3-2.3,2.3s-2.3-1-2.3-2.3v-30
					C123,142.3,124,141.3,125.3,141.3 M125.3,135.5c-4.5,0-8.2,3.7-8.2,8.2v30c0,4.5,3.7,8.2,8.2,8.2s8.2-3.7,8.2-8.2v-30
					C133.4,139.2,129.7,135.5,125.3,135.5L125.3,135.5z"/>
			</g>
			<g id="XMLID_164_">
				<ellipse id="XMLID_168_" class="st3" cx="91.9" cy="155.7" rx="5.5" ry="5.5"/>
				<path id="XMLID_165_" class="st2" d="M91.9,153.1c1.4,0,2.6,1.2,2.6,2.6s-1.2,2.6-2.6,2.6c-1.4,0-2.6-1.2-2.6-2.6
					S90.5,153.1,91.9,153.1 M91.9,147.2c-4.7,0-8.5,3.7-8.5,8.4s3.8,8.4,8.5,8.4s8.5-3.7,8.5-8.4C100.4,151,96.5,147.2,91.9,147.2
					L91.9,147.2z"/>
			</g>
			<g id="XMLID_159_">
				<ellipse id="XMLID_163_" class="st3" cx="91.9" cy="147.8" rx="5.5" ry="5.5"/>
				<path id="XMLID_160_" class="st2" d="M91.9,145.2c1.4,0,2.6,1.2,2.6,2.6s-1.2,2.6-2.6,2.6c-1.4,0-2.6-1.2-2.6-2.6
					C89.3,146.4,90.5,145.2,91.9,145.2 M91.9,139.4c-4.7,0-8.5,3.7-8.5,8.4s3.8,8.4,8.5,8.4s8.5-3.7,8.5-8.4
					C100.4,143.2,96.5,139.4,91.9,139.4L91.9,139.4z"/>
			</g>
			<g id="XMLID_154_">
				<ellipse id="XMLID_158_" class="st3" cx="91.9" cy="140.1" rx="5.5" ry="5.5"/>
				<path id="XMLID_155_" class="st2" d="M91.9,137.5c1.4,0,2.6,1.2,2.6,2.6s-1.2,2.6-2.6,2.6c-1.4,0-2.6-1.2-2.6-2.6
					S90.5,137.5,91.9,137.5 M91.9,131.7c-4.7,0-8.5,3.7-8.5,8.4s3.8,8.4,8.5,8.4s8.5-3.7,8.5-8.4S96.5,131.7,91.9,131.7L91.9,131.7z
					"/>
			</g>
		</g>
		<g id="XMLID_148_">
			<path id="XMLID_152_" class="st4" d="M112.1,104c-13.2,0-23.8-10.7-23.8-23.6S99,56.8,112.1,56.8c13.2,0,23.8,10.7,23.8,23.6
				S125.2,104,112.1,104z"/>
			<path id="XMLID_149_" class="st2" d="M112.1,59.5c11.6,0,20.9,9.3,20.9,20.7s-9.4,20.7-20.9,20.7s-20.9-9.3-20.9-20.7
				S100.6,59.5,112.1,59.5 M112.1,53.7c-14.8,0-26.7,11.9-26.7,26.6s12,26.6,26.7,26.6c14.8,0,26.7-11.9,26.7-26.6
				S126.9,53.7,112.1,53.7L112.1,53.7z"/>
		</g>
		<g id="XMLID_143_">
			<path id="XMLID_147_" class="st3" d="M112.1,104c-8.3,0-16.2-4.4-20.5-11.6c-0.7-1.2-0.5-2.6,0.4-3.5c0.6-0.6,1.3-0.9,2.1-0.9
				c0.5,0,1,0.1,1.4,0.3c2.6,1.4,5.6,2.2,8.6,2.2c9.9,0,17.9-8,17.9-17.8c0-3.2-0.8-6.4-2.5-9.2c-0.7-1.2-0.5-2.6,0.4-3.5
				c0.6-0.6,1.3-0.9,2.1-0.9c0.5,0,0.9,0.1,1.4,0.3c7.7,4.2,12.5,12.2,12.5,20.8C135.9,93.3,125.3,104,112.1,104z"/>
			<path id="XMLID_144_" class="st2" d="M122.1,62c6.5,3.6,10.9,10.4,10.9,18.2c0,11.5-9.4,20.7-21,20.7c-7.6,0-14.3-4.1-17.9-10.2
				c2.9,1.6,6.4,2.5,10,2.5c11.6,0,20.9-9.3,20.9-20.7C125,68.7,124,65.2,122.1,62 M122.1,56.2c-1.6,0-3.1,0.6-4.2,1.7
				c-1.8,1.9-2.2,4.7-0.8,7c1.3,2.3,2.1,5,2.1,7.7c0,8.2-6.7,14.9-15,14.9c-2.5,0-5-0.7-7.2-1.8c-0.9-0.5-1.8-0.7-2.9-0.7
				c-1.6,0-3.1,0.6-4.2,1.7c-1.8,1.9-2.2,4.7-0.8,7c4.9,8,13.7,13,23,13c14.8,0,26.8-11.9,26.8-26.6c0-9.7-5.4-18.7-14-23.4
				C124,56.4,123,56.2,122.1,56.2L122.1,56.2z"/>
		</g>
		<g id="XMLID_138_">
			<path id="XMLID_142_" class="st3" d="M180.6,163.4c-2.9,0-5.3-2.3-5.3-5.2s2.3-5.2,5.3-5.2H194c2.9,0,5.3,2.3,5.3,5.2
				s-2.3,5.2-5.3,5.2H180.6z"/>
			<path id="XMLID_139_" class="st2" d="M194.1,155.9c1.3,0,2.3,1,2.3,2.3s-1,2.3-2.3,2.3h-13.4c-1.3,0-2.3-1-2.3-2.3s1-2.3,2.3-2.3
				H194.1 M194.1,150.1h-13.4c-4.5,0-8.2,3.7-8.2,8.2s3.7,8.2,8.2,8.2h13.4c4.5,0,8.2-3.7,8.2-8.2
				C202.3,153.7,198.6,150.1,194.1,150.1L194.1,150.1z"/>
		</g>
		<g id="XMLID_133_">
			<path id="XMLID_137_" class="st3" d="M30.1,163.4c-2.9,0-5.3-2.3-5.3-5.2s2.3-5.2,5.3-5.2h13.4c2.9,0,5.3,2.3,5.3,5.2
				s-2.3,5.2-5.3,5.2H30.1z"/>
			<path id="XMLID_134_" class="st2" d="M43.6,155.9c1.3,0,2.3,1,2.3,2.3s-1.1,2.3-2.3,2.3H30.2c-1.3,0-2.3-1-2.3-2.3s1-2.3,2.3-2.3
				H43.6 M43.6,150.1H30.2c-4.5,0-8.2,3.7-8.2,8.2s3.7,8.2,8.2,8.2h13.4c4.5,0,8.2-3.7,8.2-8.2C51.8,153.7,48.1,150.1,43.6,150.1
				L43.6,150.1z"/>
		</g>
		<g id="XMLID_127_">
			<path id="XMLID_132_" class="st2" d="M168.5,105.7c-4.9,0-9-4-9-8.9s4-8.9,9-8.9s9,4,9,8.9S173.4,105.7,168.5,105.7z"/>
			<path id="XMLID_128_" class="st2" d="M168.5,90.8c3.4,0,6,2.7,6,6s-2.7,6-6,6s-6-2.7-6-6C162.4,93.5,165.1,90.8,168.5,90.8
				 M168.5,98.1c0.8,0,1.4-0.7,1.4-1.4s-0.7-1.4-1.4-1.4c-0.8,0-1.4,0.7-1.4,1.4C167.1,97.6,167.7,98.1,168.5,98.1 M168.5,85
				c-6.5,0-11.9,5.3-11.9,11.8s5.4,11.8,11.9,11.8s11.9-5.3,11.9-11.8S175,85,168.5,85L168.5,85z"/>
		</g>
		<g id="XMLID_121_">
			<path id="XMLID_126_" class="st2" d="M184.4,121.5c-4.9,0-9-4-9-8.9s4-8.9,9-8.9c4.9,0,9,4,9,8.9S189.4,121.5,184.4,121.5z"/>
			<path id="XMLID_122_" class="st2" d="M184.4,106.6c3.4,0,6,2.7,6,6c0,3.2-2.7,6-6,6s-6-2.7-6-6S181.1,106.6,184.4,106.6
				 M184.4,113.9c0.8,0,1.4-0.7,1.4-1.4s-0.6-1.4-1.4-1.4s-1.4,0.7-1.4,1.4C183,113.4,183.7,113.9,184.4,113.9 M184.4,100.8
				c-6.5,0-11.9,5.3-11.9,11.8s5.4,11.8,11.9,11.8s11.9-5.3,11.9-11.8S190.9,100.8,184.4,100.8L184.4,100.8z"/>
		</g>
		<g id="XMLID_116_">
			<path id="XMLID_120_" class="st2" d="M169.9,116.4c-1.4,0-2.8-0.6-3.8-1.6c-2-2.1-2-5.2,0.1-7.3l13.2-13.1c1-1,2.3-1.6,3.7-1.6
				s2.7,0.6,3.7,1.6c2.1,2.1,2.1,5.3,0,7.4l-13.2,13.1l-0.1,0.1C172.5,115.9,171.2,116.4,169.9,116.4z"/>
			<path id="XMLID_117_" class="st2" d="M183.1,95.8c0.6,0,1.2,0.2,1.7,0.7c0.9,0.9,0.9,2.3,0,3.2l-13.2,13.1
				c-0.5,0.5-1.1,0.7-1.7,0.7s-1.2-0.2-1.6-0.7c-0.9-0.9-0.9-2.3,0-3.2l13.2-13.1C181.9,96.1,182.5,95.8,183.1,95.8 M183.1,90
				c-2.2,0-4.3,0.8-5.8,2.4l-13.2,13.1c-1.6,1.6-2.4,3.6-2.4,5.7s0.8,4.1,2.3,5.7s3.6,2.5,5.9,2.5c2,0,4-0.7,5.6-2.2
				c0.1-0.1,0.2-0.2,0.2-0.2l13.2-13.1c3.2-3.2,3.2-8.3,0-11.5C187.3,90.8,185.2,90,183.1,90L183.1,90z"/>
		</g>
		<g id="XMLID_110_">
			<path id="XMLID_115_" class="st3" d="M105.8,131.3c-4.6,0-8.4-3.7-8.4-8.3v-7.6c0-4.6,3.8-8.3,8.4-8.3h2.4c4.6,0,8.4,3.7,8.4,8.3
				v7.6c0,4.6-3.8,8.3-8.4,8.3H105.8z"/>
			<path id="XMLID_111_" class="st2" d="M108.3,110c3,0,5.4,2.4,5.4,5.4v7.6c0,3-2.4,5.4-5.4,5.4h-2.4c-3,0-5.4-2.4-5.4-5.4v-7.6
				c0-3,2.4-5.4,5.4-5.4H108.3 M105.8,123.9h2.4c0.5,0,0.8-0.3,0.8-0.8v-7.6c0-0.5-0.3-0.8-0.8-0.8h-2.4c-0.5,0-0.8,0.3-0.8,0.8v7.6
				C105,123.4,105.3,123.9,105.8,123.9 M108.3,104.1h-2.4c-6.3,0-11.3,5.1-11.3,11.2v7.6c0,6.2,5.1,11.2,11.3,11.2h2.4
				c6.3,0,11.3-5.1,11.3-11.2v-7.6C119.6,109.2,114.5,104.1,108.3,104.1L108.3,104.1z"/>
		</g>
		<g id="XMLID_105_">
			<path id="XMLID_109_" class="st3" d="M121.6,131.3c-2.9,0-5.3-2.3-5.3-5.2v-9.4c-1.5-0.9-2.5-2.6-2.5-4.4c0-2.9,2.3-5.2,5.3-5.2
				h2.5c2.9,0,5.3,2.3,5.3,5.2v13.8C126.9,129,124.5,131.3,121.6,131.3z"/>
			<path id="XMLID_106_" class="st2" d="M121.6,110c1.3,0,2.3,1,2.3,2.3v13.8c0,1.2-1,2.3-2.3,2.3s-2.3-1-2.3-2.3v-11.6h-0.2
				c-1.3,0-2.3-1-2.3-2.3s1-2.3,2.3-2.3L121.6,110 M121.6,104.1h-2.5c-4.5,0-8.2,3.7-8.2,8.2c0,2.3,0.9,4.3,2.5,5.8v8
				c0,4.5,3.7,8.2,8.2,8.2s8.2-3.7,8.2-8.2v-13.8C129.8,107.8,126.1,104.1,121.6,104.1L121.6,104.1z"/>
		</g>
		<g id="XMLID_75_">
			<path id="XMLID_95_" class="st1" d="M134.1,222.6c-5.4,0-9.9-4.4-9.9-9.8v-1.2H100v1.2c0,5.4-4.4,9.8-9.9,9.8h-7.2
				c-5.4,0-9.9-4.4-9.9-9.8v-1.2h-2.5c-3.5,0-6.6-1.7-8.5-4.7c-1.8-3-1.9-6.6-0.3-9.7l4.4-8.2h-4.6c-3.9,0-7.7-1.6-10.4-4.4
				c-2.3-2.2-3.6-5.2-4-8.2H21.2c-2.9,0-5.5-1.2-7.4-3.3c-1.8-2-2.8-4.7-2.5-7.5c1.3-12.2,6.3-23.5,14.6-32.6
				c7.6-8.2,17.3-14.1,28.1-16.9c1.1-4.7,2.3-9.4,3.5-14c4.3-15.3,10-30.1,16.9-44H53c-5.3,0-9.6-4.2-9.6-9.5V16.9
				c0-5.2,4.3-9.5,9.6-9.5h39.3c5,0,9.1,3.9,9.6,8.8c2.7-2.5,6.3-3.9,10-3.9c4.4,0,8.4,1.9,11.2,5.2c9.6,11.5,23.4,31.1,34.6,59.5
				c0.2,0,0.3,0,0.5,0h36.1c5.4,0,9.9,4.4,9.9,9.8v35.8c0,4.5-3.1,8.3-7.2,9.5c8.8,9.2,14.3,20.8,15.6,33.5c0.3,2.7-0.7,5.5-2.5,7.5
				s-4.5,3.2-7.3,3.2H177c-0.4,3.1-1.8,6-4,8.2c-2.7,2.8-6.4,4.3-10.4,4.3H158l4.4,8.2c1.6,3,1.5,6.7-0.3,9.7s-4.9,4.7-8.5,4.7h-2.5
				v1.2c0,5.4-4.4,9.8-9.9,9.8h-7L134.1,222.6L134.1,222.6z M140.6,212.2v-0.5h-6v0.5H140.6z M89.5,212.2v-0.5h-6v0.5H89.5z
				 M152.6,201.2l-6.5-12.2H96.5c-2.9,0-5.3-2.3-5.3-5.2s2.3-5.2,5.3-5.2h66.2c1.1,0,2.1-0.4,2.9-1.2c0.8-0.7,1.2-1.8,1.2-2.9
				c-0.4-14.2-1.8-28.3-4.1-42h-4.2c-5.4,0-9.9-4.4-9.9-9.8v-9.5c0-2.9,2.3-5.2,5.3-5.2s5.3,2.3,5.3,5.2v9h34.9V87.6h-35v12.7
				c0,2.9-2.3,5.2-5.3,5.2s-5.3-2.3-5.3-5.2V86.9c0-1.2,0.3-2.3,0.7-3.5c-6-15.5-13.3-30-22-43c-4.6,2.6-9.7,4-15.1,4
				c-3.4,0-6.8-0.6-10-1.7v6.2c0,1.6-0.4,3.2-1.2,4.5c-1.7,3.1-4.9,5-8.4,5h-6.1c-7.6,14.5-13.8,30.2-18.5,46.8
				c-6.1,21.8-9.6,45.2-10.3,69.4c-0.1,1.1,0.3,2.1,1.1,2.9c0.8,0.8,1.8,1.2,2.9,1.2h21.9c2.9,0,5.3,2.3,5.3,5.2s-2.3,5.2-5.3,5.2
				h-5.4l-6.5,12.2L152.6,201.2L152.6,201.2z M202.2,166.1c-1.6-13.7-9.1-25.9-20.9-33.6h-8c1.8,10.8,3,22.1,3.6,33.6H202.2z
				 M51.9,127.9c-6.8,2.6-12.9,6.7-17.9,12.2c-6.6,7.3-10.7,16.2-11.9,26h25.3C48.2,152.9,49.7,140.1,51.9,127.9z M91.7,47.8V37.1
				c-0.1,0-0.2,0.1-0.3,0.1c-1.3,0.5-2.6,0.8-3.9,0.8H70.1l-6,6c-1.8,1.8-4.4,2.9-7,2.9h-2.9v1L91.7,47.8L91.7,47.8z M56.8,36.3l6-6
				c1.8-1.8,4.4-2.9,7-2.9h17.4l4.4-4.3v-5.2H54.2v18.4L56.8,36.3L56.8,36.3z M103.1,31.6c2.8,1.4,5.9,2.2,9.1,2.2s6.3-0.7,9.1-2.2
				c-1.9-2.6-3.9-5.1-6-7.5c-0.8-0.9-1.9-1.4-3.1-1.4c-1.3,0-2.3,0.5-3.1,1.4C107.2,26.3,105.3,28.8,103.1,31.6z"/>
			<path id="XMLID_76_" class="st2" d="M92.6,10.3c3.7,0,6.6,2.9,6.6,6.6v7.3c1.3-1.7,2.6-3.3,3.9-4.9c2.3-2.6,5.4-4.2,9-4.2
				c3.4,0,6.7,1.5,9,4.2c9.8,11.7,23.7,31.7,35,60.9c0.8-0.2,1.5-0.4,2.3-0.4h36.1c3.9,0,7,3.1,7,6.9v35.8c0,3.8-3.1,6.9-7,6.9h-4.4
				c11.2,9.1,18.3,22,19.7,36.5c0.2,1.9-0.4,3.8-1.8,5.2c-1.3,1.5-3.3,2.3-5.2,2.3h-28.6c0.1,0.2,0.1,0.5,0.1,0.7
				c0.1,3.2-1.1,6.1-3.3,8.4c-2.2,2.2-5.1,3.5-8.3,3.5h-9.6l6.6,12.5c1.2,2.1,1.1,4.7-0.2,6.7c-1.3,2.1-3.4,3.3-6,3.3h-5.4v4.1
				c0,3.8-3.1,6.9-7,6.9h-7.2c-3.9,0-7-3.1-7-6.9v-4.1H96.8v4.1c0,3.8-3.1,6.9-7,6.9h-7.2c-3.9,0-7-3.1-7-6.9v-4.1h-5.4
				c-2.4,0-4.7-1.2-6-3.3s-1.3-4.6-0.2-6.7l6.6-12.5h-9.5c-3.2,0-6.1-1.2-8.3-3.5c-2.3-2.2-3.4-5.2-3.3-8.4c0.1-0.2,0.1-0.5,0.1-0.7
				H21.2c-2,0-3.9-0.8-5.2-2.3c-1.3-1.4-1.9-3.3-1.8-5.3c1.2-11.6,6-22.2,13.8-30.9c7.6-8.3,17.4-14,28.4-16.5
				c1.2-5.3,2.4-10.5,3.9-15.6C65,85.9,71.4,69.9,79.1,55.1H52.9c-3.7,0-6.6-2.9-6.6-6.6v-7.2V16.7c0-3.7,2.9-6.6,6.6-6.6h39.7
				 M51.3,39.2h5.9c0.6,0,1.2-0.2,1.6-0.7l6.1-6.1c1.3-1.2,3-2,4.9-2h17.7c0.3,0,0.7-0.1,0.9-0.2c0.3-0.1,0.5-0.2,0.7-0.5l5.4-5.4
				V17c0-1.1-0.8-2-2-2H53.2c-1.1,0-2,0.9-2,2L51.3,39.2 M112.1,36.7c4.8,0,9.5-1.5,13.3-4.2c-2.9-3.9-5.5-7.3-7.9-10.2
				c-1.3-1.6-3.3-2.5-5.4-2.5s-4,0.8-5.4,2.5c-2.5,3-5,6.3-7.5,9.7v0.8C103.1,35.3,107.5,36.7,112.1,36.7 M53.3,50.7h39.3
				c0.8,0,1.5-0.5,1.8-1.2c0.1-0.2,0.2-0.5,0.2-0.7l0.1-17.9l-2.2,2.2c-0.6,0.6-1.3,1.1-2.2,1.5c-0.8,0.3-1.8,0.6-2.8,0.6H69.8
				c-0.7,0-1.2,0.2-1.7,0.7L62,42c-1.3,1.2-3,2-4.9,2h-5.9v4.9C51.3,49.9,52.2,50.7,53.3,50.7 M112.1,41.4c-4.5,0-9-1.1-12.9-3.2
				v10.6c0,1.1-0.3,2.2-0.8,3.2c-1.1,2.1-3.4,3.4-5.9,3.4h-7.9C76.5,70.5,69.9,86.9,65,104.3c-6.2,22-9.7,45.6-10.4,70.2
				c-0.1,1.9,0.6,3.7,1.9,5s3.1,2.1,5,2.1h21.9c1.3,0,2.3,1,2.3,2.3s-1,2.3-2.3,2.3h-7.2l-7.8,14.7c-0.6,1-0.2,1.9,0.1,2.2
				c0.3,0.3,0.8,1.1,2,1.1h83.1c1.2,0,1.8-0.7,2-1.1c0.2-0.3,0.6-1.2,0.1-2.2l-7.8-14.7H96.5c-1.3,0-2.3-1-2.3-2.3s1-2.3,2.3-2.3
				h66.2c1.9,0,3.7-0.7,5-2.1c1.3-1.4,2-3.2,2-5c-0.4-15.4-2-30.5-4.6-44.9h-6.6c-3.9,0-7-3.1-7-6.9V113c0-1.2,1-2.3,2.3-2.3
				s2.3,1,2.3,2.3v9.6c0,1.2,1,2.3,2.3,2.3h36.1c1.3,0,2.3-1,2.3-2.3V86.8c0-1.2-1-2.3-2.3-2.3h-36.1c-1.3,0-2.3,1-2.3,2.3v13.4
				c0,1.2-1,2.3-2.3,2.3s-2.3-1-2.3-2.3V86.8c0-1.2,0.3-2.3,0.8-3.3C144.8,63.6,136,48,128,36.4C123.4,39.5,117.8,41.4,112.1,41.4
				 M21.4,168.9l28.8-0.1c0.8-15.6,2.5-30.7,5.4-45.4c-9.2,2.5-17.4,7.5-23.9,14.6c-7.2,7.9-11.7,17.7-12.7,28.3
				c-0.1,0.7,0.2,1.2,0.6,1.7C20.1,168.6,20.7,168.9,21.4,168.9 M174,169h28.8c0.7,0,1.3-0.2,1.7-0.7s0.7-1.1,0.6-1.7
				c-1.5-15.2-10-28.6-23.1-36.9h-12.4C172,142.3,173.4,155.5,174,169 M134.1,215.1h7.2c1.3,0,2.3-1,2.3-2.3v-4h-11.8v4.1
				C131.8,214.1,132.8,215.1,134.1,215.1 M83,215.1h7.2c1.3,0,2.3-1,2.3-2.3v-4H80.7v4.1C80.6,214.1,81.7,215.1,83,215.1 M92.6,4.5
				H53.3c-6.9,0-12.5,5.6-12.5,12.4v24.6v7.2c0,6.8,5.6,12.4,12.5,12.4h16.8c-6,12.8-11.2,26.3-15,40.3c-1.2,4.1-2.2,8.2-3.2,12.4
				c-10.6,3.1-20.2,9.1-27.8,17.3c-8.8,9.7-14.1,21.5-15.3,34.3c-0.3,3.6,0.8,7.1,3.2,9.7c2.4,2.7,5.9,4.2,9.6,4.2H45
				c0.8,2.7,2.3,5.2,4.3,7.4c3.3,3.3,7.5,5.2,12.2,5.2l-2.1,3.9c-2.1,3.9-2,8.7,0.3,12.5c2.3,3.7,6.2,6,10.6,6.2
				c0.8,6.2,6.2,11,12.7,11h7.2c6.5,0,11.8-4.7,12.7-11h18.6c0.8,6.2,6.2,11,12.7,11h7.2c6.5,0,11.8-4.7,12.7-11
				c4.4-0.1,8.4-2.4,10.6-6.2c2.3-3.8,2.4-8.7,0.3-12.5l-2.1-3.9c4.7-0.1,9-1.9,12.2-5.2c2.1-2.1,3.5-4.7,4.3-7.4h23.4
				c3.6,0,7-1.5,9.5-4.2c2.4-2.6,3.6-6.2,3.3-9.7c-1.3-12.1-6-23.3-13.8-32.4c3.3-2.3,5.4-6.1,5.4-10.4V86.8c0-7-5.8-12.7-12.8-12.7
				h-34.5c-11.2-27.8-24.8-47-34.4-58.4c-3.4-4-8.3-6.2-13.4-6.2c-2.9,0-5.8,0.7-8.3,2.1C101.7,7.4,97.5,4.5,92.6,4.5L92.6,4.5z
				 M57.1,20.8h31.6v1.1L86,24.6H69.7c-3.4,0-6.6,1.3-9.1,3.7L57,31.9L57.1,20.8L57.1,20.8z M107.8,30.3c1.2-1.6,2.3-3,3.5-4.3
				c0.1-0.1,0.3-0.4,0.8-0.4c0.3,0,0.7,0.2,0.9,0.4c1.2,1.4,2.3,2.8,3.4,4.3c-1.4,0.3-2.9,0.6-4.4,0.6S109.2,30.6,107.8,30.3
				L107.8,30.3z M71.4,40.9h16.3c0.4,0,0.8,0,1.2-0.1v4.1H67.4L71.4,40.9L71.4,40.9z M112.1,47.2c4.9,0,9.7-1.1,14.1-3.1
				c7.7,12.1,14.4,25.2,19.9,39.4c-0.3,1.1-0.5,2.2-0.5,3.4v13.4c0,2.6,1.3,4.9,3.2,6.4c-1.9,1.5-3.2,3.8-3.2,6.4v9.6
				c0,7,5.8,12.7,12.8,12.7h1.7c2.1,12.8,3.4,26.1,3.7,39.2c0,0.2-0.1,0.5-0.3,0.7c-0.3,0.2-0.5,0.3-0.8,0.3H96.5
				c-2.6,0-4.9,1.2-6.5,3.2c-1.5-1.9-3.9-3.2-6.5-3.2H61.6c-0.3,0-0.6-0.1-0.8-0.3c-0.2-0.2-0.3-0.3-0.3-0.6v-0.1
				c0.7-24.1,4.1-47.2,10.2-68.8C75.1,90.1,81,75,88.2,61.1h4.4c4.6,0,8.8-2.5,11-6.5c1-1.7,1.5-3.8,1.5-5.9v-2.4
				C107.4,46.9,109.7,47.2,112.1,47.2L112.1,47.2z M161.9,90.3h29v28.8h-29V113c0-2.6-1.3-4.9-3.2-6.4c1.9-1.5,3.2-3.8,3.2-6.4V90.3
				L161.9,90.3z M25.5,163.1c1.5-7.8,5.1-15.1,10.6-21.1c3.4-3.7,7.5-6.9,11.9-9.2c-1.6,9.8-2.8,20-3.4,30.3H25.5L25.5,163.1z
				 M176.6,135.3h3.8c9.7,6.6,16.2,16.5,18.4,27.8h-19.2C179,153.7,178,144.4,176.6,135.3L176.6,135.3z M79.9,191.9h3.7
				c2.6,0,4.9-1.2,6.5-3.2c1.5,1.9,3.9,3.2,6.5,3.2h47.9l3.4,6.3H76.6L79.9,191.9L79.9,191.9z"/>
		</g>
		<g id="XMLID_66_">
			<path id="XMLID_72_" class="st1" d="M112.1,106.2c-14.4,0-26.2-11.7-26.2-26s11.7-26,26.2-26c7,0,13.6,2.7,18.5,7.7
				c4.9,4.9,7.6,11.4,7.6,18.3C138.2,94.6,126.6,106.2,112.1,106.2z M112.1,64.8c-8.6,0-15.7,7-15.7,15.6s7,15.6,15.7,15.6
				c4.2,0,8.1-1.7,11.1-4.6s4.5-6.8,4.5-10.9C127.7,71.7,120.8,64.8,112.1,64.8z"/>
			<path id="XMLID_67_" class="st2" d="M112.1,57.3c12.8,0,23.2,10.3,23.2,23.1c0,12.7-10.4,23.1-23.2,23.1S88.9,93.2,88.9,80.4
				S99.3,57.3,112.1,57.3 M112.1,98.8c10.3,0,18.6-8.3,18.6-18.5s-8.3-18.5-18.6-18.5S93.5,70,93.5,80.3S101.8,98.8,112.1,98.8
				 M112.1,51.4c-16,0-29.1,13-29.1,28.9s13.1,28.9,29.1,28.9s29.1-13,29.1-28.9c0-7.7-2.9-14.9-8.5-20.4S119.9,51.4,112.1,51.4
				L112.1,51.4z M112.1,93c-7,0-12.7-5.7-12.7-12.7s5.7-12.7,12.7-12.7s12.7,5.7,12.7,12.7c0,3.3-1.3,6.5-3.7,8.9
				C118.7,91.6,115.5,93,112.1,93L112.1,93z"/>
		</g>
		<g id="XMLID_61_">
			<path id="XMLID_65_" class="st3" d="M99.1,85.5c-2.9,0-5.3-2.3-5.3-5.2c0-5.2,2-10.1,5.7-13.7c1-1,2.3-1.6,3.7-1.6
				c1.3,0,2.7,0.6,3.7,1.6s1.6,2.3,1.6,3.7c0,1.4-0.6,2.7-1.6,3.7c-1.7,1.7-2.7,4-2.7,6.3C104.4,83.1,102.1,85.5,99.1,85.5z"/>
			<path id="XMLID_62_" class="st2" d="M103.3,67.9c0.6,0,1.2,0.2,1.7,0.7c0.9,0.9,0.9,2.3,0,3.2c-2.3,2.2-3.5,5.2-3.5,8.4
				c0,1.2-1,2.3-2.3,2.3s-2.3-1-2.3-2.3c0-4.4,1.7-8.6,4.9-11.7C102.2,68.2,102.7,67.9,103.3,67.9 M103.3,62.1
				c-2.2,0-4.3,0.8-5.8,2.4c-4.3,4.2-6.6,9.8-6.6,15.8c0,4.5,3.7,8.2,8.2,8.2s8.2-3.7,8.2-8.2c0-1.6,0.7-3.2,1.8-4.3
				c3.2-3.2,3.2-8.3,0-11.5C107.6,62.9,105.5,62.1,103.3,62.1L103.3,62.1z"/>
		</g>
	</g>
	<g id="XMLID_3_">
		<path id="XMLID_59_" class="st9" d="M199.1,174.5c-1.3-12.7-7.3-24.1-16.2-32.5c-2.6-2.4-5.4-4.6-8.6-6.5H186
			c2.5,0,4.6-2.1,4.6-4.6V95.1c0-2.5-2.1-4.6-4.6-4.6h-36.1c-1.4,0-2.6,0.6-3.4,1.6c-11.5-30.9-26.2-51.7-35.7-63
			c-3.7-4.5-10.6-4.5-14.3,0c-2.4,2.8-5.1,6.3-8,10.4V25.3c0-2.3-1.9-4.2-4.3-4.2H44.9c-2.4,0-4.3,1.9-4.3,4.2V57
			c0,2.4,1.9,4.2,4.3,4.2h30c-9.3,17.1-18.7,39.5-24.6,67.5C28,133,10.7,151.5,8.4,174.4c-0.3,2.7,1.9,5,4.6,5h31
			c-0.1,1.1-0.1,2.1-0.1,3.2c-0.2,5.2,4,9.5,9.3,9.5h13.3l-2.9,5.5l-5.4,10.3c-1.6,3.1,0.6,6.7,4.1,6.7H70v6.4
			c0,2.5,2.1,4.6,4.6,4.6h7.2c2.5,0,4.6-2.1,4.6-4.6v-6.4h34.7v6.4c0,2.5,2.1,4.6,4.6,4.6h7.2c2.5,0,4.6-2.1,4.6-4.6v-6.4h7.7
			c3.4,0,5.8-3.7,4.1-6.7l-5.4-10.3l-2.9-5.5h13.3c5.2,0,9.4-4.2,9.3-9.5c-0.1-1.1-0.1-2.1-0.1-3.2h31
			C197.2,179.5,199.4,177.1,199.1,174.5L199.1,174.5z"/>
		<path id="XMLID_58_" class="st3" d="M90.2,217.4H83c-2.5,0-4.6-2.1-4.6-4.6v-14.2h16.4v14.2C94.8,215.3,92.7,217.4,90.2,217.4z"/>
		<path id="XMLID_57_" class="st4" d="M78.3,198.5h16.4v12.7H78.3C78.3,211.2,78.3,198.5,78.3,198.5z"/>
		<path id="XMLID_56_" class="st3" d="M141.3,217.4h-7.2c-2.5,0-4.6-2.1-4.6-4.6v-14.2h16.4v14.2
			C145.9,215.3,143.8,217.4,141.3,217.4z"/>
		<path id="XMLID_55_" class="st4" d="M129.5,198.5h16.4v12.7h-16.4V198.5z"/>
		<path id="XMLID_54_" class="st3" d="M153.6,206.4H70.5c-3.4,0-5.7-3.7-4.1-6.7l5.4-10.3l4.8-9.1h70.7l4.8,9.1l5.4,10.3
			C159.4,202.7,157.2,206.4,153.6,206.4z"/>
		<path id="XMLID_53_" class="st4" d="M152.3,189.4H72l4.8-9.1h70.7L152.3,189.4z"/>
		<path id="XMLID_52_" class="st5" d="M202.9,171.2h-47.5v-51.7c13.9,0,26.6,5.4,35.9,14.2c8.9,8.3,14.8,19.7,16.2,32.5
			C207.7,168.9,205.6,171.2,202.9,171.2z"/>
		<path id="XMLID_51_" class="st6" d="M191.4,133.8h-33c-1.1,0-2.2-0.4-2.9-1.1v-13.1C169.3,119.5,181.9,124.9,191.4,133.8z"/>
		<path id="XMLID_50_" class="st5" d="M16.7,166.2c2.7-26.2,25-46.6,52.1-46.6v51.7H21.3C18.6,171.2,16.5,168.9,16.7,166.2
			L16.7,166.2z"/>
		<path id="XMLID_49_" class="st2" d="M105,20.7C88.2,40.8,54.7,91,52.3,174.3c-0.2,5.2,4,9.5,9.3,9.5h101c5.2,0,9.4-4.2,9.3-9.5
			C169.5,91,136,40.8,119.2,20.7C115.6,16.3,108.7,16.3,105,20.7L105,20.7z"/>
		<path id="XMLID_48_" class="st3" d="M128.6,33c-4.4,3.7-10.1,6.1-16.4,6.1s-12-2.3-16.4-6.1c3.4-4.9,6.5-8.9,9.3-12.2
			c3.7-4.4,10.6-4.4,14.3,0C121.9,24,125.1,28,128.6,33z"/>
		<path id="XMLID_47_" class="st7" d="M168.1,133.8h-9.6c-2.5,0-4.6-2.1-4.6-4.6V93.4c0-2,1.3-3.7,3-4.3
			C161.4,102.1,165.4,117,168.1,133.8z"/>
		<path id="XMLID_46_" class="st7" d="M97,31.2v24c0,2.4-1.9,4.2-4.3,4.2H80C85.7,47.9,91.6,38.5,97,31.2z"/>
		<path id="XMLID_45_" class="st5" d="M125.3,183.6H99.1v-43.9c0-1.2,1-2.3,2.3-2.3H123c1.3,0,2.3,1,2.3,2.3V183.6L125.3,183.6z"/>
		<path id="XMLID_44_" class="st4" d="M194.5,127.3h-36.1c-2.5,0-4.6-2.1-4.6-4.6V86.9c0-2.5,2.1-4.6,4.6-4.6h36.1
			c2.5,0,4.6,2.1,4.6,4.6v35.8C199.1,125.2,197.1,127.3,194.5,127.3z"/>
		<path id="XMLID_43_" class="st5" d="M199.1,86.7v35.8c0,2.5-2.1,4.6-4.6,4.6h-7.7c2.5,0,4.6-2.1,4.6-4.6V86.7
			c0-2.5-2.1-4.6-4.6-4.6h7.7C197.1,82.2,199.1,84.2,199.1,86.7L199.1,86.7z"/>
		<path id="XMLID_42_" class="st3" d="M97,16.9v31.7c0,2.4-1.9,4.2-4.3,4.2H53.4c-2.4,0-4.3-1.9-4.3-4.2V16.9c0-2.4,1.9-4.2,4.3-4.2
			h39.3C95,12.6,97,14.6,97,16.9z"/>
		<path id="XMLID_41_" class="st2" d="M68,26.1h-7.7c-1.3,0-2.3-1-2.3-2.3c0-1.3,1-2.3,2.3-2.3H68c1.3,0,2.3,1,2.3,2.3
			C70.3,25.1,69.4,26.1,68,26.1z"/>
		<path id="XMLID_40_" class="st4" d="M97,16.9v31.7c0,2.4-1.9,4.2-4.3,4.2h-7.6c2.3,0,4.3-1.9,4.3-4.2V16.9c0-2.4-1.9-4.2-4.3-4.2
			h7.6C95,12.6,97,14.6,97,16.9z"/>
		<path id="XMLID_39_" class="st5" d="M97,25.3v23.5c0,2.4-1.9,4.2-4.3,4.2H53.4c-2.4,0-4.3-1.9-4.3-4.2v-7.2h8.1
			c1.2,0,2.4-0.5,3.3-1.3l6.1-6.1c0.8-0.8,2-1.3,3.3-1.3h17.7c0.7,0,1.3-0.2,1.8-0.3c0.6-0.2,1-0.6,1.5-1L97,25.3z"/>
		<path id="XMLID_38_" class="st8" d="M97,25.3v23.5c0,2.4-1.9,4.2-4.3,4.2h-7.6c2.3,0,4.3-1.9,4.3-4.2V32.4c0.6-0.2,1-0.6,1.5-1
			L97,25.3z"/>
		<g id="XMLID_33_">
			<path id="XMLID_37_" class="st3" d="M123,173.6v-30c0-1.2,1-2.3,2.3-2.3s2.3,1,2.3,2.3v30c0,1.2-1,2.3-2.3,2.3
				C124,176,123,175,123,173.6z"/>
			<ellipse id="XMLID_36_" class="st3" cx="91.9" cy="155.7" rx="2.6" ry="2.6"/>
			<ellipse id="XMLID_35_" class="st3" cx="91.9" cy="147.8" rx="2.6" ry="2.6"/>
			<ellipse id="XMLID_34_" class="st3" cx="91.9" cy="140.1" rx="2.6" ry="2.6"/>
		</g>
		<ellipse id="XMLID_32_" class="st4" cx="112.1" cy="80.2" rx="20.9" ry="20.7"/>
		<path id="XMLID_31_" class="st3" d="M133,80.2c0,11.5-9.4,20.7-21,20.7c-7.6,0-14.3-4.1-17.9-10.2c2.9,1.6,6.4,2.5,10,2.5
			c11.6,0,20.9-9.3,20.9-20.7c0-3.8-1.1-7.5-2.9-10.7C128.7,65.6,133,72.4,133,80.2L133,80.2z"/>
		<path id="XMLID_30_" class="st3" d="M194.1,160.5h-13.4c-1.3,0-2.3-1-2.3-2.3s1-2.3,2.3-2.3h13.4c1.3,0,2.3,1,2.3,2.3
			C196.4,159.5,195.4,160.5,194.1,160.5z"/>
		<path id="XMLID_29_" class="st3" d="M43.6,160.5H30.2c-1.3,0-2.3-1-2.3-2.3s1-2.3,2.3-2.3h13.4c1.3,0,2.3,1,2.3,2.3
			S44.8,160.5,43.6,160.5z"/>
		<path id="XMLID_26_" class="st2" d="M168.5,102.8c-3.4,0-6-2.7-6-6s2.7-6,6-6s6,2.7,6,6S171.8,102.8,168.5,102.8z M168.5,95.4
			c-0.8,0-1.4,0.7-1.4,1.4s0.7,1.4,1.4,1.4s1.4-0.7,1.4-1.4S169.2,95.4,168.5,95.4z"/>
		<path id="XMLID_23_" class="st2" d="M184.4,118.6c-3.4,0-6-2.7-6-6s2.7-6,6-6s6,2.7,6,6S187.7,118.6,184.4,118.6z M184.4,111.2
			c-0.8,0-1.4,0.7-1.4,1.4s0.7,1.4,1.4,1.4c0.8,0,1.4-0.7,1.4-1.4C185.8,111.9,185.2,111.2,184.4,111.2z"/>
		<path id="XMLID_22_" class="st2" d="M169.9,113.5c-0.6,0-1.2-0.2-1.6-0.7c-0.9-0.9-0.9-2.3,0-3.2l13.2-13.1c0.9-0.9,2.3-0.9,3.3,0
			c0.9,0.9,0.9,2.3,0,3.2l-13.2,13.1C171.1,113.3,170.4,113.5,169.9,113.5z"/>
		<path id="XMLID_19_" class="st3" d="M108.3,128.4h-2.4c-3,0-5.4-2.4-5.4-5.4v-7.6c0-3,2.4-5.4,5.4-5.4h2.4c3,0,5.4,2.4,5.4,5.4
			v7.6C113.7,126,111.3,128.4,108.3,128.4z M105.8,114.6c-0.5,0-0.8,0.3-0.8,0.8v7.6c0,0.5,0.3,0.8,0.8,0.8h2.4
			c0.5,0,0.8-0.3,0.8-0.8v-7.6c0-0.5-0.3-0.8-0.8-0.8H105.8z"/>
		<path id="XMLID_18_" class="st3" d="M121.6,128.4c-1.3,0-2.3-1-2.3-2.3v-11.6h-0.2c-1.3,0-2.3-1-2.3-2.3s1-2.3,2.3-2.3h2.5
			c1.3,0,2.3,1,2.3,2.3V126C124,127.4,122.9,128.4,121.6,128.4z"/>
		<path id="XMLID_8_" class="st1" d="M209.8,166c-1.5-14.5-8.6-27.4-19.7-36.5h4.4c3.9,0,7-3.1,7-6.9V86.8c0-3.8-3.1-6.9-7-6.9
			h-36.1c-0.8,0-1.6,0.2-2.3,0.4c-11.2-29.2-25.2-49.2-35-60.9c-2.3-2.6-5.4-4.2-9-4.2c-3.5,0-6.7,1.5-9,4.2
			c-1.3,1.6-2.6,3.2-3.9,4.9V17c0-3.7-2.9-6.6-6.6-6.6H53.3c-3.7,0-6.6,2.9-6.6,6.6v24.6l0,0v7.2c0,3.7,2.9,6.6,6.6,6.6h26.2
			c-7.7,14.8-14.1,30.8-18.8,47.7c-1.4,5.1-2.8,10.3-3.9,15.6c-11,2.5-20.8,8.2-28.4,16.5c-7.9,8.7-12.7,19.3-13.8,30.9
			c-0.2,1.9,0.5,3.8,1.8,5.3s3.2,2.3,5.2,2.3h28.7c0,0.2,0,0.5-0.1,0.7c-0.1,3.2,1.1,6.1,3.3,8.4c2.2,2.2,5.1,3.5,8.3,3.5h9.5
			l-6.6,12.5c-1.2,2.2-1.1,4.7,0.2,6.7c1.3,2.1,3.4,3.3,6,3.3h5.4v4.1c0,3.8,3.1,6.9,7,6.9h7.2c3.9,0,7-3.1,7-6.9v-4.1h30.1v4.1
			c0,3.8,3.1,6.9,7,6.9h7.2c3.9,0,7-3.1,7-6.9v-4.1h5.4c2.4,0,4.7-1.2,6-3.3s1.3-4.7,0.2-6.7l-6.6-12.5h9.5c3.2,0,6.1-1.2,8.3-3.5
			c2.3-2.2,3.4-5.2,3.3-8.4c0-0.2,0-0.5-0.1-0.7h28.7c1.9,0,3.9-0.8,5.2-2.3C209.4,169.8,210,167.9,209.8,166z M106.8,22.2
			c1.3-1.6,3.3-2.5,5.4-2.5s4,0.9,5.4,2.5c2.4,2.9,5.1,6.3,7.9,10.2c-3.9,2.7-8.5,4.2-13.3,4.2c-4.6,0-9.1-1.4-12.9-4v-0.8
			C101.7,28.5,104.3,25.3,106.8,22.2L106.8,22.2z M94.6,48.7c0,0.2-0.1,0.6-0.2,0.7c-0.3,0.7-1,1.2-1.8,1.2H53.3c-1.1,0-2-0.8-2-2
			v-4.9h5.9c1.8,0,3.6-0.7,4.9-2l6.1-6.1c0.5-0.5,1-0.7,1.7-0.7h17.7c0.9,0,1.8-0.2,2.8-0.6c0.8-0.3,1.6-0.8,2.2-1.5l2.2-2.2
			L94.6,48.7L94.6,48.7z M53.3,15h39.3c1.1,0,2,0.8,2,2v7.3l-5.4,5.4c-0.2,0.2-0.5,0.3-0.7,0.5c-0.3,0.2-0.6,0.2-0.9,0.2H69.9
			c-1.8,0-3.6,0.7-4.9,2l-6.1,6.1c-0.4,0.4-1,0.7-1.6,0.7h-5.9V17C51.3,15.9,52.2,15,53.3,15L53.3,15z M21.4,168.9
			c-0.7,0-1.3-0.2-1.7-0.7s-0.7-1.1-0.6-1.7c1.1-10.6,5.4-20.4,12.7-28.3c6.5-7.1,14.7-12.1,23.9-14.6c-2.9,14.7-4.7,29.8-5.4,45.4
			L21.4,168.9L21.4,168.9z M92.4,212.8c0,1.2-1,2.3-2.3,2.3h-7.2c-1.3,0-2.3-1-2.3-2.3v-4h11.8V212.8L92.4,212.8z M143.6,212.8
			c0,1.2-1,2.3-2.3,2.3h-7.2c-1.3,0-2.3-1-2.3-2.3v-4h11.8V212.8L143.6,212.8z M167.6,179.5c-1.3,1.3-3.1,2.1-5,2.1H96.4
			c-1.3,0-2.3,1-2.3,2.3s1,2.3,2.3,2.3h51.4l7.8,14.7c0.6,1.1,0.2,1.9-0.1,2.2s-0.8,1.1-2,1.1H70.4c-1.2,0-1.8-0.7-2-1.1
			c-0.2-0.3-0.6-1.2-0.1-2.2l7.8-14.7h7.2c1.3,0,2.3-1,2.3-2.3s-1-2.3-2.3-2.3H61.4c-1.9,0-3.7-0.7-5-2.1c-1.3-1.3-2-3.2-1.9-5
			c0.7-24.6,4.2-48.2,10.4-70.2c4.9-17.4,11.5-33.8,19.6-48.9h7.9c2.5,0,4.7-1.4,5.9-3.4c0.5-0.9,0.8-2,0.8-3.2V38.2
			c3.9,2.1,8.3,3.2,12.9,3.2c5.8,0,11.3-1.8,15.9-5.1c7.9,11.7,16.8,27.2,24.3,47.1c-0.6,1-0.9,2.2-0.9,3.3v13.4
			c0,1.2,1,2.3,2.3,2.3s2.3-1,2.3-2.3V86.7c0-1.2,1-2.3,2.3-2.3h36.1c1.3,0,2.3,1,2.3,2.3v35.8c0,1.2-1,2.3-2.3,2.3h-36.1
			c-1.3,0-2.3-1-2.3-2.3V113c0-1.2-1-2.3-2.3-2.3s-2.3,1-2.3,2.3v9.6c0,3.8,3.1,6.9,7,6.9h6.6c2.6,14.5,4.2,29.6,4.6,44.9
			C169.7,176.3,169,178,167.6,179.5L167.6,179.5z M204.6,168.1c-0.5,0.5-1.1,0.7-1.7,0.7h-28.8c-0.6-13.4-2-26.7-4.3-39.5h12.4
			c13.1,8.2,21.5,21.6,23.1,36.9C205.2,167.1,205,167.6,204.6,168.1z"/>
		<path id="XMLID_5_" class="st1" d="M112.1,57.3c-12.8,0-23.2,10.3-23.2,23.1c0,12.7,10.4,23.1,23.2,23.1s23.2-10.3,23.2-23.1
			C135.4,67.6,125,57.3,112.1,57.3z M112.1,98.8c-10.2,0-18.6-8.2-18.6-18.5s8.3-18.5,18.6-18.5s18.6,8.2,18.6,18.5
			C130.7,90.5,122.4,98.8,112.1,98.8z"/>
		<path id="XMLID_4_" class="st3" d="M99.1,82.6c-1.3,0-2.3-1-2.3-2.3c0-4.4,1.7-8.6,4.9-11.7c0.9-0.9,2.3-0.9,3.3,0
			c0.9,0.9,0.9,2.3,0,3.2c-2.3,2.2-3.5,5.2-3.5,8.4C101.5,81.6,100.5,82.6,99.1,82.6L99.1,82.6z"/>
	</g>
</g>
</svg>
