<?xml version="1.0" encoding="utf-8"?>
<!-- Generator: Adobe Illustrator 19.0.0, SVG Export Plug-In . SVG Version: 6.00 Build 0)  -->
<svg version="1.1" id="Layer_1" xmlns="http://www.w3.org/2000/svg" xmlns:xlink="http://www.w3.org/1999/xlink" x="0px" y="0px"
	 viewBox="0 0 266 191" style="enable-background:new 0 0 266 191;" xml:space="preserve">
<style type="text/css">
	.st0{opacity:0.11;enable-background:new    ;}
	.st1{fill:#1F3568;}
	.st2{fill:#FFFFFF;}
	.st3{fill:#3378BD;}
	.st4{fill:#689CD3;}
	.st5{fill:#B1D4F0;}
	.st6{fill:#8CC2E9;}
	.st7{fill:#1A66A4;}
	.st8{fill:#1A619C;}
	.st9{fill:#D3EAF9;}
	.st10{fill:#3C459C;}
	.st11{opacity:0.11;fill:#1F3568;enable-background:new    ;}
</style>
<g id="XMLID_2_">
	<g id="XMLID_69_">
		<g id="XMLID_331_" class="st0">
			<path id="XMLID_335_" class="st1" d="M38,181c-7.9,0-14.3-6.4-14.3-14.3v-6.2c0-5.1,4.2-9.4,9.4-9.4h8.2v-67h-29
				c-4.4,0-8-3.6-8-8V35.1c0-4.4,3.6-8,8-8h41.2c4.4,0,8,3.6,8,8v3.1h135.2c7.5,0,13.7,6.2,13.7,13.8v8.4h32c4.4,0,8,3.6,8,8v41.2
				c0,4.4-3.6,8-8,8h-32v33.8h8.2c5.1,0,9.4,4.2,9.4,9.4v6.1c0,7.9-6.4,14.3-14.3,14.3H38L38,181z"/>
			<path id="XMLID_332_" class="st2" d="M53.3,29.8c2.9,0,5.3,2.4,5.3,5.3v5.8h137.9c6.1,0,10.9,4.9,10.9,11V63h34.7
				c2.9,0,5.3,2.4,5.3,5.3v41.2c0,2.9-2.4,5.3-5.3,5.3h-34.7v39.3h10.9c3.6,0,6.6,2.9,6.6,6.6v6.1c0,6.4-5.2,11.6-11.6,11.6H37.8
				c-6.4,0-11.6-5.2-11.6-11.6v-6.2c0-3.6,2.9-6.6,6.6-6.6h10.9V81.5H11.9c-2.9,0-5.3-2.4-5.3-5.3V35.1c0-2.9,2.4-5.3,5.3-5.3H53.3
				 M53.3,24.3H12.1c-5.9,0-10.7,4.9-10.7,10.7v41.2C1.4,82.1,6.2,87,12.1,87h26.3v61.5h-5.5c-6.6,0-12,5.5-12,12v6.2
				c0,9.4,7.6,17,17,17h175.5c9.4,0,17-7.6,17-17v-6.1c0-6.6-5.5-12-12-12h-5.5v-28.3H242c5.9,0,10.7-4.9,10.7-10.7V68.4
				c0-5.9-4.9-10.7-10.7-10.7h-29.3V52c0-9.1-7.4-16.5-16.4-16.5H64v-0.3C64,29.2,59.2,24.3,53.3,24.3L53.3,24.3z"/>
		</g>
		<g id="XMLID_326_">
			<path id="XMLID_330_" class="st2" d="M53.4,158.3c-1.5,0-2.7-1.2-2.7-2.7V42.5c0-7.5,6.2-13.7,13.7-13.7H206
				c7.5,0,13.7,6.2,13.7,13.7v110.4c0,3-2.3,5.4-5.4,5.4H53.4L53.4,158.3z"/>
			<path id="XMLID_327_" class="st2" d="M206.1,31.5c6.1,0,10.9,4.9,10.9,10.9v110.4c0,1.5-1.1,2.6-2.6,2.6h-161V42.5
				c0-6.1,4.9-10.9,10.9-10.9h141.5C206,31.5,206,31.5,206.1,31.5 M206.1,26.1L206.1,26.1L206.1,26.1H64.5
				c-9.1,0-16.4,7.4-16.4,16.4v113c0,3,2.4,5.5,5.5,5.5h160.9c4.4,0,8.1-3.6,8.1-8.1V42.5C222.5,33.4,215,26.1,206.1,26.1
				L206.1,26.1z"/>
		</g>
		<g id="XMLID_321_">
			<path id="XMLID_325_" class="st3" d="M117.2,102.1c-1.3,0-2.6-0.4-3.5-1.3c-1.1-1-1.8-2.3-1.9-3.7c-0.1-1.4,0.3-2.8,1.3-3.9
				L131,72.3c1-1.1,2.4-1.9,4.1-1.9c1.6,0,2.9,0.6,4.1,1.8l18,20.9c1.9,2.3,1.7,5.6-0.5,7.6l-0.1,0.1c-1,0.8-2.2,1.2-3.4,1.2
				c-1.6,0-2.9-0.6-4.1-1.8l-14-16.2l-13.9,16.1C120.3,101.4,118.8,102.1,117.2,102.1z"/>
			<path id="XMLID_322_" class="st2" d="M135.2,73.1c0.8,0,1.5,0.3,2,1l17.9,20.8c1,1.1,0.9,2.8-0.3,3.7c-0.5,0.3-1.1,0.6-1.7,0.6
				c-0.8,0-1.5-0.3-2-1l-15.9-18.5l-15.9,18.5c-0.5,0.6-1.2,1-2,1c-0.6,0-1.2-0.3-1.8-0.6c-1.1-1-1.2-2.6-0.3-3.7L133.1,74
				C133.6,73.5,134.3,73.1,135.2,73.1 M135.2,67.8c-2.4,0-4.7,1-6.2,2.8l-17.9,20.8c-2.9,3.4-2.6,8.6,0.9,11.4
				c1.5,1.2,3.4,1.9,5.3,1.9c2.3,0,4.6-1,6.2-2.8l11.8-13.8l11.8,13.8l0.1,0.1c1.6,1.7,3.7,2.6,6.1,2.6c1.9,0,3.6-0.6,5.1-1.9
				c0.1,0,0.1-0.1,0.2-0.2c3.4-2.9,3.7-8,0.9-11.4l-17.9-20.9l-0.1-0.1C139.6,68.6,137.5,67.8,135.2,67.8L135.2,67.8z"/>
		</g>
		<g id="XMLID_290_">
			<g id="XMLID_316_">
				<path id="XMLID_320_" class="st4" d="M176.3,85.1c-3.1,0-5.6-2.6-5.6-5.6c0-3.1,2.6-5.6,5.6-5.6s5.6,2.6,5.6,5.6
					C182,82.6,179.6,85.1,176.3,85.1z"/>
				<path id="XMLID_317_" class="st2" d="M176.3,76.5c1.6,0,2.9,1.3,2.9,2.9c0,1.6-1.3,2.9-2.9,2.9s-2.9-1.3-2.9-2.9
					C173.4,77.8,174.7,76.5,176.3,76.5 M176.3,71.1c-4.7,0-8.4,3.7-8.4,8.4s3.7,8.4,8.4,8.4s8.4-3.7,8.4-8.4
					C184.8,74.8,181,71.1,176.3,71.1L176.3,71.1z"/>
			</g>
			<g id="XMLID_311_">
				<path id="XMLID_315_" class="st4" d="M185.3,85.1c-3.1,0-5.6-2.6-5.6-5.6c0-3.1,2.6-5.6,5.6-5.6s5.6,2.6,5.6,5.6
					C191,82.6,188.4,85.1,185.3,85.1z"/>
				<path id="XMLID_312_" class="st2" d="M185.3,76.5c1.6,0,2.9,1.3,2.9,2.9c0,1.6-1.3,2.9-2.9,2.9s-2.9-1.3-2.9-2.9
					C182.3,77.8,183.6,76.5,185.3,76.5 M185.3,71.1c-4.7,0-8.4,3.7-8.4,8.4s3.7,8.4,8.4,8.4c4.7,0,8.4-3.7,8.4-8.4
					C193.7,74.8,190,71.1,185.3,71.1L185.3,71.1z"/>
			</g>
			<g id="XMLID_306_">
				<path id="XMLID_310_" class="st4" d="M194.2,85.1c-3.1,0-5.6-2.6-5.6-5.6c0-3.1,2.6-5.6,5.6-5.6c3,0,5.6,2.6,5.6,5.6
					C199.9,82.6,197.3,85.1,194.2,85.1z"/>
				<path id="XMLID_307_" class="st2" d="M194.2,76.5c1.6,0,2.9,1.3,2.9,2.9c0,1.6-1.3,2.9-2.9,2.9c-1.6,0-2.9-1.3-2.9-2.9
					C191.3,77.8,192.6,76.5,194.2,76.5 M194.2,71.1c-4.7,0-8.4,3.7-8.4,8.4s3.7,8.4,8.4,8.4c4.7,0,8.4-3.7,8.4-8.4
					C202.6,74.8,198.9,71.1,194.2,71.1L194.2,71.1z"/>
			</g>
			<g id="XMLID_301_">
				<path id="XMLID_305_" class="st4" d="M176.3,94.2c-3.1,0-5.6-2.6-5.6-5.6c0-3.1,2.6-5.6,5.6-5.6s5.6,2.6,5.6,5.6
					C182,91.7,179.6,94.2,176.3,94.2z"/>
				<path id="XMLID_302_" class="st2" d="M176.3,85.6c1.6,0,2.9,1.3,2.9,2.9s-1.3,2.9-2.9,2.9s-2.9-1.3-2.9-2.9
					S174.7,85.6,176.3,85.6 M176.3,80.2c-4.7,0-8.4,3.7-8.4,8.4c0,4.7,3.7,8.4,8.4,8.4s8.4-3.7,8.4-8.4
					C184.8,83.9,181,80.2,176.3,80.2L176.3,80.2z"/>
			</g>
			<g id="XMLID_296_">
				<path id="XMLID_300_" class="st4" d="M185.3,94.2c-3.1,0-5.6-2.6-5.6-5.6c0-3.1,2.6-5.6,5.6-5.6s5.6,2.6,5.6,5.6
					C191,91.7,188.4,94.2,185.3,94.2z"/>
				<path id="XMLID_297_" class="st2" d="M185.3,85.6c1.6,0,2.9,1.3,2.9,2.9s-1.3,2.9-2.9,2.9s-2.9-1.3-2.9-2.9
					S183.6,85.6,185.3,85.6 M185.3,80.2c-4.7,0-8.4,3.7-8.4,8.4c0,4.7,3.7,8.4,8.4,8.4c4.7,0,8.4-3.7,8.4-8.4
					C193.7,83.9,190,80.2,185.3,80.2L185.3,80.2z"/>
			</g>
			<g id="XMLID_291_">
				<path id="XMLID_295_" class="st4" d="M194.2,94.2c-3.1,0-5.6-2.6-5.6-5.6c0-3.1,2.6-5.6,5.6-5.6c3,0,5.6,2.6,5.6,5.6
					C199.9,91.7,197.3,94.2,194.2,94.2z"/>
				<path id="XMLID_292_" class="st2" d="M194.2,85.6c1.6,0,2.9,1.3,2.9,2.9s-1.3,2.9-2.9,2.9c-1.6,0-2.9-1.3-2.9-2.9
					S192.6,85.6,194.2,85.6 M194.2,80.2c-4.7,0-8.4,3.7-8.4,8.4c0,4.7,3.7,8.4,8.4,8.4c4.7,0,8.4-3.7,8.4-8.4
					C202.6,83.9,198.9,80.2,194.2,80.2L194.2,80.2z"/>
			</g>
		</g>
		<g id="XMLID_285_">
			<path id="XMLID_289_" class="st4" d="M108.6,125.7c-3,0-5.4-2.3-5.4-5.4V99.3c0-3,2.3-5.4,5.4-5.4h53.2c2.9,0,5.4,2.4,5.4,5.4
				v21.1c0,2.9-2.5,5.4-5.4,5.4H108.6z"/>
			<path id="XMLID_286_" class="st2" d="M161.8,96.7c1.5,0,2.6,1.1,2.6,2.6v21.1c0,1.4-1.2,2.6-2.6,2.6h-53.2
				c-1.5,0-2.6-1.1-2.6-2.6V99.3c0-1.5,1.1-2.6,2.6-2.6H161.8 M161.8,91.2h-53.2c-4.4,0-8.1,3.6-8.1,8.1v21.1c0,4.4,3.6,8.1,8.1,8.1
				h53.2c4.4,0,8.1-3.6,8.1-8.1V99.3C169.8,94.9,166.2,91.2,161.8,91.2L161.8,91.2z"/>
		</g>
		<g id="XMLID_280_">
			<path id="XMLID_284_" class="st5" d="M53.4,83.3c-1.5,0-2.7-1.2-2.7-2.7v-38c0-7.5,6.2-13.7,13.7-13.7h2.9c1,0,1.8,0.4,2.3,1.2
				c0.8,1.1,1.1,2.6,1.1,4.1v41.2c0,4.4-3.6,8-8,8H53.4L53.4,83.3z"/>
			<path id="XMLID_281_" class="st2" d="M67.2,31.5c0.4,0.8,0.8,1.6,0.8,2.6v41.2c0,2.9-2.4,5.3-5.3,5.3h-9.4v-38
				c0-6.1,4.9-10.9,10.9-10.9L67.2,31.5 M67.2,26.1h-2.9c-9.1,0-16.4,7.4-16.4,16.4v38c0,3,2.4,5.5,5.5,5.5h9.4
				c5.9,0,10.7-4.9,10.7-10.7V34.1c0-2-0.5-3.9-1.6-5.5C70.9,27,69.2,26.1,67.2,26.1L67.2,26.1z"/>
		</g>
		<g id="XMLID_275_">
			<path id="XMLID_279_" class="st5" d="M210.5,116.5c-4.4,0-8-3.6-8-8V67.4c0-4.4,3.6-8,8-8h6.5c1.5,0,2.7,1.2,2.7,2.7v51.7
				c0,1.5-1.2,2.7-2.7,2.7L210.5,116.5L210.5,116.5z"/>
			<path id="XMLID_276_" class="st2" d="M217,62v51.7h-6.5c-2.9,0-5.3-2.4-5.3-5.3V67.3c0-2.9,2.4-5.3,5.3-5.3H217 M217,56.6h-6.5
				c-5.9,0-10.7,4.9-10.7,10.7v41.2c0,5.9,4.9,10.7,10.7,10.7h6.5c3,0,5.5-2.4,5.5-5.5V62C222.5,59,219.9,56.6,217,56.6L217,56.6z"
				/>
		</g>
		<g id="XMLID_270_">
			<path id="XMLID_274_" class="st5" d="M203.3,74.5c-4.9,0-9.7-1.6-13.6-4.6c-4,2.9-8.7,4.6-13.6,4.6c-4.9,0-9.7-1.6-13.6-4.6
				c-4,2.9-8.7,4.6-13.6,4.6c-4.9,0-9.7-1.6-13.6-4.6c-4,2.9-8.7,4.6-13.6,4.6c-4.9,0-9.7-1.6-13.6-4.6c-4,2.9-8.7,4.6-13.6,4.6
				c-4.9,0-9.7-1.6-13.6-4.6c-4,2.9-8.7,4.6-13.6,4.6c-5.7,0-11.3-2.2-15.4-6.2c-0.5-0.5-0.9-1.2-0.9-2V42.5
				c0-7.5,6.2-13.7,13.7-13.7h141.6c7.5,0,13.8,6.2,13.8,13.7v23.9c0,0.8-0.3,1.5-0.9,2C214.6,72.4,209,74.5,203.3,74.5z"/>
			<path id="XMLID_271_" class="st2" d="M206,31.5c6.2,0,11,4.9,11,10.9v23.9c-3.6,3.4-8.3,5.4-13.6,5.4s-10.1-2.1-13.6-5.4
				c-3.6,3.4-8.3,5.4-13.6,5.4s-10.1-2.1-13.6-5.4c-3.6,3.4-8.3,5.4-13.6,5.4s-10.1-2.1-13.6-5.4c-3.6,3.4-8.3,5.4-13.6,5.4
				c-5.3,0-10.1-2.1-13.6-5.4c-3.6,3.4-8.3,5.4-13.6,5.4s-10.1-2.1-13.6-5.4c-3.6,3.4-8.3,5.4-13.6,5.4s-10.1-2.1-13.6-5.4V42.5
				c0-6.1,4.9-10.9,10.9-10.9h141.5C205.9,31.5,206,31.5,206,31.5 M206,26.1L206,26.1L206,26.1H64.4c-9.1,0-16.4,7.4-16.4,16.4v23.9
				c0,1.5,0.6,2.9,1.7,4c4.8,4.4,10.9,6.8,17.3,6.8c4.9,0,9.5-1.4,13.6-4c4.1,2.6,8.8,4,13.6,4c4.9,0,9.5-1.4,13.6-4
				c4.1,2.6,8.8,4,13.6,4c4.9,0,9.5-1.4,13.6-4c4.1,2.6,8.8,4,13.6,4s9.5-1.4,13.6-4c4.1,2.6,8.8,4,13.6,4s9.5-1.4,13.6-4
				c4.1,2.6,8.8,4,13.6,4c6.4,0,12.6-2.4,17.3-6.8c1.1-1,1.7-2.5,1.7-4V42.5C222.5,33.4,215,26.1,206,26.1L206,26.1z"/>
		</g>
		<g id="XMLID_265_">
			<path id="XMLID_269_" class="st4" d="M53.4,158.3c-1.5,0-2.7-1.2-2.7-2.7v-24.1c0-1.5,1.2-2.7,2.7-2.7h163.5
				c1.5,0,2.7,1.2,2.7,2.7v21.4c0,3-2.3,5.4-5.4,5.4L53.4,158.3L53.4,158.3z"/>
			<path id="XMLID_266_" class="st2" d="M217,131.5v21.4c0,1.5-1.1,2.6-2.6,2.6h-161v-24.1L217,131.5 M217,126H53.4
				c-3,0-5.5,2.4-5.5,5.5v24.1c0,3,2.4,5.5,5.5,5.5h160.9c4.4,0,8.1-3.6,8.1-8.1v-21.4C222.5,128.5,219.9,126,217,126L217,126z"/>
		</g>
		<g id="XMLID_260_">
			<path id="XMLID_264_" class="st5" d="M47.4,171.5c-7.9,0-14.3-6.4-14.3-14.3v-6.1c0-5.1,4.2-9.4,9.4-9.4h56.7
				c1.9,0,3.8,1.1,4.8,2.9l3.5,6.4h55.9l3.5-6.5c1-1.8,2.8-2.9,4.8-2.9h56.7c5.1,0.1,9.3,4.2,9.3,9.4v6.1c0,7.9-6.4,14.3-14.3,14.3
				L47.4,171.5L47.4,171.5z"/>
			<path id="XMLID_261_" class="st2" d="M227.9,144.5c3.6,0.1,6.5,3,6.5,6.7v6.1c0,6.4-5.2,11.6-11.6,11.6H47.3
				c-6.4,0-11.6-5.2-11.6-11.6v-6.1c0-3.6,2.9-6.6,6.6-6.6H99c1,0,1.9,0.5,2.3,1.4l3.5,6.5c0.4,0.9,1.4,1.4,2.3,1.4h56
				c1,0,1.9-0.5,2.3-1.4l3.5-6.5c0.4-0.9,1.4-1.4,2.3-1.4L227.9,144.5 M227.9,139.1h-56.7c-2.9,0-5.6,1.6-7.1,4.2c0,0,0,0.1-0.1,0.1
				l-2.7,5h-52.6l-2.7-5c-1.4-2.6-4.2-4.2-7.1-4.2H42.5c-6.6,0-12,5.5-12,12v6.1c0,9.4,7.6,17,17,17h175.5c9.4,0,17-7.6,17-17v-6.1
				C239.9,144.5,234.5,139.2,227.9,139.1C228,139.1,227.9,139.1,227.9,139.1L227.9,139.1z"/>
		</g>
		<g id="XMLID_255_">
			<path id="XMLID_259_" class="st3" d="M191.3,156.8c-3,0-5.4-2.3-5.4-5.4v-6.9c0-1.5,1.2-2.7,2.7-2.7h28.2c1.5,0,2.7,1.2,2.7,2.7
				v6.9c0,3-2.3,5.4-5.4,5.4H191.3z"/>
			<path id="XMLID_256_" class="st2" d="M216.8,144.5v6.9c0,1.5-1.1,2.6-2.6,2.6h-22.9c-1.5,0-2.6-1.1-2.6-2.6v-6.9H216.8
				 M216.8,139.1h-28.2c-3,0-5.5,2.4-5.5,5.5v6.9c0,4.4,3.6,8.1,8.1,8.1h22.9c4.4,0,8.1-3.6,8.1-8.1v-6.9
				C222.3,141.5,219.9,139.1,216.8,139.1L216.8,139.1z"/>
		</g>
		<g id="XMLID_250_">
			<path id="XMLID_254_" class="st6" d="M215.1,171.5c-1.5,0-2.7-1.2-2.7-2.7c0-1.5,1.2-2.7,2.7-2.7c4.9,0,8.8-4,8.8-8.8v-6.1
				c0-2.2-1.7-3.9-3.9-3.9c-1.5,0-2.7-1.2-2.7-2.7c0-1.5,1.2-2.7,2.7-2.7h7.8c5.1,0.1,9.4,4.2,9.4,9.4v6.1c0,7.9-6.4,14.3-14.3,14.3
				L215.1,171.5L215.1,171.5z"/>
			<path id="XMLID_251_" class="st2" d="M227.8,144.5c3.6,0.1,6.6,3,6.6,6.7v6.1c0,6.4-5.2,11.6-11.6,11.6H215
				c6.4,0,11.6-5.2,11.6-11.6v-6.1c0-3.6-2.9-6.6-6.6-6.6L227.8,144.5 M227.8,139.1H220c-3,0-5.5,2.4-5.5,5.5c0,3,2.4,5.5,5.5,5.5
				c0.6,0,1.1,0.5,1.1,1.1v6.1c0,3.4-2.7,6.2-6.2,6.2c-3,0-5.5,2.4-5.5,5.5s2.4,5.5,5.5,5.5h7.8c9.4,0,17-7.6,17-17v-6.1
				C239.9,144.5,234.6,139.1,227.8,139.1C227.9,139.1,227.9,139.1,227.8,139.1L227.8,139.1z"/>
		</g>
		<g id="XMLID_245_">
			<path id="XMLID_249_" class="st3" d="M56.1,156.8c-3,0-5.4-2.3-5.4-5.4v-6.9c0-1.5,1.2-2.7,2.7-2.7h28.2c1.5,0,2.7,1.2,2.7,2.7
				v6.9c0,3-2.3,5.4-5.4,5.4H56.1z"/>
			<path id="XMLID_246_" class="st2" d="M81.6,144.5v6.9c0,1.5-1.1,2.6-2.6,2.6H56.2c-1.5,0-2.6-1.1-2.6-2.6v-6.9H81.6 M81.6,139.1
				H53.5c-3,0-5.5,2.4-5.5,5.5v6.9c0,4.4,3.6,8.1,8.1,8.1h22.9c4.4,0,8.1-3.6,8.1-8.1v-6.9C87.1,141.5,84.6,139.1,81.6,139.1
				L81.6,139.1z"/>
		</g>
		<g id="XMLID_240_">
			<path id="XMLID_244_" class="st4" d="M67.1,68.3c-9,0-16.3-7.3-16.3-16.3v-9.4c0-7.5,6.2-13.7,13.7-13.7h16.2
				c1.5,0,2.7,1.2,2.7,2.7v20.5c0,4.2-1.6,8.4-4.7,11.5C75.5,66.5,71.4,68.3,67.1,68.3z"/>
			<path id="XMLID_241_" class="st2" d="M80.7,31.5V52c0.1,7.5-6.1,13.6-13.6,13.6c-7.5,0-13.6-6.1-13.6-13.6v-9.4
				c0-6.1,4.9-10.9,10.9-10.9h16.2 M80.7,26.1H64.5c-9.1,0-16.4,7.4-16.4,16.4v9.4c0,10.5,8.6,19.1,19.1,19.1c5.1,0,10-2,13.5-5.6
				c3.6-3.6,5.5-8.4,5.5-13.4V31.5C86.1,28.5,83.6,26.1,80.7,26.1L80.7,26.1z"/>
		</g>
		<g id="XMLID_235_">
			<path id="XMLID_239_" class="st3" d="M94.3,68.3C85.3,68.3,78,61,78,52V31.5c0-1.5,1.2-2.7,2.7-2.7H108c1.5,0,2.7,1.2,2.7,2.7V52
				C110.7,60.9,103.3,68.3,94.3,68.3z"/>
			<path id="XMLID_236_" class="st2" d="M107.9,31.5v20.5c0,7.5-6.2,13.6-13.6,13.6c-7.5,0-13.6-6.1-13.6-13.6V31.5H107.9 M107.9,26
				H80.6c-3,0-5.5,2.4-5.5,5.5v20.5c0,10.5,8.6,19.1,19.1,19.1s19.1-8.6,19.1-19.1V31.5C113.3,28.5,110.9,26,107.9,26L107.9,26z"/>
		</g>
		<g id="XMLID_230_">
			<path id="XMLID_234_" class="st7" d="M94.3,68.3c-1.3,0-2.7-0.2-4.1-0.4c-1.2-0.3-2.1-1.4-2.1-2.6c0-1.2,0.9-2.3,2-2.6
				c4.9-1.2,8.1-5.6,8.1-10.6V31.5c0-1.5,1.2-2.7,2.7-2.7h6.8c1.5,0,2.7,1.2,2.7,2.7V52C110.7,60.9,103.3,68.3,94.3,68.3z"/>
			<path id="XMLID_231_" class="st2" d="M107.9,31.5v20.5c0,7.5-6.1,13.6-13.6,13.6c-1.1,0-2.3-0.2-3.4-0.3
				C96.8,63.6,101,58.3,101,52V31.5L107.9,31.5 M107.9,26H101c-3,0-5.5,2.4-5.5,5.5v20.5c0,3.7-2.5,7-6.2,7.9
				c-2.4,0.6-4.2,2.8-4.1,5.3c0,2.5,1.8,4.7,4.2,5.2c1.6,0.3,3.2,0.5,4.7,0.5c10.5,0,19.1-8.6,19.1-19.1V31.3
				C113.3,28.5,110.9,26,107.9,26L107.9,26z"/>
		</g>
		<g id="XMLID_225_">
			<path id="XMLID_229_" class="st4" d="M121.6,68.3c-9,0-16.3-7.3-16.3-16.3V31.5c0-1.5,1.2-2.7,2.7-2.7h27.3
				c1.5,0,2.7,1.2,2.7,2.7V52C137.9,60.9,130.5,68.3,121.6,68.3z"/>
			<path id="XMLID_226_" class="st2" d="M135.2,31.5v20.5c-0.1,7.5-6.2,13.6-13.6,13.6c-7.5,0-13.6-6.1-13.6-13.6V31.5H135.2
				 M135.2,26h-27.3c-3,0-5.5,2.4-5.5,5.5v20.5c0,10.5,8.6,19.1,19.1,19.1c10.4,0,19.1-8.6,19.1-19.1V31.5
				C140.6,28.5,138.2,26,135.2,26L135.2,26z"/>
		</g>
		<g id="XMLID_220_">
			<path id="XMLID_224_" class="st3" d="M148.8,68.3c-9,0-16.3-7.3-16.3-16.3V31.5c0-1.5,1.2-2.7,2.7-2.7h27.3
				c1.5,0,2.7,1.2,2.7,2.7V52C165.2,60.9,157.8,68.3,148.8,68.3z"/>
			<path id="XMLID_221_" class="st2" d="M162.5,31.5v20.5c0,7.5-6.1,13.6-13.6,13.6c-7.5,0-13.6-6.1-13.6-13.6V31.5H162.5 M162.5,26
				h-27.3c-3,0-5.5,2.4-5.5,5.5v20.5c0,10.5,8.6,19.1,19.1,19.1c10.5,0,19.1-8.6,19.1-19.1V31.5C167.9,28.5,165.4,26,162.5,26
				L162.5,26z"/>
		</g>
		<g id="XMLID_215_">
			<path id="XMLID_219_" class="st7" d="M148.8,68.3c-1.3,0-2.7-0.2-4.1-0.4c-1.2-0.3-2.1-1.4-2.1-2.6c0-1.2,0.9-2.3,2-2.6
				c4.9-1.2,8.1-5.6,8.1-10.6V31.5c0-1.5,1.2-2.7,2.7-2.7h6.8c1.5,0,2.7,1.2,2.7,2.7V52C165.2,60.9,157.8,68.3,148.8,68.3z"/>
			<path id="XMLID_216_" class="st2" d="M162.5,31.5v20.5c0,7.5-6.2,13.6-13.6,13.6c-1.1,0-2.3-0.2-3.4-0.3
				c5.9-1.6,10.1-6.8,10.1-13.2V31.5L162.5,31.5 M162.5,26h-6.8c-3,0-5.5,2.4-5.5,5.5v20.5c0,3.7-2.5,7-6.2,7.9
				c-2.4,0.6-4.2,2.8-4.1,5.3c0.1,2.5,1.8,4.7,4.2,5.2c1.6,0.3,3.2,0.5,4.7,0.5c10.5,0,19.1-8.6,19.1-19.1V31.3
				C167.9,28.5,165.4,26,162.5,26L162.5,26z"/>
		</g>
		<g id="XMLID_210_">
			<path id="XMLID_214_" class="st4" d="M176,68.3c-9,0-16.3-7.3-16.3-16.3V31.5c0-1.5,1.2-2.7,2.7-2.7h27.3c1.5,0,2.7,1.2,2.7,2.7
				V52C192.5,60.9,185,68.3,176,68.3z"/>
			<path id="XMLID_211_" class="st2" d="M189.7,31.5v20.5c0,7.5-6.1,13.6-13.6,13.6s-13.6-6.1-13.6-13.6V31.5H189.7 M189.7,26h-27.3
				c-3,0-5.5,2.4-5.5,5.5v20.5c0,10.5,8.6,19.1,19.1,19.1c10.5,0,19.1-8.6,19.1-19.1V31.5C195.2,28.5,192.6,26,189.7,26L189.7,26z"
				/>
		</g>
		<g id="XMLID_205_">
			<path id="XMLID_209_" class="st3" d="M203.3,68.3c-9,0-16.3-7.3-16.3-16.3V31.5c0-1.5,1.2-2.7,2.7-2.7h16.2
				c7.6,0,13.8,6.2,13.8,13.8V52C219.7,60.9,212.3,68.3,203.3,68.3z"/>
			<path id="XMLID_206_" class="st2" d="M205.9,31.5c6.1,0,11,4.9,11,11v9.4c0,7.5-6.1,13.6-13.6,13.6s-13.6-6.1-13.6-13.6V31.4
				L205.9,31.5 M205.9,26h-16.2c-3,0-5.5,2.4-5.5,5.5v20.5c0,10.5,8.6,19.1,19.1,19.1c5.1,0,9.9-1.9,13.5-5.6
				c3.6-3.6,5.6-8.4,5.6-13.4v-9.4C222.5,33.4,215,26,205.9,26L205.9,26z"/>
		</g>
		<g id="XMLID_200_">
			<path id="XMLID_204_" class="st7" d="M203.3,68.3c-1.3,0-2.6-0.2-4.1-0.4c-1.2-0.3-2.1-1.4-2.1-2.6c0-1.2,0.9-2.3,2-2.6
				c4.9-1.2,8.1-5.6,8.1-10.6v-9.4c0-4.6-3.7-8.2-8.3-8.2c-1.5,0-2.7-1.2-2.7-2.7c0-1.5,1.2-2.7,2.7-2.7h6.9
				c7.5,0,13.8,6.2,13.8,13.7v9.4C219.7,61,212.3,68.3,203.3,68.3z"/>
			<path id="XMLID_201_" class="st2" d="M206,31.5c6.2,0,11,4.9,11,10.9v9.4c0,7.5-6.2,13.6-13.6,13.6c-1.1,0-2.3-0.2-3.4-0.3
				c5.9-1.6,10.1-6.8,10.1-13.2v-9.4c0-6.1-4.9-10.9-11-10.9L206,31.5C205.9,31.5,206,31.5,206,31.5 M206,26.1L206,26.1h-6.9
				c-3,0-5.5,2.4-5.5,5.5s2.4,5.5,5.5,5.5c3.1,0,5.6,2.5,5.6,5.5v9.4c0,3.7-2.5,7-6.2,7.9c-2.4,0.6-4.2,2.8-4.1,5.3
				c0,2.5,1.8,4.7,4.2,5.2c1.6,0.3,3.2,0.5,4.7,0.5c10.5,0,19.1-8.6,19.1-19.1v-9.4C222.5,33.4,215,26.1,206,26.1L206,26.1z"/>
		</g>
		<g id="XMLID_195_">
			<path id="XMLID_199_" class="st4" d="M21.6,74.9c-4.4,0-8-3.6-8-8V25.6c0-4.4,3.6-8,8-8h41.2c4.4,0,8,3.6,8,8v41.2
				c0,4.4-3.6,8.1-8,8.1H21.6L21.6,74.9z"/>
			<path id="XMLID_196_" class="st2" d="M62.7,20.4c2.9,0,5.3,2.4,5.3,5.3v41.2c0,2.9-2.4,5.4-5.3,5.4H21.6c-2.9,0-5.3-2.4-5.3-5.3
				V25.7c0-2.9,2.4-5.3,5.3-5.3L62.7,20.4 M62.7,15H21.6c-5.9,0-10.7,4.9-10.7,10.7V67c0,5.9,4.9,10.7,10.7,10.7h41.2
				c5.9,0,10.7-4.9,10.7-10.8V25.7C73.5,19.8,68.7,15,62.7,15L62.7,15z"/>
		</g>
		<g id="XMLID_190_">
			<path id="XMLID_194_" class="st3" d="M53.9,74.9c-1.5,0-2.7-1.2-2.7-2.7s1.2-2.7,2.7-2.7c1.4,0,2.6-1.1,2.6-2.6V25.7
				c0-1.4-1.1-2.6-2.6-2.6c-1.5,0-2.7-1.2-2.7-2.7s1.2-2.7,2.7-2.7h8.8c4.4,0,8,3.6,8,8v41.2c0,4.4-3.6,8-8,8H53.9z"/>
			<path id="XMLID_191_" class="st2" d="M62.7,20.4c2.9,0,5.3,2.4,5.3,5.3v41.2c0,2.9-2.4,5.3-5.3,5.3h-8.8c2.9,0,5.3-2.4,5.3-5.3
				V25.7c0-2.9-2.4-5.3-5.3-5.3L62.7,20.4 M62.7,15h-8.8c-3,0-5.5,2.4-5.5,5.5c0,2.9,2.3,5.4,5.3,5.5v40.9c-2.9,0.1-5.3,2.5-5.3,5.5
				c0,3,2.4,5.5,5.5,5.5h8.8c5.9,0,10.7-4.9,10.7-10.7V25.8C73.5,19.8,68.7,15,62.7,15L62.7,15z"/>
		</g>
		<g id="XMLID_185_">
			<path id="XMLID_189_" class="st3" d="M210.5,108.1c-4.4,0-8-3.6-8-8V58.9c0-4.4,3.6-8,8-8h41.2c4.4,0,8,3.6,8,8v41.2
				c0,4.4-3.6,8-8,8H210.5z"/>
			<path id="XMLID_186_" class="st2" d="M251.7,53.5c2.9,0,5.3,2.4,5.3,5.3V100c0,2.9-2.4,5.3-5.3,5.3h-41.2c-2.9,0-5.3-2.4-5.3-5.3
				V58.8c0-2.9,2.4-5.3,5.3-5.3H251.7 M251.7,48.2h-41.2c-5.9,0-10.7,4.9-10.7,10.7v41.2c0,5.9,4.9,10.7,10.7,10.7h41.2
				c5.9,0,10.7-4.9,10.7-10.7V58.9C262.4,52.9,257.6,48.2,251.7,48.2L251.7,48.2z"/>
		</g>
		<g id="XMLID_180_">
			<path id="XMLID_184_" class="st8" d="M242.8,108.1c-1.5,0-2.7-1.2-2.7-2.7s1.2-2.7,2.7-2.7c1.4,0,2.6-1.1,2.6-2.6V58.9
				c0-1.4-1.1-2.6-2.6-2.6c-1.5,0-2.7-1.2-2.7-2.7c0-1.5,1.2-2.7,2.7-2.7h8.8c4.4,0,8,3.6,8,8v41.2c0,4.4-3.6,8-8,8H242.8z"/>
			<path id="XMLID_181_" class="st2" d="M251.7,53.5c2.9,0,5.3,2.4,5.3,5.3V100c0,2.9-2.4,5.3-5.3,5.3h-8.8c2.9,0,5.3-2.4,5.3-5.3
				V58.8c0-2.9-2.4-5.3-5.3-5.3H251.7 M251.7,48.2h-8.8c-3,0-5.5,2.4-5.5,5.5c0,2.9,2.3,5.4,5.3,5.5V100c-2.9,0.1-5.3,2.5-5.3,5.5
				c0,3,2.4,5.5,5.5,5.5h8.8c5.9,0,10.7-4.9,10.7-10.7V59C262.4,52.9,257.6,48.2,251.7,48.2L251.7,48.2z"/>
		</g>
		<g id="XMLID_175_">
			<path id="XMLID_179_" class="st5" d="M108.6,121.8c-3,0-5.4-2.3-5.4-5.4V95.4c0-3,2.3-5.4,5.4-5.4h53.2c2.9,0,5.4,2.4,5.4,5.4
				v21.1c0,2.9-2.4,5.4-5.4,5.4H108.6z"/>
			<path id="XMLID_176_" class="st2" d="M161.8,92.8c1.5,0,2.6,1.1,2.6,2.6v21.1c0,1.5-1.2,2.6-2.6,2.6h-53.2
				c-1.5,0-2.6-1.1-2.6-2.6V95.4c0-1.5,1.1-2.6,2.6-2.6H161.8 M161.8,87.3h-53.2c-4.4,0-8.1,3.6-8.1,8.1v21.1c0,4.4,3.6,8.1,8.1,8.1
				h53.2c4.4,0,8.1-3.6,8.1-8.1V95.4C169.8,91,166.2,87.3,161.8,87.3L161.8,87.3z"/>
		</g>
		<g id="XMLID_170_">
			<path id="XMLID_174_" class="st9" d="M114.4,116.2c-3,0-5.4-2.3-5.4-5.4V101c0-3,2.3-5.4,5.4-5.4h3.2c3,0,5.4,2.3,5.4,5.4v9.8
				c0,3-2.3,5.4-5.4,5.4H114.4z"/>
			<path id="XMLID_171_" class="st2" d="M117.6,98.4c1.5,0,2.6,1.1,2.6,2.6v9.8c0,1.5-1.1,2.6-2.6,2.6h-3.2c-1.5,0-2.6-1.1-2.6-2.6
				V101c0-1.5,1.1-2.6,2.6-2.6H117.6 M117.6,93h-3.2c-4.4,0-8.1,3.6-8.1,8.1v9.8c0,4.4,3.6,8.1,8.1,8.1h3.2c4.4,0,8.1-3.6,8.1-8.1
				V101C125.7,96.6,122,93,117.6,93L117.6,93z"/>
		</g>
		<g id="XMLID_165_">
			<path id="XMLID_169_" class="st9" d="M127.2,116.2c-3,0-5.4-2.3-5.4-5.4V101c0-3,2.3-5.4,5.4-5.4h3.2c3,0,5.4,2.3,5.4,5.4v9.8
				c0,3-2.3,5.4-5.4,5.4H127.2z"/>
			<path id="XMLID_166_" class="st2" d="M130.3,98.4c1.5,0,2.6,1.1,2.6,2.6v9.8c0,1.5-1.1,2.6-2.6,2.6h-3.2c-1.5,0-2.6-1.1-2.6-2.6
				V101c0-1.5,1.1-2.6,2.6-2.6H130.3 M130.3,93h-3.2c-4.4,0-8.1,3.6-8.1,8.1v9.8c0,4.4,3.6,8.1,8.1,8.1h3.2c4.4,0,8.1-3.6,8.1-8.1
				V101C138.5,96.6,134.8,93,130.3,93L130.3,93z"/>
		</g>
		<g id="XMLID_160_">
			<path id="XMLID_164_" class="st9" d="M140,116.2c-2.9,0-5.4-2.4-5.4-5.4V101c0-2.9,2.4-5.4,5.4-5.4h3.2c2.9,0,5.4,2.4,5.4,5.4
				v9.8c0,2.9-2.4,5.4-5.4,5.4H140z"/>
			<path id="XMLID_161_" class="st2" d="M143.2,98.4c1.5,0,2.6,1.1,2.6,2.6v9.8c0,1.5-1.1,2.6-2.6,2.6H140c-1.5,0-2.6-1.1-2.6-2.6
				V101c0-1.5,1.1-2.6,2.6-2.6H143.2 M143.2,93H140c-4.4,0-8.1,3.6-8.1,8.1v9.8c0,4.4,3.6,8.1,8.1,8.1h3.2c4.4,0,8.1-3.6,8.1-8.1
				V101C151.2,96.6,147.6,93,143.2,93L143.2,93z"/>
		</g>
		<g id="XMLID_155_">
			<path id="XMLID_159_" class="st9" d="M152.8,116.2c-2.9,0-5.4-2.4-5.4-5.4V101c0-2.9,2.4-5.4,5.4-5.4h3.2c2.9,0,5.4,2.4,5.4,5.4
				v9.8c0,2.9-2.4,5.4-5.4,5.4H152.8z"/>
			<path id="XMLID_156_" class="st2" d="M156,98.4c1.5,0,2.6,1.1,2.6,2.6v9.8c0,1.5-1.1,2.6-2.6,2.6h-3.2c-1.5,0-2.6-1.1-2.6-2.6
				V101c0-1.5,1.1-2.6,2.6-2.6H156 M156,93h-3.2c-4.4,0-8.1,3.6-8.1,8.1v9.8c0,4.4,3.6,8.1,8.1,8.1h3.2c4.4,0,8.1-3.6,8.1-8.1V101
				C164,96.6,160.4,93,156,93L156,93z"/>
		</g>
		<g id="XMLID_150_">
			<path id="XMLID_154_" class="st3" d="M69.8,98.2c-2.9,0-5.4-2.4-5.4-5.4c0-2.9,2.4-5.4,5.4-5.4H77c3,0,5.4,2.3,5.4,5.4
				s-2.3,5.4-5.4,5.4H69.8z"/>
			<path id="XMLID_151_" class="st2" d="M77,90.1c1.5,0,2.6,1.1,2.6,2.6c0,1.5-1.1,2.6-2.6,2.6h-7.3c-1.5,0-2.6-1.1-2.6-2.6
				c0-1.5,1.1-2.6,2.6-2.6H77 M77,84.7h-7.3c-4.4,0-8.1,3.6-8.1,8.1c0,4.4,3.6,8.1,8.1,8.1H77c4.4,0,8.1-3.6,8.1-8.1
				C85.1,88.3,81.5,84.7,77,84.7L77,84.7z"/>
		</g>
		<g id="XMLID_145_">
			<path id="XMLID_149_" class="st3" d="M69.8,112.3c-3,0-5.4-2.3-5.4-5.4s2.3-5.4,5.4-5.4h21.9c3,0,5.4,2.3,5.4,5.4
				c0,2.9-2.4,5.4-5.4,5.4H69.8z"/>
			<path id="XMLID_146_" class="st2" d="M91.7,104.3c1.5,0,2.6,1.1,2.6,2.6c0,1.5-1.2,2.6-2.6,2.6H69.8c-1.5,0-2.6-1.1-2.6-2.6
				c0-1.5,1.1-2.6,2.6-2.6H91.7 M91.7,98.9H69.8c-4.4,0-8.1,3.6-8.1,8.1c0,4.4,3.6,8.1,8.1,8.1h21.9c4.4,0,8.1-3.6,8.1-8.1
				C99.7,102.5,96.1,98.9,91.7,98.9L91.7,98.9z"/>
		</g>
		<g id="XMLID_140_">
			<path id="XMLID_144_" class="st3" d="M69.8,121c-3,0-5.4-2.3-5.4-5.4s2.3-5.4,5.4-5.4h21.9c3,0,5.4,2.3,5.4,5.4
				c0,2.9-2.4,5.4-5.4,5.4H69.8z"/>
			<path id="XMLID_141_" class="st2" d="M91.7,112.9c1.5,0,2.6,1.1,2.6,2.6s-1.2,2.6-2.6,2.6H69.8c-1.5,0-2.6-1.1-2.6-2.6
				s1.1-2.6,2.6-2.6H91.7 M91.7,107.5H69.8c-4.4,0-8.1,3.6-8.1,8.1c0,4.4,3.6,8.1,8.1,8.1h21.9c4.4,0,8.1-3.6,8.1-8.1
				C99.7,111.2,96.1,107.5,91.7,107.5L91.7,107.5z"/>
		</g>
		<g id="XMLID_133_">
			<path id="XMLID_139_" class="st2" d="M42.2,66.3c-2.6,0-4.6-1.7-5.2-4.1h-0.9c-3,0-5.4-2.3-5.4-5.4s2.3-5.4,5.4-5.4h0.7v-0.2
				c-4.9-1-8.8-5.3-8.8-10.5c0-5.3,3.9-9.7,8.9-10.6c0.5-2.4,2.6-4.2,5.2-4.2s4.6,1.7,5.2,4.1h0.9c3,0,5.4,2.3,5.4,5.4
				c0,3-2.3,5.4-5.4,5.4h-0.7v0.2c4.9,1,8.8,5.3,8.8,10.5c0,5.3-3.9,9.7-8.9,10.6C46.9,64.6,44.8,66.3,42.2,66.3z"/>
			<path id="XMLID_134_" class="st2" d="M42.2,28.9c1.5,0,2.6,1.1,2.6,2.6v1.4h3.4c1.5,0,2.6,1.1,2.6,2.6c0,1.5-1.1,2.6-2.6,2.6
				h-3.4v5.5h0.8c4.3,0,8,3.6,8,8c0,4.3-3.6,8-8,8h-0.8v1.4c0,1.5-1.1,2.6-2.6,2.6s-2.6-1.1-2.6-2.6v-1.4h-3.4
				c-1.5,0-2.6-1.1-2.6-2.6c0-1.5,1.1-2.6,2.6-2.6h3.4v-5.5h-0.8c-4.3,0-8-3.6-8-8s3.6-8,8-8h0.8v-1.3
				C39.5,30.1,40.7,28.9,42.2,28.9 M39.4,43.8v-5.5h-0.8c-1.5,0-2.7,1.2-2.7,2.7c0,1.5,1.2,2.7,2.7,2.7L39.4,43.8 M44.8,54.3h0.8
				c1.5,0,2.7-1.2,2.7-2.7c0-1.5-1.2-2.7-2.7-2.7h-0.8V54.3 M42.2,23.5c-3.2,0-6,1.9-7.3,4.6c-5.5,1.6-9.5,6.8-9.5,12.8
				c0,4.2,1.9,8,4.9,10.4c-1.4,1.5-2.3,3.4-2.3,5.6c0,4.2,3.1,7.5,7.1,8c1.4,2.4,4.1,4.1,7,4.1c3.2,0,6-1.9,7.3-4.6
				c5.5-1.6,9.5-6.8,9.5-12.8c0-4.2-1.9-8-4.9-10.4c1.4-1.5,2.3-3.4,2.3-5.6c0-4.2-3.1-7.5-7.1-8C47.7,25,45.2,23.5,42.2,23.5
				L42.2,23.5z"/>
		</g>
		<g id="XMLID_128_">
			<path id="XMLID_132_" class="st10" d="M130.6,147.9c-2.9,0-5.4-2.4-5.4-5.4s2.4-5.4,5.4-5.4h9.2c3,0,5.4,2.3,5.4,5.4
				s-2.3,5.4-5.4,5.4H130.6z"/>
			<path id="XMLID_129_" class="st2" d="M139.8,139.9c1.5,0,2.6,1.1,2.6,2.6c0,1.5-1.1,2.6-2.6,2.6h-9.2c-1.5,0-2.6-1.1-2.6-2.6
				c0-1.5,1.1-2.6,2.6-2.6H139.8 M139.8,134.5h-9.2c-4.4,0-8.1,3.6-8.1,8.1s3.6,8.1,8.1,8.1h9.2c4.4,0,8.1-3.6,8.1-8.1
				S144.2,134.5,139.8,134.5L139.8,134.5z"/>
		</g>
		<g id="XMLID_87_">
			<path id="XMLID_116_" class="st1" d="M47.6,174.2c-9.4,0-16.9-7.6-16.9-16.9v-6.1c0-6.6,5.4-12,12-12h5.6v-7.8
				c0-3,2.3-5.4,5.4-5.4h158.2v-15.4h-1.1c-5.9,0-10.7-4.8-10.7-10.7V70.5c-3.9-0.7-7.4-2.6-10.1-5.5c-3.6,3.6-8.5,5.7-13.6,5.7
				c-5.2,0-10.1-2.1-13.6-5.7c-3.6,3.6-8.5,5.7-13.6,5.7c-5.1,0-10.1-2.1-13.6-5.7c-3.6,3.6-8.5,5.7-13.6,5.7s-10.1-2.1-13.6-5.7
				c-3.6,3.6-8.5,5.7-13.6,5.7c-5.2,0-10.1-2.1-13.7-5.7c-2.2,2.2-4.9,3.9-7.7,4.9c-1.3,4.4-5.5,7.5-10.1,7.5h-4v39.1
				c0,2.9-2.4,5.4-5.4,5.4c-2.9,0-5.4-2.4-5.4-5.4V77.5H21.9c-5.9,0-10.7-4.8-10.7-10.7V25.6C11.3,19.8,16,15,21.9,15h41.2
				c5.9,0,10.7,4.8,10.7,10.7v0.4h132.5c9,0,16.3,7.3,16.3,16.3v5.7h29.4c5.9,0,10.7,4.8,10.7,10.7V100c0,5.9-4.8,10.7-10.7,10.7
				h-29.3v28.5h5.6c6.6,0,12,5.4,12,12v6.1c0,9.4-7.6,16.9-16.9,16.9L47.6,174.2L47.6,174.2z M42.5,149.8c-0.7,0-1.2,0.5-1.2,1.2
				v6.1c0,3.4,2.8,6.2,6.2,6.2H223c3.4,0,6.2-2.8,6.2-6.2V151c0-0.7-0.6-1.2-1.3-1.2h-5.6v1.6c0,4.4-3.6,8-8,8h-22.9
				c-4.4,0-8-3.6-8-8v-1.6h-10.3l-2.7,5c-1.3,2.6-4.1,4.2-7.1,4.2h-56c-3,0-5.6-1.6-7.1-4.2l-2.7-5H87.2v1.6c0,4.4-3.6,8-8,8H56.3
				c-4.4,0-8-3.6-8-8v-1.6H42.5z M207.1,148.8c-1.2-1-2-2.5-2-4.2c0-3,2.3-5.4,5.4-5.4h1.1v-2.4H58.8v2.4h40.3c3,0,5.6,1.6,7.1,4.2
				l2.7,5h52.8l2.7-5c1.3-2.6,4.1-4.2,7.1-4.2h24.4c3,0,5.4,2.3,5.4,5.4c0,1.7-0.8,3.3-2,4.2H207.1z M251.7,100V59h-41v41H251.7z
				 M62.7,66.8v-41h-41v41.1L62.7,66.8z M167.8,51.9c0,4.6,3.7,8.2,8.2,8.2c4.5,0,8.2-3.7,8.2-8.2V36.8h-16.6L167.8,51.9L167.8,51.9
				z M140.6,51.9c0,4.6,3.7,8.2,8.2,8.2c4.5,0,8.2-3.7,8.2-8.2V36.8h-16.6L140.6,51.9L140.6,51.9z M113.3,51.9
				c0,4.6,3.7,8.2,8.2,8.2s8.2-3.7,8.2-8.3v-15h-16.6L113.3,51.9L113.3,51.9z M86,51.9c0,4.6,3.7,8.2,8.2,8.2s8.2-3.7,8.2-8.2V36.8
				H86V51.9z M195.1,51.9c0,3.3,1.9,6.2,4.8,7.5V59c0-5.9,4.8-10.7,10.7-10.7h1.1v-5.7c0-3.1-2.6-5.6-5.6-5.6h-10.9V51.9L195.1,51.9
				z M73.4,57.2c1.1-1.5,1.9-3.3,1.9-5.3V36.8h-1.9V57.2z"/>
			<path id="XMLID_88_" class="st2" d="M62.7,17.8c4.3,0,7.9,3.6,7.9,7.9v3.2h135.3c7.5,0,13.6,6.1,13.6,13.6v8.5h32.1
				c4.3,0,7.9,3.6,7.9,7.9V100c0,4.3-3.6,7.9-7.9,7.9h-32v34h8.4c5.1,0,9.3,4.2,9.3,9.3v6.1c0,7.9-6.4,14.2-14.2,14.2H47.6
				c-7.9,0-14.2-6.4-14.2-14.2v-6.1c0-5.1,4.2-9.3,9.3-9.3H51v-10.5c0-1.5,1.1-2.6,2.6-2.6h160.9V108h-3.9c-4.3,0-7.9-3.6-7.9-7.9
				V68.2c-5.4-0.3-10.1-3.2-12.8-7.4c-2.9,4.4-7.9,7.4-13.6,7.4c-5.7,0-10.7-2.9-13.6-7.4c-2.9,4.4-7.9,7.4-13.6,7.4
				c-5.7,0-10.7-2.9-13.6-7.4c-2.9,4.4-7.9,7.4-13.6,7.4c-5.6,0-10.7-2.9-13.6-7.4c-2.9,4.4-7.9,7.4-13.6,7.4
				c-5.7,0-10.7-2.9-13.6-7.4c-2.3,3.4-5.8,6.1-10.1,7c-0.3,4-3.8,7-7.9,7h-6.7v41.8c0,1.5-1.1,2.6-2.6,2.6c-1.5,0-2.6-1.1-2.6-2.6
				V74.9H22.1c-4.3,0-7.9-3.6-7.9-7.9V25.8c0-4.3,3.6-7.9,7.9-7.9L62.7,17.8 M21.6,69.5h41.2c1.5,0,2.6-1.1,2.6-2.6V25.6
				c0-1.5-1.1-2.6-2.6-2.6H21.6c-1.5,0-2.6,1.1-2.6,2.6v41.2C19,68.4,20.1,69.5,21.6,69.5 M202.5,62.9v-4c0-4.3,3.6-7.9,7.9-7.9h3.9
				v-8.5c0-4.7-3.8-8.4-8.4-8.4h-13.6v17.8C192.4,57.7,196.9,62.5,202.5,62.9 M176,62.9c6.1,0,10.9-4.9,10.9-10.9V34.1h-22v17.8
				C165.1,58,170,62.9,176,62.9 M148.8,62.9c6.1,0,10.9-4.9,10.9-10.9V34.1h-22v17.8C137.8,58,142.7,62.9,148.8,62.9 M121.6,62.9
				c6.1,0,10.9-4.9,10.9-10.9V34.1h-22v17.8C110.6,58,115.5,62.9,121.6,62.9 M94.3,62.9c6.1,0,10.9-4.9,10.9-10.9V34.1h-22v17.8
				C83.3,58,88.2,62.9,94.3,62.9 M70.7,62.2c4.2-1.6,7.4-5.6,7.4-10.3V34.1h-7.4V62.2 M210.5,102.7h41.2c1.5,0,2.6-1.1,2.6-2.6V58.9
				c0-1.5-1.1-2.6-2.6-2.6h-41.2c-1.5,0-2.6,1.1-2.6,2.6v41.2C207.9,101.6,209,102.7,210.5,102.7 M56,141.9H99
				c1.9,0,3.7,1.1,4.7,2.8l3.5,6.5h56l3.5-6.5c1-1.7,2.7-2.8,4.7-2.8h24.4c1.5,0,2.6,1.1,2.6,2.6c0,1.5-1.1,2.6-2.6,2.6h-4.3v4.2
				h22.9v-4.2h-3.7c-1.5,0-2.6-1.1-2.6-2.6c0-1.5,1.1-2.6,2.6-2.6h3.8v-7.9H56.1L56,141.9 M56.1,156.8c-2.9,0-5.3-2.4-5.3-5.3v-4.2
				h-8.3c-2.2,0-4,1.8-4,4v6.1c0,4.9,4.1,8.9,8.9,8.9h175.5c4.9,0,8.9-4.1,8.9-8.9v-6.1c0-2.2-1.8-4-4.1-4h-8.4v4.2
				c0,2.9-2.4,5.3-5.3,5.3h-22.9c-2.9,0-5.3-2.4-5.3-5.3v-4.2h-14.6l-3.5,6.5c-1,1.7-2.7,2.8-4.7,2.8h-56c-1.9,0-3.7-1.1-4.7-2.8
				l-3.5-6.5H84.2v4.2c0,2.9-2.4,5.3-5.3,5.3H56.1 M56.1,151.5h22.9v-4.2H56.1V151.5 M62.7,12.3H21.6c-7.4,0-13.3,6-13.3,13.3v41.2
				c0,7.4,6,13.3,13.3,13.3h23.7v36.4c0,3.4,2.1,6.2,4.9,7.5c-2.9,1.2-4.9,4.2-4.9,7.5v5h-2.9c-8.1,0-14.6,6.6-14.6,14.6v6.1
				c0,10.8,8.8,19.7,19.7,19.7H223c10.8,0,19.7-8.8,19.7-19.7v-6.1c0-8.1-6.6-14.6-14.6-14.6h-2.9v-23.1h26.6
				c7.4,0,13.3-6,13.3-13.3V58.9c0-7.4-6-13.3-13.3-13.3h-26.6v-3c0-10.5-8.6-19.1-19.1-19.1H76C74.9,17.1,69.4,12.3,62.7,12.3
				L62.7,12.3z M24.4,28.5h35.6v35.6H24.4V28.5L24.4,28.5z M197.8,39.5h8.1c1.6,0,2.9,1.3,2.9,2.9v3.1c-4.9,0.5-8.9,3.8-10.8,8.1
				c-0.3-0.6-0.3-1.2-0.3-1.9L197.8,39.5L197.8,39.5z M170.5,39.5h11.1v12.4c0,3-2.5,5.5-5.5,5.5s-5.5-2.5-5.5-5.5L170.5,39.5
				L170.5,39.5z M143.2,39.5h11.1v12.4c0,3-2.5,5.5-5.5,5.5c-3,0-5.5-2.5-5.5-5.5L143.2,39.5L143.2,39.5z M115.9,39.5H127v12.3
				c0,3.1-2.5,5.6-5.5,5.6s-5.5-2.5-5.5-5.5L115.9,39.5L115.9,39.5z M88.7,39.5h11.1v12.4c0,3-2.5,5.5-5.5,5.5c-3,0-5.5-2.5-5.5-5.5
				V39.5L88.7,39.5z M213.4,61.7H249v35.6h-35.6V61.7L213.4,61.7z M75.1,72c2-0.8,3.9-1.9,5.6-3.3c3.8,3.1,8.7,4.9,13.7,4.9
				s9.8-1.7,13.6-4.9c3.8,3.1,8.7,4.9,13.6,4.9c5,0,9.8-1.7,13.6-4.9c3.8,3.1,8.7,4.9,13.6,4.9c5,0,9.8-1.7,13.6-4.9
				c3.8,3.1,8.7,4.9,13.6,4.9c5,0,9.8-1.7,13.6-4.9c2.2,1.8,4.8,3.1,7.4,3.9V100c0,6.8,5.1,12.5,11.8,13.3v10.1H57.6
				c2.3-1.4,3.7-4,3.7-6.8V80.1h1.2C68.4,80.2,73.1,76.9,75.1,72L75.1,72z M202.1,139.5h2.2c-0.4,0.5-0.8,1.1-1.1,1.8
				C202.9,140.6,202.4,140,202.1,139.5L202.1,139.5z M106.6,139.5h57.3c-0.8,0.8-1.4,1.6-1.9,2.6l-1.9,3.6h-49.5l-1.9-3.6
				C108,141.2,107.4,140.3,106.6,139.5L106.6,139.5z M89.7,152.6h6.2l1.9,3.6c1,1.9,2.6,3.5,4.4,4.4H84.5
				C87.3,159,89.3,156.1,89.7,152.6L89.7,152.6z M43.9,152.6h1.5c0.3,3.4,2.4,6.4,5.3,8.1h-3.3c-1.9,0-3.5-1.6-3.5-3.5V152.6
				L43.9,152.6z M224.8,152.6h1.6v4.6c0,1.9-1.6,3.5-3.5,3.5h-3.3C222.5,159,224.4,156.1,224.8,152.6L224.8,152.6z M174.5,152.6h6.1
				c0.3,3.4,2.3,6.4,5.1,8.1h-17.6c1.9-1,3.4-2.5,4.4-4.4L174.5,152.6L174.5,152.6z"/>
		</g>
		<g id="XMLID_81_">
			<circle id="XMLID_86_" class="st5" cx="221.9" cy="70.4" r="9.5"/>
			<path id="XMLID_82_" class="st2" d="M221.9,63.5c3.8,0,6.8,3,6.8,6.8c0,3.7-3,6.8-6.8,6.8c-3.8,0-6.8-3-6.8-6.8
				S218.1,63.5,221.9,63.5 M221.9,72c1,0,1.6-0.8,1.6-1.6c0-0.9-0.7-1.6-1.6-1.6c-1,0-1.6,0.8-1.6,1.6C220.4,71.3,221.1,72,221.9,72
				 M221.9,58.1c-6.8,0-12.3,5.5-12.3,12.3s5.5,12.3,12.3,12.3s12.3-5.5,12.3-12.3S228.8,58.1,221.9,58.1L221.9,58.1z"/>
		</g>
		<g id="XMLID_75_">
			<circle id="XMLID_80_" class="st5" cx="240.1" cy="88.6" r="9.5"/>
			<path id="XMLID_76_" class="st2" d="M240.1,81.7c3.8,0,6.8,3,6.8,6.8s-3.1,6.8-6.8,6.8c-3.8,0-6.8-3-6.8-6.8
				S236.3,81.7,240.1,81.7 M240.1,90.1c1,0,1.6-0.8,1.6-1.6c0-0.9-0.8-1.6-1.6-1.6c-1,0-1.6,0.8-1.6,1.6
				C238.6,89.4,239.3,90.1,240.1,90.1 M240.1,76.3c-6.8,0-12.3,5.5-12.3,12.3s5.5,12.3,12.3,12.3c6.8,0,12.3-5.5,12.3-12.3
				C252.5,81.8,247,76.3,240.1,76.3L240.1,76.3z"/>
		</g>
		<g id="XMLID_70_">
			<path id="XMLID_74_" class="st5" d="M223.6,92.4c-1.5,0-2.9-0.6-3.8-1.6c-2.1-2.1-2.1-5.5,0.1-7.5l15-15c1-1,2.4-1.6,3.8-1.6
				c1.4,0,2.8,0.5,3.8,1.6c2.1,2.1,2.1,5.5,0,7.6l-15,15C226.4,91.8,225,92.4,223.6,92.4z"/>
			<path id="XMLID_71_" class="st2" d="M238.6,69.2c0.7,0,1.3,0.3,1.9,0.8c1.1,1.1,1.1,2.7,0,3.7l-15,15c-0.5,0.5-1.2,0.8-1.9,0.8
				s-1.4-0.3-1.9-0.8c-1.1-1.1-1.1-2.7,0-3.7l15-15C237.3,69.5,237.9,69.2,238.6,69.2 M238.6,63.9c-2.2,0-4.2,0.9-5.7,2.4l-15,15
				c-3.1,3.1-3.2,8.1-0.1,11.4c1.5,1.6,3.6,2.5,5.8,2.5c2.2,0,4.2-0.9,5.7-2.4l15-15c3.2-3.2,3.2-8.3,0-11.4
				C242.8,64.7,240.7,63.9,238.6,63.9L238.6,63.9z"/>
		</g>
	</g>
	<g id="XMLID_3_">
		<path id="XMLID_68_" class="st11" d="M242.1,63.1h-34.7V52c0-6.1-4.9-11-10.9-11H58.6v-5.8c0-2.9-2.4-5.3-5.3-5.3H12.1
			c-2.9,0-5.3,2.4-5.3,5.3v41.2c0,2.9,2.4,5.3,5.3,5.3h31.8v72.4H33c-3.6,0-6.6,2.9-6.6,6.6v6.2c0,6.4,5.2,11.6,11.6,11.6h175.5
			c6.4,0,11.6-5.2,11.6-11.6v-6.1c0-3.6-2.9-6.6-6.6-6.6h-10.9v-39.3h34.7c2.9,0,5.3-2.4,5.3-5.3V68.5
			C247.4,65.5,245.1,63.1,242.1,63.1L242.1,63.1z"/>
		<path id="XMLID_67_" class="st2" d="M217,42.5v110.4c0,1.5-1.1,2.6-2.6,2.6h-161v-113c0-6.1,4.9-10.9,10.9-10.9h141.5
			C212.1,31.5,217,36.4,217,42.5L217,42.5z"/>
		<path id="XMLID_66_" class="st3" d="M153.1,99.3c-0.8,0-1.5-0.3-2-1l-15.9-18.5l-15.9,18.5c-1,1.1-2.6,1.2-3.7,0.3
			c-1.1-1-1.2-2.6-0.3-3.7L133.2,74c0.4-0.5,1.2-1,2-1c0.8,0,1.5,0.3,2,1L155,94.9c1,1.1,0.9,2.8-0.3,3.7
			C154.3,99.1,153.7,99.3,153.1,99.3z"/>
		<g id="XMLID_59_">
			<circle id="XMLID_65_" class="st4" cx="176.3" cy="79.5" r="2.9"/>
			<circle id="XMLID_64_" class="st4" cx="185.3" cy="79.5" r="2.9"/>
			<circle id="XMLID_63_" class="st4" cx="194.2" cy="79.5" r="2.9"/>
			<circle id="XMLID_62_" class="st4" cx="176.3" cy="88.6" r="2.9"/>
			<circle id="XMLID_61_" class="st4" cx="185.3" cy="88.6" r="2.9"/>
			<circle id="XMLID_60_" class="st4" cx="194.2" cy="88.6" r="2.9"/>
		</g>
		<path id="XMLID_58_" class="st4" d="M161.8,123h-53.2c-1.5,0-2.6-1.1-2.6-2.6V99.4c0-1.5,1.1-2.6,2.6-2.6h53.2
			c1.5,0,2.6,1.1,2.6,2.6v21.1C164.4,121.8,163.3,123,161.8,123z"/>
		<path id="XMLID_57_" class="st5" d="M68,34.1v41.2c0,2.9-2.4,5.3-5.3,5.3h-9.4v-38c0-6.1,4.9-10.9,10.9-10.9h2.9
			C67.8,32.3,68,33.2,68,34.1z"/>
		<path id="XMLID_56_" class="st5" d="M217,62v51.7h-6.5c-2.9,0-5.3-2.4-5.3-5.3V67.3c0-2.9,2.4-5.3,5.3-5.3H217z"/>
		<path id="XMLID_55_" class="st5" d="M217,42.5v23.9c-3.6,3.4-8.3,5.4-13.6,5.4c-5.3,0-10.1-2.1-13.6-5.4
			c-3.6,3.4-8.3,5.4-13.6,5.4s-10.1-2.1-13.6-5.4c-3.6,3.4-8.3,5.4-13.6,5.4s-10.1-2.1-13.6-5.4c-3.6,3.4-8.3,5.4-13.6,5.4
			c-5.3,0-10.1-2.1-13.6-5.4c-3.6,3.4-8.3,5.4-13.6,5.4c-5.3,0-10.1-2.1-13.6-5.4c-3.6,3.4-8.3,5.4-13.6,5.4s-10.1-2.1-13.6-5.4
			V42.5c0-6.1,4.9-10.9,10.9-10.9h141.5C212.1,31.5,217,36.4,217,42.5L217,42.5z"/>
		<path id="XMLID_54_" class="st4" d="M217,131.5v21.4c0,1.5-1.1,2.6-2.6,2.6h-161v-24.1L217,131.5L217,131.5z"/>
		<path id="XMLID_53_" class="st5" d="M234.5,151.1v6.1c0,6.4-5.2,11.6-11.6,11.6H47.4c-6.4,0-11.6-5.2-11.6-11.6v-6.1
			c0-3.6,2.9-6.6,6.6-6.6H99c1,0,1.9,0.5,2.3,1.4l3.5,6.5c0.4,0.9,1.4,1.4,2.3,1.4h56c1,0,1.9-0.5,2.3-1.4l3.5-6.5
			c0.4-0.9,1.4-1.4,2.3-1.4H228C231.5,144.5,234.5,147.5,234.5,151.1L234.5,151.1z"/>
		<path id="XMLID_52_" class="st3" d="M214.2,154.1h-22.9c-1.5,0-2.6-1.1-2.6-2.6v-6.9h28.2v6.9
			C216.8,152.9,215.7,154.1,214.2,154.1z"/>
		<path id="XMLID_51_" class="st6" d="M234.5,151.1v6.1c0,6.4-5.2,11.6-11.6,11.6h-7.8c6.4,0,11.6-5.2,11.6-11.6v-6.1
			c0-3.6-2.9-6.6-6.6-6.6h7.8C231.5,144.5,234.5,147.5,234.5,151.1z"/>
		<path id="XMLID_50_" class="st3" d="M79,154.1H56.2c-1.5,0-2.6-1.1-2.6-2.6v-6.9h28.2v6.9C81.6,152.9,80.5,154.1,79,154.1
			L79,154.1z"/>
		<path id="XMLID_49_" class="st4" d="M67.1,65.5c-7.5,0-13.6-6.1-13.6-13.6v-9.4c0-6.1,4.9-10.9,10.9-10.9h16.2v20.5
			C80.7,59.4,74.5,65.5,67.1,65.5z"/>
		<path id="XMLID_48_" class="st3" d="M94.3,65.5c-7.5,0-13.6-6.1-13.6-13.6V31.5H108V52C107.9,59.4,101.7,65.5,94.3,65.5z"/>
		<path id="XMLID_47_" class="st7" d="M107.9,31.5v20.5c0,7.5-6.1,13.6-13.6,13.6c-1.1,0-2.3-0.2-3.4-0.3C96.8,63.6,101,58.3,101,52
			V31.5L107.9,31.5L107.9,31.5z"/>
		<path id="XMLID_46_" class="st4" d="M121.6,65.5c-7.5,0-13.6-6.1-13.6-13.6V31.5h27.3V52C135.2,59.4,129,65.5,121.6,65.5z"/>
		<path id="XMLID_45_" class="st3" d="M148.8,65.5c-7.5,0-13.6-6.1-13.6-13.6V31.5h27.3V52C162.5,59.4,156.3,65.5,148.8,65.5
			L148.8,65.5z"/>
		<path id="XMLID_44_" class="st7" d="M162.5,31.5v20.5c0,7.5-6.2,13.6-13.6,13.6c-1.1,0-2.3-0.2-3.4-0.3
			c5.9-1.6,10.1-6.8,10.1-13.2V31.5L162.5,31.5L162.5,31.5z"/>
		<path id="XMLID_43_" class="st4" d="M176,65.5c-7.5,0-13.6-6.1-13.6-13.6V31.5h27.3V52C189.7,59.4,183.5,65.5,176,65.5L176,65.5z"
			/>
		<path id="XMLID_42_" class="st3" d="M203.3,65.5c-7.5,0-13.6-6.1-13.6-13.6V31.5h16.2c6.1,0,11,4.9,11,11v9.4
			C217,59.4,210.8,65.5,203.3,65.5L203.3,65.5z"/>
		<path id="XMLID_41_" class="st7" d="M217,42.5v9.4c0,7.5-6.2,13.6-13.6,13.6c-1.1,0-2.3-0.2-3.4-0.3c5.9-1.6,10.1-6.8,10.1-13.2
			v-9.4c0-6.1-4.9-10.9-11-10.9h6.8C212.1,31.5,217,36.4,217,42.5z"/>
		<path id="XMLID_40_" class="st4" d="M62.7,72.2H21.6c-2.9,0-5.3-2.4-5.3-5.3V25.6c0-2.9,2.4-5.3,5.3-5.3h41.2
			c2.9,0,5.3,2.4,5.3,5.3v41.2C68,69.8,65.7,72.2,62.7,72.2z"/>
		<path id="XMLID_39_" class="st3" d="M68,25.7v41.2c0,2.9-2.4,5.3-5.3,5.3h-8.8c2.9,0,5.3-2.4,5.3-5.3V25.7c0-2.9-2.4-5.3-5.3-5.3
			h8.8C65.7,20.4,68,22.7,68,25.7z"/>
		<path id="XMLID_38_" class="st3" d="M251.7,105.3h-41.2c-2.9,0-5.3-2.4-5.3-5.3V58.8c0-2.9,2.4-5.3,5.3-5.3h41.2
			c2.9,0,5.3,2.4,5.3,5.3V100C257,103,254.6,105.3,251.7,105.3z"/>
		<path id="XMLID_37_" class="st8" d="M257,58.8V100c0,2.9-2.4,5.3-5.3,5.3h-8.8c2.9,0,5.3-2.4,5.3-5.3V58.8c0-2.9-2.4-5.3-5.3-5.3
			h8.8C254.6,53.5,257,55.9,257,58.8z"/>
		<path id="XMLID_36_" class="st5" d="M161.8,119.1h-53.2c-1.5,0-2.6-1.1-2.6-2.6V95.5c0-1.5,1.1-2.6,2.6-2.6h53.2
			c1.5,0,2.6,1.1,2.6,2.6v21.1C164.4,118,163.3,119.1,161.8,119.1z"/>
		<path id="XMLID_35_" class="st9" d="M114.4,113.5h3.2c1.5,0,2.6-1.1,2.6-2.6v-9.8c0-1.5-1.1-2.6-2.6-2.6h-3.2
			c-1.5,0-2.6,1.1-2.6,2.6v9.8C111.7,112.3,112.9,113.5,114.4,113.5z"/>
		<path id="XMLID_34_" class="st9" d="M127.2,113.5h3.2c1.5,0,2.6-1.1,2.6-2.6v-9.8c0-1.5-1.1-2.6-2.6-2.6h-3.2
			c-1.5,0-2.6,1.1-2.6,2.6v9.8C124.5,112.3,125.7,113.5,127.2,113.5L127.2,113.5z"/>
		<path id="XMLID_33_" class="st9" d="M140,113.5h3.2c1.5,0,2.6-1.1,2.6-2.6v-9.8c0-1.5-1.1-2.6-2.6-2.6H140c-1.5,0-2.6,1.1-2.6,2.6
			v9.8C137.4,112.3,138.5,113.5,140,113.5z"/>
		<path id="XMLID_32_" class="st9" d="M152.8,113.5h3.2c1.5,0,2.6-1.1,2.6-2.6v-9.8c0-1.5-1.1-2.6-2.6-2.6h-3.2
			c-1.5,0-2.6,1.1-2.6,2.6v9.8C150.1,112.3,151.2,113.5,152.8,113.5z"/>
		<path id="XMLID_31_" class="st3" d="M77,95.5h-7.3c-1.5,0-2.6-1.1-2.6-2.6c0-1.5,1.1-2.6,2.6-2.6H77c1.5,0,2.6,1.1,2.6,2.6
			C79.6,94.3,78.4,95.5,77,95.5z"/>
		<path id="XMLID_30_" class="st3" d="M91.7,109.6H69.8c-1.5,0-2.6-1.1-2.6-2.6c0-1.5,1.1-2.6,2.6-2.6h21.9c1.5,0,2.6,1.1,2.6,2.6
			C94.3,108.5,93.1,109.6,91.7,109.6z"/>
		<path id="XMLID_29_" class="st3" d="M91.7,118.2H69.8c-1.5,0-2.6-1.1-2.6-2.6s1.1-2.6,2.6-2.6h21.9c1.5,0,2.6,1.1,2.6,2.6
			S93.1,118.2,91.7,118.2z"/>
		<path id="XMLID_25_" class="st2" d="M45.6,43.7h-0.8v-5.5h3.4c1.5,0,2.6-1.1,2.6-2.6c0-1.5-1.1-2.6-2.6-2.6h-3.4v-1.5
			c0-1.5-1.1-2.6-2.6-2.6c-1.5,0-2.6,1.1-2.6,2.6v1.4h-0.8c-4.3,0-8,3.6-8,8s3.6,8,8,8h0.8v5.5h-3.4c-1.5,0-2.6,1.1-2.6,2.6
			c0,1.5,1.1,2.6,2.6,2.6h3.4v1.4c0,1.5,1.1,2.6,2.6,2.6c1.5,0,2.6-1.1,2.6-2.6v-1.4h0.8c4.3,0,8-3.6,8-8
			C53.6,47.2,50,43.7,45.6,43.7z M38.6,43.7c-1.5,0-2.7-1.2-2.7-2.7c0-1.5,1.2-2.7,2.7-2.7h0.8v5.5L38.6,43.7L38.6,43.7z M45.6,54.3
			h-0.8v-5.5h0.8c1.5,0,2.7,1.2,2.7,2.7C48.4,53.1,47.1,54.3,45.6,54.3z"/>
		<path id="XMLID_24_" class="st10" d="M139.8,139.9h-9.2c-1.5,0-2.6,1.1-2.6,2.6c0,1.5,1.1,2.6,2.6,2.6h9.2c1.5,0,2.6-1.1,2.6-2.6
			C142.4,141.1,141.3,139.9,139.8,139.9z"/>
		<path id="XMLID_11_" class="st1" d="M251.7,50.9h-32.1v-8.5l0,0c0-7.5-6.2-13.6-13.6-13.6l0,0H70.8v-3.2c0-4.3-3.6-7.9-7.9-7.9
			H21.8c-4.3,0-7.9,3.6-7.9,7.9v41.2c0,4.3,3.6,7.9,7.9,7.9h29.1v41.8c0,1.5,1.1,2.6,2.6,2.6c1.5,0,2.6-1.1,2.6-2.6V74.7h6.7
			c4.1,0,7.5-3,7.9-7c4.2-1,7.8-3.6,10.1-7c2.9,4.4,7.9,7.4,13.6,7.4c5.7,0,10.7-2.9,13.6-7.4c2.9,4.4,7.9,7.4,13.6,7.4
			c5.6,0,10.7-2.9,13.6-7.4c2.9,4.4,7.9,7.4,13.6,7.4c5.6,0,10.7-2.9,13.6-7.4c2.9,4.4,7.9,7.4,13.6,7.4s10.7-2.9,13.6-7.4
			c2.7,4.2,7.5,7.1,12.8,7.4v31.9c0,4.3,3.6,7.9,7.9,7.9h3.9v20.8H53.2l0,0c-1.5,0-2.6,1.1-2.6,2.6v10.5h-8.3c-5,0-9.3,4.2-9.3,9.3
			v6.1c0,7.9,6.4,14.2,14.2,14.2h175.4c7.9,0,14.2-6.4,14.2-14.2V151c0-5-4.2-9.3-9.3-9.3h-8v-34h32.1c4.3,0,7.9-3.6,7.9-7.9V58.7
			C259.6,54.5,256,50.9,251.7,50.9L251.7,50.9z M210.5,141.9c-1.5,0-2.6,1.1-2.6,2.6c0,1.5,1.1,2.6,2.6,2.6h3.7v4.2h-22.9v-4.2h4.3
			c1.5,0,2.6-1.1,2.6-2.6c0-1.5-1.1-2.6-2.6-2.6h-24.4c-1.9,0-3.7,1.1-4.7,2.8l-3.5,6.5h-56l-3.5-6.5c-1-1.7-2.7-2.8-4.7-2.8H56
			v-7.9h158.2v7.9H210.5z M79,151.5H56.2v-4.2H79V151.5z M231.8,151.1v6.1c0,4.9-4.1,8.9-8.9,8.9H47.4c-4.9,0-8.9-4.1-8.9-8.9v-6.1
			c0-2.2,1.8-4,4-4h8.3v4.2c0,2.9,2.4,5.3,5.3,5.3h22.9c2.9,0,5.3-2.4,5.3-5.3v-4.2H99l3.5,6.5c1,1.7,2.7,2.8,4.7,2.8h56
			c1.9,0,3.7-1.1,4.7-2.8l3.5-6.5h14.6v4.2c0,2.9,2.4,5.3,5.3,5.3H214c2.9,0,5.3-2.4,5.3-5.3v-4.2h8.4
			C230.1,147.2,231.8,149,231.8,151.1L231.8,151.1z M65.4,66.9c0,1.5-1.1,2.6-2.6,2.6H21.6c-1.5,0-2.6-1.1-2.6-2.6V25.6
			c0-1.5,1.1-2.6,2.6-2.6h41.2c1.5,0,2.6,1.1,2.6,2.6L65.4,66.9L65.4,66.9z M70.7,62.2V34.1h7.4v17.8C78,56.6,75,60.7,70.7,62.2z
			 M94.3,62.9c-6.1,0-10.9-4.9-10.9-10.9V34.1h22v17.8C105.3,58,100.3,62.9,94.3,62.9z M121.6,62.9c-6.1,0-10.9-4.9-10.9-10.9V34.1
			h22v17.8C132.5,58,127.6,62.9,121.6,62.9L121.6,62.9z M148.8,62.9c-6.1,0-10.9-4.9-10.9-10.9V34.1h22v17.8
			C159.8,58,154.9,62.9,148.8,62.9L148.8,62.9z M176,62.9c-6.1,0-10.9-4.9-10.9-10.9V34.1h22v17.8C187.1,58,182.1,62.9,176,62.9
			L176,62.9z M192.4,51.9V34.1H206c4.6,0,8.4,3.7,8.4,8.4V51h-3.9c-4.3,0-7.9,3.6-7.9,7.9v4C196.9,62.5,192.4,57.7,192.4,51.9
			L192.4,51.9z M254.3,100.1c0,1.5-1.1,2.6-2.6,2.6h-41.2c-1.5,0-2.6-1.1-2.6-2.6V58.9c0-1.5,1.1-2.6,2.6-2.6h41.2
			c1.5,0,2.6,1.1,2.6,2.6L254.3,100.1L254.3,100.1z"/>
		<path id="XMLID_8_" class="st5" d="M221.9,77.3c-3.8,0-6.8-3-6.8-6.8s3-6.8,6.8-6.8c3.8,0,6.8,3,6.8,6.8
			C228.9,74.2,225.7,77.3,221.9,77.3z M221.9,68.8c-1,0-1.6,0.8-1.6,1.6c0,1,0.8,1.6,1.6,1.6c1,0,1.6-0.8,1.6-1.6
			C223.5,69.6,222.9,68.8,221.9,68.8z"/>
		<path id="XMLID_5_" class="st5" d="M240.1,95.5c-3.8,0-6.8-3-6.8-6.8s3-6.8,6.8-6.8c3.8,0,6.8,3,6.8,6.8
			C247.1,92.4,243.9,95.5,240.1,95.5z M240.1,87c-1,0-1.6,0.8-1.6,1.6c0,0.9,0.8,1.6,1.6,1.6c1,0,1.6-0.8,1.6-1.6
			C241.8,87.7,241,87,240.1,87z"/>
		<path id="XMLID_4_" class="st5" d="M223.6,89.6c-0.7,0-1.4-0.3-1.9-0.8c-1.1-1.1-1.1-2.7,0-3.7l15-15.1c1.1-1.1,2.7-1.1,3.7,0
			c1.1,1.1,1.1,2.7,0,3.7l-15,15C224.9,89.3,224.2,89.6,223.6,89.6z"/>
	</g>
</g>
</svg>
