<?xml version="1.0" encoding="utf-8"?>
<!-- Generator: Adobe Illustrator 19.0.0, SVG Export Plug-In . SVG Version: 6.00 Build 0)  -->
<svg version="1.1" id="Layer_1" xmlns="http://www.w3.org/2000/svg" xmlns:xlink="http://www.w3.org/1999/xlink" x="0px" y="0px"
	 viewBox="0 0 186 227" style="enable-background:new 0 0 186 227;" xml:space="preserve">
<style type="text/css">
	.st0{opacity:0.1;enable-background:new    ;}
	.st1{fill:#1F3568;}
	.st2{fill:#FFFFFF;}
	.st3{fill:#CEE5F7;}
	.st4{fill:#3076BC;}
	.st5{fill:#689CD3;}
	.st6{fill:#5495D0;}
	.st7{fill:#F1DD3F;}
	.st8{fill:#B1D4F0;}
	.st9{fill:#D33B3A;}
	.st10{fill:#E2C849;}
	.st11{fill:#5DBA47;}
	.st12{fill:#A785BD;}
	.st13{opacity:0.1;fill:#1F3568;enable-background:new    ;}
</style>
<g id="XMLID_2_">
	<g id="XMLID_36_">
		<g id="XMLID_153_" class="st0">
			<path id="XMLID_157_" class="st1" d="M24.7,219.1c-3,0-5.4-2.3-5.4-5.2v-43c0-2.8,2.4-5.2,5.4-5.2h39.7l1.5-28.9
				c-11-6.1-17.8-17.3-17.8-29.6V85.5h-9.6c-2.3,0-4.4-0.5-6.5-1.6L24.1,80c-1.8-0.9-3-2.7-3-4.6s1.1-3.7,2.9-4.6l5-2.5
				c-3.8-4.9-5.9-11-5.8-17.3c0.1-15.3,13.1-28.1,29-28.4c0.3,0,0.5,0,0.8,0c6.5,0,12.9,2.1,18.1,5.9c1.7-0.8,3.5-1.3,5.4-1.3
				c0.2,0,0.3,0,0.5,0c6.1,0.3,11,5.3,11,11.2V50c1.6-0.8,3.3-1.3,5.1-1.3h0.3c4.3,0,7.9,2.3,9.9,5.6c1.9-1.4,4.3-2.3,7-2.3
				c4.9,0,9,2.9,10.7,7c1.7-1.1,3.7-1.7,5.9-1.8h0.3c5,0,9.4,3.3,10.9,7.8h23.2c5.7,0,10.5,4.5,10.5,10.1s-4.7,10.1-10.5,10.1h-22.6
				v21.7c0,2.8-0.3,5.7-1,8.4h26.4c4.3,0,7.8,3.4,7.8,7.5v52.5c0,4.2-3.5,7.5-7.8,7.5h-40.8l1.4,28.4c0.1,1.4-0.5,2.8-1.5,3.9
				c-1,1-2.4,1.6-3.9,1.6H79.4c-1,1.3-2.6,2.2-4.4,2.2H24.7V219.1L24.7,219.1z"/>
			<path id="XMLID_154_" class="st2" d="M53,25.5c6.9,0,13.1,2.5,17.9,6.7c1.5-1.3,3.4-2,5.6-2c0.1,0,0.3,0,0.3,0
				c4.5,0.2,8.1,3.9,8.1,8.3v21.4c0-4.4,3.7-8,8.3-8.1c0.1,0,0.1,0,0.2,0c4.6,0,8.4,3.9,8.4,8.3v3.2c0-4.5,3.7-8.1,8.4-8.1
				s8.4,3.6,8.4,8.1v4.9c0.2-4.3,3.7-7.7,8.3-7.8c0.1,0,0.1,0,0.2,0c4.4,0,8.1,3.5,8.3,7.8h25.7c4.1,0,7.5,3.2,7.5,7.2
				s-3.4,7.2-7.5,7.2h-25.6l0.1,24.6c0,4-0.8,7.8-2.2,11.3h30.5c2.6,0,4.8,2.1,4.8,4.6v52.5c0,2.5-2.2,4.6-4.8,4.6h-44l1.6,31.5
				c0.1,1.3-1,2.4-2.3,2.4H77.5c-0.1,1.3-1.1,2.2-2.3,2.2H25.1c-1.3,0-2.3-1-2.3-2.3v-43c0-1.3,1-2.3,2.3-2.3h42.7l1.7-33.5
				c-10.6-5.1-17.9-15.7-17.9-27.9V82.7H39c-1.8,0-3.6-0.4-5.2-1.3l-7.9-3.9c-1.7-0.8-1.7-3.2,0-4.1l7.9-3.9
				c0.2-0.1,0.3-0.2,0.4-0.3c-4.7-4.7-7.7-11.1-7.6-18.2c0.1-13.8,11.7-25.1,26-25.5C52.5,25.5,52.8,25.5,53,25.5 M53,19.7L53,19.7
				c-0.3,0-0.6,0-0.9,0c-17.5,0.4-31.8,14.4-32,31.3c0,5.8,1.5,11.3,4.4,16.2l-2,1l0,0c-2.8,1.4-4.5,4.2-4.5,7.2s1.7,5.8,4.5,7.2
				l0,0l7.9,3.9h0.1c2.5,1.3,5.2,1.8,7.9,1.8h6.5v18.8c0,12.8,6.7,24.5,17.7,31.2l-1.2,24.4H24.5c-4.7,0-8.4,3.7-8.4,8.1v43
				c0,4.5,3.8,8.1,8.4,8.1h50.1c2.3,0,4.3-0.8,5.8-2.2h38.3c2.3,0,4.5-0.9,6.1-2.5s2.4-3.8,2.3-5.9v-0.1l-1.3-25.4h37.6
				c6,0,10.9-4.7,10.9-10.5V123c0-5.8-4.9-10.5-10.9-10.5h-22.6c0.3-1.8,0.4-3.6,0.4-5.4V88.3h19.6c7.5,0,13.6-5.9,13.6-13.1
				s-6.1-13.1-13.6-13.1h-21.1c-2.4-4.6-7.3-7.8-12.9-7.8c-0.1,0-0.2,0-0.3,0c-1.7,0-3.1,0.3-4.6,0.8c-2.6-3.7-7-6-11.9-6
				c-2.2,0-4.3,0.5-6.1,1.3c-2.7-2.8-6.5-4.7-10.7-4.7c-0.1,0-0.2,0-0.3,0c-0.7,0-1.4,0.1-2,0.2v-7.4c0-7.6-6.1-13.8-13.9-14.2
				c-0.2,0-0.4,0-0.6,0c-1.7,0-3.4,0.3-5,0.8C66,21.6,59.6,19.7,53,19.7L53,19.7z"/>
		</g>
		<g id="XMLID_148_">
			<path id="XMLID_152_" class="st2" d="M52.9,67.4c-16.4,0-29.7-12.8-29.7-28.6s13.3-28.6,29.7-28.6S82.6,23,82.6,38.8
				S69.3,67.4,52.9,67.4z"/>
			<path id="XMLID_149_" class="st2" d="M52.9,13c14.8,0,26.7,11.5,26.7,25.7S67.7,64.4,52.9,64.4S26.2,52.9,26.2,38.7
				S38.2,13,52.9,13 M52.9,7.2c-18.1,0-32.8,14.2-32.8,31.6s14.7,31.6,32.8,31.6s32.8-14.2,32.8-31.6C85.6,21.3,70.9,7.2,52.9,7.2
				L52.9,7.2z"/>
		</g>
		<g id="XMLID_140_">
			<path id="XMLID_145_" class="st1" d="M58.4,52c-3,0-5.4-2.3-5.4-5.2l-0.1-0.1l-0.1,0.1c0,2.8-2.4,5.2-5.4,5.2S42,49.7,42,46.8
				c0-1.8,0.5-3.7,1.5-5.3c-1-1.6-1.5-3.4-1.5-5.4c0-5.8,5-10.6,11-10.6s11,4.8,11,10.6c0,1.9-0.5,3.8-1.5,5.4
				c1,1.6,1.5,3.4,1.5,5.4C63.8,49.6,61.4,52,58.4,52z M52.9,36C52.8,36,52.8,36.1,52.9,36v0.2V36C52.9,36.1,52.9,36,52.9,36z"/>
			<path id="XMLID_141_" class="st2" d="M52.9,28.4c4.3,0,7.9,3.4,7.9,7.6c0,2.1-0.9,3.9-2.3,5.4c1.4,1.3,2.3,3.3,2.3,5.4
				c0,1.3-1,2.3-2.3,2.3s-2.3-1-2.3-2.3c0-1.7-1.4-3-3.1-3s-3.1,1.3-3.1,3c0,1.3-1,2.3-2.3,2.3s-2.3-1-2.3-2.3
				c0-2.1,0.9-3.9,2.3-5.4c-1.4-1.3-2.3-3.3-2.3-5.4C44.9,31.9,48.6,28.4,52.9,28.4 M52.9,39.1c1.7,0,3.1-1.3,3.1-3s-1.4-3-3.1-3
				s-3.1,1.3-3.1,3C49.7,37.7,51.2,39.1,52.9,39.1 M52.9,22.6c-7.7,0-14,6-14,13.5c0,1.8,0.4,3.7,1.1,5.4c-0.8,1.7-1.1,3.4-1.1,5.3
				c0,4.5,3.8,8.1,8.4,8.1c2.1,0,4.1-0.8,5.6-2c1.5,1.3,3.4,2,5.6,2c4.7,0,8.4-3.7,8.4-8.1c0-1.8-0.4-3.7-1.1-5.4
				c0.8-1.7,1.1-3.4,1.1-5.4C66.9,28.6,60.6,22.6,52.9,22.6L52.9,22.6z"/>
		</g>
		<g id="XMLID_135_">
			<path id="XMLID_139_" class="st3" d="M65,204.6c-0.9,0-1.7-0.3-2.2-0.9c-0.6-0.6-0.9-1.3-0.9-2.2l4.3-87.2c0.1-1.6,1.4-2.8,3-2.8
				h47.6c1.7,0,3,1.3,3,2.8l4.3,87.2c0,0.8-0.3,1.6-0.9,2.2c-0.6,0.6-1.4,0.9-2.2,0.9H65z"/>
			<path id="XMLID_136_" class="st2" d="M117,114.5l4.3,87.2H65l4.3-87.2H117 M117,108.6H69.4c-3.2,0-5.9,2.4-6.1,5.6L59,201.4
				c-0.1,1.6,0.5,3.2,1.7,4.4c1.1,1.2,2.8,1.8,4.4,1.8h56.3c1.7,0,3.2-0.7,4.4-1.8c1.1-1.2,1.7-2.8,1.7-4.4l-4.3-87.2
				C122.9,111,120.2,108.6,117,108.6L117,108.6z"/>
		</g>
		<g id="XMLID_130_">
			<path id="XMLID_134_" class="st4" d="M106.9,178.7c-4.3,0-7.8-3.4-7.8-7.5v-52.5c0-3,1.8-5.7,4.7-6.9c0.3-0.2,0.8-0.3,1.2-0.3h12
				c1.7,0,3,1.3,3,2.8l3.1,61.3c0,0.8-0.3,1.6-0.9,2.2c-0.6,0.6-1.4,0.9-2.2,0.9H106.9L106.9,178.7z"/>
			<path id="XMLID_131_" class="st2" d="M116.9,114.5l3.1,61.3h-13.1c-2.6,0-4.8-2.1-4.8-4.6v-52.5c0-1.8,1.1-3.5,2.8-4.2H116.9
				 M116.9,108.6h-12c-0.8,0-1.7,0.2-2.4,0.5c-3.9,1.6-6.5,5.4-6.5,9.5v52.5c0,5.8,4.9,10.5,10.9,10.5H120c1.7,0,3.2-0.7,4.4-1.8
				c1.2-1.2,1.7-2.8,1.7-4.4l-3.1-61.3C122.9,111,120.2,108.6,116.9,108.6L116.9,108.6z"/>
		</g>
		<g id="XMLID_125_">
			<path id="XMLID_129_" class="st5" d="M83.5,140.7c-5.7,0-11.5-1.3-16.5-3.9c-1-0.5-1.7-1.6-1.7-2.8l1-19.7c0.1-1.6,1.4-2.8,3-2.8
				h47.6c1.7,0,3,1.3,3,2.8l1,19.7c0.1,1.2-0.6,2.2-1.7,2.8c-5,2.6-10.7,3.9-16.5,3.9H83.5z"/>
			<path id="XMLID_126_" class="st2" d="M117,114.5l1,19.7c-4.5,2.3-9.6,3.6-15,3.6H83.6c-5.5,0-10.6-1.3-15-3.6l1-19.7H117
				 M117,108.6H69.4c-3.2,0-5.9,2.4-6.1,5.6l-1,19.7c-0.1,2.3,1.1,4.4,3.2,5.4c5.5,2.8,11.6,4.3,17.9,4.3h19.4
				c6.3,0,12.4-1.5,17.9-4.3c2.1-1.1,3.3-3.2,3.2-5.4l-1-19.7C122.9,111.1,120.2,108.6,117,108.6L117,108.6z"/>
		</g>
		<g id="XMLID_120_">
			<path id="XMLID_124_" class="st2" d="M38.5,73c-2.3,0-4.7-0.6-6.7-1.6L24,67.5c-1.8-0.9-3-2.7-3-4.6s1.1-3.7,2.9-4.6l7.9-3.9
				c2.2-1.1,4.3-1.6,6.6-1.6H161c5.8,0.2,10.5,4.7,10.5,10.2c0,5.6-4.7,10.1-10.5,10.1L38.5,73L38.5,73z"/>
			<path id="XMLID_121_" class="st2" d="M161,55.6c4.1,0.1,7.5,3.3,7.5,7.3s-3.3,7.2-7.5,7.2H38.6c-1.8,0-3.7-0.4-5.2-1.3l-7.9-3.9
				c-1.7-0.8-1.7-3.2,0-4.1l7.9-3.9c1.7-0.8,3.4-1.3,5.2-1.3L161,55.6 M161,49.7H38.5c-2.7,0-5.4,0.6-7.9,1.8h-0.1l-7.9,3.9l0,0
				c-2.8,1.4-4.5,4.2-4.5,7.2s1.7,5.8,4.5,7.2l0,0l7.8,3.9c2.4,1.3,5.2,1.9,8.1,1.9H161c7.5,0,13.6-5.9,13.6-13.1
				c0-7-6-13-13.4-13.1C161.1,49.7,161.1,49.7,161,49.7L161,49.7z"/>
		</g>
		<g id="XMLID_109_">
			<g id="XMLID_115_">
				<path id="XMLID_119_" class="st3" d="M48.6,73c-1.7,0-3-1.3-3-2.9V55.7c0-1.6,1.4-2.9,3-2.9h6.7c1.7,0,3,1.3,3,2.9v14.4
					c0,1.6-1.4,2.9-3,2.9C55.3,73,48.6,73,48.6,73z"/>
				<path id="XMLID_116_" class="st2" d="M55.3,55.7v14.4h-6.7V55.7H55.3 M55.3,49.8h-6.7c-3.4,0-6.1,2.6-6.1,5.9v14.4
					c0,3.3,2.7,5.9,6.1,5.9h6.7c3.4,0,6.1-2.6,6.1-5.9V55.7C61.4,52.5,58.7,49.8,55.3,49.8L55.3,49.8z"/>
			</g>
			<g id="XMLID_110_">
				<path id="XMLID_114_" class="st3" d="M151.5,73c-1.7,0-3-1.3-3-2.9V55.7c0-1.6,1.4-2.9,3-2.9h9.5c5.8,0,10.5,4.5,10.5,10.1
					S166.8,73,161,73H151.5L151.5,73z"/>
				<path id="XMLID_111_" class="st2" d="M161,55.7c4.2,0,7.5,3.2,7.5,7.2s-3.4,7.2-7.5,7.2h-9.5V55.7H161 M161,49.8h-9.5
					c-3.4,0-6.1,2.6-6.1,5.9v14.4c0,3.3,2.7,5.9,6.1,5.9h9.5c7.5,0,13.6-5.9,13.6-13.1C174.6,55.7,168.5,49.8,161,49.8L161,49.8z"/>
			</g>
		</g>
		<g id="XMLID_104_">
			<path id="XMLID_108_" class="st3" d="M83.5,128.9c-19.6,0-35.5-15.3-35.5-34.2V70.1c0-0.8,0.3-1.5,0.9-2.1s1.3-0.8,2.2-0.8
				l13.8,0.1V26c0-6.1,5-11,11.2-11.1h0.3c6.3,0,11.5,5,11.5,11.2v11.6c1.7-0.8,3.5-1.3,5.4-1.3c4.3,0,8,2.3,10,5.6
				c1.9-1.4,4.3-2.3,6.9-2.3c4.8,0,9,2.8,10.6,7c1.7-1.1,3.7-1.7,6-1.8h0.3c6.3,0,11.5,5,11.5,11.2v38.5c0,18.8-15.9,34.2-35.5,34.2
				L83.5,128.9L83.5,128.9z"/>
			<path id="XMLID_105_" class="st2" d="M76.3,17.8c4.6,0,8.4,3.9,8.4,8.3v21.4c0-4.5,3.7-8.1,8.4-8.1s8.4,3.6,8.4,8.1v3.4
				c0-4.5,3.7-8.1,8.4-8.1s8.4,3.6,8.4,8.1v5.2c0-4.4,3.7-8,8.3-8.1c0.1,0,0.1,0,0.2,0c4.6,0,8.4,3.9,8.4,8.3v38.5
				c0,17.3-14.5,31.2-32.4,31.2H83.4C65.5,126,51,112,51,94.8V70.2l16.9,0.1V26.1C68,21.5,71.6,17.9,76.3,17.8
				C76.2,17.8,76.2,17.8,76.3,17.8 M76.3,11.9L76.3,11.9c-0.1,0-0.2,0-0.3,0c-8,0.2-14.2,6.3-14.2,14v38.4l-10.7-0.1l0,0
				c-1.6,0-3.1,0.6-4.3,1.7C45.7,67,45,68.5,45,70.1v24.6c0,20.4,17.3,37.1,38.5,37.1h19.4c21.2,0,38.5-16.7,38.5-37.1V56.2
				c0-7.8-6.5-14.2-14.5-14.2c-0.1,0-0.2,0-0.3,0c-1.7,0-3.2,0.3-4.6,0.8c-2.6-3.6-7-6-11.9-6c-2.2,0-4.3,0.5-6.1,1.3
				c-2.7-2.8-6.5-4.6-10.8-4.6c-0.8,0-1.6,0.1-2.3,0.2v-7.5C90.8,18.3,84.3,11.9,76.3,11.9L76.3,11.9z"/>
		</g>
		<g id="XMLID_99_">
			<path id="XMLID_103_" class="st6" d="M51.1,80.8c-1.7,0-3-1.3-3-2.9v-7.8c0-1.6,1.4-2.9,3-2.9H68c1.7,0,3,1.3,3,2.9v7.8
				c0,1.6-1.4,2.9-3,2.9H51.1z"/>
			<path id="XMLID_100_" class="st2" d="M67.9,70.1v7.8H51v-7.8H67.9 M67.9,64.2H51c-3.4,0-6.1,2.6-6.1,5.9v7.8
				c0,3.3,2.7,5.9,6.1,5.9h16.9c3.4,0,6.1-2.6,6.1-5.9v-7.8C74,66.8,71.3,64.2,67.9,64.2L67.9,64.2z"/>
		</g>
		<g id="XMLID_94_">
			<path id="XMLID_98_" class="st7" d="M24.7,206.8c-3,0-5.4-2.3-5.4-5.2v-43c0-2.8,2.4-5.2,5.4-5.2h50.1c3,0,5.4,2.3,5.4,5.2v43
				c0,2.8-2.4,5.2-5.4,5.2H24.7z"/>
			<path id="XMLID_95_" class="st2" d="M74.8,156.2c1.3,0,2.3,1,2.3,2.3v43c0,1.3-1,2.3-2.3,2.3H24.7c-1.3,0-2.3-1-2.3-2.3v-43
				c0-1.3,1-2.3,2.3-2.3H74.8 M74.8,150.3H24.7c-4.7,0-8.4,3.7-8.4,8.1v43c0,4.5,3.8,8.1,8.4,8.1h50.1c4.7,0,8.4-3.7,8.4-8.1v-43
				C83.3,154,79.5,150.3,74.8,150.3L74.8,150.3z"/>
		</g>
		<g id="XMLID_89_">
			<path id="XMLID_93_" class="st8" d="M22.3,172.2c-1.7,0-3-1.3-3-2.9v-10.9c0-2.8,2.4-5.2,5.4-5.2h50.1c3,0,5.4,2.3,5.4,5.2v10.9
				c0,1.6-1.4,2.9-3,2.9H22.3z"/>
			<path id="XMLID_90_" class="st2" d="M74.8,156.1c1.3,0,2.3,1,2.3,2.3v10.9H22.2v-10.9c0-1.3,1-2.3,2.3-2.3H74.8 M74.8,150.2H24.7
				c-4.7,0-8.4,3.7-8.4,8.1v10.9c0,3.3,2.7,5.9,6.1,5.9h54.9c3.4,0,6.1-2.6,6.1-5.9v-10.9C83.3,153.9,79.5,150.2,74.8,150.2
				L74.8,150.2z"/>
		</g>
		<g id="XMLID_84_">
			<path id="XMLID_88_" class="st1" d="M44.8,194.7c-2.4,0-4.4-1.9-4.4-4.4v-11.1c0-2.4,2-4.4,4.5-4.4c0.8,0,1.5,0.2,2.2,0.6L57,181
				c1.4,0.8,2.3,2.2,2.3,3.7s-0.8,2.9-2.2,3.7l-9.9,5.6C46.3,194.5,45.6,194.7,44.8,194.7L44.8,194.7z"/>
			<path id="XMLID_85_" class="st2" d="M44.8,177.8c0.3,0,0.4,0.1,0.7,0.2l9.9,5.6c1,0.6,1,1.8,0,2.4l-9.9,5.6
				c-0.3,0.2-0.4,0.2-0.7,0.2c-0.8,0-1.4-0.6-1.4-1.4v-11.1C43.3,178.4,44.1,177.8,44.8,177.8 M44.8,171.9c-4.2,0-7.6,3.3-7.6,7.3
				v11.1c0,4,3.4,7.3,7.5,7.3c1.3,0,2.7-0.3,3.8-1l9.9-5.6c0,0,0,0,0.1,0c2.3-1.3,3.7-3.7,3.7-6.2c0-2.6-1.4-4.9-3.7-6.2
				c0,0,0,0-0.1,0l-9.9-5.6C47.4,172.2,46.1,171.9,44.8,171.9L44.8,171.9z"/>
		</g>
		<g id="XMLID_79_">
			<path id="XMLID_83_" class="st9" d="M31.6,168.6c-2.6,0-4.7-2-4.7-4.5s2.1-4.5,4.7-4.5s4.7,2,4.7,4.5S34.2,168.6,31.6,168.6z"/>
			<path id="XMLID_80_" class="st2" d="M31.6,162.5c1,0,1.7,0.8,1.7,1.6c0,0.9-0.8,1.6-1.7,1.6c-0.9,0-1.7-0.8-1.7-1.6
				C29.9,163.2,30.6,162.5,31.6,162.5 M31.6,156.7c-4.3,0-7.7,3.4-7.7,7.5s3.5,7.5,7.7,7.5s7.7-3.4,7.7-7.5S35.8,156.7,31.6,156.7
				L31.6,156.7z"/>
		</g>
		<g id="XMLID_74_">
			<ellipse id="XMLID_78_" class="st10" cx="36.9" cy="164.1" rx="4.7" ry="4.5"/>
			<path id="XMLID_75_" class="st2" d="M36.9,162.5c1,0,1.7,0.8,1.7,1.6c0,0.9-0.8,1.6-1.7,1.6c-0.9,0-1.7-0.8-1.7-1.6
				C35.2,163.2,36,162.5,36.9,162.5 M36.9,156.7c-4.3,0-7.7,3.4-7.7,7.5s3.5,7.5,7.7,7.5s7.7-3.4,7.7-7.5S41.1,156.7,36.9,156.7
				L36.9,156.7z"/>
		</g>
		<g id="XMLID_69_">
			<ellipse id="XMLID_73_" class="st11" cx="42.2" cy="164.1" rx="4.7" ry="4.5"/>
			<path id="XMLID_70_" class="st2" d="M42.2,162.5c1,0,1.7,0.8,1.7,1.6c0,0.9-0.8,1.6-1.7,1.6s-1.7-0.8-1.7-1.6
				C40.5,163.2,41.2,162.5,42.2,162.5 M42.2,156.7c-4.3,0-7.7,3.4-7.7,7.5s3.5,7.5,7.7,7.5s7.7-3.4,7.7-7.5S46.4,156.7,42.2,156.7
				L42.2,156.7z"/>
		</g>
		<g id="XMLID_63_">
			<g id="XMLID_64_">
				<path id="XMLID_68_" class="st1" d="M106.9,170.7c-4.3,0-7.7-3.4-7.8-7.5v-52.6c0-4.2,3.5-7.5,7.8-7.5h7.6l2.6-5
					c1.1-2.3,3.7-3.9,6.5-3.9c2.7,0,5.3,1.5,6.5,3.9l2.6,5h31c4.3,0,7.8,3.4,7.8,7.5v52.5c0,4.2-3.5,7.5-7.8,7.5L106.9,170.7
					L106.9,170.7z"/>
				<path id="XMLID_65_" class="st2" d="M123.5,97.1c1.6,0,3,0.8,3.7,2.3l3.4,6.7h32.9c2.6,0,4.8,2.1,4.8,4.6v52.5
					c0,2.5-2.2,4.6-4.8,4.6h-56.7c-2.6,0-4.8-2-4.8-4.5v-52.5c0-2.5,2.2-4.6,4.8-4.6h9.5l3.4-6.7C120.4,98,121.9,97.1,123.5,97.1
					 M123.5,91.3c-3.9,0-7.6,2.2-9.2,5.5l-1.7,3.4h-5.7c-6,0-10.9,4.7-10.9,10.5v52.5v0.1c0.1,5.7,5,10.3,10.9,10.3h56.7
					c6,0,10.9-4.7,10.9-10.5v-52.6c0-5.8-4.9-10.5-10.9-10.5h-29.1l-1.7-3.4C131,93.4,127.4,91.3,123.5,91.3L123.5,91.3z"/>
			</g>
		</g>
		<g id="XMLID_44_">
			<path id="XMLID_57_" class="st1" d="M24.7,209.1c-4.3,0-7.8-3.4-7.8-7.5v-43c0-4.2,3.5-7.5,7.8-7.5h37.5l1.2-25.4
				c-11-6.6-17.7-18.3-17.7-30.9V75.4h-7.1c-2.6,0-5.3-0.6-7.7-1.8L23,69.7c-2.6-1.3-4.3-3.9-4.3-6.7s1.7-5.4,4.3-6.7l2.6-1.3
				c-3-4.9-4.8-10.5-4.8-16.2c0-17.1,14.4-30.9,32.1-30.9c6.6,0,13,2,18.4,5.6c1.5-0.6,3.1-0.9,4.8-0.9h0.3c3.6,0,7,1.3,9.6,3.9
				c2.7,2.5,4.3,6.1,4.3,9.7v8.3c1-0.3,2-0.3,3-0.3c4.1,0,8,1.8,10.6,4.8c1.9-0.9,4.1-1.4,6.3-1.4c4.9,0,9.2,2.4,11.7,6.2
				c1.6-0.6,3.2-0.9,4.9-0.9h0.3c3.6,0,7,1.3,9.6,3.9c1.2,1.2,2.3,2.5,3,4h21.6c7.1,0,12.9,5.5,12.9,12.4s-5.7,12.5-12.9,12.5h-9.7
				c-3,0-5.4-2.3-5.4-5.2c0-2.8,2.4-5.2,5.4-5.2h9.5c1,0,2-0.9,2-2s-0.9-1.9-2-1.9h-20.3v33.8c0,2-0.2,4-0.5,6h23.5
				c2.7,0,5.3,1,7.2,2.9c1.9,1.8,3,4.4,3,7v52.5c0,5.4-4.6,9.8-10.2,9.8h-38.3l1.4,28.4c0.1,1.4-0.4,2.8-1.5,3.8
				c-1,1-2.3,1.6-3.7,1.7h-0.2c-3,0-5.3-2.2-5.4-5l-1.4-28.9h-7.6c-5.7,0-10.2-4.4-10.2-9.8v-12.1c0-2.8,2.4-5.2,5.4-5.2
				s5.4,2.3,5.4,5.2V163h55.5v-51.3h-32.3c-2.1,0-4-1.2-4.9-2.9l-2.3-4.5l-2.3,4.6c-1,1.8-2.9,2.9-4.9,2.9h-8.8v25.8
				c0,2.8-2.4,5.2-5.4,5.2s-5.4-2.3-5.4-5.2v-6.1H83.6c-3.2,0-6.3-0.4-9.5-1.2l-1,20.9h1.7c4.3,0,7.8,3.4,7.8,7.5v43
				c0,4.2-3.5,7.5-7.8,7.5L24.7,209.1L24.7,209.1L24.7,209.1z M71.7,198.6v-37.2h-44v37.2H71.7z M71.2,117.8c0.1,0,0.2,0.1,0.3,0.2
				c3.7,1.8,7.9,2.8,12.1,2.8h13.3v-10.1c0-5.4,4.6-9.8,10.2-9.8h6l1.9-3.8c1.6-3.1,5-5.2,8.6-5.2c2.3,0,4.6,0.8,6.3,2.3v-38
				c0-0.8-0.3-1.7-1-2.3c-0.6-0.5-1.3-0.8-2.1-0.8c-1.7,0.1-3,1.3-3,2.9v13.8c0,2.8-2.4,5.2-5.4,5.2s-5.4-2.3-5.4-5.2V50.9
				c0-1.6-1.4-2.9-3-2.9c-1.7,0-3,1.3-3,2.9v18.9c0,2.8-2.4,5.2-5.4,5.2s-5.4-2.3-5.4-5.2V47.4c0-1.6-1.4-2.9-3-2.9
				c-1.7,0-3,1.3-3,2.9v22.4c0,2.8-2.4,5.2-5.4,5.2s-5.4-2.3-5.4-5.2V26.2c0-0.8-0.3-1.7-1-2.3c-0.6-0.5-1.3-0.8-2.1-0.8
				c-1.7,0.1-3,1.3-3,2.9v65.2c0,2.8-2.4,5.2-5.4,5.2s-5.4-2.3-5.4-5.2V75.4h-6v19.4C56.6,104.5,62.2,113.4,71.2,117.8z M35.8,64.2
				c0.8,0.4,1.7,0.6,2.5,0.6h0.3h24v-3.9h-24c-1,0-1.9,0.3-2.8,0.7l-2.7,1.3L35.8,64.2z M52.9,18.2c-5.7,0-11,2.2-15,6
				c-4,3.9-6.2,9-6.2,14.4c0,4.4,1.4,8.5,4,12c1-0.2,1.9-0.3,2.9-0.3h24V25.7c0-1.7,0.3-3.3,1-4.8C60.2,19.2,56.7,18.2,52.9,18.2z"
				/>
			<path id="XMLID_45_" class="st2" d="M52.9,10.8c6.8,0,13.1,2.3,18.1,6.1c1.6-0.8,3.3-1.3,5.2-1.4c0.1,0,0.1,0,0.2,0
				c2.8,0,5.5,1.1,7.5,3c2.1,2,3.3,4.8,3.3,7.6v12.7c1.7-1.2,3.8-1.8,6.1-1.8c4.3,0,8,2.4,9.7,5.9c1.9-1.6,4.3-2.6,7.1-2.6
				c4.9,0,9,3.1,10.3,7.4c1.7-1.3,3.9-2.1,6.3-2.1c0.1,0,0.1,0,0.2,0c2.8,0,5.5,1.1,7.5,3c1.4,1.3,2.4,3,3,4.9H161
				c5.4,0,9.8,4.2,9.8,9.5s-4.3,9.5-9.8,9.5h-9.5c-1.3,0-2.3-1-2.3-2.3s1-2.3,2.3-2.3h9.5c2.8,0,5-2.3,5-4.9s-2.3-4.9-5-4.9h-23.3
				v36.8c0,3.1-0.4,6.1-1.3,9h27.3c3.9,0,7.1,3.1,7.1,6.9v52.5c0,3.9-3.2,6.9-7.1,6.9h-41.6l1.6,31.5c0.1,1.3-1,2.3-2.3,2.4h-0.1
				c-1.3,0-2.3-1-2.3-2.2l-1.6-31.7H107c-4,0-7.1-3.1-7.1-6.9v-12.1c0-1.3,1-2.3,2.3-2.3s2.3,1,2.3,2.3v12.1c0,1.3,1,2.3,2.3,2.3
				h56.9c1.3,0,2.3-1,2.3-2.3v-52.5c0-1.3-1-2.3-2.3-2.3h-32.9c-0.9,0-1.7-0.5-2.2-1.3l-3.4-6.7c-0.3-0.6-1-1-1.7-1s-1.3,0.4-1.7,1
				l-3.4,6.7c-0.4,0.8-1.2,1.3-2.2,1.3h-9.5c-1.3,0-2.3,1-2.3,2.3v26.4c0,1.3-1,2.3-2.3,2.3s-2.3-1-2.3-2.3v-8.8H83.5
				c-4.3,0-8.5-0.8-12.3-2.2L69.8,154h5c2.6,0,4.8,2.1,4.8,4.6v43c0,2.5-2.2,4.6-4.8,4.6H24.7c-2.6,0-4.8-2.1-4.8-4.6v-43
				c0-2.5,2.2-4.6,4.8-4.6H65l1.5-29.9c-10.6-5.8-17.8-16.8-17.8-29.2V72.5H38.5c-2.2,0-4.3-0.5-6.3-1.5l-7.9-3.9
				c-1.6-0.8-2.6-2.3-2.6-4.1s1-3.3,2.6-4.1l5.7-2.8c-3.8-4.7-6.2-10.7-6.2-17.3C23.7,23.3,36.9,10.8,52.9,10.8 M34.5,53.9
				c1.3-0.4,2.7-0.6,4.1-0.6h27V25.7c0-2.1,0.7-4.1,1.8-5.8c-4.1-2.9-9.1-4.7-14.5-4.7c-13.4,0-24.3,10.6-24.3,23.4
				C28.6,44.5,30.9,49.9,34.5,53.9 M68,93.4c-1.3,0-2.3-1-2.3-2.3V72.3H53.6v22.4c0,11.2,6.7,21,16.5,25.8c0.1,0,0.1,0,0.1,0
				c4.1,2,8.6,3.1,13.5,3.1H100v-13.1c0-3.9,3.2-6.9,7.1-6.9h7.9l2.8-5.4c1.1-2.2,3.4-3.5,5.9-3.5s4.8,1.3,5.9,3.5l2.3,4.4
				c0.8-2.5,1.2-5.3,1.2-8V56.1c0-1.6-0.7-3.2-1.9-4.4c-1.2-1.1-2.7-1.7-4.3-1.7c-3.2,0.1-5.9,2.7-5.9,5.9v13.8c0,1.3-1,2.3-2.3,2.3
				s-2.3-1-2.3-2.3V55.8v-5.2c0-3.2-2.7-5.9-6.1-5.9s-6.1,2.6-6.1,5.9v18.9c0,1.3-1,2.3-2.3,2.3s-2.3-1-2.3-2.3v-19v-3.4
				c0-3.2-2.7-5.9-6.1-5.9c-3.3,0-6.1,2.6-6.1,5.9v22.4c0,1.3-1,2.3-2.3,2.3s-2.3-1-2.3-2.3v-22V26.1c0-1.6-0.7-3.2-1.9-4.4
				c-1.2-1.1-2.7-1.7-4.3-1.7c-3.2,0.1-5.9,2.7-5.9,5.9v44.2v21C70.3,92.4,69.3,93.4,68,93.4 M38.3,67.7c0.1,0,0.2,0,0.3,0h12.6
				h14.4v-9.8h-27c-1.4,0-2.9,0.3-4.2,1l-7.9,3.9l7.9,3.9C35.6,67.4,36.9,67.7,38.3,67.7 M24.7,201.6h50.1v-43H24.7V201.6 M52.9,4.9
				c-19.4,0-35.1,15.2-35.1,33.8c0,5.2,1.3,10.3,3.7,14.9c-3.5,1.8-5.7,5.4-5.7,9.2c0,3.9,2.3,7.5,5.9,9.3l7.9,3.9
				c2.9,1.4,6,2.1,9.1,2.1h4.1v16.5c0,13,6.7,25,17.6,32.4l-1,20.9H24.8c-6,0-10.9,4.7-10.9,10.5v43c0,5.8,4.9,10.5,10.9,10.5h50.1
				c6,0,10.9-4.7,10.9-10.5v-43c0-5.3-4.1-9.7-9.4-10.4l0.7-14.5c2.2,0.3,4.3,0.5,6.6,0.5H94v2.9c0,2.9,1.7,5.6,4.1,7
				c-2.4,1.4-4.1,4-4.1,7V163c0,7,5.9,12.7,13.2,12.7h4.6l1.3,26.1c0.2,4.4,3.9,7.8,8.4,7.8h0.1c0.1,0,0.2,0,0.2,0
				c2.3-0.1,4.3-1,5.9-2.6c1.6-1.6,2.3-3.7,2.3-5.9V201l-1.3-25.4h35.1c7.3,0,13.2-5.7,13.2-12.7v-52.5c0-3.4-1.3-6.6-3.8-9
				s-5.8-3.8-9.4-3.8h-20c0.1-1.1,0.2-2.1,0.2-3.1v-21c1.3,2.8,4.3,4.8,7.7,4.8h9.5c8.8,0,15.9-6.9,15.9-15.4s-7.1-15.3-15.9-15.3
				h-19.7c-0.8-1.2-1.7-2.3-2.6-3.2c-3.1-3-7.3-4.6-11.7-4.6c-0.1,0-0.2,0-0.3,0c-1.2,0-2.5,0.2-3.7,0.4c-3.1-3.5-7.7-5.7-12.9-5.7
				c-1.9,0-3.7,0.3-5.5,0.9c-3-2.7-7.1-4.3-11.3-4.3V26c0-4.4-1.9-8.7-5.1-11.8c-3.2-3-7.4-4.7-11.7-4.7c-0.1,0-0.2,0-0.3,0
				c0,0,0,0-0.1,0c-1.5,0-2.9,0.3-4.3,0.7C66.1,6.8,59.6,4.9,52.9,4.9L52.9,4.9z M37.2,47.5c-1.6-2.7-2.4-5.7-2.4-8.8
				c0-4.7,1.8-9,5.3-12.3c3.5-3.4,8-5.2,12.9-5.2c2.4,0,4.8,0.4,7,1.3c-0.3,1.1-0.3,2.2-0.3,3.3v21.7h-21
				C38.1,47.5,37.6,47.5,37.2,47.5L37.2,47.5z M143.8,63.9h2.2c-1,0.8-1.7,1.8-2.2,2.8V63.9L143.8,63.9z M84.8,77.9
				c4.4,0,8.1-3.3,8.4-7.5c0.3,4.2,4,7.5,8.4,7.5s8.1-3.3,8.4-7.5c0.3,4.2,4,7.5,8.4,7.5c4.2,0,7.7-2.9,8.3-6.9v18.3
				c-1-0.3-2.2-0.4-3.3-0.4c-4.8,0-9.3,2.7-11.4,6.8l-1,2.1h-4.2c-7.3,0-13.2,5.7-13.2,12.7v7.2H83.3c-3.7,0-7.4-0.8-10.7-2.4
				c-0.2-0.1-0.3-0.2-0.4-0.2c-7.9-4-12.8-11.8-12.8-20.4v-2.3c0.7,3.9,4.2,6.9,8.3,6.9c4.7,0,8.4-3.7,8.4-8.1V71.1
				C77.1,74.9,80.6,77.9,84.8,77.9L84.8,77.9z M110.7,114.2h5.7c3,0,5.7-1.5,7.2-3.9c1.5,2.4,4.3,3.9,7.2,3.9H160v45.4h-49.4v-8.5
				c0-2.9-1.7-5.6-4.1-7c2.4-1.4,4.1-4,4.1-7v-22.9H110.7z M30.8,164.3h37.9v31.3H30.8V164.3L30.8,164.3z"/>
		</g>
		<g id="PXzlsE.tif_1_">
		</g>
		<g id="XMLID_37_">
			<path id="XMLID_42_" class="st12" d="M122,158.8c-1.8,0-2.7-1.2-3-1.6c-0.3-0.4-0.9-1.8,0.3-3.4l1.8-2.4h-3.3
				c-2,0-3.6-1.4-3.6-3.4v-6.5c0-1.4,0.9-2.6,2.1-3.1v-9.2c-1.3-0.5-2.1-1.7-2.1-3.2v-6.4c0-1.9,1.6-3.4,3.6-3.4h8.8
				c2,0,3.6,1.5,3.6,3.4v3l3.7-5c0.7-0.9,1.7-1.5,3-1.5h7c1.4,0,2.5,0.7,3.1,1.8s0.5,2.4-0.3,3.5l-1.8,2.5h8.3
				c1.9,0,3.3,1.3,3.3,3.2v6.3c0,1.4-0.9,2.6-2.3,3v9.7c1.3,0.4,2.3,1.6,2.3,3v6.3c0,1.8-1.5,3.2-3.3,3.2h-8.9c-1.2,0-2-0.5-2.4-0.9
				s-1-1.2-1-2.3v-4.2c0,0-2.8,0-4,0c-0.2,0-0.3,0-0.5,0l-4.4,6.1c-0.6,0.9-1.7,1.4-2.8,1.4C129,158.8,122,158.8,122,158.8z"/>
			<path id="XMLID_38_" class="st2" d="M136.7,119.1L136.7,119.1c1.7,0,3.2,0,4.9,0c0.7,0,1.5,0,2.2,0l0,0c0.2,0,0.3,0.1,0.4,0.3
				c0.1,0.2,0.1,0.3-0.1,0.5c-1.6,2.1-3.1,4.3-4.6,6.4c-1.7,2.3-3.4,4.7-5.1,7c-0.1,0.2-0.3,0.3-0.3,0.5c0,0,0,0.1,0,0.2
				c0.6,0.8,1.1,1.6,1.7,2.4c0,0,0,0,0.1,0c0.3-0.4,0.6-0.8,0.9-1.3c1.5-2,3-4,4.3-6c0.4-0.7,1-1.3,1.4-1.9c0.1-0.1,0.2-0.2,0.3-0.2
				l0,0c2.6,0,5.3,0,7.9,0c0.1,0,0.3,0,0.3,0c0.7,0,1.3,0,2,0c0.3,0,0.3,0.1,0.3,0.3c0,2.1,0,4.2,0,6.3c0,0.3-0.1,0.3-0.3,0.3
				c-0.3,0-0.8,0-1.1,0c-0.2,0-0.3,0-0.6,0c-0.1,0-0.1,0-0.2,0c0,5.1,0,10.1,0,15.2c0.1,0,0.1,0,0.2,0c0.6,0,1.1,0,1.7,0
				c0.3,0,0.3,0.1,0.3,0.3c0,2.1,0,4.2,0,6.3c0,0.3-0.1,0.3-0.3,0.3c-1.1,0-2.3,0-3.5,0c-1.8,0-3.7,0-5.4,0c-0.3,0-0.3-0.1-0.3-0.3
				c0-2.3,0-4.7,0-7c0,0,0-0.1,0-0.2c-0.1,0-0.1,0-0.2,0c-1,0-2,0-3,0c-1.3,0-2.5,0-3.8,0l0,0c-0.3,0-0.4-0.1-0.5-0.3
				c-0.2-0.3-0.4-0.6-0.7-0.9c-0.3,0.3-0.5,0.7-0.8,1c-1.3,1.8-2.5,3.5-3.8,5.2c-0.5,0.8-1.1,1.5-1.7,2.3c-0.1,0.1-0.2,0.2-0.3,0.2
				l0,0c-1.5,0-2.9,0-4.3,0c-0.9,0-1.7,0-2.5,0c-0.1,0-0.2,0-0.3,0s-0.2,0-0.3-0.1s0-0.2,0.1-0.3c1.6-2.1,3.1-4.3,4.7-6.4
				c1.7-2.3,3.5-4.8,5.2-7.1c0,0,0-0.1,0.1-0.1c-1.6-2.1-3-4.2-4.6-6.2l0,0c0,0.1,0,0.1,0,0.2c0,3.5,0,7,0,10.6c0,0.5,0,1.1,0,1.6
				c0,0.3-0.2,0.4-0.4,0.4c-3,0-5.9,0-8.9,0c-0.3,0-0.5-0.2-0.5-0.4c0-2.2,0-4.4,0-6.5c0-0.3,0.2-0.4,0.5-0.4s0.4,0,0.7,0s0.6,0,1,0
				c0-4.9,0-9.6,0-14.5c-0.1,0-0.2,0-0.3,0c-0.3,0-0.6,0-1,0c-0.2,0-0.3,0-0.4,0c-0.3,0-0.5-0.2-0.5-0.5c0-2.2,0-4.3,0-6.4
				c0-0.3,0.2-0.5,0.5-0.5c3,0,5.9,0,8.8,0l0,0c0.3,0,0.5,0.2,0.5,0.5c0,4,0,8.1,0,12.1c0,0.1,0,0.1,0,0.2c0.1-0.1,0.1-0.1,0.1-0.1
				c1.5-2,2.9-4,4.3-5.9c1.6-2.2,3.1-4.4,4.7-6.5C136.3,119.1,136.5,119.1,136.7,119.1 M143.8,147.5
				C143.8,147.4,143.8,147.4,143.8,147.5c0-3.9,0-7.6,0-11.5c-0.1,0.1-0.1,0.1-0.1,0.1c-1.3,1.8-2.7,3.7-4,5.5
				c-0.1,0.1-0.1,0.1,0,0.2C141,143.6,142.4,145.4,143.8,147.5C143.8,147.4,143.8,147.4,143.8,147.5 M136.7,113.3L136.7,113.3
				L136.7,113.3c-2,0-3.8,0.8-5,2.3c-1.2-1.4-3-2.3-5-2.3h-8.8c-3.7,0-6.6,2.8-6.6,6.4c0,2.2,0,4.3,0,6.4c0,1.8,0.8,3.5,2.1,4.7v6.1
				c-1.3,1.2-2.1,2.8-2.1,4.7c0,2.2,0,4.4,0,6.5c0,2.9,1.9,5.3,4.7,6c-0.4,1.5-0.3,3.2,0.5,4.6c1.1,1.9,3.2,3.2,5.6,3.2h0.3h1.2h1.2
				c1.5,0,2.9,0,4.3,0c2.2,0,4.1-1,5.3-2.7c0.3-0.5,0.7-0.9,1-1.4l0.6-0.8l1.7-2.4v1.2c0,3.5,2.8,6.2,6.4,6.2h5.4h3.5
				c3.6,0,6.3-2.7,6.3-6.1c0-2.1,0-4.2,0-6.3c0-1.9-0.9-3.6-2.3-4.7v-6.4c1.4-1.1,2.3-2.8,2.3-4.7c0-2.1,0-4.2,0-6.3
				c0-3.4-2.8-6.1-6.3-6.1h-2h-0.3c-0.2,0-0.4,0-0.6,0c0.4-1.5,0.3-3.1-0.5-4.4c-1.1-2.1-3.4-3.4-5.8-3.4h-2.2
				C139.9,113.3,138.3,113.3,136.7,113.3L136.7,113.3z"/>
		</g>
	</g>
	<g id="XMLID_3_">
		<path id="XMLID_35_" class="st13" d="M135.4,82.5H161c4.1,0,7.5-3.2,7.5-7.2c0-3.9-3.3-7.2-7.5-7.2h-25.7c-0.3-4.4-4-7.9-8.5-7.8
			c-4.5,0.1-8.1,3.5-8.3,7.8l0,0v-4.9c0-4.5-3.7-8.1-8.4-8.1s-8.4,3.6-8.4,8.1V60c0-4.5-3.8-8.4-8.6-8.3c-4.6,0.1-8.3,3.7-8.3,8.1
			V38.4c0-4.4-3.6-8.1-8.1-8.3c-2.3-0.1-4.3,0.7-5.9,2c-4.9-4.3-11.5-6.9-18.6-6.7c-14.3,0.3-25.9,11.7-26,25.5
			c-0.1,7,2.9,13.5,7.6,18.2c-0.2,0.1-0.3,0.2-0.4,0.3l-7.9,3.9c-1.7,0.8-1.7,3.2,0,4.1l7.9,3.9c1.7,0.8,3.4,1.3,5.2,1.3h12.6v24.6
			c0,12.2,7.3,22.8,17.9,27.9l-1.7,33.5H24.7c-1.3,0-2.3,1-2.3,2.3v43c0,1.3,1,2.3,2.3,2.3h50.1c1.3,0,2.3-1,2.3-2.2h41.7
			c1.4,0,2.4-1.1,2.3-2.4l-1.6-31.5h44c2.6,0,4.8-2.1,4.8-4.6v-52.3c0-2.5-2.2-4.6-4.8-4.6h-30.4c1.4-3.5,2.2-7.3,2.2-11.3
			L135.4,82.5L135.4,82.5z"/>
		<ellipse id="XMLID_34_" class="st2" cx="52.9" cy="38.7" rx="26.7" ry="25.7"/>
		<path id="XMLID_31_" class="st1" d="M60.8,36.1c0-4.2-3.6-7.6-7.9-7.6S45,31.9,45,36.1c0,2.1,0.9,3.9,2.3,5.4
			c-1.4,1.3-2.3,3.3-2.3,5.4c0,1.3,1,2.3,2.3,2.3s2.3-1,2.3-2.3c0-1.7,1.4-3,3.1-3s3.1,1.3,3.1,3c0,1.3,1,2.3,2.3,2.3s2.3-1,2.3-2.3
			c0-2.1-0.9-3.9-2.3-5.4C60,40,60.8,38.2,60.8,36.1z M52.9,33.1c1.7,0,3.1,1.3,3.1,3s-1.4,3-3.1,3s-3.1-1.3-3.1-3
			C49.7,34.4,51.1,33.1,52.9,33.1z"/>
		<path id="XMLID_30_" class="st3" d="M121.4,201.6l-4.3-87.2H69.5l-4.3,87.2H121.4z"/>
		<path id="XMLID_29_" class="st4" d="M120.1,175.8H107c-2.6,0-4.8-2.1-4.8-4.6v-52.5c0-1.8,1.1-3.5,2.8-4.2h12L120.1,175.8z"/>
		<path id="XMLID_28_" class="st5" d="M118,134.1c-4.5,2.3-9.6,3.6-15,3.6H83.6c-5.5,0-10.6-1.3-15-3.6l1-19.7h47.6L118,134.1z"/>
		<path id="XMLID_27_" class="st2" d="M168.5,62.9c0,3.9-3.3,7.2-7.5,7.2H38.6c-1.8,0-3.7-0.4-5.2-1.3l-7.9-3.9
			c-1.7-0.8-1.7-3.2,0-4.1l7.9-3.9c1.7-0.8,3.4-1.3,5.2-1.3H161C165.1,55.7,168.5,58.9,168.5,62.9z"/>
		<g id="XMLID_24_">
			<path id="XMLID_26_" class="st3" d="M55.3,55.7v14.4h-6.7V55.7H55.3z"/>
			<path id="XMLID_25_" class="st3" d="M151.5,70.1h9.5c4.1,0,7.5-3.2,7.5-7.2s-3.3-7.2-7.5-7.2h-9.5V70.1z"/>
		</g>
		<path id="XMLID_23_" class="st3" d="M51.1,70.1v24.6c0,17.3,14.5,31.2,32.4,31.2h19.4c17.9,0,32.4-14,32.4-31.2V56.2
			c0-4.5-3.8-8.4-8.6-8.3c-4.6,0.1-8.3,3.7-8.3,8.1v-5.2c0-4.5-3.7-8.1-8.4-8.1s-8.4,3.6-8.4,8.1v-3.3c0-4.5-3.7-8.1-8.4-8.1
			s-8.4,3.6-8.4,8.1V26.1c0-4.5-3.8-8.4-8.6-8.3c-4.6,0.1-8.3,3.7-8.3,8.1v44.2H51.1z"/>
		<path id="XMLID_22_" class="st6" d="M51.1,70.1H68v7.8H51.1V70.1z"/>
		<path id="XMLID_21_" class="st7" d="M74.8,203.8H24.7c-1.3,0-2.3-1-2.3-2.3v-43c0-1.3,1-2.3,2.3-2.3h50.1c1.3,0,2.3,1,2.3,2.3v43
			C77.2,202.8,76.1,203.8,74.8,203.8z"/>
		<path id="XMLID_20_" class="st8" d="M77.2,169.3v-10.9c0-1.3-1-2.3-2.3-2.3H24.8c-1.3,0-2.3,1-2.3,2.3v10.9H77.2z"/>
		<path id="XMLID_19_" class="st1" d="M43.3,179.2v11.1c0,1.1,1.2,1.8,2.2,1.2l9.9-5.6c1-0.6,1-1.8,0-2.4l-9.9-5.6
			C44.5,177.4,43.3,178.2,43.3,179.2z"/>
		<ellipse id="XMLID_18_" class="st9" cx="31.6" cy="164.1" rx="1.7" ry="1.6"/>
		<ellipse id="XMLID_17_" class="st10" cx="36.9" cy="164.1" rx="1.7" ry="1.6"/>
		<ellipse id="XMLID_16_" class="st11" cx="42.2" cy="164.1" rx="1.7" ry="1.6"/>
		<g id="XMLID_14_">
			<path id="XMLID_15_" class="st1" d="M106.9,167.7h56.7c2.6,0,4.8-2.1,4.8-4.6v-52.5c0-2.5-2.2-4.6-4.8-4.6h-32.9l-3.4-6.7
				c-0.7-1.3-2.2-2.3-3.7-2.3c-1.7,0-3.1,0.8-3.7,2.3l-3.4,6.7H107c-2.6,0-4.8,2.1-4.8,4.6v52.5
				C102.1,165.7,104.3,167.7,106.9,167.7L106.9,167.7z"/>
		</g>
		<path id="XMLID_8_" class="st1" d="M163.7,103.7h-27.3c0.8-2.8,1.3-5.9,1.3-9V57.9H161c2.8,0,5,2.2,5,4.9s-2.3,4.9-5,4.9h-9.6
			c-1.3,0-2.3,1-2.3,2.3s1,2.3,2.3,2.3h9.5c5.5,0,9.8-4.3,9.8-9.5c0-5.3-4.4-9.5-9.8-9.5h-23.6c-0.5-1.8-1.6-3.5-3-4.9
			c-2.1-2-4.8-3-7.7-3c-2.3,0.1-4.5,0.8-6.3,2.1c-1.4-4.2-5.5-7.4-10.3-7.4c-2.7,0-5.2,1-7.1,2.6c-1.7-3.5-5.5-5.9-9.7-5.9
			c-2.3,0-4.3,0.7-6.1,1.8V25.9c0-2.8-1.2-5.6-3.3-7.6s-4.8-3-7.7-3c-1.9,0.1-3.7,0.6-5.2,1.4c-5-3.9-11.2-6.1-18.1-6.1
			c-16,0-29,12.6-29,28c0,6.4,2.3,12.5,6.2,17.3l-5.7,2.8c-1.6,0.8-2.6,2.3-2.6,4.1s1,3.3,2.6,4.1l7.9,3.9c1.9,1,4.2,1.5,6.3,1.5
			h10.2v22.2c0,12.6,7.2,23.5,17.8,29.2L65,153.6H24.7c-2.6,0-4.8,2.1-4.8,4.6v43c0,2.5,2.2,4.6,4.8,4.6h50.1c2.6,0,4.8-2.1,4.8-4.6
			v-43c0-2.5-2.2-4.6-4.8-4.6h-5l1.4-27.8c3.8,1.3,8,2.2,12.3,2.2h16.3v8.8c0,1.3,1,2.3,2.3,2.3s2.3-1,2.3-2.3v-26.4
			c0-1.3,1-2.3,2.3-2.3h9.5c0.9,0,1.7-0.5,2.2-1.3l3.4-6.7c0.3-0.6,1-1,1.7-1s1.3,0.3,1.7,1l3.4,6.7c0.3,0.8,1.2,1.3,2.2,1.3h32.9
			c1.3,0,2.3,1,2.3,2.3v52.5c0,1.3-1,2.3-2.3,2.3h-56.9c-1.3,0-2.3-1-2.3-2.3v-12.1c0-1.3-1-2.3-2.3-2.3s-2.3,1-2.3,2.3v12.1
			c0,3.9,3.2,6.9,7.1,6.9h10.4l1.6,31.7c0.1,1.3,1.1,2.2,2.3,2.2c0.1,0,0.1,0,0.1,0c1.3-0.1,2.3-1.2,2.3-2.4l-1.6-31.5h41.5
			c4,0,7.1-3.1,7.1-6.9v-52.5C170.8,106.8,167.6,103.7,163.7,103.7z M74.8,201.6H24.7v-43h50.1V201.6z M52.9,15.3
			c5.5,0,10.5,1.8,14.5,4.7c-1.2,1.7-1.8,3.7-1.8,5.8v27.6h-27c-1.4,0-2.8,0.2-4.1,0.6c-3.7-4.1-5.8-9.4-5.8-15.2
			C28.6,25.9,39.5,15.3,52.9,15.3z M34.4,66.8l-7.9-3.9l7.9-3.9c1.3-0.7,2.7-1,4.2-1h27v9.8H51.2H38.6
			C37.1,67.7,35.6,67.5,34.4,66.8L34.4,66.8z M129.5,98.4c-1.1-2.2-3.4-3.5-5.9-3.5s-4.8,1.3-5.9,3.5l-2.8,5.4H107
			c-4,0-7.1,3.1-7.1,6.9v13.1H83.6c-4.8,0-9.4-1.1-13.5-3.1c0,0,0,0-0.1,0c-9.8-4.8-16.5-14.6-16.5-25.8V72.5h12.1v18.8
			c0,1.3,1,2.3,2.3,2.3s2.3-1,2.3-2.3v-21V26c0-3.2,2.7-5.8,5.9-5.9c1.6,0,3,0.6,4.3,1.7c1.2,1.2,1.9,2.8,1.9,4.4v21.4v22.3
			c0,1.3,1,2.3,2.3,2.3s2.3-1,2.3-2.3V47.5c0-3.2,2.7-5.9,6.1-5.9s6.1,2.6,6.1,5.9v3.4v19c0,1.3,1,2.3,2.3,2.3s2.3-1,2.3-2.3V51
			c0-3.2,2.7-5.9,6.1-5.9s6.1,2.6,6.1,5.9v5.2V70c0,1.3,1,2.3,2.3,2.3s2.3-1,2.3-2.3V56.3c0-3.2,2.7-5.8,5.9-5.9
			c1.6,0,3,0.6,4.3,1.7c1.2,1.2,1.9,2.8,1.9,4.4V95c0,2.8-0.4,5.4-1.2,8L129.5,98.4z"/>
		<g id="PXzlsE.tif">
		</g>
		<path id="XMLID_4_" class="st12" d="M135.7,136.3c0.3-0.4,0.6-0.8,0.9-1.3c1.5-2,3-4,4.3-6c0.4-0.7,1-1.3,1.4-1.9
			c0.1-0.1,0.2-0.2,0.3-0.2c3.4,0,6.9,0,10.3,0c0.3,0,0.3,0.1,0.3,0.3c0,2.1,0,4.2,0,6.3c0,0.3-0.1,0.3-0.3,0.3c-0.6,0-1.1,0-1.7,0
			c-0.1,0-0.1,0-0.2,0c0,5.1,0,10.1,0,15.2c0.1,0,0.1,0,0.2,0c0.6,0,1.1,0,1.7,0c0.3,0,0.3,0.1,0.3,0.3c0,2.1,0,4.2,0,6.3
			c0,0.3-0.1,0.3-0.3,0.3c-3,0-5.9,0-8.9,0c-0.3,0-0.3-0.1-0.3-0.3c0-2.3,0-4.7,0-7c0,0,0-0.1,0-0.2c-0.1,0-0.1,0-0.2,0
			c-2.3,0-4.6,0-6.9,0c-0.3,0-0.4-0.1-0.5-0.3c-0.2-0.3-0.4-0.6-0.7-0.9c-0.3,0.3-0.5,0.7-0.8,1c-1.3,1.8-2.5,3.5-3.8,5.2
			c-0.5,0.8-1.1,1.5-1.7,2.3c-0.1,0.1-0.2,0.2-0.3,0.2c-2.3,0-4.7,0-7.1,0c-0.1,0-0.2,0-0.3-0.1s0-0.2,0.1-0.3
			c1.6-2.1,3.1-4.3,4.7-6.4c1.7-2.3,3.5-4.8,5.2-7.1c0,0,0-0.1,0.1-0.1c-1.6-2.1-3-4.2-4.6-6.2l0,0c0,0.1,0,0.1,0,0.2
			c0,3.5,0,7,0,10.6c0,0.5,0,1.1,0,1.6c0,0.3-0.2,0.4-0.4,0.4c-3,0-5.9,0-8.9,0c-0.3,0-0.5-0.2-0.5-0.4c0-2.2,0-4.4,0-6.5
			c0-0.3,0.2-0.4,0.5-0.4c0.5,0,1,0,1.7,0c0-4.9,0-9.6,0-14.5c-0.1,0-0.2,0-0.3,0c-0.4,0-1,0-1.4,0c-0.3,0-0.5-0.2-0.5-0.5
			c0-2.2,0-4.3,0-6.4c0-0.3,0.2-0.5,0.5-0.5c3,0,5.9,0,8.8,0c0.3,0,0.5,0.2,0.5,0.5c0,4,0,8.1,0,12.1c0,0.1,0,0.1,0,0.2
			c0.1-0.1,0.1-0.1,0.1-0.1c1.5-2,2.9-4,4.3-5.9c1.6-2.2,3.1-4.4,4.7-6.5c0.1-0.2,0.3-0.3,0.4-0.3c2.3,0,4.7,0,7,0
			c0.2,0,0.3,0.1,0.4,0.3c0.1,0.2,0.1,0.3-0.1,0.5c-1.6,2.1-3.1,4.3-4.6,6.4c-1.7,2.3-3.4,4.7-5.1,7c-0.1,0.2-0.3,0.3-0.3,0.5
			c0,0,0,0.1,0,0.2C134.5,134.6,135.1,135.5,135.7,136.3L135.7,136.3z M143.8,136C143.7,136.1,143.7,136.1,143.8,136
			c-1.4,1.9-2.8,3.8-4.1,5.6c-0.1,0.1-0.1,0.1,0,0.2c1.4,1.8,2.7,3.7,4.1,5.5v0.1l0,0C143.8,143.6,143.8,139.8,143.8,136z"/>
	</g>
</g>
</svg>
