<?xml version="1.0" encoding="utf-8"?>
<!-- Generator: Adobe Illustrator 24.1.0, SVG Export Plug-In . SVG Version: 6.00 Build 0)  -->
<svg version="1.1" id="Camada_1" xmlns="http://www.w3.org/2000/svg" xmlns:xlink="http://www.w3.org/1999/xlink" x="0px" y="0px"
	 viewBox="0 0 102 105" style="enable-background:new 0 0 102 105;" xml:space="preserve">
<style type="text/css">
	.st0{fill:#FFFFFF;}
	.st1{fill:#007AFF;}
</style>
<g>
	<path class="st0" d="M74.7,59.7L49,82.9L23.3,59.7V41.8l12.2,9.8V30.5h27v21.1l12.2-9.8V59.7 M81.7,59.7V41.8
		c0-2.7-1.6-5.1-3.9-6.3c-2.4-1.2-5.3-0.9-7.4,0.9l-0.9,0.8v-6.7c0-3.9-3.1-7-7-7h-27c-3.9,0-7,3.1-7,7v6.7l-0.9-0.8
		c-2.1-1.7-4.9-2-7.4-0.9c-2.4,1.2-3.9,3.6-3.9,6.3v17.9c0,2,0.9,3.9,2.3,5.2l25.7,23.2c2.6,2.4,6.7,2.4,9.3,0l25.7-23.2
		C80.9,63.5,81.7,61.7,81.7,59.7L81.7,59.7z"/>
	<g>
		<polygon class="st1" points="74.7,59.7 74.7,41.8 62.6,51.6 62.6,30.4 35.6,30.4 35.6,51.6 23.3,41.8 23.3,59.7 49,82.9 		"/>
	</g>
</g>
</svg>
