<?xml version="1.0" encoding="utf-8"?>
<!-- Generator: Adobe Illustrator 24.1.0, SVG Export Plug-In . SVG Version: 6.00 Build 0)  -->
<svg version="1.1" id="Camada_1" xmlns="http://www.w3.org/2000/svg" xmlns:xlink="http://www.w3.org/1999/xlink" x="0px" y="0px"
	 viewBox="0 0 219 95" style="enable-background:new 0 0 219 95;" xml:space="preserve">
<style type="text/css">
	.st0{fill:#6D0C91;}
</style>
<g id="Grupo_57" transform="rotate(-91 67.78 66.622)">
	<path id="Caminho_172" class="st0" d="M92.3,88c-2.3,1.4-4.7,2.7-7,4.1l8.3-3.5c-0.3-0.3-0.6-0.6-0.8-0.9
		C92.5,87.8,92.4,87.9,92.3,88z M55.9,139c0.1,0,0.2,0,0.2,0.1c-0.6-3.1-1.1-6.3-1.6-9.4c-0.9-3.4-1.4-6.8-1.6-10.3
		c0-0.4,0.1-0.8,0.2-1.2c0,0,0-0.1,0-0.1c-0.5,0.2-0.9,0.4-1.4,0.7C52.2,125.5,53.6,132.4,55.9,139z M72.2,42.9
		c-1.2,0.5-2.4,1.1-3.6,1.6c0.5,0.5,0.9,1,1.4,1.4c0.7-0.5,1.4-1.1,2.1-1.6C71.9,43.8,72,43.3,72.2,42.9z M74.5,48.7
		c-0.4,0.2-0.8,0.4-1.2,0.6c1.3,1.4,2.5,2.7,3.8,4.1c0,0,0.1-0.1,0.1-0.1C76.3,51.8,75.4,50.3,74.5,48.7L74.5,48.7z M95.3,83.8
		l-0.1-0.2c0,0.1-0.1,0.2-0.1,0.4l0.1,0.1c0.5,0.5,1,1.1,1.4,1.6L95.3,83.8z M49.8,180.6l0.4,0.4l0,0c0.1,0.1,0.1,0.1,0.2,0.2
		c0.6-0.2,1.3-0.3,1.9-0.5c-0.1-0.2-0.2-0.5-0.3-0.7c-0.8,0.1-1.7,0.3-2.5,0.4C49.6,180.5,49.7,180.6,49.8,180.6L49.8,180.6z
		 M65.3,115.2c4.1-2.4,8.3-4.7,12.5-7c1.7-1,3.4-2,5-3.1c-3.7,1.8-7.4,3.7-11.1,5.7c-2.2,1.3-4.4,2.6-6.6,3.9
		C65.2,114.9,65.2,115.1,65.3,115.2z M66.4,194c0.2,1.2,0.3,2.4,0.2,3.6c0,0.1,0.1,0.2,0.1,0.3c0.3-0.6,0.5-1.3,0.8-1.9
		c-0.2-1.4-0.7-2.8-1.2-4.2C66.3,192.5,66.4,193.3,66.4,194z M97.9,93c0,0.1,0,0.2,0,0.3l0.3-0.1C98.1,93.1,98,93.1,97.9,93L97.9,93
		z M72.8,185.6c-0.6-0.3-1.1-0.8-1.3-1.5c-1.3,0.4-2.7,0.8-4,1.2c1.1,1.5,2.1,3.1,2.8,4.8C71.1,188.6,71.9,187.1,72.8,185.6z
		 M102.7,96.7c-0.2,0.2-0.5,0.4-0.7,0.6c0.3,0.3,0.6,0.7,0.7,1.2l1.6-0.8C103.7,97.4,103.1,97.1,102.7,96.7z M58.9,109.5
		c4.1-2.4,8.2-4.9,12.2-7.3c-4.3,1.8-8.6,3.6-12.9,5.3C58.5,108.2,58.7,108.8,58.9,109.5z M75,41.7c0.1,0,0.2,0.1,0.3,0.2
		c0.3-0.2,0.6-0.5,1-0.7C75.8,41.3,75.4,41.5,75,41.7z M60.1,39.5c0.2,0,0.5,0.1,0.7,0.2c0.5-0.5,1.1-0.7,1.7-0.5
		c12.5-8.1,25-16.2,37.5-24.3C86.3,22.3,73.1,30.8,60.1,39.5z M89.6,86.5c0.5-0.2,0.9-0.5,1.4-0.7c-1.3-1.6-2.6-3.2-3.8-4.8
		c-0.2,0.1-0.4,0.2-0.7,0.2c0.9,1.3,1.8,2.6,2.7,3.9C89.6,85.6,89.7,86.1,89.6,86.5z"/>
	<path id="Caminho_173" class="st0" d="M117.7,6.7c-2.6,1.7-5.2,3.4-7.7,5.1c1.7-0.9,3.3-1.8,5-2.6c2-1,3.6,2.1,1.8,3.3
		C103.7,21.5,90,29.7,75.9,37.2c5.6-2.7,11.2-5.6,16.7-8.6c9.4-6.2,19.1-12.1,28.9-17.6c2.3-1.3,4.8,1.8,2.5,3.4
		c-0.7,0.5-1.4,0.9-2,1.3l0,0.1c2.4-1.5,4.9-3,7.3-4.5c2.4-1.5,5.1,2,2.6,3.6c-8.9,5.8-17.9,11.4-27,16.8
		c-10.3,6.6-20.5,13.5-30.3,21c4,6.1,8,12.2,12,18.2c4.9,6.4,9.4,13.1,13.5,20.1c0.6,1.1,0.3,2.5-0.7,3.2c0.9,1.3,1.8,2.6,2.6,3.9
		c0.5,0.9,0.4,2-0.3,2.8c0.8,1.1,0.6,2.6-0.5,3.4c-0.1,0.1-0.2,0.1-0.3,0.2c-11.7,5.8-23.2,11.8-34.7,17.8c-0.5,0.3-1.2,0.3-1.7,0
		c-1.2,0.6-2.4,1.1-3.6,1.7c1,5,1.7,10,2,15.1c0.4,5.8,0.6,11.6,0.9,17.4c0.6,4.5,1.2,8.9,1.6,13.4c0.1,0.5-0.1,1.1-0.3,1.5
		c0.1,0.4,0.1,0.8,0.2,1.3c2.2,0,4.3,0,6.5,0.1c0.5,0,1,0.2,1.4,0.5c1.2,0,2.2,0.9,2.3,2.2c0,0.9-0.5,1.7-1.4,2.1
		c-1.7,0.9-3.4,1.7-5.1,2.5c1.8-0.2,3.5-0.5,5.3-0.7c0.9-0.1,1.8,0.4,2.2,1.2c0.3,0.1,0.6,0.2,0.8,0.4c1.3,0.3,2.4,1.7,1.6,3
		c-1.6,2.7-3.3,5.4-5,8c-3.1,5.2-5.8,10.7-8.3,16.2c-0.2,1.2-1.3,2.1-2.5,2c-0.3,0-0.6-0.2-0.9-0.3c0,0.9,0,1.9-0.1,2.8
		c-0.2,1.2-1.3,2-2.5,1.7c-0.5-0.1-1-0.4-1.3-0.8l-1.4-1.8c-0.7,0.1-1.5-0.2-1.8-0.9c-1.1-2-2.3-3.9-3.5-5.8
		c-3.1-3.9-6.2-7.9-9.4-11.8c-0.6-0.7-0.6-1.8,0-2.5c-0.4-0.6-0.8-1.1-1.2-1.7c-1-0.1-1.8-1.1-1.7-2.1c0-0.1,0-0.1,0-0.2l-0.4-0.5
		c-0.7-1-0.4-2.4,0.7-3c0,0,0.1-0.1,0.1-0.1c-0.9-0.7-1.1-2-0.4-2.9c0.2-0.3,0.6-0.6,0.9-0.7c3.5-1,7-1.8,10.6-2.6
		c-0.1-0.4-0.2-0.8-0.2-1.2c-1.6-0.1-3.2-0.1-4.8-0.2c-1.8-0.1-1.7-3.2,0.1-3.1c1.4,0,2.9,0,4.3,0.1c-1-6.5-1.5-13.1-1.6-19.7
		c0-0.8,0.3-1.6,1-2c-0.6-2-1.3-4.1-1.9-6.1c-0.2-0.5-0.2-1,0-1.4c-2.4-7.3-4.6-14.6-4.5-22.3c-0.6-0.8-0.6-1.9,0.1-2.6
		c0-0.6,0.1-1.2,0.1-1.7c0.1-0.7,0.8-1.2,1.6-1.1c0.4,0.1,0.8,0.4,1,0.8l0.1,0.3l1-0.6c0-0.3,0-0.6,0-0.9c0-0.4,0.1-0.7,0.4-1
		c-0.5-2.5-1.1-5-1.7-7.4c-0.6-2.3,2.7-3.1,3.9-1.6c0.5,0.6,0.9,1.2,1.3,1.8c10-5.4,20-10.8,30.1-16c-0.2-0.1-0.4-0.3-0.6-0.6
		C74.3,81.8,68.2,73,62.1,64.2l-2.5-3.6c-2.9-4.2-5.9-8.4-8.8-12.6c-0.1-0.2-0.2-0.3-0.2-0.5c-0.3-0.5-0.7-1-1-1.5
		c-0.7,0.2-1.5-0.1-1.7-0.8c-0.2-0.5-0.1-1,0.3-1.4c0-0.1-0.1-0.1-0.1-0.2c-0.1-0.1-0.1-0.2-0.2-0.3c-0.1,0-0.1,0-0.2,0L47.3,43
		c-0.8-0.2-1-1.2-0.7-1.9c0.2-0.8,0.9-1.3,1.8-1.4c0.5-0.1,1,0.2,1.3,0.6c0.2,0.4,0.5,0.8,0.7,1.2C64.7,29.6,81.2,21,97.8,12.7
		c6-3.2,12.1-6.1,18.3-8.8c0.8-0.3,1.8,0.1,2.1,1C118.5,5.6,118.2,6.3,117.7,6.7z M86.6,91c-2.3,1.4-4.7,2.7-7,4.1l8.3-3.5
		c-0.3-0.3-0.6-0.6-0.8-0.9C86.9,90.8,86.7,90.9,86.6,91L86.6,91z M50.2,142c0.1,0,0.2,0,0.2,0.1c-0.6-3.1-1.1-6.3-1.6-9.4
		c-0.9-3.4-1.4-6.8-1.6-10.3c0-0.4,0.1-0.8,0.2-1.2c0,0,0-0.1,0-0.1c-0.5,0.2-0.9,0.4-1.4,0.7C46.6,128.6,48,135.4,50.2,142
		L50.2,142z M66.5,45.9c-1.2,0.5-2.4,1.1-3.6,1.6c0.5,0.5,0.9,1,1.4,1.4c0.7-0.5,1.4-1.1,2.1-1.6C66.3,46.8,66.3,46.4,66.5,45.9z
		 M68.8,51.7l-1.2,0.6c1.3,1.4,2.5,2.7,3.8,4.1c0,0,0.1-0.1,0.1-0.1C70.6,54.8,69.7,53.3,68.8,51.7L68.8,51.7z M89.6,86.8l-0.1-0.2
		c0,0.1-0.1,0.2-0.1,0.4l0.1,0.1c0.5,0.5,0.9,1.1,1.4,1.6L89.6,86.8z M44.1,183.7c0.1,0.1,0.2,0.3,0.4,0.4l0,0
		c0.1,0.1,0.1,0.1,0.2,0.2c0.6-0.2,1.3-0.3,1.9-0.5c-0.1-0.2-0.2-0.5-0.3-0.7c-0.8,0.1-1.7,0.3-2.5,0.4
		C44,183.5,44,183.6,44.1,183.7L44.1,183.7z M59.6,118.3c4.1-2.4,8.3-4.7,12.5-7c1.7-1,3.4-2,5-3.1c-3.7,1.8-7.4,3.7-11.1,5.7
		c-2.2,1.3-4.4,2.6-6.6,3.9C59.5,117.9,59.5,118.1,59.6,118.3L59.6,118.3z M60.7,197c0.2,1.2,0.3,2.4,0.2,3.6c0,0.1,0.1,0.2,0.1,0.3
		c0.3-0.6,0.5-1.3,0.8-1.9c-0.2-1.4-0.7-2.8-1.2-4.2C60.7,195.6,60.7,196.3,60.7,197z M92.2,96c0,0.1,0,0.2,0,0.3l0.3-0.1L92.2,96
		L92.2,96z M67.1,188.6c-0.6-0.3-1.1-0.8-1.3-1.5c-1.3,0.4-2.7,0.8-4,1.2c1.1,1.5,2.1,3.1,2.8,4.8C65.4,191.6,66.3,190.1,67.1,188.6
		z M97,99.8l-0.7,0.6c0.3,0.3,0.6,0.7,0.7,1.2l1.6-0.8C98,100.4,97.5,100.1,97,99.8z M53.2,112.6c4.1-2.4,8.2-4.9,12.2-7.3
		c-4.3,1.8-8.6,3.6-12.9,5.3C52.8,111.2,53.1,111.9,53.2,112.6z M69.3,44.7c0.1,0,0.2,0.1,0.3,0.2l1-0.7
		C70.1,44.3,69.7,44.5,69.3,44.7L69.3,44.7z M54.4,42.6c0.2,0,0.5,0.1,0.7,0.2c0.5-0.5,1.1-0.7,1.7-0.5c12.5-8.1,25-16.2,37.5-24.3
		C80.6,25.4,67.5,33.9,54.4,42.6L54.4,42.6z M83.9,89.6c0.5-0.2,1-0.5,1.4-0.7c-1.3-1.6-2.6-3.2-3.8-4.8c-0.2,0.1-0.4,0.2-0.7,0.2
		l2.7,3.9C83.9,88.6,84,89.1,83.9,89.6L83.9,89.6z"/>
</g>
</svg>
