<?xml version="1.0" encoding="utf-8"?>
<!-- Generator: Adobe Illustrator 24.3.0, SVG Export Plug-In . SVG Version: 6.00 Build 0)  -->
<svg version="1.1" id="Camada_1" xmlns="http://www.w3.org/2000/svg" xmlns:xlink="http://www.w3.org/1999/xlink" x="0px" y="0px"
	 viewBox="0 0 18 16" style="enable-background:new 0 0 18 16;" xml:space="preserve">
<style type="text/css">
	.st0{fill:#007AFF;}
</style>
<path id="Caminho_1" class="st0" d="M7.3,15.1L17.2,4c0.8-0.8,0.8-2.1,0-2.8c-0.8-0.8-2.1-0.8-2.8,0c0,0-0.1,0.1-0.1,0.1l0,0
	l-8.3,9.4L3.6,8.1c-0.7-0.8-2-0.9-2.8-0.2c-0.8,0.7-0.9,2-0.2,2.8l0,0l3.9,4.4c0.4,0.4,0.9,0.7,1.5,0.7h0C6.4,15.8,7,15.5,7.3,15.1z
	 M5.9,14.4c-0.2,0-0.3-0.1-0.4-0.2L1.6,9.8C1.3,9.5,1.4,9.1,1.7,8.9C1.9,8.7,2.3,8.7,2.6,9l2.8,3.2c0.1,0.1,0.3,0.2,0.5,0.2
	c0.2,0,0.4-0.1,0.5-0.2l8.8-9.9C15.3,2.1,15.5,2,15.7,2c0.2,0,0.4,0,0.5,0.2c0.3,0.2,0.3,0.7,0.1,0.9l0,0L6.3,14.2
	C6.2,14.4,6.1,14.4,5.9,14.4L5.9,14.4z"/>
</svg>
