<?xml version="1.0" encoding="utf-8"?>
<!-- Generator: Adobe Illustrator 24.3.0, SVG Export Plug-In . SVG Version: 6.00 Build 0)  -->
<svg version="1.1" id="Camada_1" xmlns="http://www.w3.org/2000/svg" xmlns:xlink="http://www.w3.org/1999/xlink" x="0px" y="0px"
	 viewBox="0 0 50 50" style="enable-background:new 0 0 50 50;" xml:space="preserve">
<style type="text/css">
	.st0{fill:#06CCED;}
</style>
<g id="Grupo_409" transform="translate(-131.359 -33.216)">
	<path id="Caminho_575" class="st0" d="M149.6,70c0-0.3,0.2-0.6,0.6-0.6l0,0c1.4,0,2.5-1.1,2.5-2.5c0-0.3,0.2-0.6,0.6-0.6
		c0.3,0,0.6,0.2,0.6,0.6c0,2-1.6,3.6-3.7,3.7C149.8,70.6,149.6,70.4,149.6,70C149.6,70,149.6,70,149.6,70z"/>
	<path id="Caminho_576" class="st0" d="M155.5,48.2c-0.3,0-0.6,0.2-0.6,0.6v1c-0.6,0.4-1.3,0.4-2,0v-1c0-0.3-0.2-0.6-0.6-0.6
		c-0.3,0-0.6,0.2-0.6,0.6v7c0,0.3,0.2,0.6,0.6,0.6c0.3,0,0.6-0.2,0.6-0.6v-1.9c0.6,0.2,1.3,0.2,2,0v1.9c0,0.3,0.2,0.6,0.6,0.6
		c0.3,0,0.6-0.2,0.6-0.6v-7C156,48.4,155.8,48.2,155.5,48.2L155.5,48.2z M154.9,52.6c-0.6,0.4-1.3,0.4-2,0V51c0.6,0.2,1.3,0.2,2,0
		V52.6z"/>
	<g id="Grupo_387" transform="translate(131.359 33.216)">
		<path id="Caminho_577" class="st0" d="M38.3,38.4h-9.4c-0.9,0-1.6,0.7-1.6,1.6v5.6h-5.3c-0.3,0-0.6-0.2-0.6-0.6v-4.4h2.2
			c0.4,0,0.9-0.2,1.2-0.5l0.4-0.4c0.2-0.2,0.2-0.6,0-0.8c-0.2-0.2-0.6-0.2-0.8,0L24,39.3c-0.1,0.1-0.2,0.2-0.4,0.2h-7.9
			c-0.3,0-0.6-0.2-0.6-0.6c0,0,0,0,0,0l0.5-7.5h0.6c0.6,0,1.2-0.4,1.5-1l0.1-0.1c0.1-0.3,0-0.6-0.3-0.7c-0.3-0.1-0.6,0-0.7,0.3
			l-0.1,0.1c-0.1,0.2-0.3,0.3-0.5,0.3h-3.1c-0.3,0-0.6-0.2-0.6-0.6c0,0,0-0.1,0-0.1l2.3-9.5c0.1-0.2,0.3-0.4,0.5-0.4h2.8
			c0.2,0.8,0.4,1.7,0.5,2.5c-0.5,0.3-0.8,0.8-0.8,1.4v3.6c0,0.9,0.7,1.7,1.7,1.7h6.2c0.9,0,1.7-0.7,1.7-1.7v-3.6
			c0-0.6-0.3-1.1-0.8-1.4c0.1-0.9,0.2-1.7,0.5-2.5h3.5c0.3,0,0.6,0.2,0.6,0.6v2.9c0,0.3,0.2,0.6,0.6,0.6c0.1,0,0.3-0.1,0.4-0.2
			c0.9-1,2.5-1.3,3.7-0.7c1.5,0.8,1.8,3,0.7,4.8c-0.5,0.9-1.3,1.5-2.2,1.9c-0.8,0.3-1.6,0.3-2.4-0.1l0,0c-0.3-0.2-0.6-0.1-0.8,0.2
			C31,29.7,31,29.8,31,29.9v6c0,0.3,0.2,0.6,0.6,0.6c0.3,0,0.6-0.2,0.6-0.6v-5.1c0.8,0.2,1.7,0.2,2.5-0.1c1.2-0.5,2.1-1.3,2.8-2.4
			c1.4-2.4,0.8-5.2-1.1-6.4c-1.3-0.7-2.9-0.6-4.1,0.2v-1.8c0-0.9-0.7-1.7-1.7-1.7h-3.1c0.5-1.3,1.2-2.6,2-3.7c2.8-3.7,2-9-1.7-11.8
			c-3.7-2.8-9-2-11.8,1.7c-2.3,3-2.2,7.2,0.1,10.2c0.8,1.1,1.5,2.3,2,3.6h-2.5c-0.8,0-1.4,0.5-1.6,1.3l-2.3,9.5
			c-0.2,0.9,0.3,1.8,1.2,2c0.1,0,0.3,0,0.4,0h1.4l-0.5,7.5c-0.1,0.9,0.6,1.7,1.6,1.8c0,0,0.1,0,0.1,0h4.6V45c0,0.9,0.7,1.7,1.7,1.7
			h5.3v1c0,0.9,0.7,1.6,1.6,1.6h3.4c0.3,0,0.6-0.2,0.6-0.6s-0.2-0.6-0.6-0.6h-3.4c-0.3,0-0.5-0.2-0.5-0.5l0,0v-1.2h1.4
			c0.4,0,0.9-0.2,1.2-0.5l1.5-1.5c0.1-0.1,0.2-0.2,0.4-0.2H37c0.2,0,0.4,0,0.7-0.1c0.2-0.1,0.4-0.2,0.5-0.4l0.5-0.5v4.3
			c0,0.3-0.2,0.5-0.5,0.5l0,0h-2.9c-0.3,0-0.6,0.2-0.6,0.6s0.2,0.6,0.6,0.6h2.9c0.9,0,1.6-0.7,1.6-1.6V40
			C39.8,39.1,39.1,38.4,38.3,38.4L38.3,38.4z M26.2,27.2c0,0.3-0.2,0.6-0.6,0.6h-6.2c-0.3,0-0.6-0.2-0.6-0.6v-3.6
			c0-0.3,0.2-0.6,0.6-0.6h6.2c0.3,0,0.6,0.2,0.6,0.6V27.2z M15.2,9.7c0.1-4.1,3.4-7.3,7.5-7.2c4.1,0.1,7.3,3.4,7.2,7.5
			c0,1.5-0.5,3-1.4,4.3c-1.7,2.3-2.8,4.9-3.1,7.7h-5.7c-0.3-2.8-1.3-5.4-3-7.6C15.7,13,15.2,11.4,15.2,9.7L15.2,9.7z M37.4,43.1
			c0,0-0.1,0.1-0.2,0.1c-0.1,0-0.1,0-0.2,0h-4.2c-0.4,0-0.9,0.2-1.2,0.5l-1.5,1.5c-0.1,0.1-0.2,0.2-0.4,0.2h-1.4V40
			c0-0.3,0.2-0.5,0.5-0.5l0,0h9.4c0.3,0,0.5,0.2,0.5,0.5l0,0v1.8L37.4,43.1z"/>
		<path id="Caminho_578" class="st0" d="M33.1,9.7c0,0.3,0.2,0.6,0.6,0.6l0,0h1.1c0.3,0,0.6-0.2,0.6-0.6s-0.2-0.6-0.6-0.6l0,0h-1.1
			C33.4,9.1,33.1,9.4,33.1,9.7L33.1,9.7z"/>
		<path id="Caminho_579" class="st0" d="M33,7.7c0.1,0,0.2,0,0.3-0.1l1.1-0.8c0.2-0.2,0.3-0.5,0.1-0.8c-0.2-0.2-0.5-0.3-0.8-0.1
			l-1.1,0.8c-0.2,0.2-0.3,0.5-0.1,0.8C32.7,7.6,32.9,7.7,33,7.7z"/>
		<path id="Caminho_580" class="st0" d="M33.4,11.7c-0.2-0.2-0.6-0.1-0.8,0.1c-0.2,0.2-0.1,0.6,0.1,0.8l1.1,0.8
			c0.2,0.2,0.6,0.1,0.8-0.1c0.2-0.2,0.1-0.6-0.1-0.8L33.4,11.7z"/>
		<path id="Caminho_581" class="st0" d="M11.6,9.7c0-0.3-0.2-0.6-0.6-0.6H10c-0.3,0-0.6,0.2-0.6,0.6s0.2,0.6,0.6,0.6h1.1
			C11.4,10.2,11.6,10,11.6,9.7z"/>
		<path id="Caminho_582" class="st0" d="M10.3,6.8l1.1,0.8c0.2,0.2,0.6,0.1,0.8-0.1c0.2-0.2,0.1-0.6-0.1-0.8l-1.1-0.8
			c-0.2-0.2-0.6-0.1-0.8,0.1C10,6.2,10,6.6,10.3,6.8z"/>
		<path id="Caminho_583" class="st0" d="M12.2,11.9c-0.2-0.2-0.5-0.3-0.8-0.1l-1.1,0.8c-0.2,0.2-0.3,0.5-0.1,0.8
			c0.2,0.2,0.5,0.3,0.8,0.1l1.1-0.8C12.3,12.5,12.3,12.1,12.2,11.9L12.2,11.9z"/>
	</g>
	<path id="Caminho_584" class="st0" d="M155.9,58.3h-3.9c-0.3,0-0.6-0.2-0.6-0.6c0-0.3,0.2-0.6,0.6-0.6h3.9c0.3,0,0.6,0.2,0.6,0.6
		C156.4,58,156.2,58.3,155.9,58.3z"/>
	<path id="Caminho_585" class="st0" d="M155.9,60.2h-3.9c-0.3,0-0.6-0.2-0.6-0.6c0-0.3,0.2-0.6,0.6-0.6h3.9c0.3,0,0.6,0.2,0.6,0.6
		C156.4,59.9,156.2,60.2,155.9,60.2z"/>
</g>
</svg>
