<?xml version="1.0" encoding="utf-8"?>
<!-- Generator: Adobe Illustrator 24.3.0, SVG Export Plug-In . SVG Version: 6.00 Build 0)  -->
<svg version="1.1" id="Camada_1" xmlns="http://www.w3.org/2000/svg" xmlns:xlink="http://www.w3.org/1999/xlink" x="0px" y="0px"
	 viewBox="0 0 50 50" style="enable-background:new 0 0 50 50;" xml:space="preserve">
<style type="text/css">
	.st0{fill:#24D2EF;}
	.st1{fill:#06CCED;}
</style>
<g id="Grupo_440" transform="translate(-1018 -3857)">
	<path id="Caminho_572" class="st0" d="M1056.9,3885.4h-4.1c-0.3,0-0.6-0.3-0.6-0.6c0,0,0,0,0,0c0-0.3,0.3-0.6,0.6-0.6c0,0,0,0,0,0
		h4.1c0.3,0,0.6,0.3,0.6,0.6c0,0,0,0,0,0C1057.5,3885.1,1057.2,3885.4,1056.9,3885.4C1056.9,3885.4,1056.9,3885.4,1056.9,3885.4z"/>
	<path id="Caminho_573" class="st0" d="M1057.2,3887.5h-4.8c-0.3,0-0.6-0.3-0.6-0.6c0,0,0,0,0,0c0-0.3,0.3-0.6,0.6-0.6c0,0,0,0,0,0
		h4.8c0.3,0,0.6,0.3,0.6,0.6c0,0,0,0,0,0C1057.8,3887.2,1057.6,3887.5,1057.2,3887.5C1057.2,3887.5,1057.2,3887.5,1057.2,3887.5z"/>
	<path id="Caminho_574" class="st1" d="M1061.7,3894.2h-0.3l-1.3-12.6c1,0,1.7-0.8,1.7-1.7v-1.3c0.8-0.1,1.4-0.9,1.4-1.7v-7.4
		c0-0.6-0.5-1.2-1.2-1.2h-3.9v-3.1c0-1.7-1.4-3.1-3.1-3.1h-31.2c-1.7,0-3.1,1.4-3.1,3.1v31.2c0,1.7,1.4,3.1,3.1,3.1h21.3v0.4
		c0,1,0.8,1.7,1.7,1.7h16c1,0,1.7-0.8,1.7-1.7v-2.7C1064.6,3895.5,1063.3,3894.2,1061.7,3894.2
		C1061.7,3894.2,1061.7,3894.2,1061.7,3894.2z M1060.6,3879.8c0,0.3-0.2,0.5-0.5,0.5c0,0,0,0,0,0h-10.4c-0.3,0-0.5-0.2-0.5-0.5
		c0,0,0,0,0,0v-1.3h11.5L1060.6,3879.8L1060.6,3879.8z M1060,3871.8v-2.4h2v7.4c0,0.3-0.2,0.5-0.5,0.5h-13.3c-0.3,0-0.5-0.2-0.5-0.5
		c0,0,0,0,0,0v-7.4h2v2.4c0,0.6,0.5,1.2,1.2,1.2h1.9c0.6,0,1.2-0.5,1.2-1.2v-2.4h1.9v2.4c0,0.6,0.5,1.2,1.2,1.2h1.9
		C1059.5,3873,1060,3872.5,1060,3871.8C1060,3871.8,1060,3871.8,1060,3871.8z M1050.9,3871.8v-2.3h1.8v2.3H1050.9z M1058.8,3871.8
		h-1.8v-2.3h1.8V3871.8z M1055,3863.2c1.1,0,1.9,0.9,1.9,1.9v3.1h-6v-5.1H1055z M1043.6,3863.2h6v5.1h-2c-0.6,0-1.1,0.4-1.1,1h-2.9
		L1043.6,3863.2L1043.6,3863.2z M1043.6,3870.4h2.9v6h-2.9V3870.4z M1043.6,3877.7h3.1c0.3,0.5,0.7,0.8,1.2,0.9v1.3
		c0,1,0.8,1.7,1.7,1.7l-0.2,2.1h-5.8L1043.6,3877.7z M1043.6,3884.9h5.7l-0.6,6h-5L1043.6,3884.9z M1029.1,3863.2h6v6h-6V3863.2z
		 M1029.1,3870.4h6v6h-6V3870.4z M1029.1,3877.7h6v6h-6V3877.7z M1027.9,3898.2h-4.1c-1.1,0-1.9-0.9-1.9-1.9v-4.1h6V3898.2z
		 M1027.9,3891h-6v-6h6L1027.9,3891z M1027.9,3883.7h-6v-6h6L1027.9,3883.7z M1027.9,3876.5h-6v-6h6L1027.9,3876.5z M1027.9,3869.2
		h-6v-4.1c0-1.1,0.9-1.9,1.9-1.9h4.1L1027.9,3869.2z M1035.1,3898.2h-6v-6h6V3898.2z M1042.4,3898.2h-6v-6h6L1042.4,3898.2z
		 M1042.4,3891h-6v-3.2c0-0.3-0.3-0.6-0.6-0.6c0,0,0,0,0,0c-0.3,0-0.6,0.3-0.6,0.6c0,0,0,0,0,0v3.2h-6v-6h13.3L1042.4,3891z
		 M1042.4,3883.7h-6v-6h6L1042.4,3883.7z M1042.4,3876.5h-6v-6h6L1042.4,3876.5z M1042.4,3869.2h-6v-6.1h6L1042.4,3869.2z
		 M1043.6,3898.2v-6h4.9l-0.2,2h-0.3c-1.6,0-2.9,1.3-2.9,2.9v1.2L1043.6,3898.2z M1063.4,3899.8c0,0.3-0.2,0.5-0.5,0.5c0,0,0,0,0,0
		h-16c-0.3,0-0.5-0.2-0.5-0.5c0,0,0,0,0,0v-2.7c0-0.9,0.7-1.7,1.7-1.7c0,0,0,0,0,0h8.3c0.3,0,0.6-0.3,0.6-0.6c0,0,0,0,0,0
		c0-0.3-0.3-0.6-0.6-0.6c0,0,0,0,0,0h-6.8l1.3-12.6h8l1.3,12.6h-0.6c-0.3,0-0.6,0.3-0.6,0.6c0,0,0,0,0,0c0,0.3,0.3,0.6,0.6,0.6
		c0,0,0,0,0,0h2.1c0.9,0,1.7,0.7,1.7,1.7c0,0,0,0,0,0L1063.4,3899.8z"/>
</g>
</svg>
