<?xml version="1.0" encoding="utf-8"?>
<!-- Generator: Adobe Illustrator 24.3.0, SVG Export Plug-In . SVG Version: 6.00 Build 0)  -->
<svg version="1.1" id="Camada_1" xmlns="http://www.w3.org/2000/svg" xmlns:xlink="http://www.w3.org/1999/xlink" x="0px" y="0px"
	 viewBox="0 0 50 50" style="enable-background:new 0 0 50 50;" xml:space="preserve">
<style type="text/css">
	.st0{fill:#06CCED;}
</style>
<g id="Grupo_404" transform="translate(-37.02 -71.765)">
	<path id="Caminho_540" class="st0" d="M78.3,88.3c0.8-0.7,0.8-2,0.1-2.8c-0.7-0.8-2-0.8-2.8-0.1s-0.8,2-0.1,2.8c0,0,0,0,0.1,0.1
		c-0.4,0.4-0.6,0.9-0.6,1.4c0,0.3,0.2,0.5,0.5,0.5c0.3,0,0.5-0.2,0.5-0.5c0,0,0,0,0,0c0-0.5,0.4-0.9,0.9-0.9s0.9,0.4,0.9,0.9
		c0,0.3,0.2,0.5,0.5,0.5c0.3,0,0.5-0.2,0.5-0.5c0,0,0,0,0,0C78.9,89.2,78.7,88.7,78.3,88.3z M76.1,86.9c0-0.5,0.4-0.9,0.9-0.9
		c0.5,0,0.9,0.4,0.9,0.9c0,0.5-0.4,0.9-0.9,0.9C76.5,87.7,76.1,87.4,76.1,86.9L76.1,86.9z"/>
	<path id="Caminho_541" class="st0" d="M47.3,84.6c1.2-0.9,1.4-2.6,0.5-3.8c-0.9-1.2-2.6-1.4-3.8-0.5c-1.2,0.9-1.4,2.6-0.5,3.8
		c0.1,0.2,0.3,0.4,0.5,0.5c-0.7,0.5-1.1,1.3-1.1,2.1c0,0.3,0.2,0.5,0.5,0.5c0.3,0,0.5-0.2,0.5-0.5c0-0.9,0.8-1.6,1.6-1.6
		c0.8,0,1.5,0.7,1.6,1.6c0,0.3,0.2,0.5,0.5,0.5c0.3,0,0.5-0.2,0.5-0.5C48.4,85.9,48,85.1,47.3,84.6z M44.1,82.4
		c0-0.9,0.7-1.6,1.6-1.6s1.6,0.7,1.6,1.6c0,0.9-0.7,1.6-1.6,1.6c0,0,0,0,0,0C44.8,84,44.1,83.3,44.1,82.4z"/>
	<path id="Caminho_542" class="st0" d="M79.2,82.7h-2.3c-1.8,0-3.5,1-4.5,2.6l-16.1-3.4c-0.9-3.2-3.8-5.5-7.2-5.5h-3.5
		c-4.1,0-7.5,3.3-7.5,7.5c0,4.1,3.3,7.5,7.5,7.5c0,0,0,0,0,0h1.4l2.9,13.9c-3.1,1.2-4.6,4.6-3.4,7.7c0.9,2.3,3.1,3.8,5.5,3.8h2.7
		c3.3,0,5.9-2.7,5.9-5.9c0-3.3-2.7-5.9-5.9-5.9h-2.7c-0.4,0-0.7,0-1.1,0.1l-2.9-13.6h0.9c4.1,0,7.5-3.3,7.5-7.5c0-0.3,0-0.5,0-0.8
		L72,86.3c-0.6,2,0,4.1,1.6,5.4l-13,13c-0.2,0.2-0.2,0.6,0,0.8c0.2,0.2,0.6,0.2,0.8,0l13.2-13.2c0.7,0.4,1.6,0.6,2.4,0.6h2.3
		c0.8,0,1.7-0.2,2.4-0.6c0.3-0.1,0.4-0.5,0.2-0.7c-0.1-0.3-0.5-0.4-0.7-0.2c-0.3,0.1-0.6,0.3-0.9,0.3c2.2-1.8,2.4-5.1,0.6-7.2
		c-0.2-0.2-0.4-0.4-0.6-0.6c2.2,0.6,3.4,2.8,2.9,4.9c0,0.2-0.1,0.3-0.2,0.5c-0.1,0.3,0,0.6,0.3,0.7s0.6,0,0.7-0.3l0,0
		c1.1-2.6-0.2-5.6-2.8-6.7C80.6,82.8,79.9,82.7,79.2,82.7z M47.4,110.7c0-2.7,2.2-4.9,4.9-4.9s4.9,2.2,4.9,4.9
		c0,2.7-2.2,4.9-4.9,4.9C49.6,115.6,47.4,113.4,47.4,110.7z M59.8,110.7c0,2.4-1.7,4.4-4,4.8c2.6-1.9,3.2-5.7,1.2-8.3
		c-0.4-0.5-0.8-0.9-1.2-1.2C58.1,106.4,59.8,108.4,59.8,110.7L59.8,110.7z M39.3,83.8c0-3.5,2.9-6.4,6.4-6.4s6.4,2.9,6.4,6.4
		c0,3.5-2.9,6.4-6.4,6.4c0,0,0,0,0,0C42.2,90.2,39.3,87.3,39.3,83.8z M49.6,90.2c3.5-2.2,4.6-6.8,2.4-10.3c-0.6-1-1.5-1.8-2.4-2.4
		c3.5,0.3,6.2,3.3,5.9,6.8C55.3,87.4,52.8,89.9,49.6,90.2z M81,87.8c0,2.2-1.8,4-4,4s-4-1.8-4-4c0-2.2,1.8-4,4-4h0
		C79.2,83.8,81,85.6,81,87.8L81,87.8z"/>
	<path id="Caminho_543" class="st0" d="M53.7,111.3c-0.9-0.8-2.3-0.7-3.1,0.2c-0.3,0.4-0.5,0.9-0.5,1.4c0,0.3,0.2,0.5,0.5,0.5
		c0.3,0,0.5-0.2,0.5-0.5c0-0.6,0.5-1.1,1.1-1.1c0.6,0,1.1,0.5,1.1,1.1c0,0.3,0.2,0.5,0.5,0.5c0.3,0,0.5-0.2,0.5-0.5
		C54.5,112.3,54.2,111.7,53.7,111.3z M51.1,109.6c0-0.6,0.5-1.1,1.1-1.1s1.1,0.5,1.1,1.1c0,0.6-0.5,1.1-1.1,1.1c0,0,0,0,0,0
		C51.6,110.8,51.1,110.3,51.1,109.6L51.1,109.6z"/>
</g>
</svg>
