<?xml version="1.0" encoding="utf-8"?>
<!-- Generator: Adobe Illustrator 24.3.0, SVG Export Plug-In . SVG Version: 6.00 Build 0)  -->
<svg version="1.1" id="Camada_1" xmlns="http://www.w3.org/2000/svg" xmlns:xlink="http://www.w3.org/1999/xlink" x="0px" y="0px"
	 viewBox="0 0 50 50" style="enable-background:new 0 0 50 50;" xml:space="preserve">
<style type="text/css">
	.st0{fill:#06CCED;}
</style>
<g id="Grupo_403" transform="translate(-52.26 -104.346)">
	<path id="Caminho_551" class="st0" d="M76.9,132.9c3,0,5.4-3,5.4-6.7s-2.4-6.7-5.4-6.7s-5.4,3-5.4,6.7S73.9,132.9,76.9,132.9z
		 M76.9,120.3c2.5,0,4.5,2.6,4.5,5.8s-2,5.8-4.5,5.8s-4.5-2.6-4.5-5.8S74.4,120.3,76.9,120.3L76.9,120.3z"/>
	<path id="Caminho_552" class="st0" d="M67.5,132h2.1c0.3,0,0.5-0.2,0.5-0.5c0-0.3-0.2-0.5-0.5-0.5c0,0,0,0,0,0h-2.1
		c-0.3,0-0.5,0.2-0.5,0.5C67,131.8,67.2,132,67.5,132L67.5,132z"/>
	<path id="Caminho_553" class="st0" d="M84.2,121.3h2.1c0.3,0,0.5-0.2,0.5-0.5s-0.2-0.5-0.5-0.5c0,0,0,0,0,0h-2.1
		c-0.3,0-0.5,0.2-0.5,0.5S83.9,121.3,84.2,121.3C84.1,121.3,84.2,121.3,84.2,121.3z"/>
	<circle id="Elipse_26" class="st0" cx="66.4" cy="126.2" r="0.5"/>
	<circle id="Elipse_27" class="st0" cx="68" cy="126.2" r="0.5"/>
	<circle id="Elipse_28" class="st0" cx="69.7" cy="126.2" r="0.5"/>
	<circle id="Elipse_29" class="st0" cx="84.1" cy="126.2" r="0.5"/>
	<circle id="Elipse_30" class="st0" cx="85.7" cy="126.2" r="0.5"/>
	<circle id="Elipse_31" class="st0" cx="87.4" cy="126.2" r="0.5"/>
	<path id="Caminho_554" class="st0" d="M94.1,118.6c-0.2-0.2-0.5-0.2-0.7,0l-1.7,1.7c-0.2,0.2-0.2,0.5,0,0.7c0.2,0.2,0.5,0.2,0.7,0
		l1.7-1.7C94.3,119.1,94.3,118.8,94.1,118.6z"/>
	<path id="Caminho_555" class="st0" d="M91.2,119.7l1.7-1.7c0.2-0.2,0.2-0.5,0-0.7c-0.2-0.2-0.5-0.2-0.7,0c0,0,0,0,0,0l-1.7,1.7
		c-0.2,0.2-0.2,0.5,0,0.7C90.7,119.8,91,119.8,91.2,119.7z"/>
	<path id="Caminho_556" class="st0" d="M61.2,135.2c0.1,0,0.3-0.1,0.3-0.1l1.7-1.7c0.2-0.2,0.2-0.5,0-0.7c-0.2-0.2-0.5-0.2-0.7,0
		c0,0,0,0,0,0l-1.7,1.7c-0.2,0.2-0.2,0.5,0,0.7C61,135.2,61.1,135.2,61.2,135.2z"/>
	<path id="Caminho_557" class="st0" d="M62.1,131.3c-0.2-0.2-0.5-0.2-0.7,0l-1.7,1.7c-0.2,0.2-0.2,0.5,0,0.7c0.2,0.2,0.5,0.2,0.7,0
		c0,0,0,0,0,0l1.7-1.7C62.3,131.8,62.3,131.5,62.1,131.3C62.1,131.3,62.1,131.3,62.1,131.3z"/>
	<path id="Caminho_558" class="st0" d="M76.2,126.6h0.2v1h-0.6c-0.3,0-0.5,0.2-0.5,0.5s0.2,0.5,0.5,0.5c0,0,0,0,0,0h0.6v0.2
		c0,0.3,0.2,0.5,0.5,0.5s0.5-0.2,0.5-0.5c0,0,0,0,0,0v-0.2h0.2c0.8,0,1.5-0.7,1.5-1.5c0-0.8-0.7-1.5-1.5-1.5l0,0h-0.2v-1H78
		c0.3,0,0.5-0.2,0.5-0.5c0-0.3-0.2-0.5-0.5-0.5h-0.6v-0.2c0-0.3-0.2-0.5-0.5-0.5c-0.3,0-0.5,0.2-0.5,0.5v0.2h-0.2
		c-0.8,0-1.5,0.7-1.5,1.5C74.8,126,75.4,126.6,76.2,126.6z M77.4,126.6h0.2c0.3,0,0.5,0.2,0.5,0.5s-0.2,0.5-0.5,0.5h-0.2V126.6z
		 M76.2,124.7h0.2v1h-0.2c-0.3,0-0.5-0.2-0.5-0.5S76,124.7,76.2,124.7z"/>
	<path id="Caminho_559" class="st0" d="M96.3,130.9c0.3,0,0.5-0.2,0.5-0.5v-13.7c0-1.3-1.1-2.4-2.4-2.4H59.4c-1.3,0-2.4,1.1-2.4,2.4
		v18.9c0,1,0.6,1.8,1.5,2.2v0.7c0,1,0.6,1.9,1.5,2.2v0.7c0,1.3,1.1,2.4,2.4,2.4h29.1c1.3,0,2.4-1.1,2.4-2.4v-0.7
		c0.9-0.4,1.5-1.3,1.5-2.2v-0.7c0.9-0.4,1.5-1.3,1.5-2.2v-2.5c0-0.3-0.2-0.5-0.5-0.5c-0.3,0-0.5,0.2-0.5,0.5v2.5
		c0,0.8-0.7,1.5-1.5,1.5H59.4c-0.8,0-1.5-0.7-1.5-1.5v-18.9c0-0.8,0.7-1.5,1.5-1.5h34.9c0.8,0,1.5,0.7,1.5,1.5v13.7
		C95.8,130.7,96,130.9,96.3,130.9C96.3,130.9,96.3,130.9,96.3,130.9z M59.4,138.1h34.9v0.5c0,0.7-0.5,1.3-1.1,1.4
		c-0.1,0-0.2,0-0.4,0H63.2c-0.3,0-0.5,0.2-0.5,0.5c0,0.3,0.2,0.5,0.5,0.5c0,0,0,0,0,0h29.7v0.5c0,0.8-0.7,1.5-1.5,1.5H62.3
		c-0.8,0-1.5-0.7-1.5-1.5v-1c0-0.2-0.2-0.4-0.4-0.5c-0.6-0.2-1.1-0.8-1.1-1.4L59.4,138.1z"/>
	<path id="Caminho_560" class="st0" d="M65.7,134.3h22.4c0.5,0,0.9-0.3,1-0.8c0.4-1.9,1.7-3.4,3.5-3.9c0.4-0.1,0.7-0.5,0.7-0.9v-5
		c0-0.4-0.3-0.8-0.7-0.9c-1.8-0.6-3.2-2.1-3.5-3.9c-0.1-0.5-0.5-0.8-1-0.8H65.7c-0.5,0-0.9,0.3-1,0.8c-0.4,1.9-1.7,3.4-3.5,3.9
		c-0.4,0.1-0.7,0.5-0.7,0.9v5c0,0.4,0.3,0.8,0.7,0.9c1.8,0.6,3.2,2.1,3.5,3.9C64.8,134,65.2,134.3,65.7,134.3z M61.5,128.7l0-5
		c2.2-0.7,3.8-2.5,4.2-4.7l22.4,0c0.4,2.2,2.1,4,4.2,4.7l0,5c-2.2,0.7-3.8,2.5-4.2,4.7l-22.4,0C65.3,131.1,63.6,129.3,61.5,128.7z"
		/>
</g>
</svg>
