<?xml version="1.0" encoding="utf-8"?>
<!-- Generator: Adobe Illustrator 24.1.0, SVG Export Plug-In . SVG Version: 6.00 Build 0)  -->
<svg version="1.1" id="Camada_1" xmlns="http://www.w3.org/2000/svg" xmlns:xlink="http://www.w3.org/1999/xlink" x="0px" y="0px"
	 viewBox="0 0 487 133" style="enable-background:new 0 0 487 133;" xml:space="preserve">
<style type="text/css">
	.st0{fill:#FFFFFF;}
	.st1{fill:#007AFF;}
</style>
<g>
	<path class="st0" d="M476.5,30.4l-31-13.9c-1.6-0.8-3.3-1.1-5.1-1.1c-2.3,0-4.7,0.7-6.7,2c-1.4,0.9-2.5,2.1-3.4,3.4
		c-1.2-0.7-2.6-1.3-4.1-1.8c-2.6-0.8-5.4-1.3-8.6-1.3c-3.4,0-6.8,0.6-10,1.7c-1.8,0.6-3.5,1.4-5.1,2.4c-1-0.8-2.1-1.4-3.2-2
		c-2.9-1.4-6.2-2.1-9.8-2.1c-2.2,0-4.3,0.3-6.2,0.8c-0.7-0.1-1.2-0.2-1.9-0.2h-6.2c-2.8,0-5.4,0.9-7.5,2.5c-1-0.5-2-1-3.1-1.4
		c-3.2-1.2-6.5-1.8-10-1.8c-2.6,0-5.1,0.3-7.6,1c-0.7-3.4-2.3-6.5-5-9c-3.2-2.8-7.1-4.4-11.4-4.4c-4.5,0-8.6,1.8-11.8,4.9
		c-2.1,2.1-3.6,4.7-4.2,7.5c-0.2,0-0.5,0-0.7,0c-3.5,0-6.8,0.6-10,1.8c-2.2,0.8-4.1,1.9-5.9,3.2c-1.3-1.1-2.8-2.1-4.4-2.8
		c-2.9-1.4-6.2-2.1-9.8-2.1c-2.2,0-4.3,0.3-6.2,0.8c-0.7-0.1-1.2-0.2-1.9-0.2h-6.2c-1.3,0-2.6,0.2-3.7,0.6c-1.2-0.3-2.4-0.6-3.7-0.6
		h-6.6c-2,0-3.8,0.4-5.5,1.3c-0.9-0.4-1.8-0.8-2.8-1l0.2-2.4c0.5-6.3-3.7-12-10-13.2c-2.1-0.4-4.3-0.7-6.6-0.7
		c-3.8,0-7.1,0.7-10,1.9c-3.4,1.5-6.2,3.9-8.3,7c-1.7,2.5-2.8,5.4-3.4,8.7c0,0.1,0,0.2,0,0.3c-2.9,1.8-5,4.7-5.6,8.1
		c-0.9-1.2-1.8-2.3-2.9-3.4c-2.5-2.3-5.4-4.2-8.7-5.4c-3.2-1.2-6.5-1.8-10-1.8s-6.8,0.6-10,1.8c-2.1,0.8-4,1.8-5.7,3
		c-1.2-1.1-2.7-1.9-4.2-2.7c-2.9-1.4-6.2-2.2-9.9-2.2c-3,0-5.8,0.5-8.5,1.5c-2.6-1-5.4-1.5-8.5-1.5c-2.2,0-4.3,0.3-6.2,0.8
		c-0.7-0.1-1.2-0.2-1.9-0.2h-6.2c-2.7,0-5.3,0.9-7.4,2.4c-0.9-0.5-1.9-0.9-2.9-1.3c-3.2-1.2-6.5-1.8-10-1.8s-6.8,0.6-10,1.8
		c-1.2,0.5-2.4,1.1-3.6,1.7c-1.2-0.7-2.2-1.3-3.5-1.8c-3.1-1.2-6.3-1.8-9.5-1.8c-3.5,0-6.8,0.6-10,1.8c-1.5,0.6-3,1.3-4.3,2.1
		c-1-1.7-2.3-3.2-4-4.3c-2.1-1.3-4.4-2-6.7-2c-1.7,0-3.4,0.3-5.1,1.1L12.8,30c-4.5,2-7.4,6.5-7.4,11.4v4.4c0,4.9,2.9,9.4,7.4,11.4
		l31,13.9c1.6,0.8,3.3,1.1,5.1,1.1c2.3,0,4.7-0.7,6.7-2c1.6-1,2.8-2.3,3.7-3.9c1.4,0.9,2.9,1.7,4.6,2.3c3.2,1.2,6.5,1.8,10,1.8
		c1.2,0,2.6-0.1,4.1-0.3s3-0.6,4.5-1.1s3.1-1.2,4.5-2c1.2,0.6,2.3,1.2,3.5,1.7c3.2,1.2,6.5,1.8,10,1.8s6.8-0.6,10-1.8
		c1-0.4,2-0.8,2.9-1.3c2.1,1.5,4.6,2.4,7.4,2.4h4.5v3.8c-0.7,1.9-1,4-1,6.3v4.4c-3.1,2.3-5.1,6-5.1,10.1v4.8c0,4.1,2,7.8,5.1,10.1
		v4.4c0,3.4,0.8,6.5,2.4,9.4c1.2,2.2,2.8,4.1,4.7,5.7c1.8,1.5,3.8,2.7,5.9,3.4c2.2,0.8,4.2,1.2,6.2,1.2h4.9c5.2,0,9.7-3.3,11.5-7.9
		c0.7-0.1,1.2-0.2,1.9-0.3c1.7,4.8,6.3,8.1,11.6,8.1h4.9c2.1,0,4.1-0.4,6.3-1.2c2.1-0.8,4.1-1.9,5.9-3.4c1.8-1.5,3.5-3.4,4.7-5.6
		c1.6-2.8,2.4-6,2.4-9.4v-4.4c0.1-0.1,0.2-0.2,0.2-0.2c0.2,0.3,0.2,0.7,0.4,1c1.4,3.2,3.3,6,5.8,8.4c2.4,2.3,5.3,4.1,8.6,5.4
		c3.1,1.2,6.4,1.8,9.8,1.8c3.7,0,7.3-0.8,10.6-2.2c0.7-0.3,1.3-0.7,2-1c1.2,0.7,2.3,1.3,3.6,1.7c3,1,6.1,1.5,9.5,1.5
		c2.2,0,4.4-0.3,6.6-0.8c2.7-0.6,5.1-1.6,7.4-2.9c0.2-0.1,0.3-0.3,0.4-0.3c1.4,0.8,2.9,1.6,4.5,2.3c3.1,1.2,6.4,1.8,9.8,1.8
		c1.2,0,2.5-0.1,4-0.3s3-0.6,4.5-1.1c1.4-0.5,2.9-1.1,4.2-1.8c1.1,0.6,2.2,1.1,3.3,1.6c3.1,1.2,6.4,1.8,9.8,1.8s6.7-0.6,9.8-1.8
		c1-0.4,2-0.8,2.9-1.3c2.1,1.5,4.6,2.4,7.4,2.4h6.4c2,0,3.8-0.5,5.5-1.3c0.8,0.3,1.7,0.8,2.7,1c2.2,0.7,4.6,1,6.9,1
		c2.2,0,4.3-0.3,6.3-0.8c0.7,0.1,1.4,0.2,2.1,0.2h5.8c6.8,0,12.4-5.6,12.4-12.5V98c0-0.8,0-1.7-0.1-2.7c-0.1-1.6-0.2-3.2-0.7-4.8
		c-0.4-1.9-1.2-3.9-2.1-5.7c-1.2-2.4-3-4.5-5.2-6.2c-1.7-1.3-3.5-2.3-5.6-3.2v-4.5c2.7-0.2,5.3-0.8,7.8-1.7c1.1-0.4,2.1-0.9,3.1-1.4
		c2.1,1.6,4.7,2.5,7.5,2.5h6.6c2,0,3.8-0.4,5.5-1.3c1.7,0.8,3.5,1.3,5.5,1.3h6.6c2,0,3.9-0.5,5.6-1.3c0.9,0.4,1.8,0.8,2.8,1
		c2.2,0.7,4.6,1,7,1c2.2,0,4.4-0.3,6.5-0.8c0.7,0.2,1.4,0.2,2.2,0.2h6c1.2,0,2.3-0.2,3.4-0.5c0.4,0.4,0.9,0.8,1.4,1.1
		c2.1,1.3,4.4,2,6.7,2c1.7,0,3.4-0.3,5.1-1.1l31-13.9c4.5-2,7.4-6.5,7.4-11.4v-4.8C483.8,36.8,481,32.4,476.5,30.4z M48.3,34.7
		L27.6,44l20.5,9.2c0.1,0.2,0.1,0.3,0.2,0.5v6.4l-31-13.9v-4.4l31-13.9C48.3,27.9,48.3,34.7,48.3,34.7z M66.2,47.3
		c0.3,0.9,0.8,1.8,1.6,2.5c0.7,0.8,1.5,1.3,2.4,1.8c0.9,0.4,2.1,0.7,3.2,0.7c0.3,0,0.6-0.1,0.9-0.1c0.3,1,0.7,1.9,1.1,2.9
		c0.4,0.9,0.9,1.8,1.4,2.8c-0.4,0.1-0.8,0.2-1.2,0.3c-0.8,0.2-1.5,0.2-2.1,0.2c-2,0-3.8-0.3-5.6-1c-1.7-0.7-3.3-1.6-4.6-2.8
		c-1.2-1.2-2.2-2.5-2.8-4c-0.2-0.8-0.5-1.7-0.9-2.4c-0.2-1.2-0.4-2.3-0.4-3.6c0-2.1,0.4-4,1.2-5.8c0.7-1.8,1.7-3.2,3.1-4.4
		c1.2-1.3,2.8-2.2,4.6-2.8c1.7-0.7,3.7-1,5.6-1c1.1,0,2.2,0.2,3.3,0.4c-0.5,0.9-1,1.8-1.4,2.8c-0.4,0.9-0.7,1.9-1.1,2.9
		c-0.3-0.1-0.6-0.1-0.9-0.1c-1.2,0-2.3,0.3-3.2,0.7c-0.9,0.4-1.7,1-2.4,1.8s-1.2,1.6-1.6,2.5c-0.3,0.9-0.5,1.9-0.5,3
		C65.7,45.4,65.8,46.3,66.2,47.3z M92,46.1l-1.5-1.6l1.2-1.3c0.2-0.3,0.4-0.4,0.6-0.7c-0.1,0.6-0.2,1.2-0.2,1.8
		c0,0.8,0.2,1.6,0.3,2.3C92.3,46.5,92.2,46.2,92,46.1z M107.7,56.2c-0.7,0.4-1.4,0.8-2.2,1.1c-1.7,0.7-3.7,1-5.6,1
		c-1.7,0-3.4-0.3-5-0.8c0.6-2.4,0.4-5-0.5-7.4c0.7,0.6,1.3,1.2,2.2,1.5c0.9,0.4,2.1,0.7,3.2,0.7c1.2,0,2.3-0.3,3.2-0.7
		c0.9-0.4,1.7-1,2.4-1.8s1.2-1.6,1.6-2.5c0.3-0.9,0.5-1.9,0.5-3s-0.2-2-0.5-3c-0.3-0.9-0.8-1.8-1.6-2.5c-0.7-0.8-1.5-1.3-2.4-1.8
		c-0.9-0.4-2.1-0.7-3.2-0.7c-1.2,0-2.3,0.3-3.2,0.7c-0.7,0.3-1.3,0.8-1.9,1.3c0.7-2.3,0.8-4.9,0.2-7.2c1.6-0.5,3.2-0.8,5-0.8
		c2,0,3.8,0.3,5.6,1c0.8,0.3,1.5,0.7,2.2,1.1V56.2L107.7,56.2z M245.9,95.7c0.7,0.3,1.4,0.6,2.4,0.8c0.6,0.2,1.1,0.3,1.7,0.4
		c-0.1,0.8-0.2,1.8-0.2,2.6c0,1.1,0.1,2.2,0.2,3.3c-0.5-0.2-1-0.3-1.5-0.5c-0.7-0.2-1.6-0.4-2.4-0.6V100
		C246.1,98.5,246,97.1,245.9,95.7z M297.5,93.2h0.2c-0.1,0.1-0.2,0.1-0.3,0.2C297.4,93.2,297.4,93.2,297.5,93.2z M327.4,19.1
		c0.7-0.8,1.8-1.2,3-1.2s2.2,0.4,3.1,1.2c0.8,0.8,1.2,1.7,1.2,2.8c0,1.2-0.4,2.1-1.2,2.8c-0.4,0.4-0.9,0.7-1.4,0.8
		c-1.7-1.8-3.7-3.4-5.7-4.5C326.4,20.4,326.8,19.7,327.4,19.1z M308,31.3c1.7-0.7,3.7-1,5.6-1c0.4,0,0.8,0,1.2,0.1
		c0,0.2,0,0.4,0,0.6v3.2h-10.1c-0.1-0.2-0.1-0.3-0.1-0.5s-0.1-0.3-0.1-0.4C305.5,32.5,306.7,31.8,308,31.3z M278.3,31.7
		c1.2-1,3-1.5,5.2-1.5c1.7,0,3.2,0.3,4.5,0.9c0.7,0.3,1.2,0.7,1.7,1.1c-0.2,0.4-0.4,0.8-0.6,1.3c-0.1,0.3-0.2,0.4-0.2,0.7h-12.8
		C276.5,33.2,277.3,32.5,278.3,31.7z M275.3,31v3.2H274V31H275.3z M256.6,31v3.2h-1.7V31H256.6z M220.5,31v-3.8c0-1.8,0.2-3.5,0.4-5
		c0.2-1.5,0.7-2.8,1.5-3.9c0.7-1.1,1.7-1.9,3-2.4c1.2-0.6,3-0.8,5-0.8c1.5,0,2.9,0.2,4.2,0.4l-0.2,3.5c-1.4,0.4-2.7,1-3.8,1.8
		c-0.5,0.1-0.9,0.2-1.2,0.3c-0.6,0.3-1,0.7-1.3,1.2s-0.5,1-0.6,1.6c-1.3,2-2.2,4.4-2.2,7v3.2h-10v-3.2L220.5,31L220.5,31z
		 M175.7,31.3c1.7-0.7,3.7-1,5.6-1s3.8,0.3,5.6,1c1.7,0.7,3.3,1.6,4.6,2.8l0,0h-18.9c-0.1-0.3-0.2-0.7-0.2-1
		C173.3,32.4,174.4,31.8,175.7,31.3z M146.4,31.5c1.4-0.8,3.2-1.2,5.1-1.2c1.7,0,3.2,0.3,4.5,0.9c0.5,0.3,1,0.6,1.4,0.9
		c-0.2,0.5-0.5,0.9-0.7,1.4c-0.1,0.3-0.2,0.4-0.2,0.7h-13C144.3,33,145.3,32.1,146.4,31.5z M129.4,31.7c1.3-1,3.1-1.5,5.2-1.5
		c3.7,0,6.2,1.3,7.7,3.9H127C127.6,33.3,128.4,32.5,129.4,31.7z M126.4,31v3.2h-1.7c-0.1-0.3-0.2-0.4-0.2-0.7
		c-0.4-0.8-0.8-1.7-1.2-2.5H126.4z M123.1,57.6c0.5-0.8,0.9-1.7,1.2-2.5c0.1-0.2,0.1-0.3,0.2-0.5v3H123.1z M135.4,101.4
		c-0.4-0.5-0.8-0.9-1.4-1.3c-0.5-0.3-1.1-0.5-1.7-0.6c-0.6-0.1-1-0.2-1.4-0.2v-4.8c0.3,0,0.8-0.1,1.4-0.2c0.6-0.1,1.2-0.3,1.7-0.6
		c0.3-0.2,0.7-0.4,1-0.8h2.4c0.2,0.7,0.3,1.3,0.7,1.9c-0.2,0.3-0.4,0.7-0.6,1.1c-0.1,0.2-0.2,0.4-0.2,0.6c-0.4,0.1-0.7,0.2-1,0.2
		v0.1c0.2,0,0.5,0.1,0.8,0.1c-0.7,1.5-1.1,3.1-1.4,4.9C135.6,101.8,135.5,101.5,135.4,101.4z M142.8,121c-0.6,0-1.2-0.2-2.1-0.4
		c-0.7-0.3-1.6-0.8-2.2-1.3c-0.7-0.6-1.3-1.3-1.8-2.2c-0.5-0.9-0.7-1.9-0.7-3.2v-3.4c0.4,1.6,1,3,1.7,4.4
		C139,117.3,140.7,119.3,142.8,121L142.8,121L142.8,121z M166.6,102.5v3.1c-2.7,1.5-4.7,4-5.6,7c-0.4,0.2-0.9,0.3-1.3,0.4
		c-0.5-1.8-1.5-3.5-2.7-4.9c0.1,0,0.2,0.1,0.2,0.1c0.5,0.2,1.1,0.2,1.6,0.2c2.2,0,3.8-0.5,4.9-1.6c1.1-1.1,1.6-2.5,1.6-4.4V101H164
		c-0.9,0-1.9,0-3,0.1s-2.2,0.3-3.2,0.5c-1,0.3-1.8,0.7-2.5,1.2s-1,1.3-1,2.2c0,0.3,0.1,0.7,0.2,1c-0.2-0.1-0.3-0.3-0.5-0.3v-2.9
		c0-1.8-0.2-3.4-0.6-5c0.1,0,0.2-0.1,0.2-0.1c1.1-0.4,2.2-0.7,3.5-0.9c1.2-0.2,2.4-0.3,3.7-0.4c1.2-0.1,2.3-0.1,3.4-0.1h1.6v-0.7
		c0-1-0.2-1.8-0.7-2.6h1.8c0.1,1.3,0.3,2.6,0.7,3.9C166.9,98.7,166.6,100.5,166.6,102.5z M189.5,99.4c-0.4,0-0.9,0.1-1.4,0.2
		c-0.6,0.1-1.2,0.3-1.7,0.6c-0.5,0.3-1,0.7-1.3,1.2c-0.4,0.5-0.6,1.2-0.6,1.9v10.6c0,1.3-0.2,2.3-0.7,3.2s-1.1,1.6-1.8,2.2
		c-0.1,0-0.1,0.1-0.2,0.1c1.2-1.9,2-4.3,2-6.8V97.7c0-0.2,0-0.3,0-0.5c0.2,0,0.3-0.1,0.5-0.1V97c-0.2,0-0.3-0.1-0.5-0.1
		c0-0.6,0-1.2-0.1-1.9c0-0.6-0.1-1.3-0.2-1.8h2c0.2,0.3,0.6,0.5,0.9,0.7c0.5,0.3,1.1,0.5,1.7,0.6s1.1,0.2,1.4,0.2V99.4L189.5,99.4z
		 M216.4,106.4c1.2,1.1,2.8,1.6,4.7,1.6c1.6,0,3-0.3,4.1-1c0.1-0.1,0.2-0.1,0.2-0.2c-0.3,1.9-0.2,3.9,0.2,5.8
		c-1.2,0.3-2.6,0.5-3.9,0.5c-1.9,0-3.7-0.3-5.5-1s-3.2-1.6-4.5-2.8s-2.2-2.6-3-4.3c-0.7-1.7-1.1-3.5-1.1-5.6s0.3-3.9,1.1-5.6
		c0.2-0.3,0.3-0.6,0.5-0.8h6.4c-0.8,1-1.3,2.3-1.6,3.9h12c0.2,1.8,0.6,3.4,1.2,4.9h-13C214.4,103.8,215.1,105.3,216.4,106.4z
		 M251.4,112.8c-1.3,0.3-2.7,0.4-4,0.4c-1.2,0-2.4-0.1-3.5-0.3c0.7-1.6,1-3.4,1-5.1c0.8,0.4,1.8,0.6,2.9,0.6c0.5,0,0.9-0.1,1.4-0.2
		s1-0.3,1.4-0.5c0.1-0.1,0.2-0.2,0.3-0.3c0.2,0.9,0.6,1.9,1,2.8c0.3,0.7,0.7,1.4,1,2.1C252.5,112.4,252,112.6,251.4,112.8z
		 M268.8,95.6c0.4-0.8,0.7-1.6,0.9-2.4h2.2c-0.4,0.3-0.8,0.7-1.2,1.1c-0.7,0.7-1.1,1.5-1.4,2.3C269.1,96.2,269,95.8,268.8,95.6z
		 M278.3,113c-0.7,0.1-1.5,0.2-2.1,0.2c-1.9,0-3.7-0.3-5.5-1c-0.3-0.2-0.7-0.3-1-0.4c0.7-2.1,1.2-4.3,1.2-6.6
		c0.6,0.6,1.3,1.1,2.2,1.5c0.9,0.4,2,0.7,3.2,0.7c0.2,0,0.3-0.1,0.6-0.1c0.3,1,0.7,2,1.1,2.9s0.8,1.8,1.3,2.6
		C278.8,112.9,278.6,112.9,278.3,113z M294.5,101l-1.2-1.3l1-1c0.1-0.1,0.2-0.3,0.2-0.3c-0.1,0.4-0.1,0.8-0.1,1.2
		C294.4,100,294.5,100.6,294.5,101C294.6,101.1,294.6,101.1,294.5,101z M307.5,112.3c-1.7,0.7-3.6,1-5.5,1c-1.6,0-3.1-0.3-4.5-0.7
		c0.6-2.3,0.4-4.7-0.2-6.9c0.5,0.4,1,0.8,1.7,1.1c0.9,0.4,2,0.7,3.2,0.7s2.2-0.3,3.2-0.7c0.9-0.4,1.7-1,2.4-1.8
		c0.7-0.8,1.2-1.5,1.5-2.5c0.3-0.9,0.5-1.9,0.5-2.9s-0.2-2-0.5-2.9s-0.8-1.8-1.5-2.5c-0.3-0.4-0.7-0.8-1.2-1.1h3.4v18
		C309.1,111.6,308.3,111.9,307.5,112.3z M357.4,93c0.2,0.8,0.3,1.7,0.3,2.5s0.1,1.5,0.1,2.1v14.9H352v-3.6h-0.2
		c-0.9,1.5-2.1,2.5-3.6,3.2c-1.4,0.7-3,1-4.7,1c-0.9,0-1.8-0.2-2.7-0.3c0-0.1,0-0.3,0-0.3v-6.4c0,0.1,0.1,0.2,0.1,0.3
		c0.2,0.4,0.6,0.8,1.1,1.1c0.4,0.3,0.9,0.5,1.4,0.6c0.5,0.2,1.1,0.2,1.6,0.2c2.2,0,3.8-0.5,4.9-1.6s1.6-2.5,1.6-4.4v-1.5h-1.3
		c-0.9,0-1.9,0-3,0.1s-2.2,0.3-3.2,0.5c-1,0.3-1.8,0.7-2.5,1.2c-0.3,0.3-0.6,0.6-0.7,0.9v-6.2c0.7-0.3,1.6-0.4,2.4-0.6
		c1.2-0.2,2.4-0.3,3.7-0.4c1.2-0.1,2.3-0.1,3.4-0.1h1.6v-0.7c0-1-0.2-1.8-0.7-2.6h5.2v-2.4C356.9,91.4,357.2,92.2,357.4,93z
		 M362.5,56c-0.7,0.5-1.6,0.9-2.5,1.3c-1.1,0.4-2.2,0.7-3.4,0.8V52c0.3-0.1,0.7-0.2,1.1-0.3c0.9-0.4,1.7-1,2.4-1.8
		c0.7-0.8,1.2-1.6,1.6-2.5c0.3-0.9,0.5-1.9,0.5-3s-0.2-2-0.5-3c-0.3-0.9-0.8-1.8-1.6-2.5c-0.7-0.8-1.5-1.3-2.4-1.8
		c-0.3-0.2-0.7-0.3-1.1-0.3v-2.4h-10.4v-1.6c0.8-0.5,1.7-0.9,2.7-1.3c1.7-0.7,3.7-1,5.6-1c2,0,3.8,0.3,5.6,1
		c0.9,0.3,1.7,0.8,2.5,1.3v23.4h-0.1L362.5,56L362.5,56z M392.4,57.6v-6c0.1,2.1,0.5,4.2,1.2,6H392.4z M394.4,40.9
		c-1.2,2.4-1.9,5.1-2.1,8v-4.8c0-0.8,0-1.6-0.1-2.4c-0.1-0.9-0.2-1.8-0.6-2.5c-0.3-0.8-0.8-1.4-1.5-2c-0.7-0.5-1.6-0.8-2.7-0.8
		s-2,0.2-2.7,0.6c-0.7,0.3-1.4,0.8-1.9,1.5s-0.8,1.3-1.1,2.2s-0.3,1.7-0.3,2.5v14.5h-3.7c0.5-0.8,0.9-1.7,1.2-2.5
		c1.4-3.4,2.2-7,2.2-10.8c0-3.9-0.7-7.5-2.2-10.8c-0.4-0.8-0.8-1.7-1.2-2.5h3.5v4.3h0.1c0.6-1.3,1.6-2.5,2.8-3.4
		c1.2-1,3-1.5,5.2-1.5c1.7,0,3.2,0.3,4.5,0.9c0.2,0.1,0.4,0.3,0.6,0.3c-0.7,2.7-0.5,5.6,0.7,8.1C394.8,40.1,394.6,40.5,394.4,40.9z
		 M428.9,48.9c-0.6,1.4-0.8,2.9-0.8,4.5v4.2H423v-3.7h-0.2c-0.9,1.5-2.2,2.6-3.7,3.3c-1.5,0.7-3.1,1-4.8,1c-1,0-2-0.2-3-0.3
		c0-0.1,0-0.2,0-0.3v-7.2c0.1,0.3,0.2,0.7,0.3,0.9c0.2,0.4,0.7,0.8,1.1,1.1c0.4,0.3,0.9,0.5,1.5,0.7s1.1,0.2,1.7,0.2
		c2.2,0,4-0.6,5.1-1.7s1.7-2.6,1.7-4.4v-1.5h-1.5c-0.9,0-1.9,0-3.1,0.1s-2.2,0.3-3.2,0.5c-1,0.3-1.8,0.7-2.6,1.3
		c-0.5,0.4-0.8,0.9-1,1.5v-7c0.9-0.3,1.7-0.5,2.7-0.7c1.2-0.2,2.5-0.3,3.7-0.4s2.4-0.1,3.5-0.1h1.7v-0.8c0-1.7-0.6-2.9-1.7-3.8
		c-1.2-0.8-2.6-1.3-4.3-1.3c-1.4,0-2.7,0.3-3.9,0.8c-0.7,0.3-1.3,0.7-1.9,1c-0.2-1.2-0.3-2.3-0.7-3.4c-0.2-0.6-0.3-1.1-0.5-1.7
		c0.5-0.3,1.1-0.5,1.6-0.7c2-0.7,4-1,6.1-1c1.9,0,3.4,0.3,4.7,0.7c1.2,0.4,2.3,1,3.2,1.7s1.5,1.4,2,2.3c0.3,0.6,0.5,1.1,0.7,1.7
		c0.1,0.8,0.2,1.5,0.5,2.2c0.1,0.4,0.1,0.9,0.2,1.3c0,0.8,0.1,1.6,0.1,2.2L428.9,48.9L428.9,48.9z M471.4,46.3l-30.3,13.6
		c0.2-0.8,0.2-1.5,0.2-2.3V53l19.8-9l-20.6-9.3c0,0,0,0,0-0.1c0-0.2-0.1-0.3-0.2-0.5v-6.3l31,13.9v4.6H471.4z"/>
	<g>
		<g>
			<path class="st1" d="M78.4,38.9c-0.7-0.8-1.6-1.4-2.4-1.9c-0.8-0.5-1.7-0.8-2.6-0.8c-1.2,0-2.3,0.3-3.2,0.7
				c-0.9,0.4-1.7,1-2.4,1.8s-1.2,1.6-1.6,2.5c-0.3,0.9-0.5,1.9-0.5,3s0.2,2,0.5,3c0.3,0.9,0.8,1.8,1.6,2.5c0.7,0.8,1.5,1.3,2.4,1.8
				c0.9,0.4,2.1,0.7,3.2,0.7c1,0,2-0.3,2.8-0.7c0.9-0.4,1.7-1,2.2-1.8l4.4,4.8c-0.7,0.7-1.4,1.3-2.2,1.8s-1.7,0.8-2.6,1.2
				c-0.9,0.3-1.7,0.5-2.5,0.7s-1.5,0.2-2.1,0.2c-2,0-3.8-0.3-5.6-1c-1.7-0.7-3.3-1.6-4.6-2.8c-1.3-1.2-2.3-2.7-3.1-4.4
				c-0.7-1.8-1.2-3.6-1.2-5.8c0-2.1,0.4-4,1.2-5.8c0.7-1.8,1.7-3.2,3.1-4.4c1.2-1.3,2.8-2.2,4.6-2.8c1.7-0.7,3.7-1,5.6-1
				c1.7,0,3.4,0.3,5.1,1c1.7,0.7,3.2,1.7,4.5,3.1L78.4,38.9z"/>
			<path class="st1" d="M85.5,44.3c0-2.1,0.4-4,1.2-5.8c0.7-1.8,1.7-3.2,3.1-4.4c1.2-1.3,2.8-2.2,4.6-2.8c1.7-0.7,3.7-1,5.6-1
				s3.8,0.3,5.6,1c1.7,0.7,3.3,1.6,4.6,2.8s2.3,2.7,3.1,4.4c0.7,1.8,1.2,3.6,1.2,5.8c0,2.1-0.4,4-1.2,5.8c-0.7,1.8-1.7,3.2-3.1,4.4
				c-1.2,1.3-2.8,2.2-4.6,2.8s-3.7,1-5.6,1s-3.8-0.3-5.6-1c-1.7-0.7-3.3-1.6-4.6-2.8c-1.2-1.3-2.3-2.7-3.1-4.4
				C85.9,48.3,85.5,46.4,85.5,44.3z M92.2,44.3c0,1,0.2,2,0.5,3c0.3,0.9,0.8,1.8,1.6,2.5c0.7,0.8,1.5,1.3,2.4,1.8
				c0.9,0.4,2.1,0.7,3.2,0.7c1.2,0,2.3-0.3,3.2-0.7c0.9-0.4,1.7-1,2.4-1.8s1.2-1.6,1.6-2.5c0.3-0.9,0.5-1.9,0.5-3s-0.2-2-0.5-3
				c-0.3-0.9-0.8-1.8-1.6-2.5c-0.7-0.8-1.5-1.3-2.4-1.8c-0.9-0.4-2.1-0.7-3.2-0.7c-1.2,0-2.3,0.3-3.2,0.7c-0.9,0.4-1.7,1-2.4,1.8
				s-1.2,1.6-1.6,2.5C92.3,42.3,92.2,43.2,92.2,44.3z"/>
			<path class="st1" d="M120.1,31h6.2v4.2h0.1c0.6-1.3,1.5-2.3,2.8-3.4c1.3-1,3.1-1.5,5.2-1.5c4.2,0,6.9,1.7,8.2,4.9
				c0.9-1.7,2.2-2.9,3.6-3.8c1.4-0.8,3.2-1.2,5.1-1.2c1.7,0,3.2,0.3,4.5,0.9s2.2,1.4,2.9,2.4s1.3,2.3,1.7,3.6
				c0.3,1.4,0.5,2.8,0.5,4.4v15.8h-6.6V42.2c0-0.8-0.1-1.6-0.2-2.3c-0.2-0.8-0.4-1.4-0.7-2s-0.8-1-1.5-1.3s-1.4-0.5-2.4-0.5
				s-1.9,0.2-2.6,0.6c-0.7,0.4-1.3,0.9-1.7,1.6c-0.5,0.7-0.7,1.4-1,2.2c-0.2,0.8-0.3,1.7-0.3,2.5v14.4h-6.6V41.6
				c0-1.7-0.3-3-1.1-3.9c-0.7-1-1.8-1.5-3.5-1.5c-1.1,0-2,0.2-2.7,0.6c-0.7,0.3-1.4,0.8-1.9,1.5s-0.8,1.3-1.1,2.2
				c-0.2,0.8-0.3,1.7-0.3,2.5v14.5h-6.6L120.1,31L120.1,31z"/>
			<path class="st1" d="M166.9,44.3c0-2.1,0.4-4,1.2-5.8c0.7-1.8,1.7-3.2,3.1-4.4c1.2-1.3,2.8-2.2,4.6-2.8c1.7-0.7,3.7-1,5.6-1
				s3.8,0.3,5.6,1c1.7,0.7,3.3,1.6,4.6,2.8s2.3,2.7,3.1,4.4s1.2,3.6,1.2,5.8c0,2.1-0.4,4-1.2,5.8c-0.7,1.8-1.7,3.2-3.1,4.4
				c-1.2,1.3-2.8,2.2-4.6,2.8c-1.7,0.7-3.7,1-5.6,1s-3.8-0.3-5.6-1c-1.7-0.7-3.3-1.6-4.6-2.8c-1.2-1.3-2.3-2.7-3.1-4.4
				S166.9,46.4,166.9,44.3z M173.5,44.3c0,1,0.2,2,0.5,3c0.3,0.9,0.8,1.8,1.6,2.5c0.7,0.8,1.5,1.3,2.4,1.8s2.1,0.7,3.2,0.7
				c1.2,0,2.3-0.3,3.2-0.7c0.9-0.4,1.7-1,2.4-1.8s1.2-1.6,1.6-2.5c0.3-0.9,0.5-1.9,0.5-3s-0.2-2-0.5-3c-0.3-0.9-0.8-1.8-1.6-2.5
				c-0.7-0.8-1.5-1.3-2.4-1.8c-0.9-0.4-2.1-0.7-3.2-0.7c-1.2,0-2.3,0.3-3.2,0.7s-1.7,1-2.4,1.8s-1.2,1.6-1.6,2.5
				C173.7,42.3,173.5,43.2,173.5,44.3z"/>
			<path class="st1" d="M220.5,36.6H215v-5.7h5.5v-3.8c0-1.8,0.2-3.5,0.4-5s0.7-2.8,1.5-3.9c0.7-1.1,1.7-1.9,3-2.4
				c1.2-0.6,3-0.8,5-0.8c1.5,0,2.9,0.2,4.2,0.4l-0.4,5.7c-0.5-0.1-0.9-0.2-1.4-0.3c-0.4-0.1-0.9-0.1-1.4-0.1c-0.9,0-1.7,0.2-2.2,0.4
				c-0.6,0.3-1,0.7-1.3,1.2s-0.5,1.1-0.6,1.8c-0.1,0.7-0.2,1.3-0.2,2.1v4.9h6.1v5.7h-6.1v21h-6.6V36.6L220.5,36.6z"/>
			<path class="st1" d="M261.5,57.6h-6.2v-4.3h-0.2c-0.7,1.3-1.6,2.5-2.8,3.4c-1.2,1-3,1.5-5.2,1.5c-1.7,0-3.2-0.3-4.5-0.8
				s-2.2-1.3-3-2.3c-0.7-1-1.3-2.1-1.7-3.4c-0.3-1.3-0.5-2.6-0.5-3.9V31h6.6v13.5c0,0.8,0,1.6,0.1,2.4c0.1,0.9,0.2,1.8,0.6,2.5
				c0.3,0.8,0.7,1.4,1.4,2c0.7,0.5,1.6,0.8,2.7,0.8s2-0.2,2.7-0.6c0.7-0.3,1.4-0.8,1.9-1.5s0.8-1.3,1.1-2.2c0.2-0.8,0.3-1.7,0.3-2.5
				V30.9h6.6L261.5,57.6L261.5,57.6z"/>
			<path class="st1" d="M269,31h6.2v4.3h0.1c0.6-1.3,1.6-2.5,2.8-3.4c1.2-1,3-1.5,5.2-1.5c1.7,0,3.2,0.3,4.5,0.9s2.2,1.3,3,2.3
				c0.7,0.9,1.3,2.1,1.7,3.4c0.3,1.3,0.5,2.6,0.5,3.9v16.8h-6.6V44.2c0-0.8,0-1.6-0.1-2.4c-0.1-0.9-0.2-1.8-0.6-2.5
				c-0.3-0.8-0.8-1.4-1.5-2c-0.7-0.5-1.6-0.8-2.7-0.8s-2,0.2-2.7,0.6c-0.7,0.3-1.4,0.8-1.9,1.5s-0.8,1.3-1.1,2.2
				c-0.2,0.8-0.3,1.7-0.3,2.5v14.5h-6.6V31H269z"/>
			<path class="st1" d="M318.6,38.9c-0.7-0.8-1.6-1.4-2.4-1.9s-1.7-0.8-2.6-0.8c-1.2,0-2.3,0.3-3.2,0.7c-0.9,0.4-1.7,1-2.4,1.8
				c-0.7,0.8-1.2,1.6-1.6,2.5c-0.3,0.9-0.5,1.9-0.5,3s0.2,2,0.5,3c0.3,0.9,0.8,1.8,1.6,2.5c0.7,0.8,1.5,1.3,2.4,1.8
				c0.9,0.4,2.1,0.7,3.2,0.7c1,0,2-0.3,2.8-0.7c0.9-0.4,1.7-1,2.2-1.8l4.4,4.8c-0.7,0.7-1.4,1.3-2.2,1.8c-0.8,0.5-1.7,0.8-2.6,1.2
				c-0.9,0.3-1.7,0.5-2.5,0.7s-1.5,0.2-2.1,0.2c-2,0-3.8-0.3-5.6-1c-1.7-0.7-3.3-1.6-4.6-2.8s-2.3-2.7-3.1-4.4
				c-0.7-1.8-1.2-3.6-1.2-5.8c0-2.1,0.4-4,1.2-5.8c0.7-1.8,1.7-3.2,3.1-4.4c1.2-1.3,2.8-2.2,4.6-2.8c1.7-0.7,3.7-1,5.6-1
				c1.7,0,3.4,0.3,5.1,1s3.2,1.7,4.5,3.1L318.6,38.9z"/>
			<path class="st1" d="M326.3,21.9c0-1.1,0.4-2,1.2-2.8s1.8-1.2,3-1.2s2.2,0.4,3.1,1.2s1.2,1.7,1.2,2.8c0,1.2-0.4,2.1-1.2,2.8
				c-0.8,0.8-1.8,1.2-3.1,1.2s-2.2-0.4-3-1.2C326.6,23.9,326.3,23,326.3,21.9z M327.2,31h6.6v26.7h-6.6V31z"/>
			<path class="st1" d="M340,44.3c0-2.1,0.4-4,1.2-5.8c0.7-1.8,1.7-3.2,3.1-4.4c1.2-1.3,2.8-2.2,4.6-2.8c1.7-0.7,3.7-1,5.6-1
				c2,0,3.8,0.3,5.6,1c1.7,0.7,3.3,1.6,4.6,2.8s2.3,2.7,3.1,4.4c0.7,1.8,1.2,3.6,1.2,5.8c0,2.1-0.4,4-1.2,5.8
				c-0.7,1.8-1.7,3.2-3.1,4.4c-1.2,1.3-2.8,2.2-4.6,2.8c-1.7,0.7-3.7,1-5.6,1c-2,0-3.8-0.3-5.6-1c-1.7-0.7-3.3-1.6-4.6-2.8
				c-1.2-1.3-2.3-2.7-3.1-4.4C340.4,48.3,340,46.4,340,44.3z M346.6,44.3c0,1,0.2,2,0.5,3c0.3,0.9,0.8,1.8,1.6,2.5
				c0.7,0.8,1.5,1.3,2.4,1.8c0.9,0.4,2.1,0.7,3.2,0.7c1.2,0,2.3-0.3,3.2-0.7c0.9-0.4,1.7-1,2.4-1.8c0.7-0.8,1.2-1.6,1.6-2.5
				c0.3-0.9,0.5-1.9,0.5-3s-0.2-2-0.5-3c-0.3-0.9-0.8-1.8-1.6-2.5c-0.7-0.8-1.5-1.3-2.4-1.8c-0.9-0.4-2.1-0.7-3.2-0.7
				c-1.2,0-2.3,0.3-3.2,0.7c-0.9,0.4-1.7,1-2.4,1.8c-0.7,0.8-1.2,1.6-1.6,2.5C346.8,42.3,346.6,43.2,346.6,44.3z"/>
			<path class="st1" d="M374.9,31h6.2v4.3h0.1c0.6-1.3,1.6-2.5,2.8-3.4c1.2-1,3-1.5,5.2-1.5c1.7,0,3.2,0.3,4.5,0.9
				c1.2,0.6,2.2,1.3,3,2.3s1.3,2.1,1.7,3.4c0.3,1.3,0.5,2.6,0.5,3.9v16.8h-6.6V44.2c0-0.8,0-1.6-0.1-2.4c-0.1-0.9-0.2-1.8-0.6-2.5
				c-0.3-0.8-0.8-1.4-1.5-2c-0.7-0.5-1.6-0.8-2.7-0.8s-2,0.2-2.7,0.6c-0.7,0.3-1.4,0.8-1.9,1.5s-0.8,1.3-1.1,2.2
				c-0.2,0.8-0.3,1.7-0.3,2.5v14.5h-6.6L374.9,31L374.9,31z"/>
			<path class="st1" d="M422.9,53.9h-0.2c-0.9,1.5-2.2,2.6-3.7,3.3c-1.5,0.7-3.1,1-4.8,1c-1.2,0-2.4-0.2-3.6-0.5s-2.2-0.8-3.1-1.5
				s-1.7-1.5-2.2-2.5c-0.6-1-0.8-2.2-0.8-3.5c0-1.4,0.2-2.7,0.7-3.7s1.2-1.8,2.1-2.5c0.8-0.7,1.8-1.3,3-1.7c1.2-0.4,2.3-0.8,3.6-0.9
				s2.5-0.3,3.7-0.4s2.4-0.1,3.5-0.1h1.7v-0.8c0-1.7-0.6-2.9-1.7-3.8c-1.2-0.8-2.6-1.3-4.3-1.3c-1.4,0-2.7,0.3-3.9,0.8
				c-1.2,0.5-2.2,1.2-3.2,2l-3.5-3.5c1.5-1.5,3.2-2.6,5.1-3.3c2-0.7,4-1,6.1-1c1.9,0,3.4,0.3,4.7,0.7c1.2,0.4,2.3,1,3.2,1.7
				s1.5,1.4,2,2.3c0.5,0.8,0.7,1.8,1,2.6c0.2,0.9,0.3,1.8,0.3,2.6s0.1,1.6,0.1,2.2v15.3h-6L422.9,53.9L422.9,53.9z M422.6,45.6h-1.4
				c-0.9,0-1.9,0-3.1,0.1s-2.2,0.3-3.2,0.5c-1,0.3-1.8,0.7-2.6,1.3c-0.7,0.5-1.1,1.3-1.1,2.3c0,0.7,0.2,1.2,0.4,1.6s0.7,0.8,1.1,1.1
				c0.4,0.3,0.9,0.5,1.5,0.7s1.1,0.2,1.7,0.2c2.2,0,4-0.6,5.1-1.7s1.7-2.6,1.7-4.4L422.6,45.6L422.6,45.6z"/>
		</g>
		<g>
			<path class="st1" d="M17.3,46.3v-4.5l31-13.9v6.8L27.6,44l20.7,9.3v6.8L17.3,46.3z"/>
		</g>
		<g>
			<path class="st1" d="M471.4,41.8v4.4l-31,14v-6.8l20.7-9.3l-20.7-9.3V28L471.4,41.8z"/>
		</g>
	</g>
	<g>
		<path class="st1" d="M130.9,94.6c0.3,0,0.8-0.1,1.4-0.2c0.6-0.1,1.2-0.3,1.7-0.6c0.5-0.3,1-0.7,1.4-1.2s0.6-1.2,0.6-1.9V80
			c0-1.3,0.2-2.3,0.7-3.2c0.5-0.9,1.1-1.6,1.8-2.2s1.5-1,2.2-1.3s1.5-0.4,2.1-0.4h4.9v4.5h-2.9c-0.7,0-1.3,0.1-1.8,0.4
			s-0.7,0.6-1,0.9c-0.2,0.4-0.4,0.8-0.4,1.3c-0.1,0.4-0.1,0.8-0.1,1.3v10.1c0,1-0.2,1.9-0.6,2.6c-0.4,0.7-0.8,1.3-1.4,1.7
			c-0.6,0.4-1.2,0.7-1.7,0.9c-0.6,0.2-1.1,0.3-1.5,0.3V97c0.4,0,0.9,0.1,1.5,0.3c0.6,0.2,1.2,0.4,1.7,0.8c0.6,0.4,1,1,1.4,1.7
			c0.4,0.8,0.6,1.8,0.6,3v9.8c0,0.4,0,0.8,0.1,1.3c0.1,0.4,0.2,0.8,0.4,1.3c0.2,0.4,0.6,0.7,1,0.9c0.4,0.3,1.1,0.4,1.8,0.4h2.9v4.5
			h-4.9c-0.6,0-1.2-0.2-2.1-0.4c-0.7-0.3-1.6-0.8-2.2-1.3c-0.7-0.6-1.3-1.3-1.8-2.2c-0.5-0.9-0.7-1.9-0.7-3.2v-10.3
			c0-0.8-0.2-1.6-0.6-2.1c-0.4-0.5-0.8-0.9-1.4-1.3c-0.5-0.3-1.1-0.5-1.7-0.6c-0.6-0.1-1-0.2-1.4-0.2V94.6z"/>
		<path class="st1" d="M165.6,109h-0.2c-0.9,1.5-2.1,2.5-3.6,3.2s-3,1-4.7,1c-1.2,0-2.3-0.2-3.5-0.5s-2.2-0.8-3-1.4
			c-0.9-0.7-1.6-1.4-2.1-2.4s-0.8-2.1-0.8-3.4c0-1.4,0.2-2.6,0.7-3.6s1.2-1.8,2-2.5s1.8-1.2,2.9-1.6c1.1-0.4,2.2-0.7,3.5-0.9
			c1.2-0.3,2.4-0.3,3.7-0.4c1.2-0.1,2.3-0.1,3.4-0.1h1.6v-0.7c0-1.6-0.6-2.8-1.7-3.7c-1.1-0.8-2.5-1.3-4.2-1.3
			c-1.3,0-2.7,0.3-3.8,0.8c-1.2,0.5-2.2,1.2-3.1,2l-3.4-3.4c1.4-1.5,3.1-2.5,5-3.2s3.9-1,5.9-1c1.8,0,3.3,0.2,4.6,0.6
			s2.3,0.9,3.1,1.6s1.5,1.4,1.9,2.3s0.7,1.7,1,2.6c0.2,0.8,0.3,1.7,0.3,2.5s0.1,1.5,0.1,2.1v14.9h-5.8v-3.4h0.2L165.6,109L165.6,109
			z M165.1,101h-1.3c-0.9,0-1.9,0-3,0.1s-2.2,0.3-3.2,0.5c-1,0.3-1.8,0.7-2.5,1.2s-1,1.3-1,2.2c0,0.6,0.2,1.1,0.4,1.5
			s0.6,0.8,1.1,1.1c0.4,0.3,0.9,0.5,1.4,0.6c0.5,0.2,1.1,0.2,1.6,0.2c2.2,0,3.8-0.5,4.9-1.6c1.1-1.1,1.6-2.5,1.6-4.4V101L165.1,101z
			"/>
		<path class="st1" d="M189.5,99.4c-0.4,0-0.9,0.1-1.4,0.2c-0.6,0.1-1.2,0.3-1.7,0.6c-0.5,0.3-1,0.7-1.3,1.2
			c-0.4,0.5-0.6,1.2-0.6,1.9v10.6c0,1.3-0.2,2.3-0.7,3.2s-1.1,1.6-1.8,2.2s-1.5,1-2.2,1.3s-1.5,0.4-2.1,0.4h-5v-4.5h2.9
			c0.7,0,1.3-0.1,1.8-0.4c0.4-0.3,0.7-0.6,1-0.9c0.2-0.4,0.4-0.8,0.4-1.3c0.1-0.4,0.1-0.8,0.1-1.3v-10.1c0-1,0.2-1.9,0.6-2.6
			c0.4-0.7,0.8-1.3,1.4-1.6c0.6-0.4,1.2-0.7,1.7-0.8c0.6-0.2,1.1-0.3,1.5-0.4V97c-0.4,0-0.9-0.2-1.5-0.3c-0.6-0.2-1.2-0.4-1.7-0.8
			c-0.6-0.4-1-0.9-1.4-1.7s-0.6-1.8-0.6-3v-9.8c0-0.4,0-0.8-0.1-1.3s-0.2-0.8-0.4-1.3c-0.2-0.4-0.6-0.7-1-0.9s-1.1-0.4-1.8-0.4h-2.9
			V73h4.9c0.6,0,1.2,0.2,2.1,0.4c0.7,0.3,1.5,0.8,2.2,1.3s1.3,1.3,1.8,2.2c0.5,0.9,0.7,1.9,0.7,3.2v10.3c0,0.8,0.2,1.6,0.6,2.1
			s0.8,0.9,1.3,1.3c0.5,0.3,1.1,0.5,1.7,0.6s1.1,0.2,1.4,0.2v4.8L189.5,99.4L189.5,99.4z"/>
		<path class="st1" d="M214.1,101.9c0.2,1.9,1,3.4,2.2,4.5s2.8,1.6,4.7,1.6c1.6,0,3-0.3,4.1-1s2.1-1.5,2.9-2.5l4.6,3.5
			c-1.5,1.8-3.2,3.2-5.1,4c-1.8,0.8-3.8,1.2-5.8,1.2c-1.9,0-3.7-0.3-5.5-1c-1.7-0.7-3.2-1.6-4.5-2.8c-1.2-1.2-2.2-2.6-3-4.3
			c-0.7-1.7-1.1-3.5-1.1-5.6s0.3-3.9,1.1-5.6c0.7-1.7,1.7-3.1,3-4.3c1.2-1.2,2.7-2.1,4.5-2.8c1.7-0.7,3.6-1,5.5-1
			c1.7,0,3.4,0.3,4.9,0.9s2.7,1.5,3.8,2.8c1.1,1.2,1.9,2.7,2.5,4.4c0.6,1.8,0.9,3.8,0.9,6v1.8L214.1,101.9L214.1,101.9z M227.3,97
			c0-1.9-0.7-3.4-1.7-4.5c-1.2-1.1-2.7-1.7-4.7-1.7c-1.9,0-3.5,0.6-4.6,1.7c-1.2,1.1-1.8,2.6-2.1,4.5H227.3z"/>
		<path class="st1" d="M253.4,93.8c-1.2-1.8-2.9-2.7-5.1-2.7c-0.8,0-1.7,0.3-2.5,0.7s-1.2,1.2-1.2,2.1c0,0.8,0.3,1.3,1,1.8
			c0.7,0.3,1.5,0.7,2.6,0.9c1,0.3,2.2,0.5,3.3,0.8c1.2,0.3,2.3,0.7,3.3,1.3c1,0.6,1.9,1.3,2.6,2.3s1,2.3,1,4c0,1.6-0.3,2.8-1,3.9
			s-1.5,1.9-2.6,2.6s-2.2,1.1-3.6,1.4c-1.3,0.3-2.7,0.4-4,0.4c-2,0-3.8-0.3-5.5-0.8s-3.2-1.6-4.5-3.1l4.3-4c0.8,0.9,1.7,1.7,2.7,2.3
			c0.9,0.6,2.1,0.9,3.5,0.9c0.5,0,0.9-0.1,1.4-0.2s1-0.3,1.4-0.5c0.4-0.3,0.7-0.6,1.1-0.9c0.2-0.4,0.4-0.8,0.4-1.3
			c0-0.9-0.3-1.6-1-2s-1.5-0.8-2.6-1.1c-1-0.3-2.2-0.5-3.3-0.8c-1.2-0.3-2.3-0.6-3.3-1.2c-1-0.5-1.9-1.3-2.6-2.2
			c-0.7-0.9-1-2.3-1-3.9c0-1.4,0.3-2.7,0.9-3.8c0.6-1.1,1.3-1.9,2.3-2.6s2.1-1.2,3.3-1.5c1.2-0.3,2.5-0.5,3.8-0.5
			c1.7,0,3.4,0.3,5.1,0.9s3.1,1.6,4.1,3L253.4,93.8z"/>
		<path class="st1" d="M281.1,94.4c-0.7-0.8-1.6-1.4-2.3-1.9c-0.8-0.5-1.7-0.7-2.5-0.7c-1.2,0-2.2,0.3-3.2,0.7
			c-0.9,0.4-1.7,1-2.4,1.8c-0.7,0.8-1.2,1.6-1.5,2.5s-0.5,1.9-0.5,2.9s0.2,2,0.5,2.9s0.8,1.8,1.5,2.5c0.7,0.8,1.5,1.3,2.4,1.8
			c0.9,0.4,2,0.7,3.2,0.7c1,0,1.9-0.2,2.8-0.6c0.8-0.4,1.6-1,2.2-1.8l4.3,4.6c-0.7,0.7-1.4,1.2-2.2,1.7c-0.8,0.5-1.7,0.8-2.6,1.2
			c-0.9,0.3-1.7,0.5-2.5,0.6c-0.7,0.1-1.5,0.2-2.1,0.2c-1.9,0-3.7-0.3-5.5-1c-1.7-0.7-3.2-1.6-4.5-2.8s-2.2-2.6-3-4.3
			c-0.7-1.7-1.1-3.5-1.1-5.6s0.3-3.9,1.1-5.6c0.7-1.7,1.7-3.1,3-4.3c1.2-1.2,2.7-2.1,4.5-2.8s3.6-1,5.5-1c1.7,0,3.3,0.3,5,0.9
			s3.2,1.6,4.4,3L281.1,94.4z"/>
		<path class="st1" d="M288.1,99.6c0-2.1,0.3-3.9,1.1-5.6c0.7-1.7,1.7-3.1,3-4.3s2.7-2.1,4.5-2.8c1.7-0.7,3.6-1,5.5-1s3.7,0.3,5.5,1
			c1.7,0.7,3.2,1.6,4.5,2.8s2.2,2.6,3,4.3c0.7,1.7,1.1,3.5,1.1,5.6s-0.3,3.9-1.1,5.6c-0.7,1.7-1.7,3.1-3,4.3s-2.7,2.1-4.5,2.8
			c-1.7,0.7-3.6,1-5.5,1s-3.7-0.3-5.5-1c-1.7-0.7-3.2-1.6-4.5-2.8s-2.2-2.6-3-4.3S288.1,101.6,288.1,99.6z M294.4,99.6
			c0,1,0.2,2,0.5,2.9s0.8,1.8,1.5,2.5c0.7,0.8,1.5,1.3,2.4,1.8c0.9,0.4,2,0.7,3.2,0.7s2.2-0.3,3.2-0.7c0.9-0.4,1.7-1,2.4-1.8
			c0.7-0.8,1.2-1.5,1.5-2.5c0.3-0.9,0.5-1.9,0.5-2.9s-0.2-2-0.5-2.9s-0.8-1.8-1.5-2.5s-1.5-1.3-2.4-1.8c-0.9-0.4-2-0.7-3.2-0.7
			s-2.2,0.3-3.2,0.7s-1.7,1-2.4,1.8c-0.7,0.8-1.2,1.6-1.5,2.5C294.7,97.6,294.4,98.6,294.4,99.6z"/>
		<path class="st1" d="M322.1,71.7h6.4v40.9h-6.4V71.7z"/>
		<path class="st1" d="M352,109h-0.2c-0.9,1.5-2.1,2.5-3.6,3.2s-3,1-4.7,1c-1.2,0-2.3-0.2-3.5-0.5s-2.2-0.8-3-1.4
			c-0.9-0.7-1.6-1.4-2.1-2.4s-0.8-2.1-0.8-3.4c0-1.4,0.2-2.6,0.7-3.6s1.2-1.8,2-2.5s1.8-1.2,2.9-1.6s2.2-0.7,3.5-0.9
			c1.2-0.3,2.4-0.3,3.7-0.4c1.2-0.1,2.3-0.1,3.4-0.1h1.6v-0.7c0-1.6-0.6-2.8-1.7-3.7s-2.5-1.3-4.2-1.3c-1.3,0-2.7,0.3-3.8,0.8
			c-1.2,0.5-2.2,1.2-3.1,2l-3.4-3.4c1.4-1.5,3.1-2.5,5-3.2s3.9-1,5.9-1c1.8,0,3.3,0.2,4.6,0.6s2.3,0.9,3.1,1.6
			c0.8,0.7,1.5,1.4,1.9,2.3s0.7,1.7,1,2.6c0.2,0.8,0.3,1.7,0.3,2.5s0.1,1.5,0.1,2.1v14.9h-5.9v-3.4h0.3V109z M351.7,101h-1.3
			c-0.9,0-1.9,0-3,0.1s-2.2,0.3-3.2,0.5c-1,0.3-1.8,0.7-2.5,1.2s-1,1.3-1,2.2c0,0.6,0.2,1.1,0.4,1.5c0.2,0.4,0.6,0.8,1.1,1.1
			c0.4,0.3,0.9,0.5,1.4,0.6c0.5,0.2,1.1,0.2,1.6,0.2c2.2,0,3.8-0.5,4.9-1.6s1.6-2.5,1.6-4.4V101L351.7,101z"/>
	</g>
</g>
</svg>
