<?xml version="1.0" encoding="utf-8"?>
<!-- Generator: Adobe Illustrator 24.1.0, SVG Export Plug-In . SVG Version: 6.00 Build 0)  -->
<svg version="1.1" id="Camada_1" xmlns="http://www.w3.org/2000/svg" xmlns:xlink="http://www.w3.org/1999/xlink" x="0px" y="0px"
	 viewBox="0 0 461 78" style="enable-background:new 0 0 461 78;" xml:space="preserve">
<style type="text/css">
	.st0{fill:#FFFFFF;}
	.st1{fill:#007AFF;}
</style>
<g>
	<path class="st0" d="M456.5,25.9l-30.2-14.8c-0.9-0.5-2-0.7-2.9-0.7c-1.4,0-2.7,0.5-3.9,1.3c-1.9,1.3-3.1,3.6-3.3,6
		c-0.7-0.4-1.4-0.8-2.1-1c-2.7-1-5.3-1.5-8.1-1.5c-2.1,0-4,0.3-6,0.8c-2.2,0.7-4.3,1.6-6.1,3c-1.3,1-2.4,2.2-3.3,3.6
		c-0.3-0.3-0.4-0.6-0.7-0.8c-2.1-2.2-4.5-3.9-7.4-5c-2.7-1.1-5.6-1.7-8.6-1.7s-5.9,0.6-8.7,1.7c-1.8,0.8-3.4,1.7-5,2.9
		c-1.3-2.3-3.5-3.8-6.2-3.8h-0.7v-1.2c0-4.3-3.3-7.9-7.2-7.9H339c-3.9,0-7.2,3.6-7.2,7.9V16c-1.5,0.3-2.8,1.1-3.9,2.3
		c-0.7-0.5-1.4-0.9-2.1-1.3c-2.3-1.2-5-1.8-8-1.8c-2.4,0-4.6,0.4-6.5,1.2c-0.8-0.3-1.5-0.5-2.4-0.5h-6.8c-2.9,0-5.4,1.9-6.5,4.6
		c-1.5-1.5-3.3-2.7-5.3-3.7c-2.6-1.1-5.3-1.8-8.2-1.8c-3,0-5.9,0.6-8.7,1.7c-2.8,1.1-5.3,2.8-7.4,5c-0.3,0.4-0.8,0.8-1.1,1.2H264
		c-0.2-0.3-0.3-0.5-0.4-0.8c-1.5-2.3-3.5-4.1-5.8-5.4c-2.3-1.2-5-1.9-8-1.9c-3.3,0-6.4,0.8-9,2.4c-0.1,0-0.1,0.1-0.2,0.1
		c-2.6-1.6-5.7-2.5-9.2-2.5c-2.4,0-4.6,0.4-6.5,1.2c-0.8-0.3-1.5-0.5-2.4-0.5h-6.8c0.2-0.9,0.3-1.8,0.3-2.7c0-3.6-1.3-6.9-3.7-9.3
		c-2.2-2.3-5.1-3.4-8.2-3.4c-3.3,0-6.1,1.3-8.3,3.8s-3.4,5.6-3.4,9c0,2.5,0.7,4.9,1.9,6.9c-0.2,0.5-0.3,0.8-0.5,1.3
		c-2-2-4.3-3.5-6.9-4.6c-2.7-1.1-5.6-1.7-8.7-1.7c-3,0-5.9,0.6-8.7,1.7s-5.3,2.8-7.4,5c-0.3,0.4-0.8,0.8-1.1,1.2h-1.9
		c-0.2-0.2-0.3-0.4-0.4-0.6c-1.9-2.3-4.2-4.2-6.9-5.4c-2.7-1.3-5.7-2-8.8-2c-2.5,0-5,0.5-7.2,1.4c-0.9-0.4-1.8-0.6-2.7-0.6h-6.8
		c-2.9,0-5.4,1.9-6.5,4.6c-1.5-1.5-3.3-2.7-5.3-3.7c-2.6-1.1-5.3-1.8-8.2-1.8c-3,0-5.9,0.6-8.7,1.7c-2.4,0.9-4.5,2.4-6.4,4.2
		c-0.3-0.8-0.5-1.6-0.9-2.4c-1.6-4-3.9-7.3-6.6-9.9s-5.8-4.6-9.4-5.9C71,1.1,67.5,0.5,64,0.5H47.3c-3.9,0-7.2,3.6-7.2,7.9v2
		c-0.8-0.3-1.5-0.5-2.3-0.5c-1,0-2,0.2-2.9,0.7L4.7,25.4c-2.6,1.2-4.3,4.2-4.3,7.3v4.7c0,3.1,1.7,5.9,4.3,7.3l30.2,14.8
		c0.9,0.5,2,0.7,2.9,0.7c1.2,0,2.3-0.4,3.4-0.9c1.3,2.3,3.5,3.7,6.1,3.7h15.8c3.3,0,6.7-0.6,10-1.8c3.4-1.2,6.7-3.1,9.5-5.7
		c1.2-1,2.2-2.2,3.2-3.4h0.8c1,1.8,2.2,3.5,3.6,4.9c2.1,2.2,4.5,3.9,7.4,5c2.7,1.1,5.6,1.7,8.7,1.7c3.3,0,6.3-0.7,9.4-2.1
		c1.3-0.6,2.5-1.3,3.6-2.2V70c0,4.3,3.3,7.9,7.2,7.9h7.2c3.9,0,7.2-3.6,7.2-7.9v-6.4c0.9,0.1,1.8,0.2,2.7,0.2c3.1,0,5.9-0.7,8.6-2
		c2.7-1.3,4.9-3.1,6.8-5.5c0.4-0.6,0.9-1.1,1.3-1.8c0.6,0.8,1.3,1.7,2.1,2.5c2.1,2.2,4.5,3.9,7.4,5c2.7,1.1,5.6,1.7,8.7,1.7
		c3,0,5.9-0.6,8.6-1.7c2.6-1,4.9-2.6,6.9-4.6c0.9,3.2,3.7,5.5,6.9,5.5h7.2c1.5,0,2.8-0.5,3.9-1.3c1.1,0.8,2.5,1.3,3.9,1.3h7.2
		c2.3,0,4.4-1.2,5.7-3.1c1.3,1.9,3.4,3.1,5.7,3.1h7.2c2.3,0,4.4-1.2,5.7-3.1c1.3,1.9,3.4,3.1,5.7,3.1h7.2c3.1,0,5.7-2.2,6.8-5.2
		c1.9,1.8,4.1,3.3,6.6,4.2c2.7,1.1,5.6,1.7,8.7,1.7c3.3,0,6.3-0.7,9.4-2.1c1.5-0.8,3.1-1.7,4.5-2.9c1.2,2.5,3.6,4.2,6.3,4.2h7.2
		c2.5,0,4.6-1.3,5.9-3.4c1.3,2.1,3.4,3.4,5.9,3.4h7.2c3.1,0,5.7-2.2,6.8-5.2c0.1,0.1,0.1,0.2,0.2,0.3c1.5,2.1,3.6,3.7,6.1,4.6
		c2,0.8,4.3,1.1,7,1.1c1.1,0,2.4-0.1,3.8-0.3c1.9-0.3,3.5-0.8,5-1.5c1.2-0.7,2.2-1.6,3-2.8c1.5,1.2,3.3,2.3,5.1,3
		c2.7,1.1,5.6,1.7,8.7,1.7c3,0,5.9-0.6,8.6-1.7c2.6-1,4.9-2.6,6.9-4.5c2.1,2.2,4.4,3.8,6.9,4.7c2.6,0.9,5.5,1.5,8.5,1.5
		c2,0,3.9-0.3,5.9-0.7c2.2-0.6,4.4-1.4,6.2-2.6c0.8-0.6,1.5-1.1,2.1-1.8c0.2,0.1,0.3,0.2,0.4,0.4c1.2,0.8,2.6,1.3,3.9,1.3
		c1,0,2-0.2,2.9-0.7l30.3-14.2c2.6-1.2,4.3-4.2,4.3-7.3v-4.7C460.8,30.1,459.1,27.3,456.5,25.9z M200.7,9.9c0.9-0.9,2-1.4,3.3-1.4
		s2.4,0.5,3.3,1.3c0.9,0.9,1.4,2,1.4,3.4c0,1.3-0.4,2.5-1.4,3.4c-0.9,0.9-2,1.3-3.3,1.3c-1.4,0-2.4-0.5-3.3-1.4
		c-0.9-0.9-1.3-2.1-1.3-3.3S199.9,10.8,200.7,9.9z M423.6,34.5l2.2,1l-2.2,1V34.5z M339,14.8h7.2v8.3H339V14.8z M64,8.9
		c2.7,0,5.5,0.5,8.1,1.4s4.9,2.4,6.9,4.3s3.6,4.3,4.8,7.3c0.2,0.4,0.3,0.8,0.4,1.2h-8.6c-0.7-1.2-1.5-2.2-2.4-3
		c-1.4-1.2-3.1-2.2-5-2.7c-2-0.6-4-0.8-6.3-0.8H55v6.7h-7.7V9.1H64C64,9.1,64,8.9,64,8.9z M7.6,33.2l30.2-14.8v4.7h-9.5v7.2
		l-10.6,5.2l10.6,5.2V48L7.6,37.9L7.6,33.2L7.6,33.2z M37.6,52.7h0.3v0.1L37.6,52.7z M70.9,54.1c-2.7,0.9-5.2,1.4-7.8,1.4H47.3v-2.9
		h26.8C73.1,53.2,72,53.7,70.9,54.1z M112.7,54.8c-2.1,0.9-4.2,1.4-6.5,1.4c-2.1,0-4.2-0.4-6.1-1.2c-1.5-0.7-2.8-1.4-4-2.5H116
		C114.9,53.6,113.8,54.4,112.7,54.8z M126.3,70.5V52.7h7.2v17.8H126.3z M149,55c-1.7,0.8-3.6,1.3-5.6,1.3c-1.4,0-2.6-0.2-3.6-0.5
		s-2-0.7-2.7-1.2c-0.8-0.5-1.5-1-2.1-1.5c-0.2-0.2-0.3-0.3-0.4-0.5h17.8C151.4,53.6,150.3,54.4,149,55z M184.2,55.1
		c-1.9,0.8-3.9,1.2-6.1,1.2c-2.1,0-4.2-0.4-6.1-1.2c-1.5-0.7-2.8-1.4-4-2.5h20.2C187,53.7,185.7,54.5,184.2,55.1z M200.5,55.5v-2.9
		h7.2v2.9H200.5z M215.6,55.5v-2.9h7.2v2.9H215.6z M234.3,55.5v-2.9h7.2v2.9H234.3z M252.9,55.5v-2.9h7.2v2.9H252.9z M288.5,54.8
		c-2.1,0.9-4.2,1.4-6.5,1.4c-2.1,0-4.2-0.4-6.1-1.2c-1.5-0.7-2.8-1.4-4-2.5h19.9C290.7,53.6,289.7,54.4,288.5,54.8z M302.1,55.5
		v-2.9h7.2v2.9H302.1z M321.1,55.5v-2.9h7.2v2.9H321.1z M351.3,56.1c-1.1,0.2-2.1,0.2-2.9,0.2c-1.9,0-3.4-0.2-4.7-0.7
		c-1.2-0.5-2.1-1.1-2.8-2.1c-0.2-0.3-0.3-0.6-0.5-0.8h13.7v2.6C353.3,55.7,352.3,55.9,351.3,56.1z M379.9,55.1
		c-1.9,0.8-3.9,1.2-6.1,1.2s-4.2-0.4-6.1-1.2c-1.5-0.7-2.8-1.4-4-2.5h20.2C382.8,53.7,381.4,54.5,379.9,55.1z M413.1,54.1
		c-1.2,0.8-2.5,1.3-3.9,1.7c-1.5,0.4-2.9,0.6-4.5,0.6c-2.2,0-4.3-0.4-6.2-1c-1.5-0.6-2.7-1.4-3.9-2.6h20.1
		C414.3,53.1,413.7,53.6,413.1,54.1z M423.3,52.8L423.3,52.8l0.3-0.1L423.3,52.8z M453.6,37.9l-29.9,14.6v-1.4
		c0.4-1.5,0.6-3.2,0.6-5c0-0.4,0-0.8,0-1.1l19.3-9.4l-19.9-9.7v-2.6h-0.3v-4.7l30.2,14.8L453.6,37.9L453.6,37.9z"/>
	<g>
		<path class="st1" d="M7.6,37.9v-4.7l30.2-14.8v7.3l-20.2,9.9l20.2,9.9v7.3L7.6,37.9z"/>
		<path class="st1" d="M47.3,8.9h16.6c2.7,0,5.5,0.5,8.1,1.4s4.9,2.4,6.9,4.3s3.6,4.3,4.8,7.3c1.2,2.9,1.8,6.3,1.8,10.3
			s-0.7,7.5-2.1,10.4s-3.2,5.3-5.3,7.3c-2.1,1.9-4.5,3.3-7.2,4.2c-2.7,0.9-5.2,1.4-7.8,1.4H47.3V8.9z M60.4,48
			c2.3,0,4.5-0.3,6.7-0.8c2.1-0.6,3.9-1.5,5.5-2.7c1.5-1.2,2.7-2.8,3.7-4.9c0.9-2,1.4-4.4,1.4-7.3c0-2.8-0.4-5.2-1.2-7.3
			c-0.8-2-1.9-3.7-3.3-4.9c-1.4-1.2-3.1-2.2-5-2.7c-2-0.6-4-0.8-6.3-0.8H55v31.5L60.4,48L60.4,48z"/>
		<path class="st1" d="M97.8,42.5c0.3,2.4,1.1,4.2,2.5,5.5c1.5,1.3,3.2,2,5.2,2c1.8,0,3.3-0.4,4.5-1.2c1.2-0.8,2.3-1.8,3.2-3
			l5.1,4.2c-1.6,2.3-3.5,3.9-5.6,4.9c-2.1,0.9-4.2,1.4-6.5,1.4c-2.1,0-4.2-0.4-6.1-1.2c-1.9-0.8-3.6-1.9-5-3.4
			c-1.4-1.4-2.5-3.2-3.3-5.2c-0.9-2.1-1.2-4.3-1.2-6.8s0.4-4.7,1.2-6.8c0.9-2.1,1.9-3.8,3.3-5.2c1.4-1.4,3.1-2.5,5-3.3
			s3.9-1.2,6.1-1.2c2,0,3.8,0.4,5.5,1.1c1.6,0.8,3.1,1.9,4.2,3.3c1.2,1.4,2.1,3.2,2.7,5.4c0.7,2.2,0.9,4.5,0.9,7.4v2.2L97.8,42.5
			L97.8,42.5z M112.4,36.6c0-2.4-0.7-4.2-2-5.5s-3.1-2-5.3-2c-2.1,0-3.9,0.7-5.1,2.1c-1.3,1.3-2.1,3.2-2.3,5.5L112.4,36.6
			L112.4,36.6z"/>
		<path class="st1" d="M126.3,24h6.8v4.7h0.1c1-1.9,2.4-3.3,4.2-4.2c1.7-0.8,3.6-1.3,5.7-1.3c2.2,0,4.1,0.5,5.9,1.3
			c1.7,0.8,3.3,2,4.5,3.5s2.1,3.2,2.8,5.3c0.6,2,0.9,4.2,0.9,6.5s-0.3,4.5-1,6.5s-1.6,3.8-2.8,5.3s-2.7,2.6-4.4,3.5
			c-1.7,0.8-3.6,1.3-5.6,1.3c-1.4,0-2.6-0.2-3.6-0.5s-2-0.7-2.7-1.2c-0.8-0.5-1.5-1-2.1-1.5c-0.6-0.6-1-1-1.4-1.6h-0.2v19h-7.2
			L126.3,24L126.3,24z M150.1,39.7c0-1.2-0.2-2.5-0.6-3.6c-0.3-1.1-0.9-2.2-1.6-3c-0.8-0.8-1.6-1.6-2.7-2.1c-1-0.6-2.2-0.8-3.5-0.8
			s-2.5,0.3-3.5,0.8c-1,0.6-1.9,1.2-2.7,2.1s-1.3,1.9-1.6,3s-0.6,2.4-0.6,3.6s0.2,2.5,0.6,3.6c0.3,1.1,0.9,2.2,1.6,3
			c0.8,0.8,1.6,1.6,2.7,2.1c1,0.6,2.2,0.8,3.5,0.8s2.5-0.3,3.5-0.8c1-0.6,1.9-1.2,2.7-2.1c0.8-0.8,1.3-1.9,1.6-3
			S150.1,41,150.1,39.7z"/>
		<path class="st1" d="M162.5,39.7c0-2.5,0.4-4.7,1.2-6.8c0.9-2.1,1.9-3.8,3.3-5.2c1.4-1.4,3.1-2.5,5-3.3s3.9-1.2,6.1-1.2
			c2.1,0,4.2,0.4,6.1,1.2c1.9,0.8,3.6,1.9,5,3.3s2.5,3.2,3.3,5.2c0.8,2.1,1.2,4.3,1.2,6.8s-0.4,4.7-1.2,6.8
			c-0.9,2.1-1.9,3.8-3.3,5.2c-1.4,1.4-3.1,2.5-5,3.4c-1.9,0.8-3.9,1.2-6.1,1.2c-2.1,0-4.2-0.4-6.1-1.2c-1.9-0.8-3.6-1.9-5-3.4
			c-1.4-1.4-2.5-3.2-3.3-5.2C162.9,44.5,162.5,42.3,162.5,39.7z M169.7,39.7c0,1.2,0.2,2.5,0.6,3.6c0.3,1.1,0.9,2.2,1.6,3
			c0.8,0.8,1.6,1.6,2.7,2.1c1,0.6,2.2,0.8,3.5,0.8s2.5-0.3,3.5-0.8c1-0.6,1.9-1.2,2.7-2.1c0.8-0.8,1.3-1.9,1.6-3s0.6-2.4,0.6-3.6
			s-0.2-2.5-0.6-3.6c-0.3-1.1-0.9-2.2-1.6-3c-0.8-0.8-1.6-1.6-2.7-2.1c-1-0.6-2.2-0.8-3.5-0.8s-2.5,0.3-3.5,0.8
			c-1,0.6-1.9,1.2-2.7,2.1c-0.8,0.8-1.3,1.9-1.6,3C169.8,37.4,169.7,38.5,169.7,39.7z"/>
		<path class="st1" d="M199.4,13.3c0-1.2,0.4-2.4,1.3-3.3c0.9-0.9,2-1.4,3.3-1.4s2.4,0.5,3.3,1.3c0.9,0.9,1.4,2,1.4,3.4
			c0,1.3-0.4,2.5-1.4,3.4c-0.9,0.9-2,1.3-3.3,1.3c-1.4,0-2.4-0.5-3.3-1.4C199.9,15.7,199.4,14.5,199.4,13.3z M200.5,24h7.2v31.5
			h-7.2V24z"/>
		<path class="st1" d="M215.6,24h6.8v4.9h0.1c0.6-1.5,1.6-2.8,3.1-4c1.4-1.1,3.3-1.7,5.7-1.7c4.5,0,7.5,2,8.9,5.9
			c1-2,2.3-3.5,3.9-4.4s3.4-1.4,5.6-1.4c1.9,0,3.5,0.4,4.8,1c1.3,0.7,2.4,1.7,3.2,2.9c0.9,1.2,1.4,2.6,1.8,4.3
			c0.3,1.6,0.5,3.4,0.5,5.3v18.8h-7.2V37.8c0-0.9-0.1-1.9-0.3-2.8c-0.2-0.9-0.4-1.7-0.9-2.4s-0.9-1.2-1.6-1.6s-1.5-0.6-2.7-0.6
			s-2.1,0.2-2.8,0.7c-0.8,0.5-1.4,1-1.9,1.8s-0.9,1.6-1.1,2.6c-0.3,0.9-0.3,2-0.3,3v17.1H234V36.8c0-2-0.3-3.5-1.1-4.7
			c-0.8-1.1-2-1.7-3.8-1.7c-1.2,0-2.2,0.2-3,0.7c-0.9,0.5-1.5,1-2.1,1.8c-0.5,0.8-0.9,1.6-1.2,2.5s-0.3,2-0.3,3v17.2h-7.4V24
			L215.6,24L215.6,24z"/>
		<path class="st1" d="M273.6,42.5c0.3,2.4,1.1,4.2,2.5,5.5c1.5,1.3,3.2,2,5.2,2c1.8,0,3.3-0.4,4.5-1.2c1.2-0.8,2.3-1.8,3.2-3
			l5.1,4.2c-1.6,2.3-3.5,3.9-5.6,4.9c-2.1,0.9-4.2,1.4-6.5,1.4c-2.1,0-4.2-0.4-6.1-1.2c-1.9-0.8-3.6-1.9-5-3.4
			c-1.4-1.4-2.5-3.2-3.3-5.2c-0.9-2.1-1.2-4.3-1.2-6.8s0.4-4.7,1.2-6.8c0.9-2.1,1.9-3.8,3.3-5.2c1.4-1.4,3.1-2.5,5-3.3
			s3.9-1.2,6.1-1.2c2,0,3.8,0.4,5.5,1.1c1.6,0.8,3.1,1.9,4.2,3.3c1.2,1.4,2.1,3.2,2.7,5.4c0.7,2.2,0.9,4.5,0.9,7.4v2.2L273.6,42.5
			L273.6,42.5z M288.3,36.6c0-2.4-0.7-4.2-2-5.5s-3.1-2-5.3-2c-2.1,0-3.9,0.7-5.1,2.1c-1.3,1.3-2.1,3.2-2.3,5.5L288.3,36.6
			L288.3,36.6z"/>
		<path class="st1" d="M302.1,24h6.8v5.1h0.1c0.7-1.6,1.7-2.9,3.1-4.2c1.4-1.1,3.3-1.7,5.7-1.7c1.9,0,3.5,0.4,4.9,1
			c1.4,0.7,2.4,1.6,3.3,2.7s1.5,2.5,1.8,4s0.5,3,0.5,4.6v19.9h-7.2v-16c0-0.8,0-1.9-0.1-2.9s-0.3-2.1-0.6-3
			c-0.3-0.9-0.9-1.7-1.5-2.4c-0.7-0.7-1.7-0.9-2.9-0.9s-2.2,0.2-3,0.7c-0.9,0.5-1.5,1-2.1,1.8c-0.5,0.8-0.9,1.6-1.2,2.5
			c-0.3,0.9-0.3,2-0.3,3v17.2h-7.3V24z"/>
		<path class="st1" d="M333.1,30.7V24h5.9v-9.2h7.2V24h7.9v6.7h-7.9v13.8c0,1.6,0.3,2.8,0.8,3.8c0.5,0.9,1.6,1.4,3.2,1.4
			c0.6,0,1.4-0.1,2.1-0.2c0.8-0.2,1.4-0.4,1.8-0.8v6.6c-0.8,0.4-1.7,0.7-2.7,0.8c-1.1,0.2-2.1,0.2-2.9,0.2c-1.9,0-3.4-0.2-4.7-0.7
			c-1.2-0.5-2.1-1.1-2.8-2.1c-0.7-0.9-1.2-2.1-1.5-3.5s-0.4-3-0.4-4.9V30.7L333.1,30.7L333.1,30.7z"/>
		<path class="st1" d="M358.2,39.7c0-2.5,0.4-4.7,1.2-6.8c0.9-2.1,1.9-3.8,3.3-5.2c1.4-1.4,3.1-2.5,5-3.3s3.9-1.2,6.1-1.2
			c2.1,0,4.2,0.4,6.1,1.2c1.9,0.8,3.6,1.9,5,3.3s2.5,3.2,3.3,5.2c0.9,2.1,1.2,4.3,1.2,6.8s-0.4,4.7-1.2,6.8
			c-0.9,2.1-1.9,3.8-3.3,5.2c-1.4,1.4-3.1,2.5-5,3.4c-1.9,0.8-3.9,1.2-6.1,1.2c-2.1,0-4.2-0.4-6.1-1.2c-1.9-0.8-3.6-1.9-5-3.4
			c-1.4-1.4-2.5-3.2-3.3-5.2C358.6,44.5,358.2,42.3,358.2,39.7z M365.4,39.7c0,1.2,0.2,2.5,0.6,3.6c0.3,1.1,0.9,2.2,1.6,3
			c0.8,0.8,1.6,1.6,2.7,2.1c1,0.6,2.2,0.8,3.5,0.8s2.5-0.3,3.5-0.8c1-0.6,1.9-1.2,2.7-2.1c0.8-0.8,1.3-1.9,1.6-3
			c0.3-1.1,0.6-2.4,0.6-3.6s-0.2-2.5-0.6-3.6c-0.3-1.1-0.9-2.2-1.6-3c-0.8-0.8-1.6-1.6-2.7-2.1c-1-0.6-2.2-0.8-3.5-0.8
			s-2.5,0.3-3.5,0.8c-1,0.6-1.9,1.2-2.7,2.1c-0.8,0.8-1.3,1.9-1.6,3C365.5,37.4,365.4,38.5,365.4,39.7z"/>
		<path class="st1" d="M411.4,32.7c-1.4-2.2-3.3-3.2-5.6-3.2c-0.9,0-1.9,0.3-2.8,0.8c-0.9,0.6-1.4,1.4-1.4,2.5
			c0,0.9,0.3,1.7,1.1,2.1c0.8,0.5,1.7,0.8,2.8,1.1c1.1,0.3,2.4,0.7,3.8,0.9c1.4,0.3,2.6,0.8,3.8,1.5c1.1,0.7,2.1,1.6,2.8,2.8
			c0.8,1.2,1.1,2.8,1.1,4.9c0,1.9-0.3,3.5-1.1,4.7c-0.8,1.3-1.7,2.4-2.8,3.1c-1.2,0.8-2.5,1.3-3.9,1.7c-1.5,0.4-2.9,0.6-4.5,0.6
			c-2.2,0-4.3-0.4-6.2-1c-1.9-0.7-3.5-2-5-3.8l4.8-4.9c0.9,1.1,1.9,2.1,2.9,2.8s2.3,1,3.9,1c0.5,0,1-0.1,1.6-0.2s1.1-0.4,1.5-0.7
			c0.5-0.3,0.9-0.7,1.2-1.1c0.3-0.5,0.4-1,0.4-1.6c0-1.1-0.3-1.9-1.1-2.5c-0.8-0.6-1.7-0.9-2.8-1.3c-1.1-0.3-2.4-0.7-3.8-0.9
			c-1.4-0.3-2.6-0.8-3.8-1.4c-1.1-0.7-2.1-1.5-2.8-2.6c-0.8-1.1-1.1-2.7-1.1-4.7c0-1.8,0.3-3.3,0.9-4.5c0.7-1.3,1.5-2.4,2.6-3.2
			c1.1-0.8,2.3-1.4,3.7-1.8s2.8-0.6,4.2-0.6c1.9,0,3.8,0.4,5.7,1c1.9,0.8,3.3,2,4.5,3.7L411.4,32.7z"/>
		<path class="st1" d="M453.6,33.2v4.7l-30.2,14.8v-7.3l20.2-9.9l-20.2-9.9v-7.2L453.6,33.2z"/>
	</g>
</g>
</svg>
