<?xml version="1.0" encoding="utf-8"?>
<!-- Generator: Adobe Illustrator 24.1.0, SVG Export Plug-In . SVG Version: 6.00 Build 0)  -->
<svg version="1.1" id="Camada_1" xmlns="http://www.w3.org/2000/svg" xmlns:xlink="http://www.w3.org/1999/xlink" x="0px" y="0px"
	 viewBox="0 0 337 133" style="enable-background:new 0 0 337 133;" xml:space="preserve">
<style type="text/css">
	.st0{fill:#FFFFFF;}
	.st1{fill:#007AFF;}
</style>
<g>
	<path class="st0" d="M30,43.6l30,13.3c1.1,0.5,2.3,0.7,3.5,0.7c1,0,2-0.2,2.9-0.5c1.6,1.8,3.9,3,6.5,3h7.5c4.8,0,8.6-3.9,8.6-8.6
		v-3l5,7.7c1.6,2.5,4.3,4,7.3,4h9.5c3.2,0,6-1.8,7.5-4.3c1.8,1.4,3.9,2.6,6.2,3.4c2.9,1.1,5.9,1.6,9.1,1.6c3.2,0,6.2-0.5,9.1-1.6
		c2.3-0.9,4.4-2,6.2-3.5c1.9,1.7,4.1,2.9,6.4,3.7c2.8,0.9,5.7,1.4,8.9,1.4c2.1,0,4.2-0.2,6.2-0.7c2.4-0.5,4.6-1.4,6.6-2.6
		c0.1-0.1,0.2-0.1,0.3-0.2c1.3,0.9,2.8,1.6,4.3,2.1c2.8,0.9,5.7,1.4,8.9,1.4c2.1,0,4.2-0.2,6.2-0.7c2.4-0.5,4.6-1.4,6.6-2.6
		c1.1-0.7,2.1-1.5,3-2.4c2,1.7,4.3,3.1,6.9,4c2.9,1.1,5.9,1.6,9.1,1.6c3.2,0,6.2-0.5,9.1-1.6c2.3-0.9,4.4-2,6.2-3.5
		c1.9,1.7,4.1,2.9,6.4,3.7c2.8,0.9,5.7,1.4,8.9,1.4c2.1,0,4.2-0.2,6.2-0.7c2.4-0.5,4.6-1.4,6.6-2.6c0.5-0.3,1-0.7,1.5-1
		c1.3,0.7,2.7,1.1,4.2,1.1c1.2,0,2.4-0.2,3.5-0.7l30-13.3c3.1-1.4,5.1-4.5,5.1-7.9v-4.3c0-3.4-2-6.5-5.1-7.9l-30-13.3
		c-1.1-0.5-2.3-0.7-3.5-0.7c-1.6,0-3.3,0.5-4.7,1.4c-1.7,1.1-2.9,2.7-3.5,4.6c-0.2-0.1-0.4-0.2-0.6-0.2c-2.8-1-5.6-1.5-8.5-1.5
		c-2.1,0-4.3,0.3-6.4,0.8c-2.4,0.6-4.6,1.6-6.5,3c-1,0.7-1.8,1.4-2.6,2.3c-2.1-1.9-4.6-3.4-7.3-4.4c-2.9-1.1-5.9-1.6-9.1-1.6
		c-3.2,0-6.2,0.5-9.1,1.6c-2.4,0.9-4.6,2.2-6.6,3.8c-1.8-1.7-4-3.1-6.4-3.9c-2.8-1-5.6-1.5-8.5-1.5c-2.1,0-4.3,0.3-6.4,0.8
		c-2.4,0.6-4.6,1.6-6.5,3c-0.1,0.1-0.2,0.1-0.2,0.2c-1.4-1-3-1.9-4.7-2.5c-2.8-1-5.6-1.5-8.5-1.5c-2.1,0-4.3,0.3-6.4,0.8
		c-2.4,0.6-4.6,1.6-6.5,3c-1,0.7-1.8,1.4-2.6,2.3c-2.1-1.9-4.6-3.4-7.3-4.4c-2.9-1.1-5.9-1.6-9.1-1.6c-3.2,0-6.2,0.5-9.1,1.6
		c-1.8,0.7-3.5,1.6-5,2.6V9.6c0-4.8-3.9-8.6-8.6-8.6h-7.5c-4.8,0-8.6,3.9-8.6,8.6v2.3l-4.6-7c-1.6-2.4-4.3-3.9-7.2-3.9h-9.9
		c-4.8,0-8.6,3.8-8.6,8.6c-0.3,0-0.5-0.1-0.8-0.1c-1.2,0-2.4,0.2-3.5,0.7L30,23.5c-3.1,1.4-5.1,4.5-5.1,7.9v4.3
		C24.8,39.1,26.9,42.2,30,43.6z M271.4,18.1l30,13.3v4.3l-28.3,12.6c0.5-1.6,0.7-3.3,0.7-5.2c0-0.6,0-1.1-0.1-1.6l17.7-7.9
		l-18.7-8.3c-0.2-1.2-0.7-2.4-1.4-3.4V18.1z M256.9,41.4c-0.8-0.5-1.7-0.9-2.8-1.2c-1.1-0.3-2.4-0.6-3.7-0.8
		c-1.3-0.3-2.6-0.7-3.7-1.2c-0.1-0.1-0.2-0.1-0.3-0.2c0-0.2,0-0.5,0-0.7c0-3.4-0.7-6.7-1.9-9.6c-0.1-0.3-0.3-0.5-0.4-0.8
		c0.6-0.9,1.3-1.7,2.2-2.3c1.1-0.8,2.3-1.3,3.7-1.7c1.4-0.4,2.8-0.5,4.2-0.5c1.9,0,3.8,0.3,5.6,1c1.1,0.4,2.1,1,3,1.8
		c0,0.9,0.2,1.7,0.5,2.5l-3.8,3.4c-1.4-1.9-3.2-2.9-5.6-2.9c-0.9,0-1.9,0.2-2.8,0.7c-0.9,0.5-1.4,1.2-1.4,2.3c0,0.9,0.4,1.5,1.1,1.9
		c0.8,0.4,1.7,0.7,2.8,1c1.1,0.3,2.4,0.6,3.7,0.9c1.3,0.3,2.6,0.8,3.7,1.4c1,0.6,1.9,1.3,2.6,2.2c-0.7,1.2-1.1,2.6-1.1,4.1V49
		c0,0,0,0,0,0c-0.5,0.4-1,0.8-1.5,1.2c-1.2,0.7-2.5,1.2-3.9,1.5c-1.5,0.3-2.9,0.5-4.4,0.5c-2.2,0-4.2-0.3-6.1-0.9
		c-1.3-0.4-2.5-1.1-3.6-2.1c0.4-0.7,0.8-1.5,1.2-2.3c0.3-0.8,0.6-1.5,0.9-2.3l1.3-1.2c0.9,1,1.9,1.9,2.9,2.5c1,0.7,2.3,1,3.8,1
		c0.5,0,1-0.1,1.6-0.2c0.6-0.1,1.1-0.3,1.5-0.6c0.5-0.3,0.9-0.6,1.2-1c0.3-0.4,0.4-0.9,0.4-1.5C258,42.7,257.7,41.9,256.9,41.4z
		 M210.4,27.4c0.3-0.3,0.6-0.6,0.9-0.9c1.4-1.3,3-2.3,4.9-3c1.9-0.7,3.9-1.1,6-1.1c2.1,0,4.1,0.4,6,1.1c1.9,0.7,3.5,1.7,4.9,3
		c0.4,0.4,0.9,0.9,1.2,1.4c-0.2,1.2-0.4,2.4-0.4,3.7c0,3.6,0.9,6.7,2.7,9.2l-0.8,0.8c-1.9,1.8-2.8,4.2-2.7,6.6c-1.4,1.3-3,2.3-4.9,3
		c-1.9,0.7-3.9,1.1-6,1.1c-2.1,0-4.1-0.4-6-1.1c-1.9-0.7-3.5-1.7-4.9-3c-0.2-0.2-0.3-0.4-0.5-0.5c0.4-1.4,0.6-2.9,0.6-4.5
		c0-3.7-0.9-6.8-2.7-9.4c-0.2-0.3-0.5-0.6-0.7-1C209.4,31.3,210.3,29.4,210.4,27.4z M183.8,24.5c1.1-0.7,2.3-1.3,3.6-1.6
		c1.4-0.4,2.8-0.5,4.2-0.5c1.9,0,3.8,0.3,5.6,1c1.5,0.5,2.7,1.3,3.7,2.4c-0.3,0.6-0.7,1.2-0.9,1.9c-0.1,0.3-0.2,0.6-0.3,0.8
		l-2.7,2.4c-1.4-1.9-3.2-2.9-5.6-2.9c-0.9,0-1.9,0.2-2.8,0.7c-0.9,0.5-1.4,1.2-1.4,2.3c0,0.9,0.4,1.5,1.1,1.9c0.8,0.4,1.7,0.7,2.8,1
		c1.1,0.3,2.4,0.6,3.7,0.9c1.1,0.3,2.2,0.6,3.2,1.1c0,0.4-0.1,0.9-0.1,1.3c0,3.4,0.7,6.7,2,9.6c0.2,0.5,0.5,1,0.8,1.5
		c-0.6,0.7-1.3,1.3-2.1,1.8c-1.2,0.7-2.5,1.2-3.9,1.5c-1.5,0.3-2.9,0.5-4.4,0.5c-2.2,0-4.2-0.3-6.1-0.9c-0.4-0.1-0.7-0.3-1.1-0.4
		c1-2,1.6-4.1,1.7-6.5c0.6,0.6,1.3,1.2,2,1.6c1,0.7,2.3,1,3.8,1c0.5,0,1-0.1,1.6-0.2c0.6-0.1,1.1-0.3,1.5-0.6c0.5-0.3,0.9-0.6,1.2-1
		c0.3-0.4,0.4-0.9,0.4-1.5c0-1-0.4-1.7-1.1-2.2c-0.8-0.5-1.7-0.9-2.8-1.2c-1.1-0.3-2.4-0.6-3.7-0.8c-1.2-0.2-2.4-0.6-3.5-1.2
		c-0.4-1.7-1.1-3.2-2.1-4.6c-0.2-0.3-0.5-0.6-0.7-1C183.8,30.6,184.6,27.4,183.8,24.5z M168.1,41.4c-0.8-0.5-1.7-0.9-2.8-1.2
		c-1.1-0.3-2.4-0.6-3.7-0.8c-1.3-0.3-2.6-0.7-3.7-1.2c-0.1-0.1-0.2-0.1-0.3-0.2c0-0.2,0-0.5,0-0.7c0-3.4-0.7-6.7-1.9-9.6
		c-0.1-0.3-0.3-0.5-0.4-0.8c0.6-0.9,1.3-1.7,2.2-2.3c1.1-0.8,2.3-1.3,3.7-1.7c1.4-0.4,2.8-0.5,4.2-0.5c1.9,0,3.8,0.3,5.6,1
		c0.8,0.3,1.5,0.6,2.1,1.1c-0.8,1.8-1.3,3.7-1.4,5.7l-0.9,0.8c-1.4-1.9-3.2-2.9-5.6-2.9c-0.9,0-1.9,0.2-2.8,0.7
		c-0.9,0.5-1.4,1.2-1.4,2.3c0,0.9,0.4,1.5,1.1,1.9c0.8,0.4,1.7,0.7,2.8,1c1.1,0.3,2.4,0.6,3.7,0.9c1.2,0.3,2.4,0.7,3.4,1.2
		c0.4,1.7,1.1,3.3,2.1,4.7l-0.8,0.8c-2.6,2.4-3.4,6.1-2.2,9.3c-0.8,0.4-1.8,0.7-2.7,0.9c-1.5,0.3-2.9,0.5-4.4,0.5
		c-2.2,0-4.2-0.3-6.1-0.9c-1.3-0.4-2.5-1.1-3.6-2.1c0.4-0.7,0.8-1.5,1.2-2.3c0.3-0.8,0.6-1.5,0.9-2.3l1.3-1.2c0.9,1,1.9,1.9,2.9,2.5
		c1,0.7,2.3,1,3.8,1c0.5,0,1-0.1,1.6-0.2c0.6-0.1,1.1-0.3,1.5-0.6c0.5-0.3,0.9-0.6,1.2-1c0.3-0.4,0.4-0.9,0.4-1.5
		C169.3,42.7,168.9,41.9,168.1,41.4z M119.4,30.9c0.8-1.7,1.8-3.2,3.2-4.4c1.4-1.3,3-2.3,4.9-3c1.9-0.7,3.9-1.1,6-1.1
		c2.1,0,4.1,0.4,6,1.1c1.9,0.7,3.5,1.7,4.9,3c0.4,0.4,0.9,0.9,1.2,1.4c-0.2,1.2-0.4,2.4-0.4,3.7c0,3.6,0.9,6.7,2.7,9.2l-0.8,0.8
		c-1.9,1.8-2.8,4.2-2.7,6.6c-1.4,1.3-3,2.3-4.9,3c-1.9,0.7-3.9,1.1-6,1.1c-2.1,0-4.1-0.4-6-1.1c-1.9-0.7-3.5-1.7-4.9-3
		c-1.3-1.2-2.4-2.7-3.2-4.4V30.9z M72.9,9.6h9.9l20.3,31.2h0.1V9.6h7.5v19.7c-0.9,2.5-1.4,5.2-1.4,8c0,2.8,0.5,5.5,1.4,8v6.2h-9.5
		L80.5,19.3h-0.1v32.2h-7.5V9.6z M33.5,31.4l30-13.3v6.5l-20,8.9l20,8.9V49l-30-13.3V31.4z"/>
	<path class="st0" d="M127.3,43.2c0.7,0.8,1.6,1.4,2.6,1.9c1,0.5,2.2,0.7,3.5,0.7c1.3,0,2.5-0.2,3.5-0.7c1-0.5,1.9-1.1,2.6-1.9
		c0.7-0.8,1.3-1.7,1.7-2.7c0.4-1,0.6-2.1,0.6-3.2c0-1.1-0.2-2.2-0.6-3.2c-0.4-1-0.9-1.9-1.7-2.7c-0.7-0.8-1.6-1.4-2.6-1.9
		c-1-0.5-2.2-0.7-3.5-0.7c-1.3,0-2.5,0.2-3.5,0.7c-1,0.5-1.9,1.1-2.6,1.9c-0.7,0.8-1.3,1.7-1.7,2.7c-0.4,1-0.6,2.1-0.6,3.2
		c0,1.1,0.2,2.2,0.6,3.2C126,41.5,126.6,42.4,127.3,43.2z"/>
	<path class="st0" d="M216.1,43.2c0.7,0.8,1.6,1.4,2.6,1.9c1,0.5,2.2,0.7,3.5,0.7c1.3,0,2.5-0.2,3.5-0.7c1-0.5,1.9-1.1,2.6-1.9
		c0.7-0.8,1.3-1.7,1.7-2.7c0.4-1,0.6-2.1,0.6-3.2c0-1.1-0.2-2.2-0.6-3.2c-0.4-1-0.9-1.9-1.7-2.7c-0.7-0.8-1.6-1.4-2.6-1.9
		c-1-0.5-2.2-0.7-3.5-0.7c-1.3,0-2.5,0.2-3.5,0.7c-1,0.5-1.9,1.1-2.6,1.9c-0.7,0.8-1.3,1.7-1.7,2.7c-0.4,1-0.6,2.1-0.6,3.2
		c0,1.1,0.2,2.2,0.6,3.2C214.8,41.5,215.4,42.4,216.1,43.2z"/>
	<path class="st0" d="M39.6,95.1c0-0.1-0.1-0.1-0.1-0.2v-7.2H29c-1.3-0.2-2.6-0.3-4-0.3h-6.8v28.4h5.6c2.3,0,4.5-0.3,6.6-0.8
		c2.1-0.5,3.9-1.4,5.4-2.5c1.4-1,2.5-2.3,3.3-3.8h0.3v-0.6c0.9-1.8,1.3-3.9,1.3-6.4C40.7,99.1,40.3,97,39.6,95.1z"/>
	<path class="st0" d="M104.3,98.8c-2.1,0-3.8,0.6-5.1,1.8c-1.2,1.2-2,2.9-2.3,4.9h14.6c0-2.1-0.7-3.7-2-4.9
		C108.3,99.4,106.6,98.8,104.3,98.8z"/>
	<path class="st0" d="M160.3,98.8c-2.1,0-3.8,0.6-5.1,1.8c-1.2,1.2-2,2.9-2.3,4.9h14.6c0-2.1-0.7-3.7-2-4.9
		C164.4,99.4,162.6,98.8,160.3,98.8z"/>
	<path class="st0" d="M271.9,110c-1.2,0.1-2.4,0.3-3.5,0.6c-1.1,0.3-2,0.7-2.8,1.3c-0.8,0.6-1.1,1.4-1.1,2.4c0,0.7,0.1,1.2,0.4,1.7
		c0.3,0.5,0.7,0.8,1.2,1.2c0.5,0.3,1,0.5,1.6,0.7c0.6,0.1,1.2,0.2,1.8,0.2c2.4,0,4.3-0.6,5.4-1.7c1.2-1.2,1.7-2.8,1.7-4.8v-1.6h-1.5
		C274.2,109.9,273.1,109.9,271.9,110z"/>
	<path class="st0" d="M333.3,104.9c-0.2-0.3-0.5-0.6-0.7-1c3-3,3.4-7.7,0.9-11.2c-2.2-3-5.1-5.2-8.6-6.4c-2.8-1-5.6-1.5-8.5-1.5
		c-2.1,0-4.3,0.3-6.4,0.8c-0.7,0.2-1.4,0.4-2.1,0.7c0.1-0.6,0.1-1.2,0.1-1.8c0-3.6-1.5-7-4.2-9.4c-2.5-2.3-5.6-3.5-9.1-3.5
		c-3.6,0-6.9,1.3-9.3,3.8c-2.5,2.5-3.8,5.7-3.8,9.1c0,0.9,0.1,1.7,0.3,2.5c-0.9-0.4-1.8-0.8-2.7-1.1c-2.3-0.8-4.8-1.1-7.8-1.1
		c-3.2,0-6.3,0.5-9.3,1.5c-0.5,0.2-1,0.4-1.5,0.6c0.1-0.8,0.2-1.6,0.2-2.4c0-3.6-1.5-7-4.2-9.4c-2.5-2.3-5.6-3.5-9.1-3.5
		c-3.6,0-6.9,1.3-9.3,3.8c-2.5,2.5-3.8,5.7-3.8,9.1c0,0.3,0,0.6,0.1,0.9c-1.7-0.4-3.4-0.6-5-0.6c-3.2,0-6.2,0.5-9.1,1.6
		c-3,1.1-5.6,2.7-7.8,4.8c-0.2,0.2-0.4,0.4-0.5,0.6c-0.1-0.1-0.2-0.2-0.3-0.4c-1.6-2-3.7-3.7-6.2-4.9c-2.5-1.2-5.4-1.8-8.6-1.8
		c-2.4,0-4.6,0.3-6.5,1c-0.7-0.2-1.5-0.3-2.3-0.3h-6.8c-2.8,0-5.3,1.4-6.9,3.5c-1.3-1-2.7-1.8-4.3-2.5c-2.7-1.1-5.7-1.7-8.8-1.7
		c-3.2,0-6.2,0.5-9.1,1.6c-1,0.4-1.9,0.8-2.7,1.2c-1-1-2.3-1.8-3.7-2.1c-0.6-0.2-1.3-0.3-1.9-0.4c-1-0.2-1.9-0.3-2.9-0.3
		c-2.2,0-4.3,0.3-6.2,1c-0.7-0.2-1.5-0.3-2.3-0.3h-7.1c-2.8,0-5.3,1.4-6.9,3.5c-1.3-1-2.7-1.8-4.3-2.5c-2.7-1.1-5.7-1.7-8.8-1.7
		c-3.2,0-6.2,0.5-9.1,1.6c-0.2,0.1-0.4,0.2-0.6,0.3c0.3-0.8,0.5-1.6,0.6-2.5l0.5-6c0.3-4.4-2.6-8.3-6.9-9.2c-1.9-0.4-4-0.6-6.2-0.6
		c-3.5,0-6.4,0.5-8.9,1.7c-2.7,1.2-4.9,3-6.6,5.3c-0.1-0.1-0.2-0.2-0.4-0.4c-2.5-2.3-5.6-3.5-9.1-3.5c-3.6,0-6.9,1.3-9.3,3.8
		c-1,1-1.8,2.1-2.4,3.3c-2.7-2.2-5.7-3.8-9-4.9c-3.4-1.1-7-1.7-10.7-1.7H10.7c-4.8,0-8.6,3.9-8.6,8.6v42c0,4.8,3.9,8.6,8.6,8.6h15.6
		c3.4,0,6.9-0.6,10.4-1.7c3.6-1.2,6.9-3,9.9-5.3c0,0,0,0,0,0c0.8,4,4.3,7,8.5,7h7.1c2,0,3.9-0.7,5.4-1.9c1.5,1.2,3.3,1.9,5.4,1.9
		h7.1c3.8,0,7-2.5,8.2-5.9c0.1,0.1,0.1,0.1,0.2,0.2c2.2,2.1,4.8,3.7,7.8,4.8c2.9,1.1,5.9,1.6,9.1,1.6c3.4,0,6.7-0.7,9.8-2
		c1.2-0.5,2.4-1.1,3.5-1.9c1.6,1.9,4,3.2,6.7,3.2h7.1c4.8,0,8.6-3.9,8.6-8.6v-1.2c1,1.5,2.1,2.9,3.4,4.1c2.2,2.1,4.8,3.7,7.8,4.8
		c2.9,1.1,5.9,1.6,9.1,1.6c3.4,0,6.7-0.7,9.8-2c1.2-0.5,2.4-1.1,3.5-1.9c1.6,1.9,4,3.2,6.7,3.2h7.1c2.3,0,4.3-0.9,5.9-2.3
		c1.5,1.4,3.6,2.3,5.9,2.3h7.1c3.1,0,5.8-1.6,7.3-4c1.7,1.3,3.6,2.3,5.7,3.1c2.9,1.1,5.9,1.6,9.1,1.6c1.1,0,2.3-0.1,3.6-0.3
		c1.3-0.2,2.7-0.6,4.1-1c0.7-0.2,1.4-0.5,2.1-0.8c1.4,0.9,3,1.4,4.8,1.4h7.1c2.2,0,4.2-0.8,5.7-2.2c1.4,0.9,3,1.6,4.7,2
		c2,0.6,4.1,0.9,6.2,0.9c2.4,0,4.7-0.4,6.8-1.1c0.8,0.2,1.6,0.4,2.5,0.4h6.4c1.4,0,2.7-0.3,3.9-0.9c1.2,0.6,2.5,0.9,3.9,0.9h7.1
		c2,0,3.8-0.7,5.3-1.8c0.8,0.4,1.7,0.8,2.6,1.1c2.8,0.9,5.7,1.4,8.9,1.4c2.1,0,4.2-0.2,6.2-0.7c2.4-0.5,4.6-1.4,6.6-2.6
		c2.3-1.4,4.2-3.3,5.7-5.6c1.6-2.6,2.4-5.5,2.4-8.9C336,110.6,335.1,107.4,333.3,104.9z M46.5,94.2V111c-1.4,2.6-3.1,4.8-5.3,6.5
		c-2.2,1.7-4.5,3-7.2,3.9c-2.6,0.9-5.2,1.3-7.7,1.3H10.7v-42h16.5c2.8,0,5.4,0.4,8,1.3c2.6,0.9,4.8,2.1,6.8,3.9
		c1.9,1.7,3.5,3.9,4.7,6.4C46.6,92.9,46.5,93.5,46.5,94.2z M62.3,122.6h-7.1v-9.8c1.4-3.4,2.1-7.1,2.1-11.2c0-2.6-0.3-5.1-0.8-7.5
		h2.1v6c0,3,1.5,5.6,3.8,7.1V122.6z M62.5,86.9c-0.6,0.4-1.2,0.9-1.7,1.4c-0.6,0.3-1.4,0.5-2.2,0.5c-1.3,0-2.4-0.4-3.2-1.3
		c-0.9-0.8-1.3-1.8-1.3-3c0-1.1,0.4-2.1,1.3-3c0.8-0.8,1.9-1.3,3.2-1.3c1.3,0,2.4,0.4,3.3,1.2c0.9,0.8,1.3,1.8,1.3,3.1
		C63.3,85.4,63,86.2,62.5,86.9z M87.6,83.6c-0.5-0.1-1-0.2-1.5-0.3c-0.5-0.1-1-0.1-1.5-0.1c-1,0-1.8,0.2-2.4,0.5
		c-0.6,0.3-1.1,0.7-1.4,1.3c-0.3,0.5-0.6,1.2-0.7,1.9c-0.1,0.7-0.1,1.5-0.1,2.3v5.2h5.8c-1.1,1.4-2,2.9-2.7,4.6
		c-0.2,0.5-0.4,1-0.5,1.4h-2.5v22.4H73v-22.4h-2.1v-6H73v-4c0-2,0.1-3.8,0.4-5.4c0.3-1.6,0.8-3,1.6-4.1c0.8-1.1,1.8-2,3.2-2.6
		c1.4-0.6,3.2-0.9,5.4-0.9c1.6,0,3.1,0.1,4.5,0.4L87.6,83.6z M116.7,110.9H97c0.2,2.1,1.1,3.8,2.5,5c1.4,1.2,3.1,1.8,5.2,1.8
		c1.8,0,3.3-0.4,4.5-1.1c1.2-0.7,2.3-1.6,3.2-2.8l4.4,3.3v1.3c-1.5,1.6-3.1,2.9-4.9,3.6c-2.1,0.9-4.2,1.3-6.5,1.3
		c-2.1,0-4.1-0.4-6-1.1c-1.9-0.7-3.5-1.7-4.9-3c-1.4-1.3-2.5-2.9-3.3-4.7c-0.8-1.8-1.2-3.9-1.2-6.1c0-0.1,0-0.1,0-0.2
		c3.2-1.3,5.4-4.4,5.4-8v-3.5c1.2-0.9,2.5-1.7,4-2.2c1.9-0.7,3.9-1.1,6-1.1c2,0,3.8,0.3,5.4,1c1.6,0.7,3,1.7,4.2,3
		c0.6,0.7,1.2,1.6,1.7,2.5V110.9z M139.2,98.8c-0.2,0.5-0.4,1-0.6,1.5c-1,0.1-1.8,0.4-2.5,0.8c-1,0.6-1.8,1.3-2.3,2.1
		c-0.5,0.8-0.9,1.6-1.1,2.4c-0.2,0.8-0.3,1.4-0.3,1.8v15.2h-7.1v-1.6c0.6-1.4,0.8-2.9,0.6-4.4c0-0.3-0.1-0.6-0.1-0.8
		c1-1.4,1.5-3.1,1.5-4.9v-2c0-3.4-0.5-6.6-1.4-9.4c-0.2-0.5-0.4-1-0.6-1.4v-3.9h7.1v4.5h0.1c0.8-1.7,1.9-2.9,3.4-3.9
		c1.5-0.9,3.1-1.4,5-1.4c0.4,0,0.9,0,1.3,0.1c0,0,0.1,0,0.1,0C141.1,95.2,140,96.9,139.2,98.8z M172.7,110.9H153
		c0.2,2.1,1.1,3.8,2.5,5c1.4,1.2,3.1,1.8,5.2,1.8c1.8,0,3.3-0.4,4.5-1.1c1.2-0.7,2.3-1.6,3.2-2.8l4.4,3.3v1.3
		c-1.5,1.6-3.1,2.9-4.9,3.6c-2.1,0.9-4.2,1.3-6.5,1.3c-2.1,0-4.1-0.4-6-1.1c-1.9-0.7-3.5-1.7-4.9-3c-1.4-1.3-2.5-2.9-3.3-4.7
		c-0.7-1.7-1.1-3.5-1.2-5.5c1-0.3,2-0.8,2.9-1.4c2.1-1.6,3.4-4.2,3.4-6.9v-4.6c1-0.6,2-1.2,3.2-1.6c1.9-0.7,3.9-1.1,6-1.1
		c2,0,3.8,0.3,5.4,1c1.6,0.7,3,1.7,4.2,3c0.6,0.7,1.2,1.6,1.7,2.5V110.9z M207.3,122.6h-7.1v-14.4c0-0.8,0-1.7-0.1-2.6
		c-0.1-1-0.3-1.9-0.6-2.7c-0.3-0.8-0.9-1.6-1.6-2.1c-0.7-0.6-1.7-0.9-2.9-0.9c-1.2,0-2.2,0.2-3,0.6c-0.8,0.4-1.5,0.9-2,1.6
		c-0.5,0.7-0.9,1.4-1.2,2.3c-0.2,0.9-0.4,1.8-0.4,2.7v15.5h-7.1v-1.6c0.6-1.4,0.8-2.9,0.6-4.4c0-0.3-0.1-0.6-0.1-0.8
		c1-1.4,1.5-3.1,1.5-4.9v-2c0-3.4-0.5-6.6-1.4-9.4c-0.2-0.5-0.4-1-0.6-1.4v-3.9h6.8v4.6h0.1c0.7-1.4,1.7-2.7,3.1-3.7
		c1.4-1,3.3-1.6,5.6-1.6c1.9,0,3.5,0.3,4.8,0.9c1.3,0.6,2.4,1.5,3.2,2.5c0.8,1,1.3,2.1,1.7,3.3c-0.9,2.5-1.4,5.3-1.4,8.2
		c0,3.4,0.7,6.7,2,9.6c0,0,0,0.1,0.1,0.1V122.6z M235.4,102.1l-0.6,0.6c-0.8-0.9-1.7-1.6-2.6-2.1c-0.9-0.5-1.8-0.8-2.8-0.8
		c-1.3,0-2.5,0.2-3.5,0.7c-1,0.5-1.9,1.1-2.6,1.9c-0.7,0.8-1.3,1.7-1.7,2.7c-0.4,1-0.6,2.1-0.6,3.2c0,1.1,0.2,2.2,0.6,3.2
		c0.4,1,0.9,1.9,1.7,2.7c0.7,0.8,1.6,1.4,2.6,1.9c1,0.5,2.2,0.7,3.5,0.7c1.1,0,2.1-0.2,3.1-0.7c0.9-0.5,1.8-1.1,2.4-2l0.5,0.5v7.3
		c-0.3,0.1-0.7,0.3-1,0.4c-0.9,0.3-1.9,0.5-2.7,0.7c-0.9,0.1-1.6,0.2-2.3,0.2c-2.1,0-4.1-0.4-6-1.1c-1.9-0.7-3.5-1.7-4.9-3
		c-1-0.9-1.8-2-2.5-3.2v-11.4c0-1.2-0.1-2.4-0.2-3.5c0.7-1.4,1.6-2.6,2.7-3.6c1.4-1.3,3-2.3,4.9-3c1.9-0.7,3.9-1.1,6-1.1
		c1.8,0,3.6,0.3,5.5,1c0.2,0.1,0.3,0.2,0.5,0.2V102.1z M251.1,95.1c-0.7,1.9-0.7,4,0,5.9v4.9c-0.2,0.3-0.4,0.7-0.6,1
		c-1.2,2.3-1.8,5-1.8,7.9c0,2.9,0.7,5.5,1.9,7.8h-3.1c1.2-3,0.7-6.6-1.7-9.1l-1.9-2.1v-5.7l1.8-1.8c2.6-2.6,3.2-6.5,1.7-9.7h3.6
		V95.1z M250.8,87.6c-0.9,0.8-2,1.2-3.3,1.2c-1.3,0-2.4-0.4-3.2-1.3c-0.9-0.8-1.3-1.8-1.3-3c0-1.1,0.4-2.1,1.3-3
		c0.8-0.8,1.9-1.3,3.2-1.3c1.3,0,2.4,0.4,3.3,1.2c0.9,0.8,1.3,1.8,1.3,3.1C252.1,85.8,251.7,86.8,250.8,87.6z M282.6,122.6h-5.5
		v-3.9h-0.2c-1,1.6-2.3,2.8-3.9,3.5c-1.6,0.7-3.3,1.1-5.2,1.1c-1.3,0-2.6-0.2-3.8-0.5c-1.2-0.4-2.4-0.9-3.3-1.6
		c-0.3-0.2-0.6-0.5-0.9-0.7v-11.7c0.2-0.2,0.4-0.4,0.7-0.6c0.9-0.7,2-1.3,3.2-1.7c1.2-0.4,2.5-0.8,3.8-1c1.3-0.2,2.7-0.4,4-0.4
		c1.3-0.1,2.6-0.1,3.8-0.1h1.8v-0.8c0-1.8-0.6-3.1-1.8-4c-1.2-0.9-2.8-1.3-4.7-1.3c-1.5,0-2.9,0.3-4.2,0.8s-2.4,1.3-3.4,2.2
		l-3.2-3.2v-1c1.5-1.4,3.1-2.4,5-3c2.1-0.7,4.3-1.1,6.5-1.1c2,0,3.7,0.2,5.1,0.7c1.4,0.5,2.5,1,3.4,1.7c0.9,0.7,1.6,1.5,2.1,2.5
		c0.2,0.5,0.5,0.9,0.6,1.4V122.6z M298.4,94.3C298.4,94.3,298.3,94.3,298.4,94.3c-1.4,2.5-2.1,5.3-2.1,8.4c0,3.2,0.7,6,2.1,8.4v1.4
		l-0.3,0.3c-2.8,2.6-3.5,6.7-1.9,10h-4v-16.4c0-0.8,0-1.7-0.1-2.7c-0.1-1.4-0.3-2.9-0.6-4.3c-0.1-0.3-0.1-0.5-0.2-0.8v-4.2
		L298.4,94.3L298.4,94.3z M298,87.6c-0.9,0.8-2,1.2-3.3,1.2c-1.3,0-2.4-0.4-3.2-1.3c-0.9-0.8-1.3-1.8-1.3-3c0-1.1,0.4-2.1,1.3-3
		c0.8-0.8,1.9-1.3,3.2-1.3c1.3,0,2.4,0.4,3.3,1.2c0.9,0.8,1.3,1.8,1.3,3.1C299.4,85.8,298.9,86.8,298,87.6z M326.3,118.5
		c-0.7,1.2-1.7,2.1-2.8,2.8c-1.2,0.7-2.5,1.2-3.9,1.5s-2.9,0.5-4.4,0.5c-2.2,0-4.2-0.3-6.1-0.9c-0.7-0.2-1.3-0.6-2-0.9v-5.3l1.7-1.6
		c0.9,1,1.9,1.9,2.9,2.5c1,0.7,2.3,1,3.8,1c0.5,0,1-0.1,1.6-0.2c0.6-0.1,1.1-0.3,1.5-0.6c0.5-0.3,0.9-0.6,1.2-1
		c0.3-0.4,0.4-0.9,0.4-1.5c0-1-0.4-1.7-1.1-2.2c-0.8-0.5-1.7-0.9-2.8-1.2c-1.1-0.3-2.4-0.6-3.7-0.8c-1.3-0.3-2.6-0.7-3.7-1.2
		c-0.7-0.3-1.3-0.8-1.8-1.3V96.9c0.4-0.5,0.9-0.9,1.4-1.3c1.1-0.8,2.3-1.3,3.7-1.7c1.4-0.4,2.8-0.5,4.2-0.5c1.9,0,3.8,0.3,5.6,1
		c1.9,0.7,3.4,1.8,4.5,3.3l-4.7,4.3c-1.4-1.9-3.2-2.9-5.6-2.9c-0.9,0-1.9,0.2-2.8,0.7c-0.9,0.5-1.4,1.2-1.4,2.3
		c0,0.9,0.4,1.5,1.1,1.9c0.8,0.4,1.7,0.7,2.8,1c1.1,0.3,2.4,0.6,3.7,0.9c1.3,0.3,2.6,0.8,3.7,1.4c1.1,0.6,2.1,1.5,2.8,2.5
		c0.8,1.1,1.1,2.5,1.1,4.4C327.4,115.9,327,117.4,326.3,118.5z"/>
</g>
<g>
	<path class="st1" d="M33.5,35.7v-4.3l30-13.3v6.5l-20,8.9l20,8.9V49L33.5,35.7z"/>
	<path class="st1" d="M72.9,9.6h9.9l20.3,31.2h0.1V9.6h7.5v42h-9.5L80.5,19.3h-0.1v32.2h-7.5V9.6z"/>
	<path class="st1" d="M118,37.3c0-2.3,0.4-4.3,1.2-6.1c0.8-1.8,1.9-3.4,3.3-4.7c1.4-1.3,3-2.3,4.9-3c1.9-0.7,3.9-1.1,6-1.1
		c2.1,0,4.1,0.4,6,1.1c1.9,0.7,3.5,1.7,4.9,3c1.4,1.3,2.5,2.9,3.3,4.7c0.8,1.8,1.2,3.9,1.2,6.1s-0.4,4.3-1.2,6.1
		c-0.8,1.8-1.9,3.4-3.3,4.7c-1.4,1.3-3,2.3-4.9,3c-1.9,0.7-3.9,1.1-6,1.1c-2.1,0-4.1-0.4-6-1.1c-1.9-0.7-3.5-1.7-4.9-3
		c-1.4-1.3-2.5-2.9-3.3-4.7C118.4,41.6,118,39.6,118,37.3z M125.1,37.3c0,1.1,0.2,2.2,0.6,3.2c0.4,1,0.9,1.9,1.7,2.7
		c0.7,0.8,1.6,1.4,2.6,1.9c1,0.5,2.2,0.7,3.5,0.7c1.3,0,2.5-0.2,3.5-0.7c1-0.5,1.9-1.1,2.6-1.9c0.7-0.8,1.3-1.7,1.7-2.7
		c0.4-1,0.6-2.1,0.6-3.2c0-1.1-0.2-2.2-0.6-3.2c-0.4-1-0.9-1.9-1.7-2.7c-0.7-0.8-1.6-1.4-2.6-1.9c-1-0.5-2.2-0.7-3.5-0.7
		c-1.3,0-2.5,0.2-3.5,0.7c-1,0.5-1.9,1.1-2.6,1.9c-0.7,0.8-1.3,1.7-1.7,2.7C125.3,35.1,125.1,36.2,125.1,37.3z"/>
	<path class="st1" d="M170.7,31c-1.4-1.9-3.2-2.9-5.6-2.9c-0.9,0-1.9,0.2-2.8,0.7c-0.9,0.5-1.4,1.2-1.4,2.3c0,0.9,0.4,1.5,1.1,1.9
		c0.8,0.4,1.7,0.7,2.8,1c1.1,0.3,2.4,0.6,3.7,0.9c1.3,0.3,2.6,0.8,3.7,1.4c1.1,0.6,2.1,1.5,2.8,2.5c0.8,1.1,1.1,2.5,1.1,4.4
		c0,1.7-0.4,3.1-1.1,4.3c-0.7,1.2-1.7,2.1-2.8,2.8c-1.2,0.7-2.5,1.2-3.9,1.5c-1.5,0.3-2.9,0.5-4.4,0.5c-2.2,0-4.2-0.3-6.1-0.9
		c-1.9-0.6-3.5-1.8-5-3.4l4.7-4.4c0.9,1,1.9,1.9,2.9,2.5c1,0.7,2.3,1,3.8,1c0.5,0,1-0.1,1.6-0.2c0.6-0.1,1.1-0.3,1.5-0.6
		c0.5-0.3,0.9-0.6,1.2-1c0.3-0.4,0.4-0.9,0.4-1.5c0-1-0.4-1.7-1.1-2.2c-0.8-0.5-1.7-0.9-2.8-1.2c-1.1-0.3-2.4-0.6-3.7-0.8
		c-1.3-0.3-2.6-0.7-3.7-1.2c-1.1-0.6-2.1-1.4-2.8-2.4c-0.8-1-1.1-2.4-1.1-4.3c0-1.6,0.3-3,1-4.1c0.7-1.2,1.5-2.1,2.6-2.9
		c1.1-0.8,2.3-1.3,3.7-1.7c1.4-0.4,2.8-0.5,4.2-0.5c1.9,0,3.8,0.3,5.6,1c1.9,0.7,3.4,1.8,4.5,3.3L170.7,31z"/>
	<path class="st1" d="M197.1,31c-1.4-1.9-3.2-2.9-5.6-2.9c-0.9,0-1.9,0.2-2.8,0.7c-0.9,0.5-1.4,1.2-1.4,2.3c0,0.9,0.4,1.5,1.1,1.9
		c0.8,0.4,1.7,0.7,2.8,1c1.1,0.3,2.4,0.6,3.7,0.9c1.3,0.3,2.6,0.8,3.7,1.4c1.1,0.6,2.1,1.5,2.8,2.5c0.8,1.1,1.1,2.5,1.1,4.4
		c0,1.7-0.4,3.1-1.1,4.3c-0.7,1.2-1.7,2.1-2.8,2.8c-1.2,0.7-2.5,1.2-3.9,1.5c-1.5,0.3-2.9,0.5-4.4,0.5c-2.2,0-4.2-0.3-6.1-0.9
		c-1.9-0.6-3.5-1.8-5-3.4l4.7-4.4c0.9,1,1.9,1.9,2.9,2.5c1,0.7,2.3,1,3.8,1c0.5,0,1-0.1,1.6-0.2c0.6-0.1,1.1-0.3,1.5-0.6
		c0.5-0.3,0.9-0.6,1.2-1c0.3-0.4,0.4-0.9,0.4-1.5c0-1-0.4-1.7-1.1-2.2c-0.8-0.5-1.7-0.9-2.8-1.2c-1.1-0.3-2.4-0.6-3.7-0.8
		c-1.3-0.3-2.6-0.7-3.7-1.2c-1.1-0.6-2.1-1.4-2.8-2.4c-0.8-1-1.1-2.4-1.1-4.3c0-1.6,0.3-3,1-4.1c0.7-1.2,1.5-2.1,2.6-2.9
		c1.1-0.8,2.3-1.3,3.7-1.7c1.4-0.4,2.8-0.5,4.2-0.5c1.9,0,3.8,0.3,5.6,1c1.9,0.7,3.4,1.8,4.5,3.3L197.1,31z"/>
	<path class="st1" d="M206.8,37.3c0-2.3,0.4-4.3,1.2-6.1c0.8-1.8,1.9-3.4,3.3-4.7c1.4-1.3,3-2.3,4.9-3c1.9-0.7,3.9-1.1,6-1.1
		c2.1,0,4.1,0.4,6,1.1c1.9,0.7,3.5,1.7,4.9,3c1.4,1.3,2.5,2.9,3.3,4.7c0.8,1.8,1.2,3.9,1.2,6.1s-0.4,4.3-1.2,6.1
		c-0.8,1.8-1.9,3.4-3.3,4.7c-1.4,1.3-3,2.3-4.9,3c-1.9,0.7-3.9,1.1-6,1.1c-2.1,0-4.1-0.4-6-1.1c-1.9-0.7-3.5-1.7-4.9-3
		c-1.4-1.3-2.5-2.9-3.3-4.7C207.2,41.6,206.8,39.6,206.8,37.3z M213.9,37.3c0,1.1,0.2,2.2,0.6,3.2c0.4,1,0.9,1.9,1.7,2.7
		c0.7,0.8,1.6,1.4,2.6,1.9c1,0.5,2.2,0.7,3.5,0.7c1.3,0,2.5-0.2,3.5-0.7c1-0.5,1.9-1.1,2.6-1.9c0.7-0.8,1.3-1.7,1.7-2.7
		c0.4-1,0.6-2.1,0.6-3.2c0-1.1-0.2-2.2-0.6-3.2c-0.4-1-0.9-1.9-1.7-2.7c-0.7-0.8-1.6-1.4-2.6-1.9c-1-0.5-2.2-0.7-3.5-0.7
		c-1.3,0-2.5,0.2-3.5,0.7c-1,0.5-1.9,1.1-2.6,1.9c-0.7,0.8-1.3,1.7-1.7,2.7C214.1,35.1,213.9,36.2,213.9,37.3z"/>
	<path class="st1" d="M259.5,31c-1.4-1.9-3.2-2.9-5.6-2.9c-0.9,0-1.9,0.2-2.8,0.7c-0.9,0.5-1.4,1.2-1.4,2.3c0,0.9,0.4,1.5,1.1,1.9
		c0.8,0.4,1.7,0.7,2.8,1c1.1,0.3,2.4,0.6,3.7,0.9c1.3,0.3,2.6,0.8,3.7,1.4c1.1,0.6,2.1,1.5,2.8,2.5c0.8,1.1,1.1,2.5,1.1,4.4
		c0,1.7-0.4,3.1-1.1,4.3c-0.7,1.2-1.7,2.1-2.8,2.8c-1.2,0.7-2.5,1.2-3.9,1.5c-1.5,0.3-2.9,0.5-4.4,0.5c-2.2,0-4.2-0.3-6.1-0.9
		c-1.9-0.6-3.5-1.8-5-3.4l4.7-4.4c0.9,1,1.9,1.9,2.9,2.5c1,0.7,2.3,1,3.8,1c0.5,0,1-0.1,1.6-0.2c0.6-0.1,1.1-0.3,1.5-0.6
		c0.5-0.3,0.9-0.6,1.2-1c0.3-0.4,0.4-0.9,0.4-1.5c0-1-0.4-1.7-1.1-2.2c-0.8-0.5-1.7-0.9-2.8-1.2c-1.1-0.3-2.4-0.6-3.7-0.8
		c-1.3-0.3-2.6-0.7-3.7-1.2c-1.1-0.6-2.1-1.4-2.8-2.4c-0.8-1-1.1-2.4-1.1-4.3c0-1.6,0.3-3,1-4.1c0.7-1.2,1.5-2.1,2.6-2.9
		c1.1-0.8,2.3-1.3,3.7-1.7c1.4-0.4,2.8-0.5,4.2-0.5c1.9,0,3.8,0.3,5.6,1c1.9,0.7,3.4,1.8,4.5,3.3L259.5,31z"/>
	<path class="st1" d="M301.4,31.4v4.3l-30,13.3v-6.5l20-8.9l-20-8.9v-6.5L301.4,31.4z"/>
	<path class="st1" d="M10.7,80.7h16.5c2.8,0,5.4,0.4,8,1.3c2.6,0.9,4.8,2.1,6.8,3.9c2,1.7,3.6,3.9,4.7,6.5c1.2,2.6,1.8,5.7,1.8,9.3
		c0,3.6-0.7,6.7-2,9.3c-1.4,2.6-3.1,4.8-5.3,6.5c-2.2,1.7-4.5,3-7.2,3.9c-2.6,0.9-5.2,1.3-7.7,1.3H10.7V80.7z M23.7,115.9
		c2.3,0,4.5-0.3,6.6-0.8c2.1-0.5,3.9-1.4,5.4-2.5c1.5-1.1,2.8-2.6,3.6-4.4c0.9-1.8,1.3-4,1.3-6.5c0-2.5-0.4-4.7-1.2-6.5
		c-0.8-1.8-1.9-3.3-3.3-4.4c-1.4-1.1-3.1-2-5-2.5c-1.9-0.5-4-0.8-6.3-0.8h-6.8v28.4H23.7z"/>
	<path class="st1" d="M54.1,84.5c0-1.1,0.4-2.1,1.3-3c0.8-0.8,1.9-1.3,3.2-1.3c1.3,0,2.4,0.4,3.3,1.2c0.9,0.8,1.3,1.8,1.3,3.1
		c0,1.2-0.4,2.2-1.3,3.1c-0.9,0.8-2,1.2-3.3,1.2c-1.3,0-2.4-0.4-3.2-1.3C54.6,86.7,54.1,85.7,54.1,84.5z M55.1,94.2h7.1v28.4h-7.1
		V94.2z"/>
	<path class="st1" d="M73,100.2h-5.9v-6H73v-4c0-2,0.1-3.8,0.4-5.4c0.3-1.6,0.8-3,1.6-4.1c0.8-1.1,1.8-2,3.2-2.6
		c1.4-0.6,3.2-0.9,5.4-0.9c1.6,0,3.1,0.1,4.5,0.4l-0.5,6c-0.5-0.1-1-0.2-1.5-0.3c-0.5-0.1-1-0.1-1.5-0.1c-1,0-1.8,0.2-2.4,0.5
		c-0.6,0.3-1.1,0.7-1.4,1.3c-0.3,0.5-0.6,1.2-0.7,1.9c-0.1,0.7-0.1,1.5-0.1,2.3v5.2h6.6v6h-6.6v22.4H73V100.2z"/>
	<path class="st1" d="M97,110.9c0.2,2.1,1.1,3.8,2.5,5c1.4,1.2,3.1,1.8,5.2,1.8c1.8,0,3.3-0.4,4.5-1.1c1.2-0.7,2.3-1.6,3.2-2.8
		l5.1,3.9c-1.7,2.1-3.5,3.5-5.6,4.4c-2.1,0.9-4.2,1.3-6.5,1.3c-2.1,0-4.1-0.4-6-1.1c-1.9-0.7-3.5-1.7-4.9-3
		c-1.4-1.3-2.5-2.9-3.3-4.7c-0.8-1.8-1.2-3.9-1.2-6.1s0.4-4.3,1.2-6.1c0.8-1.8,1.9-3.4,3.3-4.7c1.4-1.3,3-2.3,4.9-3
		c1.9-0.7,3.9-1.1,6-1.1c2,0,3.8,0.3,5.4,1c1.6,0.7,3,1.7,4.2,3c1.2,1.3,2.1,2.9,2.7,4.8c0.7,1.9,1,4.1,1,6.6v2H97z M111.6,105.6
		c0-2.1-0.7-3.7-2-4.9c-1.3-1.2-3-1.8-5.3-1.8c-2.1,0-3.8,0.6-5.1,1.8c-1.2,1.2-2,2.9-2.3,4.9H111.6z"/>
	<path class="st1" d="M125.3,94.2h7.1v4.5h0.1c0.8-1.7,1.9-2.9,3.4-3.9c1.5-0.9,3.1-1.4,5-1.4c0.4,0,0.9,0,1.3,0.1
		c0.4,0.1,0.8,0.2,1.3,0.3v6.9c-0.6-0.2-1.2-0.3-1.7-0.4c-0.6-0.1-1.1-0.1-1.7-0.1c-1.7,0-3,0.3-4,0.9c-1,0.6-1.8,1.3-2.3,2.1
		c-0.5,0.8-0.9,1.6-1.1,2.4c-0.2,0.8-0.3,1.4-0.3,1.8v15.2h-7.1V94.2z"/>
	<path class="st1" d="M153,110.9c0.2,2.1,1.1,3.8,2.5,5c1.4,1.2,3.1,1.8,5.2,1.8c1.8,0,3.3-0.4,4.5-1.1c1.2-0.7,2.3-1.6,3.2-2.8
		l5.1,3.9c-1.7,2.1-3.5,3.5-5.6,4.4c-2.1,0.9-4.2,1.3-6.5,1.3c-2.1,0-4.1-0.4-6-1.1c-1.9-0.7-3.5-1.7-4.9-3
		c-1.4-1.3-2.5-2.9-3.3-4.7c-0.8-1.8-1.2-3.9-1.2-6.1s0.4-4.3,1.2-6.1c0.8-1.8,1.9-3.4,3.3-4.7c1.4-1.3,3-2.3,4.9-3
		c1.9-0.7,3.9-1.1,6-1.1c2,0,3.8,0.3,5.4,1c1.6,0.7,3,1.7,4.2,3c1.2,1.3,2.1,2.9,2.7,4.8c0.7,1.9,1,4.1,1,6.6v2H153z M167.6,105.6
		c0-2.1-0.7-3.7-2-4.9c-1.3-1.2-3-1.8-5.3-1.8c-2.1,0-3.8,0.6-5.1,1.8c-1.2,1.2-2,2.9-2.3,4.9H167.6z"/>
	<path class="st1" d="M181.3,94.2h6.8v4.6h0.1c0.7-1.4,1.7-2.7,3.1-3.7c1.4-1,3.3-1.6,5.6-1.6c1.9,0,3.5,0.3,4.8,0.9
		c1.3,0.6,2.4,1.5,3.2,2.5c0.8,1,1.4,2.2,1.8,3.6c0.4,1.3,0.5,2.7,0.5,4.2v18h-7.1v-14.4c0-0.8,0-1.7-0.1-2.6
		c-0.1-1-0.3-1.9-0.6-2.7c-0.3-0.8-0.9-1.6-1.6-2.1c-0.7-0.6-1.7-0.9-2.9-0.9c-1.2,0-2.2,0.2-3,0.6c-0.8,0.4-1.5,0.9-2,1.6
		c-0.5,0.7-0.9,1.4-1.2,2.3c-0.2,0.9-0.4,1.8-0.4,2.7v15.5h-7.1V94.2z"/>
	<path class="st1" d="M234.8,102.7c-0.8-0.9-1.7-1.6-2.6-2.1c-0.9-0.5-1.8-0.8-2.8-0.8c-1.3,0-2.5,0.2-3.5,0.7
		c-1,0.5-1.9,1.1-2.6,1.9c-0.7,0.8-1.3,1.7-1.7,2.7c-0.4,1-0.6,2.1-0.6,3.2c0,1.1,0.2,2.2,0.6,3.2c0.4,1,0.9,1.9,1.7,2.7
		c0.7,0.8,1.6,1.4,2.6,1.9c1,0.5,2.2,0.7,3.5,0.7c1.1,0,2.1-0.2,3.1-0.7c0.9-0.5,1.8-1.1,2.4-2l4.7,5.1c-0.7,0.7-1.5,1.3-2.5,1.8
		c-0.9,0.5-1.9,0.9-2.8,1.2s-1.9,0.5-2.7,0.7c-0.9,0.1-1.6,0.2-2.3,0.2c-2.1,0-4.1-0.4-6-1.1c-1.9-0.7-3.5-1.7-4.9-3
		c-1.4-1.3-2.5-2.9-3.3-4.7c-0.8-1.8-1.2-3.9-1.2-6.1s0.4-4.3,1.2-6.1c0.8-1.8,1.9-3.4,3.3-4.7c1.4-1.3,3-2.3,4.9-3
		c1.9-0.7,3.9-1.1,6-1.1c1.8,0,3.6,0.3,5.5,1c1.8,0.7,3.4,1.8,4.8,3.3L234.8,102.7z"/>
	<path class="st1" d="M243,84.5c0-1.1,0.4-2.1,1.3-3c0.8-0.8,1.9-1.3,3.2-1.3c1.3,0,2.4,0.4,3.3,1.2c0.9,0.8,1.3,1.8,1.3,3.1
		c0,1.2-0.4,2.2-1.3,3.1c-0.9,0.8-2,1.2-3.3,1.2c-1.3,0-2.4-0.4-3.2-1.3C243.4,86.7,243,85.7,243,84.5z M244,94.2h7.1v28.4H244V94.2
		z"/>
	<path class="st1" d="M277.1,118.7h-0.2c-1,1.6-2.3,2.8-3.9,3.5c-1.6,0.7-3.3,1.1-5.2,1.1c-1.3,0-2.6-0.2-3.8-0.5
		c-1.2-0.4-2.4-0.9-3.3-1.6c-1-0.7-1.7-1.6-2.3-2.7c-0.6-1.1-0.9-2.3-0.9-3.7c0-1.5,0.3-2.9,0.8-3.9c0.6-1.1,1.3-2,2.2-2.7
		c0.9-0.7,2-1.3,3.2-1.7c1.2-0.4,2.5-0.8,3.8-1c1.3-0.2,2.7-0.4,4-0.4c1.3-0.1,2.6-0.1,3.8-0.1h1.8v-0.8c0-1.8-0.6-3.1-1.8-4
		c-1.2-0.9-2.8-1.3-4.7-1.3c-1.5,0-2.9,0.3-4.2,0.8s-2.4,1.3-3.4,2.2l-3.7-3.7c1.6-1.6,3.4-2.8,5.5-3.5c2.1-0.7,4.3-1.1,6.5-1.1
		c2,0,3.7,0.2,5.1,0.7c1.4,0.5,2.5,1,3.4,1.7c0.9,0.7,1.6,1.5,2.1,2.5c0.5,0.9,0.8,1.9,1.1,2.8c0.2,0.9,0.3,1.9,0.4,2.8
		c0,0.9,0.1,1.7,0.1,2.3v16.4h-6.4V118.7z M276.7,109.9h-1.5c-1,0-2.1,0-3.3,0.1c-1.2,0.1-2.4,0.3-3.5,0.6c-1.1,0.3-2,0.7-2.8,1.3
		c-0.8,0.6-1.1,1.4-1.1,2.4c0,0.7,0.1,1.2,0.4,1.7c0.3,0.5,0.7,0.8,1.2,1.2c0.5,0.3,1,0.5,1.6,0.7c0.6,0.1,1.2,0.2,1.8,0.2
		c2.4,0,4.3-0.6,5.4-1.7c1.2-1.2,1.7-2.8,1.7-4.8V109.9z"/>
	<path class="st1" d="M290.3,84.5c0-1.1,0.4-2.1,1.3-3c0.8-0.8,1.9-1.3,3.2-1.3c1.3,0,2.4,0.4,3.3,1.2c0.9,0.8,1.3,1.8,1.3,3.1
		c0,1.2-0.4,2.2-1.3,3.1c-0.9,0.8-2,1.2-3.3,1.2c-1.3,0-2.4-0.4-3.2-1.3C290.7,86.7,290.3,85.7,290.3,84.5z M291.3,94.2h7.1v28.4
		h-7.1V94.2z"/>
	<path class="st1" d="M321.7,102.1c-1.4-1.9-3.2-2.9-5.6-2.9c-0.9,0-1.9,0.2-2.8,0.7c-0.9,0.5-1.4,1.2-1.4,2.3
		c0,0.9,0.4,1.5,1.1,1.9c0.8,0.4,1.7,0.7,2.8,1c1.1,0.3,2.4,0.6,3.7,0.9c1.3,0.3,2.6,0.8,3.7,1.4c1.1,0.6,2.1,1.5,2.8,2.5
		c0.8,1.1,1.1,2.5,1.1,4.4c0,1.7-0.4,3.1-1.1,4.3c-0.7,1.2-1.7,2.1-2.8,2.8c-1.2,0.7-2.5,1.2-3.9,1.5s-2.9,0.5-4.4,0.5
		c-2.2,0-4.2-0.3-6.1-0.9c-1.9-0.6-3.5-1.8-5-3.4l4.7-4.4c0.9,1,1.9,1.9,2.9,2.5c1,0.7,2.3,1,3.8,1c0.5,0,1-0.1,1.6-0.2
		c0.6-0.1,1.1-0.3,1.5-0.6c0.5-0.3,0.9-0.6,1.2-1c0.3-0.4,0.4-0.9,0.4-1.5c0-1-0.4-1.7-1.1-2.2c-0.8-0.5-1.7-0.9-2.8-1.2
		c-1.1-0.3-2.4-0.6-3.7-0.8c-1.3-0.3-2.6-0.7-3.7-1.2c-1.1-0.6-2.1-1.4-2.8-2.4c-0.8-1-1.1-2.4-1.1-4.3c0-1.6,0.3-3,1-4.1
		c0.7-1.2,1.5-2.1,2.6-2.9c1.1-0.8,2.3-1.3,3.7-1.7c1.4-0.4,2.8-0.5,4.2-0.5c1.9,0,3.8,0.3,5.6,1c1.9,0.7,3.4,1.8,4.5,3.3
		L321.7,102.1z"/>
</g>
</svg>
