<?xml version="1.0" encoding="utf-8"?>
<!-- Generator: Adobe Illustrator 19.0.0, SVG Export Plug-In . SVG Version: 6.00 Build 0)  -->
<svg version="1.1" id="Layer_1" xmlns="http://www.w3.org/2000/svg" xmlns:xlink="http://www.w3.org/1999/xlink" x="0px" y="0px"
	 viewBox="0 0 68 67" style="enable-background:new 0 0 68 67;" xml:space="preserve">
<style type="text/css">
	.st0{fill:#FFFFFF;}
	.st1{fill:#007aff;}
</style>
<g id="XMLID_2_">
	<path id="XMLID_5_" class="st0" d="M60,36.4L34.3,59.6L8.6,36.4V18.5l12.2,9.8V7.2h27v21.1L60,18.5V36.4 M67,36.4V18.5
		c0-2.7-1.6-5.1-3.9-6.3c-2.4-1.2-5.3-0.9-7.4,0.9l-0.9,0.8V7.2c0-3.9-3.1-7-7-7h-27c-3.9,0-7,3.1-7,7v6.7l-0.9-0.8
		c-2.1-1.7-4.9-2-7.4-0.9c-2.4,1.2-3.9,3.6-3.9,6.3v17.9c0,2,0.9,3.9,2.3,5.2l25.7,23.2c2.6,2.4,6.7,2.4,9.3,0l25.7-23.2
		C66.2,40.2,67,38.4,67,36.4L67,36.4z"/>
	<g id="XMLID_3_">
		<polygon id="XMLID_4_" class="st1" points="60,36.4 60,18.5 47.9,28.3 47.9,7.1 20.9,7.1 20.9,28.3 8.6,18.5 8.6,36.4 34.3,59.6 
					"/>
	</g>
</g>
</svg>
