<svg xmlns="http://www.w3.org/2000/svg" width="86.703" height="76.594" viewBox="0 0 86.703 76.594"><defs><style>.a{fill:#abd5ff;}.b{fill:#59a1f4;}.c{fill:#00306b;}.d{fill:#fff;}</style></defs><g transform="translate(380.955 -307.499)"><circle class="a" cx="29.626" cy="29.626" r="29.626" transform="translate(-370.934 316.339)"/><path class="b" d="M-350.275,322.342a36.84,36.84,0,0,0-15.605,37.524,36.841,36.841,0,0,0,28.418,29.052A36.841,36.841,0,0,0-299.6,374.144a3.552,3.552,0,0,0,.65-2.038,3.623,3.623,0,0,0-2.532-3.457,3.623,3.623,0,0,0-4.058,1.375,29.61,29.61,0,0,1-36.226,9.873,29.61,29.61,0,0,1-16.782-33.589A29.61,29.61,0,0,1-328.9,323.27a29.61,29.61,0,0,1,28.4,24.558h-8.223a1.445,1.445,0,0,0-1.318.86,1.445,1.445,0,0,0,.248,1.554l12.284,13.007a1.445,1.445,0,0,0,1.069.473,1.445,1.445,0,0,0,1.069-.473l12.284-13.007a1.445,1.445,0,0,0,.248-1.554,1.445,1.445,0,0,0-1.318-.86h-9.018a36.823,36.823,0,0,0-21.473-28.6,36.823,36.823,0,0,0-35.626,3.12" transform="translate(-11.969 -7.089)"/><path class="c" d="M-371.344,586.64A1.445,1.445,0,0,1-372.8,585.2a1.445,1.445,0,0,1,1.438-1.452h.015A1.445,1.445,0,0,1-369.9,585.2,1.445,1.445,0,0,1-371.344,586.64Z" transform="translate(-6.777 -229.467)"/><path class="c" d="M-307.864,341.01a2.864,2.864,0,0,0,.52,3.133l12.265,12.988a2.988,2.988,0,0,0,2.126.9,2.989,2.989,0,0,0,2.133-.882l12.3-13.027a2.891,2.891,0,0,0,.5-3.111,2.89,2.89,0,0,0-2.64-1.719h-7.779a38.274,38.274,0,0,0-20.908-27.9,38.275,38.275,0,0,0-34.862.632,1.445,1.445,0,0,0-.576,1.95,1.445,1.445,0,0,0,1.944.6,34.883,34.883,0,0,1,16.659-4.178A35.534,35.534,0,0,1-291.1,340.936a1.445,1.445,0,0,0,1.431,1.247l9.038-.025-12.324,13.007-12.264-12.982H-297a1.446,1.446,0,0,0,1.105-.513,1.445,1.445,0,0,0,.32-1.176A31.1,31.1,0,0,0-325.4,314.687a31.1,31.1,0,0,0-31.144,24.2,31.1,31.1,0,0,0,17.634,35.277,31.1,31.1,0,0,0,38.046-10.389,2.2,2.2,0,0,1,1.614-.928,2.169,2.169,0,0,1,1.7.623,2.21,2.21,0,0,1,.646,1.551,2.084,2.084,0,0,1-.387,1.2,35.49,35.49,0,0,1-32.535,14.8,38.853,38.853,0,0,1-8.908-2.108,38.356,38.356,0,0,1-8.058-4.359,35.876,35.876,0,0,1-11.561-14.018,1.468,1.468,0,0,0-1.9-.723,1.423,1.423,0,0,0-.773.809,1.424,1.424,0,0,0,.05,1.118A38.761,38.761,0,0,0-348.477,376.9a41.169,41.169,0,0,0,8.719,4.711,41.683,41.683,0,0,0,9.648,2.285,38.1,38.1,0,0,0,3.841.2,38.412,38.412,0,0,0,31.349-16.211,4.976,4.976,0,0,0,.912-2.866,5.123,5.123,0,0,0-1.493-3.594,5.017,5.017,0,0,0-3.992-1.464,5.087,5.087,0,0,0-3.729,2.136,28.2,28.2,0,0,1-22.957,11.882,28.221,28.221,0,0,1-20.462-8.828,28.221,28.221,0,0,1-7.678-20.921,28.181,28.181,0,0,1,25.642-26.485,28.181,28.181,0,0,1,29.91,21.55h-6.457a2.85,2.85,0,0,0-2.64,1.717Z" transform="translate(-16.484)"/><path class="c" d="M-365.522,361.607a1.445,1.445,0,0,0,.168-2.037,1.445,1.445,0,0,0-2.037-.168,38.379,38.379,0,0,0-13.314,33.649,1.445,1.445,0,0,0,1.435,1.282,1.536,1.536,0,0,0,.163-.009,1.445,1.445,0,0,0,.969-.535,1.444,1.444,0,0,0,.306-1.063,35.486,35.486,0,0,1,12.31-31.119Z" transform="translate(0 -42.828)"/><path class="d" d="M-187.9,466.354h-.637v-4.227h2.678a2.056,2.056,0,0,0,2.056-2.056,2.056,2.056,0,0,0-2.056-2.056h-2.678v-1.049a2.056,2.056,0,0,0-2.056-2.056,2.056,2.056,0,0,0-2.056,2.056v1.049h-.637a6.234,6.234,0,0,0-6.226,6.227,6.233,6.233,0,0,0,6.226,6.226h.637V474.7h-2.678a2.056,2.056,0,0,0-2.056,2.056,2.056,2.056,0,0,0,2.056,2.056h2.678v1.049a2.056,2.056,0,0,0,2.056,2.056,2.056,2.056,0,0,0,2.056-2.056v-1.049h.637a6.234,6.234,0,0,0,6.226-6.227A6.234,6.234,0,0,0-187.9,466.354Zm-5.386,0a2.116,2.116,0,0,1-2.114-2.114,2.117,2.117,0,0,1,2.114-2.114h.637v4.228Zm5.386,8.34h-.637v-4.228h.637a2.116,2.116,0,0,1,2.114,2.114A2.117,2.117,0,0,1-187.9,474.695Z" transform="translate(-150.714 -122.446)"/></g></svg>