<svg xmlns="http://www.w3.org/2000/svg" width="79.654" height="60" viewBox="0 0 79.654 60"><defs><style>.a,.g{fill:#00306b;}.a{opacity:0.11;isolation:isolate;}.b{fill:#fff;}.c{fill:#e8e8e8;}.d{fill:#abd5ff;}.e{fill:#2c78c4;}.f{fill:#59a1f4;}.h{fill:#19609b;}</style></defs><g transform="translate(-36.43 -104.346)"><path class="a" d="M107.46,129.9H40.193a3.763,3.763,0,0,0-3.763,3.763v36.4a3.761,3.761,0,0,0,2.823,3.64v2.03a3.761,3.761,0,0,0,2.823,3.64v1.953c0,.12.006.239.017.358a3.761,3.761,0,0,0,3.746,3.406h55.977a3.761,3.761,0,0,0,3.746-3.406c.011-.119.017-.237.017-.358v-1.953a3.761,3.761,0,0,0,2.823-3.64v-2.03a3.762,3.762,0,0,0,2.823-3.64v-36.4A3.763,3.763,0,0,0,107.46,129.9Z" transform="translate(0 -20.746)"/><path class="b" d="M150.764,292.966v13.821c0,.12-.006.239-.017.358A3.761,3.761,0,0,1,147,310.551H91.023a3.761,3.761,0,0,1-3.746-3.406c-.011-.119-.017-.237-.017-.358V292.966a3.764,3.764,0,0,1,3.763-3.763H147A3.764,3.764,0,0,1,150.764,292.966Z" transform="translate(-41.265 -150.073)"/><path class="c" d="M150.764,292.966v13.821c0,.12-.006.239-.017.358a5.988,5.988,0,0,1-.924.071H88.2a5.988,5.988,0,0,1-.924-.071c-.011-.119-.017-.237-.017-.358V292.966a3.764,3.764,0,0,1,3.763-3.763H147A3.764,3.764,0,0,1,150.764,292.966Z" transform="translate(-41.265 -150.073)"/><path class="d" d="M137.645,232.118H76.023a3.763,3.763,0,0,1-3.763-3.763V203.243a3.763,3.763,0,0,1,3.763-3.763h61.622a3.763,3.763,0,0,1,3.763,3.763v25.111A3.763,3.763,0,0,1,137.645,232.118Z" transform="translate(-29.088 -77.233)"/><path class="e" d="M141.409,203.246v25.111c0,.094,0,.186-.011.279a6.057,6.057,0,0,1-.93.072H73.2a6.057,6.057,0,0,1-.93-.072c-.008-.092-.011-.184-.011-.279V203.246a3.762,3.762,0,0,1,3.763-3.763h61.622a3.762,3.762,0,0,1,3.763,3.763Z" transform="translate(-29.088 -77.235)"/><path class="f" d="M128.29,153.274H61.023a3.763,3.763,0,0,1-3.763-3.763v-36.4a3.763,3.763,0,0,1,3.763-3.763H128.29a3.763,3.763,0,0,1,3.763,3.763v36.4A3.763,3.763,0,0,1,128.29,153.274Z" transform="translate(-16.91 -4.059)"/><path class="e" d="M154.549,157.674v9.609a.947.947,0,0,1-.679.9,10.863,10.863,0,0,0-7.476,8.285.936.936,0,0,1-.922.746H102.407a.936.936,0,0,1-.922-.746,10.863,10.863,0,0,0-7.476-8.285.947.947,0,0,1-.679-.9v-9.609a.947.947,0,0,1,.679-.9,10.863,10.863,0,0,0,7.476-8.285.936.936,0,0,1,.922-.746h43.065a.936.936,0,0,1,.922.746,10.863,10.863,0,0,0,7.476,8.285.947.947,0,0,1,.679.9Z" transform="translate(-46.193 -35.228)"/><ellipse class="g" cx="9.503" cy="12.078" rx="9.503" ry="12.078" transform="translate(68.244 115.173)"/><path class="h" d="M159.623,277.869h-4.1a.941.941,0,0,1,0-1.882h4.1a.941.941,0,1,1,0,1.882Z" transform="translate(-95.916 -139.343)"/><path class="h" d="M330.656,168.036h-4.1a.941.941,0,1,1,0-1.882h4.1a.941.941,0,1,1,0,1.882Z" transform="translate(-234.766 -50.178)"/><g transform="translate(56.481 126.199)"><circle class="d" cx="1.052" cy="1.052" r="1.052" transform="translate(0 0)"/><circle class="d" cx="1.052" cy="1.052" r="1.052" transform="translate(3.182 0)"/><circle class="d" cx="1.052" cy="1.052" r="1.052" transform="translate(6.364 0)"/><circle class="d" cx="1.052" cy="1.052" r="1.052" transform="translate(34.063 0)"/><circle class="d" cx="1.052" cy="1.052" r="1.052" transform="translate(37.245 0)"/><circle class="d" cx="1.052" cy="1.052" r="1.052" transform="translate(40.427 0)"/></g><path class="e" d="M406.849,152.355a.941.941,0,0,1-.665-1.606l3.324-3.324a.941.941,0,1,1,1.331,1.331l-3.324,3.324a.938.938,0,0,1-.665.275Z" transform="translate(-299.954 -34.749)"/><path class="e" d="M394.364,138.521a.941.941,0,0,1-.665-1.606l3.324-3.324a.941.941,0,1,1,1.331,1.331l-3.324,3.324A.938.938,0,0,1,394.364,138.521Z" transform="translate(-289.818 -23.518)"/><path class="e" d="M91.849,296.366a.941.941,0,0,1-.665-1.606l3.324-3.324a.941.941,0,1,1,1.331,1.331l-3.324,3.324A.938.938,0,0,1,91.849,296.366Z" transform="translate(-44.227 -151.661)"/><path class="e" d="M79.364,282.533a.941.941,0,0,1-.665-1.606l3.324-3.324a.941.941,0,0,1,1.331,1.331l-3.324,3.324A.938.938,0,0,1,79.364,282.533Z" transform="translate(-34.091 -140.431)"/><path class="b" d="M239.625,198.476h-.291v-1.934h1.225a.941.941,0,0,0,0-1.882h-1.225v-.48a.941.941,0,0,0-1.882,0v.48h-.291a2.849,2.849,0,0,0,0,5.7h.291v1.935h-1.225a.941.941,0,1,0,0,1.882h1.225v.48a.941.941,0,0,0,1.882,0v-.48h.291a2.849,2.849,0,0,0,0-5.7Zm-2.465,0a.967.967,0,0,1,0-1.935h.291v1.935Zm2.465,3.816h-.291v-1.935h.291a.967.967,0,0,1,0,1.935Z" transform="translate(-160.646 -72.166)"/><path class="g" d="M127.995,136.354a.941.941,0,0,0,.941-.941V109.05a4.71,4.71,0,0,0-4.7-4.7H56.964a4.71,4.71,0,0,0-4.7,4.7v36.4a4.71,4.71,0,0,0,2.823,4.31v1.36a4.7,4.7,0,0,0,2.823,4.313v1.28a4.71,4.71,0,0,0,4.7,4.7h55.977a4.71,4.71,0,0,0,4.7-4.7v-1.282a4.7,4.7,0,0,0,2.823-4.311v-1.36a4.711,4.711,0,0,0,2.823-4.31V140.7a.941.941,0,1,0-1.882,0v4.75a2.826,2.826,0,0,1-2.823,2.823H56.964a2.826,2.826,0,0,1-2.823-2.823v-36.4a2.826,2.826,0,0,1,2.823-2.823h67.267a2.826,2.826,0,0,1,2.823,2.823v26.363A.941.941,0,0,0,127.995,136.354Zm-3.763,13.8v.966a2.82,2.82,0,0,1-2.115,2.733,2.855,2.855,0,0,1-.707.089H64.266a.941.941,0,0,0,0,1.882h57.143v.889a2.826,2.826,0,0,1-2.823,2.823H62.609a2.826,2.826,0,0,1-2.823-2.823v-1.948a.941.941,0,0,0-.706-.911,2.821,2.821,0,0,1-2.116-2.734v-.966Z" transform="translate(-12.851)"/><path class="g" d="M143.258,144.247a1.877,1.877,0,0,0-1.846-1.507H98.348a1.878,1.878,0,0,0-1.846,1.507,9.877,9.877,0,0,1-6.827,7.566,1.88,1.88,0,0,0-1.345,1.8v9.609a1.88,1.88,0,0,0,1.345,1.8,9.877,9.877,0,0,1,6.827,7.566,1.877,1.877,0,0,0,1.846,1.507h43.065a1.878,1.878,0,0,0,1.846-1.507,9.877,9.877,0,0,1,6.827-7.566,1.88,1.88,0,0,0,1.345-1.8v-9.609a1.88,1.88,0,0,0-1.345-1.8,9.877,9.877,0,0,1-6.827-7.566Zm6.278,18.981a11.754,11.754,0,0,0-8.124,8.991l-43.064.014a11.758,11.758,0,0,0-8.137-9.008l.012-9.612a11.754,11.754,0,0,0,8.124-8.991l43.064-.014a11.772,11.772,0,0,0,8.137,9.013Z" transform="translate(-42.134 -31.169)"/></g></svg>