<svg xmlns="http://www.w3.org/2000/svg" width="87" height="94.278" viewBox="0 0 87 94.278"><defs><style>.a,.l{fill:#00306b;}.a{opacity:0.11;isolation:isolate;}.b{fill:#19609b;}.c{fill:#4369fd;}.d{fill:#11537f;}.e{fill:#59a1f4;}.f{fill:#ff5ba8;}.g{fill:#2c78c4;}.h{fill:#fff;}.i{fill:#eaeaea;}.j{fill:#abd5ff;}.k{fill:#e8e8e8;}.m{fill:#007aff;}</style></defs><g transform="translate(-64.587 16.5)"><path class="a" d="M144.25,88.218a2.3,2.3,0,0,0-2.3-2.3h-1.684V79.334a10.816,10.816,0,0,0-5.532-9.433,10.658,10.658,0,0,0,1.695-5.11,10.77,10.77,0,1,0-20.556,3.735H75.131a4.6,4.6,0,0,0-4.579,4.121s0,.008,0,.012c-.01.1-.024,34.1-.024,34.1a14.179,14.179,0,0,0,8.241,25.718h7.079a14.185,14.185,0,0,0,13.069-8.668H129.46A10.814,10.814,0,0,0,140.266,113v-6.583h1.684a2.3,2.3,0,0,0,2.3-2.3v-15.9Z" transform="translate(0 -54.701)"/><path class="b" d="M220.638,111.506v33.671a10.8,10.8,0,0,1-10.8,10.806h-44.28a4.6,4.6,0,0,1-4.6-4.6V105.3a4.6,4.6,0,0,1,4.6-4.6h44.28a10.746,10.746,0,0,1,6.327,2.048,10.454,10.454,0,0,1,1.046.859q.3.279.571.578a10.768,10.768,0,0,1,2.86,7.323Z" transform="translate(-75.504 -91.829)"/><path class="c" d="M340.932,102.746A10.767,10.767,0,0,1,324.887,108l-3.435,1.513a.85.85,0,0,1-1.119-1.121l1.511-3.433a10.675,10.675,0,0,1-1.654-4.262H334.6A10.746,10.746,0,0,1,340.932,102.746Z" transform="translate(-200.274 -91.829)"/><path class="d" d="M344.5,195.969v20.5H321.327a2.3,2.3,0,0,1-2.3-2.3v-15.9a2.3,2.3,0,0,1,2.3-2.3H344.5Z" transform="translate(-199.361 -166.477)"/><path class="e" d="M114.53,151.384a4.6,4.6,0,0,0,4.6,4.6h44.28a10.807,10.807,0,0,0,10.807-10.807V111.51A10.807,10.807,0,0,0,163.412,100.7h-44.28a4.6,4.6,0,0,0-4.6,4.6Z" transform="translate(-39.132 -91.833)"/><path class="f" d="M335.048,108.926a10.613,10.613,0,0,1-3.282.823A10.74,10.74,0,0,1,324.887,108l-3.435,1.513a.85.85,0,0,1-1.119-1.121l1.511-3.433a10.675,10.675,0,0,1-1.654-4.262h4.364A10.8,10.8,0,0,1,335.048,108.926Z" transform="translate(-200.274 -91.829)"/><path class="g" d="M334.448,195.969v20.5H321.327a2.3,2.3,0,0,1-2.3-2.3v-15.9a2.3,2.3,0,0,1,2.3-2.3h13.121Z" transform="translate(-199.361 -166.477)"/><path class="h" d="M346.183,201.543H321.328a2.3,2.3,0,0,1-2.3-2.3v-15.9a2.3,2.3,0,0,1,2.3-2.3h24.855a2.3,2.3,0,0,1,2.3,2.3v15.9A2.3,2.3,0,0,1,346.183,201.543Z" transform="translate(-199.363 -154.779)"/><path class="i" d="M434.5,183.339v15.9a2.3,2.3,0,0,1-2.3,2.3H428.81a2.3,2.3,0,0,0,2.3-2.3v-15.9a2.3,2.3,0,0,0-2.3-2.3H432.2A2.3,2.3,0,0,1,434.5,183.339Z" transform="translate(-285.381 -154.778)"/><path class="j" d="M337.688,201.543h-16.36a2.3,2.3,0,0,1-2.3-2.3v-15.9a2.3,2.3,0,0,1,2.3-2.3h16.36a2.3,2.3,0,0,1,2.3,2.3v15.9a2.3,2.3,0,0,1-2.3,2.3Z" transform="translate(-199.362 -154.779)"/><path class="e" d="M395.263,183.339v15.9a2.3,2.3,0,0,1-2.3,2.3H389.57a2.3,2.3,0,0,0,2.3-2.3v-15.9a2.3,2.3,0,0,0-2.3-2.3h3.392A2.3,2.3,0,0,1,395.263,183.339Z" transform="translate(-254.636 -154.778)"/><path class="k" d="M159.679,293.48a14.181,14.181,0,1,0,0-28.362H152.6V293.48Z" transform="translate(-68.961 -220.658)"/><circle class="j" cx="14.181" cy="14.181" r="14.181" transform="translate(69.458 44.46)"/><path class="h" d="M341.093,41.9a10.77,10.77,0,1,0-19.729,5.231l-1.512,3.434a.849.849,0,0,0,1.12,1.12l3.434-1.512A10.768,10.768,0,0,0,341.093,41.9Z" transform="translate(-199.794 -36.761)"/><path class="j" d="M167.551,161.788H148.384a1.416,1.416,0,0,1-1.416-1.416v-4.459a1.416,1.416,0,0,1,1.416-1.416h19.168a1.416,1.416,0,0,1,1.416,1.416v4.459A1.416,1.416,0,0,1,167.551,161.788Z" transform="translate(-64.548 -133.982)"/><path class="h" d="M158.207,207.223h-9.824a1.416,1.416,0,0,1-1.416-1.416v-1.062a1.416,1.416,0,0,1,1.416-1.416h9.824a1.416,1.416,0,0,1,1.416,1.416v1.062A1.416,1.416,0,0,1,158.207,207.223Z" transform="translate(-64.548 -172.244)"/><path class="j" d="M159.943,130.47H148.524a1.557,1.557,0,0,1,0-3.115h11.419a1.557,1.557,0,0,1,0,3.115Z" transform="translate(-64.548 -112.715)"/><path class="e" d="M343.688,200.1h-3.626a1.233,1.233,0,0,1,0-2.465h3.626a1.233,1.233,0,0,1,0,2.465Z" transform="translate(-214.878 -167.782)"/><path class="l" d="M160.534,58.023h-.6v-5.5a11.808,11.808,0,0,0-5.154-9.8,11.688,11.688,0,0,0,1.315-4.677A11.853,11.853,0,1,0,132.9,40.633H93.714a5.692,5.692,0,0,0-5.685,5.685V73.4a1.082,1.082,0,1,0,2.165,0V46.318a3.524,3.524,0,0,1,3.52-3.52h40.069c.089.169.182.336.28.5l-1.281,2.91a1.932,1.932,0,0,0,2.546,2.546l2.91-1.281a11.714,11.714,0,0,0,6.017,1.648q.519,0,1.042-.044a11.608,11.608,0,0,0,1.686-.271,9.633,9.633,0,0,1,.736,3.715v5.5H135.679a3.387,3.387,0,0,0-3.384,3.384v15.9a3.387,3.387,0,0,0,3.384,3.384h12.039v5.5a9.736,9.736,0,0,1-9.725,9.725H119.036a15.261,15.261,0,0,0-14.605-19.693H97.352a15.263,15.263,0,1,0,0,30.526h7.079a15.282,15.282,0,0,0,13.763-8.668h29.849a11.9,11.9,0,0,0,11.889-11.889v-.8a1.082,1.082,0,0,0-2.165,0v.8a9.736,9.736,0,0,1-9.725,9.725h-3.222a11.881,11.881,0,0,0,5.062-9.725v-5.5h10.651a3.387,3.387,0,0,0,3.384-3.384v-15.9a3.387,3.387,0,0,0-3.384-3.384ZM84.254,91.487a13.1,13.1,0,1,1,13.1,13.1A13.113,13.113,0,0,1,84.254,91.487Zm20.969,13.072a15.254,15.254,0,0,0,0-26.145,13.1,13.1,0,0,1,0,26.145Zm39.892-57.638a9.62,9.62,0,0,1-6.19-1.571,1.082,1.082,0,0,0-1.034-.088L135,46.533l1.271-2.886a1.083,1.083,0,0,0-.088-1.034,9.622,9.622,0,0,1-1.571-6.19,9.688,9.688,0,1,1,10.5,10.5Zm3.921,1.194a11.975,11.975,0,0,0,4.568-3.571,9.658,9.658,0,0,1,4.164,7.978v5.5h-7.885v-5.5a11.773,11.773,0,0,0-.847-4.407ZM135.679,78.527a1.22,1.22,0,0,1-1.219-1.219v-15.9a1.22,1.22,0,0,1,1.219-1.219h16.36a1.22,1.22,0,0,1,1.219,1.219v15.9a1.22,1.22,0,0,1-1.219,1.219Zm26.073-1.219a1.22,1.22,0,0,1-1.219,1.219h-5.341a3.36,3.36,0,0,0,.231-1.219v-15.9a3.36,3.36,0,0,0-.231-1.219h5.341a1.22,1.22,0,0,1,1.219,1.219Z" transform="translate(-13.713 -32.845)"/><g transform="translate(109.828 -16.5)"><path class="e" d="M297.99,27.811A19.906,19.906,0,1,1,317.9,7.906,19.928,19.928,0,0,1,297.99,27.811Zm0-29.729a9.824,9.824,0,1,0,9.824,9.824A9.835,9.835,0,0,0,297.99-1.918Z" transform="translate(-277.111 12.974)"/><path class="l" d="M294.465,25.259a20.9,20.9,0,0,1-20.88-20.88,20.88,20.88,0,1,1,41.759,0A20.9,20.9,0,0,1,294.465,25.259Zm0-39.811A18.931,18.931,0,1,0,313.4,4.38,18.953,18.953,0,0,0,294.465-14.552Zm0,29.729a10.8,10.8,0,1,1,10.8-10.8A10.81,10.81,0,0,1,294.465,15.177Zm0-19.647a8.849,8.849,0,1,0,8.85,8.85A8.86,8.86,0,0,0,294.465-4.47Z" transform="translate(-273.585 16.5)"/></g><g transform="translate(129.733 -16.5)"><path class="m" d="M370.042-12V-1.918a9.835,9.835,0,0,1,9.824,9.824h10.082A19.928,19.928,0,0,0,370.042-12Z" transform="translate(-369.068 12.974)"/><path class="l" d="M387.4,5.354h-12.03V4.38a8.86,8.86,0,0,0-8.85-8.85h-.974V-16.5h.974A20.9,20.9,0,0,1,387.4,4.38ZM377.27,3.405h8.152A18.96,18.96,0,0,0,367.49-14.527v8.153A10.816,10.816,0,0,1,377.27,3.405Z" transform="translate(-365.542 16.5)"/></g><path class="h" d="M137.424,306.193h-.335v-2.225H138.5a1.082,1.082,0,0,0,0-2.165h-1.409v-.552a1.082,1.082,0,1,0-2.165,0v.552h-.335a3.277,3.277,0,0,0,0,6.555h.335v2.225h-1.409a1.082,1.082,0,1,0,0,2.165h1.409v.552a1.082,1.082,0,1,0,2.165,0v-.552h.335a3.277,3.277,0,0,0,0-6.555Zm-2.835,0a1.113,1.113,0,0,1,0-2.225h.335v2.225Zm2.835,4.39h-.335v-2.225h.335a1.113,1.113,0,0,1,0,2.225Z" transform="translate(-52.281 -248.121)"/></g></svg>