<?xml version="1.0" encoding="utf-8"?>
<!-- Generator: Adobe Illustrator 19.0.0, SVG Export Plug-In . SVG Version: 6.00 Build 0)  -->
<svg version="1.1" id="Layer_1" xmlns="http://www.w3.org/2000/svg" xmlns:xlink="http://www.w3.org/1999/xlink" x="0px" y="0px"
	 viewBox="0 0 285 183" style="enable-background:new 0 0 285 183;" xml:space="preserve">
<style type="text/css">
	.st0{fill:#FFFFFF;}
	.st1{fill:#007aff;}
</style>
<g id="XMLID_2_">
	<g id="XMLID_21_">
		<path id="XMLID_35_" class="st0" d="M208.4,136.9c-2.7-0.5-5-0.1-6.9,1.2s-3.2,3.2-4,5.7l18.6,3.3c0.4-2.7-0.1-4.9-1.4-6.7
			C213.4,138.6,211.3,137.4,208.4,136.9z"/>
		<path id="XMLID_22_" class="st0" d="M279.3,144.5L244,120.9c-1.2-0.8-2.6-1.4-4-1.6c-1.9-0.3-4-0.2-5.9,0.7
			c-3.3,1.3-5.6,4.3-6.2,7.7v0.1c-1.4-1.4-2.9-2.7-4.7-3.8c-3.1-2-6.7-3.3-10.6-4c-4-0.7-7.8-0.7-11.7,0c-0.5,0.1-0.9,0.2-1.3,0.3
			l8-45.3l3.4-2.5c13-9.6,16.1-27.4,7-40.6c-0.1-0.1-0.1-0.1-0.1-0.2c-4.5-6.3-11.3-10.5-19-11.9c-5.6-1-11.2-0.4-16.4,1.7
			c-4.1-3.6-9.1-6.1-14.9-7.1c-8-1.4-15.9,0.3-22.1,4.7c-0.7,0.5-1.3,1-2,1.5L128,17.9l0.1-0.3c1-5.7-2.9-11-8.5-12l-11.3-2
			c-5.7-1-11.1,2.8-12.1,8.4l-11,62.7c-0.6,3.3,0.5,6.5,2.6,8.8l-2.5,14.1c-0.9-0.2-1.8-0.5-2.7-0.6c-4-0.7-7.8-0.7-11.7,0
			c-2.9,0.6-5.7,1.5-8.1,2.7l0.2-1.2c0.6-3.5-0.6-7-3.2-9.4c-1.5-1.4-3.4-2.3-5.3-2.6c-1.4-0.3-2.9-0.2-4.4,0.2L8.9,96.9
			c-4,1-7.1,4.2-7.8,8.3l-1,5.4c-0.7,4,1.1,8.1,4.5,10.5l35.3,23.6c1.2,0.8,2.6,1.4,4,1.6c2,0.3,4,0.2,5.9-0.7c1.1-0.4,2-1,2.9-1.8
			c2.3,3,5.2,5.6,8.6,7.7c3.4,2,7,3.3,11,4c1.4,0.2,2.9,0.4,4.6,0.4s3.5-0.1,5.3-0.4c1.9-0.3,3.8-0.8,5.7-1.4
			c1.2-0.4,2.2-0.8,3.3-1.4c1.9,1.9,4.1,3.7,6.5,5.1c3.4,2,7,3.3,11,4s7.8,0.7,11.7,0s7.6-2.1,10.8-4.3c0.7-0.4,1.3-0.9,2-1.4
			c0.2,0.3,0.4,0.7,0.6,1c2,3.2,4.7,5.9,7.9,8.1c3.3,2.2,7,3.7,11.3,4.4c3.2,0.6,6.3,0.6,9.4,0.1c1.1,0.6,2.1,1,3.3,1.2l8.6,1.5
			c3.9,0.7,7.7-0.9,10-3.8c2,2.2,4.3,4.1,7,5.7c3.4,2,7,3.3,11,4c4.3,0.8,8.5,0.7,12.7-0.3c2.7-0.6,5.3-1.7,7.8-3.2
			c0.4,0.5,0.8,1,1.2,1.4c1.5,1.4,3.4,2.3,5.3,2.6c1.4,0.3,2.9,0.2,4.4-0.2l41.2-10.2c4-1,7.1-4.2,7.8-8.3l1-5.4
			C284.5,151,282.8,146.9,279.3,144.5z M51.3,105.3l-27.5,6.9l23.3,15.7c0,0.4,0,0.8,0.1,1.2l-1.3,7.2l-35.3-23.6l1-5.4l41.2-10.2
			L51.3,105.3L51.3,105.3z M114.2,133.2c0,0.1,0,0.1-0.1,0.2l0,0l0,0c-0.1,0-0.2,0-0.2,0c-0.1,0-0.2,0-0.2,0l0,0l0,0
			c0-0.1,0-0.2,0-0.2H114.2z M160.3,141.3c0,0.1,0,0.1-0.1,0.2l0,0l0,0c-0.1,0-0.2,0-0.2,0c-0.1,0-0.2,0-0.2,0l0,0l0,0
			c0-0.1,0-0.2,0-0.2H160.3z M210.8,57.2l1.8-10.5C213.1,50.2,212.4,53.8,210.8,57.2z M117.8,16l-0.1,0.3l-11.3-2l0.1-0.3L117.8,16z
			 M84.6,144.4c-1.3,0.5-2.6,0.8-3.9,0.9s-2.5,0.2-3.6,0.3c-1.2,0-2.2-0.1-2.9-0.2c-2.7-0.5-5.2-1.4-7.5-2.7c-2.2-1.3-4.1-3-5.6-4.9
			c-1.5-2-2.5-4.2-3.2-6.7c-0.1-0.6-0.3-1.2-0.3-1.7c0.1-1.2,0.1-2.4-0.2-3.5c0-0.9,0.2-1.8,0.3-2.8c0.5-2.8,1.5-5.3,2.9-7.5
			c1.5-2.1,3.2-3.9,5.2-5.2s4.3-2.2,7-2.7c2.6-0.5,5.2-0.5,8,0c0.9,0.2,1.9,0.4,2.7,0.7l-1.5,8.5c-0.8-0.5-1.8-0.9-2.7-1.1
			c-1.7-0.3-3.2-0.3-4.6,0.1c-1.4,0.4-2.6,1-3.8,1.8c-1.1,0.8-2,1.9-2.7,3.1c-0.7,1.2-1.2,2.6-1.5,3.9c-0.2,1.4-0.3,2.8,0,4.2
			c0.2,1.3,0.8,2.7,1.5,3.8s1.7,2.1,3,3c1.2,0.8,2.6,1.4,4.3,1.7c1.4,0.3,2.8,0.2,4.1-0.2c1.3-0.4,2.5-1,3.5-2l0.3,0.4
			c0.1,1.5,0.3,2.9,0.7,4.3c0.4,1.4,0.8,2.8,1.4,4.2C85.2,144.2,84.9,144.3,84.6,144.4z M77.2,126.6
			C77.2,126.7,77.2,126.7,77.2,126.6C77.1,126.6,77.1,126.6,77.2,126.6C77.1,126.6,77.2,126.6,77.2,126.6z M125.4,149
			c-2.1,1.3-4.3,2.2-7,2.7c-2.6,0.5-5.2,0.5-8,0c-2.7-0.5-5.2-1.4-7.5-2.7c-1.9-1.1-3.5-2.5-4.8-4c0.6-2.7,0.2-5.6-1.4-8.1l-3.1-4.6
			c0-0.8,0.2-1.7,0.2-2.6l9.1,1.6c-0.2,1.3-0.2,2.6,0,3.8c0.2,1.3,0.8,2.7,1.5,3.8s1.7,2.1,3,3c1.2,0.8,2.6,1.4,4.3,1.7
			c1.7,0.3,3.2,0.3,4.6-0.1s2.6-1,3.8-1.8c1.1-0.8,2-1.9,2.7-3.1c0.7-1.1,1.1-2.3,1.3-3.6l5.4,0.9c-0.5,3.1-0.6,6.3-0.2,9.3
			C128.4,146.7,127,148,125.4,149z M176.2,162.4l-8.6-1.5l1-5.4h-0.2c-1.7,2-3.7,3.3-6.2,3.8c-2.4,0.6-4.8,0.7-7.5,0.2
			c-2.8-0.5-5.2-1.5-7.2-2.8c-2-1.4-3.6-3-4.9-5c-0.9-1.3-1.5-2.8-1.9-4.3c1.5-2.7,2.6-5.8,3.1-9l5.4,0.9c-0.2,1.3-0.2,2.6,0,3.8
			c0.2,1.3,0.8,2.7,1.5,3.8s1.7,2.1,3,3c1.2,0.8,2.6,1.4,4.3,1.7s3.2,0.3,4.6-0.1c1.4-0.4,2.6-1,3.8-1.8c1.1-0.8,2-1.9,2.7-3.1
			c0.7-1.1,1.1-2.3,1.3-3.6l6.9,1.2c-0.6,3.6-0.6,7.1,0.1,10.5l-1.3,7.6L176.2,162.4z M224.2,154.6c-0.2,0.3-0.3,0.5-0.4,0.8
			l-27.3-4.8c-0.2,2.7,0.5,5,2,6.9c1.5,1.8,3.6,2.9,6.2,3.4c2.3,0.4,4.3,0.3,5.9-0.4c1.7-0.6,3.2-1.6,4.7-2.8l5.7,6
			c-2.6,2.2-5.3,3.7-8.1,4.3s-5.7,0.7-8.5,0.2c-2.7-0.5-5.2-1.4-7.5-2.7c-2.2-1.3-4.1-3-5.6-4.9c-1.3-1.8-2.3-3.8-3-6l1.4-8l5.3,0.9
			l2.7-15.2c1.6-0.9,3.4-1.4,5.3-1.8c2.6-0.5,5.2-0.5,8,0c2.6,0.4,4.7,1.3,6.7,2.6c1.9,1.3,3.5,2.8,4.7,4.7s2,4.2,2.4,6.7
			c0.4,2.6,0.4,5.4-0.2,8.6L224.2,154.6L224.2,154.6z M272.5,158.6l-41.2,10.2l1.3-7.5c0.2-0.3,0.4-0.6,0.5-0.9l27.1-6.8l-23.5-15.8
			l1.5-8.3l35.3,23.6L272.5,158.6z"/>
	</g>
	<g id="XMLID_3_">
		<g id="XMLID_8_">
			<path id="XMLID_20_" class="st1" d="M10.5,112.7l1-5.4l41.2-10.2l-1.5,8.3l-27.5,6.9l23.5,15.8l-1.5,8.3L10.5,112.7z"/>
			<path id="XMLID_19_" class="st1" d="M85.6,120.5c-0.9-1.3-1.8-2.4-2.8-3.2c-1-0.9-2.2-1.4-3.4-1.6c-1.7-0.3-3.2-0.3-4.6,0.1
				s-2.6,1-3.8,1.8c-1.1,0.8-2,1.9-2.7,3.1c-0.7,1.2-1.2,2.6-1.5,3.9c-0.2,1.4-0.3,2.8,0,4.2c0.2,1.3,0.8,2.7,1.5,3.8s1.7,2.1,3,3
				c1.2,0.8,2.6,1.4,4.3,1.7c1.4,0.3,2.8,0.2,4.1-0.2c1.3-0.4,2.5-1,3.5-2l4.9,7.5c-1.1,0.7-2.3,1.4-3.6,1.8
				c-1.3,0.5-2.6,0.8-3.9,0.9c-1.3,0.2-2.5,0.2-3.6,0.3c-1.2,0-2.2-0.1-2.9-0.2c-2.7-0.5-5.2-1.4-7.5-2.7c-2.2-1.3-4.1-3-5.6-4.9
				c-1.5-2-2.5-4.2-3.2-6.7s-0.7-5.2-0.2-8s1.5-5.3,2.9-7.5c1.5-2.1,3.2-3.9,5.2-5.2s4.3-2.2,7-2.7c2.6-0.5,5.2-0.5,8,0
				c2.3,0.4,4.6,1.3,6.7,2.6s4,3,5.4,5.3L85.6,120.5z"/>
			<path id="XMLID_16_" class="st1" d="M94.2,129.4c0.5-2.8,1.5-5.3,2.9-7.5c1.5-2.1,3.2-3.9,5.2-5.2s4.3-2.2,7-2.7
				c2.6-0.5,5.2-0.5,8,0c2.7,0.5,5.2,1.4,7.5,2.7s4.1,3,5.6,4.9c1.4,1.9,2.5,4.2,3.2,6.7c0.6,2.5,0.7,5.2,0.2,8s-1.5,5.3-2.9,7.5
				c-1.5,2.1-3.2,3.9-5.2,5.2c-2.1,1.3-4.3,2.2-7,2.7c-2.6,0.5-5.2,0.5-8,0c-2.7-0.5-5.2-1.4-7.5-2.7c-2.2-1.3-4.1-3-5.6-4.9
				c-1.5-2-2.5-4.2-3.2-6.7S93.7,132.2,94.2,129.4z M103.3,131c-0.2,1.4-0.3,2.8,0,4.2c0.2,1.3,0.8,2.7,1.5,3.8s1.7,2.1,3,3
				c1.2,0.8,2.6,1.4,4.3,1.7c1.7,0.3,3.2,0.3,4.6-0.1c1.4-0.4,2.6-1,3.8-1.8c1.1-0.8,2-1.9,2.7-3.1c0.7-1.2,1.2-2.6,1.5-3.9
				c0.2-1.4,0.3-2.8,0-4.2c-0.2-1.3-0.8-2.7-1.5-3.8s-1.7-2.1-3-3c-1.2-0.8-2.6-1.4-4.3-1.7c-1.7-0.3-3.2-0.3-4.6,0.1
				c-1.4,0.4-2.6,1-3.8,1.8c-1.1,0.8-2,1.9-2.7,3.1C104,128.3,103.5,129.6,103.3,131z"/>
			<path id="XMLID_13_" class="st1" d="M168.6,155.5h-0.2c-1.7,2-3.7,3.3-6.2,3.8c-2.4,0.6-4.8,0.7-7.5,0.2
				c-2.9-0.5-5.2-1.5-7.2-2.8c-2-1.4-3.6-3-4.9-5s-2.1-4.2-2.5-6.7s-0.4-5,0.1-7.7s1.4-5.1,2.6-7.2s2.8-4,4.7-5.4
				c1.8-1.5,3.9-2.5,6.3-3c2.3-0.6,4.8-0.7,7.4-0.2c1.7,0.3,3.2,0.7,4.4,1.3s2.3,1.3,3.2,1.9c0.9,0.7,1.7,1.4,2.2,2.2
				c0.6,0.7,1.1,1.5,1.4,2.2h0.2l4.4-25.3l9.1,1.6l-10,56.7l-8.6-1.5L168.6,155.5L168.6,155.5z M149.3,139.1c-0.2,1.4-0.3,2.8,0,4.2
				c0.2,1.3,0.8,2.7,1.5,3.8s1.7,2.1,3,3c1.2,0.8,2.6,1.4,4.3,1.7s3.2,0.3,4.6-0.1s2.6-1,3.8-1.8c1.1-0.8,2-1.9,2.7-3.1
				c0.7-1.2,1.2-2.6,1.5-3.9c0.2-1.4,0.3-2.8,0-4.2c-0.2-1.3-0.8-2.7-1.5-3.8s-1.7-2.1-3-3c-1.2-0.8-2.6-1.4-4.3-1.7
				s-3.2-0.3-4.6,0.1c-1.4,0.4-2.6,1-3.8,1.8c-1.1,0.8-2,1.9-2.7,3.1C150.1,136.4,149.6,137.7,149.3,139.1z"/>
			<path id="XMLID_10_" class="st1" d="M196.4,150.6c-0.2,2.7,0.5,5,2,6.9c1.5,1.8,3.6,2.9,6.2,3.4c2.2,0.4,4.3,0.3,5.9-0.4
				c1.7-0.6,3.2-1.6,4.7-2.8l5.7,6c-2.6,2.2-5.3,3.7-8.1,4.3s-5.7,0.7-8.5,0.2c-2.7-0.5-5.2-1.4-7.5-2.7c-2.2-1.3-4.1-3-5.6-4.9
				c-1.5-2-2.5-4.2-3.2-6.7s-0.7-5.2-0.2-8s1.5-5.3,2.9-7.5c1.5-2.1,3.2-3.9,5.2-5.2s4.3-2.2,7-2.7c2.6-0.5,5.2-0.5,8,0
				c2.6,0.4,4.7,1.3,6.7,2.6c1.9,1.3,3.5,2.8,4.7,4.7s2,4.2,2.4,6.7c0.4,2.6,0.4,5.4-0.2,8.6l-0.4,2.5L196.4,150.6L196.4,150.6z
				 M216.2,147.1c0.4-2.7-0.1-4.9-1.4-6.7s-3.4-3-6.3-3.5c-2.7-0.5-5-0.1-6.9,1.2c-1.8,1.3-3.2,3.2-4,5.7L216.2,147.1z"/>
			<path id="XMLID_9_" class="st1" d="M273.5,153.2l-1,5.4l-41.2,10.2l1.5-8.3l27.5-6.9l-23.5-15.8l1.5-8.3L273.5,153.2z"/>
		</g>
		<g id="XMLID_4_">
			<path id="XMLID_7_" class="st1" d="M106.6,14.1l11.3,2l-11,62.7l-11.3-2L106.6,14.1z"/>
			<g id="XMLID_5_" transform="translate(0 -1028.4)">
				<path id="XMLID_6_" class="st1" d="M165.8,1053.2c-4.8-0.8-9.9-0.1-14.2,3c-8.7,6.2-10.4,17.7-4.6,26.4l23.6,35.5l34.3-25.3
					c8.4-6.2,10.7-17.6,4.6-26.4c-6.1-8.4-18-10.5-26.6-4.7l-2.8,2.1l-1.9-2.9C175.1,1056.5,170.6,1054.1,165.8,1053.2z"/>
			</g>
		</g>
	</g>
</g>
</svg>
