<?xml version="1.0" encoding="utf-8"?>
<!-- Generator: Adobe Illustrator 24.1.0, SVG Export Plug-In . SVG Version: 6.00 Build 0)  -->
<svg version="1.1" id="Camada_1" xmlns="http://www.w3.org/2000/svg" xmlns:xlink="http://www.w3.org/1999/xlink" x="0px" y="0px"
	 viewBox="0 0 96 97" style="enable-background:new 0 0 96 97;" xml:space="preserve">
<style type="text/css">
	.st0{fill:#F1DD3F;}
</style>
<g>
	<g>
		<rect class="st0" width="96" height="97"/>
	</g>
	<g>
		<path d="M57.2,77.3c0,1.4-0.2,2.7-0.7,4s-1.1,2.4-2,3.4c-0.9,1-2,1.7-3.3,2.3c-1.3,0.6-2.8,0.9-4.6,0.9c-2.8,0-5-0.6-6.8-1.9
			c-1.8-1.3-2.9-3.3-3.5-6.1l5.8-1.4c0.2,1.1,0.7,2.1,1.4,2.8c0.7,0.7,1.6,1,2.7,1c1.8,0,3-0.6,3.6-1.8s1-2.8,1-4.9V52.2h6.2V77.3z"
			/>
		<path d="M81.8,59.6c-0.7-0.9-1.5-1.6-2.6-2.1c-1.1-0.4-2.3-0.7-3.5-0.7c-0.7,0-1.4,0.1-2.1,0.2c-0.7,0.2-1.3,0.4-1.8,0.8
			c-0.5,0.4-1,0.8-1.3,1.4c-0.3,0.6-0.5,1.3-0.5,2c0,1.2,0.4,2.1,1.2,2.7c0.8,0.6,1.8,1.2,3,1.6c1.2,0.5,2.5,0.9,4,1.3s2.8,1,4,1.8
			c1.2,0.8,2.2,1.8,3,3c0.8,1.2,1.2,2.9,1.2,5c0,1.9-0.3,3.5-1,4.9c-0.7,1.4-1.6,2.5-2.8,3.5c-1.2,0.9-2.5,1.6-4.1,2.1
			c-1.5,0.5-3.2,0.7-4.9,0.7c-2.2,0-4.2-0.4-6.2-1.1c-2-0.7-3.7-1.9-5.2-3.6l4.7-4.5c0.8,1.1,1.7,2,3,2.7c1.2,0.6,2.5,1,3.9,1
			c0.7,0,1.4-0.1,2.2-0.3c0.7-0.2,1.4-0.5,2-0.9c0.6-0.4,1.1-0.9,1.4-1.5c0.4-0.6,0.5-1.3,0.5-2.1c0-1.3-0.4-2.3-1.2-2.9
			c-0.8-0.7-1.8-1.3-3-1.7c-1.2-0.5-2.5-0.9-4-1.4c-1.4-0.4-2.8-1-4-1.7c-1.2-0.7-2.2-1.7-3-2.9c-0.8-1.2-1.2-2.9-1.2-4.9
			c0-1.8,0.4-3.4,1.1-4.7c0.7-1.3,1.7-2.4,2.9-3.3s2.6-1.5,4.1-1.9s3.1-0.6,4.7-0.6c1.8,0,3.6,0.3,5.3,0.8c1.7,0.6,3.3,1.5,4.6,2.8
			L81.8,59.6z"/>
	</g>
</g>
</svg>
