<?xml version="1.0" encoding="utf-8"?>
<!-- Generator: Adobe Illustrator 19.0.0, SVG Export Plug-In . SVG Version: 6.00 Build 0)  -->
<svg version="1.1" id="Layer_1" xmlns="http://www.w3.org/2000/svg" xmlns:xlink="http://www.w3.org/1999/xlink" x="0px" y="0px"
	 viewBox="0 0 203 225" style="enable-background:new 0 0 203 225;" xml:space="preserve">
<style type="text/css">
	.st0{fill:#FFFFFF;}
	.st1{fill:#007aff;}
</style>
<g id="XMLID_2_">
	<g id="XMLID_40_">
		<g id="XMLID_96_">
			<path id="XMLID_97_" class="st0" d="M83.5,21.8c3.9,0.5,6.6,4.1,6.1,8l-5.4,39.4c-0.5,3.9-4.1,6.6-8,6.1l-39.4-5.4
				c-3.9-0.5-6.6-4.1-6.1-8l5.4-39.4c0.5-3.9,4.1-6.6,8-6.1L83.5,21.8 M37,67.1l39.4,5.4c2.4,0.3,4.5-1.3,4.8-3.7l5.4-39.4
				c0.3-2.4-1.3-4.5-3.7-4.8l-39.4-5.4c-2.4-0.3-4.5,1.3-4.8,3.7l-5.4,39.4C33.1,64.6,34.7,66.8,37,67.1 M85,10.6L45.6,5.2
				c-10-1.4-19.2,5.6-20.6,15.6l-5.4,39.4c-1.4,10,5.6,19.2,15.6,20.6l39.4,5.4c10,1.4,19.2-5.6,20.6-15.6l5.4-39.3
				C102,21.3,95,12,85,10.6L85,10.6z M49,31.3l25.7,3.5l-3.5,25.7l-25.7-3.5L49,31.3L49,31.3z"/>
		</g>
		<g id="XMLID_90_">
			<path id="XMLID_91_" class="st0" d="M75.3,80.9c3.9,0.5,6.6,4.1,6.1,8l-5.4,39.4c-0.5,3.9-4.1,6.6-8,6.1L28.5,129
				c-3.9-0.5-6.6-4.1-6.1-8l5.4-39.4c0.5-3.9,4.1-6.6,8-6.1L75.3,80.9 M28.8,126.3l39.4,5.4c2.4,0.3,4.5-1.3,4.8-3.7l5.4-39.4
				c0.3-2.4-1.3-4.5-3.7-4.8l-39.4-5.4C33,78,30.9,79.7,30.6,82l-5.4,39.4C24.9,123.9,26.5,126,28.8,126.3 M76.9,69.9l-39.4-5.4
				C27.4,63,18.2,70,16.8,80l-5.4,39.4c-1.4,10,5.6,19.2,15.6,20.6l39.4,5.4c10,1.4,19.2-5.6,20.6-15.6l5.4-39.4
				C93.9,80.5,86.9,71.2,76.9,69.9L76.9,69.9z M40.8,90.4L66.5,94l-3.5,25.7l-25.7-3.5L40.8,90.4L40.8,90.4z"/>
		</g>
		<g id="XMLID_84_">
			<path id="XMLID_85_" class="st0" d="M133.6,89c3.9,0.5,6.6,4.1,6.1,8l-5.4,39.4c-0.5,3.9-4.1,6.6-8,6.1L86.8,137
				c-3.9-0.5-6.6-4.1-6.1-8l5.4-39.4c0.5-3.9,4.1-6.6,8-6.1L133.6,89 M87,134.4l39.4,5.4c2.4,0.3,4.5-1.3,4.8-3.7l5.4-39.4
				c0.3-2.4-1.3-4.5-3.7-4.8l-39.4-5.4c-2.4-0.3-4.5,1.3-4.8,3.7l-5.4,39.4C83.1,131.9,84.7,134,87,134.4 M135.1,77.9l-39.4-5.4
				c-10-1.4-19.2,5.6-20.6,15.6l-5.4,39.4c-1.4,10,5.6,19.2,15.6,20.6l39.4,5.4c10,1.4,19.2-5.6,20.6-15.6l5.4-39.4
				C152.1,88.5,145.1,79.3,135.1,77.9L135.1,77.9z M99,98.5l25.7,3.5l-3.5,25.7l-25.7-3.5L99,98.5L99,98.5z"/>
		</g>
		<g id="XMLID_78_">
			<path id="XMLID_79_" class="st0" d="M67.1,140.2c3.9,0.5,6.6,4.1,6.1,8l-5.4,39.4c-0.5,3.9-4.1,6.6-8,6.1l-39.4-5.4
				c-3.9-0.5-6.6-4.1-6.1-8l5.4-39.4c0.5-3.9,4.1-6.6,8-6.1L67.1,140.2 M20.6,185.5l39.4,5.4c2.4,0.3,4.5-1.3,4.8-3.7l5.4-39.4
				c0.3-2.4-1.3-4.5-3.7-4.8l-39.4-5.4c-2.4-0.3-4.5,1.3-4.8,3.7l-5.4,39.4C16.7,183,18.3,185.1,20.6,185.5 M68.7,129.1l-39.4-5.4
				c-10-1.4-19.2,5.6-20.6,15.6l-5.4,39.4c-1.4,10,5.6,19.2,15.6,20.6l39.4,5.4c10,1.4,19.2-5.6,20.6-15.6l5.4-39.4
				C85.7,139.7,78.7,130.5,68.7,129.1L68.7,129.1z M32.6,149.7l25.7,3.5l-3.5,25.7l-25.7-3.5L32.6,149.7L32.6,149.7z"/>
		</g>
		<g id="XMLID_72_">
			<path id="XMLID_73_" class="st0" d="M125.4,148.2c3.9,0.5,6.6,4.1,6.1,8l-5.4,39.4c-0.5,3.9-4.1,6.6-8,6.1l-39.4-5.4
				c-3.9-0.5-6.6-4.1-6.1-8l5.4-39.4c0.5-3.9,4.1-6.6,8-6.1L125.4,148.2 M78.9,193.5l39.4,5.4c2.4,0.3,4.5-1.3,4.8-3.7l5.4-39.4
				c0.3-2.4-1.3-4.5-3.7-4.8l-39.4-5.4c-2.4-0.3-4.5,1.3-4.8,3.7l-5.4,39.4C75,191,76.6,193.2,78.9,193.5 M126.9,137.1l-39.4-5.4
				c-10-1.4-19.2,5.6-20.6,15.6l-5.4,39.4C60,196.7,67,206,77,207.4l39.4,5.4c10,1.4,19.2-5.6,20.6-15.6l5.4-39.4
				C143.9,147.8,136.9,138.5,126.9,137.1L126.9,137.1z M90.9,157.7l25.7,3.5l-3.5,25.7l-25.7-3.5L90.9,157.7L90.9,157.7z"/>
		</g>
		<g id="XMLID_66_">
			<path id="XMLID_67_" class="st0" d="M183.5,156.3c3.9,0.5,6.6,4.1,6.1,8l-5.4,39.4c-0.5,3.9-4.1,6.6-8,6.1l-39.4-5.4
				c-3.9-0.5-6.6-4.1-6.1-8l5.4-39.4c0.5-3.9,4.1-6.6,8-6.1L183.5,156.3 M137.1,201.5l39.4,5.4c2.4,0.3,4.5-1.3,4.8-3.7l5.4-39.4
				c0.3-2.4-1.3-4.5-3.7-4.8l-39.4-5.4c-2.4-0.3-4.5,1.3-4.8,3.7l-5.4,39.4C133.1,199.1,134.8,201.2,137.1,201.5 M185.1,145.2
				l-39.4-5.4c-10-1.4-19.2,5.6-20.6,15.6l-5.4,39.4c-1.4,10,5.6,19.2,15.6,20.6l39.4,5.4c10,1.4,19.2-5.6,20.6-15.6l5.4-39.4
				C202.2,155.8,195.1,146.5,185.1,145.2L185.1,145.2z M149.1,165.7l25.7,3.5l-3.5,25.7l-25.7-3.5L149.1,165.7L149.1,165.7z"/>
		</g>
		<g id="XMLID_61_">
			<path id="XMLID_62_" class="st0" d="M73.4,33.2L73.4,33.2 M73.4,33.2L58.3,44.5l12,17.2l-7.1-1L52.8,45l-0.3,0l-1.9,14l-5.1-0.7
				l3.9-28.3l5.1,0.7l-1.7,12l0.2,0l13.3-10.4L73.4,33.2 M75,22.1L75,22.1l-6.8-0.9c-2.1-0.3-4.2,0-6.2,1c-1.5-1.3-3.5-2.3-5.7-2.6
				l-5.1-0.7C45,18,39.4,22.3,38.6,28.4l-3.9,28.3c-0.8,6.1,3.4,11.8,9.6,12.6l5.1,0.7c2.4,0.3,4.6-0.1,6.6-1
				c1.7,1.5,3.8,2.4,6.1,2.8l7.1,1c4.4,0.6,8.8-1.4,11.1-5.2s2.2-8.7-0.4-12.3L73.9,47l6.3-4.7c2.4-1.8,4-4.4,4.5-7.6
				C85.5,28.6,81.2,23,75,22.1L75,22.1L75,22.1L75,22.1z"/>
		</g>
		<g id="XMLID_57_">
			<path id="XMLID_58_" class="st0" d="M62.9,92.2l-0.6,4.6l-13.8-1.9l-1,6.9l13.1,1.8l-0.6,4.6l-13.1-1.8l-1.1,7.6l14.5,2l-0.6,4.6
				l-19.5-2.7l3.9-28.4L62.9,92 M64.4,81l-18.8-2.6c-6.1-0.8-11.8,3.4-12.6,9.6L29,116.4c-0.8,6.1,3.4,11.8,9.6,12.6l19.5,2.7
				c6.1,0.8,11.8-3.4,12.6-9.6l0.6-4.6c0.3-2.1,0-4.2-0.8-6c0.2-0.6,0.3-1.3,0.4-1.9l0.6-4.6c0.1-0.9,0.1-1.6,0-2.4
				c0.8-1.3,1.4-2.7,1.6-4.4l0.6-4.7C74.8,87.4,70.5,81.8,64.4,81L64.4,81z"/>
		</g>
		<g id="XMLID_53_">
			<path id="XMLID_54_" class="st0" d="M124.9,100.7L121,129l-6.3-0.9l-11.1-23.7l-0.1,0l-3,21.8l-5.1-0.7l3.9-28.3l6.6,0.9l10.9,23
				l0.1,0l2.9-21.1L124.9,100.7 M126.4,89.5l-5.1-0.7c-2.6-0.4-5.2,0.2-7.2,1.4c-1.7-1.8-4-3-6.5-3.3l-6.6-0.9
				c-6.1-0.8-11.8,3.4-12.6,9.6L84.5,124c-0.8,6.1,3.4,11.8,9.6,12.6l5.1,0.7c2.7,0.4,5.3-0.2,7.4-1.6c1.8,1.9,4.1,3.2,6.7,3.5
				l6.3,0.9c6.1,0.8,11.8-3.4,12.6-9.6l3.9-28.3C136.8,96,132.5,90.4,126.4,89.5L126.4,89.5z"/>
		</g>
		<g id="XMLID_49_">
			<path id="XMLID_50_" class="st0" d="M56.3,151.5l-0.6,4.6l-17.9,17.2l15.6,2.1l-0.6,4.6L31,177l0.6-4.6l17.8-17.1l-14.9-2.1
				l0.6-4.6L56.3,151.5 M57.8,140.4l-21.2-2.9c-6.1-0.8-11.8,3.4-12.6,9.6l-0.6,4.6c-0.5,3.8,0.9,7.4,3.4,9.8l-3,2.9
				c-1.9,1.8-3,4-3.3,6.5l-0.6,4.6c-0.8,6.1,3.4,11.8,9.6,12.6l21.7,3c6.1,0.8,11.8-3.4,12.6-9.6l0.6-4.6c0.5-3.9-1-7.6-3.8-10
				l2.8-2.6c1.9-1.8,3-4,3.3-6.6l0.6-4.6C68.2,146.9,63.9,141.2,57.8,140.4L57.8,140.4z"/>
		</g>
		<g id="XMLID_45_">
			<path id="XMLID_46_" class="st0" d="M106.4,158.4l-3.9,28.3l-5.1-0.7l3.9-28.3L106.4,158.4 M107.9,147.3l-5.1-0.7
				c-6.1-0.8-11.8,3.4-12.6,9.6l-3.9,28.3c-0.8,6.1,3.4,11.8,9.6,12.6l5.1,0.7c6.1,0.8,11.8-3.4,12.6-9.6l3.9-28.3
				C118.4,153.8,114.1,148.2,107.9,147.3L107.9,147.3z"/>
		</g>
		<g id="XMLID_41_">
			<path id="XMLID_42_" class="st0" d="M171.1,167.4l-0.6,4.6l-13.8-1.9l-1,6.9l13.1,1.8l-0.6,4.6l-13.1-1.8l-1.1,7.8l14.5,2
				l-0.6,4.6l-19.5-2.7l3.9-28.3L171.1,167.4 M172.6,156.3l-18.8-2.6c-6.1-0.8-11.8,3.4-12.6,9.6l-3.9,28.3
				c-0.8,6.1,3.4,11.8,9.6,12.6l19.5,2.7c6.1,0.8,11.8-3.4,12.6-9.6l0.6-4.7c0.3-2.1,0-4.2-0.8-6c0.2-0.6,0.3-1.3,0.4-1.9l0.6-4.6
				c0.1-0.9,0.1-1.6,0-2.4c0.8-1.3,1.4-2.7,1.6-4.4l0.6-4.6C183.1,162.8,178.9,157.1,172.6,156.3L172.6,156.3z"/>
		</g>
	</g>
	<g id="XMLID_3_">
		<g id="XMLID_36_">
			<path id="XMLID_37_" class="st1" d="M76.1,75.4L36.7,70c-3.9-0.5-6.6-4.1-6.1-8L36,22.5c0.5-3.9,4.1-6.6,8-6.1l39.4,5.4
				c3.9,0.5,6.6,4.1,6.1,8l-5.4,39.4C83.6,73.1,79.9,75.9,76.1,75.4z M43.6,19.2c-2.4-0.3-4.5,1.3-4.8,3.7l-5.4,39.4
				c-0.3,2.4,1.3,4.5,3.7,4.8l39.4,5.4c2.4,0.3,4.5-1.3,4.8-3.7l5.4-39.4c0.3-2.4-1.3-4.5-3.7-4.8L43.6,19.2z"/>
		</g>
		<g id="XMLID_32_">
			<path id="XMLID_33_" class="st1" d="M67.9,134.5l-39.4-5.4c-3.9-0.5-6.6-4.1-6.1-8l5.4-39.4c0.5-3.9,4.1-6.6,8-6.1L75.3,81
				c3.9,0.5,6.6,4.1,6.1,8l-5.4,39.4C75.4,132.3,71.8,135.1,67.9,134.5z M35.4,78.4C33,78,30.9,79.7,30.6,82l-5.4,39.4
				c-0.3,2.4,1.3,4.5,3.7,4.8l39.4,5.4c2.4,0.3,4.5-1.3,4.8-3.7l5.4-39.4c0.3-2.4-1.3-4.5-3.7-4.8L35.4,78.4z"/>
		</g>
		<g id="XMLID_28_">
			<path id="XMLID_29_" class="st1" d="M126.2,142.6l-39.4-5.4c-3.9-0.5-6.6-4.1-6.1-8l5.4-39.4c0.5-3.9,4.1-6.6,8-6.1l39.4,5.4
				c3.9,0.5,6.6,4.1,6.1,8l-5.4,39.4C133.6,140.4,130,143.1,126.2,142.6z M93.6,86.4c-2.4-0.3-4.5,1.3-4.8,3.7l-5.4,39.4
				c-0.3,2.4,1.3,4.5,3.7,4.8l39.4,5.4c2.4,0.3,4.5-1.3,4.8-3.7l5.4-39.4c0.3-2.4-1.3-4.5-3.7-4.8L93.6,86.4z"/>
		</g>
		<g id="XMLID_24_">
			<path id="XMLID_25_" class="st1" d="M59.7,193.8l-39.4-5.4c-3.9-0.5-6.6-4.1-6.1-8l5.4-39.4c0.5-3.9,4.1-6.6,8-6.1l39.4,5.4
				c3.9,0.5,6.6,4.1,6.1,8l-5.4,39.4C67.2,191.6,63.6,194.3,59.7,193.8z M27.2,137.6c-2.4-0.3-4.5,1.3-4.8,3.7l-5.4,39.4
				c-0.3,2.4,1.3,4.5,3.7,4.8L60,191c2.4,0.3,4.5-1.3,4.8-3.7l5.4-39.4c0.3-2.4-1.3-4.5-3.7-4.8L27.2,137.6z"/>
		</g>
		<g id="XMLID_20_">
			<path id="XMLID_21_" class="st1" d="M118,201.8l-39.4-5.4c-3.9-0.5-6.6-4.1-6.1-8l5.4-39.4c0.5-3.9,4.1-6.6,8-6.1l39.4,5.4
				c3.9,0.5,6.6,4.1,6.1,8l-5.4,39.4C125.5,199.6,121.9,202.4,118,201.8z M85.5,145.6c-2.4-0.3-4.5,1.3-4.8,3.7l-5.4,39.4
				c-0.3,2.4,1.3,4.5,3.7,4.8l39.4,5.4c2.4,0.3,4.5-1.3,4.8-3.7l5.4-39.4c0.3-2.4-1.3-4.5-3.7-4.8L85.5,145.6z"/>
		</g>
		<g id="XMLID_16_">
			<path id="XMLID_17_" class="st1" d="M176.1,209.8l-39.4-5.4c-3.9-0.5-6.6-4.1-6.1-8l5.4-39.4c0.5-3.9,4.1-6.6,8-6.1l39.4,5.4
				c3.9,0.5,6.6,4.1,6.1,8l-5.4,39.4C183.6,207.6,180.1,210.4,176.1,209.8z M143.7,153.7c-2.4-0.3-4.5,1.3-4.8,3.7l-5.4,39.4
				c-0.3,2.4,1.3,4.5,3.7,4.8l39.4,5.4c2.4,0.3,4.5-1.3,4.8-3.7l5.4-39.4c0.3-2.4-1.3-4.5-3.7-4.8L143.7,153.7z"/>
		</g>
		<g id="XMLID_14_">
			<path id="XMLID_15_" class="st1" d="M49.7,30l5.1,0.7l-1.7,12l0.2,0l13.3-10.4l6.8,0.9L58.3,44.5l12,17.2l-7.1-1L52.8,45l-0.3,0
				l-1.9,14l-5.1-0.7l3.9-28.3L49.7,30z"/>
		</g>
		<g id="XMLID_12_">
			<path id="XMLID_13_" class="st1" d="M44,89.6l18.8,2.6l-0.6,4.6l-13.8-1.9l-1,6.9l13.1,1.8l-0.6,4.6l-13.1-1.8l-1.1,7.6l14.5,2
				l-0.6,4.6l-19.5-2.7L44,89.6z"/>
		</g>
		<g id="XMLID_10_">
			<path id="XMLID_11_" class="st1" d="M99.2,97.2l6.6,0.9l10.9,23l0.1,0l2.9-21.1l5.1,0.7l-3.9,28.3l-6.4-0.9l-11.1-23.7l-0.1,0
				l-3,21.8l-5.1-0.7L99.2,97.2L99.2,97.2z"/>
		</g>
		<g id="XMLID_8_">
			<path id="XMLID_9_" class="st1" d="M31.5,172.3l17.8-17.1l-14.9-2.1l0.6-4.6l21.2,2.9l-0.6,4.6l-18,17.1l15.6,2.1l-0.6,4.6
				l-21.7-3L31.5,172.3z"/>
		</g>
		<g id="XMLID_6_">
			<path id="XMLID_7_" class="st1" d="M101.4,157.7l5.1,0.7l-3.9,28.3l-5.1-0.7L101.4,157.7z"/>
		</g>
		<g id="XMLID_4_">
			<path id="XMLID_5_" class="st1" d="M152.4,164.8l18.8,2.6l-0.6,4.6l-13.8-1.9l-1,6.9l13.1,1.8l-0.6,4.6l-13.1-1.8l-1.1,7.8
				l14.5,2l-0.6,4.6l-19.5-2.7L152.4,164.8L152.4,164.8z"/>
		</g>
	</g>
</g>
</svg>
