<?xml version="1.0" encoding="utf-8"?>
<!-- Generator: Adobe Illustrator 19.0.0, SVG Export Plug-In . SVG Version: 6.00 Build 0)  -->
<svg version="1.1" id="Layer_1" xmlns="http://www.w3.org/2000/svg" xmlns:xlink="http://www.w3.org/1999/xlink" x="0px" y="0px"
	 viewBox="0 0 68 67" style="enable-background:new 0 0 68 67;" xml:space="preserve">
<style type="text/css">
	.st0{fill:#FFFFFF;}
	.st1{fill:#4374BA;}
</style>
<g id="XMLID_2_">
	<path id="XMLID_5_" class="st0" d="M31.8,58.4L8.6,32.7L31.8,7h17.9l-9.8,12.2H61v27H39.9l9.8,12.2H31.8 M31.8,65.4h17.9
		c2.7,0,5.1-1.6,6.3-3.9c1.2-2.4,0.9-5.3-0.9-7.4l-0.8-0.9H61c3.9,0,7-3.1,7-7v-27c0-3.9-3.1-7-7-7h-6.7l0.8-0.9
		c1.7-2.1,2-4.9,0.9-7.4C54.8,1.5,52.4,0,49.7,0H31.8c-2,0-3.9,0.9-5.2,2.3L3.4,28c-2.4,2.6-2.4,6.7,0,9.3L26.6,63
		C28,64.5,29.9,65.4,31.8,65.4L31.8,65.4z"/>
	<g id="XMLID_3_">
		<polygon id="XMLID_4_" class="st1" points="31.8,58.4 49.7,58.4 40,46.2 61.1,46.2 61.1,19.2 40,19.2 49.7,7 31.8,7 8.7,32.7 		
			"/>
	</g>
</g>
</svg>
