<?xml version="1.0" encoding="utf-8"?>
<!-- Generator: Adobe Illustrator 19.0.0, SVG Export Plug-In . SVG Version: 6.00 Build 0)  -->
<svg version="1.1" id="Layer_1" xmlns="http://www.w3.org/2000/svg" xmlns:xlink="http://www.w3.org/1999/xlink" x="0px" y="0px"
	 viewBox="0 0 73 77" style="enable-background:new 0 0 73 77;" xml:space="preserve">
<style type="text/css">
	.st0{fill:#FFFFFF;}
</style>
<path class="st0" d="M37.5,36.1c0.6-0.8,1.2-1.6,1.8-2.5c2.8-4.1,5.7-8.1,8.5-12.1c0.9-1.3,1.8-2.6,2.7-3.9c0.2-0.2,0.4-0.3,0.6-0.3
	c6.7,0,13.4,0,20,0c0.5,0,0.6,0.1,0.6,0.6c0,4.2,0,8.5,0,12.7c0,0.5-0.1,0.6-0.6,0.6c-1.1,0-2.2,0-3.4,0c-0.1,0-0.2,0-0.4,0
	c0,10.3,0,20.6,0,30.9c0.1,0,0.2,0,0.4,0c1.1,0,2.3,0,3.4,0c0.4,0,0.6,0.1,0.6,0.5c0,4.2,0,8.5,0,12.7c0,0.5-0.1,0.6-0.6,0.6
	c-5.8,0-11.5,0-17.3,0c-0.5,0-0.6-0.1-0.6-0.6c0-4.7,0-9.5,0-14.2c0-0.1,0-0.2,0-0.3c-0.1,0-0.2,0-0.4,0c-4.5,0-8.9,0-13.4,0
	c-0.5,0-0.8-0.2-1.1-0.5c-0.4-0.6-0.9-1.2-1.4-1.9c-0.5,0.7-1,1.4-1.5,2.1c-2.5,3.5-4.9,7.1-7.4,10.6c-1.1,1.5-2.1,3.1-3.2,4.5
	c-0.2,0.2-0.3,0.3-0.6,0.3c-4.6,0-9.2,0-13.8,0c-0.2,0-0.4,0-0.5-0.2c-0.1-0.2,0-0.4,0.1-0.6c3.1-4.3,6.1-8.7,9.1-13
	c3.4-4.8,6.7-9.6,10.1-14.4c0.1-0.1,0.1-0.1,0.1-0.2c-2.9-4.2-5.9-8.4-8.9-12.6h-0.1c0,0.1,0,0.2,0,0.2c0,7.1,0,14.3,0,21.4
	c0,1.1,0,2.2,0,3.2c0,0.6-0.3,0.9-0.9,0.9c-5.8,0-11.5,0-17.3,0c-0.6,0-0.9-0.3-0.9-0.9c0-4.4,0-8.8,0-13.1c0-0.6,0.3-0.9,0.9-0.9
	c1.1,0,2.1,0,3.2,0c0-9.8,0-19.6,0-29.4c-0.1,0-0.3,0-0.4,0c-0.9,0-1.8,0-2.7,0c-0.7,0-1-0.3-1-1c0-4.4,0-8.7,0-13.1
	c0-0.6,0.3-0.9,1-0.9c5.7,0,11.4,0,17.1,0c0.7,0,1,0.3,1,0.9c0,8.2,0,16.4,0,24.6c0,0.1,0,0.2,0,0.4c0.1-0.1,0.1-0.1,0.2-0.2
	c2.8-4,5.7-8.1,8.5-12.1c3.1-4.4,6.1-8.8,9.2-13.1c0.2-0.4,0.5-0.5,0.9-0.5c4.5,0,9.1,0,13.7,0c0.4,0,0.7,0.1,0.9,0.4
	c0.2,0.4,0.1,0.6-0.1,1c-3,4.3-6,8.6-9,12.8c-3.3,4.7-6.6,9.4-10,14.1c-0.2,0.4-0.5,0.7-0.7,1.1c-0.1,0.1-0.1,0.2,0,0.3
	c1.1,1.6,2.3,3.2,3.4,4.9C37.4,36.1,37.4,36.1,37.5,36.1z M53.2,35.4c-0.1,0.1-0.1,0.2-0.2,0.2c-2.6,3.7-5.2,7.5-7.8,11.2
	c-0.1,0.1-0.1,0.2,0,0.4c2.7,3.8,5.3,7.5,7.9,11.3c0.1,0.1,0.1,0.1,0.1,0.2l0.1-0.1C53.2,50.8,53.2,43.1,53.2,35.4z"/>
</svg>
