<?xml version="1.0" encoding="utf-8"?>
<!-- Generator: Adobe Illustrator 24.3.0, SVG Export Plug-In . SVG Version: 6.00 Build 0)  -->
<svg version="1.1" id="Camada_1" xmlns="http://www.w3.org/2000/svg" xmlns:xlink="http://www.w3.org/1999/xlink" x="0px" y="0px"
	 viewBox="0 0 50 50" style="enable-background:new 0 0 50 50;" xml:space="preserve" width="90px" height="55px">
<style type="text/css">
	.st0{fill:#00DBFF;}
</style>
<path id="Caminho_1" class="st0" d="M23.1,31.8l9.9-11.1c0.8-0.8,0.8-2.1,0-2.8c-0.8-0.8-2.1-0.8-2.8,0c0,0-0.1,0.1-0.1,0.1l0,0
	l-8.3,9.4l-2.3-2.6c-0.7-0.8-2-0.9-2.8-0.2c-0.8,0.7-0.9,2-0.2,2.8l0,0l3.9,4.4c0.4,0.4,0.9,0.7,1.5,0.7h0
	C22.2,32.4,22.7,32.2,23.1,31.8z M21.6,31.1c-0.2,0-0.3-0.1-0.4-0.2l-3.9-4.4c-0.2-0.3-0.2-0.7,0.1-0.9c0.3-0.2,0.7-0.2,0.9,0.1
	l2.8,3.2c0.1,0.1,0.3,0.2,0.5,0.2c0.2,0,0.4-0.1,0.5-0.2l8.8-9.9c0.1-0.1,0.3-0.2,0.5-0.2c0.2,0,0.4,0,0.5,0.2
	c0.3,0.2,0.3,0.7,0.1,0.9l0,0l-9.9,11.1C21.9,31,21.8,31.1,21.6,31.1L21.6,31.1z"/>
</svg>
