<?xml version="1.0" encoding="utf-8"?>
<!-- Generator: Adobe Illustrator 24.3.0, SVG Export Plug-In . SVG Version: 6.00 Build 0)  -->
<svg version="1.1" id="Camada_1" xmlns="http://www.w3.org/2000/svg" xmlns:xlink="http://www.w3.org/1999/xlink" x="0px" y="0px"
	 viewBox="0 0 23.6 20.7" style="enable-background:new 0 0 23.6 20.7;" xml:space="preserve" width="25px" height="20px">
<style type="text/css">
	.st0{fill:#00DBFF;}
</style>
<path id="Caminho_1" class="st0" d="M10.7,16.9l9.9-11.1c0.8-0.8,0.8-2.1,0-2.8c-0.8-0.8-2.1-0.8-2.8,0c0,0-0.1,0.1-0.1,0.1l0,0
	l-8.3,9.4L7,9.8C6.3,9,5,8.9,4.2,9.6c-0.8,0.7-0.9,2-0.2,2.8l0,0l3.9,4.4c0.4,0.4,0.9,0.7,1.5,0.7h0C9.9,17.6,10.4,17.3,10.7,16.9z
	 M9.3,16.2c-0.2,0-0.3-0.1-0.4-0.2L5,11.6c-0.2-0.3-0.2-0.7,0.1-0.9c0.3-0.2,0.7-0.2,0.9,0.1L8.8,14c0.1,0.1,0.3,0.2,0.5,0.2
	c0.2,0,0.4-0.1,0.5-0.2L18.6,4c0.1-0.1,0.3-0.2,0.5-0.2c0.2,0,0.4,0,0.5,0.2c0.3,0.2,0.3,0.7,0.1,0.9l0,0L9.7,16
	C9.6,16.1,9.5,16.2,9.3,16.2L9.3,16.2z"/>
</svg>
