<?xml version="1.0" encoding="utf-8"?>
<!-- Generator: Adobe Illustrator 24.3.0, SVG Export Plug-In . SVG Version: 6.00 Build 0)  -->
<svg version="1.1" id="Camada_1" xmlns="http://www.w3.org/2000/svg" xmlns:xlink="http://www.w3.org/1999/xlink" x="0px" y="0px"
	 viewBox="0 0 50 50" style="enable-background:new 0 0 50 50;" xml:space="preserve">
<style type="text/css">
	.st0{fill:#6D0C91;}
</style>
<g id="Grupo_4">
	<g id="Grupo_3">
		<path id="Caminho_1" class="st0" d="M24.1,30.9l10.1-11.3c0.8-0.8,0.7-2.1-0.2-2.9c-0.8-0.8-2.1-0.7-2.9,0.2l0,0l-8.5,9.6
			l-2.3-2.7c-0.7-0.9-2-1-2.9-0.2c-0.9,0.7-1,2-0.2,2.9c0,0,0,0,0,0l3.9,4.5c0.4,0.4,0.9,0.7,1.5,0.7h0
			C23.1,31.6,23.7,31.4,24.1,30.9z M22.6,30.2c-0.2,0-0.3-0.1-0.5-0.2l-3.9-4.5c-0.2-0.3-0.2-0.7,0.1-1c0.3-0.2,0.7-0.2,0.9,0.1
			l2.9,3.3c0.1,0.1,0.3,0.2,0.5,0.2c0.2,0,0.4-0.1,0.5-0.2l9-10.1c0.1-0.1,0.3-0.2,0.5-0.2c0.2,0,0.4,0,0.5,0.2
			c0.3,0.2,0.3,0.7,0.1,1c0,0,0,0,0,0L23,30C22.9,30.2,22.7,30.2,22.6,30.2L22.6,30.2z"/>
		<path id="Caminho_2" class="st0" d="M24.6,4.2c-11.3,0-20.5,9.2-20.5,20.5s9.2,20.5,20.5,20.5s20.5-9.2,20.5-20.5
			C45.1,13.4,35.9,4.2,24.6,4.2z M24.6,43.9c-10.6,0-19.1-8.6-19.1-19.1S14.1,5.6,24.6,5.6s19.1,8.6,19.1,19.1c0,0,0,0,0,0
			C43.7,35.3,35.2,43.9,24.6,43.9z"/>
		<path id="Caminho_3" class="st0" d="M20.8,10.2c0.1,0,0.1,0,0.2,0c1.2-0.3,2.4-0.5,3.7-0.5c0.4,0,0.7-0.3,0.7-0.7
			c0-0.4-0.3-0.7-0.7-0.7l0,0c-1.4,0-2.7,0.2-4,0.5c-0.4,0.1-0.6,0.5-0.5,0.8C20.2,10,20.5,10.2,20.8,10.2L20.8,10.2z"/>
		<path id="Caminho_4" class="st0" d="M18.4,10.3c-0.2-0.3-0.6-0.5-0.9-0.3c-3.2,1.5-5.8,4.1-7.5,7.3c-0.2,0.3,0,0.7,0.3,0.9
			c0.3,0.2,0.7,0,0.9-0.3c1.5-2.9,3.9-5.2,6.9-6.7C18.5,11,18.6,10.6,18.4,10.3z"/>
		<path id="Caminho_5" class="st0" d="M9.7,19.8c-0.4-0.1-0.7,0.1-0.8,0.5c-0.4,1.4-0.6,2.9-0.6,4.4c0,0.4,0.3,0.7,0.7,0.7
			c0.4,0,0.7-0.3,0.7-0.7c0-1.4,0.2-2.7,0.6-4C10.2,20.3,10,19.9,9.7,19.8z"/>
		<path id="Caminho_6" class="st0" d="M28.5,39.2c-1.3,0.3-2.6,0.5-3.9,0.5c-0.4,0-0.7,0.3-0.7,0.7c0,0.4,0.3,0.7,0.7,0.7
			c0,0,0,0,0,0c1.4,0,2.9-0.2,4.3-0.6c0.4-0.1,0.6-0.5,0.5-0.8C29.3,39.4,28.9,39.1,28.5,39.2L28.5,39.2L28.5,39.2z"/>
		<path id="Caminho_7" class="st0" d="M39.2,30.7c-0.3-0.2-0.7,0-0.9,0.3c0,0,0,0,0,0c-1.4,3-3.8,5.4-6.7,7
			c-0.3,0.2-0.5,0.6-0.3,0.9c0.2,0.3,0.6,0.5,0.9,0.3c3.2-1.7,5.8-4.3,7.3-7.6C39.7,31.3,39.5,30.9,39.2,30.7
			C39.2,30.7,39.2,30.7,39.2,30.7z"/>
		<path id="Caminho_8" class="st0" d="M40.3,24.1L40.3,24.1c-0.4,0-0.7,0.3-0.7,0.7c0,1.2-0.1,2.3-0.4,3.4c-0.1,0.4,0.2,0.7,0.5,0.8
			c0.4,0.1,0.7-0.1,0.8-0.5c0.3-1.2,0.4-2.5,0.4-3.8C41,24.4,40.7,24.1,40.3,24.1L40.3,24.1z"/>
	</g>
</g>
</svg>
