<?xml version="1.0" encoding="utf-8"?>
<!-- Generator: Adobe Illustrator 24.1.0, SVG Export Plug-In . SVG Version: 6.00 Build 0)  -->
<svg version="1.1" id="Camada_1" xmlns="http://www.w3.org/2000/svg" xmlns:xlink="http://www.w3.org/1999/xlink" x="0px" y="0px"
	 viewBox="0 0 118 112" style="enable-background:new 0 0 118 112;" xml:space="preserve">
<style type="text/css">
	.st0{opacity:0.11;fill:#00306B;enable-background:new    ;}
	.st1{fill:#59A1F4;}
	.st2{fill:#2C78C4;}
	.st3{fill:#FFFFFF;}
	.st4{fill:#4369FD;}
	.st5{fill:#ABD5FF;}
	.st6{fill:#87C3F4;}
	.st7{fill:#1868AA;}
	.st8{fill:#00306B;}
</style>
<g>
	<path class="st0" d="M89.4,52.5c-0.2-0.2-0.4-0.4-0.6-0.7c-2.1-2-5-3.2-8.2-3.2H60.2V10.4c0-1.2-0.9-2.1-2.1-2.1H23
		c-1.2,0-2.1,0.9-2.1,2.1v38.3h-0.8c-2.8,0-5.1,2.3-5.1,5.1v51.3c0,2.8,2.3,5.1,5.1,5.1h60.5c6.7,0,12-5.4,12-12V60.7
		C92.6,57.5,91.4,54.7,89.4,52.5L89.4,52.5z"/>
	<path class="st1" d="M65.3,5.3v53.4H26V5.3c0-1.2,0.9-2.1,2.1-2.1h35.1C64.4,3.2,65.3,4.1,65.3,5.3z"/>
	<path class="st2" d="M65.3,14.1v44.6H42.7V16.2c0-1.2,0.9-2.1,2.1-2.1H65.3z"/>
	<path class="st3" d="M85.9,13.4v45.3H46.6V13.4c0-1.2,0.9-2.1,2.1-2.1h35.1C84.9,11.3,85.9,12.3,85.9,13.4z"/>
	<path class="st2" d="M97.7,55.6v37.5c0,6.7-5.4,12-12,12H36.3c-2.8,0-5.1-2.3-5.1-5.1V48.7c0-2.8,2.3-5.1,5.1-5.1h49.3
		c3.2,0,6.1,1.2,8.2,3.2c0.2,0.2,0.4,0.4,0.6,0.7C96.5,49.6,97.7,52.5,97.7,55.6L97.7,55.6z"/>
	<path class="st4" d="M97.7,66.6v22.8H71.9c-1.4,0-2.6-1.1-2.6-2.6V69.1c0-1.4,1.2-2.6,2.6-2.6L97.7,66.6L97.7,66.6z"/>
	<path class="st5" d="M20,100c0,2.8,2.3,5.1,5.1,5.1h49.3c6.7,0,12-5.4,12-12V55.6c0-6.7-5.4-12-12-12H25.1c-2.8,0-5.1,2.3-5.1,5.1
		L20,100L20,100z"/>
	<path class="st6" d="M86.5,66.6v22.8H71.9c-1.4,0-2.6-1.1-2.6-2.6V69.1c0-1.4,1.2-2.6,2.6-2.6L86.5,66.6L86.5,66.6z"/>
	<path class="st2" d="M99.6,85.8H71.9c-1.4,0-2.6-1.2-2.6-2.6V65.5c0-1.4,1.2-2.6,2.6-2.6h27.7c1.4,0,2.6,1.2,2.6,2.6v17.7
		C102.1,84.6,101,85.8,99.6,85.8z"/>
	<path class="st7" d="M102.1,65.5v17.7c0,1.4-1.2,2.6-2.6,2.6h-3.8c1.4,0,2.6-1.2,2.6-2.6V65.5c0-1.4-1.2-2.6-2.6-2.6h3.8
		C101,63,102.1,64.1,102.1,65.5z"/>
	<path class="st1" d="M90.1,85.8H71.9c-1.4,0-2.6-1.2-2.6-2.6V65.5c0-1.4,1.2-2.6,2.6-2.6h18.2c1.4,0,2.6,1.2,2.6,2.6v17.7
		C92.7,84.6,91.5,85.8,90.1,85.8L90.1,85.8z"/>
	<path class="st2" d="M92.7,65.5v17.7c0,1.4-1.2,2.6-2.6,2.6h-3.8c1.4,0,2.6-1.2,2.6-2.6V65.5c0-1.4-1.2-2.6-2.6-2.6h3.8
		C91.5,63,92.7,64.1,92.7,65.5z"/>
	<path class="st1" d="M50.8,64.7H29.4c-0.9,0-1.6-0.7-1.6-1.6v-5c0-0.9,0.7-1.6,1.6-1.6h21.3c0.9,0,1.6,0.7,1.6,1.6v5
		C52.3,64,51.6,64.7,50.8,64.7z"/>
	<path class="st2" d="M40.4,72.7H29.4c-0.9,0-1.6-0.7-1.6-1.6v-1.2c0-0.9,0.7-1.6,1.6-1.6h10.9c0.9,0,1.6,0.7,1.6,1.6v1.2
		C42,72,41.3,72.7,40.4,72.7z"/>
	<path class="st1" d="M42.3,53.5H29.6c-1,0-1.7-0.8-1.7-1.7c0-1,0.8-1.7,1.7-1.7h12.7c1,0,1.7,0.8,1.7,1.7
		C44,52.7,43.3,53.5,42.3,53.5z"/>
	<path class="st2" d="M79.5,69.7h-4c-0.7,0-1.4-0.6-1.4-1.4c0-0.7,0.6-1.4,1.4-1.4h4c0.7,0,1.4,0.6,1.4,1.4
		C80.9,69.1,80.3,69.7,79.5,69.7z"/>
	<g>
		<path class="st5" d="M75.5,25.7c-0.3,0-0.6-0.1-0.8-0.4c-0.5-0.5-0.5-1.2,0-1.7l4.3-4.3c0.5-0.5,1.2-0.5,1.7,0
			c0.5,0.5,0.5,1.2,0,1.7l-4.3,4.3C76.1,25.6,75.8,25.7,75.5,25.7z"/>
		<path class="st5" d="M69.1,25.7c-0.3,0-0.6-0.1-0.8-0.4c-0.5-0.5-0.5-1.2,0-1.7l4.3-4.3c0.5-0.5,1.2-0.5,1.7,0
			c0.5,0.5,0.5,1.2,0,1.7L70,25.4C69.7,25.6,69.4,25.7,69.1,25.7z"/>
		<path class="st5" d="M75.5,34.3c-0.3,0-0.6-0.1-0.8-0.4c-0.5-0.5-0.5-1.2,0-1.7l4.3-4.3c0.5-0.5,1.2-0.5,1.7,0
			c0.5,0.5,0.5,1.2,0,1.7l-4.3,4.3C76.1,34.2,75.8,34.3,75.5,34.3L75.5,34.3z"/>
		<path class="st5" d="M69.1,34.3c-0.3,0-0.6-0.1-0.8-0.4c-0.5-0.5-0.5-1.2,0-1.7l4.3-4.3c0.5-0.5,1.2-0.5,1.7,0
			c0.5,0.5,0.5,1.2,0,1.7L70,33.9C69.7,34.2,69.4,34.3,69.1,34.3L69.1,34.3z"/>
	</g>
	<path class="st3" d="M37.4,13.8h-0.3v-2.2h1.4c0.7,0,1.2-0.5,1.2-1.2s-0.5-1.2-1.2-1.2h-1.4V8.6c0-0.7-0.5-1.2-1.2-1.2
		s-1.2,0.5-1.2,1.2v0.5h-0.3c-2,0-3.5,1.6-3.5,3.5s1.6,3.5,3.5,3.5h0.3v2.2h-1.4c-0.7,0-1.2,0.5-1.2,1.2c0,0.7,0.5,1.2,1.2,1.2h1.4
		v0.5c0,0.7,0.5,1.2,1.2,1.2s1.2-0.5,1.2-1.2v-0.5h0.3c2,0,3.5-1.6,3.5-3.5C40.9,15.4,39.3,13.8,37.4,13.8z M34.4,13.8
		c-0.6,0-1.1-0.5-1.1-1.1c0-0.6,0.5-1.1,1.1-1.1h0.3v2.2L34.4,13.8L34.4,13.8z M37.4,18.4h-0.3v-2.2h0.3c0.6,0,1.1,0.5,1.1,1.1
		C38.5,17.9,38,18.4,37.4,18.4z"/>
	<path class="st8" d="M99.6,61.8H87.7v-6.1c0-4.5-2.2-8.4-5.6-10.8h3.6c6,0,10.8,4.9,10.8,10.8v0.6c0,0.7,0.5,1.2,1.2,1.2
		c0.7,0,1.2-0.5,1.2-1.2v-0.6c0-6.8-5.2-12.5-11.8-13.2v-29c0-1.8-1.5-3.3-3.3-3.3H66.5V5.3C66.5,3.5,65,2,63.2,2H40.9
		c-0.7,0-1.2,0.5-1.2,1.2s0.5,1.2,1.2,1.2h22.3c0.5,0,0.9,0.4,0.9,0.9v4.8H48.7c-1.8,0-3.3,1.5-3.3,3.3v29H27.2V5.3
		c0-0.5,0.4-0.9,0.9-0.9h6c0.7,0,1.2-0.5,1.2-1.2S34.8,2,34.1,2h-6c-1.8,0-3.3,1.5-3.3,3.3v37.1c-3.3,0.2-6,2.9-6,6.3V100
		c0,3.5,2.8,6.3,6.3,6.3h60.5c7.3,0,13.2-5.9,13.2-13.2V87h0.7c2.1,0,3.8-1.7,3.8-3.8V65.5C103.3,63.4,101.6,61.8,99.6,61.8
		L99.6,61.8z M91.5,65.5v17.7c0,0.7-0.6,1.3-1.3,1.3H71.9c-0.7,0-1.3-0.6-1.3-1.3V65.5c0-0.7,0.6-1.3,1.3-1.3h18.2
		C90.9,64.2,91.5,64.8,91.5,65.5L91.5,65.5z M47.8,13.4c0-0.5,0.4-0.9,0.9-0.9h35.1c0.5,0,0.9,0.4,0.9,0.9v29H47.8L47.8,13.4
		L47.8,13.4z M25.1,103.9c-2.2,0-3.9-1.8-3.9-3.9V48.7c0-2.2,1.8-3.9,3.9-3.9h49.3c6,0,10.8,4.9,10.8,10.8v6.1H71.9
		c-2.1,0-3.8,1.7-3.8,3.8v17.7c0,2.1,1.7,3.8,3.8,3.8h13.4v6.1c0,6-4.9,10.8-10.8,10.8L25.1,103.9L25.1,103.9z M96.5,93.1
		c0,6-4.9,10.8-10.8,10.8h-3.6c3.4-2.4,5.6-6.4,5.6-10.8V87h8.8V93.1L96.5,93.1z M100.9,83.2c0,0.7-0.6,1.3-1.3,1.3h-6
		c0.2-0.4,0.3-0.9,0.3-1.3V65.5c0-0.5-0.1-0.9-0.3-1.3h6c0.7,0,1.3,0.6,1.3,1.3V83.2z"/>
	<rect x="49.9" y="12.6" class="st5" width="11.2" height="29.8"/>
</g>
</svg>
