<?xml version="1.0" encoding="utf-8"?>
<!-- Generator: Adobe Illustrator 24.1.0, SVG Export Plug-In . SVG Version: 6.00 Build 0)  -->
<svg version="1.1" id="Camada_1" xmlns="http://www.w3.org/2000/svg" xmlns:xlink="http://www.w3.org/1999/xlink" x="0px" y="0px"
	 viewBox="0 0 118 112" style="enable-background:new 0 0 118 112;" xml:space="preserve">
<style type="text/css">
	.st0{opacity:0.11;fill:#00306B;enable-background:new    ;}
	.st1{fill:#FFFFFF;}
	.st2{fill:#2C78C4;}
	.st3{fill:#59A1F4;}
	.st4{fill:#ABD5FF;}
	.st5{fill:#87C3F4;}
	.st6{fill:#1965A3;}
	.st7{fill:#19609B;}
	.st8{fill:#D2EBFF;}
	.st9{fill:#2626BC;}
	.st10{fill:#00306B;}
</style>
<g>
	<path class="st0" d="M108.9,37.8H93v-5.1c0-2.8-2.3-5.1-5-5.1H24.7V25c0-1.3-1.1-2.4-2.4-2.4H3.4C2.1,22.6,1,23.6,1,25v18.9
		c0,1.3,1.1,2.4,2.4,2.4H18v33.2h-5c-1.7,0-3,1.4-3,3v2.8c0,2.9,2.4,5.3,5.3,5.3h80.5c2.9,0,5.3-2.4,5.3-5.3v-2.8c0-1.7-1.4-3-3-3
		h-5v-18h15.9c1.3,0,2.4-1.1,2.4-2.4V40.2C111.4,38.9,110.3,37.8,108.9,37.8L108.9,37.8z"/>
	<path class="st1" d="M97.4,28.4V79c0,0.7-0.5,1.2-1.2,1.2H22.4V28.4c0-2.8,2.3-5,5-5h64.9C95.1,23.3,97.4,25.6,97.4,28.4L97.4,28.4
		z"/>
	<path class="st2" d="M68.1,54.4c-0.3,0-0.7-0.1-0.9-0.4l-7.3-8.5L52.5,54c-0.4,0.5-1.2,0.6-1.7,0.1c-0.5-0.4-0.6-1.2-0.1-1.7
		l8.2-9.6c0.2-0.3,0.6-0.4,0.9-0.4c0.4,0,0.7,0.1,0.9,0.4l8.2,9.6c0.4,0.5,0.4,1.3-0.1,1.7C68.7,54.3,68.4,54.4,68.1,54.4z"/>
	<g>
		<circle class="st3" cx="78.8" cy="45.3" r="1.4"/>
		<circle class="st3" cx="82.9" cy="45.3" r="1.4"/>
		<circle class="st3" cx="87" cy="45.3" r="1.4"/>
		<circle class="st3" cx="78.8" cy="49.5" r="1.4"/>
		<circle class="st3" cx="82.9" cy="49.5" r="1.4"/>
		<circle class="st3" cx="87" cy="49.5" r="1.4"/>
	</g>
	<path class="st3" d="M72.1,65.3H47.7c-0.7,0-1.2-0.5-1.2-1.2v-9.7c0-0.7,0.5-1.2,1.2-1.2h24.4c0.7,0,1.2,0.5,1.2,1.2v9.7
		C73.3,64.8,72.7,65.3,72.1,65.3z"/>
	<path class="st4" d="M29.1,24.5v18.9c0,1.3-1.1,2.4-2.4,2.4h-4.3V28.4c0-2.8,2.3-5,5-5h1.3C28.9,23.7,29.1,24.1,29.1,24.5z"/>
	<path class="st4" d="M97.4,37.3V61h-3C93.1,61,92,60,92,58.6V39.7c0-1.3,1.1-2.4,2.4-2.4H97.4z"/>
	<path class="st4" d="M97.4,28.4v11c-1.6,1.5-3.8,2.5-6.3,2.5s-4.6-0.9-6.3-2.5c-1.6,1.5-3.8,2.5-6.3,2.5s-4.6-0.9-6.3-2.5
		c-1.6,1.5-3.8,2.5-6.3,2.5c-2.4,0-4.6-0.9-6.3-2.5c-1.6,1.5-3.8,2.5-6.3,2.5s-4.6-0.9-6.3-2.5c-1.6,1.5-3.8,2.5-6.3,2.5
		s-4.6-0.9-6.3-2.5c-1.6,1.5-3.8,2.5-6.3,2.5s-4.6-0.9-6.3-2.5v-11c0-2.8,2.3-5,5-5h64.9C95.1,23.3,97.4,25.6,97.4,28.4L97.4,28.4z"
		/>
	<path class="st3" d="M97.4,69.2V79c0,0.7-0.5,1.2-1.2,1.2H22.4V69.2H97.4z"/>
	<path class="st4" d="M105.4,78.2V81c0,2.9-2.4,5.3-5.3,5.3H19.6c-2.9,0-5.3-2.4-5.3-5.3v-2.8c0-1.7,1.4-3,3-3h26
		c0.4,0,0.8,0.2,1.1,0.7l1.6,3c0.2,0.4,0.6,0.7,1.1,0.7h25.7c0.4,0,0.8-0.2,1.1-0.7l1.6-3c0.2-0.4,0.6-0.7,1.1-0.7h26
		C104.1,75.2,105.4,76.5,105.4,78.2L105.4,78.2z"/>
	<path class="st2" d="M96.1,79.6H85.6c-0.7,0-1.2-0.5-1.2-1.2v-3.2h12.9v3.2C97.3,79,96.8,79.6,96.1,79.6z"/>
	<path class="st5" d="M105.4,78.2V81c0,2.9-2.4,5.3-5.3,5.3h-3.6c2.9,0,5.3-2.4,5.3-5.3v-2.8c0-1.7-1.4-3-3-3h3.6
		C104.1,75.2,105.4,76.5,105.4,78.2z"/>
	<path class="st2" d="M34.1,79.6H23.6c-0.7,0-1.2-0.5-1.2-1.2v-3.2h12.9v3.2C35.3,79,34.8,79.6,34.1,79.6L34.1,79.6z"/>
	<path class="st3" d="M28.6,38.9c-3.4,0-6.3-2.8-6.3-6.3v-4.3c0-2.8,2.3-5,5-5h7.4v9.4C34.9,36.1,32.1,38.9,28.6,38.9z"/>
	<path class="st2" d="M41.1,38.9c-3.4,0-6.3-2.8-6.3-6.3v-9.4h12.5v9.4C47.4,36.1,44.6,38.9,41.1,38.9z"/>
	<path class="st6" d="M47.4,23.3v9.4c0,3.4-2.8,6.3-6.3,6.3c-0.5,0-1.1-0.1-1.6-0.2c2.7-0.7,4.7-3.2,4.7-6.1v-9.4H47.4z"/>
	<path class="st3" d="M53.6,38.9c-3.4,0-6.3-2.8-6.3-6.3v-9.4h12.5v9.4C59.9,36.1,57.1,38.9,53.6,38.9z"/>
	<path class="st2" d="M66.1,38.9c-3.4,0-6.3-2.8-6.3-6.3v-9.4h12.5v9.4C72.4,36.1,69.6,38.9,66.1,38.9L66.1,38.9z"/>
	<path class="st6" d="M72.4,23.3v9.4c0,3.4-2.8,6.3-6.3,6.3c-0.5,0-1.1-0.1-1.6-0.2c2.7-0.7,4.7-3.2,4.7-6.1v-9.4H72.4z"/>
	<path class="st3" d="M78.6,38.9c-3.4,0-6.3-2.8-6.3-6.3v-9.4h12.5v9.4C84.9,36.1,82.1,38.9,78.6,38.9L78.6,38.9z"/>
	<path class="st2" d="M91.1,38.9c-3.4,0-6.3-2.8-6.3-6.3v-9.4h7.4c2.8,0,5.1,2.3,5.1,5.1v4.3C97.4,36.1,94.6,38.9,91.1,38.9
		L91.1,38.9z"/>
	<path class="st6" d="M97.4,28.4v4.3c0,3.4-2.8,6.3-6.3,6.3c-0.5,0-1.1-0.1-1.6-0.2c2.7-0.7,4.7-3.2,4.7-6.1v-4.3c0-2.8-2.3-5-5.1-5
		h3.1C95.1,23.3,97.4,25.6,97.4,28.4z"/>
	<path class="st3" d="M26.6,42H7.8c-1.3,0-2.4-1.1-2.4-2.4V20.6c0-1.3,1.1-2.4,2.4-2.4h18.9c1.3,0,2.4,1.1,2.4,2.4v18.9
		C29.1,40.9,28,42,26.6,42z"/>
	<path class="st2" d="M29.1,20.6v18.9c0,1.3-1.1,2.4-2.4,2.4h-4c1.3,0,2.4-1.1,2.4-2.4V20.6c0-1.3-1.1-2.4-2.4-2.4h4
		C28,18.2,29.1,19.3,29.1,20.6z"/>
	<path class="st2" d="M113.3,57.2H94.4c-1.3,0-2.4-1.1-2.4-2.4V35.9c0-1.3,1.1-2.4,2.4-2.4h18.9c1.3,0,2.4,1.1,2.4,2.4v18.9
		C115.7,56.1,114.6,57.2,113.3,57.2z"/>
	<path class="st7" d="M115.7,35.9v18.9c0,1.3-1.1,2.4-2.4,2.4h-4c1.3,0,2.4-1.1,2.4-2.4V35.9c0-1.3-1.1-2.4-2.4-2.4h4
		C114.6,33.4,115.7,34.5,115.7,35.9z"/>
	<path class="st4" d="M72.1,63.5H47.7c-0.7,0-1.2-0.5-1.2-1.2v-9.7c0-0.7,0.5-1.2,1.2-1.2h24.4c0.7,0,1.2,0.5,1.2,1.2v9.7
		C73.3,63,72.7,63.5,72.1,63.5z"/>
	<path class="st8" d="M50.3,60.9h1.5c0.7,0,1.2-0.5,1.2-1.2v-4.5c0-0.7-0.5-1.2-1.2-1.2h-1.5c-0.7,0-1.2,0.5-1.2,1.2v4.5
		C49.1,60.4,49.7,60.9,50.3,60.9z"/>
	<path class="st8" d="M56.2,60.9h1.5c0.7,0,1.2-0.5,1.2-1.2v-4.5c0-0.7-0.5-1.2-1.2-1.2h-1.5c-0.7,0-1.2,0.5-1.2,1.2v4.5
		C55,60.4,55.5,60.9,56.2,60.9L56.2,60.9z"/>
	<path class="st8" d="M62.1,60.9h1.5c0.7,0,1.2-0.5,1.2-1.2v-4.5c0-0.7-0.5-1.2-1.2-1.2h-1.5c-0.7,0-1.2,0.5-1.2,1.2v4.5
		C60.8,60.4,61.4,60.9,62.1,60.9z"/>
	<path class="st8" d="M67.9,60.9h1.5c0.7,0,1.2-0.5,1.2-1.2v-4.5c0-0.7-0.5-1.2-1.2-1.2h-1.5c-0.7,0-1.2,0.5-1.2,1.2v4.5
		C66.7,60.4,67.2,60.9,67.9,60.9z"/>
	<path class="st2" d="M33.2,52.6h-3.3c-0.7,0-1.2-0.5-1.2-1.2c0-0.7,0.5-1.2,1.2-1.2h3.3c0.7,0,1.2,0.5,1.2,1.2
		C34.4,52.1,33.9,52.6,33.2,52.6z"/>
	<path class="st2" d="M39.9,59.2h-10c-0.7,0-1.2-0.5-1.2-1.2c0-0.7,0.5-1.2,1.2-1.2h10c0.7,0,1.2,0.5,1.2,1.2
		C41.1,58.6,40.6,59.2,39.9,59.2z"/>
	<path class="st2" d="M39.9,63.1h-10c-0.7,0-1.2-0.5-1.2-1.2c0-0.7,0.5-1.2,1.2-1.2h10c0.7,0,1.2,0.5,1.2,1.2
		C41.1,62.5,40.6,63.1,39.9,63.1z"/>
	<path class="st1" d="M18.8,28.9h-0.4v-2.5H20c0.7,0,1.2-0.5,1.2-1.2c0-0.7-0.5-1.2-1.2-1.2h-1.6v-0.6c0-0.7-0.5-1.2-1.2-1.2
		S16,22.6,16,23.3V24h-0.4c-2,0-3.7,1.6-3.7,3.7s1.6,3.7,3.7,3.7H16v2.5h-1.6c-0.7,0-1.2,0.5-1.2,1.2s0.5,1.2,1.2,1.2H16v0.6
		c0,0.7,0.5,1.2,1.2,1.2s1.2-0.5,1.2-1.2v-0.6h0.4c2,0,3.7-1.6,3.7-3.7C22.5,30.5,20.8,28.9,18.8,28.9z M15.6,28.9
		c-0.7,0-1.2-0.6-1.2-1.2s0.6-1.2,1.2-1.2H16v2.5L15.6,28.9L15.6,28.9z M18.8,33.8h-0.4v-2.5h0.4c0.7,0,1.2,0.6,1.2,1.2
		C20,33.2,19.5,33.8,18.8,33.8z"/>
	<path class="st9" d="M62,73h-4.2c-0.7,0-1.2,0.5-1.2,1.2c0,0.7,0.5,1.2,1.2,1.2H62c0.7,0,1.2-0.5,1.2-1.2C63.2,73.6,62.6,73,62,73z
		"/>
	<path class="st10" d="M113.3,32.2H98.6v-3.9l0,0c0-3.5-2.8-6.3-6.3-6.3l0,0h-62v-1.5c0-2-1.6-3.6-3.6-3.6H7.8c-2,0-3.6,1.6-3.6,3.6
		v18.9c0,2,1.6,3.6,3.6,3.6h13.4v19.2c0,0.7,0.5,1.2,1.2,1.2s1.2-0.5,1.2-1.2V43.2h3.1c1.9,0,3.4-1.4,3.6-3.2
		c1.9-0.4,3.6-1.6,4.6-3.2c1.3,2,3.6,3.4,6.3,3.4s4.9-1.4,6.3-3.4c1.3,2,3.6,3.4,6.3,3.4s4.9-1.4,6.3-3.4c1.3,2,3.6,3.4,6.3,3.4
		s4.9-1.4,6.3-3.4c1.3,2,3.6,3.4,6.3,3.4c2.6,0,4.9-1.4,6.3-3.4c1.3,1.9,3.4,3.3,5.9,3.4v14.6c0,2,1.6,3.6,3.6,3.6h1.8V68H22.4l0,0
		c-0.7,0-1.2,0.5-1.2,1.2V74h-3.8c-2.3,0-4.2,1.9-4.2,4.2V81c0,3.6,2.9,6.5,6.5,6.5h80.5c3.6,0,6.5-2.9,6.5-6.5v-2.8
		c0-2.3-1.9-4.2-4.2-4.2h-3.9V58.4h14.7c2,0,3.6-1.6,3.6-3.6V35.9C116.9,33.9,115.3,32.2,113.3,32.2L113.3,32.2z M94.4,74
		c-0.7,0-1.2,0.5-1.2,1.2c0,0.7,0.5,1.2,1.2,1.2h1.7v2H85.6v-2h2c0.7,0,1.2-0.5,1.2-1.2c0-0.7-0.5-1.2-1.2-1.2H76.5
		c-0.9,0-1.7,0.5-2.1,1.3l-1.6,3H47l-1.6-3C45,74.5,44.2,74,43.3,74H23.6v-3.6h72.6V74H94.4z M34.1,78.4H23.6v-2h10.5V78.4z
		 M104.2,78.2V81c0,2.3-1.8,4.1-4.1,4.1H19.6c-2.3,0-4.1-1.8-4.1-4.1v-2.8c0-1,0.8-1.8,1.8-1.8h3.8v2c0,1.3,1.1,2.4,2.4,2.4h10.5
		c1.3,0,2.4-1.1,2.4-2.4v-2h6.8l1.6,3c0.4,0.8,1.2,1.3,2.1,1.3h25.7c0.9,0,1.7-0.5,2.1-1.3l1.6-3h6.7v2c0,1.3,1.1,2.4,2.4,2.4h10.5
		c1.3,0,2.4-1.1,2.4-2.4v-2h3.9C103.4,76.4,104.2,77.2,104.2,78.2L104.2,78.2z M27.9,39.5c0,0.7-0.5,1.2-1.2,1.2H7.8
		c-0.7,0-1.2-0.5-1.2-1.2V20.6c0-0.7,0.5-1.2,1.2-1.2h18.9c0.7,0,1.2,0.5,1.2,1.2V39.5z M30.3,37.4V24.5h3.4v8.1
		C33.7,34.8,32.2,36.7,30.3,37.4z M41.1,37.7c-2.8,0-5-2.3-5-5v-8.1h10.1v8.1C46.2,35.4,43.9,37.7,41.1,37.7z M53.6,37.7
		c-2.8,0-5-2.3-5-5v-8.1h10.1v8.1C58.6,35.4,56.4,37.7,53.6,37.7L53.6,37.7z M66.1,37.7c-2.8,0-5-2.3-5-5v-8.1h10.1v8.1
		C71.2,35.4,68.9,37.7,66.1,37.7L66.1,37.7z M78.6,37.7c-2.8,0-5-2.3-5-5v-8.1h10.1v8.1C83.7,35.4,81.4,37.7,78.6,37.7L78.6,37.7z
		 M86.1,32.7v-8.1h6.2c2.1,0,3.9,1.7,3.9,3.9v3.9h-1.8c-2,0-3.6,1.6-3.6,3.6v1.8C88.2,37.5,86.1,35.3,86.1,32.7L86.1,32.7z
		 M114.5,54.8c0,0.7-0.5,1.2-1.2,1.2H94.4c-0.7,0-1.2-0.5-1.2-1.2V35.9c0-0.7,0.5-1.2,1.2-1.2h18.9c0.7,0,1.2,0.5,1.2,1.2V54.8z"/>
	<path class="st4" d="M99.7,44.3c-1.7,0-3.2-1.4-3.2-3.2c0-1.7,1.4-3.2,3.2-3.2c1.7,0,3.2,1.4,3.2,3.2
		C102.8,42.9,101.4,44.3,99.7,44.3z M99.7,40.4c-0.4,0-0.7,0.3-0.7,0.7c0,0.4,0.3,0.7,0.7,0.7c0.4,0,0.7-0.3,0.7-0.7
		C100.4,40.8,100.1,40.4,99.7,40.4z"/>
	<path class="st4" d="M108,52.6c-1.7,0-3.2-1.4-3.2-3.2c0-1.7,1.4-3.2,3.2-3.2s3.2,1.4,3.2,3.2C111.2,51.2,109.7,52.6,108,52.6z
		 M108,48.8c-0.4,0-0.7,0.3-0.7,0.7c0,0.4,0.3,0.7,0.7,0.7c0.4,0,0.7-0.3,0.7-0.7C108.7,49.1,108.4,48.8,108,48.8z"/>
	<path class="st4" d="M100.4,50c-0.3,0-0.6-0.1-0.8-0.4c-0.5-0.5-0.5-1.2,0-1.7l6.9-6.9c0.5-0.5,1.2-0.5,1.7,0
		c0.5,0.5,0.5,1.2,0,1.7l-6.9,6.9C101,49.8,100.7,50,100.4,50z"/>
</g>
</svg>
