<?xml version="1.0" encoding="utf-8"?>
<!-- Generator: Adobe Illustrator 24.1.0, SVG Export Plug-In . SVG Version: 6.00 Build 0)  -->
<svg version="1.1" id="Camada_1" xmlns="http://www.w3.org/2000/svg" xmlns:xlink="http://www.w3.org/1999/xlink" x="0px" y="0px"
	 viewBox="0 0 118 112" style="enable-background:new 0 0 118 112;" xml:space="preserve">
<style type="text/css">
	.st0{opacity:0.11;fill:#00306B;enable-background:new    ;}
	.st1{fill:#ABD5FF;}
	.st2{fill:#87C3F4;}
	.st3{fill:#59A1F4;}
	.st4{fill:#2C78C4;}
	.st5{fill:#FFFFFF;}
	.st6{fill:#E0EFFC;}
	.st7{fill:#00306B;}
</style>
<g>
	<path class="st0" d="M109.1,35.8H8.1c-2.3,0-4.2,1.9-4.2,4.2v56.9c0,2.3,1.9,4.2,4.2,4.2h35.2v6.6c0,1.1,1.3,1.8,2.2,1.1l3.7-2.5
		l3.7,2.5c0.9,0.6,2.2,0,2.2-1.1v-6.6h10.2v4.4c0,0.8,0.6,1.4,1.4,1.4H96c0.8,0,1.4-0.6,1.4-1.4v-4.4h11.7c2.3,0,4.2-1.9,4.2-4.2V40
		C113.3,37.7,111.4,35.8,109.1,35.8L109.1,35.8z"/>
	<path class="st1" d="M113.3,32.5v56.9c0,2.3-1.9,4.2-4.2,4.2H8.1c-2.3,0-4.2-1.9-4.2-4.2V32.5c0-2.3,1.9-4.2,4.2-4.2h101
		C111.4,28.3,113.3,30.2,113.3,32.5L113.3,32.5z"/>
	<path class="st2" d="M104,28.3v58.6c0,1.5-1.3,2.8-2.8,2.8H61.4c-0.8,0-1.5-0.3-2-0.8c-0.5-0.5-0.8-1.2-0.8-2
		c0,1.5-1.3,2.8-2.8,2.8H15.9c-1.5,0-2.8-1.3-2.8-2.8V28.3H104z"/>
	<g>
		<path class="st3" d="M113.3,80.6H3.9V32.4c0-2.3,1.9-4.2,4.2-4.2h101c2.3,0,4.2,1.9,4.2,4.2V80.6z"/>
	</g>
	<path class="st3" d="M55.1,82.9v17.2c0,1.1-1.3,1.8-2.2,1.1l-3.7-2.5l-3.7,2.5c-0.9,0.6-2.2,0-2.2-1.1V82.9H55.1z"/>
	<path class="st4" d="M43.3,82.9h11.8v6.8H43.3V82.9z"/>
	<path class="st5" d="M58.6,29.2V82c0,1.5-1.3,2.8-2.8,2.8H15.9c-1.5,0-2.8-1.3-2.8-2.8V25c0-1.5,1.3-2.8,2.8-2.8h35.7
		C55.5,22.2,58.6,25.3,58.6,29.2z"/>
	<path class="st6" d="M40,77.1h-8.2c-1.5,0-2.8-1.3-2.8-2.8V19.7c0-1.3,0.5-2.6,1.3-3.6l4.5-5.4c0.6-0.7,1.6-0.7,2.1,0l4.5,5.4
		c0.8,1,1.3,2.3,1.3,3.6v54.6C42.7,75.9,41.5,77.1,40,77.1L40,77.1z"/>
	<path class="st3" d="M51.7,66.2H20.1c-0.8,0-1.4-0.6-1.4-1.4s0.6-1.4,1.4-1.4h31.6c0.8,0,1.4,0.6,1.4,1.4S52.5,66.2,51.7,66.2z"/>
	<g>
		<path class="st3" d="M51.7,71.7H20.1c-0.8,0-1.4-0.6-1.4-1.4c0-0.8,0.6-1.4,1.4-1.4h31.6c0.8,0,1.4,0.6,1.4,1.4
			C53.1,71,52.5,71.7,51.7,71.7z"/>
	</g>
	<g>
		<path class="st3" d="M53.1,75.7c0,0.8-0.6,1.4-1.4,1.4H20.1c-0.8,0-1.4-0.6-1.4-1.4c0-0.8,0.6-1.4,1.4-1.4h31.6
			C52.5,74.3,53.1,75,53.1,75.7z"/>
	</g>
	<path class="st4" d="M42.7,74.3L42.7,74.3c0,1.5-1.1,2.7-2.5,2.8c-0.1,0-0.2,0-0.3,0h-8.2c-0.1,0-0.2,0-0.3,0
		C30.1,77,29,75.8,29,74.3l0,0H42.7z"/>
	<path class="st1" d="M51.6,59.3H20.2c-0.8,0-1.4-0.6-1.4-1.4V29.5c0-0.8,0.6-1.4,1.4-1.4h31.4c0.8,0,1.4,0.6,1.4,1.4v28.4
		C53,58.6,52.3,59.3,51.6,59.3z"/>
	<path class="st5" d="M61.4,84.8h39.9c1.5,0,2.8-1.3,2.8-2.8V25c0-1.5-1.3-2.8-2.8-2.8H65.6c-3.8,0-7,3.1-7,7V82
		C58.6,83.5,59.8,84.8,61.4,84.8z"/>
	<g>
		<path class="st1" d="M58.6,63.5V82c0,1.5,1.3,2.8,2.8,2.8h39.9c1.5,0,2.8-1.3,2.8-2.8V63.5H58.6z"/>
		<path class="st1" d="M98.4,42V29.5c0-0.8-0.6-1.4-1.4-1.4H65.6c-0.8,0-1.4,0.6-1.4,1.4V42c0,0.8,0.6,1.4,1.4,1.4H97
			C97.8,43.4,98.4,42.8,98.4,42z"/>
	</g>
	<path class="st3" d="M96,99.3H66.6c-0.8,0-1.4-0.6-1.4-1.4V71.7c0-0.8,32.1-0.8,32.1,0v26.2C97.4,98.6,96.7,99.3,96,99.3z"/>
	<path class="st2" d="M97.4,78.3v-6.6c0-0.8-0.6-1.4-1.4-1.4H66.6c-0.8,0-1.4,0.6-1.4,1.4v6.6H97.4z"/>
	<path class="st5" d="M77.6,84.3v6.8c0,0.6,0.7,1.1,1.3,0.7l5.8-3.4c0.6-0.3,0.6-1.1,0-1.5l-5.8-3.4C78.3,83.3,77.6,83.7,77.6,84.3z
		"/>
	<g>
		<circle class="st3" cx="70.7" cy="75.1" r="1"/>
		<circle class="st3" cx="73.8" cy="75.1" r="1"/>
		<circle class="st3" cx="76.9" cy="75.1" r="1"/>
	</g>
	<path class="st2" d="M40,71.2h-8.2c-1.5,0-2.8-1.3-2.8-2.8V13.8c0-1.3,0.5-2.6,1.3-3.6l4.5-5.4c0.6-0.7,1.6-0.7,2.1,0l4.5,5.4
		c0.8,1,1.3,2.3,1.3,3.6v54.6C42.7,70,41.5,71.2,40,71.2L40,71.2z"/>
	<path class="st6" d="M33.4,13.5h4.9v57.8h-4.9V13.5z"/>
	<path class="st5" d="M42.7,13.8c0-1.3-0.5-2.6-1.3-3.6l-4.5-5.4c-0.6-0.7-1.6-0.7-2.1,0l-4.5,5.4c-0.8,1-1.3,2.3-1.3,3.6L42.7,13.8
		L42.7,13.8z"/>
	<path class="st3" d="M40.9,9.6l-3.9-4.7c-0.6-0.7-1.6-0.7-2.1,0l-3.9,4.7L40.9,9.6L40.9,9.6z"/>
	<path class="st7" d="M109.1,26.9h-3.6V25c0-2.3-1.9-4.2-4.2-4.2H65.6c-2.9,0-5.5,1.5-7,3.7c-1.5-2.3-4.1-3.7-7-3.7h-7.5v-6.9
		c0-1.6-0.6-3.2-1.6-4.5L38,4c-0.5-0.6-1.3-1-2.1-1l0,0c-0.8,0-1.6,0.4-2.1,1l-4.5,5.4c-1.1,1.3-1.6,2.8-1.6,4.5v6.9H15.9
		c-2.3,0-4.2,1.9-4.2,4.2v1.9H8.1c-3.1,0-5.6,2.5-5.6,5.6v56.9c0,3.1,2.5,5.6,5.6,5.6h33.8v5.2c0,1,0.6,2,1.5,2.5
		c0.4,0.2,0.9,0.3,1.3,0.3c0.6,0,1.1-0.2,1.6-0.5l2.9-2l2.9,2c0.9,0.6,2,0.6,2.9,0.2c0.9-0.5,1.5-1.4,1.5-2.5v-5.2h7.4v3
		c0,1.5,1.3,2.8,2.8,2.8H96c1.5,0,2.8-1.3,2.8-2.8v-3h10.3c3.1,0,5.6-2.5,5.6-5.6V32.4C114.7,29.4,112.2,26.9,109.1,26.9L109.1,26.9
		z M14.5,25c0-0.8,0.6-1.4,1.4-1.4h11.7v7.5c0,0.8,0.6,1.4,1.4,1.4s1.4-0.6,1.4-1.4V13.8c0-1,0.4-2,1-2.7l4.5-5.4l4.5,5.4
		c0.6,0.8,1,1.7,1,2.7v54.6c0,0.8-0.6,1.4-1.4,1.4h-8.2c-0.8,0-1.4-0.6-1.4-1.4V39.6c0-0.8-0.6-1.4-1.4-1.4s-1.4,0.6-1.4,1.4v28.9
		c0,2.3,1.9,4.2,4.2,4.2h8.2c2.3,0,4.2-1.9,4.2-4.2V23.6h7.5c3.1,0,5.6,2.5,5.6,5.6V82c0,0.8-0.6,1.4-1.4,1.4H15.9
		c-0.8,0-1.4-0.6-1.4-1.4L14.5,25L14.5,25z M8.1,92.1c-1.5,0-2.8-1.3-2.8-2.8V32.4c0-1.5,1.3-2.8,2.8-2.8h3.6V82
		c0,2.3,1.9,4.2,4.2,4.2h26v5.9L8.1,92.1z M53.7,100.1L50,97.5c-0.5-0.3-1.1-0.3-1.6,0l-3.7,2.5V86.2h9L53.7,100.1L53.7,100.1
		L53.7,100.1z M56.5,92.1v-6c0.8-0.1,1.5-0.5,2.1-1c0.8,0.7,1.7,1.1,2.8,1.1h2.5v5.9L56.5,92.1L56.5,92.1z M88.8,71.7H96v26.2H66.7
		V71.7h13.6c0.8,0,1.4-0.6,1.4-1.4c0-0.8-0.6-1.4-1.4-1.4H66.7c-1.5,0-2.8,1.3-2.8,2.8v11.7h-2.5c-0.8,0-1.4-0.6-1.4-1.4V29.2
		c0-3.1,2.5-5.6,5.6-5.6h35.7c0.8,0,1.4,0.6,1.4,1.4v57c0,0.8-0.6,1.4-1.4,1.4h-2.5V71.7c0-1.5-1.3-2.8-2.8-2.8h-7.2
		c-0.8,0-1.4,0.6-1.4,1.4S88,71.7,88.8,71.7L88.8,71.7z M111.9,89.3c0,1.5-1.3,2.8-2.8,2.8H98.8v-5.9h2.5c2.3,0,4.2-1.9,4.2-4.2
		V29.7h3.6c1.5,0,2.8,1.3,2.8,2.8V89.3z"/>
	<g>
		<g>
			<g>
				<path class="st3" d="M79.5,54.1H65.7c-0.8,0-1.4-0.6-1.4-1.4s0.6-1.4,1.4-1.4h13.8c0.8,0,1.4,0.6,1.4,1.4S80.2,54.1,79.5,54.1z"
					/>
			</g>
			<g>
				<path class="st3" d="M87,59H65.7c-0.8,0-1.4-0.6-1.4-1.4c0-0.8,0.6-1.4,1.4-1.4H87c0.8,0,1.4,0.6,1.4,1.4
					C88.4,58.4,87.8,59,87,59z"/>
			</g>
		</g>
		<g>
			<circle class="st3" cx="66.1" cy="47.7" r="1.4"/>
			<circle class="st3" cx="70.6" cy="47.7" r="1.4"/>
		</g>
	</g>
	<circle class="st5" cx="48.2" cy="32.9" r="1.4"/>
</g>
</svg>
