<?xml version="1.0" encoding="utf-8"?>
<!-- Generator: Adobe Illustrator 24.1.0, SVG Export Plug-In . SVG Version: 6.00 Build 0)  -->
<svg version="1.1" id="Camada_1" xmlns="http://www.w3.org/2000/svg" xmlns:xlink="http://www.w3.org/1999/xlink" x="0px" y="0px"
	 viewBox="0 0 96 97" style="enable-background:new 0 0 96 97;" xml:space="preserve">
<style type="text/css">
	.st0{fill:#222222;}
	.st1{fill:#00D8FF;}
</style>
<circle class="st0" cx="48" cy="48" r="48"/>
<g>
	<circle class="st1" cx="48" cy="47.9" r="6"/>
	<path class="st1" d="M78,42c-2.1-1.7-5-3.3-8.4-4.4c-0.7-0.2-1.4-0.5-2.1-0.7c0.1-0.5,0.2-1,0.3-1.5c0.8-3.8,0.9-7.3,0.5-10.1
		c-0.5-3-1.7-5.2-3.5-6.2c-1.7-1-4.1-1-6.9,0c-2.5,0.9-5.3,2.7-8.1,5.1c-0.6,0.5-1.1,1-1.7,1.5c-0.4-0.4-0.7-0.7-1.1-1
		c-2.9-2.6-5.9-4.5-8.5-5.5c-2.9-1.1-5.4-1.1-7.2,0c-1.7,1-2.9,3.1-3.4,5.9c-0.5,2.6-0.3,5.9,0.4,9.5c0.1,0.7,0.3,1.5,0.5,2.2
		c-0.9,0.2-1.7,0.5-2.5,0.8c-3.4,1.2-6.3,2.7-8.3,4.4c-2.2,1.9-3.3,3.9-3.3,5.9c0,2.1,1.2,4.2,3.5,6.1c2.1,1.8,5.2,3.5,8.7,4.7
		c0.6,0.2,1.2,0.4,1.8,0.6c-0.2,0.8-0.4,1.6-0.5,2.4c-0.7,3.5-0.8,6.8-0.3,9.4c0.5,2.8,1.7,4.8,3.4,5.8c0.9,0.5,2,0.8,3.2,0.8
		c1.2,0,2.5-0.2,3.9-0.7c2.7-0.9,5.6-2.7,8.4-5.2c0.5-0.4,0.9-0.8,1.4-1.3c0.6,0.6,1.2,1.1,1.8,1.6c2.7,2.3,5.5,4.1,8,4.9
		c1.3,0.5,2.5,0.7,3.6,0.7c1.2,0,2.2-0.3,3.1-0.8c1.8-1,3-3.1,3.6-6.1c0.5-2.8,0.4-6.2-0.3-9.9c-0.1-0.6-0.2-1.2-0.4-1.8
		c0.4-0.1,0.8-0.3,1.2-0.4c3.7-1.2,6.8-2.8,9-4.6c2.4-2,3.6-4.1,3.6-6.2C81.4,45.9,80.2,43.9,78,42z M58.8,21.7
		c1.1-0.4,2-0.6,2.8-0.6c0.6,0,1.2,0.1,1.6,0.4c1,0.6,1.8,2.1,2.2,4.2c0.4,2.5,0.3,5.6-0.5,9.1c-0.1,0.4-0.2,0.9-0.3,1.3
		c-2.8-0.6-5.8-1.1-8.9-1.4c-0.7-1-1.4-1.9-2.1-2.8c-1.2-1.5-2.4-2.9-3.5-4.2c0.5-0.5,1-1,1.5-1.4C54.1,24.1,56.6,22.5,58.8,21.7z
		 M62.2,52.5c0.7,1.6,1.2,3.2,1.7,4.7c-1.9,0.4-4,0.8-6.2,1.1c0.7-1.1,1.4-2.2,2-3.4c0.7-1.2,1.3-2.4,1.9-3.5
		C61.9,51.7,62.1,52.1,62.2,52.5z M57.3,53.4c-1,1.8-2.1,3.5-3.2,5.2c-2,0.1-4,0.2-6.1,0.2c-2.1,0-4.1-0.1-6-0.2
		c-1.1-1.7-2.2-3.4-3.3-5.2l0,0c-1-1.8-2-3.6-2.9-5.4c0.9-1.8,1.8-3.6,2.8-5.4l0,0c1-1.8,2.1-3.5,3.2-5.2c2-0.2,4-0.2,6.1-0.2
		c2.1,0,4.1,0.1,6.1,0.2c1.1,1.6,2.2,3.3,3.2,5.1c1,1.8,2,3.6,2.9,5.4C59.3,49.8,58.4,51.6,57.3,53.4z M48.1,66.3
		c-1-1.1-2-2.3-3-3.5c-0.3-0.4-0.7-0.9-1-1.3c1.3,0.1,2.6,0.1,3.9,0.1c1.4,0,2.7,0,4-0.1c-0.3,0.4-0.5,0.7-0.8,1.1
		C50.2,64,49.1,65.2,48.1,66.3z M34.3,51.4c0.6,1.2,1.2,2.3,1.9,3.5l0,0c0.7,1.2,1.4,2.3,2.1,3.4c-0.4-0.1-0.9-0.1-1.3-0.2
		c-1.7-0.2-3.3-0.5-4.8-0.8c0.4-1.4,1-2.9,1.5-4.4C33.9,52.4,34.1,51.9,34.3,51.4z M36.2,41.2c-0.7,1.1-1.3,2.3-1.9,3.5
		c-0.8-2-1.5-3.9-2.1-5.8c1.4-0.3,2.9-0.6,4.4-0.8c0.5-0.1,1.1-0.2,1.6-0.2C37.6,38.9,36.9,40.1,36.2,41.2L36.2,41.2z M48,29.7
		c1.3,1.4,2.6,3,3.9,4.7c-1.3-0.1-2.6-0.1-4-0.1c-1.3,0-2.6,0-3.9,0.1C45.4,32.8,46.7,31.2,48,29.7z M59.8,41.2
		c-0.7-1.1-1.3-2.3-2-3.3c2.1,0.3,4.2,0.6,6.1,1.1c-0.6,1.8-1.3,3.8-2.1,5.8C61.1,43.5,60.5,42.4,59.8,41.2z M31,34.1
		c-0.6-3.3-0.8-6.2-0.4-8.5c0.3-2,1.1-3.4,2-4c1-0.6,2.7-0.5,4.7,0.2c2.4,0.9,5,2.6,7.6,4.9c0.3,0.3,0.7,0.6,1,0.9
		c-1.9,2.1-3.9,4.5-5.7,7c-1.4,0.1-2.8,0.3-4.1,0.5c-1.7,0.2-3.3,0.5-4.8,0.9C31.3,35.4,31.1,34.7,31,34.1z M27.7,56
		c-3.2-1.1-5.9-2.5-7.8-4.1c-1.6-1.4-2.5-2.8-2.5-4c0-1.1,0.8-2.4,2.3-3.7c1.7-1.5,4.3-2.8,7.4-3.9c0.7-0.3,1.5-0.5,2.3-0.7
		c0.8,2.7,1.9,5.6,3.3,8.4c-0.6,1.3-1.1,2.6-1.6,3.8c-0.6,1.6-1.2,3.2-1.7,4.7C28.8,56.4,28.3,56.2,27.7,56z M37.4,74.3
		c-2,0.7-3.7,0.8-4.7,0.2c-1-0.6-1.7-1.9-2.1-3.9c-0.4-2.3-0.3-5.1,0.3-8.3c0.1-0.7,0.3-1.5,0.5-2.2c1.6,0.4,3.4,0.7,5.2,0.9
		c1.2,0.2,2.5,0.3,3.8,0.4c0.8,1.1,1.6,2.2,2.5,3.3c1.1,1.4,2.2,2.6,3.3,3.8c-0.4,0.4-0.9,0.8-1.3,1.2
		C42.3,71.8,39.7,73.4,37.4,74.3z M65.1,61.5c0.7,3.3,0.8,6.4,0.3,8.8c-0.4,2.1-1.2,3.6-2.2,4.1c-1,0.6-2.5,0.5-4.4-0.1
		c-2.2-0.8-4.6-2.3-7.1-4.4c-0.6-0.5-1.1-1-1.7-1.5c1.1-1.2,2.3-2.6,3.4-4.1c0.7-1,1.5-2,2.2-3c1.2-0.1,2.3-0.2,3.4-0.4
		c2-0.3,3.9-0.6,5.6-1C64.9,60.4,65,61,65.1,61.5z M75.9,51.9c-1.9,1.6-4.7,3-8.1,4.1c-0.4,0.1-0.7,0.2-1.1,0.4
		c-0.5-1.6-1.1-3.3-1.9-5c-0.5-1.1-1-2.3-1.5-3.4c0.5-1.1,1-2.1,1.4-3.2c0.7-1.8,1.4-3.5,1.9-5.2c0.7,0.2,1.3,0.4,2,0.6
		c3.1,1.1,5.7,2.4,7.5,3.9c1.6,1.3,2.4,2.6,2.4,3.8C78.5,49.1,77.6,50.6,75.9,51.9z"/>
</g>
</svg>
