<?xml version="1.0" encoding="utf-8"?>
<!-- Generator: Adobe Illustrator 19.0.0, SVG Export Plug-In . SVG Version: 6.00 Build 0)  -->
<svg version="1.1" id="Layer_1" xmlns="http://www.w3.org/2000/svg" xmlns:xlink="http://www.w3.org/1999/xlink" x="0px" y="0px"
	 viewBox="0 0 68 67" style="enable-background:new 0 0 68 67;" xml:space="preserve">
<style type="text/css">
	.st0{fill:#FFFFFF;}
	.st1{fill:#007aff;}
</style>
<g id="XMLID_2_">
	<path id="XMLID_5_" class="st0" d="M37.8,7L61,32.7L37.8,58.4H19.9l9.8-12.2H8.6v-27h21.1L19.9,7H37.8 M37.8,0L19.9,0
		c-2.7,0-5.1,1.6-6.3,3.9c-1.2,2.4-0.9,5.3,0.9,7.4l0.8,0.9H8.6c-3.9,0-7,3.1-7,7v27c0,3.9,3.1,7,7,7h6.7l-0.8,0.9
		c-1.7,2.1-2,4.9-0.9,7.4c1.2,2.4,3.6,3.9,6.3,3.9h17.9c2,0,3.9-0.9,5.2-2.3l23.2-25.7c2.4-2.6,2.4-6.7,0-9.3L43,2.4
		C41.6,0.9,39.7,0,37.8,0L37.8,0z"/>
	<g id="XMLID_3_">
		<polygon id="XMLID_4_" class="st1" points="37.8,7 19.9,7 29.6,19.2 8.5,19.2 8.5,46.2 29.6,46.2 19.9,58.4 37.8,58.4 60.9,32.7 
					"/>
	</g>
</g>
</svg>
