<?xml version="1.0" encoding="utf-8"?>
<!-- Generator: Adobe Illustrator 24.1.0, SVG Export Plug-In . SVG Version: 6.00 Build 0)  -->
<svg version="1.1" id="Camada_1" xmlns="http://www.w3.org/2000/svg" xmlns:xlink="http://www.w3.org/1999/xlink" x="0px" y="0px"
	 viewBox="0 0 426 133" style="enable-background:new 0 0 426 133;" xml:space="preserve">
<style type="text/css">
	.st0{fill:#FFFFFF;}
	.st1{fill:#007AFF;}
</style>
<g>
	<g>
		<path class="st0" d="M61.7,32.1c-1.2-1.2-3-1.8-5.2-1.8c-2.1,0-3.7,0.6-4.9,1.8c-1.2,1.2-2,2.8-2.2,4.8h14.2
			C63.5,34.9,62.9,33.3,61.7,32.1z"/>
		<path class="st0" d="M89.5,68.4c1.3-2.1,2.1-4.4,2.5-7c0-0.1,0-0.2,0-0.3c0.7,0.3,1.4,0.6,2.2,0.8c2,0.6,4,0.8,6.1,0.8
			c2.3,0,4.5-0.4,6.6-1.1c0.8,0.2,1.6,0.4,2.5,0.4h6.3c4.7,0,8.4-3.8,8.4-8.4v-16c0-0.8,0-1.6-0.1-2.7c-0.1-1.4-0.3-2.8-0.6-4.2
			c-0.4-1.7-1-3.3-1.8-4.8c-1-2-2.5-3.7-4.3-5.1c-1.7-1.3-3.6-2.3-5.9-3.1c-2.2-0.7-4.7-1.1-7.6-1.1c-3.1,0-6.2,0.5-9.1,1.5
			c-0.5,0.2-1,0.4-1.5,0.6c0.1-0.8,0.2-1.5,0.2-2.3c0-3.6-1.4-6.8-4.1-9.2C87,5,83.9,3.8,80.5,3.8c-3.5,0-6.7,1.3-9.1,3.7
			c-2.4,2.4-3.7,5.6-3.7,8.9c0,1,0.1,2,0.4,2.9c-0.6-0.4-1.3-0.7-2-1c-2.6-1.1-5.5-1.7-8.6-1.7c-3.1,0-6.1,0.5-8.9,1.6
			c-2.1,0.8-4,1.8-5.7,3.1c1.4-1.6,2.2-3.7,2.1-5.8c-0.1-2.3-1-4.4-2.7-5.9c-2.5-2.3-5.4-4-8.6-5.1c-2.9-0.9-5.9-1.4-8.9-1.4
			c-2.6,0-5.3,0.4-7.8,1.1c-2.8,0.8-5.3,2-7.5,3.6c-2.4,1.7-4.3,3.9-5.8,6.5c-1.6,2.8-2.4,6.1-2.4,9.6c0,4.1,1,7.6,2.9,10.5
			c0.9,1.4,2,2.7,3.3,3.8l-4.9,4.7c-3.2,3.1-3.4,8.1-0.6,11.5c2.7,3.1,5.9,5.4,9.7,6.8c3.3,1.2,6.7,1.8,10.2,1.8
			c2.8,0,5.5-0.4,8.1-1.2c2.8-0.8,5.4-2.2,7.6-3.9c0.9-0.7,1.8-1.6,2.6-2.5c0.3,0.3,0.6,0.6,0.9,0.9c2.2,2,4.7,3.6,7.6,4.7
			c2.8,1,5.8,1.6,8.9,1.6c1.8,0,3.6-0.2,5.4-0.6l-0.4,4.1c-0.1,1.7,0.3,3.4,1.1,4.8c-3.8,0.8-6.6,4.2-6.6,8.2v6.9
			c-0.4,0-0.8,0-1.2,0c-3.2,0-6.2,0.6-8.9,1.9c-2.7,1.2-5.1,3-7.1,5.1c-1.9,2.1-3.4,4.6-4.4,7.3c-1,2.7-1.5,5.6-1.5,8.7
			c0,3,0.5,5.8,1.4,8.5c1,2.9,2.5,5.4,4.5,7.5c2,2.2,4.4,3.9,7.1,5.1c2.8,1.2,5.9,1.9,9.2,1.9c2.4,0,4.8-0.4,7-1.1
			c0.8,0.3,1.7,0.4,2.7,0.4h6.6c2.1,0,4.1-0.8,5.6-2.1c1.4,0.8,2.9,1.5,4.5,2c2,0.6,4,0.8,6.1,0.8c2.3,0,4.5-0.4,6.6-1.1
			c0.8,0.2,1.6,0.4,2.5,0.4h6.3c4.7,0,8.4-3.8,8.4-8.4v-16c0-0.8,0-1.6-0.1-2.7c-0.1-1.4-0.3-2.8-0.6-4.2c-0.4-1.7-1-3.3-1.8-4.8
			c-1-2-2.5-3.7-4.3-5.1c-1.7-1.3-3.6-2.3-5.9-3.1c-2.2-0.7-4.7-1.1-7.6-1.1c-3.1,0-6.2,0.5-9.1,1.5c-0.7,0.2-1.4,0.5-2.1,0.8v-9.2
			c0-1.4-0.4-2.8-1-4c1.2-0.3,2.4-0.7,3.4-1.2C85.9,72.8,88,70.9,89.5,68.4z M97.4,26.2c2.1-0.7,4.2-1,6.4-1c2,0,3.6,0.2,5,0.7
			c1.4,0.4,2.5,1,3.4,1.7c0.9,0.7,1.6,1.5,2.1,2.4c0.5,0.9,0.8,1.8,1,2.7c0.2,0.9,0.3,1.8,0.4,2.7c0,0.9,0.1,1.6,0.1,2.3v16h-6.3
			v-3.8h-0.2c-1,1.6-2.3,2.7-3.8,3.4c-1.5,0.7-3.2,1.1-5.1,1.1c-1.3,0-2.5-0.2-3.7-0.5c-1.2-0.3-2.3-0.9-3.2-1.6
			c-0.3-0.2-0.6-0.5-0.8-0.7V40.1c0.2-0.2,0.4-0.4,0.7-0.6c0.9-0.7,2-1.3,3.2-1.7c1.2-0.4,2.4-0.7,3.7-1c1.3-0.2,2.6-0.3,3.9-0.4
			c1.3-0.1,2.5-0.1,3.7-0.1h1.7v-0.8c0-1.7-0.6-3-1.8-3.9c-1.2-0.9-2.7-1.3-4.6-1.3c-1.5,0-2.8,0.3-4.1,0.8
			c-1.3,0.5-2.4,1.2-3.3,2.1l-3.1-3.1v-1C93.9,27.8,95.5,26.8,97.4,26.2z M77.4,13.5c0.8-0.8,1.9-1.2,3.2-1.2c1.3,0,2.3,0.4,3.2,1.2
			c0.9,0.8,1.3,1.8,1.3,3c0,1.2-0.4,2.2-1.3,3c-0.9,0.8-1.9,1.2-3.2,1.2c-1.3,0-2.3-0.4-3.2-1.2c-0.8-0.8-1.2-1.8-1.2-2.9
			S76.5,14.3,77.4,13.5z M32.3,51.4c-1.4,1.1-3,1.9-4.8,2.4c-1.8,0.5-3.7,0.8-5.7,0.8c-2.5,0-5-0.4-7.4-1.3
			c-2.4-0.8-4.4-2.3-6.1-4.3l5.5-5.3c0.9,1.4,2.1,2.4,3.5,3.2c1.4,0.8,3,1.1,4.6,1.1c0.8,0,1.7-0.1,2.5-0.3c0.8-0.2,1.6-0.6,2.3-1
			c0.7-0.5,1.3-1.1,1.7-1.8c0.4-0.7,0.6-1.5,0.6-2.5c0-1.5-0.5-2.7-1.4-3.5c-1-0.8-2.2-1.5-3.6-2.1c-1.4-0.6-3-1.1-4.7-1.6
			c-1.7-0.5-3.3-1.2-4.7-2.1c-1.4-0.9-2.6-2-3.6-3.5c-1-1.4-1.4-3.4-1.4-5.8c0-2.1,0.4-4,1.3-5.5c0.9-1.5,2-2.8,3.4-3.8
			c1.4-1,3-1.8,4.8-2.3c1.8-0.5,3.7-0.8,5.6-0.8c2.2,0,4.3,0.3,6.3,1c2,0.7,3.8,1.7,5.5,3.2l-5.3,5.6c-0.8-1.1-1.8-1.9-3.1-2.5
			c-1.3-0.5-2.7-0.8-4.1-0.8c-0.8,0-1.7,0.1-2.5,0.3c-0.8,0.2-1.5,0.5-2.1,0.9c-0.6,0.4-1.1,1-1.5,1.6c-0.4,0.7-0.6,1.5-0.6,2.4
			c0,1.4,0.5,2.5,1.4,3.2c1,0.7,2.2,1.4,3.6,1.9c1.4,0.5,3,1.1,4.7,1.6c1.7,0.5,3.3,1.2,4.7,2.1c1,0.6,1.9,1.4,2.7,2.4
			c-0.4,1.7-0.6,3.4-0.6,5.2c0,2.9,0.5,5.6,1.4,8.1C34.6,49.3,33.6,50.5,32.3,51.4z M51.6,53.3c-1.9-0.7-3.5-1.7-4.8-3
			c-0.9-0.8-1.6-1.8-2.3-2.9c0.5-1.8,0.8-3.8,0.8-5.9c0-3-0.5-5.7-1.6-8.1c0.8-1.7,1.8-3.1,3.1-4.3c1.4-1.3,3-2.3,4.8-3
			c1.9-0.7,3.8-1,5.9-1c1.9,0,3.7,0.3,5.3,1c1.6,0.7,3,1.6,4.1,2.9c0.7,0.8,1.3,1.7,1.8,2.6v10.4H49.3c0.2,2.1,1,3.7,2.4,4.9
			c1.4,1.2,3.1,1.7,5,1.7c1.7,0,3.2-0.4,4.4-1.1c1.2-0.7,2.2-1.6,3.1-2.7l4.4,3.3v1.1c-1.5,1.7-3.1,2.9-4.9,3.6
			c-2,0.8-4.1,1.3-6.3,1.3C55.4,54.3,53.4,54,51.6,53.3z M65.6,118.9c-1,1.7-2.4,2.9-4.1,3.7c-1.7,0.8-3.5,1.2-5.5,1.2
			c-2.2,0-4.1-0.4-5.8-1.1c-1.7-0.8-3.1-1.8-4.3-3.1c-1.2-1.3-2.1-2.9-2.7-4.6c-0.6-1.8-0.9-3.7-0.9-5.7c0-2,0.3-4,1-5.7
			c0.7-1.8,1.6-3.3,2.7-4.6c1.2-1.3,2.6-2.3,4.3-3.1c1.7-0.8,3.5-1.1,5.4-1.1c1.3,0,2.5,0.1,3.5,0.4c1,0.3,1.9,0.6,2.7,1
			c0.8,0.4,1.4,0.9,2,1.4c0.5,0.5,1,1,1.3,1.4h0.2V79.3h6.9v16.5c-0.8,2-0.8,4.3,0,6.4v4.3c-0.2,0.4-0.5,0.8-0.7,1.2
			c-1.1,2.3-1.7,4.8-1.7,7.7c0,2.8,0.6,5.4,1.9,7.6h-6.1v-4.2H65.6z M85.6,95.7c2.1-0.7,4.2-1,6.4-1c2,0,3.6,0.2,5,0.7
			c1.4,0.4,2.5,1,3.4,1.7c0.9,0.7,1.6,1.5,2.1,2.4c0.5,0.9,0.8,1.8,1,2.7c0.2,0.9,0.3,1.8,0.4,2.7c0,0.9,0.1,1.6,0.1,2.3v16h-6.3
			v-3.8h-0.2c-1,1.6-2.3,2.7-3.8,3.4c-1.5,0.7-3.2,1.1-5.1,1.1c-1.3,0-2.5-0.2-3.7-0.5c-1.2-0.3-2.3-0.9-3.2-1.6
			c-0.3-0.2-0.5-0.4-0.7-0.6v-11.7c0.2-0.2,0.4-0.3,0.6-0.5c0.9-0.7,2-1.3,3.2-1.7c1.2-0.4,2.4-0.7,3.7-1c1.3-0.2,2.6-0.3,3.9-0.4
			c1.3-0.1,2.5-0.1,3.7-0.1h1.7V105c0-1.7-0.6-3-1.8-3.9c-1.2-0.9-2.7-1.3-4.6-1.3c-1.5,0-2.8,0.3-4.1,0.8c-1.3,0.5-2.4,1.2-3.3,2.1
			l-3-3v-1.2C82.2,97.2,83.8,96.3,85.6,95.7z M79.5,66.6c-1.2,0.6-2.8,0.9-4.8,0.9c-0.7,0-1.3,0-1.9-0.1c-0.6-0.1-1.2-0.2-1.9-0.4
			l0.5-6c0.4,0.1,0.8,0.1,1.1,0.2c0.3,0.1,0.7,0.1,1.1,0.1c0.8,0,1.5-0.2,2-0.5c0.5-0.4,0.8-0.8,1-1.4c0.2-0.6,0.3-1.2,0.4-1.9
			c0-0.7,0.1-1.4,0.1-2v-3.6c0.5-1.3,0.7-2.7,0.5-4.1c0-0.3-0.1-0.5-0.1-0.8c0.9-1.4,1.5-3,1.5-4.8v-1.9c0-3.3-0.5-6.4-1.4-9.2
			c-0.1-0.4-0.3-0.7-0.4-1.1v-4.1h6.9v0.9c-0.7,1.9-0.7,3.9,0,5.8v4.8c-0.2,0.3-0.4,0.6-0.6,1c-1.1,2.3-1.7,4.8-1.7,7.7
			c0,2.8,0.7,5.4,1.9,7.8c0.1,0.2,0.3,0.4,0.4,0.6v1c0,1.7-0.1,3.3-0.3,4.8c-0.2,1.5-0.7,2.8-1.4,3.9C81.7,65.1,80.7,66,79.5,66.6z"
			/>
		<path class="st0" d="M104.3,41.3c-1.2,0.1-2.3,0.3-3.4,0.5c-1.1,0.3-2,0.7-2.7,1.3c-0.7,0.6-1.1,1.3-1.1,2.3
			c0,0.7,0.1,1.2,0.4,1.6c0.3,0.4,0.7,0.8,1.1,1.1c0.5,0.3,1,0.5,1.6,0.7c0.6,0.1,1.2,0.2,1.7,0.2c2.4,0,4.2-0.6,5.3-1.7
			c1.1-1.1,1.7-2.7,1.7-4.7v-1.6h-1.4C106.6,41.2,105.5,41.2,104.3,41.3z"/>
		<path class="st0" d="M133.3,47.4V55c0,2.8,0.6,5.3,1.9,7.6c1,1.8,2.4,3.4,3.9,4.7c1.5,1.2,3.2,2.2,4.9,2.8c1.8,0.7,3.5,1,5.1,1
			h5.3c4.7,0,8.4-3.8,8.4-8.4v-0.2c1.2,0.2,2.3,0.3,3.6,0.3c2.3,0,4.4-0.3,6.4-1c0.7,0.2,1.5,0.3,2.3,0.3h6.6c1.4,0,2.6-0.3,3.8-0.9
			c1.1,0.6,2.4,0.9,3.8,0.9h6.9c2.1,0,4.1-0.8,5.6-2.1c1.5,1.3,3.4,2.1,5.6,2.1h6.9c2.1,0,4.1-0.8,5.6-2.1c1.5,1.3,3.4,2.1,5.6,2.1
			h0.1v0.6c0,4.7,3.8,8.4,8.4,8.4h5.3c1.6,0,3.3-0.3,5.1-1c1.8-0.6,3.4-1.6,4.9-2.8c1.6-1.3,2.9-2.9,3.9-4.7
			c1.3-2.2,1.9-4.8,1.9-7.6v-7.6c3.2-1.2,5.4-4.3,5.4-7.9v-5.1c0-3.6-2.3-6.7-5.4-7.9v-7.6c0-2.8-0.6-5.3-1.9-7.6
			c-1.1-1.8-2.4-3.4-3.9-4.7c-1.5-1.2-3.2-2.2-4.9-2.8c-1.8-0.7-3.5-1-5.1-1H234c-4.7,0-8.4,3.8-8.4,8.4v4.9c0,0.3,0,0.6,0.1,0.9
			c-1.1-0.2-2.1-0.3-3.3-0.3c-3.3,0-6.3,0.7-8.9,2c-2.6-1.3-5.6-2-8.9-2c-2.3,0-4.4,0.3-6.4,1c-0.7-0.2-1.5-0.3-2.3-0.3h-6.6
			c-1.4,0-2.6,0.3-3.8,0.9c-1.1-0.6-2.4-0.9-3.8-0.9h-6.9c-2.2,0-4.2,0.9-5.7,2.2c-1.5-1.4-3.5-2.2-5.7-2.2h-0.5
			c0.1-0.4,0.1-0.8,0.1-1.3v-4.9c0-4.7-3.8-8.4-8.4-8.4h-5.3c-1.6,0-3.3,0.3-5.1,1c-1.8,0.6-3.4,1.6-4.9,2.8
			c-1.6,1.3-2.9,2.9-3.9,4.7c-1.3,2.2-1.9,4.8-1.9,7.6v7.6c-3.2,1.2-5.4,4.3-5.4,7.9v5.1C127.9,43.1,130.1,46.2,133.3,47.4z
			 M234,11.3h5.3c0.6,0,1.4,0.2,2.2,0.5c0.8,0.3,1.7,0.8,2.4,1.4c0.8,0.6,1.4,1.4,2,2.4c0.5,0.9,0.8,2.1,0.8,3.4V30
			c0,0.9,0.2,1.7,0.6,2.3c0.4,0.6,0.9,1,1.5,1.4c0.6,0.3,1.2,0.5,1.8,0.7c0.6,0.1,1.1,0.2,1.6,0.2v5.1c-0.4,0-0.9,0.1-1.6,0.2
			c-0.6,0.1-1.2,0.3-1.8,0.6c-0.6,0.3-1.1,0.7-1.5,1.2c-0.4,0.5-0.6,1.2-0.6,2V55c0,1.3-0.3,2.4-0.8,3.4c-0.5,0.9-1.2,1.7-2,2.4
			c-0.8,0.6-1.6,1.1-2.4,1.4c-0.8,0.3-1.6,0.5-2.2,0.5H234v-0.7c3.9-0.8,6.8-4.2,6.8-8.3V42c0.1-0.7,0.3-1.4,0.6-1.9
			c0.4-0.7,0.9-1.3,1.5-1.7c0.6-0.4,1.2-0.7,1.9-0.9c0.6-0.2,1.2-0.3,1.6-0.4v-0.1c-0.5,0-1-0.1-1.6-0.3c-0.6-0.2-1.3-0.4-1.9-0.9
			c-0.6-0.4-1.1-1-1.5-1.8c-0.4-0.8-0.6-1.9-0.6-3.2V20.2c0-0.4,0-0.9-0.1-1.3c-0.1-0.5-0.2-0.9-0.5-1.3c-0.3-0.4-0.6-0.7-1.1-1
			c-0.5-0.3-1.1-0.4-1.9-0.4H234V11.3z M195.9,25.9v4.3h0.1c0.6-1.3,1.6-2.5,3-3.5c1.4-1,3.2-1.5,5.5-1.5c4.4,0,7.3,1.7,8.7,5.2
			c1-1.8,2.3-3.1,3.8-3.9c1.5-0.8,3.3-1.2,5.4-1.2c1.9,0,3.4,0.3,4.7,0.9c1.3,0.6,2.3,1.5,3.1,2.5c0.8,1.1,1.4,2.3,1.7,3.8
			c0.3,1.4,0.5,3,0.5,4.7v4.8c0,0.3,0,0.7,0,1v6.7c-2.4,0.5-4.5,2-5.7,4.1h-1.2V37.9c0-0.8-0.1-1.7-0.2-2.5
			c-0.2-0.8-0.4-1.5-0.8-2.1c-0.4-0.6-0.9-1.1-1.6-1.4c-0.7-0.3-1.5-0.5-2.5-0.5c-1.1,0-2,0.2-2.7,0.6c-0.8,0.4-1.4,0.9-1.9,1.6
			c-0.5,0.7-0.8,1.4-1,2.3c-0.2,0.9-0.3,1.7-0.3,2.6v15h-6.9V37.1c0-1.7-0.4-3.1-1.1-4.1c-0.7-1-1.9-1.5-3.6-1.5
			c-1.2,0-2.1,0.2-2.9,0.6c-0.8,0.4-1.4,0.9-2,1.6c-0.5,0.7-0.9,1.4-1.1,2.3c-0.2,0.8-0.3,1.7-0.3,2.7v15.2h-6.1V25.9H195.9z
			 M163.4,42.5c0.1,0.9,0.3,1.8,0.6,2.7c0.3,0.8,0.8,1.5,1.5,2.1c0.7,0.6,1.6,0.8,2.9,0.8c1.2,0,2.1-0.2,2.9-0.6
			c0.8-0.4,1.4-0.9,2-1.6c0.5-0.7,0.9-1.4,1.1-2.3c0.2-0.8,0.3-1.7,0.3-2.7V25.9h6.1v27.8h-5.7v-4.5H175c-0.7,1.4-1.7,2.6-3,3.6
			c-1.4,1-3.2,1.5-5.5,1.5c-1.9,0-3.4-0.3-4.7-0.9c-0.1,0-0.1-0.1-0.2-0.1c-0.9-1.4-2.1-2.4-3.5-3.1c-0.5-0.8-0.9-1.7-1.2-2.7
			c-0.3-1.3-0.5-2.7-0.5-4.1V25.9h6.9v14.1C163.3,40.7,163.3,41.5,163.4,42.5z M136.3,34.4c0.4,0,0.9-0.1,1.5-0.2
			c0.6-0.1,1.2-0.3,1.8-0.6c0.6-0.3,1.1-0.7,1.5-1.2c0.4-0.5,0.6-1.2,0.6-2V18.9c0-1.3,0.3-2.4,0.8-3.4c0.5-0.9,1.2-1.7,2-2.4
			c0.8-0.6,1.6-1.1,2.4-1.4c0.8-0.3,1.6-0.5,2.2-0.5h5.3v4.9h-3.2c-0.8,0-1.5,0.1-1.9,0.4c-0.5,0.3-0.8,0.6-1.1,1
			c-0.3,0.4-0.4,0.8-0.5,1.3c-0.1,0.5-0.1,0.9-0.1,1.3v10.9c0,1.1-0.2,2-0.6,2.8c-0.4,0.7-0.9,1.3-1.5,1.8c-0.6,0.4-1.2,0.8-1.9,1
			c-0.6,0.2-1.2,0.3-1.6,0.3V37c0.5,0,1,0.1,1.6,0.3c0.6,0.2,1.3,0.4,1.9,0.9c0.6,0.4,1.1,1,1.5,1.8c0.4,0.8,0.6,1.9,0.6,3.2v10.5
			c0,0.4,0,0.9,0.1,1.3c0.1,0.5,0.2,0.9,0.5,1.3c0.3,0.4,0.6,0.7,1.1,1c0.5,0.3,1.1,0.4,1.9,0.4h2.2c0.3,0.3,0.7,0.6,1,0.9v4h-5.3
			c-0.6,0-1.4-0.2-2.2-0.5c-0.8-0.3-1.7-0.8-2.4-1.4c-0.8-0.6-1.4-1.4-2-2.4c-0.5-0.9-0.8-2.1-0.8-3.4V44c0-0.9-0.2-1.7-0.6-2.3
			c-0.4-0.6-0.9-1-1.5-1.4c-0.6-0.3-1.2-0.5-1.8-0.7c-0.6-0.1-1.1-0.2-1.5-0.2V34.4z"/>
		<path class="st0" d="M285.4,41.3c-1.2,0.1-2.3,0.3-3.4,0.5c-1.1,0.3-2,0.7-2.7,1.3c-0.7,0.6-1.1,1.3-1.1,2.3
			c0,0.7,0.1,1.2,0.4,1.6c0.3,0.4,0.7,0.8,1.1,1.1c0.5,0.3,1,0.5,1.6,0.7c0.6,0.1,1.2,0.2,1.7,0.2c2.4,0,4.2-0.6,5.3-1.7
			c1.1-1.1,1.7-2.7,1.7-4.7v-1.6h-1.4C287.7,41.2,286.6,41.2,285.4,41.3z"/>
		<path class="st0" d="M421.1,30.3c-1.2-2.8-3-5.3-5.1-7.3c-2.2-2-4.7-3.6-7.6-4.7c-2.8-1-5.8-1.6-8.9-1.6c-3.1,0-6.1,0.5-8.9,1.6
			c-2.9,1.1-5.5,2.7-7.6,4.7c-0.2,0.2-0.3,0.4-0.5,0.6c-0.1-0.1-0.2-0.2-0.3-0.3c-1.6-2-3.7-3.6-6.1-4.7c-2.4-1.2-5.2-1.8-8.4-1.8
			c-2.3,0-4.4,0.3-6.4,1c-0.7-0.2-1.5-0.3-2.3-0.3h-6.6c-1.4,0-2.8,0.4-3.9,1c-1.2-0.6-2.5-1-3.9-1h-6.9c-2.2,0-4.2,0.9-5.7,2.2
			c-1.5-1.4-3.5-2.2-5.7-2.2h-6.5V9.9c0-4.7-3.8-8.4-8.4-8.4h-6.9c-4.7,0-8.4,3.8-8.4,8.4v9.4c-1-0.6-2.2-1-3.4-1.4
			c-2.2-0.7-4.7-1.1-7.6-1.1c-3.1,0-6.2,0.5-9.1,1.5c-3.3,1.1-6.3,3-8.8,5.5c-3.1,3.2-3.2,8.1-0.4,11.4c-0.8,1-1.5,2-2.1,3.2
			c-1.1,2.3-1.7,4.8-1.7,7.7c0,2.8,0.7,5.4,1.9,7.8c1.2,2.1,2.7,3.9,4.7,5.3c1.8,1.3,3.7,2.3,5.9,2.9c2,0.6,4,0.8,6.1,0.8
			c2.3,0,4.5-0.4,6.6-1.1c0.8,0.2,1.6,0.4,2.5,0.4h6.3c1.4,0,2.6-0.3,3.8-0.9c1.1,0.6,2.4,0.9,3.8,0.9h6.9c2.6,0,4.9-1.2,6.5-3
			c1,0.8,2.2,1.5,3.4,2c2.4,1.1,5.2,1.7,8.3,1.7c2.3,0,4.4-0.3,6.4-1c0.7,0.2,1.5,0.3,2.3,0.3h6.6c1.4,0,2.8-0.4,3.9-1
			c1.2,0.6,2.5,1,3.9,1h6.9c2.2,0,4.2-0.9,5.7-2.2c1.5,1.4,3.5,2.2,5.7,2.2h6.9c3,0,5.6-1.6,7.1-3.9c1.7,1.2,3.6,2.3,5.6,3
			c2.8,1,5.8,1.6,8.9,1.6c3.1,0,6.1-0.5,8.9-1.6c2.9-1.1,5.5-2.7,7.6-4.7c2.2-2,3.9-4.5,5.1-7.3c1.3-2.9,1.9-6,1.9-9.4
			C423,36.4,422.4,33.2,421.1,30.3z M290.5,53.6v-3.8h-0.2c-1,1.6-2.3,2.7-3.8,3.4c-1.5,0.7-3.2,1.1-5.1,1.1c-1.3,0-2.5-0.2-3.7-0.5
			c-1.2-0.3-2.3-0.9-3.2-1.6c-0.9-0.7-1.7-1.6-2.3-2.6c-0.6-1-0.9-2.3-0.9-3.6c0-1.5,0.3-2.8,0.8-3.8c0.5-1.1,1.3-1.9,2.2-2.7
			c0.9-0.7,2-1.3,3.2-1.7c1.2-0.4,2.4-0.7,3.7-1c1.3-0.2,2.6-0.3,3.9-0.4c1.3-0.1,2.5-0.1,3.7-0.1h1.7v-0.8c0-1.7-0.6-3-1.8-3.9
			c-1.2-0.9-2.7-1.3-4.6-1.3c-1.5,0-2.8,0.3-4.1,0.8c-1.3,0.5-2.4,1.2-3.3,2.1l-3.6-3.6c1.5-1.6,3.3-2.7,5.4-3.4
			c2.1-0.7,4.2-1,6.4-1c2,0,3.6,0.2,5,0.7c1.4,0.4,2.5,1,3.4,1.7c0.9,0.7,1.6,1.5,2.1,2.4c0.2,0.4,0.4,0.9,0.6,1.4v22.3H290.5z
			 M305.2,53.6v-16c0-0.8,0-1.6-0.1-2.7c-0.1-1.4-0.3-2.8-0.6-4.2c-0.1-0.3-0.1-0.5-0.2-0.8V9.9h6.9v13.3c-0.3,0.9-0.5,1.8-0.5,2.7
			v17.5c0,1.6,0.2,3.2,0.5,4.8v5.5H305.2z M338,53.6v-4.5h-0.1c-0.7,1.4-1.7,2.6-3,3.6c-1.4,1-3.2,1.5-5.5,1.5
			c-1.9,0-3.4-0.3-4.7-0.9c-1.3-0.6-2.3-1.4-3.2-2.4c-0.8-1-1.4-2.2-1.7-3.5c0-0.1,0-0.2-0.1-0.3V25.9h6.5v14.1c0,0.8,0,1.6,0.1,2.6
			c0.1,0.9,0.3,1.8,0.6,2.7c0.3,0.8,0.8,1.5,1.5,2.1c0.7,0.6,1.6,0.8,2.9,0.8c1.2,0,2.1-0.2,2.9-0.6c0.8-0.4,1.4-0.9,2-1.6
			c0.5-0.7,0.9-1.4,1.1-2.3c0.2-0.8,0.3-1.7,0.3-2.7V25.9h6.4v27.8H338z M370.9,53.6V39.6c0-0.8,0-1.6-0.1-2.6
			c-0.1-0.9-0.3-1.8-0.6-2.7c-0.3-0.8-0.8-1.5-1.5-2.1c-0.7-0.6-1.6-0.8-2.8-0.8c-1.2,0-2.1,0.2-2.9,0.6c-0.8,0.4-1.4,0.9-2,1.6
			c-0.5,0.7-0.9,1.4-1.1,2.3c-0.2,0.8-0.3,1.7-0.3,2.7v15.2h-6.4V25.9h6v4.5h0.1c0.7-1.4,1.7-2.6,3-3.6c1.4-1,3.2-1.5,5.5-1.5
			c1.9,0,3.4,0.3,4.7,0.9c1.3,0.6,2.3,1.4,3.2,2.4c0.8,0.9,1.3,2,1.7,3.3c-0.9,2.5-1.4,5.1-1.4,8c0,3.4,0.6,6.5,1.9,9.4
			c0,0,0,0.1,0.1,0.1v4.4H370.9z M413.4,45.7c-0.8,1.8-1.9,3.3-3.2,4.6c-1.4,1.3-3,2.3-4.8,3c-1.9,0.7-3.8,1-5.9,1
			c-2.1,0-4.1-0.3-5.9-1c-1.9-0.7-3.5-1.7-4.8-3c-1-0.9-1.8-1.9-2.4-3.1V36.1c0-1.2-0.1-2.3-0.2-3.4c0.7-1.3,1.6-2.5,2.7-3.5
			c1.4-1.3,3-2.3,4.8-3s3.8-1,5.9-1c2.1,0,4.1,0.3,5.9,1c1.9,0.7,3.5,1.7,4.8,3c1.4,1.3,2.4,2.8,3.2,4.6c0.8,1.8,1.2,3.8,1.2,6
			S414.2,43.9,413.4,45.7z"/>
		<path class="st0" d="M405.4,34c-0.7-0.8-1.6-1.4-2.6-1.9c-1-0.5-2.1-0.7-3.4-0.7c-1.3,0-2.4,0.2-3.4,0.7c-1,0.5-1.9,1.1-2.6,1.9
			c-0.7,0.8-1.3,1.7-1.6,2.7c-0.4,1-0.5,2-0.5,3.1c0,1.1,0.2,2.1,0.5,3.1c0.4,1,0.9,1.9,1.6,2.7c0.7,0.8,1.6,1.4,2.6,1.9
			c1,0.5,2.1,0.7,3.4,0.7c1.3,0,2.4-0.2,3.4-0.7c1-0.5,1.9-1.1,2.6-1.9c0.7-0.8,1.3-1.7,1.6-2.7c0.4-1,0.5-2,0.5-3.1
			c0-1.1-0.2-2.1-0.5-3.1C406.7,35.6,406.2,34.7,405.4,34z"/>
		<path class="st0" d="M63.5,103.4c-0.7-0.8-1.6-1.4-2.6-1.9c-1-0.5-2.1-0.7-3.4-0.7c-1.3,0-2.4,0.2-3.4,0.7c-1,0.5-1.9,1.1-2.6,1.9
			c-0.7,0.8-1.3,1.7-1.6,2.7c-0.4,1-0.5,2-0.5,3.1c0,1.1,0.2,2.1,0.5,3.1c0.4,1,0.9,1.9,1.6,2.7c0.7,0.8,1.6,1.4,2.6,1.9
			c1,0.5,2.1,0.7,3.4,0.7c1.3,0,2.4-0.2,3.4-0.7c1-0.5,1.9-1.1,2.6-1.9c0.7-0.8,1.3-1.7,1.6-2.7c0.4-1,0.5-2,0.5-3.1
			c0-1.1-0.2-2.1-0.5-3.1C64.7,105.1,64.2,104.2,63.5,103.4z"/>
		<path class="st0" d="M92.5,110.8c-1.2,0.1-2.3,0.3-3.4,0.5c-1.1,0.3-2,0.7-2.7,1.3c-0.7,0.6-1.1,1.3-1.1,2.3
			c0,0.7,0.1,1.2,0.4,1.6c0.3,0.4,0.7,0.8,1.1,1.1c0.5,0.3,1,0.5,1.6,0.7c0.6,0.1,1.2,0.2,1.7,0.2c2.4,0,4.2-0.6,5.3-1.7
			c1.1-1.1,1.7-2.7,1.7-4.7v-1.6h-1.4C94.8,110.7,93.7,110.7,92.5,110.8z"/>
		<path class="st0" d="M224.5,101.6c-1.2-1.2-3-1.8-5.2-1.8c-2.1,0-3.7,0.6-4.9,1.8c-1.2,1.2-2,2.8-2.2,4.8h14.2
			C226.4,104.4,225.8,102.8,224.5,101.6z"/>
		<path class="st0" d="M333.9,101.6c-1.2-1.2-3-1.8-5.2-1.8c-2.1,0-3.7,0.6-4.9,1.8c-1.2,1.2-2,2.8-2.2,4.8h14.2
			C335.8,104.4,335.2,102.8,333.9,101.6z"/>
		<path class="st0" d="M382.7,95.8l-29.3-13c-1.1-0.5-2.3-0.7-3.4-0.7c-1.6,0-3.2,0.5-4.6,1.4c-2.2,1.4-3.5,3.7-3.8,6.2
			c-1-0.7-2.1-1.3-3.2-1.8c-2.6-1.1-5.5-1.7-8.6-1.7c-3.1,0-6.1,0.5-8.9,1.6c-1.4,0.5-2.8,1.2-4,2c0.4-1.2,0.6-2.5,0.6-3.8
			c0-3.6-1.4-6.8-4.1-9.2c-2.4-2.2-5.5-3.4-8.9-3.4c-3.5,0-6.7,1.3-9.1,3.7c-2.4,2.4-3.7,5.6-3.7,8.9c0,0.3,0,0.7,0.1,1h-19.9
			c-2.3,0-4.4,0.9-6,2.5c-0.8-0.5-1.6-1-2.4-1.4c-2.4-1.2-5.2-1.8-8.4-1.8c-2.3,0-4.4,0.3-6.4,1c-0.7-0.2-1.5-0.3-2.3-0.3h-6.6
			c-2.8,0-5.2,1.3-6.8,3.4c-1.3-1-2.7-1.8-4.2-2.4c-2.6-1.1-5.5-1.7-8.6-1.7c-3.1,0-6.1,0.5-8.9,1.6c-2.9,1.1-5.5,2.7-7.6,4.7
			c-2.2,2-3.9,4.5-5.1,7.3c-0.6,1.4-1.1,2.8-1.4,4.4l-2.7-2.9l13.3-13.1c1.6-1.5,2.6-3.7,2.6-6.1c0-4.7-3.8-8.4-8.4-8.4h0h-9.8
			c-2.3,0-4.5,0.9-6,2.5l-3.2,3.3c-1.1-3.4-4.3-5.9-8-5.9h-7.3c-4.6,0-8.4,3.8-8.4,8.4c-0.3,0-0.5-0.1-0.8-0.1
			c-1.2,0-2.3,0.2-3.4,0.7l-29.3,13c-3,1.4-5,4.4-5,7.7v4.2c0,3.3,2,6.4,5,7.7l29.3,13c1.1,0.5,2.3,0.7,3.4,0.7c1,0,1.9-0.2,2.8-0.5
			c1.5,1.8,3.8,2.9,6.4,2.9h7.3c4.1,0,7.6-3,8.3-6.9l3.5,4c1.6,1.8,3.9,2.9,6.3,2.9h10.2c2.1,0,4-0.8,5.5-2.1
			c0.8,0.4,1.7,0.8,2.6,1.2c2.8,1,5.8,1.6,8.9,1.6c3.3,0,6.6-0.7,9.6-1.9c1.2-0.5,2.3-1.1,3.4-1.8c1.5,1.9,3.9,3.1,6.5,3.1h6.9
			c2.2,0,4.2-0.9,5.7-2.2c1.5,1.4,3.5,2.2,5.7,2.2h6.9c1,0,2-0.2,3-0.5c0.9,0.3,1.9,0.5,3,0.5h24c1.1,0,2.1-0.2,3-0.6
			c0.9,0.4,1.9,0.6,3,0.6h6.9c3,0,5.7-1.6,7.2-4c1.7,1.3,3.6,2.3,5.7,3.1c2.8,1,5.8,1.6,8.9,1.6c3.3,0,6.6-0.7,9.6-1.9
			c1.8-0.8,3.6-1.8,5.2-3.2c0.3,0.2,0.5,0.4,0.8,0.6c1.4,0.9,3,1.4,4.6,1.4c1.2,0,2.3-0.2,3.4-0.7l29.3-13c3-1.4,5-4.4,5-7.7v-4.2
			C387.7,100.1,385.7,97.1,382.7,95.8z M158.4,96.8l-19.6,8.7l19.6,8.7v6.4l-29.3-13v-4.2l29.3-13V96.8z M301.4,83
			c0.8-0.8,1.9-1.2,3.2-1.2c1.3,0,2.3,0.4,3.2,1.2c0.9,0.8,1.3,1.8,1.3,3c0,1.2-0.4,2.2-1.3,3c-0.9,0.8-1.9,1.2-3.2,1.2
			c-1.3,0-2.3-0.4-3.2-1.2c-0.8-0.8-1.2-1.8-1.2-2.9S300.5,83.8,301.4,83z M175.3,103h-0.4v20.1h-7.3v-41h7.3v17.4h0.3l17-17.4h9.8
			L182.9,101l15.5,16.7c0.1,0.3,0.2,0.6,0.3,0.8c0.7,1.6,1.6,3.1,2.6,4.5h-8.3L175.3,103z M226.7,122.5c-2,0.8-4.1,1.3-6.3,1.3
			c-2.1,0-4.1-0.3-5.9-1c-1-0.4-2-0.9-2.9-1.5c-0.3-1.4-1-2.8-2-3.9l-3.7-4c-0.4-1.3-0.5-2.7-0.5-4.1c0-2.2,0.4-4.2,1.2-6
			c0.8-1.8,1.9-3.3,3.2-4.6c1.4-1.3,3-2.3,4.8-3c1.9-0.7,3.8-1,5.9-1c1.9,0,3.7,0.3,5.3,1c1.6,0.7,3,1.6,4.1,2.9
			c0.6,0.7,1.2,1.5,1.7,2.4v10.7h-19.2c0.2,2.1,1,3.7,2.4,4.9c1.4,1.2,3.1,1.7,5,1.7c1.7,0,3.2-0.4,4.4-1.1c1.2-0.7,2.2-1.6,3.1-2.7
			l4.3,3.2v1.3C230,120.6,228.4,121.8,226.7,122.5z M258.3,123.1V109c0-0.8,0-1.6-0.1-2.6c-0.1-0.9-0.3-1.8-0.6-2.7
			c-0.3-0.8-0.8-1.5-1.5-2.1c-0.7-0.6-1.6-0.8-2.8-0.8c-1.2,0-2.1,0.2-2.9,0.6c-0.8,0.4-1.4,0.9-2,1.6c-0.5,0.7-0.9,1.4-1.1,2.3
			c-0.2,0.8-0.3,1.7-0.3,2.7v15.2h-6.9v-1.6c0.6-1.4,0.8-2.8,0.6-4.3c0-0.3-0.1-0.5-0.1-0.8c0.9-1.4,1.5-3,1.5-4.8v-1.9
			c0-3.3-0.5-6.4-1.4-9.2c-0.2-0.5-0.4-0.9-0.6-1.4v-3.8h6.6v4.5h0.1c0.7-1.4,1.7-2.6,3-3.6c1.4-1,3.2-1.5,5.5-1.5
			c1.9,0,3.4,0.3,4.7,0.9c1.3,0.6,2.3,1.4,3.2,2.4c0.1,0.2,0.3,0.4,0.4,0.6v2.3c0,2,0.7,3.8,1.8,5.3v4.5l-0.2,0.2
			c-1.5,1.6-2.3,3.6-2.3,5.8v6.4H258.3z M273.7,123.1V114l12.3-13v-0.1h-12.8c-0.1-0.5-0.2-1.1-0.4-1.6c-0.3-1-0.6-1.9-1-2.9v-1.1
			h20.8v8.1l-13.3,14.1h13.3v5.6H273.7z M303.5,123.1v-5.6c0-2.3-0.9-4.4-2.4-5.9v-4.9c1.1-1.5,1.7-3.3,1.7-5.1v-6.3h5.2v4.7
			c-1.2,2.8-1.8,5.9-1.8,9.2c0,3.3,0.6,6.4,1.8,9.2v4.7H303.5z M336.1,122.5c-2,0.8-4.1,1.3-6.3,1.3c-2.1,0-4.1-0.3-5.9-1
			c-1.9-0.7-3.5-1.7-4.8-3c-1-1-1.9-2-2.6-3.3v-14.6c0.7-1.2,1.5-2.3,2.6-3.3c1.4-1.3,3-2.3,4.8-3c1.9-0.7,3.8-1,5.9-1
			c1.9,0,3.7,0.3,5.3,1c1.6,0.7,3,1.6,4.1,2.9c1.1,1.3,2,2.8,2.7,4.7c0.6,1.9,1,4,1,6.5v0.2c-0.3,0.6-0.6,1.1-0.8,1.8h-20.4
			c0.2,2.1,1,3.7,2.4,4.9c1.4,1.2,3.1,1.7,5,1.7c1.7,0,3.2-0.4,4.4-1.1c1.2-0.7,2.2-1.6,3.1-2.7l5,3.8
			C339.9,120.2,338.1,121.7,336.1,122.5z M379.3,107.6l-29.3,13V116c0.4-0.7,0.7-1.4,0.9-2.2l18.6-8.3L350,96.8v-6.4l29.3,13V107.6z
			"/>
	</g>
	<g>
		<path class="st1" d="M31.3,21.5c-0.8-1.1-1.8-1.9-3.1-2.5c-1.3-0.5-2.7-0.8-4.1-0.8c-0.8,0-1.7,0.1-2.5,0.3
			c-0.8,0.2-1.5,0.5-2.1,0.9c-0.6,0.4-1.1,1-1.5,1.6c-0.4,0.7-0.6,1.5-0.6,2.4c0,1.4,0.5,2.5,1.4,3.2c1,0.7,2.2,1.4,3.6,1.9
			c1.4,0.5,3,1.1,4.7,1.6c1.7,0.5,3.3,1.2,4.7,2.1c1.4,0.9,2.6,2.1,3.6,3.5c1,1.5,1.4,3.4,1.4,5.8c0,2.2-0.4,4.1-1.2,5.8
			c-0.8,1.6-1.9,3-3.3,4.1c-1.4,1.1-3,1.9-4.8,2.4c-1.8,0.5-3.7,0.8-5.7,0.8c-2.5,0-5-0.4-7.4-1.3c-2.4-0.8-4.4-2.3-6.1-4.3l5.5-5.3
			c0.9,1.4,2.1,2.4,3.5,3.2c1.4,0.8,3,1.1,4.6,1.1c0.8,0,1.7-0.1,2.5-0.3c0.8-0.2,1.6-0.6,2.3-1c0.7-0.5,1.3-1.1,1.7-1.8
			c0.4-0.7,0.6-1.5,0.6-2.5c0-1.5-0.5-2.7-1.4-3.5c-1-0.8-2.2-1.5-3.6-2.1c-1.4-0.6-3-1.1-4.7-1.6c-1.7-0.5-3.3-1.2-4.7-2.1
			c-1.4-0.9-2.6-2-3.6-3.5c-1-1.4-1.4-3.4-1.4-5.8c0-2.1,0.4-4,1.3-5.5c0.9-1.5,2-2.8,3.4-3.8c1.4-1,3-1.8,4.8-2.3
			c1.8-0.5,3.7-0.8,5.6-0.8c2.2,0,4.3,0.3,6.3,1c2,0.7,3.8,1.7,5.5,3.2L31.3,21.5z"/>
		<path class="st1" d="M49.3,42.2c0.2,2.1,1,3.7,2.4,4.9c1.4,1.2,3.1,1.7,5,1.7c1.7,0,3.2-0.4,4.4-1.1c1.2-0.7,2.2-1.6,3.1-2.7
			l5,3.8c-1.6,2-3.4,3.4-5.4,4.3c-2,0.8-4.1,1.3-6.3,1.3c-2.1,0-4.1-0.3-5.9-1c-1.9-0.7-3.5-1.7-4.8-3c-1.4-1.3-2.4-2.8-3.2-4.6
			c-0.8-1.8-1.2-3.8-1.2-6s0.4-4.2,1.2-6c0.8-1.8,1.9-3.3,3.2-4.6c1.4-1.3,3-2.3,4.8-3c1.9-0.7,3.8-1,5.9-1c1.9,0,3.7,0.3,5.3,1
			c1.6,0.7,3,1.6,4.1,2.9c1.1,1.3,2,2.8,2.7,4.7c0.6,1.9,1,4,1,6.5v1.9H49.3z M63.6,37c0-2-0.7-3.7-1.9-4.8c-1.2-1.2-3-1.8-5.2-1.8
			c-2.1,0-3.7,0.6-4.9,1.8c-1.2,1.2-2,2.8-2.2,4.8H63.6z"/>
		<path class="st1" d="M84.1,25.9v29.5c0,1.7-0.1,3.3-0.3,4.8c-0.2,1.5-0.7,2.8-1.4,3.9c-0.7,1.1-1.6,2-2.9,2.6
			c-1.2,0.6-2.8,0.9-4.8,0.9c-0.7,0-1.3,0-1.9-0.1c-0.6-0.1-1.2-0.2-1.9-0.4l0.5-6c0.4,0.1,0.8,0.1,1.1,0.2c0.3,0.1,0.7,0.1,1.1,0.1
			c0.8,0,1.5-0.2,2-0.5c0.5-0.4,0.8-0.8,1-1.4c0.2-0.6,0.3-1.2,0.4-1.9c0-0.7,0.1-1.4,0.1-2V25.9H84.1z M76.1,16.4
			c0-1.1,0.4-2.1,1.2-2.9c0.8-0.8,1.9-1.2,3.2-1.2c1.3,0,2.3,0.4,3.2,1.2c0.9,0.8,1.3,1.8,1.3,3c0,1.2-0.4,2.2-1.3,3
			c-0.9,0.8-1.9,1.2-3.2,1.2c-1.3,0-2.3-0.4-3.2-1.2C76.5,18.5,76.1,17.5,76.1,16.4z"/>
		<path class="st1" d="M109.4,49.8h-0.2c-1,1.6-2.3,2.7-3.8,3.4c-1.5,0.7-3.2,1.1-5.1,1.1c-1.3,0-2.5-0.2-3.7-0.5
			c-1.2-0.3-2.3-0.9-3.2-1.6c-0.9-0.7-1.7-1.6-2.3-2.6c-0.6-1-0.9-2.3-0.9-3.6c0-1.5,0.3-2.8,0.8-3.8c0.5-1.1,1.3-1.9,2.2-2.7
			c0.9-0.7,2-1.3,3.2-1.7c1.2-0.4,2.4-0.7,3.7-1c1.3-0.2,2.6-0.3,3.9-0.4c1.3-0.1,2.5-0.1,3.7-0.1h1.7v-0.8c0-1.7-0.6-3-1.8-3.9
			c-1.2-0.9-2.7-1.3-4.6-1.3c-1.5,0-2.8,0.3-4.1,0.8c-1.3,0.5-2.4,1.2-3.3,2.1L92,29.6c1.5-1.6,3.3-2.7,5.4-3.4c2.1-0.7,4.2-1,6.4-1
			c2,0,3.6,0.2,5,0.7c1.4,0.4,2.5,1,3.4,1.7c0.9,0.7,1.6,1.5,2.1,2.4c0.5,0.9,0.8,1.8,1,2.7c0.2,0.9,0.3,1.8,0.4,2.7
			c0,0.9,0.1,1.6,0.1,2.3v16h-6.3V49.8z M109,41.2h-1.4c-1,0-2,0-3.2,0.1c-1.2,0.1-2.3,0.3-3.4,0.5c-1.1,0.3-2,0.7-2.7,1.3
			c-0.7,0.6-1.1,1.3-1.1,2.3c0,0.7,0.1,1.2,0.4,1.6c0.3,0.4,0.7,0.8,1.1,1.1c0.5,0.3,1,0.5,1.6,0.7c0.6,0.1,1.2,0.2,1.7,0.2
			c2.4,0,4.2-0.6,5.3-1.7c1.1-1.1,1.7-2.7,1.7-4.7V41.2z"/>
		<path class="st1" d="M136.3,34.4c0.4,0,0.9-0.1,1.5-0.2c0.6-0.1,1.2-0.3,1.8-0.6c0.6-0.3,1.1-0.7,1.5-1.2c0.4-0.5,0.6-1.2,0.6-2
			V18.9c0-1.3,0.3-2.4,0.8-3.4c0.5-0.9,1.2-1.7,2-2.4c0.8-0.6,1.6-1.1,2.4-1.4c0.8-0.3,1.6-0.5,2.2-0.5h5.3v4.9h-3.2
			c-0.8,0-1.5,0.1-1.9,0.4c-0.5,0.3-0.8,0.6-1.1,1c-0.3,0.4-0.4,0.8-0.5,1.3c-0.1,0.5-0.1,0.9-0.1,1.3v10.9c0,1.1-0.2,2-0.6,2.8
			c-0.4,0.7-0.9,1.3-1.5,1.8c-0.6,0.4-1.2,0.8-1.9,1c-0.6,0.2-1.2,0.3-1.6,0.3V37c0.5,0,1,0.1,1.6,0.3c0.6,0.2,1.3,0.4,1.9,0.9
			c0.6,0.4,1.1,1,1.5,1.8c0.4,0.8,0.6,1.9,0.6,3.2v10.5c0,0.4,0,0.9,0.1,1.3c0.1,0.5,0.2,0.9,0.5,1.3c0.3,0.4,0.6,0.7,1.1,1
			c0.5,0.3,1.1,0.4,1.9,0.4h3.2v4.9h-5.3c-0.6,0-1.4-0.2-2.2-0.5c-0.8-0.3-1.7-0.8-2.4-1.4c-0.8-0.6-1.4-1.4-2-2.4
			c-0.5-0.9-0.8-2.1-0.8-3.4V44c0-0.9-0.2-1.7-0.6-2.3c-0.4-0.6-0.9-1-1.5-1.4c-0.6-0.3-1.2-0.5-1.8-0.7c-0.6-0.1-1.1-0.2-1.5-0.2
			V34.4z"/>
		<path class="st1" d="M181.7,53.6h-6.6v-4.5H175c-0.7,1.4-1.7,2.6-3,3.6c-1.4,1-3.2,1.5-5.5,1.5c-1.9,0-3.4-0.3-4.7-0.9
			c-1.3-0.6-2.3-1.4-3.2-2.4c-0.8-1-1.4-2.2-1.7-3.5c-0.3-1.3-0.5-2.7-0.5-4.1V25.9h6.9v14.1c0,0.8,0,1.6,0.1,2.6
			c0.1,0.9,0.3,1.8,0.6,2.7c0.3,0.8,0.8,1.5,1.5,2.1c0.7,0.6,1.6,0.8,2.9,0.8c1.2,0,2.1-0.2,2.9-0.6c0.8-0.4,1.4-0.9,2-1.6
			c0.5-0.7,0.9-1.4,1.1-2.3c0.2-0.8,0.3-1.7,0.3-2.7V25.9h6.9V53.6z"/>
		<path class="st1" d="M189.3,25.9h6.6v4.3h0.1c0.6-1.3,1.6-2.5,3-3.5c1.4-1,3.2-1.5,5.5-1.5c4.4,0,7.3,1.7,8.7,5.2
			c1-1.8,2.3-3.1,3.8-3.9c1.5-0.8,3.3-1.2,5.4-1.2c1.9,0,3.4,0.3,4.7,0.9c1.3,0.6,2.3,1.5,3.1,2.5c0.8,1.1,1.4,2.3,1.7,3.8
			c0.3,1.4,0.5,3,0.5,4.7v16.6h-6.9V37.9c0-0.8-0.1-1.7-0.2-2.5c-0.2-0.8-0.4-1.5-0.8-2.1c-0.4-0.6-0.9-1.1-1.6-1.4
			c-0.7-0.3-1.5-0.5-2.5-0.5c-1.1,0-2,0.2-2.7,0.6c-0.8,0.4-1.4,0.9-1.9,1.6c-0.5,0.7-0.8,1.4-1,2.3c-0.2,0.9-0.3,1.7-0.3,2.6v15
			h-6.9V37.1c0-1.7-0.4-3.1-1.1-4.1c-0.7-1-1.9-1.5-3.6-1.5c-1.2,0-2.1,0.2-2.9,0.6c-0.8,0.4-1.4,0.9-2,1.6
			c-0.5,0.7-0.9,1.4-1.1,2.3c-0.2,0.8-0.3,1.7-0.3,2.7v15.2h-6.9V25.9z"/>
		<path class="st1" d="M252.1,39.5c-0.4,0-0.9,0.1-1.6,0.2c-0.6,0.1-1.2,0.3-1.8,0.6c-0.6,0.3-1.1,0.7-1.5,1.2
			c-0.4,0.5-0.6,1.2-0.6,2V55c0,1.3-0.3,2.4-0.8,3.4c-0.5,0.9-1.2,1.7-2,2.4c-0.8,0.6-1.6,1.1-2.4,1.4c-0.8,0.3-1.6,0.5-2.2,0.5H234
			v-4.9h3.2c0.8,0,1.5-0.1,1.9-0.4c0.5-0.3,0.8-0.6,1.1-1c0.3-0.4,0.4-0.8,0.5-1.3c0.1-0.5,0.1-0.9,0.1-1.3V42.9
			c0-1.1,0.2-2,0.6-2.8c0.4-0.7,0.9-1.3,1.5-1.7c0.6-0.4,1.2-0.7,1.9-0.9c0.6-0.2,1.2-0.3,1.6-0.4v-0.1c-0.5,0-1-0.1-1.6-0.3
			c-0.6-0.2-1.3-0.4-1.9-0.9c-0.6-0.4-1.1-1-1.5-1.8c-0.4-0.8-0.6-1.9-0.6-3.2V20.2c0-0.4,0-0.9-0.1-1.3c-0.1-0.5-0.2-0.9-0.5-1.3
			c-0.3-0.4-0.6-0.7-1.1-1c-0.5-0.3-1.1-0.4-1.9-0.4H234v-4.9h5.3c0.6,0,1.4,0.2,2.2,0.5c0.8,0.3,1.7,0.8,2.4,1.4
			c0.8,0.6,1.4,1.4,2,2.4c0.5,0.9,0.8,2.1,0.8,3.4V30c0,0.9,0.2,1.7,0.6,2.3c0.4,0.6,0.9,1,1.5,1.4c0.6,0.3,1.2,0.5,1.8,0.7
			c0.6,0.1,1.1,0.2,1.6,0.2V39.5z"/>
		<path class="st1" d="M290.5,49.8h-0.2c-1,1.6-2.3,2.7-3.8,3.4c-1.5,0.7-3.2,1.1-5.1,1.1c-1.3,0-2.5-0.2-3.7-0.5
			c-1.2-0.3-2.3-0.9-3.2-1.6c-0.9-0.7-1.7-1.6-2.3-2.6c-0.6-1-0.9-2.3-0.9-3.6c0-1.5,0.3-2.8,0.8-3.8c0.5-1.1,1.3-1.9,2.2-2.7
			c0.9-0.7,2-1.3,3.2-1.7c1.2-0.4,2.4-0.7,3.7-1c1.3-0.2,2.6-0.3,3.9-0.4c1.3-0.1,2.5-0.1,3.7-0.1h1.7v-0.8c0-1.7-0.6-3-1.8-3.9
			c-1.2-0.9-2.7-1.3-4.6-1.3c-1.5,0-2.8,0.3-4.1,0.8c-1.3,0.5-2.4,1.2-3.3,2.1l-3.6-3.6c1.5-1.6,3.3-2.7,5.4-3.4
			c2.1-0.7,4.2-1,6.4-1c2,0,3.6,0.2,5,0.7c1.4,0.4,2.5,1,3.4,1.7c0.9,0.7,1.6,1.5,2.1,2.4c0.5,0.9,0.8,1.8,1,2.7
			c0.2,0.9,0.3,1.8,0.4,2.7c0,0.9,0.1,1.6,0.1,2.3v16h-6.3V49.8z M290.1,41.2h-1.4c-1,0-2,0-3.2,0.1c-1.2,0.1-2.3,0.3-3.4,0.5
			c-1.1,0.3-2,0.7-2.7,1.3c-0.7,0.6-1.1,1.3-1.1,2.3c0,0.7,0.1,1.2,0.4,1.6c0.3,0.4,0.7,0.8,1.1,1.1c0.5,0.3,1,0.5,1.6,0.7
			c0.6,0.1,1.2,0.2,1.7,0.2c2.4,0,4.2-0.6,5.3-1.7c1.1-1.1,1.7-2.7,1.7-4.7V41.2z"/>
		<path class="st1" d="M304.3,9.9h6.9v43.8h-6.9V9.9z"/>
		<path class="st1" d="M344.6,53.6H338v-4.5h-0.1c-0.7,1.4-1.7,2.6-3,3.6c-1.4,1-3.2,1.5-5.5,1.5c-1.9,0-3.4-0.3-4.7-0.9
			c-1.3-0.6-2.3-1.4-3.2-2.4c-0.8-1-1.4-2.2-1.7-3.5c-0.3-1.3-0.5-2.7-0.5-4.1V25.9h6.9v14.1c0,0.8,0,1.6,0.1,2.6
			c0.1,0.9,0.3,1.8,0.6,2.7c0.3,0.8,0.8,1.5,1.5,2.1c0.7,0.6,1.6,0.8,2.9,0.8c1.2,0,2.1-0.2,2.9-0.6c0.8-0.4,1.4-0.9,2-1.6
			c0.5-0.7,0.9-1.4,1.1-2.3c0.2-0.8,0.3-1.7,0.3-2.7V25.9h6.9V53.6z"/>
		<path class="st1" d="M352.5,25.9h6.6v4.5h0.1c0.7-1.4,1.7-2.6,3-3.6c1.4-1,3.2-1.5,5.5-1.5c1.9,0,3.4,0.3,4.7,0.9
			c1.3,0.6,2.3,1.4,3.2,2.4c0.8,1,1.4,2.2,1.7,3.5c0.3,1.3,0.5,2.7,0.5,4.1v17.5h-6.9V39.6c0-0.8,0-1.6-0.1-2.6
			c-0.1-0.9-0.3-1.8-0.6-2.7c-0.3-0.8-0.8-1.5-1.5-2.1c-0.7-0.6-1.6-0.8-2.8-0.8c-1.2,0-2.1,0.2-2.9,0.6c-0.8,0.4-1.4,0.9-2,1.6
			c-0.5,0.7-0.9,1.4-1.1,2.3c-0.2,0.8-0.3,1.7-0.3,2.7v15.2h-6.9V25.9z"/>
		<path class="st1" d="M384.3,39.7c0-2.2,0.4-4.2,1.2-6c0.8-1.8,1.9-3.3,3.2-4.6c1.4-1.3,3-2.3,4.8-3s3.8-1,5.9-1
			c2.1,0,4.1,0.3,5.9,1c1.9,0.7,3.5,1.7,4.8,3c1.4,1.3,2.4,2.8,3.2,4.6c0.8,1.8,1.2,3.8,1.2,6s-0.4,4.2-1.2,6
			c-0.8,1.8-1.9,3.3-3.2,4.6c-1.4,1.3-3,2.3-4.8,3c-1.9,0.7-3.8,1-5.9,1c-2.1,0-4.1-0.3-5.9-1c-1.9-0.7-3.5-1.7-4.8-3
			c-1.4-1.3-2.4-2.8-3.2-4.6C384.7,43.9,384.3,41.9,384.3,39.7z M391.3,39.7c0,1.1,0.2,2.1,0.5,3.1c0.4,1,0.9,1.9,1.6,2.7
			c0.7,0.8,1.6,1.4,2.6,1.9c1,0.5,2.1,0.7,3.4,0.7c1.3,0,2.4-0.2,3.4-0.7c1-0.5,1.9-1.1,2.6-1.9c0.7-0.8,1.3-1.7,1.6-2.7
			c0.4-1,0.5-2,0.5-3.1c0-1.1-0.2-2.1-0.5-3.1c-0.4-1-0.9-1.9-1.6-2.7c-0.7-0.8-1.6-1.4-2.6-1.9c-1-0.5-2.1-0.7-3.4-0.7
			c-1.3,0-2.4,0.2-3.4,0.7c-1,0.5-1.9,1.1-2.6,1.9c-0.7,0.8-1.3,1.7-1.6,2.7C391.5,37.6,391.3,38.7,391.3,39.7z"/>
		<path class="st1" d="M65.8,118.9h-0.1c-1,1.7-2.4,2.9-4.1,3.7c-1.7,0.8-3.5,1.2-5.5,1.2c-2.2,0-4.1-0.4-5.8-1.1
			c-1.7-0.8-3.1-1.8-4.3-3.1c-1.2-1.3-2.1-2.9-2.7-4.6c-0.6-1.8-0.9-3.7-0.9-5.7c0-2,0.3-4,1-5.7c0.7-1.8,1.6-3.3,2.7-4.6
			c1.2-1.3,2.6-2.3,4.3-3.1c1.7-0.8,3.5-1.1,5.4-1.1c1.3,0,2.5,0.1,3.5,0.4c1,0.3,1.9,0.6,2.7,1c0.8,0.4,1.4,0.9,2,1.4
			c0.5,0.5,1,1,1.3,1.4h0.2V79.3h6.9v43.8h-6.6V118.9z M49.3,109.2c0,1.1,0.2,2.1,0.5,3.1c0.4,1,0.9,1.9,1.6,2.7
			c0.7,0.8,1.6,1.4,2.6,1.9c1,0.5,2.1,0.7,3.4,0.7c1.3,0,2.4-0.2,3.4-0.7c1-0.5,1.9-1.1,2.6-1.9c0.7-0.8,1.3-1.7,1.6-2.7
			c0.4-1,0.5-2,0.5-3.1c0-1.1-0.2-2.1-0.5-3.1c-0.4-1-0.9-1.9-1.6-2.7c-0.7-0.8-1.6-1.4-2.6-1.9c-1-0.5-2.1-0.7-3.4-0.7
			c-1.3,0-2.4,0.2-3.4,0.7c-1,0.5-1.9,1.1-2.6,1.9c-0.7,0.8-1.3,1.7-1.6,2.7C49.5,107.1,49.3,108.1,49.3,109.2z"/>
		<path class="st1" d="M97.6,119.3h-0.2c-1,1.6-2.3,2.7-3.8,3.4c-1.5,0.7-3.2,1.1-5.1,1.1c-1.3,0-2.5-0.2-3.7-0.5
			c-1.2-0.3-2.3-0.9-3.2-1.6c-0.9-0.7-1.7-1.6-2.3-2.6c-0.6-1-0.9-2.3-0.9-3.6c0-1.5,0.3-2.8,0.8-3.8c0.5-1.1,1.3-1.9,2.2-2.7
			c0.9-0.7,2-1.3,3.2-1.7c1.2-0.4,2.4-0.7,3.7-1c1.3-0.2,2.6-0.3,3.9-0.4c1.3-0.1,2.5-0.1,3.7-0.1h1.7V105c0-1.7-0.6-3-1.8-3.9
			c-1.2-0.9-2.7-1.3-4.6-1.3c-1.5,0-2.8,0.3-4.1,0.8c-1.3,0.5-2.4,1.2-3.3,2.1l-3.6-3.6c1.5-1.6,3.3-2.7,5.4-3.4
			c2.1-0.7,4.2-1,6.4-1c2,0,3.6,0.2,5,0.7c1.4,0.4,2.5,1,3.4,1.7c0.9,0.7,1.6,1.5,2.1,2.4c0.5,0.9,0.8,1.8,1,2.7
			c0.2,0.9,0.3,1.8,0.4,2.7c0,0.9,0.1,1.6,0.1,2.3v16h-6.3V119.3z M97.2,110.7h-1.4c-1,0-2,0-3.2,0.1c-1.2,0.1-2.3,0.3-3.4,0.5
			c-1.1,0.3-2,0.7-2.7,1.3c-0.7,0.6-1.1,1.3-1.1,2.3c0,0.7,0.1,1.2,0.4,1.6c0.3,0.4,0.7,0.8,1.1,1.1c0.5,0.3,1,0.5,1.6,0.7
			c0.6,0.1,1.2,0.2,1.7,0.2c2.4,0,4.2-0.6,5.3-1.7c1.1-1.1,1.7-2.7,1.7-4.7V110.7z"/>
		<path class="st1" d="M129.1,107.6v-4.2l29.3-13v6.4l-19.6,8.7l19.6,8.7v6.4L129.1,107.6z"/>
		<path class="st1" d="M167.6,82.1h7.3v17.4h0.3l17-17.4h9.8L182.9,101l20.4,22.1h-10.2L175.3,103h-0.4v20.1h-7.3V82.1z"/>
		<path class="st1" d="M212.2,111.6c0.2,2.1,1,3.7,2.4,4.9c1.4,1.2,3.1,1.7,5,1.7c1.7,0,3.2-0.4,4.4-1.1c1.2-0.7,2.2-1.6,3.1-2.7
			l5,3.8c-1.6,2-3.4,3.4-5.4,4.3c-2,0.8-4.1,1.3-6.3,1.3c-2.1,0-4.1-0.3-5.9-1c-1.9-0.7-3.5-1.7-4.8-3c-1.4-1.3-2.4-2.8-3.2-4.6
			c-0.8-1.8-1.2-3.8-1.2-6s0.4-4.2,1.2-6c0.8-1.8,1.9-3.3,3.2-4.6c1.4-1.3,3-2.3,4.8-3c1.9-0.7,3.8-1,5.9-1c1.9,0,3.7,0.3,5.3,1
			c1.6,0.7,3,1.6,4.1,2.9c1.1,1.3,2,2.8,2.7,4.7c0.6,1.9,1,4,1,6.5v1.9H212.2z M226.4,106.4c0-2-0.7-3.7-1.9-4.8
			c-1.2-1.2-3-1.8-5.2-1.8c-2.1,0-3.7,0.6-4.9,1.8c-1.2,1.2-2,2.8-2.2,4.8H226.4z"/>
		<path class="st1" d="M239.9,95.3h6.6v4.5h0.1c0.7-1.4,1.7-2.6,3-3.6c1.4-1,3.2-1.5,5.5-1.5c1.9,0,3.4,0.3,4.7,0.9
			c1.3,0.6,2.3,1.4,3.2,2.4c0.8,1,1.4,2.2,1.7,3.5c0.3,1.3,0.5,2.7,0.5,4.1v17.5h-6.9V109c0-0.8,0-1.6-0.1-2.6
			c-0.1-0.9-0.3-1.8-0.6-2.7c-0.3-0.8-0.8-1.5-1.5-2.1c-0.7-0.6-1.6-0.8-2.8-0.8c-1.2,0-2.1,0.2-2.9,0.6c-0.8,0.4-1.4,0.9-2,1.6
			c-0.5,0.7-0.9,1.4-1.1,2.3c-0.2,0.8-0.3,1.7-0.3,2.7v15.2h-6.9V95.3z"/>
		<path class="st1" d="M271.1,116.7L286,101v-0.1h-14.2v-5.6h22.6v6.3l-15,15.9h15.7v5.6h-24V116.7z"/>
		<path class="st1" d="M300.1,85.9c0-1.1,0.4-2.1,1.2-2.9c0.8-0.8,1.9-1.2,3.2-1.2c1.3,0,2.3,0.4,3.2,1.2c0.9,0.8,1.3,1.8,1.3,3
			c0,1.2-0.4,2.2-1.3,3c-0.9,0.8-1.9,1.2-3.2,1.2c-1.3,0-2.3-0.4-3.2-1.2C300.5,88,300.1,87,300.1,85.9z M301.1,95.3h6.9v27.8h-6.9
			V95.3z"/>
		<path class="st1" d="M321.6,111.6c0.2,2.1,1,3.7,2.4,4.9c1.4,1.2,3.1,1.7,5,1.7c1.7,0,3.2-0.4,4.4-1.1c1.2-0.7,2.2-1.6,3.1-2.7
			l5,3.8c-1.6,2-3.4,3.4-5.4,4.3c-2,0.8-4.1,1.3-6.3,1.3c-2.1,0-4.1-0.3-5.9-1c-1.9-0.7-3.5-1.7-4.8-3c-1.4-1.3-2.4-2.8-3.2-4.6
			c-0.8-1.8-1.2-3.8-1.2-6s0.4-4.2,1.2-6c0.8-1.8,1.9-3.3,3.2-4.6c1.4-1.3,3-2.3,4.8-3c1.9-0.7,3.8-1,5.9-1c1.9,0,3.7,0.3,5.3,1
			c1.6,0.7,3,1.6,4.1,2.9c1.1,1.3,2,2.8,2.7,4.7c0.6,1.9,1,4,1,6.5v1.9H321.6z M335.8,106.4c0-2-0.7-3.7-1.9-4.8
			c-1.2-1.2-3-1.8-5.2-1.8c-2.1,0-3.7,0.6-4.9,1.8c-1.2,1.2-2,2.8-2.2,4.8H335.8z"/>
		<path class="st1" d="M379.3,103.5v4.2l-29.3,13v-6.4l19.6-8.7L350,96.8v-6.4L379.3,103.5z"/>
	</g>
</g>
</svg>
