<?xml version="1.0" encoding="utf-8"?>
<!-- Generator: Adobe Illustrator 24.3.0, SVG Export Plug-In . SVG Version: 6.00 Build 0)  -->
<svg version="1.1" id="Camada_1" xmlns="http://www.w3.org/2000/svg" xmlns:xlink="http://www.w3.org/1999/xlink" x="0px" y="0px"
	 viewBox="0 0 50 50" style="enable-background:new 0 0 50 50;" xml:space="preserve">
<style type="text/css">
	.st0{fill:#007AFF;}
</style>
<g id="Grupo_441" transform="translate(-1018 -4587)">
	<path id="Caminho_594" class="st0" d="M1059.4,4612.5h-6.2l-0.5-1.1c-0.3-0.6-1.1-0.9-1.7-0.6c-0.3,0.1-0.5,0.3-0.6,0.6l-0.5,1.1
		h-1.6c-0.8,0-1.4,0.6-1.4,1.4v4.8h-3.7v-14.4c0-0.3-0.2-0.5-0.5-0.5l0,0h-4.2v-5c0-0.8-0.6-1.4-1.4-1.4h-3.5
		c-0.3,0-0.5,0.2-0.5,0.4c0,0.3,0.2,0.5,0.4,0.5c0,0,0,0,0,0h3.5c0.3,0,0.5,0.2,0.5,0.5c0,0,0,0,0,0v10.7c0,0.3-0.2,0.5-0.5,0.5l0,0
		h-1.9c-0.2,0-0.3,0.1-0.4,0.3l-0.7,1.4c-0.1,0.2-0.3,0.3-0.5,0.2c-0.1,0-0.1-0.1-0.2-0.2l-0.7-1.4c-0.1-0.2-0.2-0.3-0.4-0.3h-6.5
		c-0.3,0-0.5-0.2-0.5-0.5c0,0,0,0,0,0v-10.7c0-0.3,0.2-0.5,0.5-0.5l0,0h4.8c0.3,0,0.5-0.2,0.5-0.4s-0.2-0.5-0.4-0.5c0,0,0,0,0,0
		h-2.7v-2.9c0-0.8,0.6-1.4,1.4-1.4h25.8c0.8,0,1.4,0.6,1.4,1.4v15.4c0,0.3,0.2,0.5,0.5,0.4c0.2,0,0.4-0.2,0.4-0.4v-15.4
		c0-1.3-1.1-2.4-2.3-2.4h-25.8c-1.3,0-2.3,1.1-2.3,2.3v2.9h-1.2c-0.8,0-1.4,0.6-1.4,1.4v10.7c0,0.8,0.6,1.4,1.4,1.4h1.2v17.9
		c0,1.3,1.1,2.3,2.3,2.3h25.8c1.3,0,2.3-1.1,2.3-2.3v-2.9h1.8c0.8,0,1.4-0.6,1.4-1.4v-10.7
		C1060.8,4613.1,1060.1,4612.5,1059.4,4612.5z M1056.7,4628.9c0,0.8-0.6,1.4-1.4,1.4h-25.8c-0.8,0-1.4-0.6-1.4-1.4V4611h4l0.5,1.1
		c0.3,0.6,1.1,0.9,1.7,0.6c0.3-0.1,0.5-0.3,0.6-0.6l0.5-1.1h1.6c0.8,0,1.4-0.6,1.4-1.4v-4.8h3.7v14.4c0,0.3,0.2,0.5,0.5,0.5l0,0h4.2
		v5c0,0.8,0.6,1.4,1.4,1.4h8.5V4628.9z M1059.8,4624.6c0,0.3-0.2,0.5-0.5,0.5l0,0h-11.2c-0.3,0-0.5-0.2-0.5-0.5l0,0v-10.7
		c0-0.3,0.2-0.5,0.5-0.5l0,0h1.9c0.2,0,0.3-0.1,0.4-0.3l0.7-1.4c0.1-0.2,0.3-0.3,0.5-0.2c0.1,0,0.1,0.1,0.2,0.2l0.7,1.4
		c0.1,0.2,0.2,0.3,0.4,0.3h6.5c0.3,0,0.5,0.2,0.5,0.5l0,0L1059.8,4624.6L1059.8,4624.6z"/>
	<g id="Grupo_395" transform="translate(1020.543 4601.271)">
		<path id="Caminho_595" class="st0" d="M14.8,7.2H6.9C6.7,7.2,6.5,7,6.5,6.8l0,0V5.7c0-0.3,0.2-0.5,0.5-0.5h7.9
			c0.3,0,0.5,0.2,0.5,0.5v1.1C15.3,7,15.1,7.2,14.8,7.2L14.8,7.2L14.8,7.2z"/>
		<path id="Caminho_596" class="st0" d="M37.2,15.7h-7.9c-0.3,0-0.5-0.2-0.5-0.5l0,0v-1.1c0-0.3,0.2-0.5,0.5-0.5h7.9
			c0.3,0,0.5,0.2,0.5,0.5v1.1C37.7,15.5,37.5,15.7,37.2,15.7z"/>
	</g>
</g>
</svg>
