<?xml version="1.0" encoding="utf-8"?>
<!-- Generator: Adobe Illustrator 24.3.0, SVG Export Plug-In . SVG Version: 6.00 Build 0)  -->
<svg version="1.1" id="Camada_1" xmlns="http://www.w3.org/2000/svg" xmlns:xlink="http://www.w3.org/1999/xlink" x="0px" y="0px"
	 viewBox="0 0 50 50" style="enable-background:new 0 0 50 50;" xml:space="preserve">
<style type="text/css">
	.st0{fill:#007AFF;}
</style>
<g id="Grupo_410" transform="translate(-57.224 -28.307)">
	<path id="Caminho_586" class="st0" d="M68.5,56.1c0,0.2,0.2,0.4,0.5,0.4c0.2,0,0.4-0.2,0.4-0.4c-0.6-0.6-0.6-1.5,0-2.1
		c-1.4-0.3-2.7,0.6-2.9,2c0,0,0,0,0,0c0,0.2,0.2,0.4,0.5,0.4c0.2,0,0.4-0.2,0.4-0.4c0-0.3,0.3-0.6,0.6-0.6
		C68.3,55.5,68.5,55.7,68.5,56.1L68.5,56.1z M67.3,54c0-0.3,0.3-0.6,0.6-0.6s0.6,0.3,0.6,0.6c0,0.3-0.3,0.6-0.6,0.6c0,0,0,0,0,0
		C67.6,54.6,67.3,54.3,67.3,54L67.3,54z"/>
	<path id="Caminho_587" class="st0" d="M94.3,61.8c-0.5,1.2-1,2.4-1.5,3.5c0,0.2,0.2,0.4,0.5,0.4c0.2,0,0.4-0.2,0.4-0.4
		c0-0.3,0.3-0.6,0.6-0.6c0.3,0,0.6,0.3,0.6,0.6c0,0,0,0,0,0c0,0.2,0.2,0.5,0.4,0.5s0.5-0.2,0.5-0.4c0,0,0,0,0,0
		c-0.6-0.6-0.6-1.5,0-2.1C95.8,62.5,95.1,61.8,94.3,61.8z M94.3,63.9c-0.3,0-0.6-0.3-0.6-0.6s0.3-0.6,0.6-0.6s0.6,0.3,0.6,0.6
		C94.9,63.6,94.6,63.9,94.3,63.9L94.3,63.9z"/>
	<path id="Caminho_588" class="st0" d="M83,61.2c-0.5,1.2-1,2.4-1.5,3.5c0,0.2,0.2,0.5,0.4,0.5s0.5-0.2,0.5-0.4c0,0,0,0,0,0
		c0-0.3,0.3-0.6,0.6-0.6c0.3,0,0.6,0.3,0.6,0.6c0,0.2,0.2,0.5,0.4,0.5s0.5-0.2,0.5-0.4c0,0,0,0,0,0c-0.6-0.6-0.6-1.5,0-2.1
		C84.5,61.9,83.8,61.2,83,61.2z M83,63.3c-0.3,0-0.6-0.3-0.6-0.6s0.3-0.6,0.6-0.6s0.6,0.3,0.6,0.6C83.6,63,83.3,63.3,83,63.3
		L83,63.3z"/>
	<path id="Caminho_589" class="st0" d="M83,59c-2.3,0-4.2,1.9-4.2,4.2c0,2.3,1.9,4.2,4.2,4.2c2.3,0,4.2-1.9,4.2-4.2
		C87.2,60.9,85.3,59,83,59z M83,66.5c-1.8,0-3.3-1.5-3.3-3.3c0-1.8,1.5-3.3,3.3-3.3c1.8,0,3.3,1.5,3.3,3.3l0,0
		C86.3,65,84.8,66.5,83,66.5L83,66.5z"/>
	<path id="Caminho_590" class="st0" d="M100.2,51L100.2,51c0-2.3-1.9-4.2-4.2-4.2c-0.9,0-1.8,0.3-2.5,0.8c-0.4-0.4-0.7-0.8-1.1-1.2
		c-0.2-0.2-0.5-0.2-0.6,0c-0.2,0.2-0.2,0.5,0,0.6c0,0,0,0,0,0c0.4,0.3,0.7,0.7,1.1,1.1c-1.5,1.7-1.4,4.4,0.3,5.9
		c0.8,0.7,1.8,1.1,2.8,1.1c0.1,0,0.1,0,0.2,0c0.3,1.6,0.3,3.3,0,4.9c-2.1-1-4.6-0.2-5.6,1.9c-1,2.1-0.2,4.6,1.9,5.6l0,0
		c-5.5,5.8-14.6,6.1-20.4,0.6c-2.6-2.5-4.2-5.9-4.5-9.5c2.3,0.3,4.4-1.4,4.7-3.7c0.2-2-1-3.8-2.8-4.5c1.1-1.9,2.5-3.5,4.2-4.7
		c0.1,0.3,0.3,0.5,0.5,0.7l7.5,3.1c0.2,0.1,0.5,0.1,0.7,0l4.6-1.9v1.6c-1.2,0.2-1.9,1.4-1.7,2.6c0.1,0.3,0.2,0.7,0.5,0.9
		c-0.2,0.3-0.4,0.7-0.4,1.1v2.6c0,0.5,0.4,0.9,0.9,0.9h2.2c0.5,0,0.9-0.4,0.9-0.9v-2.6c0-0.4-0.1-0.8-0.4-1.1c0.8-0.9,0.7-2.3-0.3-3
		c-0.3-0.2-0.6-0.4-0.9-0.5v-2l2-0.8c0.3-0.1,0.6-0.5,0.6-0.8v-5.6l3.2-1.3c0.5-0.2,0.7-0.7,0.5-1.2c-0.1-0.2-0.3-0.4-0.5-0.5
		l-11.2-4.6c-0.2-0.1-0.5-0.1-0.7,0l-11.2,4.6c-0.5,0.2-0.7,0.7-0.5,1.2c0.1,0.2,0.3,0.4,0.5,0.5l11.2,4.6c0.2,0.1,0.5,0.1,0.7,0
		l4.6-1.9v5.2l-5,2l-7.5-3.1v-3.2c0-0.2-0.2-0.5-0.4-0.5c-0.2,0-0.5,0.2-0.5,0.4c0,0,0,0,0,0v2.3c-2.1,1.4-3.9,3.3-5.1,5.6
		c-2.3-0.3-4.4,1.4-4.7,3.7c-0.2,2,1,3.8,2.8,4.5C67,66.9,74.3,73.4,82.8,73c4.1-0.2,7.9-2.1,10.6-5.1c2.3,0.5,4.5-0.9,5-3.1
		c0.4-1.5-0.2-3.2-1.4-4.2c0.4-1.8,0.4-3.7,0.1-5.5C98.9,54.5,100.2,52.9,100.2,51z M87.9,56.5v-1.3c0-0.2-0.2-0.5-0.4-0.5
		c-0.2,0-0.5,0.2-0.5,0.4c0,0,0,0,0,0v1.3h-0.8v-2.6c0-0.2,0.1-0.4,0.2-0.6c0.6,0.3,1.3,0.3,1.9,0c0.1,0.2,0.2,0.4,0.2,0.6v2.6H87.9
		L87.9,56.5z M89.4,45.7l-1.6,0.7v-5.2l0,0l1.6-0.7V45.7z M80.5,38.5l5.5,2.4l-4.1,1.7L70.7,38l11.2-4.6L93.1,38l-6,2.4l-6.3-2.8
		c-0.2-0.1-0.5,0-0.6,0.3C80.2,38.1,80.3,38.4,80.5,38.5L80.5,38.5z M87.3,50.1c0.7,0,1.3,0.6,1.3,1.3s-0.6,1.3-1.3,1.3
		c-0.7,0-1.3-0.6-1.3-1.3l0,0C86.1,50.7,86.6,50.1,87.3,50.1L87.3,50.1z M64.6,54.5c0-1.8,1.5-3.3,3.3-3.3s3.3,1.5,3.3,3.3
		s-1.5,3.3-3.3,3.3l0,0C66.1,57.8,64.6,56.3,64.6,54.5z M97.6,63.8c0,1.8-1.5,3.3-3.3,3.3c-1.8,0-3.3-1.5-3.3-3.3
		c0-1.8,1.5-3.3,3.3-3.3c0,0,0,0,0,0C96.1,60.5,97.6,62,97.6,63.8z M96,54.3c-1.8,0-3.3-1.5-3.3-3.3c0-1.8,1.5-3.3,3.3-3.3
		c1.8,0,3.3,1.5,3.3,3.3C99.3,52.8,97.8,54.3,96,54.3z"/>
	<path id="Caminho_591" class="st0" d="M96,49c-0.5,1.2-1,2.4-1.5,3.5c0,0.2,0.2,0.4,0.5,0.4c0.2,0,0.4-0.2,0.4-0.4
		c0-0.3,0.3-0.6,0.6-0.6c0.3,0,0.6,0.3,0.6,0.6c0,0.2,0.2,0.4,0.5,0.4c0.2,0,0.4-0.2,0.4-0.4c-0.6-0.6-0.6-1.5,0-2.1
		C97.5,49.6,96.8,49,96,49z M96,51c-0.3,0-0.6-0.3-0.6-0.6s0.3-0.6,0.6-0.6c0.3,0,0.6,0.3,0.6,0.6C96.6,50.8,96.3,51,96,51L96,51z"
		/>
</g>
</svg>
