<?xml version="1.0" encoding="utf-8"?>
<!-- Generator: Adobe Illustrator 24.3.0, SVG Export Plug-In . SVG Version: 6.00 Build 0)  -->
<svg version="1.1" id="Camada_1" xmlns="http://www.w3.org/2000/svg" xmlns:xlink="http://www.w3.org/1999/xlink" x="0px" y="0px"
	 viewBox="0 0 54 50" style="enable-background:new 0 0 54 50;" xml:space="preserve">
<style type="text/css">
	.st0{fill:#007AFF;}
	.st1{fill:none;stroke:#007AFF;}
</style>
<g id="Grupo_442" transform="translate(-709 -4589.568)">
	<path id="Caminho_597" class="st0" d="M739.7,4615.3c-0.2,0-0.3-0.1-0.4-0.2l-3.4-3.9l-3.4,3.9c-0.2,0.2-0.6,0.3-0.8,0.1
		c-0.2-0.2-0.3-0.5-0.1-0.8l3.8-4.4c0.2-0.2,0.6-0.3,0.8-0.1c0,0,0,0,0.1,0.1l3.8,4.4c0.2,0.2,0.2,0.6-0.1,0.8
		C739.9,4615.3,739.8,4615.3,739.7,4615.3L739.7,4615.3z"/>
	<path id="Caminho_598" class="st1" d="M740.7,4620.4h-10.2c-0.3,0-0.5-0.2-0.5-0.5v-4c0-0.3,0.2-0.5,0.5-0.5h10.2
		c0.3,0,0.5,0.2,0.5,0.5v4C741.2,4620.1,740.9,4620.4,740.7,4620.4z"/>
	<path id="Caminho_599" class="st0" d="M723.4,4627h-4.9c-0.3,0-0.6-0.3-0.6-0.6l0,0v-1.5h6v1.5C723.9,4626.7,723.7,4627,723.4,4627
		C723.4,4627,723.4,4627,723.4,4627z"/>
	<path id="Caminho_601" class="st0" d="M736.3,4623.9h-1.9c-0.3,0-0.6,0.2-0.6,0.6s0.2,0.6,0.6,0.6c0,0,0,0,0,0h1.9
		c0.3,0,0.6-0.3,0.6-0.6C736.9,4624.2,736.6,4623.9,736.3,4623.9z"/>
	<path id="Caminho_602" class="st0" d="M760.1,4605h-6.8v-1.8l0,0c0-1.6-1.3-2.9-2.9-2.9h-28.8v-0.7c0-0.9-0.8-1.7-1.7-1.7h-8.8
		c-0.9,0-1.7,0.8-1.7,1.7v8.8c0,0.9,0.8,1.7,1.7,1.7h6.2v8.9c0,0.3,0.3,0.6,0.6,0.6c0.3,0,0.6-0.3,0.6-0.6v-8.9h1.4
		c0.9,0,1.6-0.6,1.7-1.5c0.9-0.2,1.6-0.7,2.1-1.5c1,1.6,3.2,2.1,4.8,1c0.4-0.3,0.8-0.6,1-1c1,1.6,3.2,2.1,4.8,1c0.4-0.3,0.8-0.6,1-1
		c1,1.6,3.2,2.1,4.8,1c0.4-0.3,0.8-0.6,1-1c1,1.6,3.2,2.1,4.8,1c0.4-0.3,0.8-0.6,1-1c0.6,0.9,1.6,1.5,2.7,1.6v6.8
		c0,0.9,0.8,1.7,1.7,1.7h0.8v4.4h-34.2c-0.3,0-0.6,0.3-0.6,0.6v2.2h-1.8c-1.1,0-2,0.9-2,2v1.3c0,1.7,1.4,3,3,3H754c1.7,0,3-1.4,3-3
		v-1.3c0-1.1-0.9-2-2-2h-1.8v-7.2h6.8c0.9,0,1.7-0.8,1.7-1.7v-8.8C761.8,4605.8,761,4605,760.1,4605L760.1,4605z M751.3,4624.4
		c-0.3,0-0.6,0.3-0.6,0.6c0,0.3,0.3,0.6,0.6,0.6h0.8v0.9h-4.9v-0.9h0.9c0.3,0,0.6-0.3,0.6-0.6c0-0.3-0.3-0.6-0.6-0.6H743
		c-0.4,0-0.8,0.2-1,0.6l-0.7,1.4h-11.9l-0.7-1.4c-0.2-0.4-0.6-0.6-1-0.6h-9.1v-1.7h33.7v1.7H751.3z M755.9,4626.3v1.3
		c0,1-0.9,1.9-1.9,1.9h-37.3c-1,0-1.9-0.9-1.9-1.9v-1.3c0-0.5,0.4-0.8,0.8-0.8h1.8v0.9c0,0.6,0.5,1.1,1.1,1.1h4.9
		c0.6,0,1.1-0.5,1.1-1.1v-0.9h3.1l0.7,1.4c0.2,0.4,0.6,0.6,1,0.6h11.9c0.4,0,0.8-0.2,1-0.6l0.7-1.4h3.1v0.9c0,0.6,0.5,1.1,1.1,1.1
		h4.9c0.6,0,1.1-0.5,1.1-1.1v-0.9h1.8C755.5,4625.5,755.9,4625.9,755.9,4626.3L755.9,4626.3z M720.5,4608.4c0,0.3-0.3,0.6-0.6,0.6
		h-8.8c-0.3,0-0.6-0.3-0.6-0.6v-8.8c0-0.3,0.3-0.6,0.6-0.6h8.8c0.3,0,0.6,0.3,0.6,0.6L720.5,4608.4z M721.6,4607.4v-6h1.6v3.8
		C723.2,4606.2,722.5,4607.1,721.6,4607.4L721.6,4607.4z M726.6,4607.6c-1.3,0-2.3-1-2.3-2.3v-3.8h4.7v3.8
		C729,4606.5,727.9,4607.6,726.6,4607.6L726.6,4607.6z M732.4,4607.6c-1.3,0-2.3-1-2.3-2.3v-3.8h4.7v3.8
		C734.8,4606.5,733.7,4607.6,732.4,4607.6z M738.2,4607.6c-1.3,0-2.3-1-2.3-2.3v-3.8h4.7v3.8
		C740.6,4606.5,739.5,4607.6,738.2,4607.6z M744,4607.6c-1.3,0-2.3-1-2.3-2.3v-3.8h4.7v3.8C746.4,4606.5,745.3,4607.6,744,4607.6
		L744,4607.6z M747.5,4605.2v-3.8h2.9c1,0,1.8,0.8,1.8,1.8v1.8h-0.8c-0.9,0-1.7,0.8-1.7,1.7v0.8
		C748.4,4607.5,747.5,4606.4,747.5,4605.2L747.5,4605.2z M760.7,4615.5c0,0.3-0.3,0.6-0.6,0.6h-8.8c-0.3,0-0.6-0.3-0.6-0.6v-8.8
		c0-0.3,0.3-0.6,0.6-0.6h8.8c0.3,0,0.6,0.3,0.6,0.6V4615.5z"/>
	<path id="Caminho_603" class="st0" d="M753.8,4610.6c-0.8,0-1.5-0.7-1.5-1.5c0-0.8,0.7-1.5,1.5-1.5s1.5,0.7,1.5,1.5
		C755.2,4610,754.6,4610.6,753.8,4610.6z M753.8,4608.8c-0.2,0-0.3,0.2-0.3,0.3c0,0.2,0.2,0.3,0.3,0.3c0.2,0,0.3-0.2,0.3-0.3
		C754.1,4609,754,4608.8,753.8,4608.8L753.8,4608.8z"/>
	<path id="Caminho_604" class="st0" d="M757.6,4614.5c-0.8,0-1.5-0.7-1.5-1.5c0-0.8,0.7-1.5,1.5-1.5s1.5,0.7,1.5,1.5c0,0,0,0,0,0
		C759.1,4613.8,758.4,4614.5,757.6,4614.5z M757.6,4612.7c-0.2,0-0.3,0.2-0.3,0.3c0,0.2,0.2,0.3,0.3,0.3c0.2,0,0.3-0.2,0.3-0.3
		C758,4612.8,757.8,4612.7,757.6,4612.7z"/>
	<path id="Caminho_605" class="st0" d="M754.1,4613.2c-0.3,0-0.6-0.2-0.6-0.6c0-0.1,0.1-0.3,0.2-0.4l3.2-3.2c0.2-0.2,0.6-0.2,0.8,0
		c0.2,0.2,0.2,0.6,0,0.8l-3.2,3.2C754.4,4613.2,754.3,4613.2,754.1,4613.2z"/>
	<g id="Grupo_397" transform="translate(711.251 4591.749)">
		<path id="Caminho_606" class="st0" d="M4.9,16H3.7c-0.2,0-0.3-0.1-0.3-0.3l0,0V15c-0.2-0.1-0.3-0.1-0.5-0.2l-0.5,0.5
			c-0.1,0.1-0.3,0.1-0.4,0l-0.8-0.8c-0.1-0.1-0.1-0.3,0-0.4l0.5-0.5c-0.1-0.2-0.1-0.3-0.2-0.5H0.8c-0.2,0-0.3-0.1-0.3-0.3l0,0v-1.2
			c0-0.2,0.1-0.3,0.3-0.3l0,0h0.7c0.1-0.2,0.1-0.3,0.2-0.5l-0.5-0.5c-0.1-0.1-0.1-0.3,0-0.4L2,9.1C2.1,9,2.3,9,2.4,9.1l0.5,0.5
			c0.2-0.1,0.3-0.1,0.5-0.2V8.7c0-0.2,0.1-0.3,0.3-0.3l0,0h1.2c0.2,0,0.3,0.1,0.3,0.3l0,0v0.7c0.2,0.1,0.3,0.1,0.5,0.2l0.5-0.5
			C6.3,9,6.4,9,6.5,9.1l0.8,0.8c0.1,0.1,0.1,0.3,0,0.4l-0.5,0.5C7,11,7,11.1,7.1,11.3h0.7c0.2,0,0.3,0.1,0.3,0.3l0,0v1.2
			c0,0.2-0.1,0.3-0.3,0.3l0,0H7.1C7,13.2,7,13.4,6.9,13.6l0.5,0.5c0.1,0.1,0.1,0.3,0,0.4l-0.8,0.8c-0.1,0.1-0.3,0.1-0.4,0l-0.5-0.5
			C5.5,14.9,5.3,15,5.2,15v0.7C5.2,15.9,5,16,4.9,16L4.9,16z M2.9,14.5C2.9,14.5,2.9,14.5,2.9,14.5c0.3,0.1,0.5,0.2,0.7,0.3
			c0.1,0,0.1,0.1,0.1,0.1v0.8h1.2v-0.8c0-0.1,0-0.1,0.1-0.1c0.2-0.1,0.4-0.1,0.6-0.3c0.1,0,0.1,0,0.2,0l0.6,0.6l0.8-0.8l-0.6-0.6
			c0,0-0.1-0.1,0-0.2c0.1-0.2,0.2-0.4,0.3-0.6c0-0.1,0.1-0.1,0.1-0.1h0.8v-1.2H7c-0.1,0-0.1,0-0.1-0.1c-0.1-0.2-0.1-0.4-0.3-0.6
			c0-0.1,0-0.1,0-0.2l0.6-0.6L6.3,9.3L5.8,9.9c0,0-0.1,0.1-0.2,0C5.4,9.8,5.2,9.7,5,9.6c-0.1,0-0.1-0.1-0.1-0.1V8.7H3.7v0.8
			c0,0.1,0,0.1-0.1,0.1C3.4,9.7,3.2,9.8,3,9.9c-0.1,0-0.1,0-0.2,0L2.2,9.3l-0.8,0.8l0.6,0.6c0,0,0.1,0.1,0,0.2
			c-0.1,0.2-0.2,0.4-0.3,0.6c0,0.1-0.1,0.1-0.1,0.1H0.8v1.2h0.8c0.1,0,0.1,0,0.1,0.1c0.1,0.2,0.1,0.4,0.3,0.6c0,0.1,0,0.1,0,0.2
			l-0.6,0.6l0.8,0.8l0.6-0.6C2.8,14.5,2.9,14.5,2.9,14.5L2.9,14.5z M4.3,14c-0.3,0-0.6-0.1-0.8-0.2c-0.1,0-0.1-0.1-0.1-0.2
			c0-0.1,0.1-0.1,0.2-0.1c0.7,0.4,1.6,0.1,2-0.6c0.4-0.7,0.1-1.6-0.6-2s-1.6-0.1-2,0.6c-0.1,0.2-0.2,0.5-0.2,0.7
			c0,0.2,0.1,0.5,0.2,0.7C3,12.9,3,13,2.9,13c-0.1,0-0.2,0-0.2-0.1l0,0c-0.1-0.2-0.2-0.5-0.2-0.8c0-1,0.8-1.8,1.8-1.8S6,11.2,6,12.2
			S5.3,14,4.3,14L4.3,14L4.3,14z"/>
	</g>
</g>
</svg>
