<svg xmlns="http://www.w3.org/2000/svg" xmlns:xlink="http://www.w3.org/1999/xlink" x="0px" y="0px" viewBox="0 0 638.762 102.438" xml:space="preserve">
<g>
	<path d="M323.422,23.655v-0.951c0-7.097-2.381-12.622-7.144-16.528c-4.763-3.856-11.621-5.81-20.527-5.81h-18.444h-19.542h-16.571
		c-1.541,0-2.79,1.25-2.79,2.79v94.421c0,1.541,1.249,2.79,2.79,2.79h16.571h19.542h18.444c11.189,0,19.83-2.605,25.868-7.867
		c6.038-5.261,9.084-12.407,9.084-21.491v-1.496c0-14.235-8.685-23.245-24.807-24.372V43.85
		C317.564,42.23,323.422,35.515,323.422,23.655z"/>
	<path d="M26.438,100.366h32.405c1.541,0,2.79-1.249,2.79-2.79V31.684h20.26c1.541,0,2.79-1.249,2.79-2.79V3.155
		c0-1.541-1.249-2.79-2.79-2.79H3.338c-1.541,0-2.79,1.249-2.79,2.79v25.841c0,1.541,1.249,2.79,2.79,2.79h20.309v65.79
		C23.647,99.117,24.897,100.366,26.438,100.366z"/>
	<path d="M182.383,34.63v-0.621c0-22.481-12.972-33.644-36.279-33.644H96.491c-1.541,0-2.79,1.249-2.79,2.79v94.421
		c0,1.541,1.249,2.79,2.79,2.79h32.406c1.541,0,2.79-1.249,2.79-2.79V72.511h8.888l6.741,25.771c0.321,1.228,1.43,2.084,2.699,2.084
		h31.902c1.906,0,3.251-1.869,2.646-3.677l-11.895-35.497C179.127,55.251,182.383,46.413,182.383,34.63z"/>
	<path d="M226.596,100.366c1.541,0,2.79-1.249,2.79-2.79V3.155c0-1.541-1.249-2.79-2.79-2.79h-32.404c-1.541,0-2.79,1.249-2.79,2.79
		v94.421c0,1.541,1.249,2.79,2.79,2.79H226.596z"/>
	<path d="M374.812,0.365h-32.301c-1.541,0-2.79,1.249-2.79,2.79v61.861c0,25.427,14.42,37.366,44.342,37.366
		c14.212,0,25.271-3.103,33.075-9.355c7.803-6.253,11.68-15.659,11.68-28.321V3.155c0-1.541-1.249-2.79-2.79-2.79H393.52
		c-1.541,0-2.79,1.249-2.79,2.79V65.74c0,5.581-2.171,8.372-6.564,8.372c-4.393,0-6.563-2.791-6.563-8.372V3.155
		C377.602,1.614,376.353,0.365,374.812,0.365z"/>
	<path d="M475.794,2.132c-0.421-1.066-1.449-1.767-2.595-1.767h-32.574c-1.54,0-2.789,1.249-2.789,2.79v94.421
		c0,1.541,1.249,2.79,2.789,2.79H472.1c1.541,0,2.79-1.249,2.79-2.79V70.961l-1.396-14.833h1.396l16.315,42.449
		c0.414,1.077,1.449,1.789,2.604,1.789h31.211c1.541,0,2.79-1.249,2.79-2.79V3.155c0-1.541-1.249-2.79-2.79-2.79h-31.474
		c-1.541,0-2.79,1.249-2.79,2.79v19.64l1.498,17.26h-1.498L475.794,2.132z"/>
	<path d="M618.111,2.559c-0.28-1.28-1.415-2.193-2.726-2.193h-54.491c-1.305,0-2.435,0.904-2.722,2.176l-21.274,94.421
		c-0.394,1.745,0.934,3.404,2.722,3.404h33.706c1.377,0,2.548-1.006,2.757-2.366l1.754-11.381l19.433,0.102l1.663,11.262
		c0.202,1.369,1.376,2.384,2.76,2.384h34.383c1.782,0,3.107-1.648,2.726-3.389L618.111,2.559z"/>
</g>
</svg>
