<?xml version="1.0" encoding="utf-8"?>
<!-- Generator: Adobe Illustrator 24.3.0, SVG Export Plug-In . SVG Version: 6.00 Build 0)  -->
<svg version="1.1" id="Camada_1" xmlns="http://www.w3.org/2000/svg" xmlns:xlink="http://www.w3.org/1999/xlink" x="0px" y="0px"
	 viewBox="0 0 50 50" style="enable-background:new 0 0 50 50;" xml:space="preserve">
<style type="text/css">
	.st0{fill:#6D0C91;stroke:#751997;}
</style>
<g id="Grupo_462" transform="translate(2758.596 1484.281)">
	<g id="Grupo_461" transform="translate(-2758.096 -1483.781)">
		<path id="Caminho_607" class="st0" d="M34.7,40c-2.5,0.1-4.8-0.9-6.6-2.6c-1.7-1.7-2.7-4.1-2.6-6.6c0-1.3,0.2-2.5,0.5-3.7
			c0.5-1.9,1.2-3.7,2-5.4l5.3-13.2h9.9l-4,14.5c1.4,0.7,2.5,1.7,3.3,3l0,0c0.9,1.5,1.4,3.2,1.3,4.9c0.1,2.5-0.8,4.9-2.6,6.6
			C39.5,39.2,37.2,40.1,34.7,40z M34,9.5l-5.1,12.6c-0.8,1.7-1.4,3.5-1.9,5.3c-0.3,1.1-0.4,2.3-0.4,3.5c0,1.1,0.2,2.2,0.6,3.2
			c0.4,1,1,1.8,1.7,2.6c0.7,0.7,1.6,1.3,2.6,1.7c1,0.4,2.1,0.6,3.3,0.6c1.1,0,2.2-0.2,3.2-0.6c1-0.4,1.8-0.9,2.6-1.7
			c0.7-0.7,1.3-1.6,1.7-2.6c0.4-1.1,0.6-2.2,0.6-3.3c0-1.5-0.4-3.1-1.2-4.4l0,0c-0.8-1.2-1.9-2.2-3.3-2.8L38,23.5l3.9-14L34,9.5z
			 M13.6,40c-2.5,0.1-4.8-0.9-6.6-2.6c-1.7-1.7-2.7-4.1-2.6-6.6c0-1.3,0.2-2.5,0.5-3.7c0.5-1.9,1.2-3.7,2-5.4l5.3-13.2h9.9l-4,14.5
			c1.4,0.7,2.5,1.7,3.3,3l0,0c0.9,1.5,1.4,3.2,1.3,4.9c0.1,2.5-0.8,4.9-2.6,6.6C18.4,39.2,16,40.1,13.6,40L13.6,40z M12.9,9.5
			L7.8,22.1c-0.8,1.7-1.4,3.5-1.9,5.3c-0.3,1.1-0.4,2.3-0.4,3.5c0,1.1,0.2,2.2,0.6,3.2c0.4,1,1,1.8,1.7,2.6c0.7,0.7,1.6,1.3,2.6,1.7
			c1,0.4,2.1,0.6,3.3,0.6c1.1,0,2.2-0.2,3.2-0.6c1-0.4,1.8-0.9,2.6-1.7c0.7-0.7,1.3-1.6,1.7-2.6c0.4-1.1,0.6-2.2,0.6-3.3
			c0-1.5-0.4-3.1-1.2-4.4l0,0c-0.8-1.2-1.9-2.2-3.3-2.8l-0.4-0.2l3.9-14L12.9,9.5z"/>
	</g>
</g>
</svg>
