
<svg xmlns="http://www.w3.org/2000/svg" width="225" height="50" viewBox="0 0 225 50"><g transform="translate(673.276 -857.393)"><path d="M-625.185,872.828A25,25,0,0,0-657.841,859.3a24.994,24.994,0,0,0-13.526,32.656,24.992,24.992,0,0,0,32.655,13.526,24.993,24.993,0,0,0,13.527-32.655M-640.661,896.5a4.258,4.258,0,0,1-1.387.927,4.365,4.365,0,0,1-1.657.325,4.3,4.3,0,0,1-4.3-4.283V883.134l7.326,7.305a4.282,4.282,0,0,1,.021,6.057m7.525-6.846-5.271.644-11.26-11.26v15.811l-4.159,3.272a1.076,1.076,0,0,1-1.742-.86V867.311a1.076,1.076,0,0,1,1.841-.772l21.243,21.254a1.1,1.1,0,0,1-.652,1.857" fill="#d9342b"/><path d="M-565.05,870.174l-.994,2.186a21.7,21.7,0,0,0-3.081-.954,14.276,14.276,0,0,0-3.277-.4,8.52,8.52,0,0,0-2.563.357,5.878,5.878,0,0,0-1.927.994,4.473,4.473,0,0,0-1.213,1.449,3.831,3.831,0,0,0-.416,1.769,3.1,3.1,0,0,0,.635,1.967,5.653,5.653,0,0,0,1.669,1.411,16.166,16.166,0,0,0,2.345,1.092q1.309.5,2.682,1.014a28.333,28.333,0,0,1,2.682,1.172,10.078,10.078,0,0,1,2.345,1.609,7.546,7.546,0,0,1,1.669,2.265,7.246,7.246,0,0,1,.635,3.178,8.047,8.047,0,0,1-.676,3.358,7.063,7.063,0,0,1-1.946,2.544,9.069,9.069,0,0,1-3.119,1.629,14.129,14.129,0,0,1-4.193.575,14.923,14.923,0,0,1-3.078-.3,16.8,16.8,0,0,1-2.505-.716,16.351,16.351,0,0,1-1.907-.854c-.544-.291-.973-.543-1.291-.755l1.232-2.384q.715.438,1.609.874a14.153,14.153,0,0,0,1.868.755,16.56,16.56,0,0,0,2.006.517,10.749,10.749,0,0,0,2.026.2,10.627,10.627,0,0,0,2.365-.3,7.894,7.894,0,0,0,2.384-.974,6.177,6.177,0,0,0,1.828-1.729,4.362,4.362,0,0,0,.734-2.563,4.2,4.2,0,0,0-1.093-3.019,9.668,9.668,0,0,0-2.721-1.968,27.16,27.16,0,0,0-3.536-1.45,23.754,23.754,0,0,1-3.537-1.49,9.105,9.105,0,0,1-2.721-2.125,4.875,4.875,0,0,1-1.094-3.3,6.872,6.872,0,0,1,.578-2.762,6.6,6.6,0,0,1,1.688-2.325,8.478,8.478,0,0,1,2.7-1.589,10.125,10.125,0,0,1,3.576-.6,15.045,15.045,0,0,1,2.284.179q1.173.179,2.206.437t1.868.536c.556.186.979.345,1.272.477" fill="#d9342b"/><path d="M-557.292,897.075V868.7h6.874a12.1,12.1,0,0,1,3.457.5A8.642,8.642,0,0,1-544,870.73a7.659,7.659,0,0,1,2.068,2.583,8.188,8.188,0,0,1,.775,3.7,10.147,10.147,0,0,1-.518,3.2,7.685,7.685,0,0,1-1.609,2.782,8.048,8.048,0,0,1-2.841,1.967,10.6,10.6,0,0,1-4.212.754h-4.252v11.365Zm2.7-13.947h4.212a7.278,7.278,0,0,0,3.18-.616,5.626,5.626,0,0,0,2.006-1.55,5.685,5.685,0,0,0,1.032-1.986,7.121,7.121,0,0,0,.3-1.928,5.726,5.726,0,0,0-.418-2.125,5.6,5.6,0,0,0-1.212-1.868,5.835,5.835,0,0,0-2.025-1.311,7.509,7.509,0,0,0-2.822-.5h-4.252Z" fill="#d9342b"/><path d="M-518.881,897.075q-.8-1.828-1.867-4.49t-2.227-5.642h-10.886q-1.153,2.979-2.226,5.642t-1.867,4.49h-2.7q.6-1.431,1.589-3.795t2.146-5.185q1.152-2.821,2.385-5.861t2.383-5.861q1.154-2.82,2.126-5.165t1.609-3.816q.6,1.471,1.59,3.816t2.146,5.165q1.152,2.822,2.4,5.861t2.4,5.861q1.152,2.822,2.127,5.185t1.61,3.795Zm-9.934-22.729q-.795,1.869-1.887,4.569t-2.245,5.683h9.059q-1.191-2.98-2.264-5.683t-1.869-4.569a3.951,3.951,0,0,1-.2-.536c-.08-.251-.147-.483-.2-.7q-.079.32-.2.7a4.207,4.207,0,0,1-.2.536" fill="#d9342b"/><path d="M-511.894,897.075V868.7h6.875a12.094,12.094,0,0,1,3.456.5,8.661,8.661,0,0,1,2.961,1.53,7.63,7.63,0,0,1,2.066,2.583,8.187,8.187,0,0,1,.775,3.7,10,10,0,0,1-1.074,4.529,7.169,7.169,0,0,1-3.535,3.3l.953,1.588q.6,1,1.312,2.166t1.488,2.444q.777,1.272,1.491,2.424t1.312,2.106q.6.953.953,1.51h-3.3q-.32-.477-.834-1.311t-1.153-1.868q-.638-1.034-1.352-2.185t-1.391-2.265q-.675-1.113-1.291-2.106t-1.053-1.708a4.234,4.234,0,0,1-.834.078h-5.125v11.365Zm2.7-13.947h4.212a7.073,7.073,0,0,0,3.178-.636,5.8,5.8,0,0,0,2.006-1.569,5.729,5.729,0,0,0,1.034-1.987,7.156,7.156,0,0,0,.3-1.927,5.582,5.582,0,0,0-.417-2.106,5.664,5.664,0,0,0-1.212-1.848,5.844,5.844,0,0,0-2.027-1.311,7.5,7.5,0,0,0-2.822-.5h-4.25Z" fill="#d9342b"/><path d="M-473.157,868.7v2.583h-7.55v25.788h-2.741V871.286h-7.471V868.7Z" fill="#d9342b"/><path d="M-451.019,897.075q-.795-1.828-1.866-4.49t-2.227-5.642H-466q-1.152,2.979-2.225,5.642t-1.868,4.49h-2.7q.6-1.431,1.588-3.795t2.147-5.185q1.152-2.821,2.384-5.861t2.384-5.861q1.152-2.82,2.125-5.165t1.61-3.816q.594,1.471,1.589,3.816t2.147,5.165q1.152,2.822,2.4,5.861t2.4,5.861q1.152,2.822,2.127,5.185t1.609,3.795Zm-9.933-22.729q-.8,1.869-1.888,4.569t-2.244,5.683h9.059q-1.191-2.98-2.265-5.683t-1.869-4.569a4.125,4.125,0,0,1-.2-.536q-.122-.376-.2-.7-.08.32-.2.7a4.38,4.38,0,0,1-.2.536" fill="#d9342b"/><path d="M-606.065,897.075V868.7h17.88v2.463h-15.18v10.372h13.589v2.543h-13.589v10.449h15.736v2.543Z" fill="#d9342b"/></g></svg>