<svg xmlns="http://www.w3.org/2000/svg" width="57.56" height="68.571" viewBox="0 0 57.56 68.571">
    <defs>
        <style>
            .cls-1,.cls-2{fill:#00b58c;stroke:#00b58c;stroke-miterlimit:10}.cls-1{stroke-width:1.25px}.cls-2{stroke-width:.625px}
        </style>
    </defs>
    <g id="noun_knowledge_1590374" transform="translate(.569 .285)">
        <g id="Group">
            <path id="Path" d="M26.582 23.948a7.669 7.669 0 0 0-3.742-9.993 7.672 7.672 0 0 0-7.649-9.342A7.6 7.6 0 0 0 12.458.149a.683.683 0 0 0-.852 1.068 6.256 6.256 0 0 1 2.33 4.183.108.108 0 0 0 0 .015 6.417 6.417 0 0 1 .043.734 6.315 6.315 0 0 1-6.307 6.308.683.683 0 0 0 0 1.366 7.682 7.682 0 0 0 7.673-7.674v-.168a6.3 6.3 0 0 1 6.037 8.167 6.64 6.64 0 0 1-.245.658 6.316 6.316 0 0 1-8.3 3.263.683.683 0 1 0-.545 1.251 7.675 7.675 0 0 0 10.1-3.969l.033-.081a6.307 6.307 0 0 1 .939 10.642 7.7 7.7 0 0 0-8.949-1.948.683.683 0 0 0 .563 1.245 6.325 6.325 0 0 1 7.7 2.028 6.2 6.2 0 0 1 .649 1.115 6.306 6.306 0 0 1-8.054 8.47 7.685 7.685 0 0 0-7.6-6.552.683.683 0 1 0 0 1.365 6.308 6.308 0 1 1-6.307 6.308v-19.4a.683.683 0 1 0-1.365 0v19.4a7.673 7.673 0 0 0 15.338.346 7.67 7.67 0 0 0 9.226-10.5 7.812 7.812 0 0 0-.4-.771 7.621 7.621 0 0 0 2.417-3.07z" class="cls-1" transform="translate(29.118 22.045)"/>
            <path id="Path-2" d="M26.545 17.844a.683.683 0 0 0-.683.683v19.4a6.307 6.307 0 1 1-6.307-6.308.683.683 0 1 0 0-1.365 7.684 7.684 0 0 0-7.591 6.552 6.307 6.307 0 1 1 .292-11.616.683.683 0 1 0 .564-1.244 7.7 7.7 0 0 0-8.951 1.947 6.305 6.305 0 0 1 .939-10.641l.033.081a7.675 7.675 0 0 0 10.1 3.969.683.683 0 1 0-.545-1.251 6.315 6.315 0 0 1-8.3-3.263 6.586 6.586 0 0 1-.245-.658 6.3 6.3 0 0 1 6.037-8.167c0 .056-.005.112-.005.168a7.683 7.683 0 0 0 7.674 7.675.683.683 0 1 0 0-1.366A6.3 6.3 0 0 1 13.29 5.4a.109.109 0 0 1 0-.014 6.262 6.262 0 0 1 2.31-4.171.683.683 0 1 0-.858-1.064A7.622 7.622 0 0 0 12.035 4.6a7.672 7.672 0 0 0-7.649 9.341A7.671 7.671 0 0 0 3.067 27a7.791 7.791 0 0 0-.4.77 7.667 7.667 0 0 0 9.225 10.5 7.673 7.673 0 0 0 15.338-.343V18.522a.679.679 0 0 0-.685-.678z" class="cls-1" data-name="Path" transform="translate(.077 22.06)"/>
            <path id="Shape" d="M14.646 34.282H9.831a.684.684 0 0 1-.683-.683v-1.226H7.294a.684.684 0 0 1-.683-.683v-6.864H6.16a.683.683 0 1 1 0-1.365h.452v-.354a12.211 12.211 0 1 1 11.253 0v.354h.452a.683.683 0 0 1 0 1.366h-.452v1.228h.452a.683.683 0 0 1 0 1.365h-.452v1.08h.452a.683.683 0 0 1 0 1.366h-.452v1.82a.683.683 0 0 1-.682.683h-1.855V33.6a.683.683 0 0 1-.682.682zm-4.133-1.909v.544h3.45v-.544zm4.133-1.368H16.5v-1.136h-5.354a.683.683 0 1 1 0-1.365H16.5V27.42h-5.354a.683.683 0 1 1 0-1.366H16.5v-1.229H7.978v6.181h6.668zm-2.408-29.64a10.881 10.881 0 0 0-10.87 10.873 10.929 10.929 0 0 0 6.221 9.829l.014.009.022.013h.007a.872.872 0 0 1 .06.037.5.5 0 0 1 .048.04.633.633 0 0 1 .051.047l.033.04.007.008c.014.019.028.037.041.057a.351.351 0 0 1 .021.037l.007.014c.011.022.022.043.031.067s.012.037.017.057v.007a.698.698 0 0 1 .015.062.431.431 0 0 1 .006.068v.018a.222.222 0 0 1 0 .032v.778H16.5v-.778a.185.185 0 0 1 0-.025v-.032a.426.426 0 0 1 .007-.063c0-.013.006-.027.009-.04l.006-.024v-.017a.454.454 0 0 1 .015-.046c.009-.021.018-.042.029-.061l.012-.023a.376.376 0 0 1 .019-.033l.033-.046.006-.008.043-.051c.015-.017.026-.025.039-.037l.009-.008a.524.524 0 0 1 .049-.041.614.614 0 0 1 .066-.04l.016-.01a.164.164 0 0 1 .023-.013 10.873 10.873 0 0 0-4.651-20.7z" class="cls-2" transform="translate(15.974 4.939)"/>
            <path id="Path-3" d="M.683 3.188a.683.683 0 0 0 .683-.683V.683A.683.683 0 1 0 0 .683v1.822a.682.682 0 0 0 .683.683z" class="cls-1" data-name="Path" transform="translate(27.529 .34)"/>
            <path id="Path-4" d="M1 2.6a.683.683 0 1 0 1.183-.683L1.275.342a.683.683 0 1 0-1.183.683z" class="cls-1" data-name="Path" transform="translate(19.567 2.474)"/>
            <path id="Path-5" d="M.342 1.275l1.578.911A.683.683 0 0 0 2.6 1L1.025.092a.683.683 0 1 0-.683 1.183z" class="cls-1" data-name="Path" transform="translate(13.739 8.302)"/>
            <path id="Path-6" d="M.683 1.366h1.822a.683.683 0 1 0 0-1.366H.683a.683.683 0 0 0 0 1.366z" class="cls-1" data-name="Path" transform="translate(11.605 16.265)"/>
            <path id="Path-7" d="M0 .683a.683.683 0 0 0 .683.683H2.5A.683.683 0 0 0 2.5 0H.683A.684.684 0 0 0 0 .683z" class="cls-1" data-name="Path" transform="translate(41.631 16.265)"/>
            <path id="Path-8" d="M.683 2.277a.691.691 0 0 0 .341-.091L2.6 1.275A.683.683 0 0 0 1.919.091L.342 1a.683.683 0 0 0 .341 1.277z" class="cls-1" data-name="Path" transform="translate(39.742 8.303)"/>
            <path id="Path-9" d="M.342 2.852a.681.681 0 0 0 .932-.25l.912-1.578A.683.683 0 0 0 1 .341L.092 1.919a.683.683 0 0 0 .25.933z" class="cls-1" data-name="Path" transform="translate(34.58 2.474)"/>
        </g>
    </g>
</svg>
